<svg width="50" height="50" viewBox="0 0 50 50" fill="none" xmlns="http://www.w3.org/2000/svg">
<path fill-rule="evenodd" clip-rule="evenodd" d="M43.2166 11C43.6896 11.0025 44.1426 11.1929 44.4767 11.5296C44.8108 11.8664 44.9989 12.3221 45.0001 12.7976V33.6119C44.9976 34.0874 44.8083 34.5427 44.4733 34.8786C44.1384 35.2144 43.6849 35.4035 43.2119 35.4047H10.346C10.1121 35.4059 9.88017 35.3605 9.66372 35.2712C9.44727 35.1819 9.25049 35.0504 9.08479 34.8843C8.75134 34.5455 8.5638 34.0885 8.5625 33.6119V12.7976C8.56224 12.5621 8.6082 12.3289 8.69784 12.1114C8.78748 11.8938 8.91897 11.6962 9.08479 11.5299C9.41967 11.1937 9.87276 11.0033 10.346 11H43.2166Z" fill="#8E9DAA"/>
<path fill-rule="evenodd" clip-rule="evenodd" d="M39.6541 14.5906C39.8887 14.5906 40.1211 14.6372 40.3378 14.7275C40.5545 14.8179 40.7513 14.9503 40.917 15.1173C41.0826 15.2843 41.2139 15.4826 41.3032 15.7007C41.3926 15.9187 41.4382 16.1524 41.4376 16.3882V37.2024C41.4366 37.68 41.2471 38.1377 40.9106 38.4749C40.7458 38.6425 40.5493 38.7752 40.3327 38.8654C40.1162 38.9556 39.8838 39.0014 39.6494 39.0001H6.78356C6.5493 39.0003 6.31731 38.954 6.10089 38.8639C5.88446 38.7738 5.68788 38.6416 5.52242 38.4749C5.18897 38.1361 5.00131 37.6791 5.00001 37.2024V16.3882C4.99913 16.1519 5.04489 15.9178 5.13455 15.6994C5.22421 15.481 5.35603 15.2826 5.52242 15.1157C5.85891 14.7825 6.31124 14.5941 6.78356 14.5906H39.6541Z" fill="#CBD5E1"/>
<path d="M15.2305 34.3357H9.53638V35.4142H15.2305V34.3357Z" fill="white"/>
<path d="M22.4542 34.3357H16.7554V35.4095H22.4542V34.3357Z" fill="white"/>
<path d="M29.6776 34.3357H23.9788V35.4095H29.6776V34.3357Z" fill="white"/>
<path d="M36.9012 34.3357H31.2024V35.4142H36.9012V34.3357Z" fill="white"/>
<path d="M22.454 26.8899H9.53638V30.7689H22.454V26.8899Z" fill="white"/>
<path d="M41.4376 18.1572H5V23.3277H41.4376V18.1572Z" fill="#343B43"/>
<path fill-rule="evenodd" clip-rule="evenodd" d="M33.1129 28.8293C33.1129 29.3906 32.9473 29.9393 32.637 30.4061C32.3268 30.8728 31.8858 31.2367 31.3699 31.4515C30.854 31.6663 30.2863 31.7225 29.7386 31.613C29.1909 31.5034 28.6877 31.2331 28.2928 30.8362C27.8979 30.4392 27.629 29.9335 27.5201 29.3829C27.4111 28.8324 27.4671 28.2617 27.6808 27.7431C27.8945 27.2244 28.2563 26.7811 28.7207 26.4692C29.185 26.1573 29.7309 25.991 30.2894 25.991C31.0382 25.991 31.7564 26.29 32.2859 26.8223C32.8154 27.3546 33.1129 28.0765 33.1129 28.8293Z" fill="#EA6552"/>
<path d="M34.0588 31.6818C35.626 31.6818 36.8965 30.4047 36.8965 28.8293C36.8965 27.2539 35.626 25.9768 34.0588 25.9768C32.4916 25.9768 31.2212 27.2539 31.2212 28.8293C31.2212 30.4047 32.4916 31.6818 34.0588 31.6818Z" fill="#343B43"/>
</svg>