<svg width="50" height="50" viewBox="0 0 50 50" fill="none" xmlns="http://www.w3.org/2000/svg">
<path d="M39.2962 10.668V40.8192C39.2962 40.9867 39.2632 41.1525 39.1989 41.3071C39.1346 41.4618 39.0404 41.6022 38.9216 41.7203C38.8041 41.8398 38.6638 41.9344 38.5091 41.9987C38.3543 42.0631 38.1882 42.0958 38.0206 42.0948H12.9659C12.6281 42.0934 12.3045 41.9586 12.0656 41.7197C11.8267 41.4808 11.6919 41.1571 11.6904 40.8192V7.27016C11.6904 7.10291 11.7235 6.93722 11.7876 6.78277C11.8518 6.62832 11.9458 6.48814 12.0644 6.37012C12.1829 6.25211 12.3235 6.15867 12.4782 6.09516C12.633 6.03165 12.7987 5.9993 12.9659 6.00001H34.6228L39.2962 10.668Z" fill="#77818A"/>
<path d="M37.2825 12.5731V42.7243C37.2811 43.0622 37.1462 43.3859 36.9073 43.6248C36.6684 43.8637 36.3448 43.9985 36.0069 43.9999H10.9523C10.7847 44.0009 10.6186 43.9682 10.4639 43.9038C10.3091 43.8395 10.1688 43.7449 10.0513 43.6254C9.93254 43.5073 9.8383 43.3669 9.77402 43.2122C9.70975 43.0576 9.6767 42.8918 9.67676 42.7243V9.17526C9.6767 9.0078 9.70975 8.84198 9.77402 8.68734C9.8383 8.53271 9.93254 8.39224 10.0513 8.27416C10.1688 8.15469 10.3091 8.06008 10.4639 7.99575C10.6186 7.93142 10.7847 7.89872 10.9523 7.89968H32.6092L37.2825 12.5731Z" fill="#CBD5E1"/>
<path d="M37.2825 12.573H33.8847C33.5468 12.5716 33.2232 12.4367 32.9843 12.1978C32.7454 11.9589 32.6106 11.6353 32.6091 11.2975V7.89966L37.2825 12.573Z" fill="#8E9DAA"/>
<path d="M32.6146 18.2883H14.3501V19.7158H32.6146V18.2883Z" fill="white"/>
<path d="M27.9196 21.1433H14.3501V22.5708H27.9196V21.1433Z" fill="white"/>
<path d="M23.4796 12.573H14.3501V14.0005H23.4796V12.573Z" fill="white"/>
<path d="M32.6146 15.428H14.3501V16.8555H32.6146V15.428Z" fill="white"/>
<path d="M22.4918 38.2898H14.3501V39.7173H22.4918V38.2898Z" fill="white"/>
<path d="M29.0051 35.4294H14.3501V36.857H29.0051V35.4294Z" fill="white"/>
<path d="M32.6146 32.5742H14.3501V34.0017H32.6146V32.5742Z" fill="white"/>
<path d="M32.6146 29.7139H14.3501V31.1414H32.6146V29.7139Z" fill="white"/>
<path d="M32.6146 26.8589H14.3501V28.2864H32.6146V26.8589Z" fill="white"/>
<path d="M27.9196 24.0039H14.3501V25.4314H27.9196V24.0039Z" fill="white"/>
</svg>