<svg width="70" height="45" viewBox="0 0 70 45" fill="none" xmlns="http://www.w3.org/2000/svg">
<g clip-path="url(#clip0_1_2)">
<path d="M70 41.1427C70 43.273 68.1475 45 65.8622 45H4.13779C1.85254 45.0001 0 43.273 0 41.1427V3.85721C0 1.72699 1.85254 0 4.13779 0H65.8622C68.1476 0 70 1.72699 70 3.85721V41.1427Z" fill="#306FC5"/>
<path d="M10.1272 17.4684H12.1862L11.157 14.848L10.1272 17.4684ZM21.0768 26.2649V27.4817H24.5396V28.7922H21.0768V30.1963H24.9137L26.6918 28.2306L25.0074 26.2649H21.0768ZM48.1224 14.848L46.9993 17.4684H49.152L48.1224 14.848ZM31.0904 30.9442V25.61L28.657 28.2306L31.0904 30.9442ZM35.676 27.1076C35.5824 26.5461 35.2077 26.2649 34.6459 26.2649H32.681V27.9494H34.7401C35.3015 27.9495 35.676 27.6689 35.676 27.1076ZM42.2264 27.7627C42.4136 27.6689 42.5076 27.3879 42.5076 27.1077C42.6012 26.7337 42.4136 26.5462 42.2264 26.4525C42.0397 26.3588 41.7586 26.3588 41.4782 26.3588H39.6061V27.8564H41.4781C41.7584 27.8564 42.0396 27.8564 42.2264 27.7627Z" fill="white"/>
<path d="M55.7023 12.4147V13.5377L55.1412 12.4147H50.7431V13.5377L50.1813 12.4147H44.1919C43.1626 12.4147 42.3199 12.602 41.5716 12.9763V12.4147H37.3605V12.9763C36.8927 12.6022 36.3312 12.4147 35.5825 12.4147H20.5154L19.4855 14.7543L18.4563 12.4147H13.6836V13.5377L13.2156 12.4147H9.09793L7.22595 16.813L5.07376 21.5857L5.03419 21.6796H9.90639L9.94031 21.5857L10.5021 20.1823H11.7186L12.2801 21.6796H17.7075V20.5566L18.1757 21.6794H20.8894L21.3571 20.5566V21.6796H34.3655V19.2462H34.5532C34.7401 19.2462 34.7401 19.2462 34.7401 19.5271V21.5859H41.4782V21.0244C42.0397 21.3055 42.8815 21.5859 44.0046 21.5859H46.8125L47.374 20.0889H48.6838L49.2453 21.5859H54.6729V20.1824L55.5156 21.5859H59.9139V12.4147H55.7023ZM23.9778 20.2761H22.4804V15.1288L22.3867 15.3434V15.3409L20.2096 20.2761H18.8304L16.5845 15.1288V20.2761H13.4028L12.7478 18.8723H9.56562L8.91045 20.2761H7.26538L10.0339 13.725H12.3733L14.9935 19.9951V13.725H17.4729L17.5171 13.8188H17.5203L18.701 16.3886L19.5489 18.3141L19.5789 18.217L21.4505 13.7252H23.9777L23.9778 20.2761ZM30.4353 15.1288H26.7854V16.3453H30.3416V17.6554H26.7854V18.966H30.4353V20.3693H25.1946V13.7252H30.4353V15.1288ZM37.1102 17.5419C37.1126 17.5441 37.1157 17.5456 37.1187 17.5476C37.1541 17.585 37.1844 17.6225 37.2102 17.6585C37.3895 17.8935 37.5344 18.243 37.5417 18.7555L37.5432 18.782C37.5432 18.7871 37.5441 18.7916 37.5441 18.7968L37.5438 18.8049C37.546 18.8564 37.5473 18.9091 37.5473 18.966V20.2762H36.1439V19.5272C36.1439 19.1529 36.1439 18.5913 35.8627 18.217C35.7842 18.1368 35.6906 18.0728 35.5873 18.0289C35.4471 17.938 35.1813 17.9365 34.7401 17.9365H33.0551V20.2762H31.4645V13.7252H35.021C35.8627 13.7252 36.4245 13.7252 36.8926 14.0059C37.3511 14.2813 37.6281 14.7379 37.6386 15.4611C37.6169 16.457 36.9776 17.0034 36.518 17.1877C36.518 17.1877 36.8303 17.2505 37.1102 17.5419ZM40.2616 20.2761H38.6705V13.725H40.2616V20.2761ZM58.5106 20.2761H56.4514L53.4568 15.3158V19.4336L53.447 19.4239V20.2801H51.866V20.2762H50.2749L49.7134 18.8725H46.4377L45.8762 20.3695H44.0981C43.35 20.3695 42.4135 20.1825 41.8523 19.621C41.2908 19.0595 41.0103 18.3108 41.0103 17.0944C41.0103 16.1586 41.1972 15.2222 41.8523 14.4737C42.3198 13.9118 43.1625 13.7252 44.1917 13.7252H45.6894V15.1288H44.1917C43.6302 15.1288 43.35 15.222 42.9749 15.5033C42.6946 15.7839 42.5073 16.3453 42.5073 17.0003C42.5073 17.7492 42.601 18.217 42.9749 18.5913C43.2563 18.8725 43.6303 18.9661 44.0981 18.9661H44.7532L46.9053 13.8191H49.2452L51.8658 20.0891V13.8192H54.2053L56.9187 18.4046V13.8192H58.5103L58.5106 20.2761Z" fill="white"/>
<path d="M35.7758 16.4534C35.8031 16.4242 35.8279 16.3911 35.8488 16.3531C35.9336 16.219 36.0308 15.9772 35.9785 15.6474C35.9761 15.6186 35.9714 15.59 35.9643 15.562C35.9626 15.5545 35.9628 15.5479 35.9608 15.5404C35.9142 15.3801 35.7945 15.2817 35.6759 15.2219C35.4883 15.1287 35.2075 15.1287 34.9269 15.1287H33.0549V16.6262H34.9269C35.2075 16.6262 35.4884 16.6262 35.6759 16.5324C35.704 16.5181 35.7291 16.4988 35.7532 16.4768L35.7534 16.478C35.7536 16.4779 35.7631 16.4679 35.7758 16.4534ZM64.0316 29.6345C64.0316 28.9795 63.8447 28.3242 63.5641 27.8564V23.6452H63.5598V23.3641H59.0534C58.4698 23.3641 57.7616 23.9254 57.7616 23.9254V23.3641H53.4569C52.8015 23.3641 51.9598 23.5514 51.585 23.9254V23.3641H43.9113V23.9253C43.3502 23.4578 42.32 23.3639 41.8524 23.3639H36.7988V23.9252C36.3309 23.4576 35.2074 23.3638 34.6456 23.3638H29.0314L27.721 24.7677L26.5043 23.3638H18.0821V32.8163H26.3175L27.6706 31.4628L28.8436 32.8163H34.0847V30.664H34.5529C35.2074 30.664 36.0501 30.664 36.7051 30.3828V32.9098H40.9165V30.4765H41.1031C41.3843 30.4765 41.3843 30.4765 41.3843 30.7573V32.9098H54.1113C54.9542 32.9098 55.7959 32.7222 56.2638 32.3479V32.9098H60.2882C61.1299 32.9098 61.9728 32.8163 62.5343 32.4418C63.396 31.9248 63.939 31.0097 64.0198 29.9184C64.0236 29.8861 64.0283 29.8538 64.0312 29.8213L64.0257 29.8161C64.0292 29.7555 64.0316 29.6956 64.0316 29.6345ZM34.553 29.0732H32.6809V31.5061H29.6049L27.8146 29.447L27.8084 29.4539L27.721 29.3532L25.6622 31.5061H19.6729V24.9553H25.7558L27.4177 26.7756L27.7671 27.1568L27.8145 27.1076L29.78 24.9554H34.7398C35.7024 24.9554 36.7803 25.193 37.1888 26.1724C37.2379 26.3663 37.2665 26.5819 37.2665 26.8269C37.2665 28.6985 35.9562 29.0732 34.553 29.0732ZM43.9113 28.9793C44.0983 29.2594 44.1919 29.6344 44.1919 30.1962V31.506H42.6012V30.664C42.6012 30.289 42.6012 29.6344 42.3201 29.3532C42.1334 29.0732 41.7586 29.0732 41.1975 29.0732H39.5131V31.5061H37.9223V24.8616H41.4782C42.2264 24.8616 42.8815 24.8616 43.3502 25.1421C43.8178 25.4231 44.1919 25.8911 44.1919 26.6398C44.1919 27.669 43.5372 28.2305 43.0691 28.418C43.5372 28.6044 43.8178 28.7921 43.9113 28.9793ZM50.3688 26.2648H46.7185V27.4815H50.2749V28.792H46.7185V30.1023H50.3688V31.506H45.1281V24.8615H50.3688V26.2648ZM54.2991 31.5061H51.3042V30.1025H54.2991C54.5793 30.1025 54.7669 30.1025 54.9545 29.9151C55.0482 29.8213 55.1412 29.6345 55.1412 29.4472C55.1412 29.2596 55.0482 29.0733 54.9545 28.9795C54.8606 28.8859 54.6731 28.7923 54.3925 28.7923C52.895 28.6986 51.117 28.7923 51.117 26.7336C51.117 25.7977 51.6785 24.7681 53.3631 24.7681H56.4513V26.3588H53.5504C53.2697 26.3588 53.0823 26.3588 52.8949 26.4525C52.7082 26.5463 52.7082 26.7336 52.7082 26.9206C52.7082 27.2014 52.8949 27.2951 53.0821 27.388C53.2697 27.4818 53.4567 27.4818 53.6436 27.4818H54.486C55.3284 27.4818 55.8898 27.669 56.264 28.0434C56.5449 28.3243 56.7321 28.7923 56.7321 29.4472C56.7321 30.8505 55.8899 31.5061 54.2991 31.5061ZM62.3473 30.8505C61.9734 31.2253 61.3179 31.5061 60.3818 31.5061H57.3877V30.1025H60.3816C60.6625 30.1025 60.8501 30.1025 61.0371 29.9151C61.1303 29.8213 61.2243 29.6345 61.2243 29.4472C61.2243 29.2596 61.1303 29.0733 61.0371 28.9795C60.9434 28.8859 60.7564 28.7923 60.4756 28.7923C58.9787 28.6986 57.2001 28.7923 57.2001 26.7338C57.2001 25.8443 57.709 25.0408 58.964 24.8022C59.1238 24.7797 59.2849 24.7683 59.4462 24.7681H62.5348V26.3588H59.6334C59.3526 26.3588 59.1656 26.3588 58.9787 26.4525C58.8845 26.5463 58.7908 26.7336 58.7908 26.9206C58.7908 27.2014 58.8845 27.2951 59.1656 27.388C59.3526 27.4818 59.5398 27.4818 59.7271 27.4818H60.5691C60.9781 27.4818 61.2874 27.5323 61.5704 27.6317C61.8296 27.7255 62.6878 28.1094 62.8797 29.1114C62.8964 29.2164 62.9086 29.3259 62.9086 29.4472C62.9086 30.0088 62.7214 30.4766 62.3473 30.8505Z" fill="white"/>
</g>
<defs>
<clipPath id="clip0_1_2">
<rect width="70" height="45" fill="white"/>
</clipPath>
</defs>
</svg>
