<svg width="99" height="109" viewBox="0 0 99 109" fill="none" xmlns="http://www.w3.org/2000/svg">
<g clip-path="url(#clip0_6815_27566)">
<path d="M53.201 64.6588C52.9366 64.6588 52.7383 64.5926 52.5401 64.4602L52.2096 64.3279C51.5488 63.9308 51.2844 63.1366 51.6809 62.4086L51.8792 62.0777C52.2096 61.4159 53.1349 61.1512 53.7958 61.5483L54.1262 61.7468C54.7871 62.1439 55.0514 62.9381 54.6549 63.6661L54.4566 63.997C54.1262 64.394 53.6636 64.6588 53.201 64.6588ZM53.0688 62.0777C52.8044 62.0777 52.5401 62.2101 52.4079 62.4748L52.2096 62.7395C52.0114 63.0704 52.1436 63.5337 52.474 63.7322L52.8044 63.9308C52.9366 63.997 53.0027 63.997 53.1349 63.997C53.3992 63.997 53.6636 63.8646 53.7958 63.5999L53.994 63.269C54.1923 62.9381 54.0601 62.4748 53.7297 62.2763L53.3992 62.0777C53.2671 62.0777 53.1349 62.0777 53.0688 62.0777Z" fill="#F86464"/>
<path d="M70.45 57.048C67.5421 54.136 65.1629 51.3564 63.3125 48.5768C62.9159 48.9077 62.3872 49.2386 61.7263 49.5695C61.3959 49.7019 60.9333 49.9666 60.2724 50.2313C61.5942 49.4372 64.1716 47.8488 64.1716 47.8488L64.7664 43.3485L66.8812 41.1646L66.0882 37.5246L68.3351 34.4141L66.0882 31.3036L67.5421 28.3254C67.1456 27.6636 66.4186 26.6047 65.1629 25.9429C61.9246 24.1561 58.3558 26.2738 58.0915 26.4062C59.7437 27.4651 60.1402 28.3916 60.2063 29.0534C60.2724 30.2447 59.2811 30.708 59.3472 32.0978C59.4133 33.4214 60.4046 33.6199 60.4046 34.8774C60.4046 36.1348 59.4133 36.3333 59.4133 37.5908C59.4133 38.8482 60.4046 39.0468 60.4046 40.3042C60.4046 41.694 59.2811 41.9587 59.3472 43.2162C59.4133 44.2089 60.1402 44.4736 60.1402 45.4001C60.0741 46.2605 59.5454 46.8561 59.2811 47.1208C56.3732 50.1652 42.6269 47.3856 42.6269 47.3856C40.5121 46.9223 38.8598 46.3267 35.3572 45.2678C35.4233 46.3928 35.4894 47.4517 35.4894 48.5768C47.8478 51.4226 53.7297 51.8859 56.9019 51.4226C57.1663 52.0182 57.4967 52.68 57.8271 53.2757C62.189 61.7468 66.2203 63.1366 69.1943 68.8282C72.2343 74.6521 73.2257 83.3218 69.6569 90.6679C65.0968 100.132 53.994 105.492 45.4687 104.103C46.5922 104.301 47.7817 104.5 48.9713 104.566C65.1629 105.559 78.6449 92.7195 78.6449 76.7037C78.6449 69.0929 75.5387 62.0777 70.45 57.048Z" fill="#61C4F2"/>
<path d="M60.8011 78.6229C60.735 72.4019 55.6462 67.3722 49.4339 67.4384C43.2217 67.5045 38.199 72.6005 38.265 78.8215C38.3311 85.0425 43.4199 90.0722 49.6322 90.0061C55.8445 89.9399 60.8672 84.8439 60.8011 78.6229ZM49.5661 87.7559C48.8391 87.7559 48.2444 87.1603 48.2444 86.4323V86.1676C46.3939 85.8367 45.1382 84.6454 44.7417 84.2483C44.213 83.7189 44.2791 82.8585 44.8078 82.3953C45.3365 81.8658 46.1956 81.932 46.6582 82.4614C46.8565 82.66 47.98 83.7851 49.5 83.6527C50.227 83.5865 51.5488 83.1894 51.8131 82.3953C52.0114 81.8658 51.8131 81.1378 51.3505 80.6084C50.8879 80.0127 50.1609 79.9466 49.0374 79.8142C47.7817 79.6818 46.2617 79.4833 45.2043 78.0935C44.3452 76.9022 44.0808 75.3139 44.6756 73.9903C45.2704 72.5343 46.7243 71.6739 48.1122 71.4092V71.2769C48.1122 70.5489 48.707 69.9532 49.4339 69.9532C50.1609 69.9532 50.7557 70.5489 50.7557 71.2769V71.6078C52.0775 72.071 52.9366 72.9314 53.3331 73.3946C53.7958 73.9903 53.7297 74.7844 53.1349 75.2477C52.5401 75.711 51.747 75.6448 51.2844 75.0492C51.0861 74.7844 50.3592 74.0565 49.3018 73.9903C48.5087 73.9241 47.3852 74.3212 47.1209 74.983C46.9887 75.3801 46.9887 76.0419 47.3191 76.5051C47.6496 76.9684 48.3104 77.1008 49.3679 77.2331C50.6235 77.3655 52.2096 77.564 53.3992 78.9538C54.4566 80.1451 54.7871 81.8658 54.3245 83.2556C53.7958 84.9101 52.2757 85.7705 50.8218 86.1676V86.4985C50.8879 87.1603 50.2931 87.7559 49.5661 87.7559Z" fill="#F86464"/>
<path d="M48.7069 64.0631C49.4339 64.0631 50.0287 63.4675 50.0287 62.7395C50.0287 62.0115 49.4339 61.4159 48.7069 61.4159C44.4112 61.4821 40.3798 63.1366 37.3397 66.2471C34.2997 69.3576 32.6475 73.3946 32.7136 77.6964C32.7136 78.4244 33.3084 79.02 34.0353 79.02C34.7623 79.02 35.3571 78.4244 35.3571 77.6964C35.3571 74.0565 36.6789 70.6812 39.2563 68.1002C41.7016 65.5853 45.1381 64.1293 48.7069 64.0631Z" fill="#F86464"/>
<path d="M52.6722 64.1955C53.2009 64.4602 53.7957 64.2617 54.1261 63.7984L54.3244 63.4675C54.5887 62.9381 54.3905 62.3425 53.9279 62.0116L53.5313 61.8792C53.0026 61.6145 52.4079 61.813 52.0774 62.2763L51.8791 62.6072C51.6148 63.1366 51.8131 63.7323 52.2757 64.0632L52.6722 64.1955Z" fill="#F86464"/>
<path d="M66.8811 9.39771C66.8811 9.66243 66.815 10.1257 66.815 10.7213C66.6168 12.8391 66.0881 16.3467 64.502 20.119C64.0393 21.1779 63.6428 22.0383 63.4446 22.3692C62.7837 23.4942 62.1889 24.487 61.7263 25.1488C59.2149 25.612 56.7696 26.0753 54.2583 26.5386C56.4392 24.1561 57.8931 21.9721 58.8184 20.3176C60.9993 16.4791 60.801 14.9569 60.5367 14.0304C60.2723 13.17 59.8097 12.5744 59.4793 12.1773C61.1976 12.1773 62.9158 12.1773 64.6341 12.1773C64.7002 12.1773 65.8237 12.1773 66.4846 11.2508C67.1455 10.4566 66.9472 9.53007 66.8811 9.39771Z" fill="#61C4F2"/>
<path d="M86.0466 75.5125C85.3197 75.5125 84.7249 76.1081 84.7249 76.8361C84.7249 86.0352 81.1561 94.6387 74.6795 101.124C72.5646 103.242 70.1855 105.029 67.6741 106.551C67.0132 106.948 66.815 107.743 67.2115 108.338C67.4759 108.735 67.8724 109 68.335 109C68.5333 109 68.7976 108.934 68.9959 108.801C71.7055 107.213 74.2829 105.228 76.5299 102.978C83.5353 95.9624 87.3684 86.697 87.3684 76.8361C87.3684 76.1081 86.7736 75.5125 86.0466 75.5125Z" fill="#263357"/>
<path d="M20.3552 93.1166C17.7778 88.4177 16.3238 83.1894 16.1917 77.9611C15.9273 69.5562 18.703 61.3497 24.1222 54.864C24.5848 54.3345 24.5188 53.4742 23.924 53.0109C23.3292 52.5477 22.5361 52.6138 22.0735 53.2095C16.3238 60.1585 13.2838 69.0267 13.5481 78.0935C13.7464 83.7851 15.2664 89.4104 18.0421 94.4402C18.3065 94.9035 18.703 95.102 19.2317 95.102C19.43 95.102 19.6943 95.0358 19.8926 94.9696C20.4874 94.5726 20.6856 93.7784 20.3552 93.1166Z" fill="#263357"/>
<path d="M85.9145 74.5197C86.6445 74.5197 87.2363 73.9271 87.2363 73.1961C87.2363 72.4651 86.6445 71.8725 85.9145 71.8725C85.1845 71.8725 84.5928 72.4651 84.5928 73.1961C84.5928 73.9271 85.1845 74.5197 85.9145 74.5197Z" fill="#263357"/>
<path d="M79.9667 76.8361C79.9667 69.0267 76.9266 61.6806 71.3752 56.1214C68.7978 53.6066 66.7491 51.1579 65.0969 48.7754C66.1543 47.7165 66.3525 46.7899 66.3525 46.1281C66.3525 45.4663 66.2204 44.8045 65.956 44.2089C67.2778 43.4147 68.203 41.8925 68.203 40.238C68.203 39.51 68.0047 38.782 67.6743 38.1202C68.8639 37.2599 69.657 35.8701 69.657 34.3479C69.657 33.0243 69.1282 31.833 68.1369 30.9727C68.7317 30.1123 69.0622 29.0534 68.8639 28.1269C68.6656 26.9356 68.0047 25.8106 67.0134 25.0164C66.1543 24.3546 65.0308 24.0237 63.9734 23.9575C64.5682 22.9648 65.0969 21.9059 65.6917 20.5161C66.9473 17.6041 67.6743 14.4274 68.0047 11.1846C68.1369 10.8537 68.203 10.5228 68.203 10.1257C68.203 9.99333 68.203 9.86096 68.1369 9.7286C68.1369 9.59624 68.1369 9.46388 68.203 9.33152C68.203 8.86825 68.0047 8.47116 67.6743 8.20644C67.0134 7.14755 65.8899 6.41956 64.5682 6.41956H51.3505C49.3679 6.41956 47.7818 8.0079 47.7157 9.92715H41.5034C39.3225 9.92715 37.5381 11.714 37.5381 13.898C37.5381 14.2951 37.6042 14.7584 37.7364 15.0893C38.1329 17.4718 38.9921 19.7219 40.1817 21.7735C39.2564 22.2368 38.3312 22.7001 37.472 23.2295C36.679 23.759 35.952 24.2884 35.2911 24.884H29.1449C28.418 24.884 27.8232 25.4797 27.8232 26.2077C27.8232 26.9356 28.418 27.5313 29.1449 27.5313H33.9033C33.9694 27.5975 33.9694 27.7298 34.0355 27.796C34.1015 27.9284 34.2337 27.9945 34.3659 28.0607V48.5768H29.0788C28.3519 48.5768 27.7571 49.1724 27.7571 49.9004C27.7571 50.6284 28.3519 51.2241 29.0788 51.2241H34.1676C32.912 52.7462 31.5241 54.2684 29.938 55.8567C24.1883 61.6145 21.1483 69.3576 21.4126 77.4979C21.8752 92.3886 33.9033 104.831 48.7731 105.757C49.434 105.823 50.0288 105.823 50.6897 105.823C58.1576 105.823 65.229 103.044 70.6483 97.8816C76.5962 92.6533 79.9667 84.844 79.9667 76.8361ZM55.2497 25.1488C54.1923 25.2811 53.1349 25.3473 52.0114 25.4135C50.227 25.4797 48.4427 25.4797 46.5922 25.4135C45.0061 24.156 43.6843 22.7001 42.6269 20.9794C42.0321 20.0528 41.5695 19.0601 41.2391 18.0674C41.3052 18.0674 41.4373 18.0674 41.5034 18.0674H58.3559C58.422 18.0674 58.5541 18.0674 58.6202 18.0674C58.3559 18.7292 58.0915 19.391 57.695 19.9866C57.2985 20.5823 57.4967 21.4426 58.1576 21.8397C58.3559 21.9721 58.6202 22.0383 58.8185 22.0383C59.2811 22.0383 59.6776 21.8397 59.942 21.3764C60.4707 20.5161 60.8672 19.6557 61.1977 18.7292C61.6603 17.3394 61.9246 15.8834 61.9246 14.3613C61.9246 14.2289 61.8586 14.1627 61.8586 14.0304C61.8586 13.9642 61.8586 13.898 61.8586 13.7656H64.5682C64.7003 13.7656 64.8325 13.7656 64.9647 13.6995C64.5682 15.6849 64.0395 17.6041 63.2464 19.4572C62.3873 21.575 61.462 22.9648 60.6029 24.3546C58.6863 24.7517 57.2985 24.9502 55.2497 25.1488ZM50.4253 10.2581C50.4253 9.7286 50.8879 9.26534 51.4166 9.26534H64.6343C65.0969 9.26534 65.4273 9.53006 65.5595 9.92715C65.5595 10.1919 65.4934 10.3904 65.4934 10.6551C65.3612 10.986 65.0308 11.1846 64.6343 11.1846H59.3472C58.6863 11.1846 58.1576 11.6479 58.0254 12.2435C57.8933 12.8391 58.2237 13.5009 58.8185 13.6995C59.1489 13.8318 59.3472 14.1627 59.3472 14.4936C59.3472 14.9569 58.9507 15.354 58.4881 15.354H51.0201C50.8879 14.6922 50.7557 14.0304 50.6897 13.4347C50.5575 12.442 50.4914 11.3831 50.4914 10.3904V10.2581H50.4253ZM41.5695 12.7729H47.914C47.914 13.1038 47.98 13.5009 48.0461 13.8318C48.1122 14.3613 48.2444 14.8907 48.3105 15.4202H41.5695C41.0408 15.4202 40.5782 15.0893 40.3799 14.626C40.3138 14.4274 40.3138 14.1627 40.2477 13.9642C40.3138 13.3024 40.9086 12.7729 41.5695 12.7729ZM38.9921 25.6782C39.8512 25.0826 40.7764 24.6193 41.7678 24.2222C42.0982 24.6855 42.4947 25.0826 42.8913 25.4797C42.5608 25.6782 42.2965 26.0753 42.2965 26.4724C42.2304 27.2004 42.7591 27.8622 43.4861 27.8622C45.2704 27.9945 46.9887 28.0607 48.7731 28.0607C49.8966 28.0607 51.0201 28.0607 52.2097 27.9945C53.3332 27.9284 54.3906 27.8622 55.5141 27.7298C55.5141 27.7298 55.5141 27.7298 55.5802 27.7298C55.7124 27.7298 55.7785 27.7298 55.8445 27.7298C56.0428 27.7298 56.2411 27.7298 56.4393 27.6636H56.5054C58.6863 27.3989 60.2064 27.2004 63.0481 26.7371L63.5768 26.6709C64.1716 26.6047 64.8986 26.7371 65.4934 27.2004C65.8238 27.4651 66.2204 27.8622 66.3525 28.6563C66.4186 28.9211 66.0221 29.8476 65.4273 30.2447C65.0308 30.5094 64.7664 31.0389 64.8325 31.5021C64.8986 31.9654 65.229 32.4287 65.6917 32.561C66.4847 32.8258 67.0134 33.6199 67.0134 34.4141C67.0134 35.3406 66.2865 36.201 65.3612 36.3333C64.8325 36.3995 64.436 36.7966 64.3038 37.3261C64.1716 37.8555 64.3699 38.3849 64.7664 38.7159C65.2951 39.1129 65.5595 39.7086 65.5595 40.3042C65.5595 41.3631 64.7664 42.2234 63.709 42.2896C63.1803 42.3558 62.7177 42.6867 62.5194 43.2162C62.3873 43.7456 62.5194 44.3412 62.9821 44.6721C63.4447 45.0692 63.7751 45.5987 63.7751 46.1943C63.7751 46.2605 63.709 46.459 63.5108 46.7237C63.3125 46.9223 63.0481 47.2532 62.5855 47.5841C62.3212 47.7826 61.9907 47.9812 61.6603 48.1797C61.5281 48.2459 61.3959 48.3121 61.2638 48.3783C59.942 49.0401 58.3559 49.5695 56.5715 49.9004C52.474 50.6946 47.5835 50.5622 42.0321 49.5033C41.0408 49.3048 39.9834 49.1063 38.926 48.8415L37.0094 48.3121V27.2004C37.6042 26.6709 38.2651 26.1415 38.9921 25.6782ZM49.0375 103.375C35.5555 102.514 24.5849 91.2635 24.1883 77.6964C23.924 70.218 26.6997 63.269 31.9867 57.9745C34.2337 55.7244 36.2164 53.4742 37.8686 51.2902C39.1242 51.6211 40.3138 51.8859 41.5034 52.0844C44.8739 52.7462 47.9801 53.0109 50.8879 53.0109C53.0688 53.0109 55.1176 52.8124 57.0341 52.4815C59.0829 52.0844 60.8672 51.4888 62.3873 50.6946C62.5855 50.5622 62.8499 50.4961 63.0481 50.3637C64.7664 52.8124 66.9473 55.3273 69.5909 57.9745C74.6136 63.0043 77.3893 69.6885 77.3893 76.7699C77.3893 84.1822 74.4153 91.065 68.9961 96.1609C63.5108 101.323 56.4393 103.838 49.0375 103.375Z" fill="#263357"/>
<path d="M64.7663 2.64724C68.6655 2.64724 71.9039 5.82392 71.9039 9.79478C71.9039 10.5228 72.4987 11.1184 73.2256 11.1184C73.9526 11.1184 74.5474 10.5228 74.5474 9.79478C74.5474 4.36794 70.1856 0 64.7663 0C64.0394 0 63.4446 0.595628 63.4446 1.32362C63.4446 2.05161 64.0394 2.64724 64.7663 2.64724Z" fill="#263357"/>
<path d="M79.438 56.9156C80.168 56.9156 80.7597 56.323 80.7597 55.592C80.7597 54.861 80.168 54.2684 79.438 54.2684C78.708 54.2684 78.1162 54.861 78.1162 55.592C78.1162 56.323 78.708 56.9156 79.438 56.9156Z" fill="#263357"/>
<path d="M30.5327 47.6503C31.2627 47.6503 31.8545 47.0577 31.8545 46.3267C31.8545 45.5957 31.2627 45.0031 30.5327 45.0031C29.8027 45.0031 29.2109 45.5957 29.2109 46.3267C29.2109 47.0577 29.8027 47.6503 30.5327 47.6503Z" fill="#263357"/>
<path d="M73.2917 14.5598C74.0217 14.5598 74.6135 13.9672 74.6135 13.2362C74.6135 12.5052 74.0217 11.9126 73.2917 11.9126C72.5617 11.9126 71.97 12.5052 71.97 13.2362C71.97 13.9672 72.5617 14.5598 73.2917 14.5598Z" fill="#263357"/>
<path d="M8.06273 62.2101C8.79272 62.2101 9.38449 61.6175 9.38449 60.8865C9.38449 60.1554 8.79272 59.5628 8.06273 59.5628C7.33274 59.5628 6.74097 60.1554 6.74097 60.8865C6.74097 61.6175 7.33274 62.2101 8.06273 62.2101Z" fill="#263357"/>
<path d="M21.4787 98.2787C22.2087 98.2787 22.8005 97.6861 22.8005 96.9551C22.8005 96.2241 22.2087 95.6315 21.4787 95.6315C20.7488 95.6315 20.157 96.2241 20.157 96.9551C20.157 97.6861 20.7488 98.2787 21.4787 98.2787Z" fill="#263357"/>
<path d="M6.74099 17.0747H2.7757L2.64353 16.9423L13.7463 3.30904C13.8124 3.30904 13.9446 3.30904 13.9446 3.30904L25.1135 16.9423L26.1709 16.082L25.0474 17.0747H20.0908C18.5708 17.0747 17.3151 18.3321 17.3151 19.8543V38.3188C17.3151 39.0467 17.9099 39.6424 18.6369 39.6424C19.3638 39.6424 19.9586 39.0467 19.9586 38.3188V19.8543C19.9586 19.7881 20.0247 19.7219 20.0908 19.7219H25.0474C26.1048 19.7219 27.0961 19.1263 27.5587 18.1336C28.0214 17.207 27.8892 16.082 27.2283 15.2216L16.0594 1.65452C15.002 0.3309 12.755 0.3309 11.7637 1.65452L0.594797 15.2878C-0.0660837 16.1481 -0.19826 17.207 0.264357 18.1998C0.726974 19.1925 1.65221 19.7881 2.7757 19.7881H6.74099C6.80708 19.7881 6.87317 19.8543 6.87317 19.9205V56.9818C6.87317 57.7098 7.46796 58.3054 8.19493 58.3054C8.9219 58.3054 9.51669 57.7098 9.51669 56.9818V19.8543C9.51669 18.3321 8.26102 17.0747 6.74099 17.0747Z" fill="#263357"/>
<path d="M98.4051 40.5027L87.3023 26.2076C86.7736 25.5458 85.9806 25.1487 85.1214 25.1487C84.2623 25.1487 83.4692 25.5458 82.9405 26.2076L71.8377 40.5027C71.1768 41.3631 71.0447 42.4881 71.5073 43.4147C71.9699 44.3412 72.8951 44.9368 74.0186 44.9368H78.1161C78.1822 44.9368 78.2483 45.003 78.2483 45.0692V52.0182C78.2483 52.7462 78.8431 53.3418 79.57 53.3418C80.297 53.3418 80.8918 52.7462 80.8918 52.0182V45.1354C80.8918 43.6132 79.6361 42.3558 78.1161 42.3558L73.8865 42.2896C73.8204 42.2234 73.8865 42.1572 73.8865 42.1572L84.9893 27.8622H85.1875L96.2903 42.1572C96.2903 42.1572 96.3564 42.2234 96.2242 42.3558H91.3998C89.8798 42.3558 88.6241 43.6132 88.6241 45.1354V59.4305C88.6241 60.1585 89.2189 60.7541 89.9459 60.7541C90.6728 60.7541 91.2676 60.1585 91.2676 59.4305V45.1354C91.2676 45.0692 91.3337 45.003 91.3998 45.003H96.2242C97.2817 45.003 98.2069 44.4074 98.7356 43.4809C99.1982 42.4881 99.066 41.3631 98.4051 40.5027Z" fill="#263357"/>
</g>
<defs>
<clipPath id="clip0_6815_27566">
<rect width="99" height="109" fill="white"/>
</clipPath>
</defs>
</svg>
