<svg width="131" height="97" viewBox="0 0 131 97" fill="none" xmlns="http://www.w3.org/2000/svg">
<path d="M122.382 45.9474H94.8026V40.8421H110.316C115.056 40.8421 118.934 37.0132 118.934 32.3333V25.5263C118.934 24.5903 118.159 23.8246 117.211 23.8246C116.262 23.8246 115.487 24.5903 115.487 25.5263V32.3333C115.487 35.1412 113.16 37.4386 110.316 37.4386H94.8026V32.3333H98.25C102.99 32.3333 106.868 28.5044 106.868 23.8246V11.9123C106.868 10.9763 106.093 10.2105 105.145 10.2105C104.197 10.2105 103.421 10.9763 103.421 11.9123V23.8246C103.421 26.6325 101.094 28.9298 98.25 28.9298H94.8026V12.7632C94.8026 5.70088 89.0283 0 81.875 0C74.7217 0 68.9474 5.70088 68.9474 12.7632V18.7193H17.2368C12.4967 18.7193 8.61841 22.5482 8.61841 27.2281V71.4737C8.61841 76.1535 12.4967 79.9825 17.2368 79.9825H68.9474V84.2368C68.9474 91.2991 74.7217 97 81.875 97C89.0283 97 94.8026 91.2991 94.8026 84.2368V66.3684H98.25C101.094 66.3684 103.421 68.6658 103.421 71.4737V83.386C103.421 84.3219 104.197 85.0877 105.145 85.0877C106.093 85.0877 106.868 84.3219 106.868 83.386V71.4737C106.868 66.7939 102.99 62.9649 98.25 62.9649H94.8026V57.8596H110.316C113.16 57.8596 115.487 60.157 115.487 62.9649V69.7719C115.487 70.7079 116.262 71.4737 117.211 71.4737C118.159 71.4737 118.934 70.7079 118.934 69.7719V62.9649C118.934 58.2851 115.056 54.4561 110.316 54.4561H94.8026V49.3509H122.382C123.33 49.3509 124.105 48.5851 124.105 47.6491C124.105 46.7132 123.33 45.9474 122.382 45.9474ZM17.2368 76.5789C14.3928 76.5789 12.0658 74.2816 12.0658 71.4737V27.2281C12.0658 24.4202 14.3928 22.1228 17.2368 22.1228H68.9474H72.3947H81.0132V76.5789H72.3947H68.9474H17.2368ZM91.3553 84.2368C91.3553 89.4272 87.1322 93.5965 81.875 93.5965C76.6178 93.5965 72.3947 89.4272 72.3947 84.2368V79.9825H84.4605V18.7193H72.3947V12.7632C72.3947 7.57281 76.6178 3.40351 81.875 3.40351C87.1322 3.40351 91.3553 7.57281 91.3553 12.7632V84.2368Z" fill="#263357"/>
<path d="M24.1315 13.614H53.4341C54.3822 13.614 55.1578 12.8483 55.1578 11.9123C55.1578 10.9763 54.3822 10.2105 53.4341 10.2105H24.1315C23.1835 10.2105 22.4078 10.9763 22.4078 11.9123C22.4078 12.8483 23.1835 13.614 24.1315 13.614Z" fill="#263357"/>
<path d="M34.4737 85.0877H16.2026C9.13553 85.0877 3.44737 79.4719 3.44737 72.4947V34.0351C3.44737 33.0991 2.67171 32.3333 1.72368 32.3333C0.775658 32.3333 0 33.0991 0 34.0351V72.4947C0 81.3439 7.23947 88.4912 16.2026 88.4912H34.4737C35.4217 88.4912 36.1974 87.7254 36.1974 86.7895C36.1974 85.8535 35.4217 85.0877 34.4737 85.0877Z" fill="#263357"/>
<path d="M39.6447 88.6614C40.6919 88.6614 41.5408 87.8233 41.5408 86.7895C41.5408 85.7556 40.6919 84.9175 39.6447 84.9175C38.5975 84.9175 37.7487 85.7556 37.7487 86.7895C37.7487 87.8233 38.5975 88.6614 39.6447 88.6614Z" fill="#263357"/>
<path d="M18.9605 13.7842C20.0077 13.7842 20.8566 12.9461 20.8566 11.9123C20.8566 10.8784 20.0077 10.0403 18.9605 10.0403C17.9133 10.0403 17.0645 10.8784 17.0645 11.9123C17.0645 12.9461 17.9133 13.7842 18.9605 13.7842Z" fill="#263357"/>
<path d="M27.5789 35.8219H22.4078V39.2254H27.5789V35.8219Z" fill="#263357"/>
<path d="M22.5803 34.1202H27.579V30.7167H26.7172C24.7349 30.7167 23.0974 32.1632 22.5803 34.1202Z" fill="#263357"/>
<path d="M27.5789 40.9272H22.4078V44.3307H27.5789V40.9272Z" fill="#263357"/>
<path d="M26.7172 49.3509H27.579V46.0325H22.5803C23.1836 47.9895 24.8211 49.3509 26.7172 49.3509Z" fill="#263357"/>
<path d="M43.0921 35.8219H37.921V39.2254H43.0921V35.8219Z" fill="#263357"/>
<path d="M43.0921 40.9272H37.921V44.3307H43.0921V40.9272Z" fill="#263357"/>
<path d="M37.921 49.3509H38.7829C40.6789 49.3509 42.3164 47.9895 42.9197 46.0325H37.921V49.3509Z" fill="#263357"/>
<path d="M42.9197 34.1202C42.4026 32.1632 40.7651 30.7167 38.7829 30.7167H29.3026V49.3509H36.1973V46.0325V44.3307V40.9272V39.2254V35.8219V34.1202H37.921H42.9197Z" fill="#263357"/>
<path d="M125.829 52.7544C128.685 52.7544 131 50.4687 131 47.6491C131 44.8296 128.685 42.5439 125.829 42.5439C122.973 42.5439 120.658 44.8296 120.658 47.6491C120.658 50.4687 122.973 52.7544 125.829 52.7544Z" fill="#F86464"/>
<path d="M117.21 30.6316C120.066 30.6316 122.382 28.3459 122.382 25.5263C122.382 22.7068 120.066 20.4211 117.21 20.4211C114.355 20.4211 112.039 22.7068 112.039 25.5263C112.039 28.3459 114.355 30.6316 117.21 30.6316Z" fill="#F86464"/>
<path d="M105.145 13.614C108.001 13.614 110.316 11.3283 110.316 8.50877C110.316 5.68921 108.001 3.4035 105.145 3.4035C102.289 3.4035 99.9736 5.68921 99.9736 8.50877C99.9736 11.3283 102.289 13.614 105.145 13.614Z" fill="#F86464"/>
<path d="M117.21 74.8772C120.066 74.8772 122.382 72.5915 122.382 69.7719C122.382 66.9524 120.066 64.6667 117.21 64.6667C114.355 64.6667 112.039 66.9524 112.039 69.7719C112.039 72.5915 114.355 74.8772 117.21 74.8772Z" fill="#F86464"/>
<path d="M105.145 91.8947C108.001 91.8947 110.316 89.609 110.316 86.7895C110.316 83.9699 108.001 81.6842 105.145 81.6842C102.289 81.6842 99.9736 83.9699 99.9736 86.7895C99.9736 89.609 102.289 91.8947 105.145 91.8947Z" fill="#F86464"/>
<path d="M81.0132 54.4561H12.0658V66.3684H81.0132V54.4561Z" fill="#61C4F2"/>
</svg>
