<svg viewBox="0 0 48 48" fill="none" xmlns="http://www.w3.org/2000/svg">
<path d="M43.5 9.37377L43.5 44.6667C43.5 45.4181 43.2015 46.1388 42.6701 46.6701C42.1388 47.2015 41.4181 47.5 40.6667 47.5H11.3333C10.5819 47.5 9.86122 47.2015 9.32986 46.6701C8.79851 46.1388 8.5 45.4181 8.5 44.6667L8.50001 3.33333C8.50001 2.58189 8.79852 1.86122 9.32987 1.32986C9.86122 0.798511 10.5819 0.5 11.3333 0.5H34.6262L43.5 9.37377Z" fill="#FAFAFA" stroke="#D4D4D4"/>
<rect x="4" y="25" width="36" height="16" rx="2" fill="#F0AD4E"/>
<rect x="4" y="25" width="36" height="16" rx="2" stroke="#F0AD4E"/>
<path d="M11.212 34.506V37.5H9.412V28.794H12.352C12.948 28.794 13.462 28.864 13.894 29.004C14.33 29.144 14.688 29.34 14.968 29.592C15.248 29.84 15.454 30.136 15.586 30.48C15.722 30.824 15.79 31.198 15.79 31.602C15.79 32.03 15.72 32.422 15.58 32.778C15.44 33.134 15.228 33.44 14.944 33.696C14.66 33.952 14.302 34.152 13.87 34.296C13.438 34.436 12.932 34.506 12.352 34.506H11.212ZM11.212 33.126H12.352C12.916 33.126 13.328 32.99 13.588 32.718C13.852 32.446 13.984 32.074 13.984 31.602C13.984 31.386 13.95 31.19 13.882 31.014C13.818 30.834 13.718 30.682 13.582 30.558C13.45 30.43 13.282 30.332 13.078 30.264C12.874 30.196 12.632 30.162 12.352 30.162H11.212V33.126ZM18.2434 28.794C18.3194 28.794 18.3834 28.798 18.4354 28.806C18.4914 28.81 18.5414 28.824 18.5854 28.848C18.6294 28.868 18.6714 28.896 18.7114 28.932C18.7514 28.968 18.7954 29.016 18.8434 29.076L23.2114 34.626C23.1954 34.474 23.1834 34.326 23.1754 34.182C23.1674 34.038 23.1634 33.902 23.1634 33.774V28.794H24.7534V37.5H23.8234C23.6834 37.5 23.5654 37.478 23.4694 37.434C23.3734 37.386 23.2794 37.306 23.1874 37.194L18.8494 31.68C18.8614 31.82 18.8694 31.958 18.8734 32.094C18.8814 32.226 18.8854 32.35 18.8854 32.466V37.5H17.2954V28.794H18.2434ZM34.1607 36.66C33.7167 36.984 33.2427 37.222 32.7387 37.374C32.2387 37.522 31.7087 37.596 31.1487 37.596C30.4327 37.596 29.7847 37.486 29.2047 37.266C28.6247 37.042 28.1287 36.732 27.7167 36.336C27.3047 35.94 26.9867 35.47 26.7627 34.926C26.5387 34.382 26.4267 33.788 26.4267 33.144C26.4267 32.492 26.5327 31.894 26.7447 31.35C26.9607 30.806 27.2667 30.338 27.6627 29.946C28.0587 29.554 28.5367 29.248 29.0967 29.028C29.6607 28.808 30.2907 28.698 30.9867 28.698C31.3467 28.698 31.6827 28.728 31.9947 28.788C32.3067 28.844 32.5947 28.924 32.8587 29.028C33.1227 29.128 33.3647 29.248 33.5847 29.388C33.8047 29.528 34.0047 29.682 34.1847 29.85L33.6627 30.654C33.5827 30.782 33.4787 30.86 33.3507 30.888C33.2227 30.916 33.0827 30.884 32.9307 30.792C32.7867 30.704 32.6447 30.626 32.5047 30.558C32.3687 30.486 32.2227 30.424 32.0667 30.372C31.9107 30.32 31.7407 30.28 31.5567 30.252C31.3727 30.224 31.1607 30.21 30.9207 30.21C30.5167 30.21 30.1507 30.28 29.8227 30.42C29.4947 30.56 29.2147 30.758 28.9827 31.014C28.7547 31.27 28.5787 31.578 28.4547 31.938C28.3307 32.298 28.2687 32.7 28.2687 33.144C28.2687 33.624 28.3367 34.054 28.4727 34.434C28.6087 34.81 28.8007 35.128 29.0487 35.388C29.2967 35.648 29.5927 35.846 29.9367 35.982C30.2847 36.118 30.6707 36.186 31.0947 36.186C31.3827 36.186 31.6387 36.158 31.8627 36.102C32.0907 36.042 32.3127 35.962 32.5287 35.862V34.398H31.5447C31.4287 34.398 31.3367 34.368 31.2687 34.308C31.2047 34.244 31.1727 34.164 31.1727 34.068V33.066H34.1607V36.66Z" fill="white"/>
<path d="M44 10H34.9091C34.4091 10 34 9.59091 34 9.09091V0L44 10Z" fill="#D4D4D4"/>
</svg>
