<svg viewBox="0 0 48 48" fill="none" xmlns="http://www.w3.org/2000/svg">
<path d="M43.5 9.37377L43.5 44.6667C43.5 45.4181 43.2015 46.1388 42.6701 46.6701C42.1388 47.2015 41.4181 47.5 40.6667 47.5H11.3333C10.5819 47.5 9.86122 47.2015 9.32986 46.6701C8.79851 46.1388 8.5 45.4181 8.5 44.6667L8.50001 3.33333C8.50001 2.58189 8.79852 1.86122 9.32987 1.32986C9.86122 0.798511 10.5819 0.5 11.3333 0.5H34.6262L43.5 9.37377Z" fill="white" stroke="#D4D4D4"/>
<g clip-path="url(#clip0_18193_88910)">
<path fill-rule="evenodd" clip-rule="evenodd" d="M30.3463 34.1125C28.9017 35.1393 27.1402 35.6214 25.3741 35.4732C23.608 35.325 21.9514 34.5562 20.6981 33.3031C19.4448 32.0499 18.6758 30.3934 18.5274 28.6274C18.379 26.8613 18.8609 25.0997 19.8875 23.655L30.3463 34.115V34.1125ZM32.1138 32.345L21.655 21.8875C23.0996 20.86 24.8615 20.3775 26.6281 20.5255C28.3947 20.6735 30.0517 21.4424 31.3053 22.696C32.5588 23.9495 33.3278 25.6066 33.4758 27.3731C33.6238 29.1397 33.1412 30.9016 32.1138 32.3463V32.345ZM36 28C36 30.6522 34.9464 33.1957 33.0711 35.0711C31.1957 36.9464 28.6522 38 26 38C23.3478 38 20.8043 36.9464 18.9289 35.0711C17.0536 33.1957 16 30.6522 16 28C16 25.3478 17.0536 22.8043 18.9289 20.9289C20.8043 19.0536 23.3478 18 26 18C28.6522 18 31.1957 19.0536 33.0711 20.9289C34.9464 22.8043 36 25.3478 36 28Z" fill="#FF6E6E"/>
</g>
<path d="M44 10H34.9091C34.4091 10 34 9.59091 34 9.09091V0L44 10Z" fill="#D4D4D4"/>
<defs>
<clipPath id="clip0_18193_88910">
<rect width="20" height="20" fill="white" transform="translate(16 18)"/>
</clipPath>
</defs>
</svg>
