<svg viewBox="0 0 46 45" fill="none" xmlns="http://www.w3.org/2000/svg">
<path d="M42.0203 10.0837C42.5246 10.6357 42.8725 11.2895 43.2204 11.9426C43.5409 12.5439 43.8364 13.157 44.1061 13.7834C44.5212 14.747 44.8558 15.7395 45.1591 16.743C45.3264 17.2981 45.4758 17.861 45.5977 18.4231C45.7205 18.9884 45.7877 19.5748 45.8596 20.1542C46.0214 21.4674 46.0214 22.7877 45.9675 24.1048C45.9307 24.9978 45.8346 25.8892 45.6743 26.7743C45.5008 27.7323 45.2576 28.6724 45.0278 29.6155C44.891 30.1769 44.6455 30.7115 44.4493 31.258C44.067 32.3211 43.5854 33.3395 43.0452 34.3305C42.9342 34.5335 42.8091 34.7319 42.6825 34.9232C42.5433 35.1333 42.4699 35.3513 42.4222 35.5888C42.4183 35.5112 42.4104 35.4336 42.4097 35.3552C42.4065 34.1219 42.4151 32.8887 42.3995 31.6563C42.3815 30.2803 41.4551 29.1239 40.1699 28.8692C39.7282 28.7813 39.274 28.819 38.8276 28.8409C38.5235 28.8558 38.3609 28.7586 38.2186 28.4842C37.5838 27.2635 36.9412 26.0444 36.2626 24.848C35.9257 24.253 35.7459 23.6595 35.7771 22.9648C35.8084 22.2663 35.4879 21.6807 34.9414 21.2353C34.3903 20.7861 33.7383 20.6662 33.0519 20.6662C30.3485 20.6669 27.6452 20.6693 24.9418 20.6701C23.9732 20.6701 23.1719 21.0056 22.613 21.8304C22.5559 21.9143 22.5152 21.9668 22.3847 21.9292C21.6569 21.7167 20.9118 21.578 20.1668 21.4431C20.0159 21.4157 19.9737 21.3529 19.9753 21.2142C19.9784 20.8622 19.9807 20.5094 19.969 20.1573C19.9643 20.0194 20.0261 19.9394 20.1254 19.8665C20.5491 19.5529 20.8305 19.1084 21.1354 18.6952C21.4778 18.2311 21.703 17.6948 21.8609 17.1358C22.1064 16.2632 22.1384 15.3632 22.2229 14.4679C22.4027 12.5478 22.4605 10.6216 22.4879 8.69527C22.5043 7.54515 22.0923 6.53065 21.3324 5.67296C20.2864 4.49147 18.9605 3.83212 17.404 3.6275C15.4778 3.37427 13.6969 3.73413 12.1294 4.9258C10.8896 5.86896 10.0836 7.09591 9.90298 8.67019C9.77164 9.81169 9.89125 10.9579 9.9491 12.0994C10.0116 13.3303 10.2853 14.5361 10.4518 15.7544C10.6722 17.3702 11.2758 18.7814 12.5031 19.8877C12.5813 19.9582 12.6165 20.035 12.6134 20.1425C12.6055 20.4945 12.6009 20.8473 12.6071 21.1993C12.6095 21.3514 12.5743 21.4164 12.4062 21.4431C11.4157 21.5976 10.4283 21.7716 9.46909 22.0734C7.43806 22.7132 6.15362 24.0852 5.58214 26.1252C5.34527 26.9719 5.39765 27.8515 5.40703 28.7218C5.40859 28.877 5.38592 28.986 5.22722 29.0761C4.22812 29.6422 3.76063 30.5132 3.76688 31.661C3.77392 32.8934 3.76063 34.1267 3.75672 35.3591C3.45417 35.0894 3.27358 34.7327 3.07892 34.3877C2.53638 33.4305 2.04699 32.4418 1.63422 31.425C1.2191 30.4027 0.893883 29.3411 0.649189 28.2592C0.478764 27.5081 0.326319 26.7547 0.222344 25.9911C0.0534821 24.7508 -0.0340759 23.5042 0.0159573 22.2538C0.0511368 21.378 0.0691175 20.4976 0.198891 19.6297C0.298957 18.9563 0.438112 18.2891 0.574921 17.6211C0.715639 16.9335 0.921245 16.2648 1.14248 15.6054C1.42783 14.7556 1.74992 13.9144 2.15097 13.1076C2.69508 12.0132 3.26264 10.9297 3.96154 9.9285C4.4994 9.15783 5.06774 8.40441 5.71895 7.71763C6.24665 7.16099 6.76105 6.59259 7.32705 6.0728C8.80459 4.71491 10.4455 3.59693 12.2397 2.71101C13.281 2.1967 14.3567 1.76315 15.4582 1.3884C16.5355 1.02227 17.6347 0.739247 18.7409 0.498559C19.6766 0.294719 20.6359 0.172415 21.5967 0.108127C22.1689 0.069711 22.7396 -0.0251529 23.315 0.00542304C24.4501 0.065007 25.5829 0.143407 26.7102 0.317455C27.8359 0.491503 28.9461 0.733759 30.0288 1.06696C31.7174 1.58675 33.3482 2.26021 34.875 3.16729C35.4238 3.49344 35.9929 3.78273 36.4979 4.17865C36.3658 4.22569 36.2282 4.21707 36.0922 4.21707C34.2089 4.21942 32.3256 4.21942 30.4424 4.22334C29.8029 4.22491 29.2431 4.45148 28.7537 4.85681C28.1041 5.39464 27.8438 6.10651 27.843 6.92971C27.8414 8.64196 27.843 10.355 27.8438 12.0673C27.8453 13.5545 27.8266 15.0425 27.8571 16.529C27.8883 18.075 28.8882 19.0558 30.433 19.0864C31.4477 19.1068 32.4624 19.0935 33.4772 19.0927C35.5364 19.0911 37.5955 19.0966 39.6539 19.0801C40.4412 19.0739 41.0767 18.7344 41.5458 18.0845C41.9328 17.5482 42.0133 16.9461 42.0117 16.3056C42.0055 14.2319 42.0172 12.1574 42.0227 10.0837H42.0203Z" fill="#8ED2EB"/>
<path d="M3.75489 35.3584C3.7588 34.126 3.77209 32.8927 3.76506 31.6603C3.7588 30.5125 4.2263 29.6415 5.2254 29.0754C5.38488 28.9853 5.40677 28.8763 5.4052 28.7211C5.39582 27.8508 5.34266 26.9712 5.58032 26.1245C6.15179 24.0853 7.43702 22.7125 9.46727 22.0727C10.4265 21.7709 11.4139 21.5969 12.4044 21.4424C12.5725 21.4158 12.6084 21.3507 12.6053 21.1986C12.599 20.8466 12.6037 20.4938 12.6115 20.1418C12.6139 20.0343 12.5795 19.9575 12.5013 19.887C11.2739 18.7807 10.6712 17.3695 10.45 15.7537C10.2834 14.5354 10.0098 13.3296 9.94728 12.0987C9.88943 10.9572 9.76981 9.81099 9.90115 8.66949C10.0817 7.096 10.8877 5.86904 12.1276 4.92511C13.6943 3.73264 15.4759 3.37357 17.4022 3.6268C18.9587 3.83143 20.2846 4.49077 21.3306 5.67226C22.0897 6.52995 22.5017 7.54445 22.4861 8.69458C22.4595 10.6209 22.4016 12.5464 22.221 14.4672C22.1374 15.3617 22.1045 16.2625 21.8591 17.1351C21.7019 17.6949 21.476 18.2311 21.1336 18.6945C20.8287 19.1077 20.5473 19.5522 20.1235 19.8658C20.0243 19.9387 19.9625 20.0187 19.9672 20.1567C19.9789 20.5087 19.9766 20.8615 19.9734 21.2135C19.9719 21.353 20.0141 21.415 20.165 21.4424C20.91 21.5773 21.655 21.7168 22.3829 21.9285C22.5134 21.9669 22.5548 21.9144 22.6111 21.8297C23.1701 21.0049 23.9714 20.6694 24.94 20.6694C27.6434 20.6694 30.3467 20.667 33.0501 20.6655C33.7365 20.6655 34.3885 20.7854 34.9396 21.2347C35.4861 21.68 35.8074 22.2664 35.7753 22.9642C35.7441 23.658 35.9239 24.2523 36.2608 24.8473C36.9394 26.0445 37.5812 27.2628 38.2168 28.4835C38.3598 28.7579 38.5225 28.8551 38.8258 28.8402C39.2722 28.8183 39.7272 28.7806 40.1681 28.8685C41.4533 29.1233 42.3797 30.2797 42.3977 31.6556C42.4141 32.8888 42.4047 34.122 42.4078 35.3545C42.4078 35.4321 42.4157 35.5097 42.4203 35.5881C42.4188 36.6504 42.418 37.712 42.4141 38.7743C42.4118 39.3772 42.0967 39.6916 41.4979 39.6947C40.9444 39.6978 40.3901 39.6978 39.8366 39.6986C39.7201 39.7347 39.5606 39.552 39.4801 39.7864C39.3746 40.0938 39.2472 40.394 39.1283 40.6974C38.6686 41.4454 38.1316 42.1212 37.3858 42.6316C38.5311 42.6316 39.6771 42.6308 40.8224 42.6316C41.2383 42.6316 41.5174 42.8926 41.5299 43.2839C41.5401 43.6108 41.3399 43.8828 41.0179 43.9314C40.7786 43.9675 40.5324 43.973 40.2892 43.973C37.034 43.973 33.7787 43.9683 30.5242 43.9659C30.4077 43.9659 30.2904 43.9722 30.174 43.9753C30.0129 43.9228 29.8464 43.9361 29.6822 43.9361C26.0923 43.9377 22.5025 43.9385 18.9126 43.9463C18.0558 43.9479 17.199 43.9714 16.3421 43.9848C14.3924 43.9832 12.4427 43.98 10.4922 43.9793C8.49319 43.9777 6.49421 43.9793 4.49601 43.9769C4.23099 43.9769 3.96206 43.9691 3.78069 43.7276C3.62043 43.5136 3.60245 43.2752 3.70017 43.033C3.79633 42.7946 3.98473 42.6606 4.23881 42.6457C4.49132 42.63 4.74539 42.6339 4.99869 42.6339C6.40274 42.6323 7.8068 42.6316 9.21085 42.6308C9.2859 42.6308 9.36095 42.6308 9.5259 42.6308C8.90831 42.2733 8.4885 41.8217 8.09996 41.338C8.07416 41.3035 8.04836 41.2698 8.02334 41.236L8.02022 41.2313C8.02022 41.1859 7.99286 41.1608 7.95299 41.1459L7.93813 41.1247C7.72393 40.7021 7.47845 40.2921 7.34868 39.8327C7.30256 39.6696 7.23298 39.6281 7.08288 39.6657C7.00861 39.6837 6.93043 39.6884 6.85382 39.6994C6.15336 39.6971 5.45055 39.6673 4.75165 39.701C4.08402 39.7339 3.73066 39.2337 3.74551 38.6975C3.776 37.585 3.75411 36.4717 3.75411 35.3584H3.75489ZM9.81516 23.48C9.79952 23.5647 9.78467 23.6502 9.83627 23.7293C9.83861 23.7662 9.84174 23.8038 9.84408 23.8407C9.83861 25.4338 9.83627 27.0276 9.82298 28.6207C9.82141 28.8002 9.88474 28.8206 10.0411 28.8191C10.9769 28.8112 11.9134 28.812 12.8492 28.8151C13.3112 28.8167 13.3042 28.823 13.158 28.3636C12.8461 27.3883 12.5474 26.4083 12.2316 25.4338C12.019 24.7768 11.8485 24.1064 11.5812 23.4675C11.5984 23.3985 11.5827 23.335 11.5663 23.2668C11.51 23.0363 11.424 22.9218 11.1465 23.0159C10.7713 23.1437 10.3772 23.2174 9.98949 23.3091C9.89177 23.3319 9.78545 23.3303 9.81438 23.4785L9.81516 23.48ZM7.14386 28.8136C7.50425 28.8151 7.86465 28.8104 8.22426 28.8206C8.38843 28.8253 8.44237 28.7681 8.44081 28.6019C8.42908 27.3624 8.42517 26.1221 8.4197 24.8818C8.46895 24.6364 8.44941 24.3926 8.42752 24.1245C7.7638 24.6207 7.34946 25.2574 7.05239 25.981C6.72483 26.7783 6.74515 27.6188 6.74985 28.4569C6.75089 28.715 6.88222 28.8337 7.14386 28.8128V28.8136ZM27.5503 24.6066C27.4339 24.6027 27.3166 24.6027 27.2001 24.5933C27.0336 24.5808 26.9906 24.6545 26.9914 24.8175C26.9992 26.0798 27 27.342 26.9945 28.6042C26.9945 28.7775 27.0336 28.8434 27.2212 28.8387C27.874 28.8214 28.5276 28.8222 29.1811 28.8167C29.604 28.8183 30.027 28.8191 30.4507 28.8206C30.5945 28.8238 30.7392 28.8363 30.883 28.8293C31.3513 28.8073 31.8235 28.881 32.2879 28.7759C32.5521 28.8786 32.8273 28.7995 33.0962 28.8277C33.3229 28.8512 33.301 28.7595 33.226 28.6011C32.6748 27.4384 32.1112 26.2813 31.5921 25.1045C31.4162 24.7046 31.1965 24.5173 30.7665 24.609C30.1333 24.5878 29.5001 24.5768 28.8668 24.6184C28.4283 24.6145 27.9889 24.6105 27.5503 24.6066ZM19.1096 22.5447C18.6984 22.3573 18.5577 22.0343 18.6218 21.5969C18.6429 21.4534 18.6147 21.3029 18.6312 21.1578C18.6593 20.9022 18.5756 20.8638 18.3427 20.9508C17.3522 21.3201 16.332 21.3593 15.2946 21.2049C14.8349 21.1367 14.4057 20.9642 13.9523 20.8223V22.1943C13.7365 22.54 13.3542 22.5596 13.0196 22.6733C12.936 22.7015 12.8156 22.6898 12.8656 22.852C13.0368 23.4095 13.2596 23.8681 13.9069 24.0649C15.5549 24.5666 17.1685 24.6058 18.7891 23.9661C19.1323 23.8305 19.3527 23.6533 19.4778 23.2966C19.6787 22.725 19.6998 22.7329 19.1096 22.5431V22.5447ZM20.9194 23.4228C20.8076 23.5647 20.774 23.7403 20.7224 23.9057C20.3722 25.0229 20.0274 26.1417 19.6811 27.2597C19.5232 27.7701 19.3645 28.2805 19.1995 28.8136C20.1783 28.8136 21.1226 28.8104 22.067 28.8167C22.2288 28.8175 22.264 28.7485 22.2601 28.6066C22.2546 28.3526 22.2609 28.0978 22.2601 27.8438C22.2531 26.5243 22.246 25.204 22.2382 23.8846C22.2468 23.8077 22.2523 23.7309 22.2656 23.6549C22.3086 23.4048 22.2226 23.2676 21.9568 23.2197C21.7129 23.1766 21.4729 23.0951 21.2399 23.0088C21.0843 22.9516 21.0132 22.9845 20.9749 23.1437C20.953 23.2362 20.8975 23.3209 20.9202 23.422L20.9194 23.4228ZM20.6215 7.51858C20.6903 7.62207 20.7638 7.71928 20.9303 7.7577C20.8514 7.52955 20.8068 7.31317 20.706 7.12815C20.4292 6.61776 20.0329 6.21087 19.5607 5.87296C18.4029 5.04349 17.1098 4.78007 15.7144 4.92589C14.1633 5.08818 12.8859 5.74439 11.9619 7.02623C11.453 7.73261 11.1989 8.53072 11.1457 9.4088C11.306 9.38293 11.3951 9.29669 11.4756 9.19791C12.3551 8.88587 13.2682 8.89136 14.1829 8.90391C14.8357 8.91253 15.4892 8.90939 16.1428 8.90547C16.5446 8.90312 16.9355 8.8357 17.31 8.68203C17.9667 8.41312 18.4224 7.94899 18.696 7.292C18.8047 7.03171 19.0142 6.86864 19.305 6.86159C19.5982 6.85453 19.8101 7.01368 19.9281 7.26927C19.9977 7.42058 20.1063 7.46291 20.2447 7.48173C20.3698 7.49819 20.4957 7.50603 20.6215 7.51779V7.51858ZM20.9358 12.3488C21.0241 11.8157 20.9585 11.2771 20.9835 10.7416C20.9882 10.6483 20.9116 10.6122 20.849 10.5644C20.5426 10.33 20.3041 10.0376 20.1009 9.71064C19.9007 9.38842 19.7936 9.02464 19.6263 8.64675C19.1112 9.34608 18.4615 9.78042 17.6821 10.0454C16.9253 10.3033 16.1483 10.2837 15.3681 10.2892C14.5402 10.2955 13.7091 10.2148 12.8836 10.3276C12.2363 10.4162 11.7821 10.9 11.6648 11.4801C11.5272 12.1622 11.6695 12.8364 11.6844 13.5091C11.6992 14.1779 11.7625 14.8545 11.8313 15.5256C11.9392 16.5738 12.2253 17.5412 12.9297 18.3495C13.3065 18.7823 13.7201 19.1696 14.24 19.4275C14.2759 19.4424 14.3127 19.455 14.3478 19.4714C17.1434 20.8113 20.2869 19.0967 20.6888 16.0054C20.8467 14.7925 20.8787 13.5695 20.9358 12.3488ZM33.921 23.2887C34.3908 23.3177 34.5096 23.1719 34.3932 22.7109C34.3635 22.5933 34.2986 22.5008 34.2235 22.4083C33.9178 22.0335 33.5012 21.9865 33.0595 21.9912C32.2402 22.0014 31.4209 22.0061 30.6016 22.0069C28.6605 22.0092 26.7185 22.0139 24.7774 22.0038C24.1403 21.9998 23.5758 22.4491 23.618 23.1735C23.6274 23.3295 23.6188 23.4863 23.6188 23.6431C23.6188 25.6 23.6204 27.5568 23.6173 29.5129C23.6173 29.9676 23.4625 30.1236 23.0067 30.1534C22.8996 30.1605 22.7925 30.1636 22.6854 30.1636C20.627 30.1636 18.5686 30.1613 16.511 30.1613C13.2432 30.1613 9.97542 30.1613 6.70685 30.1636C6.47388 30.1636 6.23701 30.1448 6.01029 30.2146C5.44664 30.3871 5.1222 30.852 5.11751 31.5419C5.10735 32.9209 5.11204 34.3008 5.11361 35.6798C5.11361 35.7528 5.08312 35.839 5.16598 35.8947C5.16207 36.6473 5.16129 37.3999 5.15191 38.1526C5.14957 38.3188 5.22618 38.3415 5.3669 38.3384C5.79609 38.3298 6.22528 38.3321 6.65447 38.3337C7.14229 38.3352 7.13838 38.3352 7.21578 37.8562C7.57617 35.6406 9.44225 33.8006 11.8939 33.7112C13.6192 33.6485 15.0123 34.3517 16.0576 35.7277C16.5829 36.4192 16.8776 37.2102 16.9316 38.0789C16.9457 38.3062 17.0207 38.3407 17.2271 38.3407C19.8812 38.3313 22.5353 38.3321 25.1894 38.3305C25.6045 38.3305 25.6061 38.3305 25.6077 37.9119C25.6108 37.1099 25.603 36.307 25.6155 35.505C25.6225 35.0315 25.8469 34.7673 26.2096 34.7563C26.6967 34.7406 26.9859 34.9546 26.9961 35.4156C27.0172 36.3815 27.0023 37.3474 27.0023 38.3188C27.025 38.3251 27.0524 38.34 27.0805 38.34C27.978 38.3384 28.8754 38.3282 29.7729 38.336C29.9934 38.3376 29.9707 38.1973 29.9816 38.0671C30.0809 36.8598 30.5797 35.8531 31.4584 35.0221C32.9656 33.5968 35.2179 33.3082 36.9425 34.1753C38.5365 34.9774 39.4629 36.2882 39.649 38.0859C39.6701 38.2913 39.7287 38.3494 39.9281 38.3376C40.2103 38.3204 40.4941 38.3227 40.7763 38.3376C40.9506 38.3462 41.0124 38.3 41.0124 38.1149C41.0116 37.3521 41.0265 36.5893 41.0351 35.8265C41.0366 35.182 41.0413 34.5368 41.0374 33.8923C41.0327 33.0519 41.0655 32.2114 41.0077 31.3718C40.9624 30.7171 40.3072 30.1456 39.7506 30.1668C39.2346 30.1864 38.7179 30.1589 38.2019 30.1769C37.7938 30.1911 37.5132 30.028 37.3248 29.6721C37.0152 29.0856 36.7025 28.5015 36.3859 27.919C35.8183 26.874 35.2789 25.8132 34.6676 24.7924C34.6121 24.6999 34.58 24.5753 34.4229 24.5776C33.9186 24.5839 33.4152 24.58 32.8828 24.58C32.9453 24.7674 32.9961 24.91 33.1032 25.0276C33.1462 25.2283 33.2393 25.4087 33.3253 25.5921C33.8983 26.8152 34.4698 28.0382 35.0452 29.2597C35.1225 29.4235 35.171 29.5835 35.0889 29.7583C34.8888 30.0829 34.5863 30.1691 34.2243 30.1683C31.9767 30.1636 29.7283 30.1683 27.4808 30.1699C27.155 30.1699 26.9982 30.3351 27.0101 30.6654C27.007 31.5364 27.0023 32.4066 27.0023 33.2777C27.0023 33.4258 26.9922 33.5701 26.9546 33.7128C26.8663 34.0436 26.5817 34.2537 26.2471 34.2373C25.9235 34.2216 25.6936 33.9942 25.646 33.6375C25.6303 33.5215 25.6178 33.4039 25.6178 33.2879C25.6155 30.1276 25.6139 26.9673 25.6139 23.807C25.6139 23.3444 25.6718 23.2927 26.133 23.2927C28.7285 23.2927 31.3239 23.2911 33.9194 23.2903L33.921 23.2887ZM14.7075 42.6049H32.2034C31.1238 41.8985 30.4882 40.9507 30.1161 39.8131C30.0622 39.6492 29.948 39.6806 29.8355 39.6806C28.2164 39.6814 26.5974 39.6837 24.9775 39.6845C22.3531 39.6853 19.7295 39.6892 17.1051 39.6806C16.8761 39.6806 16.7698 39.7519 16.7182 39.966C16.6439 40.2717 16.511 40.5555 16.3586 40.8284C15.963 41.5371 15.429 42.122 14.7067 42.6049H14.7075ZM12.0924 41.9754C14.0047 41.9769 15.5721 40.4771 15.576 38.6418C15.5807 36.6159 14.068 35.0832 12.0104 35.0926C10.1795 35.1012 8.57996 36.5564 8.57449 38.5916C8.5698 40.4356 10.1748 41.9738 12.0924 41.9754ZM34.802 41.9738C36.6876 41.9738 38.3051 40.4136 38.2879 38.5995C38.2684 36.4827 36.7017 35.0903 34.7872 35.0793C32.846 35.0683 31.3521 36.5971 31.349 38.5446C31.3458 40.4481 32.8585 41.9989 34.802 41.9738ZM13.7177 25.411C13.7177 25.4392 13.7107 25.469 13.7185 25.4949C14.0476 26.5541 14.3822 27.6125 14.7043 28.674C14.7497 28.8245 14.8388 28.8112 14.9451 28.8112C15.7926 28.8112 16.64 28.8089 17.4874 28.8175C17.6532 28.8191 17.7274 28.7634 17.7767 28.6058C17.9534 28.039 18.1465 27.4769 18.3286 26.9116C18.485 26.4271 18.6343 25.941 18.7961 25.4251C17.0754 25.9386 15.3954 25.9418 13.717 25.4102L13.7177 25.411Z" fill="#14344C"/>
<path d="M42.0201 10.0838C42.0154 12.1575 42.0029 14.2319 42.0092 16.3056C42.0115 16.9469 41.931 17.549 41.5433 18.0845C41.0742 18.7337 40.4386 19.0731 39.6514 19.0802C37.5922 19.0967 35.5338 19.0912 33.4746 19.0927C32.4599 19.0935 31.4444 19.1061 30.4304 19.0865C28.8856 19.0559 27.8865 18.0759 27.8545 16.5291C27.824 15.0426 27.8428 13.5546 27.8412 12.0673C27.8396 10.3551 27.8389 8.64202 27.8404 6.92976C27.8412 6.10657 28.1015 5.39469 28.7512 4.85687C29.2414 4.45154 29.8003 4.22497 30.4398 4.2234C32.3231 4.21948 34.2064 4.2187 36.0896 4.21713C36.2257 4.21713 36.3633 4.22575 36.4954 4.17871C36.6048 4.23751 36.7244 4.21634 36.8394 4.21634C37.7063 4.21791 38.5725 4.21399 39.4395 4.22026C40.7881 4.22967 41.9701 5.38921 41.9951 6.74552C42.0139 7.7412 42.0006 8.73767 42.0029 9.73335C42.0029 9.85016 42.0139 9.96698 42.0193 10.083L42.0201 10.0838ZM30.5172 17.7803C30.5367 17.7835 30.5555 17.7897 30.575 17.7897C33.5489 17.7866 36.5235 17.7827 39.4974 17.7787C39.5755 17.7787 39.6545 17.7842 39.7202 17.7301C40.1892 17.6776 40.4785 17.4071 40.62 16.9689C40.6864 16.7627 40.6943 16.5463 40.695 16.3307C40.695 13.2292 40.6982 10.1285 40.6958 7.02698C40.6958 6.11362 40.183 5.57031 39.2793 5.56796C36.3234 5.56012 33.3675 5.56404 30.4117 5.57266C29.7104 5.57501 29.1819 6.12225 29.1812 6.8302C29.1765 10.0485 29.1741 13.2676 29.178 16.4859C29.1788 17.3209 29.6838 17.7976 30.518 17.7803H30.5172Z" fill="#14344C"/>
<path d="M16.3438 43.9847C17.2007 43.9714 18.0575 43.9486 18.9143 43.9463C22.5042 43.9392 26.0941 43.9376 29.6839 43.9361C29.8481 43.9361 30.0154 43.9228 30.1757 43.9753C29.6167 44.1148 29.0538 44.2411 28.4996 44.3979C27.359 44.7209 26.1801 44.804 25.0137 44.9435C24.2929 45.0298 23.5533 44.9968 22.8239 44.9717C21.4316 44.9239 20.0447 44.8338 18.672 44.55C17.9238 44.3955 17.1796 44.2332 16.4408 44.0404C16.4056 44.0309 16.3751 44.0035 16.3423 43.9839L16.3438 43.9847Z" fill="#8ED2EB"/>
<path d="M1.91057 39.7707C1.76438 39.7707 1.61741 39.7738 1.47122 39.7707C1.08503 39.7605 0.852841 39.5253 0.852059 39.1459C0.850496 38.7578 1.06783 38.521 1.45558 38.5077C1.75735 38.4975 2.06067 38.4951 2.36243 38.5069C2.72517 38.5202 3.00114 38.8048 2.97847 39.1474C2.95736 39.465 2.74706 39.7989 2.34993 39.7676C2.20452 39.7558 2.05755 39.766 1.91057 39.766V39.7723V39.7707Z" fill="#14344C"/>
<path d="M43.4732 43.2987C43.4755 43.6672 43.1565 43.98 42.7829 43.9753C42.4201 43.9706 42.1707 43.6954 42.1739 43.3026C42.1762 42.9365 42.4827 42.6276 42.8368 42.6339C43.1855 42.6402 43.4708 42.9389 43.4732 43.2987Z" fill="#14344C"/>
<path d="M6.8543 39.6986C6.93091 39.6877 7.00909 39.6837 7.08336 39.6649C7.23346 39.6281 7.30303 39.6688 7.34916 39.8319C7.47893 40.2906 7.72519 40.7006 7.93861 41.1239C7.71893 41.109 7.65248 40.9036 7.5532 40.7711C7.29834 40.4301 6.9528 40.1424 6.85352 39.6986H6.8543Z" fill="#688198"/>
<path d="M39.1299 40.6974C39.2479 40.394 39.3754 40.0945 39.4817 39.7864C39.5622 39.552 39.7217 39.7347 39.8382 39.6986C39.5802 40.0154 39.5364 40.4858 39.1299 40.6974Z" fill="#688198"/>
<path d="M7.95469 41.1451C7.99456 41.16 8.02115 41.1843 8.02193 41.2305C7.97268 41.2235 7.93593 41.2062 7.95469 41.1451Z" fill="#688198"/>
<path d="M8.02407 41.2352C8.04987 41.2689 8.07567 41.3034 8.10069 41.3371C8.04753 41.3238 8.02173 41.2901 8.02407 41.2352Z" fill="#688198"/>
<path d="M35.0902 29.7575C35.1715 29.5826 35.1238 29.4227 35.0464 29.2588C34.471 28.0374 33.8996 26.8136 33.3265 25.5913C33.2405 25.4078 33.1475 25.2275 33.1045 25.0268C33.2405 24.8959 33.4039 25.0025 33.554 24.9782C34.0153 24.9022 34.1638 24.9923 34.3694 25.3859C34.8056 26.224 35.2473 27.0589 35.6898 27.8931C36.0494 28.5705 36.4419 29.2322 36.7663 29.926C37.0368 30.5038 37.4191 30.7822 38.0672 30.7085C38.4917 30.6606 38.9224 30.67 39.3508 30.6622C40.1451 30.6481 40.4836 31.2212 40.4766 31.821C40.4617 33.0636 40.4813 34.307 40.4703 35.5497C40.468 35.8147 40.561 35.9048 40.8112 35.8766C40.8893 35.868 40.9667 35.8695 41.0355 35.8264C41.0262 36.5892 41.0113 37.3521 41.0129 38.1149C41.0129 38.3007 40.9511 38.3462 40.7768 38.3376C40.4946 38.3235 40.21 38.3203 39.9286 38.3376C39.73 38.3501 39.6706 38.2913 39.6495 38.0859C39.4634 36.2882 38.537 34.9773 36.943 34.1753C35.2184 33.3074 32.9653 33.5967 31.4589 35.022C30.5802 35.8531 30.0814 36.8605 29.9821 38.0671C29.9712 38.1972 29.9939 38.3376 29.7734 38.336C28.8759 38.3282 27.9785 38.3376 27.081 38.3399C27.0536 38.3399 27.0255 38.325 27.0028 38.3187C27.0028 37.3474 27.0177 36.3815 26.9966 35.4156C26.9864 34.9546 26.6971 34.7406 26.2101 34.7563C25.8474 34.768 25.623 35.0322 25.616 35.505C25.6034 36.307 25.6113 37.1098 25.6081 37.9119C25.6066 38.3313 25.605 38.3305 25.1899 38.3305C22.5358 38.3321 19.8817 38.3313 17.2276 38.3407C17.0212 38.3407 16.9461 38.3062 16.9321 38.0788C16.8781 37.2102 16.5834 36.4191 16.0581 35.7276C15.0128 34.3517 13.6205 33.6492 11.8944 33.7112C9.44274 33.7998 7.57666 35.6398 7.21626 37.8562C7.13809 38.3352 7.14278 38.3344 6.65495 38.3336C6.22576 38.3329 5.79657 38.3305 5.36738 38.3383C5.22666 38.3407 5.15005 38.3187 5.1524 38.1525C5.16178 37.3999 5.16256 36.6473 5.16647 35.8946C5.20399 35.8868 5.2423 35.8742 5.28061 35.8727C5.69025 35.8531 5.68869 35.8539 5.68869 35.4352C5.68869 34.1338 5.68869 32.8323 5.6926 31.5309C5.69416 31.0997 6.00374 30.7422 6.4087 30.7077C6.7089 30.6818 7.01066 30.6638 7.31242 30.6638C12.7574 30.6599 18.2017 30.6591 23.6467 30.6559C24.1071 30.6559 24.1939 30.5619 24.1939 30.1079C24.1924 27.8179 24.1963 25.5286 24.1861 23.2385C24.1845 22.8959 24.3362 22.6842 24.6184 22.5439C24.7951 22.4553 24.9905 22.4381 25.1875 22.4381C25.9685 22.4388 26.7487 22.4381 27.5297 22.4381C29.3348 22.4381 31.1399 22.4373 32.945 22.4396C33.5243 22.4396 33.8941 22.7462 33.923 23.2895C31.3275 23.2903 28.7321 23.2918 26.1366 23.2918C25.6754 23.2918 25.6175 23.3444 25.6175 23.8061C25.6175 26.9664 25.6191 30.1267 25.6214 33.287C25.6214 33.4039 25.6339 33.5215 25.6496 33.6367C25.6973 33.9934 25.9263 34.22 26.2507 34.2365C26.5853 34.2529 26.8699 34.0428 26.9582 33.712C26.9966 33.5693 27.0059 33.425 27.0059 33.2768C27.0059 32.4058 27.0106 31.5356 27.0138 30.6646C27.1982 30.6646 27.382 30.6646 27.5665 30.6646C29.8406 30.6638 32.1148 30.6536 34.389 30.6669C35.0683 30.6708 35.1723 30.3682 35.0933 29.759L35.0902 29.7575ZM28.8243 32.4662C28.8243 32.4662 28.8243 32.4678 28.8243 32.4685C29.0581 32.4685 29.291 32.474 29.5248 32.467C29.9266 32.4552 30.2057 32.1824 30.2245 31.7951C30.2417 31.4368 29.9673 31.1428 29.5576 31.1295C29.0628 31.113 28.5663 31.0973 28.073 31.1671C27.7588 31.2118 27.5219 31.4909 27.5313 31.8045C27.5422 32.1659 27.8205 32.4631 28.1536 32.4654C28.3772 32.467 28.6007 32.4654 28.8243 32.4654V32.4662Z" fill="#EB9016"/>
<path d="M20.9359 12.3488C20.8788 13.5695 20.8468 14.7925 20.6888 16.0054C20.287 19.0967 17.1435 20.8113 14.3479 19.4714C14.3127 19.455 14.276 19.4424 14.2408 19.4275C14.2189 19.3852 14.2064 19.3319 14.1728 19.3013C13.3801 18.5777 12.9579 17.6424 12.6992 16.631C12.3575 15.2966 12.4263 13.9199 12.3865 12.5605C12.3654 11.8431 12.8117 11.5029 13.5372 11.5029C14.1415 11.5029 14.7458 11.506 15.3501 11.5021C16.0694 11.4966 16.7902 11.5405 17.5031 11.386C18.2474 11.2245 18.9447 10.965 19.4943 10.4155C19.6209 10.2885 19.671 10.2869 19.7648 10.4256C19.9876 10.7557 20.1862 11.1054 20.4762 11.3868C20.7475 11.6495 21.0211 11.9145 20.9359 12.3496V12.3488Z" fill="#FBFAF9"/>
<path d="M14.7075 42.6049C15.4299 42.1219 15.9638 41.5379 16.3594 40.8284C16.5118 40.5547 16.6455 40.2709 16.719 39.9659C16.7706 39.7527 16.8769 39.6798 17.106 39.6806C19.7296 39.6892 22.354 39.6861 24.9784 39.6845C26.5974 39.6845 28.2165 39.6814 29.8363 39.6806C29.9481 39.6806 30.063 39.6484 30.1169 39.8131C30.4891 40.9507 31.1246 41.8977 32.2043 42.6049H14.7083H14.7075Z" fill="#8ED2EB"/>
<path d="M12.0922 41.9753C10.1745 41.9737 8.56954 40.4355 8.57423 38.5916C8.5797 36.5563 10.1792 35.1004 12.0101 35.0926C14.0677 35.0832 15.5797 36.6159 15.5757 38.6417C15.5718 40.4771 14.0044 41.9769 12.0922 41.9753ZM12.0664 40.4888C13.1663 40.4928 14.0302 39.6633 14.0349 38.5994C14.0388 37.5873 13.1468 36.6959 12.1297 36.6943C11.0798 36.6935 10.1589 37.5802 10.1448 38.6057C10.1315 39.61 11.0243 40.4849 12.0664 40.4888Z" fill="#688198"/>
<path d="M34.8022 41.9738C32.8595 41.9989 31.346 40.4481 31.3491 38.5446C31.3523 36.5963 32.8462 35.0675 34.7873 35.0793C36.7019 35.0903 38.2686 36.4819 38.2881 38.5994C38.3053 40.4144 36.6878 41.973 34.8022 41.9738ZM34.8045 40.4865C35.9053 40.4826 36.8207 39.6155 36.7871 38.5618C36.759 37.6626 36.0616 36.6967 34.8374 36.699C33.7507 36.7014 32.8642 37.6061 32.8962 38.6943C32.9252 39.6649 33.7781 40.4905 34.8038 40.4873L34.8045 40.4865Z" fill="#688198"/>
<path d="M33.921 23.2887C33.8929 22.7446 33.5223 22.4396 32.943 22.4388C31.1379 22.4365 29.3328 22.4373 27.5277 22.4373C26.7467 22.4373 25.9665 22.4388 25.1855 22.4373C24.9885 22.4373 24.7931 22.4545 24.6164 22.5431C24.3342 22.6842 24.1825 22.8951 24.1841 23.2377C24.1943 25.5278 24.1903 27.8171 24.1919 30.1071C24.1919 30.5611 24.1059 30.6544 23.6447 30.6552C18.1997 30.6583 12.7554 30.6591 7.31041 30.663C7.00943 30.663 6.70689 30.681 6.40669 30.7069C6.00173 30.7422 5.69215 31.0997 5.69059 31.5301C5.68668 32.8315 5.68668 34.133 5.68668 35.4344C5.68668 35.8531 5.68825 35.8523 5.2786 35.8719C5.24029 35.8734 5.20277 35.886 5.16446 35.8938C5.08159 35.839 5.11286 35.7519 5.11208 35.679C5.1113 34.3 5.10661 32.9201 5.11599 31.5411C5.12068 30.8519 5.44512 30.3862 6.00877 30.2138C6.23627 30.144 6.47236 30.1636 6.70533 30.1628C9.97311 30.1604 13.2409 30.1604 16.5095 30.1604C18.5679 30.1604 20.6263 30.162 22.6839 30.1628C22.791 30.1628 22.8989 30.1597 23.0052 30.1526C23.461 30.1228 23.6157 29.9668 23.6157 29.5121C23.6189 27.5552 23.6173 25.5984 23.6173 23.6423C23.6173 23.4855 23.6259 23.3287 23.6165 23.1727C23.5743 22.4482 24.1388 21.999 24.7759 22.0029C26.717 22.0139 28.6581 22.0084 30.6001 22.0061C31.4194 22.0053 32.2386 22.0006 33.0579 21.9904C33.4996 21.9849 33.9163 22.0319 34.222 22.4075C34.297 22.4992 34.3619 22.5925 34.3916 22.7101C34.5081 23.1711 34.3893 23.3169 33.9194 23.2879L33.921 23.2887Z" fill="#FBFAF9"/>
<path d="M20.6215 7.51857C20.4956 7.50681 20.3698 7.49897 20.2447 7.48251C20.1071 7.46369 19.9984 7.42136 19.9281 7.27004C19.81 7.01446 19.5982 6.85531 19.305 6.86236C19.0134 6.86942 18.8047 7.03171 18.696 7.29278C18.4224 7.94899 17.9666 8.4139 17.3099 8.68281C16.9355 8.83648 16.5446 8.9039 16.1427 8.90625C15.4892 8.91017 14.8364 8.91331 14.1828 8.90468C13.2682 8.89214 12.3551 8.88665 11.4756 9.19868C11.7727 7.92704 12.4817 6.9243 13.5778 6.2532C15.3821 5.15011 17.2466 5.15952 19.1049 6.14971C19.7193 6.47742 20.2525 6.91019 20.6215 7.51936V7.51857Z" fill="#688198"/>
<path d="M20.9356 12.3488C21.0201 11.9136 20.7465 11.6487 20.476 11.386C20.1859 11.1046 19.9881 10.7557 19.7646 10.4248C19.6707 10.2853 19.6207 10.2876 19.4941 10.4146C18.9445 10.9642 18.2471 11.2237 17.5029 11.3852C16.7907 11.5397 16.0691 11.4958 15.3499 11.5013C14.7456 11.506 14.1413 11.502 13.537 11.502C12.8123 11.502 12.3659 11.8423 12.3862 12.5597C12.4261 13.9191 12.3573 15.2958 12.6989 16.6302C12.9577 17.6415 13.3799 18.5776 14.1726 19.3005C14.2062 19.3311 14.2179 19.3844 14.2406 19.4267C13.7207 19.1696 13.3071 18.7815 12.9303 18.3487C12.226 17.5396 11.9398 16.573 11.832 15.5247C11.7632 14.8536 11.7006 14.1771 11.685 13.5083C11.6693 12.8356 11.5271 12.1622 11.6654 11.4793C11.7827 10.8991 12.2361 10.4162 12.8842 10.3268C13.7098 10.2139 14.54 10.2947 15.3687 10.2884C16.1481 10.2821 16.926 10.3017 17.6827 10.0446C18.4621 9.7796 19.1118 9.34526 19.627 8.64594C19.7943 9.02382 19.9014 9.38838 20.1015 9.70982C20.3048 10.0368 20.5432 10.33 20.8496 10.5636C20.9122 10.6114 20.9888 10.6475 20.9841 10.7408C20.9591 11.2763 21.0248 11.8141 20.9364 12.348L20.9356 12.3488Z" fill="#D3DFE9"/>
<path d="M11.581 23.4682C11.8483 24.1064 12.0187 24.7775 12.2314 25.4345C12.5464 26.409 12.8451 27.389 13.1578 28.3643C13.3048 28.8229 13.311 28.8167 12.849 28.8159C11.9132 28.8135 10.9767 28.812 10.0409 28.8198C9.8853 28.8214 9.82198 28.8002 9.82276 28.6215C9.83527 27.0284 9.83761 25.4345 9.84309 23.8414C10.08 23.7795 10.3145 23.7019 10.5545 23.6587C10.8969 23.5976 11.2198 23.429 11.581 23.469V23.4682Z" fill="#688198"/>
<path d="M13.7175 25.411C15.3951 25.9426 17.0752 25.9394 18.7966 25.4259C18.6348 25.9418 18.4855 26.4279 18.3291 26.9124C18.147 27.4776 17.9539 28.0398 17.7772 28.6066C17.7279 28.7642 17.6537 28.8198 17.4879 28.8183C16.6405 28.8096 15.7931 28.8128 14.9456 28.812C14.8393 28.812 14.7502 28.8253 14.7048 28.6748C14.3835 27.6133 14.0481 26.5549 13.719 25.4957C13.7112 25.4698 13.7182 25.44 13.7182 25.4118L13.7175 25.411Z" fill="#688198"/>
<path d="M22.2379 23.8846C22.245 25.204 22.2528 26.5243 22.2598 27.8438C22.2614 28.0978 22.2544 28.3526 22.2598 28.6066C22.263 28.7477 22.2286 28.8175 22.0667 28.8167C21.1224 28.8104 20.1788 28.8136 19.1992 28.8136C19.3642 28.2812 19.5221 27.7709 19.6808 27.2597C20.0271 26.1417 20.3719 25.0229 20.7221 23.9057C20.7737 23.7403 20.8073 23.5647 20.9191 23.4228C21.1615 23.4894 21.4171 23.5278 21.643 23.6321C21.8392 23.7231 22.098 23.6674 22.2379 23.8846Z" fill="#688198"/>
<path d="M19.1098 22.5447C19.6992 22.7344 19.6781 22.7266 19.478 23.2981C19.3529 23.6548 19.1324 23.832 18.7892 23.9677C17.1694 24.6074 15.5551 24.5682 13.9071 24.0664C13.2598 23.8697 13.037 23.411 12.8658 22.8536C12.8158 22.6913 12.9361 22.7031 13.0198 22.6748C13.3544 22.5612 13.7367 22.5416 13.9524 22.1958C14.0173 22.0327 14.1064 22.0233 14.2565 22.1119C14.7186 22.3848 15.2205 22.4867 15.7599 22.4914C16.877 22.5024 17.9957 22.4224 19.1105 22.5455L19.1098 22.5447Z" fill="#FBFAF9"/>
<path d="M41.0358 35.8256C40.967 35.8695 40.8896 35.8672 40.8114 35.8758C40.5612 35.9048 40.4682 35.8147 40.4706 35.5489C40.4815 34.3062 40.462 33.0628 40.4768 31.8202C40.4838 31.2196 40.1453 30.6473 39.3511 30.6614C38.9226 30.6693 38.4919 30.6599 38.0674 30.7077C37.4193 30.7806 37.037 30.5031 36.7665 29.9253C36.4421 29.2314 36.0489 28.5697 35.69 27.8923C35.2476 27.0582 34.8059 26.2232 34.3696 25.3851C34.1648 24.9908 34.0163 24.9014 33.5543 24.9774C33.4042 25.0025 33.2408 24.8951 33.1047 25.026C32.9976 24.9092 32.9468 24.7657 32.8843 24.5784C33.4159 24.5784 33.9201 24.5823 34.4244 24.576C34.5815 24.5737 34.6135 24.6983 34.6691 24.7908C35.2804 25.8116 35.8198 26.8724 36.3874 27.9174C36.704 28.4999 37.0167 29.0848 37.3263 29.6705C37.5147 30.0264 37.7953 30.1895 38.2034 30.1753C38.7194 30.1573 39.2369 30.1848 39.7521 30.1652C40.3079 30.144 40.9638 30.7155 41.0092 31.3702C41.067 32.2098 41.0342 33.0503 41.0389 33.8907C41.0428 34.5352 41.0373 35.1804 41.0365 35.8248L41.0358 35.8256Z" fill="#FBFAF9"/>
<path d="M32.288 28.7759C31.8229 28.881 31.3515 28.8073 30.8832 28.8292C30.7393 28.8363 30.5955 28.8237 30.4509 28.8206C30.0654 27.8281 29.6777 26.8363 29.2962 25.8422C29.1414 25.4384 28.9155 25.059 28.8662 24.6184C29.4994 24.5768 30.1327 24.5878 30.7659 24.609C30.7729 24.6764 30.7651 24.7493 30.7886 24.8097C31.1482 25.7301 31.5242 26.6442 31.8698 27.5693C32.0183 27.9668 32.2403 28.3416 32.2872 28.7751L32.288 28.7759Z" fill="#8ED2EB"/>
<path d="M20.6213 7.51857C20.2531 6.9094 19.7192 6.47664 19.1047 6.14892C17.2464 5.15873 15.3819 5.14933 13.5776 6.25241C12.4815 6.92273 11.7725 7.92625 11.4754 9.1979C11.3949 9.29668 11.305 9.38214 11.1455 9.40879C11.1987 8.53072 11.4527 7.7326 11.9617 7.02622C12.8857 5.74438 14.1631 5.08817 15.7142 4.92589C17.1096 4.78006 18.4019 5.04427 19.5605 5.87296C20.0326 6.21086 20.429 6.61776 20.7057 7.12814C20.8058 7.31316 20.8504 7.52876 20.9301 7.75769C20.7636 7.71928 20.6901 7.62128 20.6213 7.51857Z" fill="#FBFAF9"/>
<path d="M19.1098 22.5447C17.995 22.4224 16.8763 22.5015 15.7591 22.4906C15.2197 22.4851 14.7178 22.3839 14.2558 22.1111C14.1057 22.0225 14.0165 22.0319 13.9517 22.195V20.823C14.4051 20.9641 14.8335 21.1366 15.294 21.2056C16.3314 21.3593 17.3516 21.3201 18.3421 20.9516C18.575 20.8645 18.6587 20.903 18.6305 21.1585C18.6149 21.3036 18.6423 21.4533 18.6212 21.5976C18.5571 22.0351 18.6978 22.3581 19.109 22.5454L19.1098 22.5447Z" fill="#688198"/>
<path d="M29.1819 28.8167C28.5284 28.823 27.8748 28.8214 27.222 28.8386C27.0344 28.8433 26.9945 28.7775 26.9953 28.6042C27 27.342 26.9992 26.0797 26.9922 24.8175C26.9914 24.6544 27.0344 24.5807 27.2009 24.5933C27.3174 24.6019 27.4347 24.6019 27.5512 24.6066C27.5676 24.6419 27.5871 24.6764 27.6012 24.7125C28.1289 26.0805 28.6558 27.4486 29.1827 28.8167H29.1819Z" fill="#8ED2EB"/>
<path d="M29.1818 28.8167C28.6549 27.4486 28.128 26.0805 27.6003 24.7125C27.5863 24.6764 27.5675 24.6419 27.5503 24.6066C27.9889 24.6105 28.4282 24.6145 28.8668 24.6184C28.916 25.0598 29.142 25.4385 29.2968 25.8422C29.6783 26.8363 30.066 27.8281 30.4514 28.8206C30.0285 28.8191 29.6048 28.8183 29.1818 28.8167Z" fill="#FBFAF9"/>
<path d="M35.0905 29.7575C35.1694 30.3674 35.0654 30.6693 34.3861 30.6654C32.1119 30.652 29.8378 30.6622 27.5636 30.663C27.3791 30.663 27.1954 30.663 27.0109 30.663C26.9989 30.3332 27.1558 30.168 27.4815 30.1675C29.7291 30.166 31.9775 30.1612 34.225 30.166C34.587 30.166 34.8895 30.0805 35.0897 29.7559L35.0905 29.7575Z" fill="#FBFAF9"/>
<path d="M8.41904 24.8826C8.4253 26.1229 8.42842 27.3624 8.44015 28.6026C8.44171 28.7689 8.38855 28.8261 8.2236 28.8214C7.86321 28.8112 7.50281 28.8159 7.1432 28.8143C7.1432 28.5995 7.13851 28.3855 7.1432 28.1714C7.15962 27.2612 7.3488 26.3949 7.81161 25.6031C7.97109 25.3302 8.12432 25.0449 8.41904 24.8834V24.8826Z" fill="#688198"/>
<path d="M32.2879 28.7759C32.241 28.3424 32.019 27.9676 31.8705 27.5702C31.5249 26.6442 31.1489 25.7301 30.7893 24.8105C30.7658 24.7501 30.7729 24.6764 30.7666 24.6098C31.1958 24.518 31.4155 24.7054 31.5921 25.1053C32.1112 26.282 32.6749 27.44 33.226 28.6019C33.3011 28.7603 33.323 28.852 33.0963 28.8285C32.8281 28.801 32.5522 28.8802 32.2879 28.7767V28.7759Z" fill="#FBFAF9"/>
<path d="M8.41863 24.8826C8.1239 25.0441 7.97067 25.3287 7.81119 25.6023C7.34838 26.3941 7.1592 27.2605 7.14278 28.1707C7.13887 28.3847 7.14278 28.5995 7.14278 28.8136C6.88063 28.8345 6.74929 28.7158 6.74877 28.4576C6.74486 27.6195 6.72375 26.7791 7.05131 25.9818C7.34838 25.2589 7.76272 24.6223 8.42644 24.1252C8.44755 24.3942 8.46788 24.6372 8.41863 24.8826Z" fill="#FBFAF9"/>
<path d="M11.5809 23.4682C11.2205 23.4282 10.8969 23.5968 10.5545 23.6579C10.3145 23.7011 10.0799 23.7787 9.84305 23.8406C9.84071 23.8038 9.83758 23.7661 9.83523 23.7293C9.86025 23.6438 9.87589 23.5584 9.81413 23.48C9.78442 23.3318 9.89152 23.3334 9.98924 23.3106C10.3762 23.2189 10.7702 23.1444 11.1463 23.0174C11.4238 22.9233 11.5098 23.0378 11.5661 23.2683C11.5825 23.3365 11.5981 23.4 11.5809 23.469V23.4682Z" fill="#FBFAF9"/>
<path d="M22.238 23.8845C22.098 23.6674 21.8393 23.7222 21.6431 23.6321C21.4179 23.5278 21.1623 23.4902 20.9191 23.4228C20.8972 23.3216 20.952 23.237 20.9739 23.1444C21.0122 22.9853 21.0833 22.9524 21.2389 23.0096C21.4726 23.0958 21.7118 23.1766 21.9558 23.2205C22.2216 23.2675 22.3076 23.4047 22.2646 23.6556C22.2513 23.7317 22.2466 23.8085 22.2372 23.8853L22.238 23.8845Z" fill="#FBFAF9"/>
<path d="M9.81529 23.48C9.87783 23.5584 9.86141 23.6438 9.83639 23.7293C9.78402 23.6501 9.79965 23.5647 9.81529 23.48Z" fill="#688198"/>
<path d="M30.5172 17.7803C29.6839 17.7976 29.1788 17.3209 29.1773 16.4859C29.1734 13.2676 29.1757 10.0485 29.1804 6.83019C29.1812 6.12146 29.7097 5.57422 30.4109 5.57266C33.3668 5.56403 36.3226 5.56011 39.2785 5.56795C40.1822 5.5703 40.6943 6.11362 40.6951 7.02697C40.6974 10.1285 40.695 13.2292 40.6943 16.3307C40.6943 16.5463 40.6857 16.7635 40.6192 16.9689C40.4777 17.4071 40.1885 17.6776 39.7194 17.7301C39.6733 17.6886 39.5365 17.7654 39.5724 17.6149C39.5943 17.5239 39.5529 17.4393 39.6827 17.3585C40.1939 17.0418 40.3143 16.3738 39.9453 15.9873C39.6741 15.7035 39.3551 15.5334 38.9392 15.5404C37.9948 15.5577 37.0497 15.549 36.1045 15.5467C36.0021 15.5467 35.8887 15.5875 35.7981 15.5004C36.4305 14.8913 37.0505 14.268 37.6993 13.6761C39.2073 12.2994 39.112 10.435 38.5077 9.23237C37.5281 7.28413 35.1164 6.5456 33.1119 7.55461C30.8135 8.71257 30.3069 11.8274 32.0682 13.4809C32.7726 14.1418 33.4512 14.8301 34.1423 15.5059C34.0563 15.5741 33.9546 15.5428 33.8608 15.5428C33.1213 15.5451 32.3825 15.5396 31.643 15.5459C31.3045 15.549 30.9652 15.52 30.6274 15.5977C30.156 15.7058 29.8121 16.0155 29.7581 16.4303C29.7073 16.8246 29.8105 17.1774 30.3718 17.3922C30.5493 17.4597 30.6439 17.5835 30.5164 17.7787L30.5172 17.7803Z" fill="#FBFAF9"/>
<path d="M30.5169 17.7803C30.6443 17.5859 30.5497 17.4612 30.3723 17.3938C29.8102 17.179 29.7078 16.8262 29.7586 16.4318C29.8117 16.0179 30.1565 15.7074 30.6279 15.5992C30.9664 15.5216 31.3049 15.5498 31.6434 15.5475C32.383 15.5412 33.1217 15.5475 33.8613 15.5443C33.9551 15.5443 34.0567 15.5749 34.1427 15.5075C34.2537 15.6133 34.364 15.72 34.4742 15.8258C34.8041 16.141 35.1708 16.1355 35.496 15.8085C35.5976 15.7066 35.6977 15.6039 35.7985 15.5012C35.89 15.5882 36.0026 15.5467 36.105 15.5475C37.0501 15.5498 37.9945 15.5577 38.9397 15.5412C39.3556 15.5334 39.6745 15.7043 39.9458 15.9881C40.3148 16.3746 40.1944 17.0426 39.6831 17.3593C39.5533 17.4393 39.5948 17.5239 39.5729 17.6157C39.5369 17.7662 39.6737 17.6894 39.7199 17.7309C39.6542 17.7858 39.5752 17.7795 39.4971 17.7795C36.5232 17.7827 33.5486 17.7866 30.5747 17.7905C30.5552 17.7905 30.5364 17.7842 30.5169 17.7811V17.7803Z" fill="#B46B0F"/>
<path d="M28.8246 32.4662C28.601 32.4662 28.3774 32.4678 28.1538 32.4662C27.8208 32.4639 27.5425 32.1667 27.5315 31.8053C27.5221 31.4917 27.759 31.2126 28.0733 31.1679C28.5666 31.0981 29.0638 31.1138 29.5579 31.1303C29.9667 31.1436 30.2411 31.4376 30.2247 31.7959C30.2067 32.1832 29.9269 32.456 29.525 32.4678C29.2921 32.4748 29.0583 32.4694 28.8246 32.4694C28.8246 32.4686 28.8246 32.4678 28.8246 32.467V32.4662Z" fill="#14344C"/>
<path d="M12.0668 40.4889C11.0247 40.485 10.1319 39.6108 10.1452 38.6057C10.1592 37.5803 11.0802 36.6936 12.1301 36.6943C13.1479 36.6951 14.0399 37.5865 14.0352 38.5995C14.0306 39.6633 13.1667 40.4928 12.0668 40.4889ZM12.0886 38.006C11.7806 38.0083 11.4992 38.2968 11.4992 38.6089C11.4992 38.9013 11.783 39.2031 12.0652 39.2094C12.4084 39.2172 12.7078 38.9256 12.7031 38.5885C12.6992 38.289 12.3974 38.0036 12.0886 38.006Z" fill="#14344C"/>
<path d="M34.8044 40.4865C33.7787 40.4897 32.9258 39.6641 32.8968 38.6935C32.8648 37.6053 33.7513 36.7006 34.838 36.6982C36.0622 36.6959 36.7588 37.6618 36.7877 38.561C36.8213 39.6147 35.9059 40.4826 34.8051 40.4858L34.8044 40.4865ZM35.4352 38.6073C35.4298 38.2623 35.1812 38.0044 34.8513 38.0036C34.4995 38.0028 34.2642 38.2561 34.2704 38.6308C34.2759 38.9515 34.5151 39.1921 34.8255 39.189C35.1632 39.1851 35.4399 38.9217 35.4352 38.6081V38.6073Z" fill="#14344C"/>
<path d="M35.7994 15.5012C35.6985 15.6039 35.5985 15.7066 35.4968 15.8085C35.1716 16.1347 34.805 16.141 34.4751 15.8258C34.364 15.7199 34.2538 15.6133 34.1436 15.5075C33.4533 14.8317 32.7739 14.1433 32.0696 13.4824C30.3082 11.829 30.814 8.71334 33.1132 7.55616C35.1177 6.54637 37.5294 7.28568 38.509 9.23392C39.1133 10.4366 39.2079 12.3009 37.7006 13.6776C37.0525 14.2695 36.4326 14.8928 35.7994 15.502V15.5012ZM32.6207 11.8964C32.6316 11.9332 32.634 11.9763 32.6535 12.0069C32.9084 12.3997 33.1726 12.7721 33.5518 13.0739C33.9997 13.4307 34.3906 13.8595 34.7964 14.268C34.9371 14.4099 35.027 14.4013 35.1646 14.2617C35.7337 13.687 36.3216 13.1312 36.8876 12.5542C37.2652 12.1692 37.5013 11.7051 37.5365 11.1539C37.6045 9.94501 36.9204 8.90934 35.8009 8.57301C34.6541 8.22883 33.4205 8.60201 32.7817 9.61651C32.3283 10.337 32.2431 11.1053 32.6199 11.8964H32.6207Z" fill="#14344C"/>
<path d="M12.0885 38.0059C12.3973 38.0036 12.6983 38.289 12.7029 38.5884C12.7076 38.9256 12.4082 39.2172 12.065 39.2094C11.7836 39.2031 11.4998 38.902 11.499 38.6088C11.499 38.2968 11.7805 38.0083 12.0885 38.0059Z" fill="#688198"/>
<path d="M35.435 38.6073C35.4397 38.9209 35.1629 39.1851 34.8252 39.1882C34.5148 39.1914 34.2756 38.9507 34.2701 38.63C34.2639 38.2553 34.4984 38.002 34.851 38.0028C35.1809 38.0036 35.4295 38.2615 35.435 38.6065V38.6073Z" fill="#688198"/>
<path d="M37.5372 11.1547C37.502 11.7059 37.2659 12.1692 36.8883 12.555C36.3223 13.1328 35.7344 13.6886 35.1653 14.2625C35.0269 14.4021 34.9378 14.4107 34.7971 14.2688C34.3921 13.8603 34.0005 13.4315 33.5525 13.0748C33.1734 12.7729 32.9091 12.4005 32.6543 12.0077C32.6339 11.9772 32.6316 11.934 32.6214 11.8972C32.6136 11.8109 32.6136 11.7231 32.5964 11.6385C32.4838 11.081 32.6074 10.5652 32.9318 10.1175C33.3633 9.52167 33.8981 9.09282 34.6845 9.00502C35.7485 8.88663 36.4849 9.28961 37.0869 10.0971C37.3245 10.4154 37.423 10.7863 37.538 11.154L37.5372 11.1547ZM34.9574 11.074C34.7885 10.8898 34.64 10.7102 34.4727 10.5503C34.2663 10.3519 34.0294 10.2869 33.7534 10.4217C33.2781 10.653 33.1866 11.2175 33.5814 11.6502C33.9356 12.0383 34.3132 12.4044 34.6845 12.7761C34.8456 12.9368 35.0183 12.9532 35.1927 12.7878C35.46 12.5346 35.7376 12.2908 35.9948 12.0265C36.1769 11.8392 36.3935 11.6816 36.5256 11.4472C36.7281 11.0873 36.5224 10.4507 36.1753 10.4264C35.8001 10.3998 35.4131 10.4029 35.1778 10.7957C35.1184 10.8945 35.0347 10.9776 34.9566 11.0748L34.9574 11.074Z" fill="#D71919"/>
<path d="M37.5374 11.1548C37.4224 10.7871 37.3239 10.4162 37.0863 10.0979C36.4835 9.29042 35.7479 8.88744 34.6839 9.00582C33.8982 9.09363 33.3635 9.52248 32.9312 10.1183C32.6068 10.566 32.4832 11.0819 32.5958 11.6393C32.613 11.724 32.613 11.8118 32.6208 11.898C32.244 11.1077 32.3284 10.3386 32.7827 9.61813C33.4214 8.60363 34.655 8.23045 35.8018 8.57462C36.9213 8.91018 37.6054 9.94662 37.5374 11.1556V11.1548Z" fill="#FBFAF9"/>
<path d="M34.9577 11.074C35.0351 10.9776 35.1195 10.8937 35.1789 10.7949C35.4142 10.4021 35.8012 10.3982 36.1764 10.4256C36.5235 10.4507 36.7291 11.0866 36.5267 11.4464C36.3946 11.6808 36.178 11.8392 35.9959 12.0258C35.7386 12.29 35.4611 12.533 35.1938 12.7871C35.0194 12.9525 34.8467 12.936 34.6856 12.7753C34.3143 12.4037 33.9367 12.0375 33.5825 11.6495C33.187 11.2159 33.2792 10.6522 33.7545 10.4209C34.0305 10.2869 34.2681 10.3519 34.4737 10.5495C34.641 10.7102 34.7896 10.889 34.9584 11.0732L34.9577 11.074Z" fill="#14344C"/>
</svg>