<svg width="183" height="45" viewBox="0 0 183 45" fill="none" xmlns="http://www.w3.org/2000/svg">
<path fill-rule="evenodd" clip-rule="evenodd" d="M19.24 0L9.62012 21.5H19.24L28.8603 0H19.24Z" fill="#CCCCCC"/>
<path fill-rule="evenodd" clip-rule="evenodd" d="M0 0L9.62008 21.5H19.2402L9.62008 0H0Z" fill="#FF4A4A"/>
<path fill-rule="evenodd" clip-rule="evenodd" d="M42.7559 25.8002C42.7559 27.5815 41.32 29.0252 39.5492 29.0252C37.7781 29.0252 36.3425 27.5815 36.3425 25.8002C36.3425 24.0189 37.7781 22.5752 39.5492 22.5752C41.32 22.5752 42.7559 24.0189 42.7559 25.8002Z" fill="#FF4A4A"/>
<path fill-rule="evenodd" clip-rule="evenodd" d="M32.3126 27.9502H22.4468C23.6234 36.3961 30.8423 42.9173 39.5491 42.9173V33.2089C36.1831 33.2089 33.3245 31.001 32.3126 27.9502Z" fill="#FFC10D"/>
<path fill-rule="evenodd" clip-rule="evenodd" d="M32.3126 23.6501C33.3245 20.5823 36.1831 18.3623 39.5491 18.3623V8.6001C30.8423 8.6001 23.6234 15.1574 22.4468 23.6501H32.3126Z" fill="#FFC10D"/>
<path fill-rule="evenodd" clip-rule="evenodd" d="M63.6891 16.168L69.0935 3.09603H70.3705L63.94 18.4614H63.4611L57.0078 3.09603H58.2848L63.6891 16.168ZM73.4945 3.09603H74.6803V18.232H73.4945V3.09603ZM85.3521 11.352L90.4372 18.232H89.0462L83.9839 11.4438H80.3126V18.232H79.1269V3.09603H84.2348C85.6258 3.09603 86.7431 3.4859 87.564 4.26563C88.3849 5.04537 88.7954 6.0315 88.7954 7.24697C88.7954 9.35683 87.5184 10.9622 85.3521 11.352ZM84.1892 4.1739H80.3126V10.3659H84.1892C86.3555 10.3659 87.564 9.10457 87.564 7.2699C87.564 5.43523 86.3555 4.1739 84.1892 4.1739ZM90.8705 3.09603H103.07V4.1739H97.5518V18.232H96.366V4.1739H90.8705V3.09603ZM111.895 2.8667C114.038 2.8667 115.863 3.6235 117.368 5.11417C118.873 6.60483 119.625 8.46243 119.625 10.664C119.625 12.8427 118.873 14.7003 117.368 16.2139C115.863 17.7046 114.038 18.4614 111.895 18.4614C109.729 18.4614 107.904 17.7046 106.422 16.2139C104.94 14.7003 104.188 12.8427 104.188 10.664C104.188 8.46243 104.94 6.60483 106.422 5.11417C107.904 3.6235 109.729 2.8667 111.895 2.8667ZM111.918 3.9675C110.071 3.9675 108.52 4.60963 107.289 5.8939C106.057 7.15523 105.442 8.73763 105.442 10.6411C105.442 12.5446 106.057 14.127 107.289 15.4112C108.52 16.6955 110.071 17.3376 111.918 17.3376C113.765 17.3376 115.293 16.6955 116.524 15.4112C117.755 14.127 118.371 12.5446 118.371 10.6411C118.371 8.76057 117.755 7.17817 116.501 5.8939C115.27 4.60963 113.742 3.9675 111.918 3.9675ZM65.0345 25.8C67.5657 25.8 69.7776 26.9696 71.123 28.8731L70.2336 29.584C68.9795 27.7952 67.2464 26.9008 65.0573 26.9008C63.2103 26.9008 61.6825 27.543 60.4283 28.8272C59.1969 30.0886 58.5812 31.671 58.5812 33.5744C58.5812 35.4779 59.1969 37.0832 60.4283 38.3675C61.6597 39.6288 63.2103 40.271 65.0573 40.271C67.2692 40.271 68.9795 39.3766 70.2336 37.6107L71.123 38.3216C69.7776 40.2251 67.5657 41.3947 65.0345 41.3947C62.8682 41.3947 61.044 40.6379 59.5618 39.1472C58.0796 37.6566 57.3271 35.799 57.3271 33.5974C57.3271 31.3958 58.0796 29.5382 59.5618 28.0475C61.044 26.5568 62.8682 25.8 65.0345 25.8ZM81.1563 25.8C83.2998 25.8 85.1241 26.5568 86.6291 28.0475C88.1341 29.5382 88.8866 31.3958 88.8866 33.5974C88.8866 35.776 88.1341 37.6336 86.6291 39.1472C85.1241 40.6379 83.2998 41.3947 81.1563 41.3947C78.99 41.3947 77.1658 40.6379 75.6836 39.1472C74.2014 37.6336 73.4489 35.776 73.4489 33.5974C73.4489 31.3958 74.2014 29.5382 75.6836 28.0475C77.1658 26.5568 78.99 25.8 81.1563 25.8ZM81.1791 26.9008C79.3321 26.9008 77.7815 27.543 76.5501 28.8272C75.3187 30.0886 74.7031 31.671 74.7031 33.5744C74.7031 35.4779 75.3187 37.0603 76.5501 38.3446C77.7815 39.6288 79.3321 40.271 81.1791 40.271C83.0262 40.271 84.554 39.6288 85.7854 38.3446C87.0168 37.0603 87.6324 35.4779 87.6324 33.5744C87.6324 31.6939 87.0168 30.1115 85.7626 28.8272C84.5312 27.543 83.0034 26.9008 81.1791 26.9008ZM99.034 34.8128L105.305 25.8H105.761V41.1654H104.575V28.8502L99.2849 36.4411H98.8288L93.5157 28.8502V41.1654H92.3299V25.8H92.7859L99.034 34.8128ZM116.934 34.8128L123.205 25.8H123.661V41.1654H122.476V28.8502L117.185 36.4411H116.729L111.416 28.8502V41.1654H110.23V25.8H110.686L116.934 34.8128ZM128.131 26.0294H137.549V27.1072H129.317V32.4507H135.724V33.5286H129.317V40.0875H137.822V41.1654H128.131V26.0294ZM147.194 34.2854L152.279 41.1654H150.888L145.826 34.3771H142.155V41.1654H140.969V26.0294H146.077C147.468 26.0294 148.585 26.4192 149.406 27.199C150.227 27.9787 150.638 28.9648 150.638 30.1803C150.638 32.2902 149.361 33.8955 147.194 34.2854ZM146.031 27.1072H142.155V33.2992H146.031C148.198 33.2992 149.406 32.0379 149.406 30.2032C149.406 28.3686 148.198 27.1072 146.031 27.1072ZM161.309 25.8C163.841 25.8 166.052 26.9696 167.398 28.8731L166.509 29.584C165.254 27.7952 163.521 26.9008 161.332 26.9008C159.485 26.9008 157.957 27.543 156.703 28.8272C155.472 30.0886 154.856 31.671 154.856 33.5744C154.856 35.4779 155.472 37.0832 156.703 38.3675C157.935 39.6288 159.485 40.271 161.332 40.271C163.544 40.271 165.254 39.3766 166.509 37.6107L167.398 38.3216C166.052 40.2251 163.841 41.3947 161.309 41.3947C159.143 41.3947 157.319 40.6379 155.837 39.1472C154.354 37.6566 153.602 35.799 153.602 33.5974C153.602 31.3958 154.354 29.5382 155.837 28.0475C157.319 26.5568 159.143 25.8 161.309 25.8ZM170.864 26.0294H180.282V27.1072H172.05V32.4507H178.457V33.5286H172.05V40.0875H180.555V41.1654H170.864V26.0294Z" fill="white"/>
</svg>
