<svg width="50" height="50" viewBox="0 0 50 50" fill="none" xmlns="http://www.w3.org/2000/svg">
<rect x="1.8" y="1.8" width="46.4" height="46.4" rx="2.2" stroke="#AFAFAF" stroke-width="1.6"/>
<path d="M12.4667 10C11.11 10 10 11.1118 10 12.4706V36.5294C10 37.8882 11.11 39 12.4667 39H37.5333C38.89 39 40 37.8882 40 36.5294V12.4706C40 11.1118 38.89 10 37.5333 10H12.4667ZM12.4667 11.6471H37.5333C37.9856 11.6471 38.3556 12.0176 38.3556 12.4706V30.6823L32.4489 26.1647C32.1611 25.9588 31.75 25.9176 31.4622 26.1235L26.3778 29.3235L19.2378 22.6941C19.0733 22.5706 18.8267 22.4882 18.6211 22.5294C18.4978 22.5294 18.3744 22.6118 18.2511 22.6529L11.6444 29.9823V12.4294C11.6444 11.9765 12.0144 11.6471 12.4667 11.6471ZM30.3778 15.7647C28.5689 15.7647 27.0889 17.2471 27.0889 19.0588C27.0889 20.8706 28.5689 22.3529 30.3778 22.3529C32.1867 22.3529 33.6667 20.8706 33.6667 19.0588C33.6667 17.2471 32.1867 15.7647 30.3778 15.7647ZM30.3778 17.4118C31.2822 17.4118 32.0222 18.1529 32.0222 19.0588C32.0222 19.9647 31.2822 20.7059 30.3778 20.7059C29.4733 20.7059 28.7333 19.9647 28.7333 19.0588C28.7333 18.1529 29.4733 17.4118 30.3778 17.4118ZM18.6211 24.5L25.8433 30.9706C26.1311 31.1765 26.5422 31.2176 26.83 31.0118L31.9144 27.8117L38.3556 32.7823V36.4882C38.3556 36.9412 37.9856 37.3118 37.5333 37.3118H12.4667C12.0144 37.3118 11.6444 36.9412 11.6444 36.4882V32.5L18.6211 24.5Z" fill="#AFAFAF"/>
</svg>
