<svg width="50" height="50" viewBox="0 0 50 50" fill="none" xmlns="http://www.w3.org/2000/svg">
<rect width="50" height="50" rx="4" fill="white"/>
<path d="M44.0202 13.0838C44.5245 13.6357 44.8723 14.2896 45.2202 14.9427C45.5408 15.544 45.8363 16.1571 46.106 16.7835C46.5211 17.747 46.8557 18.7396 47.159 19.7431C47.3263 20.2982 47.4756 20.8611 47.5976 21.4232C47.7203 21.9885 47.7876 22.5749 47.8595 23.1543C48.0213 24.4675 48.0213 25.7877 47.9674 27.1048C47.9306 27.9978 47.8345 28.8892 47.6742 29.7744C47.5006 30.7324 47.2575 31.6724 47.0277 32.6156C46.8909 33.1769 46.6454 33.7116 46.4492 34.2581C46.0669 35.3212 45.5853 36.3396 45.0451 37.3306C44.9341 37.5336 44.809 37.732 44.6824 37.9233C44.5432 38.1334 44.4697 38.3513 44.4221 38.5889C44.4181 38.5113 44.4103 38.4336 44.4095 38.3552C44.4064 37.122 44.415 35.8888 44.3994 34.6563C44.3814 33.2804 43.455 32.124 42.1698 31.8692C41.7281 31.7814 41.2739 31.819 40.8275 31.841C40.5234 31.8559 40.3608 31.7587 40.2185 31.4843C39.5837 30.2636 38.9411 29.0445 38.2625 27.8481C37.9256 27.253 37.7458 26.6595 37.777 25.9649C37.8083 25.2664 37.4878 24.6807 36.9413 24.2354C36.3902 23.7862 35.7382 23.6662 35.0518 23.6662C32.3484 23.667 29.6451 23.6694 26.9417 23.6701C25.9731 23.6701 25.1718 24.0057 24.6128 24.8305C24.5558 24.9144 24.5151 24.9669 24.3846 24.9292C23.6567 24.7168 22.9117 24.578 22.1667 24.4432C22.0158 24.4157 21.9736 24.353 21.9752 24.2142C21.9783 23.8622 21.9806 23.5094 21.9689 23.1574C21.9642 23.0194 22.026 22.9395 22.1252 22.8665C22.549 22.5529 22.8304 22.1084 23.1353 21.6952C23.4777 21.2311 23.7029 20.6949 23.8608 20.1359C24.1062 19.2633 24.1383 18.3633 24.2227 17.4679C24.4025 15.5479 24.4604 13.6216 24.4878 11.6953C24.5042 10.5452 24.0922 9.53071 23.3323 8.67302C22.2863 7.49153 20.9604 6.83219 19.4039 6.62756C17.4776 6.37433 15.6968 6.73419 14.1293 7.92587C12.8894 8.86902 12.0834 10.096 11.9029 11.6702C11.7715 12.8118 11.8911 13.958 11.949 15.0995C12.0115 16.3303 12.2851 17.5361 12.4517 18.7545C12.6721 20.3703 13.2756 21.7815 14.503 22.8877C14.5812 22.9583 14.6164 23.0351 14.6132 23.1425C14.6054 23.4945 14.6007 23.8473 14.607 24.1993C14.6093 24.3514 14.5742 24.4165 14.4061 24.4432C13.4156 24.5976 12.4282 24.7717 11.469 25.0735C9.43794 25.7132 8.15349 27.0852 7.58202 29.1252C7.34515 29.9719 7.39753 30.8516 7.40691 31.7218C7.40847 31.8771 7.3858 31.986 7.2271 32.0762C6.228 32.6422 5.7605 33.5133 5.76676 34.661C5.77379 35.8935 5.7605 37.1267 5.75659 38.3592C5.45405 38.0895 5.27346 37.7327 5.0788 37.3878C4.53625 36.4305 4.04687 35.4419 3.63409 34.425C3.21898 33.4027 2.89376 32.3412 2.64907 31.2593C2.47864 30.5082 2.3262 29.7548 2.22222 28.9911C2.05336 27.7509 1.9658 26.5043 2.01584 25.2538C2.05101 24.3781 2.069 23.4977 2.19877 22.6298C2.29884 21.9563 2.43799 21.2891 2.5748 20.6212C2.71552 19.9336 2.92112 19.2649 3.14236 18.6055C3.42771 17.7557 3.7498 16.9144 4.15084 16.1077C4.69495 15.0132 5.26252 13.9297 5.96142 12.9286C6.49927 12.1579 7.06762 11.4045 7.71883 10.7177C8.24652 10.161 8.76093 9.59265 9.32693 9.07286C10.8045 7.71497 12.4454 6.59699 14.2396 5.71107C15.2809 5.19676 16.3566 4.76321 17.4581 4.38846C18.5354 4.02233 19.6345 3.73931 20.7407 3.49862C21.6765 3.29478 22.6357 3.17248 23.5965 3.10819C24.1688 3.06977 24.7395 2.97491 25.3149 3.00548C26.45 3.06507 27.5828 3.14347 28.7101 3.31752C29.8358 3.49156 30.9459 3.73382 32.0287 4.06702C33.7173 4.58681 35.3481 5.26027 36.8749 6.16735C37.4237 6.4935 37.9928 6.78279 38.4978 7.17871C38.3657 7.22575 38.2281 7.21713 38.0921 7.21713C36.2088 7.21948 34.3255 7.21948 32.4422 7.2234C31.8028 7.22497 31.243 7.45155 30.7536 7.85687C30.104 8.3947 29.8436 9.10657 29.8429 9.92977C29.8413 11.642 29.8429 13.3551 29.8436 15.0673C29.8452 16.5546 29.8264 18.0426 29.8569 19.5291C29.8882 21.0751 30.8881 22.0559 32.4329 22.0865C33.4476 22.1068 34.4623 22.0935 35.4771 22.0927C37.5362 22.0912 39.5954 22.0967 41.6538 22.0802C42.4411 22.0739 43.0766 21.7344 43.5457 21.0845C43.9327 20.5483 44.0132 19.9461 44.0116 19.3056C44.0054 17.2319 44.0171 15.1575 44.0226 13.0838H44.0202Z" fill="#8ED2EB"/>
<path d="M5.75483 38.3583C5.75874 37.1259 5.77203 35.8927 5.76499 34.6602C5.75874 33.5124 6.22624 32.6414 7.22534 32.0754C7.38482 31.9852 7.40671 31.8762 7.40514 31.721C7.39576 30.8508 7.3426 29.9711 7.58026 29.1244C8.15173 27.0852 9.43696 25.7124 11.4672 25.0727C12.4264 24.7708 13.4138 24.5968 14.4043 24.4423C14.5724 24.4157 14.6084 24.3506 14.6052 24.1985C14.599 23.8465 14.6037 23.4937 14.6115 23.1417C14.6138 23.0343 14.5794 22.9575 14.5013 22.8869C13.2739 21.7807 12.6711 20.3695 12.4499 18.7536C12.2834 17.5353 12.0098 16.3295 11.9472 15.0986C11.8894 13.9571 11.7698 12.8109 11.9011 11.6694C12.0817 10.0959 12.8877 8.86898 14.1276 7.92505C15.6942 6.73258 17.4759 6.37351 19.4022 6.62674C20.9587 6.83137 22.2845 7.49071 23.3305 8.6722C24.0896 9.52989 24.5016 10.5444 24.486 11.6945C24.4594 13.6208 24.4016 15.5463 24.221 17.4671C24.1373 18.3616 24.1045 19.2625 23.859 20.1351C23.7019 20.6948 23.4759 21.2311 23.1335 21.6944C22.8286 22.1076 22.5472 22.5521 22.1235 22.8657C22.0242 22.9386 21.9624 23.0186 21.9671 23.1566C21.9789 23.5086 21.9765 23.8614 21.9734 24.2134C21.9718 24.353 22.014 24.4149 22.1649 24.4423C22.9099 24.5772 23.655 24.7168 24.3828 24.9284C24.5134 24.9668 24.5548 24.9143 24.6111 24.8296C25.17 24.0049 25.9713 23.6693 26.94 23.6693C29.6433 23.6693 32.3467 23.667 35.05 23.6654C35.7364 23.6654 36.3884 23.7854 36.9396 24.2346C37.486 24.6799 37.8073 25.2663 37.7753 25.9641C37.744 26.6579 37.9238 27.2522 38.2607 27.8473C38.9393 29.0444 39.5811 30.2628 40.2167 31.4834C40.3598 31.7578 40.5224 31.8551 40.8257 31.8402C41.2721 31.8182 41.7271 31.7806 42.168 31.8684C43.4532 32.1232 44.3796 33.2796 44.3976 34.6555C44.414 35.8887 44.4047 37.122 44.4078 38.3544C44.4078 38.432 44.4156 38.5097 44.4203 38.5881C44.4187 39.6504 44.4179 40.7119 44.414 41.7742C44.4117 42.3771 44.0966 42.6915 43.4978 42.6946C42.9443 42.6978 42.39 42.6978 41.8365 42.6986C41.7201 42.7346 41.5606 42.552 41.4801 42.7864C41.3745 43.0937 41.2471 43.394 41.1283 43.6974C40.6686 44.4453 40.1315 45.1211 39.3857 45.6315C40.531 45.6315 41.6771 45.6307 42.8224 45.6315C43.2383 45.6315 43.5173 45.8926 43.5299 46.2838C43.54 46.6107 43.3399 46.8828 43.0178 46.9314C42.7786 46.9674 42.5323 46.9729 42.2892 46.9729C39.0339 46.9729 35.7786 46.9682 32.5241 46.9659C32.4076 46.9659 32.2904 46.9721 32.1739 46.9753C32.0129 46.9228 31.8463 46.9361 31.6822 46.9361C28.0923 46.9376 24.5024 46.9384 20.9125 46.9463C20.0557 46.9478 19.1989 46.9714 18.3421 46.9847C16.3923 46.9831 14.4426 46.98 12.4921 46.9792C10.4931 46.9776 8.49415 46.9792 6.49595 46.9768C6.23093 46.9768 5.962 46.969 5.78063 46.7275C5.62037 46.5135 5.60239 46.2752 5.70011 46.0329C5.79627 45.7946 5.98467 45.6605 6.23875 45.6456C6.49126 45.6299 6.74533 45.6339 6.99862 45.6339C8.40268 45.6323 9.80673 45.6315 11.2108 45.6307C11.2858 45.6307 11.3609 45.6307 11.5258 45.6307C10.9082 45.2732 10.4884 44.8216 10.0999 44.3379C10.0741 44.3034 10.0483 44.2697 10.0233 44.236L10.0202 44.2313C10.0202 44.1858 9.9928 44.1607 9.95293 44.1458L9.93807 44.1247C9.72387 43.7021 9.47839 43.292 9.34862 42.8326C9.30249 42.6696 9.23292 42.628 9.08282 42.6656C9.00855 42.6837 8.93037 42.6884 8.85376 42.6993C8.1533 42.697 7.45049 42.6672 6.75159 42.7009C6.08396 42.7338 5.7306 42.2337 5.74545 41.6974C5.77594 40.5849 5.75405 39.4716 5.75405 38.3583H5.75483ZM11.8151 26.48C11.7995 26.5646 11.7846 26.6501 11.8362 26.7293C11.8385 26.7661 11.8417 26.8038 11.844 26.8406C11.8385 28.4337 11.8362 30.0276 11.8229 31.6206C11.8214 31.8002 11.8847 31.8206 12.041 31.819C12.9768 31.8112 13.9134 31.8119 14.8491 31.8151C15.3112 31.8166 15.3041 31.8229 15.1579 31.3635C14.846 30.3882 14.5474 29.4082 14.2315 28.4337C14.0189 27.7767 13.8485 27.1064 13.5811 26.4674C13.5983 26.3984 13.5827 26.3349 13.5663 26.2667C13.51 26.0362 13.424 25.9218 13.1464 26.0158C12.7712 26.1436 12.3772 26.2173 11.9894 26.3091C11.8917 26.3318 11.7854 26.3302 11.8143 26.4784L11.8151 26.48ZM9.1438 31.8135C9.50419 31.8151 9.86458 31.8104 10.2242 31.8206C10.3884 31.8253 10.4423 31.768 10.4407 31.6018C10.429 30.3623 10.4251 29.122 10.4196 27.8818C10.4689 27.6364 10.4493 27.3925 10.4275 27.1244C9.76374 27.6207 9.3494 28.2573 9.05233 28.9809C8.72477 29.7782 8.74509 30.6187 8.74978 31.4568C8.75083 31.715 8.88216 31.8336 9.1438 31.8127V31.8135ZM29.5503 27.6066C29.4338 27.6026 29.3165 27.6026 29.2001 27.5932C29.0335 27.5807 28.9905 27.6544 28.9913 27.8175C28.9991 29.0797 28.9999 30.3419 28.9944 31.6042C28.9944 31.7774 29.0335 31.8433 29.2212 31.8386C29.8739 31.8214 30.5275 31.8221 31.181 31.8166C31.604 31.8182 32.0269 31.819 32.4506 31.8206C32.5945 31.8237 32.7391 31.8362 32.883 31.8292C33.3512 31.8072 33.8234 31.8809 34.2878 31.7759C34.552 31.8786 34.8272 31.7994 35.0961 31.8276C35.3229 31.8511 35.301 31.7594 35.2259 31.601C34.6748 30.4384 34.1111 29.2812 33.592 28.1044C33.4161 27.7046 33.1964 27.5172 32.7665 27.6089C32.1332 27.5878 31.5 27.5768 30.8668 27.6183C30.4282 27.6144 29.9889 27.6105 29.5503 27.6066ZM21.1095 25.5447C20.6983 25.3573 20.5576 25.0343 20.6217 24.5968C20.6428 24.4533 20.6147 24.3028 20.6311 24.1578C20.6592 23.9022 20.5756 23.8638 20.3426 23.9508C19.3521 24.32 18.3319 24.3592 17.2945 24.2048C16.8348 24.1366 16.4056 23.9641 15.9522 23.8222V25.1942C15.7364 25.5399 15.3542 25.5595 15.0196 25.6732C14.9359 25.7015 14.8155 25.6897 14.8656 25.852C15.0368 26.4094 15.2596 26.868 15.9069 27.0648C17.5548 27.5666 19.1684 27.6058 20.789 26.966C21.1322 26.8304 21.3527 26.6532 21.4777 26.2965C21.6787 25.725 21.6998 25.7328 21.1095 25.5431V25.5447ZM22.9193 26.4227C22.8075 26.5646 22.7739 26.7403 22.7223 26.9057C22.3721 28.0229 22.0273 29.1416 21.681 30.2596C21.5231 30.77 21.3644 31.2804 21.1994 31.8135C22.1782 31.8135 23.1226 31.8104 24.067 31.8166C24.2288 31.8174 24.264 31.7484 24.2601 31.6065C24.2546 31.3525 24.2608 31.0977 24.2601 30.8437C24.253 29.5242 24.246 28.204 24.2382 26.8845C24.2468 26.8077 24.2522 26.7308 24.2655 26.6548C24.3085 26.4047 24.2225 26.2675 23.9567 26.2197C23.7128 26.1766 23.4728 26.095 23.2399 26.0088C23.0843 25.9515 23.0131 25.9845 22.9748 26.1436C22.9529 26.2361 22.8974 26.3208 22.9201 26.4219L22.9193 26.4227ZM22.6215 10.5185C22.6903 10.622 22.7638 10.7192 22.9303 10.7576C22.8513 10.5295 22.8068 10.3131 22.7059 10.1281C22.4292 9.6177 22.0328 9.21081 21.5606 8.8729C20.4028 8.04343 19.1098 7.78001 17.7143 7.92583C16.1633 8.08812 14.8859 8.74433 13.9618 10.0262C13.4529 10.7325 13.1988 11.5307 13.1457 12.4087C13.3059 12.3829 13.395 12.2966 13.4756 12.1978C14.3551 11.8858 15.2682 11.8913 16.1828 11.9038C16.8356 11.9125 17.4892 11.9093 18.1427 11.9054C18.5446 11.9031 18.9354 11.8356 19.3099 11.682C19.9666 11.4131 20.4224 10.9489 20.696 10.2919C20.8046 10.0317 21.0142 9.86858 21.305 9.86153C21.5981 9.85447 21.81 10.0136 21.928 10.2692C21.9976 10.4205 22.1063 10.4629 22.2447 10.4817C22.3697 10.4981 22.4956 10.506 22.6215 10.5177V10.5185ZM22.9357 15.3487C23.0241 14.8156 22.9584 14.277 22.9834 13.7415C22.9881 13.6482 22.9115 13.6122 22.849 13.5644C22.5425 13.3299 22.3041 13.0375 22.1008 12.7106C21.9007 12.3884 21.7936 12.0246 21.6263 11.6467C21.1111 12.346 20.4614 12.7804 19.682 13.0453C18.9253 13.3033 18.1482 13.2837 17.368 13.2892C16.5401 13.2954 15.7091 13.2147 14.8835 13.3276C14.2362 13.4162 13.782 13.8999 13.6648 14.4801C13.5272 15.1621 13.6695 15.8364 13.6843 16.5091C13.6992 17.1778 13.7625 17.8544 13.8313 18.5255C13.9392 19.5737 14.2253 20.5412 14.9297 21.3495C15.3065 21.7822 15.72 22.1695 16.2399 22.4275C16.2759 22.4424 16.3126 22.4549 16.3478 22.4714C19.1434 23.8112 22.2869 22.0966 22.6887 19.0053C22.8466 17.7925 22.8787 16.5694 22.9357 15.3487ZM35.9209 26.2887C36.3908 26.3177 36.5096 26.1719 36.3931 25.7109C36.3634 25.5933 36.2985 25.5007 36.2235 25.4082C35.9178 25.0335 35.5011 24.9864 35.0594 24.9911C34.2401 25.0013 33.4208 25.006 32.6015 25.0068C30.6604 25.0092 28.7185 25.0139 26.7774 25.0037C26.1402 24.9998 25.5758 25.449 25.618 26.1734C25.6274 26.3294 25.6188 26.4862 25.6188 26.643C25.6188 28.5999 25.6203 30.5568 25.6172 32.5128C25.6172 32.9676 25.4624 33.1236 25.0066 33.1534C24.8995 33.1604 24.7924 33.1636 24.6853 33.1636C22.6269 33.1636 20.5686 33.1612 18.5109 33.1612C15.2431 33.1612 11.9754 33.1612 8.70679 33.1636C8.47382 33.1636 8.23694 33.1447 8.01023 33.2145C7.44658 33.387 7.12214 33.8519 7.11745 34.5418C7.10729 35.9209 7.11198 37.3007 7.11354 38.6798C7.11354 38.7527 7.08306 38.8389 7.16592 38.8946C7.16201 39.6472 7.16123 40.3999 7.15185 41.1525C7.14951 41.3187 7.22612 41.3415 7.36684 41.3383C7.79603 41.3297 8.22522 41.3321 8.65441 41.3336C9.14223 41.3352 9.13832 41.3352 9.21572 40.8562C9.57611 38.6406 11.4422 36.8005 13.8938 36.7112C15.6192 36.6484 17.0123 37.3517 18.0575 38.7276C18.5829 39.4191 18.8776 40.2101 18.9315 41.0788C18.9456 41.3062 19.0207 41.3407 19.227 41.3407C21.8811 41.3313 24.5352 41.3321 27.1893 41.3305C27.6045 41.3305 27.606 41.3305 27.6076 40.9118C27.6107 40.1098 27.6029 39.307 27.6154 38.5049C27.6224 38.0314 27.8468 37.7672 28.2096 37.7562C28.6966 37.7405 28.9858 37.9546 28.996 38.4156C29.0171 39.3815 29.0023 40.3473 29.0023 41.3187C29.0249 41.325 29.0523 41.3399 29.0804 41.3399C29.9779 41.3383 30.8754 41.3281 31.7728 41.336C31.9933 41.3375 31.9706 41.1972 31.9816 41.0671C32.0809 39.8597 32.5796 38.853 33.4583 38.022C34.9656 36.5967 37.2179 36.3082 38.9424 37.1753C40.5365 37.9773 41.4629 39.2882 41.6489 41.0859C41.67 41.2913 41.7287 41.3493 41.928 41.3375C42.2102 41.3203 42.494 41.3226 42.7762 41.3375C42.9506 41.3462 43.0123 41.2999 43.0123 41.1149C43.0115 40.3521 43.0264 39.5892 43.035 38.8264C43.0366 38.1819 43.0412 37.5367 43.0373 36.8923C43.0326 36.0518 43.0655 35.2114 43.0076 34.3717C42.9623 33.7171 42.3072 33.1455 41.7506 33.1667C41.2346 33.1863 40.7178 33.1589 40.2019 33.1769C39.7938 33.191 39.5131 33.0279 39.3247 32.672C39.0151 32.0856 38.7024 31.5015 38.3858 30.919C37.8183 29.8739 37.2788 28.8131 36.6675 27.7924C36.612 27.6999 36.5799 27.5752 36.4228 27.5776C35.9186 27.5838 35.4151 27.5799 34.8827 27.5799C34.9453 27.7673 34.9961 27.91 35.1032 28.0276C35.1462 28.2283 35.2392 28.4086 35.3252 28.5921C35.8982 29.8151 36.4697 31.0381 37.0451 32.2596C37.1225 32.4235 37.171 32.5834 37.0889 32.7582C36.8887 33.0828 36.5862 33.169 36.2242 33.1683C33.9767 33.1636 31.7283 33.1683 29.4807 33.1698C29.155 33.1698 28.9981 33.335 29.0101 33.6653C29.007 34.5363 29.0023 35.4066 29.0023 36.2776C29.0023 36.4258 28.9921 36.57 28.9546 36.7127C28.8662 37.0436 28.5817 37.2537 28.2471 37.2372C27.9234 37.2215 27.6936 36.9942 27.6459 36.6375C27.6303 36.5214 27.6178 36.4038 27.6178 36.2878C27.6154 33.1275 27.6138 29.9672 27.6138 26.8069C27.6138 26.3443 27.6717 26.2926 28.1329 26.2926C30.7284 26.2926 33.3239 26.291 35.9193 26.2902L35.9209 26.2887ZM16.7074 45.6048H34.2034C33.1237 44.8985 32.4882 43.9506 32.116 42.813C32.0621 42.6492 31.948 42.6805 31.8354 42.6805C30.2164 42.6813 28.5973 42.6837 26.9775 42.6844C24.3531 42.6852 21.7295 42.6892 19.1051 42.6805C18.876 42.6805 18.7697 42.7519 18.7181 42.9659C18.6438 43.2717 18.5109 43.5555 18.3585 43.8283C17.9629 44.537 17.429 45.1219 16.7066 45.6048H16.7074ZM14.0924 44.9753C16.0046 44.9769 17.572 43.4771 17.5759 41.6417C17.5806 39.6159 16.0679 38.0832 14.0103 38.0926C12.1794 38.1012 10.5799 39.5563 10.5744 41.5916C10.5697 43.4355 12.1747 44.9737 14.0924 44.9753ZM36.802 44.9737C38.6876 44.9737 40.3051 43.4136 40.2879 41.5994C40.2683 39.4826 38.7017 38.0902 36.7871 38.0792C34.846 38.0683 33.352 39.5971 33.3489 41.5445C33.3458 43.4481 34.8585 44.9988 36.802 44.9737ZM15.7177 28.411C15.7177 28.4392 15.7106 28.469 15.7185 28.4948C16.0476 29.554 16.3822 30.6124 16.7043 31.674C16.7496 31.8245 16.8387 31.8112 16.9451 31.8112C17.7925 31.8112 18.6399 31.8088 19.4874 31.8174C19.6531 31.819 19.7274 31.7633 19.7766 31.6058C19.9533 31.0389 20.1464 30.4768 20.3285 29.9115C20.4849 29.427 20.6342 28.9409 20.796 28.4251C19.0754 28.9386 17.3954 28.9417 15.7169 28.4102L15.7177 28.411Z" fill="#14344C"/>
<path d="M44.02 13.0838C44.0153 15.1575 44.0028 17.2319 44.0091 19.3056C44.0114 19.9469 43.9309 20.549 43.5431 21.0845C43.0741 21.7337 42.4385 22.0731 41.6513 22.0802C39.5921 22.0967 37.5337 22.0912 35.4745 22.0927C34.4598 22.0935 33.4443 22.1061 32.4303 22.0865C30.8855 22.0559 29.8864 21.0759 29.8544 19.5291C29.8239 18.0426 29.8426 16.5546 29.8411 15.0673C29.8395 13.3551 29.8387 11.642 29.8403 9.92976C29.8411 9.10657 30.1014 8.39469 30.7511 7.85687C31.2412 7.45154 31.8002 7.22497 32.4397 7.2234C34.323 7.21948 36.2062 7.2187 38.0895 7.21713C38.2255 7.21713 38.3631 7.22575 38.4953 7.17871C38.6047 7.23751 38.7243 7.21634 38.8392 7.21634C39.7062 7.21791 40.5724 7.21399 41.4394 7.22026C42.7879 7.22967 43.97 8.38921 43.995 9.74552C44.0138 10.7412 44.0005 11.7377 44.0028 12.7333C44.0028 12.8502 44.0138 12.967 44.0192 13.083L44.02 13.0838ZM32.5171 20.7803C32.5366 20.7835 32.5554 20.7897 32.5749 20.7897C35.5488 20.7866 38.5234 20.7827 41.4972 20.7787C41.5754 20.7787 41.6544 20.7842 41.72 20.7301C42.1891 20.6776 42.4784 20.4071 42.6199 19.9689C42.6863 19.7627 42.6941 19.5463 42.6949 19.3307C42.6949 16.2292 42.698 13.1285 42.6957 10.027C42.6957 9.11362 42.1829 8.57031 41.2791 8.56796C38.3233 8.56012 35.3674 8.56404 32.4115 8.57266C31.7103 8.57501 31.1818 9.12225 31.181 9.8302C31.1763 13.0485 31.174 16.2676 31.1779 19.4859C31.1787 20.3209 31.6837 20.7976 32.5179 20.7803H32.5171Z" fill="#14344C"/>
<path d="M18.3437 46.9847C19.2005 46.9714 20.0573 46.9486 20.9141 46.9463C24.504 46.9392 28.0939 46.9376 31.6838 46.9361C31.8479 46.9361 32.0152 46.9228 32.1755 46.9753C31.6165 47.1148 31.0536 47.2411 30.4994 47.3979C29.3588 47.7209 28.1799 47.804 27.0135 47.9435C26.2927 48.0298 25.5531 47.9968 24.8237 47.9717C23.4314 47.9239 22.0446 47.8338 20.6718 47.55C19.9236 47.3955 19.1794 47.2332 18.4406 47.0404C18.4054 47.0309 18.3749 47.0035 18.3421 46.9839L18.3437 46.9847Z" fill="#8ED2EB"/>
<path d="M3.91063 42.7707C3.76444 42.7707 3.61747 42.7738 3.47128 42.7707C3.08509 42.7605 2.8529 42.5253 2.85212 42.1459C2.85056 41.7578 3.06789 41.521 3.45565 41.5077C3.75741 41.4975 4.06073 41.4951 4.3625 41.5069C4.72524 41.5202 5.0012 41.8048 4.97853 42.1474C4.95742 42.465 4.74713 42.7989 4.34999 42.7676C4.20458 42.7558 4.05761 42.766 3.91063 42.766V42.7723V42.7707Z" fill="#14344C"/>
<path d="M45.4733 46.2987C45.4757 46.6672 45.1567 46.98 44.783 46.9753C44.4203 46.9706 44.1709 46.6954 44.174 46.3026C44.1764 45.9365 44.4828 45.6276 44.837 45.6339C45.1857 45.6402 45.471 45.9389 45.4733 46.2987Z" fill="#14344C"/>
<path d="M8.85454 42.6986C8.93115 42.6877 9.00933 42.6837 9.0836 42.6649C9.2337 42.6281 9.30328 42.6688 9.3494 42.8319C9.47917 43.2906 9.72543 43.7006 9.93885 44.1239C9.71918 44.109 9.65273 43.9036 9.55344 43.7711C9.29859 43.4301 8.95304 43.1424 8.85376 42.6986H8.85454Z" fill="#688198"/>
<path d="M41.1298 43.6974C41.2479 43.394 41.3753 43.0945 41.4816 42.7864C41.5621 42.552 41.7216 42.7346 41.8381 42.6986C41.5801 43.0153 41.5363 43.4857 41.1298 43.6974Z" fill="#688198"/>
<path d="M9.95451 44.145C9.99438 44.1599 10.021 44.1842 10.0217 44.2305C9.97249 44.2234 9.93575 44.2062 9.95451 44.145Z" fill="#688198"/>
<path d="M10.0241 44.2354C10.0499 44.2691 10.0757 44.3036 10.1007 44.3373C10.0475 44.3239 10.0217 44.2902 10.0241 44.2354Z" fill="#688198"/>
<path d="M37.0904 32.7575C37.1717 32.5827 37.1241 32.4228 37.0467 32.2589C36.4713 31.0374 35.8998 29.8136 35.3268 28.5914C35.2408 28.4079 35.1477 28.2276 35.1047 28.0269C35.2408 27.896 35.4042 28.0026 35.5543 27.9783C36.0155 27.9022 36.164 27.9924 36.3696 28.386C36.8059 29.224 37.2476 30.059 37.6901 30.8932C38.0497 31.5706 38.4421 32.2323 38.7665 32.9261C39.037 33.5039 39.4193 33.7822 40.0674 33.7085C40.4919 33.6607 40.9227 33.6701 41.3511 33.6623C42.1453 33.6482 42.4839 34.2213 42.4768 34.821C42.462 36.0637 42.4815 37.3071 42.4706 38.5497C42.4682 38.8147 42.5612 38.9049 42.8114 38.8766C42.8896 38.868 42.967 38.8696 43.0358 38.8265C43.0264 39.5893 43.0115 40.3521 43.0131 41.115C43.0131 41.3008 42.9514 41.3462 42.777 41.3376C42.4948 41.3235 42.2102 41.3204 41.9288 41.3376C41.7302 41.3502 41.6708 41.2914 41.6497 41.086C41.4636 39.2882 40.5373 37.9774 38.9432 37.1754C37.2186 36.3075 34.9656 36.5968 33.4591 38.0221C32.5804 38.8531 32.0817 39.8606 31.9824 41.0671C31.9714 41.1973 31.9941 41.3376 31.7736 41.3361C30.8762 41.3282 29.9787 41.3376 29.0812 41.34C29.0539 41.34 29.0257 41.3251 29.0031 41.3188C29.0031 40.3474 29.0179 39.3815 28.9968 38.4157C28.9866 37.9547 28.6974 37.7406 28.2103 37.7563C27.8476 37.7681 27.6232 38.0323 27.6162 38.505C27.6037 39.3071 27.6115 40.1099 27.6084 40.9119C27.6068 41.3314 27.6052 41.3306 27.1901 41.3306C24.536 41.3321 21.8819 41.3314 19.2278 41.3408C19.0214 41.3408 18.9464 41.3063 18.9323 41.0789C18.8784 40.2102 18.5836 39.4192 18.0583 38.7277C17.0131 37.3518 15.6207 36.6493 13.8946 36.7112C11.443 36.7998 9.5769 38.6399 9.21651 40.8562C9.13833 41.3353 9.14302 41.3345 8.6552 41.3337C8.22601 41.3329 7.79682 41.3306 7.36763 41.3384C7.22691 41.3408 7.15029 41.3188 7.15264 41.1526C7.16202 40.4 7.1628 39.6473 7.16671 38.8947C7.20424 38.8868 7.24254 38.8743 7.28085 38.8727C7.6905 38.8531 7.68893 38.8539 7.68893 38.4353C7.68893 37.1338 7.68893 35.8324 7.69284 34.5309C7.6944 34.0997 8.00399 33.7422 8.40894 33.7077C8.70914 33.6819 9.0109 33.6638 9.31266 33.6638C14.7577 33.6599 20.2019 33.6591 25.6469 33.656C26.1074 33.656 26.1942 33.5619 26.1942 33.108C26.1926 30.8179 26.1965 28.5286 26.1863 26.2386C26.1848 25.896 26.3364 25.6843 26.6187 25.544C26.7953 25.4554 26.9908 25.4381 27.1878 25.4381C27.9688 25.4389 28.749 25.4381 29.53 25.4381C31.3351 25.4381 33.1402 25.4373 34.9453 25.4397C35.5246 25.4397 35.8943 25.7462 35.9233 26.2895C33.3278 26.2903 30.7323 26.2919 28.1369 26.2919C27.6756 26.2919 27.6178 26.3444 27.6178 26.8062C27.6178 29.9665 27.6193 33.1268 27.6217 36.2871C27.6217 36.4039 27.6342 36.5215 27.6498 36.6368C27.6975 36.9935 27.9266 37.2201 28.251 37.2365C28.5856 37.253 28.8701 37.0429 28.9585 36.712C28.9968 36.5693 29.0062 36.4251 29.0062 36.2769C29.0062 35.4059 29.0109 34.5356 29.014 33.6646C29.1985 33.6646 29.3822 33.6646 29.5667 33.6646C31.8409 33.6638 34.115 33.6536 36.3892 33.667C37.0686 33.6709 37.1725 33.3683 37.0936 32.7591L37.0904 32.7575ZM30.8246 35.4663C30.8246 35.4663 30.8246 35.4678 30.8246 35.4686C31.0583 35.4686 31.2913 35.4741 31.525 35.467C31.9269 35.4553 32.206 35.1824 32.2247 34.7951C32.2419 34.4369 31.9675 34.1429 31.5579 34.1295C31.063 34.1131 30.5666 34.0974 30.0733 34.1672C29.759 34.2119 29.5221 34.491 29.5315 34.8046C29.5425 35.166 29.8208 35.4631 30.1538 35.4655C30.3774 35.467 30.601 35.4655 30.8246 35.4655V35.4663Z" fill="#EB9016"/>
<path d="M22.9358 15.3487C22.8787 16.5694 22.8466 17.7925 22.6887 19.0053C22.2869 22.0966 19.1434 23.8112 16.3478 22.4714C16.3126 22.4549 16.2759 22.4424 16.2407 22.4275C16.2188 22.3851 16.2063 22.3318 16.1727 22.3012C15.38 21.5776 14.9578 20.6423 14.699 19.6309C14.3574 18.2966 14.4262 16.9199 14.3863 15.5604C14.3652 14.8431 14.8116 14.5028 15.5371 14.5028C16.1414 14.5028 16.7457 14.5059 17.35 14.502C18.0692 14.4965 18.79 14.5404 19.503 14.386C20.2473 14.2245 20.9446 13.965 21.4942 13.4154C21.6208 13.2884 21.6709 13.2868 21.7647 13.4256C21.9875 13.7557 22.186 14.1053 22.4761 14.3868C22.7473 14.6494 23.021 14.9144 22.9358 15.3495V15.3487Z" fill="#FBFAF9"/>
<path d="M16.7074 45.6048C17.4298 45.1219 17.9637 44.5378 18.3593 43.8283C18.5117 43.5547 18.6454 43.2709 18.7189 42.9659C18.7705 42.7526 18.8768 42.6797 19.1059 42.6805C21.7295 42.6891 24.3539 42.686 26.9783 42.6844C28.5973 42.6844 30.2163 42.6813 31.8362 42.6805C31.948 42.6805 32.0629 42.6484 32.1168 42.813C32.4889 43.9506 33.1245 44.8977 34.2041 45.6048H16.7082H16.7074Z" fill="#8ED2EB"/>
<path d="M14.0924 44.9753C12.1747 44.9737 10.5697 43.4355 10.5744 41.5916C10.5799 39.5563 12.1794 38.1004 14.0103 38.0926C16.0679 38.0832 17.5798 39.6159 17.5759 41.6417C17.572 43.4771 16.0046 44.9769 14.0924 44.9753ZM14.0666 43.4888C15.1665 43.4928 16.0304 42.6633 16.0351 41.5994C16.039 40.5873 15.147 39.6959 14.1299 39.6943C13.08 39.6935 12.1591 40.5802 12.145 41.6057C12.1317 42.61 13.0245 43.4849 14.0666 43.4888Z" fill="#688198"/>
<path d="M36.802 44.9737C34.8593 44.9987 33.3458 43.448 33.3489 41.5444C33.352 39.5962 34.846 38.0674 36.7871 38.0792C38.7016 38.0901 40.2683 39.4817 40.2879 41.5993C40.3051 43.4143 38.6876 44.9729 36.802 44.9737ZM36.8043 43.4864C37.905 43.4825 38.8205 42.6154 38.7869 41.5617C38.7587 40.6624 38.0614 39.6966 36.8371 39.6989C35.7505 39.7013 34.8639 40.606 34.896 41.6942C34.9249 42.6648 35.7778 43.4903 36.8035 43.4872L36.8043 43.4864Z" fill="#688198"/>
<path d="M35.9209 26.2887C35.8927 25.7446 35.5222 25.4396 34.9429 25.4388C33.1378 25.4365 31.3327 25.4373 29.5276 25.4373C28.7466 25.4373 27.9664 25.4388 27.1854 25.4373C26.9884 25.4373 26.793 25.4545 26.6163 25.5431C26.3341 25.6842 26.1824 25.8951 26.184 26.2377C26.1941 28.5278 26.1902 30.8171 26.1918 33.1071C26.1918 33.5611 26.1058 33.6544 25.6446 33.6552C20.1995 33.6583 14.7553 33.6591 9.31029 33.663C9.00931 33.663 8.70677 33.681 8.40657 33.7069C8.00161 33.7422 7.69203 34.0997 7.69047 34.5301C7.68656 35.8315 7.68656 37.133 7.68656 38.4344C7.68656 38.8531 7.68812 38.8523 7.27848 38.8719C7.24017 38.8734 7.20265 38.886 7.16434 38.8938C7.08147 38.839 7.11274 38.7519 7.11196 38.679C7.11118 37.3 7.10649 35.9201 7.11587 34.5411C7.12056 33.8519 7.44499 33.3862 8.00865 33.2138C8.23614 33.144 8.47224 33.1636 8.7052 33.1628C11.973 33.1604 15.2408 33.1604 18.5094 33.1604C20.5677 33.1604 22.6261 33.162 24.6838 33.1628C24.7909 33.1628 24.8987 33.1597 25.0051 33.1526C25.4608 33.1228 25.6156 32.9668 25.6156 32.5121C25.6187 30.5552 25.6172 28.5984 25.6172 26.6423C25.6172 26.4855 25.6258 26.3287 25.6164 26.1727C25.5742 25.4482 26.1386 24.999 26.7758 25.0029C28.7169 25.0139 30.658 25.0084 32.5999 25.0061C33.4192 25.0053 34.2385 25.0006 35.0578 24.9904C35.4995 24.9849 35.9162 25.0319 36.2219 25.4075C36.2969 25.4992 36.3618 25.5925 36.3915 25.7101C36.508 26.1711 36.3892 26.3169 35.9193 26.2879L35.9209 26.2887Z" fill="#FBFAF9"/>
<path d="M22.6215 10.5185C22.4956 10.5068 22.3698 10.4989 22.2447 10.4824C22.1071 10.4636 21.9984 10.4213 21.9281 10.27C21.81 10.0144 21.5982 9.85525 21.305 9.8623C21.0134 9.86936 20.8047 10.0316 20.696 10.2927C20.4224 10.9489 19.9666 11.4138 19.3099 11.6828C18.9355 11.8364 18.5446 11.9038 18.1427 11.9062C17.4892 11.9101 16.8364 11.9132 16.1828 11.9046C15.2682 11.8921 14.3551 11.8866 13.4756 12.1986C13.7727 10.927 14.4817 9.92424 15.5778 9.25314C17.3821 8.15005 19.2466 8.15946 21.1049 9.14965C21.7193 9.47736 22.2525 9.91013 22.6215 10.5193V10.5185Z" fill="#688198"/>
<path d="M22.9358 15.3488C23.0202 14.9137 22.7466 14.6487 22.4761 14.3861C22.186 14.1046 21.9883 13.7557 21.7647 13.4249C21.6709 13.2853 21.6208 13.2877 21.4942 13.4147C20.9446 13.9643 20.2473 14.2238 19.503 14.3853C18.7908 14.5397 18.0693 14.4958 17.35 14.5013C16.7457 14.506 16.1414 14.5021 15.5371 14.5021C14.8124 14.5021 14.366 14.8424 14.3863 15.5597C14.4262 16.9192 14.3574 18.2959 14.6991 19.6302C14.9578 20.6416 15.38 21.5777 16.1727 22.3005C16.2063 22.3311 16.218 22.3844 16.2407 22.4268C15.7208 22.1696 15.3073 21.7815 14.9305 21.3488C14.2261 20.5397 13.94 19.573 13.8321 18.5248C13.7633 17.8537 13.7007 17.1771 13.6851 16.5084C13.6695 15.8357 13.5272 15.1622 13.6656 14.4794C13.7828 13.8992 14.2362 13.4163 14.8843 13.3269C15.7099 13.214 16.5401 13.2947 17.3688 13.2885C18.1482 13.2822 18.9261 13.3018 19.6828 13.0447C20.4622 12.7797 21.1119 12.3453 21.6271 11.646C21.7944 12.0239 21.9015 12.3884 22.1016 12.7099C22.3049 13.0368 22.5433 13.33 22.8498 13.5637C22.9123 13.6115 22.9889 13.6475 22.9842 13.7408C22.9592 14.2763 23.0249 14.8141 22.9365 15.348L22.9358 15.3488Z" fill="#D3DFE9"/>
<path d="M13.5811 26.4682C13.8484 27.1063 14.0189 27.7774 14.2315 28.4344C14.5466 29.409 14.8452 30.389 15.1579 31.3642C15.3049 31.8229 15.3111 31.8166 14.8491 31.8158C13.9133 31.8135 12.9768 31.8119 12.041 31.8198C11.8854 31.8213 11.8221 31.8002 11.8229 31.6214C11.8354 30.0283 11.8377 28.4344 11.8432 26.8414C12.0801 26.7794 12.3146 26.7018 12.5546 26.6587C12.897 26.5975 13.2199 26.429 13.5811 26.469V26.4682Z" fill="#688198"/>
<path d="M15.7177 28.4109C17.3954 28.9424 19.0754 28.9393 20.7968 28.4258C20.635 28.9417 20.4857 29.4277 20.3294 29.9122C20.1472 30.4775 19.9541 31.0396 19.7774 31.6065C19.7282 31.7641 19.6539 31.8197 19.4882 31.8181C18.6407 31.8095 17.7933 31.8127 16.9459 31.8119C16.8395 31.8119 16.7504 31.8252 16.7051 31.6747C16.3838 30.6131 16.0484 29.5547 15.7193 28.4956C15.7114 28.4697 15.7185 28.4399 15.7185 28.4117L15.7177 28.4109Z" fill="#688198"/>
<path d="M24.2382 26.8846C24.2452 28.2041 24.253 29.5244 24.2601 30.8438C24.2616 31.0978 24.2546 31.3526 24.2601 31.6067C24.2632 31.7478 24.2288 31.8176 24.067 31.8168C23.1226 31.8105 22.179 31.8136 21.1995 31.8136C21.3644 31.2813 21.5223 30.7709 21.681 30.2597C22.0274 29.1418 22.3721 28.023 22.7223 26.9058C22.7739 26.7404 22.8076 26.5648 22.9194 26.4229C23.1617 26.4895 23.4173 26.5279 23.6433 26.6322C23.8395 26.7231 24.0983 26.6675 24.2382 26.8846Z" fill="#688198"/>
<path d="M21.1095 25.5446C21.699 25.7344 21.6779 25.7265 21.4777 26.2981C21.3526 26.6548 21.1322 26.832 20.789 26.9676C19.1692 27.6073 17.5548 27.5681 15.9069 27.0664C15.2595 26.8696 15.0367 26.411 14.8655 25.8535C14.8155 25.6912 14.9359 25.703 15.0195 25.6748C15.3541 25.5611 15.7364 25.5415 15.9522 25.1958C16.0171 25.0327 16.1062 25.0233 16.2563 25.1119C16.7183 25.3847 17.2202 25.4866 17.7596 25.4913C18.8768 25.5023 19.9955 25.4223 21.1103 25.5454L21.1095 25.5446Z" fill="#FBFAF9"/>
<path d="M43.0358 38.8256C42.967 38.8695 42.8896 38.8671 42.8114 38.8757C42.5612 38.9048 42.4682 38.8146 42.4706 38.5488C42.4815 37.3062 42.462 36.0628 42.4768 34.8201C42.4838 34.2196 42.1453 33.6473 41.3511 33.6614C40.9226 33.6692 40.4919 33.6598 40.0674 33.7076C39.4193 33.7805 39.037 33.503 38.7665 32.9252C38.4421 32.2313 38.0489 31.5697 37.69 30.8923C37.2476 30.0581 36.8059 29.2231 36.3696 28.385C36.1648 27.9907 36.0163 27.9013 35.5543 27.9774C35.4042 28.0025 35.2408 27.895 35.1047 28.026C34.9976 27.9092 34.9468 27.7657 34.8843 27.5783C35.4159 27.5783 35.9201 27.5822 36.4244 27.576C36.5815 27.5736 36.6135 27.6983 36.6691 27.7908C37.2804 28.8115 37.8198 29.8723 38.3874 30.9174C38.704 31.4999 39.0167 32.0847 39.3263 32.6704C39.5147 33.0263 39.7953 33.1894 40.2034 33.1753C40.7194 33.1573 41.2369 33.1847 41.7521 33.1651C42.3079 33.1439 42.9638 33.7155 43.0092 34.3701C43.067 35.2098 43.0342 36.0502 43.0389 36.8907C43.0428 37.5351 43.0373 38.1803 43.0365 38.8248L43.0358 38.8256Z" fill="#FBFAF9"/>
<path d="M34.2878 31.7759C33.8226 31.8809 33.3512 31.8072 32.8829 31.8292C32.7391 31.8362 32.5952 31.8237 32.4506 31.8206C32.0652 30.828 31.6774 29.8362 31.2959 28.8421C31.1411 28.4384 30.9152 28.0589 30.866 27.6183C31.4992 27.5768 32.1324 27.5877 32.7657 27.6089C32.7727 27.6763 32.7649 27.7492 32.7883 27.8096C33.1479 28.73 33.524 29.6442 33.8695 30.5693C34.0181 30.9668 34.2401 31.3415 34.287 31.7751L34.2878 31.7759Z" fill="#8ED2EB"/>
<path d="M22.6215 10.5184C22.2533 9.90928 21.7193 9.47651 21.1049 9.1488C19.2466 8.15861 17.3821 8.1492 15.5778 9.25229C14.4817 9.92261 13.7727 10.9261 13.4756 12.1978C13.3951 12.2966 13.3052 12.382 13.1457 12.4087C13.1989 11.5306 13.4529 10.7325 13.9619 10.0261C14.8859 8.74426 16.1633 8.08805 17.7143 7.92576C19.1098 7.77994 20.4021 8.04415 21.5606 8.87283C22.0328 9.21074 22.4292 9.61763 22.7059 10.128C22.806 10.313 22.8506 10.5286 22.9303 10.7576C22.7638 10.7192 22.6903 10.6212 22.6215 10.5184Z" fill="#FBFAF9"/>
<path d="M21.1095 25.5447C19.9947 25.4224 18.876 25.5015 17.7589 25.4906C17.2194 25.4851 16.7175 25.3839 16.2555 25.1111C16.1054 25.0225 16.0163 25.0319 15.9514 25.195V23.823C16.4048 23.9641 16.8333 24.1366 17.2937 24.2056C18.3311 24.3593 19.3513 24.3201 20.3418 23.9516C20.5748 23.8645 20.6584 23.903 20.6303 24.1585C20.6147 24.3036 20.642 24.4533 20.6209 24.5976C20.5568 25.0351 20.6975 25.3581 21.1087 25.5454L21.1095 25.5447Z" fill="#688198"/>
<path d="M31.1818 31.8166C30.5283 31.8228 29.8747 31.8213 29.2219 31.8385C29.0343 31.8432 28.9944 31.7774 28.9952 31.6041C28.9999 30.3419 28.9991 29.0796 28.9921 27.8174C28.9913 27.6543 29.0343 27.5806 29.2008 27.5932C29.3173 27.6018 29.4346 27.6018 29.551 27.6065C29.5675 27.6418 29.587 27.6763 29.6011 27.7123C30.1288 29.0804 30.6557 30.4485 31.1826 31.8166H31.1818Z" fill="#8ED2EB"/>
<path d="M31.1818 31.8168C30.6549 30.4487 30.128 29.0806 29.6003 27.7125C29.5863 27.6765 29.5675 27.642 29.5503 27.6067C29.9889 27.6106 30.4282 27.6145 30.8668 27.6185C30.916 28.0598 31.142 28.4385 31.2968 28.8423C31.6783 29.8364 32.066 30.8281 32.4514 31.8207C32.0285 31.8191 31.6048 31.8183 31.1818 31.8168Z" fill="#FBFAF9"/>
<path d="M37.0904 32.7574C37.1694 33.3674 37.0654 33.6692 36.386 33.6653C34.1119 33.652 31.8377 33.6622 29.5635 33.6629C29.379 33.6629 29.1953 33.6629 29.0108 33.6629C28.9988 33.3331 29.1557 33.168 29.4815 33.1675C31.729 33.1659 33.9774 33.1612 36.225 33.1659C36.5869 33.1659 36.8895 33.0804 37.0896 32.7559L37.0904 32.7574Z" fill="#FBFAF9"/>
<path d="M10.4189 27.8826C10.4251 29.1229 10.4282 30.3624 10.44 31.6026C10.4415 31.7689 10.3884 31.8261 10.2234 31.8214C9.86302 31.8112 9.50263 31.8159 9.14301 31.8143C9.14301 31.5995 9.13832 31.3855 9.14301 31.1714C9.15943 30.2612 9.34862 29.3949 9.81143 28.6031C9.97091 28.3302 10.1241 28.0449 10.4189 27.8834V27.8826Z" fill="#688198"/>
<path d="M34.2878 31.776C34.2409 31.3425 34.0189 30.9677 33.8703 30.5702C33.5248 29.6443 33.1488 28.7302 32.7892 27.8105C32.7657 27.7502 32.7727 27.6765 32.7665 27.6098C33.1957 27.5181 33.4153 27.7055 33.592 28.1053C34.1111 29.2821 34.6748 30.4401 35.2259 31.602C35.301 31.7603 35.3229 31.852 35.0961 31.8285C34.828 31.8011 34.552 31.8803 34.2878 31.7768V31.776Z" fill="#FBFAF9"/>
<path d="M10.4189 27.8826C10.1241 28.0441 9.97092 28.3287 9.81144 28.6023C9.34863 29.3941 9.15944 30.2605 9.14302 31.1707C9.13912 31.3847 9.14302 31.5995 9.14302 31.8136C8.88087 31.8345 8.74953 31.7158 8.74901 31.4576C8.7451 30.6195 8.724 29.7791 9.05156 28.9818C9.34863 28.2589 9.76297 27.6223 10.4267 27.1252C10.4478 27.3942 10.4681 27.6372 10.4189 27.8826Z" fill="#FBFAF9"/>
<path d="M13.5811 26.4682C13.2207 26.4282 12.8971 26.5967 12.5546 26.6579C12.3146 26.701 12.0801 26.7786 11.8432 26.8406C11.8409 26.8037 11.8378 26.7661 11.8354 26.7292C11.8604 26.6438 11.8761 26.5583 11.8143 26.4799C11.7846 26.3317 11.8917 26.3333 11.9894 26.3106C12.3764 26.2188 12.7704 26.1444 13.1464 26.0174C13.424 25.9233 13.51 26.0377 13.5663 26.2682C13.5827 26.3364 13.5983 26.3999 13.5811 26.4689V26.4682Z" fill="#FBFAF9"/>
<path d="M24.2382 26.8845C24.0982 26.6674 23.8395 26.7222 23.6432 26.6321C23.4181 26.5278 23.1624 26.4902 22.9193 26.4228C22.8974 26.3216 22.9522 26.237 22.974 26.1444C23.0123 25.9853 23.0835 25.9524 23.2391 26.0096C23.4728 26.0958 23.712 26.1766 23.9559 26.2205C24.2217 26.2675 24.3077 26.4047 24.2647 26.6556C24.2514 26.7317 24.2468 26.8085 24.2374 26.8853L24.2382 26.8845Z" fill="#FBFAF9"/>
<path d="M11.8151 26.48C11.8776 26.5584 11.8612 26.6438 11.8362 26.7293C11.7838 26.6501 11.7995 26.5647 11.8151 26.48Z" fill="#688198"/>
<path d="M32.5171 20.7803C31.6837 20.7976 31.1787 20.3209 31.1771 19.4859C31.1732 16.2676 31.1756 13.0485 31.1803 9.83019C31.1811 9.12146 31.7095 8.57422 32.4108 8.57266C35.3666 8.56403 38.3225 8.56011 41.2784 8.56795C42.1821 8.5703 42.6941 9.11362 42.6949 10.027C42.6973 13.1285 42.6949 16.2292 42.6941 19.3307C42.6941 19.5463 42.6855 19.7635 42.6191 19.9689C42.4776 20.4071 42.1883 20.6776 41.7193 20.7301C41.6732 20.6886 41.5363 20.7654 41.5723 20.6149C41.5942 20.5239 41.5528 20.4393 41.6825 20.3585C42.1938 20.0418 42.3142 19.3738 41.9452 18.9873C41.6739 18.7035 41.355 18.5334 40.9391 18.5404C39.9947 18.5577 39.0495 18.549 38.1044 18.5467C38.002 18.5467 37.8886 18.5875 37.7979 18.5004C38.4304 17.8913 39.0503 17.268 39.6992 16.6761C41.2072 15.2994 41.1118 13.435 40.5075 12.2324C39.528 10.2841 37.1162 9.5456 35.1118 10.5546C32.8134 11.7126 32.3068 14.8274 34.0681 16.4809C34.7725 17.1418 35.4511 17.8301 36.1422 18.5059C36.0562 18.5741 35.9545 18.5428 35.8607 18.5428C35.1212 18.5451 34.3824 18.5396 33.6428 18.5459C33.3043 18.549 32.965 18.52 32.6273 18.5977C32.1559 18.7058 31.8119 19.0155 31.758 19.4303C31.7072 19.8246 31.8104 20.1774 32.3717 20.3922C32.5491 20.4597 32.6437 20.5835 32.5163 20.7787L32.5171 20.7803Z" fill="#FBFAF9"/>
<path d="M32.5171 20.7803C32.6445 20.5859 32.5499 20.4612 32.3724 20.3938C31.8104 20.179 31.7079 19.8262 31.7588 19.4318C31.8119 19.0179 32.1567 18.7074 32.6281 18.5992C32.9666 18.5216 33.3051 18.5498 33.6436 18.5475C34.3832 18.5412 35.1219 18.5475 35.8615 18.5443C35.9553 18.5443 36.0569 18.5749 36.1429 18.5075C36.2539 18.6133 36.3642 18.72 36.4744 18.8258C36.8043 19.141 37.1709 19.1355 37.4962 18.8085C37.5978 18.7066 37.6979 18.6039 37.7987 18.5012C37.8902 18.5882 38.0027 18.5467 38.1051 18.5475C39.0503 18.5498 39.9947 18.5577 40.9398 18.5412C41.3557 18.5334 41.6747 18.7043 41.946 18.9881C42.315 19.3746 42.1946 20.0426 41.6833 20.3593C41.5535 20.4393 41.595 20.5239 41.5731 20.6157C41.5371 20.7662 41.6739 20.6894 41.72 20.7309C41.6544 20.7858 41.5754 20.7795 41.4972 20.7795C38.5234 20.7827 35.5488 20.7866 32.5749 20.7905C32.5554 20.7905 32.5366 20.7842 32.5171 20.7811V20.7803Z" fill="#B46B0F"/>
<path d="M30.8246 35.4662C30.601 35.4662 30.3774 35.4678 30.1538 35.4662C29.8208 35.4639 29.5425 35.1667 29.5315 34.8053C29.5221 34.4917 29.759 34.2126 30.0733 34.1679C30.5666 34.0981 31.0638 34.1138 31.5579 34.1303C31.9667 34.1436 32.2411 34.4376 32.2247 34.7959C32.2067 35.1832 31.9269 35.456 31.525 35.4678C31.2921 35.4748 31.0583 35.4694 30.8246 35.4694C30.8246 35.4686 30.8246 35.4678 30.8246 35.467V35.4662Z" fill="#14344C"/>
<path d="M14.0666 43.4889C13.0245 43.485 12.1317 42.6108 12.145 41.6057C12.1591 40.5803 13.08 39.6936 14.1299 39.6943C15.1478 39.6951 16.0398 40.5865 16.0351 41.5995C16.0304 42.6633 15.1665 43.4928 14.0666 43.4889ZM14.0885 41.006C13.7804 41.0083 13.499 41.2968 13.499 41.6089C13.499 41.9013 13.7828 42.2031 14.065 42.2094C14.4082 42.2172 14.7076 41.9256 14.7029 41.5885C14.699 41.289 14.3973 41.0036 14.0885 41.006Z" fill="#14344C"/>
<path d="M36.8043 43.4865C35.7786 43.4897 34.9257 42.6641 34.8968 41.6935C34.8647 40.6053 35.7513 39.7006 36.8379 39.6982C38.0622 39.6959 38.7587 40.6618 38.7876 41.561C38.8213 42.6147 37.9058 43.4826 36.8051 43.4858L36.8043 43.4865ZM37.4352 41.6073C37.4297 41.2623 37.1811 41.0044 36.8512 41.0036C36.4994 41.0028 36.2641 41.2561 36.2703 41.6308C36.2758 41.9515 36.515 42.1921 36.8254 42.189C37.1631 42.1851 37.4399 41.9217 37.4352 41.6081V41.6073Z" fill="#14344C"/>
<path d="M37.7995 18.5012C37.6986 18.6039 37.5986 18.7066 37.4969 18.8085C37.1717 19.1347 36.8051 19.141 36.4752 18.8258C36.3642 18.7199 36.2539 18.6133 36.1437 18.5075C35.4534 17.8317 34.7741 17.1433 34.0697 16.4824C32.3084 14.829 32.8142 11.7133 35.1133 10.5562C37.1178 9.54637 39.5295 10.2857 40.5091 12.2339C41.1134 13.4366 41.208 15.3009 39.7008 16.6776C39.0527 17.2695 38.4327 17.8928 37.7995 18.502V18.5012ZM34.6208 14.8964C34.6318 14.9332 34.6341 14.9763 34.6537 15.0069C34.9085 15.3997 35.1728 15.7721 35.5519 16.0739C35.9999 16.4307 36.3907 16.8595 36.7965 17.268C36.9372 17.4099 37.0271 17.4013 37.1647 17.2617C37.7338 16.687 38.3217 16.1312 38.8877 15.5542C39.2653 15.1692 39.5014 14.7051 39.5366 14.1539C39.6046 12.945 38.9205 11.9093 37.8011 11.573C36.6542 11.2288 35.4206 11.602 34.7819 12.6165C34.3284 13.337 34.2432 14.1053 34.62 14.8964H34.6208Z" fill="#14344C"/>
<path d="M14.0885 41.0059C14.3973 41.0035 14.6983 41.2889 14.7029 41.5884C14.7076 41.9255 14.4082 42.2172 14.065 42.2093C13.7836 42.203 13.4998 41.902 13.499 41.6088C13.499 41.2967 13.7805 41.0082 14.0885 41.0059Z" fill="#688198"/>
<path d="M37.4352 41.6074C37.4399 41.921 37.1632 42.1852 36.8254 42.1883C36.5151 42.1915 36.2759 41.9508 36.2704 41.6301C36.2641 41.2554 36.4987 41.0021 36.8512 41.0029C37.1811 41.0037 37.4297 41.2616 37.4352 41.6066V41.6074Z" fill="#688198"/>
<path d="M39.5374 14.1547C39.5022 14.7058 39.2661 15.1692 38.8885 15.5549C38.3225 16.1327 37.7346 16.6886 37.1655 17.2625C37.0271 17.402 36.938 17.4106 36.7973 17.2687C36.3923 16.8603 36.0007 16.4314 35.5527 16.0747C35.1735 15.7729 34.9093 15.4005 34.6544 15.0077C34.6341 14.9771 34.6318 14.934 34.6216 14.8971C34.6138 14.8109 34.6138 14.7231 34.5966 14.6384C34.484 14.081 34.6075 13.5651 34.932 13.1174C35.3635 12.5216 35.8982 12.0928 36.6847 12.005C37.7487 11.8866 38.4851 12.2895 39.0871 13.0971C39.3247 13.4154 39.4232 13.7862 39.5382 14.1539L39.5374 14.1547ZM36.9575 14.0739C36.7887 13.8897 36.6401 13.7102 36.4728 13.5502C36.2665 13.3519 36.0296 13.2868 35.7536 13.4216C35.2783 13.6529 35.1868 14.2174 35.5816 14.6502C35.9358 15.0382 36.3134 15.4044 36.6847 15.776C36.8457 15.9367 37.0185 15.9532 37.1928 15.7878C37.4602 15.5345 37.7377 15.2907 37.9949 15.0265C38.1771 14.8391 38.3936 14.6815 38.5258 14.4471C38.7282 14.0873 38.5226 13.4506 38.1755 13.4263C37.8003 13.3997 37.4133 13.4028 37.178 13.7956C37.1186 13.8944 37.0349 13.9775 36.9568 14.0747L36.9575 14.0739Z" fill="#D71919"/>
<path d="M39.5374 14.1548C39.4224 13.7871 39.3239 13.4162 39.0863 13.0979C38.4835 12.2904 37.7479 11.8874 36.6839 12.0058C35.8982 12.0936 35.3635 12.5225 34.9312 13.1183C34.6068 13.566 34.4832 14.0819 34.5958 14.6393C34.613 14.724 34.613 14.8118 34.6208 14.898C34.244 14.1077 34.3284 13.3386 34.7827 12.6181C35.4214 11.6036 36.655 11.2304 37.8018 11.5746C38.9213 11.9102 39.6054 12.9466 39.5374 14.1556V14.1548Z" fill="#FBFAF9"/>
<path d="M36.9575 14.0739C37.0349 13.9775 37.1194 13.8936 37.1788 13.7948C37.4141 13.402 37.8011 13.3981 38.1763 13.4255C38.5234 13.4506 38.729 14.0864 38.5265 14.4463C38.3944 14.6807 38.1779 14.8391 37.9957 15.0257C37.7385 15.2899 37.461 15.5329 37.1936 15.7869C37.0193 15.9524 36.8465 15.9359 36.6855 15.7752C36.3141 15.4036 35.9366 15.0374 35.5824 14.6493C35.1868 14.2158 35.2791 13.6521 35.7544 13.4208C36.0304 13.2868 36.268 13.3518 36.4736 13.5494C36.6409 13.7101 36.7895 13.8889 36.9583 14.0731L36.9575 14.0739Z" fill="#14344C"/>
</svg>
