<svg id="main" width="34" height="34" viewBox="0 0 34 34" fill="none" xmlns="http://www.w3.org/2000/svg">
  <circle cx="17" cy="17" r="17" fill="#F5BB2E"/>
  <path d="M25.5433 14.7542L23.8108 14.1767L24.6266 12.545C24.7093 12.3743 24.737 12.182 24.7058 11.9948C24.6746 11.8077 24.586 11.6348 24.4524 11.5L22.4999 9.54754C22.3645 9.41196 22.1899 9.32223 22.0008 9.29099C21.8117 9.25975 21.6176 9.28856 21.4458 9.37338L19.8141 10.1892L19.2366 8.45671C19.1756 8.27612 19.0598 8.11903 18.9054 8.00731C18.751 7.89559 18.5655 7.83479 18.3749 7.83338H15.6249C15.4327 7.83288 15.2453 7.89279 15.089 8.00465C14.9327 8.1165 14.8156 8.27464 14.7541 8.45671L14.1766 10.1892L12.5449 9.37338C12.3741 9.29068 12.1819 9.26301 11.9947 9.29421C11.8075 9.32541 11.6347 9.41392 11.4999 9.54754L9.54742 11.5C9.41183 11.6355 9.32211 11.81 9.29087 11.9991C9.25963 12.1882 9.28844 12.3823 9.37326 12.5542L10.1891 14.1859L8.45659 14.7634C8.276 14.8244 8.11891 14.9401 8.00719 15.0946C7.89547 15.249 7.83467 15.4344 7.83326 15.625V18.375C7.83276 18.5672 7.89267 18.7547 8.00453 18.911C8.11638 19.0672 8.27452 19.1844 8.45659 19.2459L10.1891 19.8234L9.37326 21.455C9.29055 21.6258 9.26289 21.8181 9.29409 22.0053C9.32528 22.1924 9.4138 22.3653 9.54742 22.5L11.4999 24.4525C11.6354 24.5881 11.8099 24.6779 11.999 24.7091C12.1881 24.7403 12.3822 24.7115 12.5541 24.6267L14.1858 23.8109L14.7633 25.5434C14.8247 25.7254 14.9419 25.8836 15.0982 25.9954C15.2544 26.1073 15.4419 26.1672 15.6341 26.1667H18.3841C18.5763 26.1672 18.7637 26.1073 18.92 25.9954C19.0763 25.8836 19.1934 25.7254 19.2549 25.5434L19.8324 23.8109L21.4641 24.6267C21.6338 24.7073 21.8242 24.7339 22.0094 24.7027C22.1947 24.6715 22.3659 24.5842 22.4999 24.4525L24.4524 22.5C24.588 22.3646 24.6777 22.19 24.709 22.001C24.7402 21.8119 24.7114 21.6177 24.6266 21.4459L23.8108 19.8142L25.5433 19.2367C25.7238 19.1757 25.8809 19.0599 25.9927 18.9055C26.1044 18.7511 26.1652 18.5656 26.1666 18.375V15.625C26.1671 15.4329 26.1072 15.2454 25.9953 15.0891C25.8835 14.9329 25.7253 14.8157 25.5433 14.7542ZM24.3333 17.715L23.2333 18.0817C22.9803 18.1638 22.7482 18.2999 22.5531 18.4806C22.358 18.6613 22.2046 18.8822 22.1034 19.1282C22.0023 19.3741 21.9558 19.6391 21.9673 19.9048C21.9788 20.1704 22.0479 20.4304 22.1699 20.6667L22.6924 21.7117L21.6841 22.72L20.6666 22.17C20.4315 22.0529 20.174 21.9877 19.9115 21.9787C19.6491 21.9698 19.3877 22.0173 19.1452 22.1182C18.9027 22.219 18.6847 22.3707 18.5059 22.5631C18.3272 22.7556 18.1918 22.9841 18.1091 23.2334L17.7424 24.3334H16.2849L15.9183 23.2334C15.8362 22.9804 15.7001 22.7484 15.5194 22.5533C15.3387 22.3582 15.1177 22.2047 14.8718 22.1035C14.6259 22.0024 14.3609 21.9559 14.0952 21.9674C13.8295 21.9789 13.5695 22.048 13.3333 22.17L12.2883 22.6925L11.2799 21.6842L11.8299 20.6667C11.9519 20.4304 12.0211 20.1704 12.0325 19.9048C12.044 19.6391 11.9976 19.3741 11.8964 19.1282C11.7953 18.8822 11.6418 18.6613 11.4467 18.4806C11.2516 18.2999 11.0195 18.1638 10.7666 18.0817L9.66659 17.715V16.285L10.7666 15.9184C11.0195 15.8363 11.2516 15.7002 11.4467 15.5195C11.6418 15.3388 11.7953 15.1179 11.8964 14.8719C11.9976 14.626 12.044 14.361 12.0325 14.0953C12.0211 13.8297 11.9519 13.5697 11.8299 13.3334L11.3074 12.3159L12.3158 11.3075L13.3333 11.83C13.5695 11.952 13.8295 12.0212 14.0952 12.0327C14.3609 12.0442 14.6259 11.9977 14.8718 11.8965C15.1177 11.7954 15.3387 11.6419 15.5194 11.4468C15.7001 11.2517 15.8362 11.0197 15.9183 10.7667L16.2849 9.66671H17.7149L18.0816 10.7667C18.1636 11.0197 18.2997 11.2517 18.4804 11.4468C18.6611 11.6419 18.8821 11.7954 19.128 11.8965C19.374 11.9977 19.639 12.0442 19.9046 12.0327C20.1703 12.0212 20.4303 11.952 20.6666 11.83L21.7116 11.3075L22.7199 12.3159L22.1699 13.3334C22.0528 13.5685 21.9876 13.8259 21.9786 14.0884C21.9697 14.3509 22.0172 14.6122 22.118 14.8548C22.2189 15.0973 22.3706 15.3153 22.563 15.494C22.7554 15.6728 22.984 15.8081 23.2333 15.8909L24.3333 16.2575V17.715ZM16.9999 13.3334C16.2747 13.3334 15.5658 13.5484 14.9628 13.9513C14.3599 14.3542 13.8899 14.9269 13.6124 15.5969C13.3348 16.2669 13.2622 17.0041 13.4037 17.7154C13.5452 18.4266 13.8944 19.08 14.4072 19.5928C14.92 20.1056 15.5733 20.4548 16.2846 20.5963C16.9959 20.7377 17.7331 20.6651 18.4031 20.3876C19.0731 20.1101 19.6457 19.6401 20.0486 19.0371C20.4515 18.4342 20.6666 17.7252 20.6666 17C20.6666 16.0276 20.2803 15.095 19.5926 14.4073C18.905 13.7197 17.9724 13.3334 16.9999 13.3334ZM16.9999 18.8334C16.6373 18.8334 16.2829 18.7259 15.9814 18.5244C15.6799 18.323 15.4449 18.0366 15.3061 17.7016C15.1674 17.3666 15.1311 16.998 15.2018 16.6424C15.2726 16.2867 15.4472 15.9601 15.7036 15.7037C15.96 15.4473 16.2866 15.2727 16.6423 15.2019C16.9979 15.1312 17.3665 15.1675 17.7015 15.3063C18.0365 15.445 18.3228 15.68 18.5243 15.9815C18.7257 16.283 18.8333 16.6374 18.8333 17C18.8333 17.4863 18.6401 17.9526 18.2963 18.2964C17.9525 18.6402 17.4862 18.8334 16.9999 18.8334Z" fill="white"/>
</svg>
