<svg id="main" width="34" height="34" viewBox="0 0 34 34" fill="none" xmlns="http://www.w3.org/2000/svg">
  <circle cx="17" cy="17" r="17" fill="#F89615"/>
  <path d="M25.2499 20.6667H12.4166C12.1735 20.6667 11.9403 20.5701 11.7684 20.3982C11.5965 20.2263 11.4999 19.9932 11.4999 19.75C11.4999 19.5069 11.5965 19.2738 11.7684 19.1019C11.9403 18.93 12.1735 18.8334 12.4166 18.8334H21.9866C22.5995 18.8334 23.1949 18.6287 23.6782 18.2517C24.1615 17.8747 24.5049 17.347 24.6541 16.7525L26.1666 10.8034C26.2009 10.6681 26.2039 10.5267 26.1753 10.3901C26.1467 10.2535 26.0873 10.1252 26.0016 10.015C25.9124 9.90205 25.7979 9.81163 25.6673 9.75111C25.5368 9.6906 25.3938 9.66168 25.2499 9.66671H12.1966C12.0075 9.13179 11.6575 8.66846 11.1947 8.34023C10.7319 8.01201 10.179 7.83497 9.61159 7.83337H8.74992C8.5068 7.83337 8.27365 7.92995 8.10174 8.10186C7.92983 8.27377 7.83325 8.50693 7.83325 8.75004C7.83325 8.99316 7.92983 9.22631 8.10174 9.39822C8.27365 9.57013 8.5068 9.66671 8.74992 9.66671H9.61159C9.82098 9.66061 10.0262 9.72641 10.1929 9.85317C10.3597 9.97993 10.4781 10.16 10.5283 10.3634L10.5833 10.8034L12.1691 17C11.4397 17.0329 10.7533 17.3541 10.2608 17.893C9.76827 18.4319 9.51001 19.1444 9.54284 19.8738C9.57566 20.6031 9.89686 21.2896 10.4358 21.7821C10.9747 22.2746 11.6872 22.5329 12.4166 22.5H12.5816C12.4308 22.9154 12.3824 23.361 12.4404 23.7991C12.4983 24.2371 12.661 24.6548 12.9146 25.0166C13.1682 25.3785 13.5053 25.6739 13.8973 25.8778C14.2893 26.0818 14.7247 26.1883 15.1666 26.1883C15.6085 26.1883 16.0438 26.0818 16.4358 25.8778C16.8278 25.6739 17.1649 25.3785 17.4185 25.0166C17.6722 24.6548 17.8348 24.2371 17.8928 23.7991C17.9508 23.361 17.9023 22.9154 17.7516 22.5H19.9149C19.7642 22.9154 19.7157 23.361 19.7737 23.7991C19.8317 24.2371 19.9943 24.6548 20.248 25.0166C20.5016 25.3785 20.8387 25.6739 21.2307 25.8778C21.6227 26.0818 22.058 26.1883 22.4999 26.1883C22.9418 26.1883 23.3772 26.0818 23.7692 25.8778C24.1612 25.6739 24.4983 25.3785 24.7519 25.0166C25.0055 24.6548 25.1682 24.2371 25.2261 23.7991C25.2841 23.361 25.2357 22.9154 25.0849 22.5H25.2499C25.493 22.5 25.7262 22.4035 25.8981 22.2316C26.07 22.0596 26.1666 21.8265 26.1666 21.5834C26.1666 21.3403 26.07 21.1071 25.8981 20.9352C25.7262 20.7633 25.493 20.6667 25.2499 20.6667ZM24.0766 11.5L22.8758 16.3034C22.8256 16.5068 22.7072 16.6868 22.5404 16.8136C22.3737 16.9403 22.1685 17.0061 21.9591 17H14.0483L12.6733 11.5H24.0766ZM15.1666 24.3334C14.9853 24.3334 14.8081 24.2796 14.6573 24.1789C14.5066 24.0782 14.3891 23.935 14.3197 23.7675C14.2503 23.6 14.2322 23.4157 14.2675 23.2379C14.3029 23.0601 14.3902 22.8967 14.5184 22.7685C14.6466 22.6403 14.8099 22.553 14.9878 22.5177C15.1656 22.4823 15.3499 22.5004 15.5174 22.5698C15.6849 22.6392 15.828 22.7567 15.9288 22.9074C16.0295 23.0582 16.0833 23.2354 16.0833 23.4167C16.0833 23.6598 15.9867 23.893 15.8148 24.0649C15.6429 24.2368 15.4097 24.3334 15.1666 24.3334ZM22.4999 24.3334C22.3186 24.3334 22.1414 24.2796 21.9906 24.1789C21.8399 24.0782 21.7224 23.935 21.653 23.7675C21.5836 23.6 21.5655 23.4157 21.6009 23.2379C21.6362 23.0601 21.7235 22.8967 21.8517 22.7685C21.9799 22.6403 22.1433 22.553 22.3211 22.5177C22.4989 22.4823 22.6832 22.5004 22.8507 22.5698C23.0182 22.6392 23.1614 22.7567 23.2621 22.9074C23.3628 23.0582 23.4166 23.2354 23.4166 23.4167C23.4166 23.6598 23.32 23.893 23.1481 24.0649C22.9762 24.2368 22.743 24.3334 22.4999 24.3334Z" fill="white"/>
</svg>
