<svg width="50" height="50" viewBox="0 0 50 50" fill="none" xmlns="http://www.w3.org/2000/svg">
<path fill-rule="evenodd" clip-rule="evenodd" d="M40.5356 30.474C41.0248 31.234 41.2756 32.0973 41.2756 33.0556L41.2752 33.0556L41.2747 38.2439H37.4264C37.2204 39.5018 36.1288 40.4651 34.8133 40.4651C33.4985 40.4651 32.4067 39.5017 32.2002 38.2439H30.6244V38.2275H16.5519C16.287 39.4114 15.2288 40.2999 13.966 40.2999C12.7027 40.2999 11.6449 39.4116 11.3798 38.2275H9.09302V29.699H10.1184V33.4588L11.4882 33.4591V25.2565H16.3008V16.1782L18.578 14.7797C18.4898 14.4016 18.44 14.0636 18.44 13.7906C18.44 11.444 20.3491 9.53491 22.6957 9.53491C24.8699 9.53491 26.6656 11.1746 26.9183 13.2814L32.8041 16.3919L39.5102 11.1503V11.1339H40.5356V30.474ZM38.7781 20.5829C39.0177 20.4263 39.2627 20.2589 39.5102 20.0866L39.51 12.5119L33.3685 17.2508L33.3682 26.6233H34.7114C36.1828 26.6233 37.2597 27.0183 38.1015 27.8656L39.51 29.2834V21.3256C39.4829 21.3434 39.4553 21.3624 39.4277 21.3814L39.4276 21.3815C39.3982 21.4018 39.3688 21.422 39.3402 21.4407L38.7781 20.5829ZM29.9381 33.459H30.6247L30.6245 26.6232H32.3434V24.3916C32.0687 24.428 31.7958 24.4566 31.5302 24.469L31.482 23.4451C31.7626 23.4323 32.0518 23.401 32.3433 23.3576V17.3082L26.8871 14.4242C26.5123 16.5496 24.561 20.4697 23.1058 21.1498V27.9908H24.1312V30.7245H29.9381V33.459ZM23.1057 30.7245V29.0159H18.3236V30.7245H23.1057ZM23.1057 31.7499H18.3236V33.459H23.1057V31.7499ZM28.9127 31.7499H24.1311V33.459H28.9127V31.7499ZM25.9265 13.7904C25.9265 12.009 24.4772 10.56 22.6957 10.56C20.9143 10.56 19.4651 12.0093 19.4653 13.7904C19.4653 15.6868 21.9035 19.9632 22.6957 20.2255C23.4884 19.9636 25.9265 15.6869 25.9265 13.7904ZM18.8753 15.8001L17.3259 16.7516V25.2571H18.3208V27.9913H22.0804V21.0369C20.938 20.2964 19.5626 17.8053 18.8753 15.8001ZM17.2956 26.2822H12.5135V27.991H17.2956V26.2822ZM17.2956 29.0164H12.5135V30.725H17.2956V29.0164ZM17.2956 31.7504H12.5135V33.4595H17.2956V31.7504ZM12.3398 37.6489C12.3398 38.5458 13.0695 39.2755 13.9663 39.2755L13.9664 39.2756C14.862 39.2756 15.5911 38.5473 15.5932 37.6516V37.6492C15.5932 36.7528 14.8635 36.0231 13.9666 36.0231C13.9622 36.0231 13.9579 36.0237 13.9537 36.0244L13.9536 36.0244L13.9536 36.0244C13.9498 36.025 13.9461 36.0256 13.9423 36.0257C13.8393 36.0271 13.7373 36.0362 13.6386 36.0564C13.5611 36.0724 13.4886 36.0989 13.4158 36.1255L13.409 36.128C13.3983 36.1317 13.3874 36.1348 13.3766 36.1378C13.3614 36.1421 13.3463 36.1464 13.332 36.1525C13.2807 36.1738 13.2338 36.2015 13.1866 36.2294L13.1548 36.2481C13.1416 36.2558 13.1281 36.263 13.1145 36.2701L13.1145 36.2702L13.1144 36.2702L13.1144 36.2702L13.1143 36.2702L13.1143 36.2703L13.1143 36.2703L13.1143 36.2703L13.1143 36.2703H13.1143C13.0919 36.2821 13.0696 36.294 13.0485 36.3082C13.0164 36.3302 12.9875 36.3557 12.9585 36.3812L12.9584 36.3813L12.9583 36.3814L12.9583 36.3814L12.9582 36.3814L12.9582 36.3814L12.9582 36.3814L12.9582 36.3814H12.9582C12.9465 36.3918 12.9347 36.4022 12.9226 36.4124L12.8933 36.4368C12.861 36.4636 12.8286 36.4904 12.7992 36.5211C12.5162 36.814 12.3398 37.2107 12.3398 37.6489ZM16.5748 37.1779C16.5768 37.186 16.5787 37.1942 16.5802 37.2026L16.5803 37.2021H30.6247V36.5351H16.9538V35.5097H30.6247V34.4843H10.1183V35.5097H11.1873V36.5351H10.1183V37.2021L11.2939 37.2019C11.3952 36.6841 11.6498 36.2087 12.0358 35.8294C12.0418 35.8229 12.0483 35.8168 12.0548 35.8107L12.0548 35.8107L12.0548 35.8107C12.0609 35.805 12.067 35.7993 12.0727 35.7932L12.1084 35.7589L12.1269 35.7412C12.1755 35.6945 12.2246 35.6487 12.2766 35.6056C12.2784 35.604 12.2804 35.6025 12.2825 35.6009L12.2875 35.597C12.35 35.5453 12.4146 35.4969 12.4816 35.4513C12.4827 35.4504 12.484 35.4497 12.4853 35.4489C12.4867 35.4481 12.4881 35.4472 12.4895 35.4461C12.5565 35.4013 12.6249 35.3593 12.6959 35.3209C12.7072 35.3148 12.7188 35.3092 12.7304 35.3036C12.7386 35.2997 12.7467 35.2957 12.7548 35.2916C12.8101 35.2632 12.8652 35.2353 12.9226 35.211C12.9689 35.191 13.0166 35.1743 13.0642 35.1576H13.0642H13.0642H13.0642H13.0642L13.0826 35.1512C13.0929 35.1475 13.1031 35.1435 13.1133 35.1395L13.1133 35.1395L13.1134 35.1395L13.1134 35.1395L13.1134 35.1395L13.1134 35.1395C13.1301 35.133 13.1468 35.1265 13.1639 35.1211C13.4152 35.0415 13.6817 34.9976 13.959 34.9974L13.9644 34.9972H13.9647H13.9661C14.0526 34.9972 14.1378 35.0019 14.2221 35.01C14.2405 35.012 14.2583 35.0147 14.2762 35.0173L14.307 35.0217C14.3626 35.0289 14.4181 35.0365 14.4727 35.047C14.4972 35.0516 14.521 35.0574 14.545 35.0634L14.5707 35.0696C14.6193 35.0808 14.6675 35.0925 14.7149 35.1066C14.7422 35.1148 14.7687 35.1238 14.7953 35.1327L14.8153 35.1395C14.8603 35.1548 14.9052 35.1707 14.9493 35.1886C14.9824 35.202 15.0146 35.216 15.047 35.2303C15.0899 35.2499 15.1316 35.2701 15.1729 35.2916C15.2044 35.3076 15.2354 35.324 15.2661 35.3414C15.3076 35.3648 15.3472 35.3893 15.3865 35.4146L15.4121 35.431C15.4327 35.4441 15.4532 35.4571 15.473 35.4711C15.5131 35.4988 15.5517 35.5286 15.5903 35.5586L15.6094 35.5731C15.6288 35.5878 15.6481 35.6024 15.6666 35.6184C15.7072 35.6519 15.7457 35.6884 15.784 35.7247L15.784 35.7247L15.7841 35.7247L15.7894 35.7298L15.8042 35.7431L15.8042 35.7431L15.8042 35.7431L15.8042 35.7431L15.8042 35.7432L15.8043 35.7432L15.8043 35.7432C15.818 35.7555 15.8319 35.768 15.8452 35.7813C15.9017 35.838 15.9556 35.8971 16.0066 35.9586C16.0147 35.9686 16.0223 35.9788 16.0299 35.9891L16.0299 35.9891L16.03 35.9892C16.0355 35.9966 16.041 36.004 16.0466 36.0113C16.0831 36.0576 16.1189 36.1036 16.1523 36.1522C16.1637 36.169 16.1744 36.1863 16.1851 36.2036C16.1911 36.2133 16.1971 36.2231 16.2033 36.2328C16.23 36.274 16.2562 36.3158 16.2805 36.3589C16.2934 36.3821 16.3053 36.4056 16.3172 36.429L16.3172 36.4292L16.3284 36.4512C16.3501 36.4931 16.3706 36.5353 16.3897 36.578C16.4042 36.6111 16.4176 36.6443 16.4309 36.6781C16.4481 36.721 16.4641 36.7647 16.4789 36.8088C16.4905 36.8433 16.5017 36.8781 16.5118 36.9134C16.5251 36.9582 16.5366 37.0035 16.547 37.0498C16.5551 37.0856 16.5633 37.1213 16.5702 37.1576C16.5715 37.1644 16.5731 37.1711 16.5748 37.1779ZM33.1882 37.8137C33.1882 38.7105 33.9179 39.4402 34.8144 39.4402L34.8143 39.4402C35.7112 39.4402 36.4409 38.7105 36.4409 37.8136C36.4409 36.9168 35.7112 36.187 34.8143 36.187C34.1561 36.187 33.5904 36.5825 33.3351 37.1464C33.3225 37.1738 33.312 37.2017 33.3014 37.2298L33.3014 37.2299L33.2995 37.2348C33.2743 37.3006 33.253 37.3678 33.2364 37.4372C33.234 37.4472 33.2314 37.4571 33.2287 37.467L33.2287 37.4671L33.2287 37.4671C33.2252 37.4803 33.2217 37.4933 33.219 37.5063C33.1999 37.6062 33.1882 37.708 33.1882 37.8137ZM34.8701 35.0656C36.1578 35.0656 37.2342 35.9934 37.4723 37.219L40.2506 37.2188V36.5353H38.1438V35.51H40.2506V33.0561C40.2506 32.8423 40.2311 32.6361 40.2001 32.4341H33.3591V28.3362H34.3845V31.4088L39.8833 31.409C39.7028 31.0347 39.4599 30.6874 39.1462 30.372L37.375 28.5889C36.7295 27.9393 35.9086 27.6494 34.7123 27.6494H31.6503V37.219H32.2303C32.237 37.1901 32.2453 37.1618 32.2537 37.1335L32.2632 37.1008C32.2661 37.0903 32.2689 37.0797 32.2716 37.0692C32.2768 37.0493 32.282 37.0294 32.2882 37.0099C32.3095 36.9432 32.334 36.8781 32.36 36.8137C32.3622 36.8085 32.364 36.8034 32.3658 36.7983L32.3658 36.7982C32.3679 36.7921 32.37 36.7861 32.3726 36.7804C32.4053 36.7024 32.4425 36.6266 32.4828 36.552L32.4842 36.5492L32.4868 36.5449C32.4879 36.5431 32.4889 36.5413 32.4899 36.5393C32.5236 36.4792 32.5584 36.4194 32.5963 36.3612C33.0566 35.5707 33.9337 35.0656 34.8701 35.0656ZM35.0674 33.1167H33.3909V34.1421H35.0674V33.1167ZM24.8126 13.7901C24.8126 12.6229 23.8631 11.6736 22.6961 11.6736C21.5289 11.6736 20.5791 12.6232 20.5791 13.7901C20.5791 14.9576 21.5288 15.9072 22.6961 15.9072C23.8634 15.9072 24.8126 14.9576 24.8126 13.7901ZM21.6043 13.7901C21.6043 13.1882 22.0939 12.699 22.6959 12.699C23.2979 12.699 23.7871 13.1886 23.7871 13.7901C23.7871 14.3923 23.2974 14.8818 22.6959 14.8818C22.0939 14.8818 21.6043 14.3924 21.6043 13.7901ZM30.4422 24.4509C30.0765 24.4211 29.7124 24.3665 29.3608 24.2885L29.583 23.2875C29.8888 23.3557 30.2057 23.4031 30.5249 23.4291L30.4422 24.4509ZM27.3177 23.5355C27.6455 23.7064 27.9797 23.8556 28.3111 23.9786L28.6682 23.0172C28.3764 22.9092 28.0815 22.7773 27.7916 22.6259L27.3177 23.5355ZM23.9351 21.04L24.5949 20.255L24.595 20.255C24.727 20.3663 24.8615 20.4805 24.9981 20.5973L25.3774 20.9199L24.7163 21.7035L24.3322 21.3771C24.1978 21.2622 24.0657 21.1495 23.9351 21.04ZM25.5271 22.3648C25.8296 22.5992 26.1119 22.8023 26.3901 22.9866L26.9554 22.1314C26.6984 21.9617 26.4366 21.7726 26.1553 21.5545L25.5271 22.3648ZM37.9261 21.1205L38.458 21.9969L38.458 21.9969C38.1497 22.1843 37.8479 22.3586 37.5525 22.5219L37.0574 21.624C37.3406 21.4679 37.6302 21.2996 37.9261 21.1205ZM33.6567 24.1359C33.9893 24.0494 34.3323 23.9452 34.6761 23.8262L34.3409 22.8576C34.0224 22.9678 33.7058 23.0641 33.3997 23.1432L33.6567 24.1359ZM36.1708 22.0864L36.6225 23.0069L36.6225 23.0069C36.3009 23.1645 35.9788 23.3121 35.6649 23.4454L35.2651 22.5013C35.5616 22.3756 35.8666 22.2362 36.1708 22.0864Z" fill="#BBBBBB"/>
</svg>