<svg width="50" height="50" viewBox="0 0 50 50" fill="none" xmlns="http://www.w3.org/2000/svg">
<path fill-rule="evenodd" clip-rule="evenodd" d="M10.8122 33.4385H40.6697V18.6103H42.5011V35.2457H10.8122V33.4385ZM9.31905 33.4385H5.99438V13.8545H40.6697V17.1344H43.9943V36.7217H9.31905V33.4385ZM11.7449 31.9626H7.48758V27.7544C8.55269 27.9126 9.5463 28.4037 10.3171 29.1656C11.0879 29.9275 11.5848 30.9097 11.7449 31.9626ZM13.2576 31.9626C13.0885 30.5157 12.4299 29.1591 11.3772 28.1197C10.3245 27.0802 8.95145 26.4307 7.48758 26.2649V21.0274C8.95136 20.8602 10.3238 20.2092 11.3753 19.1687C12.4253 18.1298 13.0822 16.775 13.251 15.3304H33.4129C33.582 16.7772 34.2406 18.1338 35.2933 19.1733C36.3444 20.2113 37.715 20.8604 39.1765 21.0274V26.2657C37.7144 26.4326 36.3434 27.0823 35.2921 28.1208C34.2401 29.1602 33.582 30.5163 33.4129 31.9626H13.2576ZM10.3195 18.1251C9.54845 18.8882 8.55389 19.3802 7.48758 19.5387V15.3304H11.7449C11.585 16.3822 11.089 17.3635 10.3195 18.1251ZM34.9223 31.9626H39.1765V27.7548C38.1125 27.9136 37.1201 28.4045 36.3501 29.1656C35.5793 29.9275 35.0824 30.9097 34.9223 31.9626ZM36.3479 18.1285C35.5764 17.3665 35.0792 16.3838 34.919 15.3304H39.1765V19.5387C38.1119 19.3805 37.1186 18.8898 36.3479 18.1285ZM19.6933 29.0364C20.7726 29.748 22.0412 30.1272 23.3386 30.1259C25.075 30.1233 26.7395 29.4403 27.9673 28.2267C29.1951 27.0131 29.8861 25.3678 29.8887 23.6515C29.89 22.3691 29.5065 21.1152 28.7865 20.0484C28.0665 18.9816 27.0425 18.1499 25.8442 17.6585C24.6458 17.1672 23.3269 17.0383 22.0544 17.2881C20.7819 17.538 19.613 18.1554 18.6956 19.0622C17.7782 19.9689 17.1536 21.1244 16.9009 22.3822C16.6481 23.64 16.7784 24.9436 17.2755 26.1281C17.7726 27.3126 18.6141 28.3247 19.6933 29.0364ZM20.5227 19.4851C21.3567 18.9364 22.3367 18.6445 23.3386 18.6464V18.6431C24.6801 18.6466 25.9655 19.1758 26.9128 20.1147C27.8602 21.0536 28.3922 22.3255 28.3922 23.6515C28.3922 24.6418 28.095 25.6099 27.5382 26.4332C26.9813 27.2564 26.1899 27.8979 25.2641 28.2765C24.3382 28.655 23.3196 28.7535 22.3371 28.5596C21.3546 28.3657 20.4524 27.888 19.7446 27.1871C19.0369 26.4861 18.5554 25.5934 18.3611 24.6219C18.1669 23.6503 18.2686 22.6437 18.6534 21.7293C19.0381 20.8149 19.6887 20.0339 20.5227 19.4851ZM22.1358 26.7312C22.2827 26.7909 22.4359 26.8328 22.5921 26.8563V27.42H24.0853V26.8504C24.492 26.7816 24.8705 26.5899 25.1662 26.2976C25.5427 25.9255 25.7542 25.4208 25.7542 24.8945C25.7542 24.3682 25.5427 23.8635 25.1662 23.4914C24.7897 23.1193 24.2791 22.9102 23.7467 22.9102H22.9005C22.8328 22.9102 22.7658 22.8969 22.7034 22.8711C22.641 22.8454 22.5843 22.8076 22.5368 22.76C22.4893 22.7124 22.4518 22.6559 22.4265 22.5938C22.4012 22.5318 22.3887 22.4654 22.3895 22.3985C22.3884 22.2666 22.4396 22.1394 22.5322 22.0443C22.6299 21.9477 22.7624 21.8935 22.9005 21.8935H23.7467C23.8817 21.8928 24.0116 21.9446 24.1083 22.0378C24.1563 22.085 24.1942 22.1413 24.2199 22.2032C24.2455 22.2652 24.2584 22.3316 24.2577 22.3985H25.7509C25.752 22.137 25.7003 21.8778 25.5989 21.6362C25.4974 21.3946 25.3483 21.1755 25.1602 20.9915C24.9745 20.8085 24.754 20.6636 24.5114 20.5651C24.374 20.5093 24.231 20.469 24.0853 20.4448V19.8763H22.5921V20.4414C22.1714 20.5061 21.7791 20.7008 21.4737 21.0013C21.1966 21.2806 21.0089 21.6344 20.934 22.0185C20.8591 22.4026 20.9003 22.7999 21.0525 23.161C21.2047 23.5221 21.4611 23.8308 21.7898 24.0487C22.1185 24.2666 22.5048 24.384 22.9005 24.3861H23.7467C23.8844 24.3882 24.0161 24.4422 24.115 24.537C24.2064 24.6341 24.2572 24.7618 24.2572 24.8945C24.2572 25.0272 24.2064 25.1549 24.115 25.252C24.0165 25.3474 23.8845 25.4015 23.7467 25.4029H22.9005C22.8329 25.4038 22.7657 25.3912 22.7031 25.3659C22.6405 25.3407 22.5837 25.3032 22.536 25.2558C22.4883 25.2084 22.4508 25.1519 22.4256 25.0898C22.4005 25.0278 22.3882 24.9614 22.3895 24.8945H20.8963C20.8973 25.4232 21.1096 25.9302 21.4869 26.3049C21.6727 26.4878 21.8932 26.6327 22.1358 26.7312ZM32.6428 22.9102H36.4289V24.3861H32.6428V22.9102ZM14.0309 22.9102H10.2482V24.3861H14.0309V22.9102Z" fill="#BBBBBB"/>
</svg>