<svg viewBox="0 0 50 50" fill="none" xmlns="http://www.w3.org/2000/svg">
<path d="M44.0201 13.0837C44.5243 13.6357 44.8722 14.2895 45.2201 14.9426C45.5406 15.5439 45.8361 16.157 46.1059 16.7834C46.521 17.747 46.8556 18.7395 47.1589 19.743C47.3262 20.2981 47.4755 20.861 47.5975 21.4231C47.7202 21.9884 47.7874 22.5748 47.8594 23.1542C48.0212 24.4674 48.0212 25.7877 47.9672 27.1048C47.9305 27.9978 47.8343 28.8892 47.6741 29.7743C47.5005 30.7323 47.2574 31.6724 47.0276 32.6155C46.8907 33.1769 46.6453 33.7115 46.4491 34.258C46.0668 35.3211 45.5852 36.3395 45.045 37.3305C44.934 37.5335 44.8089 37.7319 44.6823 37.9232C44.5431 38.1333 44.4696 38.3513 44.4219 38.5888C44.418 38.5112 44.4102 38.4336 44.4094 38.3552C44.4063 37.1219 44.4149 35.8887 44.3993 34.6563C44.3813 33.2803 43.4549 32.1239 42.1697 31.8692C41.728 31.7813 41.2737 31.819 40.8274 31.8409C40.5233 31.8558 40.3606 31.7586 40.2184 31.4842C39.5836 30.2635 38.941 29.0444 38.2624 27.848C37.9254 27.253 37.7456 26.6595 37.7769 25.9648C37.8082 25.2663 37.4876 24.6807 36.9412 24.2353C36.39 23.7861 35.738 23.6662 35.0517 23.6662C32.3483 23.6669 29.645 23.6693 26.9416 23.6701C25.973 23.6701 25.1717 24.0056 24.6127 24.8304C24.5556 24.9143 24.515 24.9668 24.3844 24.9292C23.6566 24.7167 22.9116 24.578 22.1666 24.4431C22.0157 24.4157 21.9735 24.3529 21.975 24.2142C21.9782 23.8622 21.9805 23.5094 21.9688 23.1573C21.9641 23.0194 22.0258 22.9394 22.1251 22.8665C22.5488 22.5529 22.8303 22.1084 23.1352 21.6952C23.4776 21.2311 23.7027 20.6948 23.8607 20.1358C24.1061 19.2632 24.1382 18.3632 24.2226 17.4679C24.4024 15.5478 24.4603 13.6216 24.4876 11.6953C24.504 10.5451 24.0921 9.53065 23.3322 8.67296C22.2862 7.49147 20.9603 6.83212 19.4038 6.6275C17.4775 6.37427 15.6967 6.73413 14.1292 7.9258C12.8893 8.86896 12.0833 10.0959 11.9027 11.6702C11.7714 12.8117 11.891 13.9579 11.9489 15.0994C12.0114 16.3303 12.285 17.5361 12.4515 18.7544C12.672 20.3702 13.2755 21.7814 14.5029 22.8877C14.5811 22.9582 14.6162 23.035 14.6131 23.1425C14.6053 23.4945 14.6006 23.8473 14.6069 24.1993C14.6092 24.3514 14.574 24.4164 14.406 24.4431C13.4155 24.5976 12.4281 24.7716 11.4689 25.0734C9.43782 25.7132 8.15337 27.0852 7.5819 29.1252C7.34502 29.9719 7.3974 30.8515 7.40678 31.7218C7.40835 31.877 7.38568 31.986 7.22698 32.0761C6.22788 32.6422 5.76038 33.5132 5.76664 34.661C5.77367 35.8934 5.76038 37.1267 5.75647 38.3591C5.45393 38.0894 5.27334 37.7327 5.07868 37.3877C4.53613 36.4305 4.04675 35.4418 3.63397 34.425C3.21885 33.4027 2.89364 32.3411 2.64895 31.2592C2.47852 30.5081 2.32607 29.7547 2.2221 28.9911C2.05324 27.7508 1.96568 26.5042 2.01571 25.2538C2.05089 24.378 2.06887 23.4976 2.19865 22.6297C2.29871 21.9563 2.43787 21.2891 2.57468 20.6211C2.7154 19.9335 2.921 19.2648 3.14224 18.6054C3.42759 17.7556 3.74967 16.9144 4.15072 16.1076C4.69483 15.0132 5.26239 13.9297 5.9613 12.9285C6.49915 12.1578 7.0675 11.4044 7.71871 10.7176C8.2464 10.161 8.76081 9.59259 9.32681 9.0728C10.8043 7.71491 12.4453 6.59693 14.2394 5.71101C15.2808 5.1967 16.3565 4.76315 17.458 4.3884C18.5352 4.02227 19.6344 3.73925 20.7406 3.49856C21.6764 3.29472 22.6356 3.17241 23.5964 3.10813C24.1687 3.06971 24.7394 2.97485 25.3147 3.00542C26.4499 3.06501 27.5826 3.14341 28.71 3.31745C29.8357 3.4915 30.9458 3.73376 32.0286 4.06696C33.7172 4.58675 35.3479 5.26021 36.8747 6.16729C37.4235 6.49344 37.9927 6.78273 38.4977 7.17865C38.3656 7.22569 38.228 7.21707 38.092 7.21707C36.2087 7.21942 34.3254 7.21942 32.4421 7.22334C31.8026 7.22491 31.2429 7.45148 30.7535 7.85681C30.1038 8.39464 29.8435 9.10651 29.8427 9.92971C29.8412 11.642 29.8427 13.355 29.8435 15.0673C29.8451 16.5545 29.8263 18.0425 29.8568 19.529C29.8881 21.075 30.888 22.0558 32.4327 22.0864C33.4475 22.1068 34.4622 22.0935 35.4769 22.0927C37.5361 22.0911 39.5953 22.0966 41.6537 22.0801C42.4409 22.0739 43.0765 21.7344 43.5456 21.0845C43.9325 20.5482 44.0131 19.9461 44.0115 19.3056C44.0052 17.2319 44.017 15.1574 44.0224 13.0837H44.0201Z" fill="#8ED2EB"/>
<path d="M5.75489 38.3584C5.7588 37.126 5.77209 35.8927 5.76506 34.6603C5.7588 33.5125 6.2263 32.6415 7.2254 32.0754C7.38488 31.9853 7.40677 31.8763 7.4052 31.7211C7.39582 30.8508 7.34266 29.9712 7.58032 29.1245C8.15179 27.0853 9.43702 25.7125 11.4673 25.0727C12.4265 24.7709 13.4139 24.5969 14.4044 24.4424C14.5725 24.4158 14.6084 24.3507 14.6053 24.1986C14.599 23.8466 14.6037 23.4938 14.6115 23.1418C14.6139 23.0343 14.5795 22.9575 14.5013 22.887C13.2739 21.7807 12.6712 20.3695 12.45 18.7537C12.2834 17.5354 12.0098 16.3296 11.9473 15.0987C11.8894 13.9572 11.7698 12.811 11.9012 11.6695C12.0817 10.096 12.8877 8.86904 14.1276 7.92511C15.6943 6.73264 17.4759 6.37357 19.4022 6.6268C20.9587 6.83143 22.2846 7.49077 23.3306 8.67226C24.0897 9.52995 24.5017 10.5445 24.4861 11.6946C24.4595 13.6209 24.4016 15.5464 24.221 17.4672C24.1374 18.3617 24.1045 19.2625 23.8591 20.1351C23.7019 20.6949 23.476 21.2311 23.1336 21.6945C22.8287 22.1077 22.5473 22.5522 22.1235 22.8658C22.0243 22.9387 21.9625 23.0187 21.9672 23.1567C21.9789 23.5087 21.9766 23.8615 21.9734 24.2135C21.9719 24.353 22.0141 24.415 22.165 24.4424C22.91 24.5773 23.655 24.7168 24.3829 24.9285C24.5134 24.9669 24.5548 24.9144 24.6111 24.8297C25.1701 24.0049 25.9714 23.6694 26.94 23.6694C29.6434 23.6694 32.3467 23.667 35.0501 23.6655C35.7365 23.6655 36.3885 23.7854 36.9396 24.2347C37.4861 24.68 37.8074 25.2664 37.7753 25.9642C37.7441 26.658 37.9239 27.2523 38.2608 27.8473C38.9394 29.0445 39.5812 30.2628 40.2168 31.4835C40.3598 31.7579 40.5225 31.8551 40.8258 31.8402C41.2722 31.8183 41.7272 31.7806 42.1681 31.8685C43.4533 32.1233 44.3797 33.2797 44.3977 34.6556C44.4141 35.8888 44.4047 37.122 44.4078 38.3545C44.4078 38.4321 44.4157 38.5097 44.4203 38.5881C44.4188 39.6504 44.418 40.712 44.4141 41.7743C44.4118 42.3772 44.0967 42.6916 43.4979 42.6947C42.9444 42.6978 42.3901 42.6978 41.8366 42.6986C41.7201 42.7347 41.5606 42.552 41.4801 42.7864C41.3746 43.0938 41.2472 43.394 41.1283 43.6974C40.6686 44.4454 40.1316 45.1212 39.3858 45.6316C40.5311 45.6316 41.6771 45.6308 42.8224 45.6316C43.2383 45.6316 43.5174 45.8926 43.5299 46.2839C43.5401 46.6108 43.3399 46.8828 43.0179 46.9314C42.7786 46.9675 42.5324 46.973 42.2892 46.973C39.034 46.973 35.7787 46.9683 32.5242 46.9659C32.4077 46.9659 32.2904 46.9722 32.174 46.9753C32.0129 46.9228 31.8464 46.9361 31.6822 46.9361C28.0923 46.9377 24.5025 46.9385 20.9126 46.9463C20.0558 46.9479 19.199 46.9714 18.3421 46.9848C16.3924 46.9832 14.4427 46.98 12.4922 46.9793C10.4932 46.9777 8.49421 46.9793 6.49601 46.9769C6.23099 46.9769 5.96206 46.9691 5.78069 46.7276C5.62043 46.5136 5.60245 46.2752 5.70017 46.033C5.79633 45.7946 5.98473 45.6606 6.23881 45.6457C6.49132 45.63 6.74539 45.6339 6.99869 45.6339C8.40274 45.6323 9.8068 45.6316 11.2109 45.6308C11.2859 45.6308 11.3609 45.6308 11.5259 45.6308C10.9083 45.2733 10.4885 44.8217 10.1 44.338C10.0742 44.3035 10.0484 44.2698 10.0233 44.236L10.0202 44.2313C10.0202 44.1859 9.99286 44.1608 9.95299 44.1459L9.93813 44.1247C9.72393 43.7021 9.47845 43.2921 9.34868 42.8327C9.30256 42.6696 9.23298 42.6281 9.08288 42.6657C9.00861 42.6837 8.93043 42.6884 8.85382 42.6994C8.15336 42.6971 7.45055 42.6673 6.75165 42.701C6.08402 42.7339 5.73066 42.2337 5.74551 41.6975C5.776 40.585 5.75411 39.4717 5.75411 38.3584H5.75489ZM11.8152 26.48C11.7995 26.5647 11.7847 26.6502 11.8363 26.7293C11.8386 26.7662 11.8417 26.8038 11.8441 26.8407C11.8386 28.4338 11.8363 30.0276 11.823 31.6207C11.8214 31.8002 11.8847 31.8206 12.0411 31.8191C12.9769 31.8112 13.9134 31.812 14.8492 31.8151C15.3112 31.8167 15.3042 31.823 15.158 31.3636C14.8461 30.3883 14.5474 29.4083 14.2316 28.4338C14.019 27.7768 13.8485 27.1064 13.5812 26.4675C13.5984 26.3985 13.5827 26.335 13.5663 26.2668C13.51 26.0363 13.424 25.9218 13.1465 26.0159C12.7713 26.1437 12.3772 26.2174 11.9895 26.3091C11.8918 26.3319 11.7855 26.3303 11.8144 26.4785L11.8152 26.48ZM9.14386 31.8136C9.50425 31.8151 9.86465 31.8104 10.2243 31.8206C10.3884 31.8253 10.4424 31.7681 10.4408 31.6019C10.4291 30.3624 10.4252 29.1221 10.4197 27.8818C10.469 27.6364 10.4494 27.3926 10.4275 27.1245C9.7638 27.6207 9.34946 28.2574 9.05239 28.981C8.72483 29.7783 8.74515 30.6188 8.74985 31.4569C8.75089 31.715 8.88222 31.8337 9.14386 31.8128V31.8136ZM29.5503 27.6066C29.4339 27.6027 29.3166 27.6027 29.2001 27.5933C29.0336 27.5808 28.9906 27.6545 28.9914 27.8175C28.9992 29.0798 29 30.342 28.9945 31.6042C28.9945 31.7775 29.0336 31.8434 29.2212 31.8387C29.874 31.8214 30.5276 31.8222 31.1811 31.8167C31.604 31.8183 32.027 31.8191 32.4507 31.8206C32.5945 31.8238 32.7392 31.8363 32.883 31.8293C33.3513 31.8073 33.8235 31.881 34.2879 31.7759C34.5521 31.8786 34.8273 31.7995 35.0962 31.8277C35.3229 31.8512 35.301 31.7595 35.226 31.6011C34.6748 30.4384 34.1112 29.2813 33.5921 28.1045C33.4162 27.7046 33.1965 27.5173 32.7665 27.609C32.1333 27.5878 31.5001 27.5768 30.8668 27.6184C30.4283 27.6145 29.9889 27.6105 29.5503 27.6066ZM21.1096 25.5447C20.6984 25.3573 20.5577 25.0343 20.6218 24.5969C20.6429 24.4534 20.6147 24.3029 20.6312 24.1578C20.6593 23.9022 20.5756 23.8638 20.3427 23.9508C19.3522 24.3201 18.332 24.3593 17.2946 24.2049C16.8349 24.1367 16.4057 23.9642 15.9523 23.8223V25.1943C15.7365 25.54 15.3542 25.5596 15.0196 25.6733C14.936 25.7015 14.8156 25.6898 14.8656 25.852C15.0368 26.4095 15.2596 26.8681 15.9069 27.0649C17.5549 27.5666 19.1685 27.6058 20.7891 26.9661C21.1323 26.8305 21.3527 26.6533 21.4778 26.2966C21.6787 25.725 21.6998 25.7329 21.1096 25.5431V25.5447ZM22.9194 26.4228C22.8076 26.5647 22.774 26.7403 22.7224 26.9057C22.3722 28.0229 22.0274 29.1417 21.6811 30.2597C21.5232 30.7701 21.3645 31.2805 21.1995 31.8136C22.1783 31.8136 23.1226 31.8104 24.067 31.8167C24.2288 31.8175 24.264 31.7485 24.2601 31.6066C24.2546 31.3526 24.2609 31.0978 24.2601 30.8438C24.2531 29.5243 24.246 28.204 24.2382 26.8846C24.2468 26.8077 24.2523 26.7309 24.2656 26.6549C24.3086 26.4048 24.2226 26.2676 23.9568 26.2197C23.7129 26.1766 23.4729 26.0951 23.2399 26.0088C23.0843 25.9516 23.0132 25.9845 22.9749 26.1437C22.953 26.2362 22.8975 26.3209 22.9202 26.422L22.9194 26.4228ZM22.6215 10.5186C22.6903 10.6221 22.7638 10.7193 22.9303 10.7577C22.8514 10.5296 22.8068 10.3132 22.706 10.1281C22.4292 9.61776 22.0329 9.21087 21.5607 8.87296C20.4029 8.04349 19.1098 7.78007 17.7144 7.92589C16.1633 8.08818 14.8859 8.74439 13.9619 10.0262C13.453 10.7326 13.1989 11.5307 13.1457 12.4088C13.306 12.3829 13.3951 12.2967 13.4756 12.1979C14.3551 11.8859 15.2682 11.8914 16.1829 11.9039C16.8357 11.9125 17.4892 11.9094 18.1428 11.9055C18.5446 11.9031 18.9355 11.8357 19.31 11.682C19.9667 11.4131 20.4224 10.949 20.696 10.292C20.8047 10.0317 21.0142 9.86864 21.305 9.86159C21.5982 9.85453 21.8101 10.0137 21.9281 10.2693C21.9977 10.4206 22.1063 10.4629 22.2447 10.4817C22.3698 10.4982 22.4957 10.506 22.6215 10.5178V10.5186ZM22.9358 15.3488C23.0241 14.8157 22.9585 14.2771 22.9835 13.7416C22.9882 13.6483 22.9116 13.6122 22.849 13.5644C22.5426 13.33 22.3041 13.0376 22.1009 12.7106C21.9007 12.3884 21.7936 12.0246 21.6263 11.6468C21.1112 12.3461 20.4615 12.7804 19.6821 13.0454C18.9253 13.3033 18.1483 13.2837 17.3681 13.2892C16.5402 13.2955 15.7091 13.2148 14.8836 13.3276C14.2363 13.4162 13.7821 13.9 13.6648 14.4801C13.5272 15.1622 13.6695 15.8364 13.6844 16.5091C13.6992 17.1779 13.7625 17.8545 13.8313 18.5256C13.9392 19.5738 14.2253 20.5412 14.9297 21.3495C15.3065 21.7823 15.7201 22.1696 16.24 22.4275C16.2759 22.4424 16.3127 22.455 16.3478 22.4714C19.1434 23.8113 22.2869 22.0967 22.6888 19.0054C22.8467 17.7925 22.8787 16.5695 22.9358 15.3488ZM35.921 26.2887C36.3908 26.3177 36.5096 26.1719 36.3932 25.7109C36.3635 25.5933 36.2986 25.5008 36.2235 25.4083C35.9178 25.0335 35.5012 24.9865 35.0595 24.9912C34.2402 25.0014 33.4209 25.0061 32.6016 25.0069C30.6605 25.0092 28.7185 25.0139 26.7774 25.0038C26.1403 24.9998 25.5758 25.4491 25.618 26.1735C25.6274 26.3295 25.6188 26.4863 25.6188 26.6431C25.6188 28.6 25.6204 30.5568 25.6173 32.5129C25.6173 32.9676 25.4625 33.1236 25.0067 33.1534C24.8996 33.1605 24.7925 33.1636 24.6854 33.1636C22.627 33.1636 20.5686 33.1613 18.511 33.1613C15.2432 33.1613 11.9754 33.1613 8.70685 33.1636C8.47388 33.1636 8.23701 33.1448 8.01029 33.2146C7.44664 33.3871 7.1222 33.852 7.11751 34.5419C7.10735 35.9209 7.11204 37.3008 7.11361 38.6798C7.11361 38.7528 7.08312 38.839 7.16598 38.8947C7.16207 39.6473 7.16129 40.3999 7.15191 41.1526C7.14957 41.3188 7.22618 41.3415 7.3669 41.3384C7.79609 41.3298 8.22528 41.3321 8.65447 41.3337C9.14229 41.3352 9.13838 41.3352 9.21578 40.8562C9.57617 38.6406 11.4423 36.8006 13.8939 36.7112C15.6192 36.6485 17.0123 37.3517 18.0576 38.7277C18.5829 39.4192 18.8776 40.2102 18.9316 41.0789C18.9457 41.3062 19.0207 41.3407 19.2271 41.3407C21.8812 41.3313 24.5353 41.3321 27.1894 41.3305C27.6045 41.3305 27.6061 41.3305 27.6077 40.9119C27.6108 40.1099 27.603 39.307 27.6155 38.505C27.6225 38.0315 27.8469 37.7673 28.2096 37.7563C28.6967 37.7406 28.9859 37.9546 28.9961 38.4156C29.0172 39.3815 29.0023 40.3474 29.0023 41.3188C29.025 41.3251 29.0524 41.34 29.0805 41.34C29.978 41.3384 30.8754 41.3282 31.7729 41.336C31.9934 41.3376 31.9707 41.1973 31.9816 41.0671C32.0809 39.8598 32.5797 38.8531 33.4584 38.0221C34.9656 36.5968 37.2179 36.3082 38.9425 37.1753C40.5365 37.9774 41.4629 39.2882 41.649 41.0859C41.6701 41.2913 41.7287 41.3494 41.9281 41.3376C42.2103 41.3204 42.4941 41.3227 42.7763 41.3376C42.9506 41.3462 43.0124 41.3 43.0124 41.1149C43.0116 40.3521 43.0265 39.5893 43.0351 38.8265C43.0366 38.182 43.0413 37.5368 43.0374 36.8923C43.0327 36.0519 43.0655 35.2114 43.0077 34.3718C42.9624 33.7171 42.3072 33.1456 41.7506 33.1668C41.2346 33.1864 40.7179 33.1589 40.2019 33.1769C39.7938 33.1911 39.5132 33.028 39.3248 32.6721C39.0152 32.0856 38.7025 31.5015 38.3859 30.919C37.8183 29.874 37.2789 28.8132 36.6676 27.7924C36.6121 27.6999 36.58 27.5753 36.4229 27.5776C35.9186 27.5839 35.4152 27.58 34.8828 27.58C34.9453 27.7674 34.9961 27.91 35.1032 28.0276C35.1462 28.2283 35.2393 28.4087 35.3253 28.5921C35.8983 29.8152 36.4698 31.0382 37.0452 32.2597C37.1225 32.4235 37.171 32.5835 37.0889 32.7583C36.8888 33.0829 36.5863 33.1691 36.2243 33.1683C33.9767 33.1636 31.7283 33.1683 29.4808 33.1699C29.155 33.1699 28.9982 33.3351 29.0101 33.6654C29.007 34.5364 29.0023 35.4066 29.0023 36.2777C29.0023 36.4258 28.9922 36.5701 28.9546 36.7128C28.8663 37.0436 28.5817 37.2537 28.2471 37.2373C27.9235 37.2216 27.6936 36.9942 27.646 36.6375C27.6303 36.5215 27.6178 36.4039 27.6178 36.2879C27.6155 33.1276 27.6139 29.9673 27.6139 26.807C27.6139 26.3444 27.6718 26.2927 28.133 26.2927C30.7285 26.2927 33.3239 26.2911 35.9194 26.2903L35.921 26.2887ZM16.7075 45.6049H34.2034C33.1238 44.8985 32.4882 43.9507 32.1161 42.8131C32.0622 42.6492 31.948 42.6806 31.8355 42.6806C30.2164 42.6814 28.5974 42.6837 26.9775 42.6845C24.3531 42.6853 21.7295 42.6892 19.1051 42.6806C18.8761 42.6806 18.7698 42.7519 18.7182 42.966C18.6439 43.2717 18.511 43.5555 18.3586 43.8284C17.963 44.5371 17.429 45.122 16.7067 45.6049H16.7075ZM14.0924 44.9754C16.0047 44.9769 17.5721 43.4771 17.576 41.6418C17.5807 39.6159 16.068 38.0832 14.0104 38.0926C12.1795 38.1012 10.58 39.5564 10.5745 41.5916C10.5698 43.4356 12.1748 44.9738 14.0924 44.9754ZM36.802 44.9738C38.6876 44.9738 40.3051 43.4136 40.2879 41.5995C40.2684 39.4827 38.7017 38.0903 36.7872 38.0793C34.846 38.0683 33.3521 39.5971 33.349 41.5446C33.3458 43.4481 34.8585 44.9989 36.802 44.9738ZM15.7177 28.411C15.7177 28.4392 15.7107 28.469 15.7185 28.4949C16.0476 29.5541 16.3822 30.6125 16.7043 31.674C16.7497 31.8245 16.8388 31.8112 16.9451 31.8112C17.7926 31.8112 18.64 31.8089 19.4874 31.8175C19.6532 31.8191 19.7274 31.7634 19.7767 31.6058C19.9534 31.039 20.1465 30.4769 20.3286 29.9116C20.485 29.4271 20.6343 28.941 20.7961 28.4251C19.0754 28.9386 17.3954 28.9418 15.717 28.4102L15.7177 28.411Z" fill="#14344C"/>
<path d="M44.0201 13.0838C44.0154 15.1575 44.0029 17.2319 44.0092 19.3056C44.0115 19.9469 43.931 20.549 43.5433 21.0845C43.0742 21.7337 42.4386 22.0731 41.6514 22.0802C39.5922 22.0967 37.5338 22.0912 35.4746 22.0927C34.4599 22.0935 33.4444 22.1061 32.4304 22.0865C30.8856 22.0559 29.8865 21.0759 29.8545 19.5291C29.824 18.0426 29.8428 16.5546 29.8412 15.0673C29.8396 13.3551 29.8389 11.642 29.8404 9.92976C29.8412 9.10657 30.1015 8.39469 30.7512 7.85687C31.2414 7.45154 31.8003 7.22497 32.4398 7.2234C34.3231 7.21948 36.2064 7.2187 38.0896 7.21713C38.2257 7.21713 38.3633 7.22575 38.4954 7.17871C38.6048 7.23751 38.7244 7.21634 38.8394 7.21634C39.7063 7.21791 40.5725 7.21399 41.4395 7.22026C42.7881 7.22967 43.9701 8.38921 43.9951 9.74552C44.0139 10.7412 44.0006 11.7377 44.0029 12.7333C44.0029 12.8502 44.0139 12.967 44.0193 13.083L44.0201 13.0838ZM32.5172 20.7803C32.5367 20.7835 32.5555 20.7897 32.575 20.7897C35.5489 20.7866 38.5235 20.7827 41.4974 20.7787C41.5755 20.7787 41.6545 20.7842 41.7202 20.7301C42.1892 20.6776 42.4785 20.4071 42.62 19.9689C42.6864 19.7627 42.6943 19.5463 42.695 19.3307C42.695 16.2292 42.6982 13.1285 42.6958 10.027C42.6958 9.11362 42.183 8.57031 41.2793 8.56796C38.3234 8.56012 35.3675 8.56404 32.4117 8.57266C31.7104 8.57501 31.1819 9.12225 31.1812 9.8302C31.1765 13.0485 31.1741 16.2676 31.178 19.4859C31.1788 20.3209 31.6838 20.7976 32.518 20.7803H32.5172Z" fill="#14344C"/>
<path d="M18.3436 46.9847C19.2004 46.9714 20.0572 46.9486 20.9141 46.9463C24.5039 46.9392 28.0938 46.9376 31.6837 46.9361C31.8479 46.9361 32.0152 46.9228 32.1754 46.9753C31.6165 47.1148 31.0536 47.2411 30.4993 47.3979C29.3587 47.7209 28.1798 47.804 27.0134 47.9435C26.2926 48.0298 25.5531 47.9968 24.8237 47.9717C23.4314 47.9239 22.0445 47.8338 20.6717 47.55C19.9236 47.3955 19.1793 47.2332 18.4405 47.0404C18.4054 47.0309 18.3749 47.0035 18.342 46.9839L18.3436 46.9847Z" fill="#8ED2EB"/>
<path d="M3.91057 42.7707C3.76438 42.7707 3.61741 42.7738 3.47122 42.7707C3.08503 42.7605 2.85284 42.5253 2.85206 42.1459C2.8505 41.7578 3.06783 41.521 3.45558 41.5077C3.75735 41.4975 4.06067 41.4951 4.36243 41.5069C4.72517 41.5202 5.00114 41.8048 4.97847 42.1474C4.95736 42.465 4.74706 42.7989 4.34993 42.7676C4.20452 42.7558 4.05755 42.766 3.91057 42.766V42.7723V42.7707Z" fill="#14344C"/>
<path d="M45.4734 46.2987C45.4757 46.6672 45.1568 46.98 44.7831 46.9753C44.4204 46.9706 44.171 46.6954 44.1741 46.3026C44.1764 45.9365 44.4829 45.6276 44.837 45.6339C45.1857 45.6402 45.4711 45.9389 45.4734 46.2987Z" fill="#14344C"/>
<path d="M8.85454 42.6986C8.93115 42.6877 9.00933 42.6837 9.0836 42.6649C9.2337 42.6281 9.30328 42.6688 9.3494 42.8319C9.47917 43.2906 9.72543 43.7006 9.93885 44.1239C9.71918 44.109 9.65273 43.9036 9.55344 43.7711C9.29859 43.4301 8.95304 43.1424 8.85376 42.6986H8.85454Z" fill="#688198"/>
<path d="M41.1299 43.6974C41.2479 43.394 41.3754 43.0945 41.4817 42.7864C41.5622 42.552 41.7217 42.7346 41.8382 42.6986C41.5802 43.0153 41.5364 43.4857 41.1299 43.6974Z" fill="#688198"/>
<path d="M9.95445 44.145C9.99432 44.1599 10.0209 44.1842 10.0217 44.2305C9.97243 44.2234 9.93569 44.2062 9.95445 44.145Z" fill="#688198"/>
<path d="M10.0241 44.2352C10.0499 44.2689 10.0757 44.3034 10.1007 44.3371C10.0475 44.3238 10.0217 44.2901 10.0241 44.2352Z" fill="#688198"/>
<path d="M37.0904 32.7575C37.1717 32.5826 37.1241 32.4227 37.0467 32.2588C36.4713 31.0374 35.8998 29.8136 35.3268 28.5913C35.2408 28.4078 35.1477 28.2275 35.1047 28.0268C35.2408 27.8959 35.4042 28.0025 35.5543 27.9782C36.0155 27.9022 36.164 27.9923 36.3696 28.3859C36.8059 29.224 37.2476 30.0589 37.6901 30.8931C38.0497 31.5705 38.4421 32.2322 38.7665 32.926C39.037 33.5038 39.4193 33.7822 40.0674 33.7085C40.4919 33.6606 40.9227 33.67 41.3511 33.6622C42.1453 33.6481 42.4839 34.2212 42.4768 34.821C42.462 36.0636 42.4815 37.307 42.4706 38.5497C42.4682 38.8147 42.5612 38.9048 42.8114 38.8766C42.8896 38.868 42.967 38.8695 43.0358 38.8264C43.0264 39.5892 43.0115 40.3521 43.0131 41.1149C43.0131 41.3007 42.9514 41.3462 42.777 41.3376C42.4948 41.3235 42.2102 41.3203 41.9288 41.3376C41.7302 41.3501 41.6708 41.2913 41.6497 41.0859C41.4636 39.2882 40.5373 37.9773 38.9432 37.1753C37.2186 36.3074 34.9656 36.5967 33.4591 38.022C32.5804 38.8531 32.0817 39.8605 31.9824 41.0671C31.9714 41.1972 31.9941 41.3376 31.7736 41.336C30.8762 41.3282 29.9787 41.3376 29.0812 41.3399C29.0539 41.3399 29.0257 41.325 29.0031 41.3187C29.0031 40.3474 29.0179 39.3815 28.9968 38.4156C28.9866 37.9546 28.6974 37.7406 28.2103 37.7563C27.8476 37.768 27.6232 38.0322 27.6162 38.505C27.6037 39.307 27.6115 40.1098 27.6084 40.9119C27.6068 41.3313 27.6052 41.3305 27.1901 41.3305C24.536 41.3321 21.8819 41.3313 19.2278 41.3407C19.0214 41.3407 18.9464 41.3062 18.9323 41.0788C18.8784 40.2102 18.5836 39.4191 18.0583 38.7276C17.0131 37.3517 15.6207 36.6492 13.8946 36.7112C11.443 36.7998 9.5769 38.6398 9.21651 40.8562C9.13833 41.3352 9.14302 41.3344 8.6552 41.3336C8.22601 41.3329 7.79682 41.3305 7.36763 41.3383C7.22691 41.3407 7.15029 41.3187 7.15264 41.1525C7.16202 40.3999 7.1628 39.6473 7.16671 38.8946C7.20424 38.8868 7.24254 38.8742 7.28085 38.8727C7.6905 38.8531 7.68893 38.8539 7.68893 38.4352C7.68893 37.1338 7.68893 35.8323 7.69284 34.5309C7.6944 34.0997 8.00399 33.7422 8.40894 33.7077C8.70914 33.6818 9.0109 33.6638 9.31266 33.6638C14.7577 33.6599 20.2019 33.6591 25.6469 33.6559C26.1074 33.6559 26.1942 33.5619 26.1942 33.1079C26.1926 30.8179 26.1965 28.5286 26.1863 26.2385C26.1848 25.8959 26.3364 25.6842 26.6187 25.5439C26.7953 25.4553 26.9908 25.4381 27.1878 25.4381C27.9688 25.4388 28.749 25.4381 29.53 25.4381C31.3351 25.4381 33.1402 25.4373 34.9453 25.4396C35.5246 25.4396 35.8943 25.7462 35.9233 26.2895C33.3278 26.2903 30.7323 26.2918 28.1369 26.2918C27.6756 26.2918 27.6178 26.3444 27.6178 26.8061C27.6178 29.9664 27.6193 33.1267 27.6217 36.287C27.6217 36.4039 27.6342 36.5215 27.6498 36.6367C27.6975 36.9934 27.9266 37.22 28.251 37.2365C28.5856 37.2529 28.8701 37.0428 28.9585 36.712C28.9968 36.5693 29.0062 36.425 29.0062 36.2768C29.0062 35.4058 29.0109 34.5356 29.014 33.6646C29.1985 33.6646 29.3822 33.6646 29.5667 33.6646C31.8409 33.6638 34.115 33.6536 36.3892 33.6669C37.0686 33.6708 37.1725 33.3682 37.0936 32.759L37.0904 32.7575ZM30.8246 35.4662C30.8246 35.4662 30.8246 35.4678 30.8246 35.4685C31.0583 35.4685 31.2913 35.474 31.525 35.467C31.9269 35.4552 32.206 35.1824 32.2247 34.7951C32.2419 34.4368 31.9675 34.1428 31.5579 34.1295C31.063 34.113 30.5666 34.0973 30.0733 34.1671C29.759 34.2118 29.5221 34.4909 29.5315 34.8045C29.5425 35.1659 29.8208 35.4631 30.1538 35.4654C30.3774 35.467 30.601 35.4654 30.8246 35.4654V35.4662Z" fill="#EB9016"/>
<path d="M22.9356 15.3488C22.8786 16.5695 22.8465 17.7925 22.6886 19.0054C22.2868 22.0967 19.1433 23.8113 16.3477 22.4714C16.3125 22.455 16.2757 22.4424 16.2406 22.4275C16.2187 22.3852 16.2062 22.3319 16.1726 22.3013C15.3798 21.5777 14.9577 20.6424 14.6989 19.631C14.3573 18.2966 14.4261 16.9199 14.3862 15.5605C14.3651 14.8431 14.8115 14.5029 15.537 14.5029C16.1413 14.5029 16.7456 14.506 17.3499 14.5021C18.0691 14.4966 18.7899 14.5405 19.5029 14.386C20.2471 14.2245 20.9445 13.965 21.494 13.4155C21.6207 13.2885 21.6707 13.2869 21.7645 13.4256C21.9873 13.7557 22.1859 14.1054 22.476 14.3868C22.7472 14.6495 23.0208 14.9145 22.9356 15.3496V15.3488Z" fill="#FBFAF9"/>
<path d="M16.7075 45.6048C17.4299 45.1219 17.9638 44.5378 18.3594 43.8283C18.5118 43.5547 18.6455 43.2709 18.719 42.9659C18.7706 42.7526 18.8769 42.6797 19.106 42.6805C21.7296 42.6891 24.354 42.686 26.9784 42.6844C28.5974 42.6844 30.2165 42.6813 31.8363 42.6805C31.9481 42.6805 32.063 42.6484 32.1169 42.813C32.4891 43.9506 33.1246 44.8977 34.2043 45.6048H16.7083H16.7075Z" fill="#8ED2EB"/>
<path d="M14.0924 44.9753C12.1748 44.9737 10.5698 43.4355 10.5745 41.5916C10.5799 39.5563 12.1794 38.1004 14.0103 38.0926C16.068 38.0832 17.5799 39.6159 17.576 41.6417C17.5721 43.4771 16.0046 44.9769 14.0924 44.9753ZM14.0666 43.4888C15.1666 43.4928 16.0304 42.6633 16.0351 41.5994C16.039 40.5873 15.147 39.6959 14.13 39.6943C13.08 39.6935 12.1591 40.5802 12.145 41.6057C12.1318 42.61 13.0245 43.4849 14.0666 43.4888Z" fill="#688198"/>
<path d="M36.802 44.9738C34.8593 44.9989 33.3458 43.4481 33.3489 41.5446C33.352 39.5963 34.846 38.0675 36.7871 38.0793C38.7016 38.0903 40.2683 39.4819 40.2879 41.5994C40.3051 43.4144 38.6876 44.973 36.802 44.9738ZM36.8043 43.4865C37.905 43.4826 38.8205 42.6155 38.7869 41.5618C38.7587 40.6626 38.0614 39.6967 36.8371 39.699C35.7505 39.7014 34.8639 40.6061 34.896 41.6943C34.9249 42.6649 35.7778 43.4905 36.8035 43.4873L36.8043 43.4865Z" fill="#688198"/>
<path d="M35.921 26.2887C35.8929 25.7446 35.5223 25.4396 34.943 25.4388C33.1379 25.4365 31.3328 25.4373 29.5277 25.4373C28.7467 25.4373 27.9665 25.4388 27.1855 25.4373C26.9885 25.4373 26.7931 25.4545 26.6164 25.5431C26.3342 25.6842 26.1825 25.8951 26.1841 26.2377C26.1943 28.5278 26.1903 30.8171 26.1919 33.1071C26.1919 33.5611 26.1059 33.6544 25.6447 33.6552C20.1997 33.6583 14.7554 33.6591 9.31041 33.663C9.00943 33.663 8.70689 33.681 8.40669 33.7069C8.00173 33.7422 7.69215 34.0997 7.69059 34.5301C7.68668 35.8315 7.68668 37.133 7.68668 38.4344C7.68668 38.8531 7.68825 38.8523 7.2786 38.8719C7.24029 38.8734 7.20277 38.886 7.16446 38.8938C7.08159 38.839 7.11286 38.7519 7.11208 38.679C7.1113 37.3 7.10661 35.9201 7.11599 34.5411C7.12068 33.8519 7.44512 33.3862 8.00877 33.2138C8.23627 33.144 8.47236 33.1636 8.70533 33.1628C11.9731 33.1604 15.2409 33.1604 18.5095 33.1604C20.5679 33.1604 22.6263 33.162 24.6839 33.1628C24.791 33.1628 24.8989 33.1597 25.0052 33.1526C25.461 33.1228 25.6157 32.9668 25.6157 32.5121C25.6189 30.5552 25.6173 28.5984 25.6173 26.6423C25.6173 26.4855 25.6259 26.3287 25.6165 26.1727C25.5743 25.4482 26.1388 24.999 26.7759 25.0029C28.717 25.0139 30.6581 25.0084 32.6001 25.0061C33.4194 25.0053 34.2386 25.0006 35.0579 24.9904C35.4996 24.9849 35.9163 25.0319 36.222 25.4075C36.297 25.4992 36.3619 25.5925 36.3916 25.7101C36.5081 26.1711 36.3893 26.3169 35.9194 26.2879L35.921 26.2887Z" fill="#FBFAF9"/>
<path d="M22.6215 10.5186C22.4956 10.5068 22.3698 10.499 22.2447 10.4825C22.1071 10.4637 21.9984 10.4214 21.9281 10.27C21.81 10.0145 21.5982 9.85531 21.305 9.86236C21.0134 9.86942 20.8047 10.0317 20.696 10.2928C20.4224 10.949 19.9666 11.4139 19.3099 11.6828C18.9355 11.8365 18.5446 11.9039 18.1427 11.9063C17.4892 11.9102 16.8364 11.9133 16.1828 11.9047C15.2682 11.8921 14.3551 11.8867 13.4756 12.1987C13.7727 10.927 14.4817 9.9243 15.5778 9.2532C17.3821 8.15011 19.2466 8.15952 21.1049 9.14971C21.7193 9.47742 22.2525 9.91019 22.6215 10.5194V10.5186Z" fill="#688198"/>
<path d="M22.9356 15.3488C23.0201 14.9136 22.7465 14.6487 22.476 14.386C22.1859 14.1046 21.9881 13.7557 21.7646 13.4248C21.6707 13.2853 21.6207 13.2876 21.4941 13.4146C20.9445 13.9642 20.2471 14.2237 19.5029 14.3852C18.7907 14.5397 18.0691 14.4958 17.3499 14.5013C16.7456 14.506 16.1413 14.502 15.537 14.502C14.8123 14.502 14.3659 14.8423 14.3862 15.5597C14.4261 16.9191 14.3573 18.2958 14.6989 19.6302C14.9577 20.6415 15.3799 21.5776 16.1726 22.3005C16.2062 22.3311 16.2179 22.3844 16.2406 22.4267C15.7207 22.1696 15.3071 21.7815 14.9303 21.3487C14.226 20.5396 13.9398 19.573 13.832 18.5247C13.7632 17.8536 13.7006 17.1771 13.685 16.5083C13.6693 15.8356 13.5271 15.1622 13.6654 14.4793C13.7827 13.8991 14.2361 13.4162 14.8842 13.3268C15.7098 13.2139 16.54 13.2947 17.3687 13.2884C18.1481 13.2821 18.926 13.3017 19.6827 13.0446C20.4621 12.7796 21.1118 12.3453 21.627 11.6459C21.7943 12.0238 21.9014 12.3884 22.1015 12.7098C22.3048 13.0368 22.5432 13.33 22.8496 13.5636C22.9122 13.6114 22.9888 13.6475 22.9841 13.7408C22.9591 14.2763 23.0248 14.8141 22.9364 15.348L22.9356 15.3488Z" fill="#D3DFE9"/>
<path d="M13.5812 26.4682C13.8486 27.1064 14.019 27.7775 14.2316 28.4345C14.5467 29.409 14.8453 30.389 15.158 31.3643C15.305 31.8229 15.3113 31.8167 14.8492 31.8159C13.9135 31.8135 12.9769 31.812 12.0411 31.8198C11.8855 31.8214 11.8222 31.8002 11.823 31.6215C11.8355 30.0284 11.8379 28.4345 11.8433 26.8414C12.0802 26.7795 12.3147 26.7019 12.5547 26.6587C12.8972 26.5976 13.22 26.429 13.5812 26.469V26.4682Z" fill="#688198"/>
<path d="M15.7177 28.411C17.3954 28.9426 19.0754 28.9394 20.7968 28.4259C20.635 28.9418 20.4857 29.4279 20.3294 29.9124C20.1472 30.4776 19.9541 31.0398 19.7774 31.6066C19.7282 31.7642 19.6539 31.8198 19.4882 31.8183C18.6407 31.8096 17.7933 31.8128 16.9459 31.812C16.8395 31.812 16.7504 31.8253 16.7051 31.6748C16.3838 30.6133 16.0484 29.5549 15.7193 28.4957C15.7114 28.4698 15.7185 28.44 15.7185 28.4118L15.7177 28.411Z" fill="#688198"/>
<path d="M24.2382 26.8846C24.2452 28.204 24.253 29.5243 24.2601 30.8438C24.2616 31.0978 24.2546 31.3526 24.2601 31.6066C24.2632 31.7477 24.2288 31.8175 24.067 31.8167C23.1226 31.8104 22.179 31.8136 21.1995 31.8136C21.3644 31.2812 21.5223 30.7709 21.681 30.2597C22.0274 29.1417 22.3721 28.0229 22.7223 26.9057C22.7739 26.7403 22.8076 26.5647 22.9194 26.4228C23.1617 26.4894 23.4173 26.5278 23.6433 26.6321C23.8395 26.7231 24.0983 26.6674 24.2382 26.8846Z" fill="#688198"/>
<path d="M21.1095 25.5447C21.699 25.7344 21.6779 25.7266 21.4777 26.2981C21.3526 26.6548 21.1322 26.832 20.789 26.9677C19.1692 27.6074 17.5548 27.5682 15.9069 27.0664C15.2595 26.8697 15.0367 26.411 14.8655 25.8536C14.8155 25.6913 14.9359 25.7031 15.0195 25.6748C15.3541 25.5612 15.7364 25.5416 15.9522 25.1958C16.0171 25.0327 16.1062 25.0233 16.2563 25.1119C16.7183 25.3848 17.2202 25.4867 17.7596 25.4914C18.8768 25.5024 19.9955 25.4224 21.1103 25.5455L21.1095 25.5447Z" fill="#FBFAF9"/>
<path d="M43.0358 38.8256C42.967 38.8695 42.8896 38.8672 42.8114 38.8758C42.5612 38.9048 42.4682 38.8147 42.4706 38.5489C42.4815 37.3062 42.462 36.0628 42.4768 34.8202C42.4838 34.2196 42.1453 33.6473 41.3511 33.6614C40.9226 33.6693 40.4919 33.6599 40.0674 33.7077C39.4193 33.7806 39.037 33.5031 38.7665 32.9253C38.4421 32.2314 38.0489 31.5697 37.69 30.8923C37.2476 30.0582 36.8059 29.2232 36.3696 28.3851C36.1648 27.9908 36.0163 27.9014 35.5543 27.9774C35.4042 28.0025 35.2408 27.8951 35.1047 28.026C34.9976 27.9092 34.9468 27.7657 34.8843 27.5784C35.4159 27.5784 35.9201 27.5823 36.4244 27.576C36.5815 27.5737 36.6135 27.6983 36.6691 27.7908C37.2804 28.8116 37.8198 29.8724 38.3874 30.9174C38.704 31.4999 39.0167 32.0848 39.3263 32.6705C39.5147 33.0264 39.7953 33.1895 40.2034 33.1753C40.7194 33.1573 41.2369 33.1848 41.7521 33.1652C42.3079 33.144 42.9638 33.7155 43.0092 34.3702C43.067 35.2098 43.0342 36.0503 43.0389 36.8907C43.0428 37.5352 43.0373 38.1804 43.0365 38.8248L43.0358 38.8256Z" fill="#FBFAF9"/>
<path d="M34.2878 31.7759C33.8226 31.881 33.3512 31.8073 32.8829 31.8292C32.7391 31.8363 32.5952 31.8237 32.4506 31.8206C32.0652 30.8281 31.6774 29.8363 31.2959 28.8422C31.1411 28.4384 30.9152 28.059 30.866 27.6184C31.4992 27.5768 32.1324 27.5878 32.7657 27.609C32.7727 27.6764 32.7649 27.7493 32.7883 27.8097C33.1479 28.7301 33.524 29.6442 33.8695 30.5693C34.0181 30.9668 34.2401 31.3416 34.287 31.7751L34.2878 31.7759Z" fill="#8ED2EB"/>
<path d="M22.6216 10.5186C22.2533 9.9094 21.7194 9.47664 21.1049 9.14892C19.2467 8.15873 17.3822 8.14933 15.5778 9.25241C14.4818 9.92273 13.7727 10.9263 13.4757 12.1979C13.3951 12.2967 13.3052 12.3821 13.1458 12.4088C13.1989 11.5307 13.453 10.7326 13.9619 10.0262C14.886 8.74438 16.1634 8.08817 17.7144 7.92589C19.1099 7.78006 20.4021 8.04427 21.5607 8.87296C22.0329 9.21086 22.4292 9.61776 22.706 10.1281C22.8061 10.3132 22.8506 10.5288 22.9304 10.7577C22.7638 10.7193 22.6904 10.6213 22.6216 10.5186Z" fill="#FBFAF9"/>
<path d="M21.1095 25.5447C19.9947 25.4224 18.876 25.5015 17.7589 25.4906C17.2194 25.4851 16.7175 25.3839 16.2555 25.1111C16.1054 25.0225 16.0163 25.0319 15.9514 25.195V23.823C16.4048 23.9641 16.8333 24.1366 17.2937 24.2056C18.3311 24.3593 19.3513 24.3201 20.3418 23.9516C20.5748 23.8645 20.6584 23.903 20.6303 24.1585C20.6147 24.3036 20.642 24.4533 20.6209 24.5976C20.5568 25.0351 20.6975 25.3581 21.1087 25.5454L21.1095 25.5447Z" fill="#688198"/>
<path d="M31.1819 31.8167C30.5284 31.823 29.8748 31.8214 29.222 31.8386C29.0344 31.8433 28.9945 31.7775 28.9953 31.6042C29 30.342 28.9992 29.0797 28.9922 27.8175C28.9914 27.6544 29.0344 27.5807 29.2009 27.5933C29.3174 27.6019 29.4347 27.6019 29.5512 27.6066C29.5676 27.6419 29.5871 27.6764 29.6012 27.7125C30.1289 29.0805 30.6558 30.4486 31.1827 31.8167H31.1819Z" fill="#8ED2EB"/>
<path d="M31.1818 31.8167C30.6549 30.4486 30.128 29.0805 29.6003 27.7125C29.5863 27.6764 29.5675 27.6419 29.5503 27.6066C29.9889 27.6105 30.4282 27.6145 30.8668 27.6184C30.916 28.0598 31.142 28.4385 31.2968 28.8422C31.6783 29.8363 32.066 30.8281 32.4514 31.8206C32.0285 31.8191 31.6048 31.8183 31.1818 31.8167Z" fill="#FBFAF9"/>
<path d="M37.0905 32.7575C37.1694 33.3674 37.0654 33.6693 36.3861 33.6654C34.1119 33.652 31.8378 33.6622 29.5636 33.663C29.3791 33.663 29.1954 33.663 29.0109 33.663C28.9989 33.3332 29.1558 33.168 29.4815 33.1675C31.7291 33.166 33.9775 33.1612 36.225 33.166C36.587 33.166 36.8895 33.0805 37.0897 32.7559L37.0905 32.7575Z" fill="#FBFAF9"/>
<path d="M10.4188 27.8826C10.4251 29.1229 10.4282 30.3624 10.4399 31.6026C10.4415 31.7689 10.3883 31.8261 10.2234 31.8214C9.86296 31.8112 9.50257 31.8159 9.14295 31.8143C9.14295 31.5995 9.13826 31.3855 9.14295 31.1714C9.15937 30.2612 9.34856 29.3949 9.81137 28.6031C9.97085 28.3302 10.1241 28.0449 10.4188 27.8834V27.8826Z" fill="#688198"/>
<path d="M34.2877 31.7759C34.2408 31.3424 34.0188 30.9676 33.8702 30.5702C33.5247 29.6442 33.1486 28.7301 32.789 27.8105C32.7656 27.7501 32.7726 27.6764 32.7664 27.6098C33.1955 27.518 33.4152 27.7054 33.5919 28.1053C34.111 29.282 34.6747 30.44 35.2258 31.6019C35.3009 31.7603 35.3227 31.852 35.096 31.8285C34.8279 31.801 34.5519 31.8802 34.2877 31.7767V31.7759Z" fill="#FBFAF9"/>
<path d="M10.4189 27.8826C10.1241 28.0441 9.97092 28.3287 9.81144 28.6023C9.34863 29.3941 9.15944 30.2605 9.14302 31.1707C9.13912 31.3847 9.14302 31.5995 9.14302 31.8136C8.88087 31.8345 8.74953 31.7158 8.74901 31.4576C8.7451 30.6195 8.724 29.7791 9.05156 28.9818C9.34863 28.2589 9.76297 27.6223 10.4267 27.1252C10.4478 27.3942 10.4681 27.6372 10.4189 27.8826Z" fill="#FBFAF9"/>
<path d="M13.5812 26.4682C13.2208 26.4282 12.8971 26.5968 12.5547 26.6579C12.3147 26.7011 12.0802 26.7787 11.8433 26.8406C11.841 26.8038 11.8378 26.7661 11.8355 26.7293C11.8605 26.6438 11.8761 26.5584 11.8144 26.48C11.7847 26.3318 11.8918 26.3334 11.9895 26.3106C12.3765 26.2189 12.7705 26.1444 13.1465 26.0174C13.424 25.9233 13.51 26.0378 13.5663 26.2683C13.5827 26.3365 13.5984 26.4 13.5812 26.469V26.4682Z" fill="#FBFAF9"/>
<path d="M24.2382 26.8845C24.0983 26.6674 23.8395 26.7222 23.6433 26.6321C23.4181 26.5278 23.1625 26.4902 22.9194 26.4228C22.8975 26.3216 22.9522 26.237 22.9741 26.1444C23.0124 25.9853 23.0835 25.9524 23.2391 26.0096C23.4729 26.0958 23.7121 26.1766 23.956 26.2205C24.2218 26.2675 24.3078 26.4047 24.2648 26.6556C24.2515 26.7317 24.2468 26.8085 24.2374 26.8853L24.2382 26.8845Z" fill="#FBFAF9"/>
<path d="M11.815 26.48C11.8776 26.5584 11.8612 26.6438 11.8361 26.7293C11.7838 26.6501 11.7994 26.5647 11.815 26.48Z" fill="#688198"/>
<path d="M32.5172 20.7803C31.6839 20.7976 31.1788 20.3209 31.1773 19.4859C31.1734 16.2676 31.1757 13.0485 31.1804 9.83019C31.1812 9.12146 31.7097 8.57422 32.4109 8.57266C35.3668 8.56403 38.3226 8.56011 41.2785 8.56795C42.1822 8.5703 42.6943 9.11362 42.6951 10.027C42.6974 13.1285 42.695 16.2292 42.6943 19.3307C42.6943 19.5463 42.6857 19.7635 42.6192 19.9689C42.4777 20.4071 42.1885 20.6776 41.7194 20.7301C41.6733 20.6886 41.5365 20.7654 41.5724 20.6149C41.5943 20.5239 41.5529 20.4393 41.6827 20.3585C42.1939 20.0418 42.3143 19.3738 41.9453 18.9873C41.6741 18.7035 41.3551 18.5334 40.9392 18.5404C39.9948 18.5577 39.0497 18.549 38.1045 18.5467C38.0021 18.5467 37.8887 18.5875 37.7981 18.5004C38.4305 17.8913 39.0505 17.268 39.6993 16.6761C41.2073 15.2994 41.112 13.435 40.5077 12.2324C39.5281 10.2841 37.1164 9.5456 35.1119 10.5546C32.8135 11.7126 32.3069 14.8274 34.0682 16.4809C34.7726 17.1418 35.4512 17.8301 36.1423 18.5059C36.0563 18.5741 35.9546 18.5428 35.8608 18.5428C35.1213 18.5451 34.3825 18.5396 33.643 18.5459C33.3045 18.549 32.9652 18.52 32.6274 18.5977C32.156 18.7058 31.8121 19.0155 31.7581 19.4303C31.7073 19.8246 31.8105 20.1774 32.3718 20.3922C32.5493 20.4597 32.6439 20.5835 32.5164 20.7787L32.5172 20.7803Z" fill="#FBFAF9"/>
<path d="M32.5171 20.7803C32.6446 20.5859 32.55 20.4612 32.3725 20.3938C31.8104 20.179 31.708 19.8262 31.7588 19.4318C31.812 19.0179 32.1567 18.7074 32.6281 18.5992C32.9667 18.5216 33.3052 18.5498 33.6437 18.5475C34.3832 18.5412 35.122 18.5475 35.8615 18.5443C35.9554 18.5443 36.057 18.5749 36.143 18.5075C36.254 18.6133 36.3642 18.72 36.4744 18.8258C36.8044 19.141 37.171 19.1355 37.4962 18.8085C37.5978 18.7066 37.6979 18.6039 37.7988 18.5012C37.8902 18.5882 38.0028 18.5467 38.1052 18.5475C39.0504 18.5498 39.9947 18.5577 40.9399 18.5412C41.3558 18.5334 41.6748 18.7043 41.946 18.9881C42.315 19.3746 42.1946 20.0426 41.6834 20.3593C41.5536 20.4393 41.595 20.5239 41.5731 20.6157C41.5372 20.7662 41.674 20.6894 41.7201 20.7309C41.6544 20.7858 41.5755 20.7795 41.4973 20.7795C38.5235 20.7827 35.5488 20.7866 32.575 20.7905C32.5554 20.7905 32.5367 20.7842 32.5171 20.7811V20.7803Z" fill="#B46B0F"/>
<path d="M30.8246 35.4662C30.601 35.4662 30.3774 35.4678 30.1538 35.4662C29.8208 35.4639 29.5425 35.1667 29.5315 34.8053C29.5221 34.4917 29.759 34.2126 30.0733 34.1679C30.5666 34.0981 31.0638 34.1138 31.5579 34.1303C31.9667 34.1436 32.2411 34.4376 32.2247 34.7959C32.2067 35.1832 31.9269 35.456 31.525 35.4678C31.2921 35.4748 31.0583 35.4694 30.8246 35.4694C30.8246 35.4686 30.8246 35.4678 30.8246 35.467V35.4662Z" fill="#14344C"/>
<path d="M14.0665 43.4889C13.0244 43.485 12.1316 42.6108 12.1449 41.6057C12.159 40.5803 13.0799 39.6936 14.1298 39.6943C15.1477 39.6951 16.0397 40.5865 16.035 41.5995C16.0303 42.6633 15.1665 43.4928 14.0665 43.4889ZM14.0884 41.006C13.7804 41.0083 13.4989 41.2968 13.4989 41.6089C13.4989 41.9013 13.7827 42.2031 14.0649 42.2094C14.4081 42.2172 14.7076 41.9256 14.7029 41.5885C14.699 41.289 14.3972 41.0036 14.0884 41.006Z" fill="#14344C"/>
<path d="M36.8044 43.4865C35.7787 43.4897 34.9258 42.6641 34.8968 41.6935C34.8648 40.6053 35.7513 39.7006 36.838 39.6982C38.0622 39.6959 38.7588 40.6618 38.7877 41.561C38.8213 42.6147 37.9059 43.4826 36.8051 43.4858L36.8044 43.4865ZM37.4352 41.6073C37.4298 41.2623 37.1812 41.0044 36.8513 41.0036C36.4995 41.0028 36.2642 41.2561 36.2704 41.6308C36.2759 41.9515 36.5151 42.1921 36.8255 42.189C37.1632 42.1851 37.4399 41.9217 37.4352 41.6081V41.6073Z" fill="#14344C"/>
<path d="M37.7996 18.5012C37.6988 18.6039 37.5987 18.7066 37.4971 18.8085C37.1719 19.1347 36.8052 19.141 36.4753 18.8258C36.3643 18.7199 36.2541 18.6133 36.1438 18.5075C35.4535 17.8317 34.7742 17.1433 34.0698 16.4824C32.3085 14.829 32.8143 11.7133 35.1135 10.5562C37.1179 9.54637 39.5297 10.2857 40.5092 12.2339C41.1135 13.4366 41.2081 15.3009 39.7009 16.6776C39.0528 17.2695 38.4328 17.8928 37.7996 18.502V18.5012ZM34.6209 14.8964C34.6319 14.9332 34.6342 14.9763 34.6538 15.0069C34.9086 15.3997 35.1729 15.7721 35.552 16.0739C36 16.4307 36.3909 16.8595 36.7966 17.268C36.9373 17.4099 37.0272 17.4013 37.1648 17.2617C37.7339 16.687 38.3218 16.1312 38.8878 15.5542C39.2654 15.1692 39.5015 14.7051 39.5367 14.1539C39.6047 12.945 38.9207 11.9093 37.8012 11.573C36.6543 11.2288 35.4207 11.602 34.782 12.6165C34.3286 13.337 34.2434 14.1053 34.6202 14.8964H34.6209Z" fill="#14344C"/>
<path d="M14.0885 41.0059C14.3973 41.0036 14.6983 41.289 14.7029 41.5884C14.7076 41.9256 14.4082 42.2172 14.065 42.2094C13.7836 42.2031 13.4998 41.902 13.499 41.6088C13.499 41.2968 13.7805 41.0083 14.0885 41.0059Z" fill="#688198"/>
<path d="M37.4352 41.6073C37.4399 41.9209 37.1632 42.1851 36.8254 42.1882C36.5151 42.1914 36.2759 41.9507 36.2704 41.63C36.2641 41.2553 36.4987 41.002 36.8512 41.0028C37.1811 41.0036 37.4297 41.2615 37.4352 41.6065V41.6073Z" fill="#688198"/>
<path d="M39.5374 14.1547C39.5023 14.7059 39.2662 15.1692 38.8886 15.555C38.3226 16.1328 37.7347 16.6886 37.1655 17.2625C37.0272 17.4021 36.9381 17.4107 36.7973 17.2688C36.3924 16.8603 36.0007 16.4315 35.5528 16.0748C35.1736 15.7729 34.9094 15.4005 34.6545 15.0077C34.6342 14.9772 34.6318 14.934 34.6217 14.8972C34.6139 14.8109 34.6139 14.7231 34.5967 14.6385C34.4841 14.081 34.6076 13.5652 34.932 13.1175C35.3636 12.5217 35.8983 12.0928 36.6848 12.005C37.7487 11.8866 38.4852 12.2896 39.0871 13.0971C39.3248 13.4154 39.4233 13.7863 39.5382 14.154L39.5374 14.1547ZM36.9576 14.074C36.7887 13.8898 36.6402 13.7102 36.4729 13.5503C36.2665 13.3519 36.0296 13.2869 35.7537 13.4217C35.2784 13.653 35.1869 14.2175 35.5817 14.6502C35.9358 15.0383 36.3134 15.4044 36.6848 15.7761C36.8458 15.9368 37.0186 15.9532 37.1929 15.7878C37.4603 15.5346 37.7378 15.2908 37.995 15.0265C38.1772 14.8392 38.3937 14.6816 38.5258 14.4472C38.7283 14.0873 38.5227 13.4507 38.1756 13.4264C37.8003 13.3998 37.4134 13.4029 37.1781 13.7957C37.1186 13.8945 37.035 13.9776 36.9568 14.0748L36.9576 14.074Z" fill="#D71919"/>
<path d="M39.5374 14.1548C39.4224 13.7871 39.3239 13.4162 39.0863 13.0979C38.4835 12.2904 37.7479 11.8874 36.6839 12.0058C35.8982 12.0936 35.3635 12.5225 34.9312 13.1183C34.6068 13.566 34.4832 14.0819 34.5958 14.6393C34.613 14.724 34.613 14.8118 34.6208 14.898C34.244 14.1077 34.3284 13.3386 34.7827 12.6181C35.4214 11.6036 36.655 11.2304 37.8018 11.5746C38.9213 11.9102 39.6054 12.9466 39.5374 14.1556V14.1548Z" fill="#FBFAF9"/>
<path d="M36.9574 14.074C37.0348 13.9776 37.1192 13.8937 37.1787 13.7949C37.414 13.4021 37.8009 13.3982 38.1762 13.4256C38.5233 13.4507 38.7289 14.0866 38.5264 14.4464C38.3943 14.6808 38.1778 14.8392 37.9956 15.0258C37.7384 15.29 37.4609 15.533 37.1935 15.7871C37.0192 15.9525 36.8464 15.936 36.6854 15.7753C36.314 15.4037 35.9364 15.0375 35.5823 14.6495C35.1867 14.2159 35.279 13.6522 35.7543 13.4209C36.0302 13.2869 36.2679 13.3519 36.4735 13.5495C36.6408 13.7102 36.7893 13.889 36.9582 14.0732L36.9574 14.074Z" fill="#14344C"/>
</svg>
