<?xml version="1.0" ?><svg width="40" height="40" viewBox="0 0 40 40" fill="none" xmlns="http://www.w3.org/2000/svg">
<path d="M40 2C40 0.895431 39.1046 0 38 0H2C0.895431 0 0 0.895431 0 2V38C0 39.1046 0.895431 40 2 40H38C39.1046 40 40 39.1046 40 38V2Z" fill="#E60023"/>
<path d="M20 10C14.5 10 10 14.5 10 20C10 24.125 12.5 27.625 16 29.125C16 28.375 16 27.625 16.125 26.875C16.375 26 17.375 21.375 17.375 21.375C17.375 21.375 17 20.75 17 19.75C17 18.25 17.875 17.125 18.875 17.125C19.75 17.125 20.25 17.75 20.25 18.625C20.25 19.5 19.625 20.875 19.375 22.125C19.125 23.125 19.875 24 21 24C22.875 24 24.125 21.625 24.125 18.625C24.125 16.375 22.625 14.75 20 14.75C17 14.75 15.125 17 15.125 19.5C15.125 20.375 15.375 21 15.75 21.5C15.875 21.75 16 21.75 15.875 22C15.875 22.125 15.75 22.625 15.625 22.75C15.5 23 15.375 23.125 15.125 23C13.75 22.375 13.125 20.875 13.125 19.125C13.125 16.25 15.5 12.875 20.25 12.875C24.125 12.875 26.625 15.625 26.625 18.625C26.625 22.5 24.5 25.5 21.25 25.5C20.125 25.5 19.125 24.875 18.75 24.25C18.75 24.25 18.125 26.5 18 27C17.75 27.75 17.375 28.5 17 29.125C17.875 29.375 18.875 29.5 19.875 29.5C25.375 29.5 29.875 25 29.875 19.5C30 14.5 25.5 10 20 10Z" fill="white"/>
</svg>
