<?xml version="1.0" ?><svg width="40" height="40" viewBox="0 0 40 40" fill="none" xmlns="http://www.w3.org/2000/svg">
<rect width="40" height="40" rx="2" fill="#55ACE3"/>
<path d="M30.6 14.9C29.9 15.2 29.1 15.4 28.3 15.5C29.1 15 29.8 14.2 30.1 13.3C29.3 13.8 28.5 14.1 27.5 14.3C26.8 13.5 25.7 13 24.6 13C22.4 13 20.6 14.8 20.6 17C20.6 17.3 20.6 17.6 20.7 17.9C17.4 17.7 14.4 16.1 12.4 13.7C12.1 14.3 11.9 15 11.9 15.7C11.9 17.1 12.6 18.3 13.7 19C13 19 12.4 18.8 11.9 18.5C11.9 20.4 13.3 22.1 15.1 22.4C14.8 22.5 14.4 22.5 14 22.5C13.7 22.5 13.5 22.5 13.2 22.4C13.7 24 15.2 25.2 17 25.2C15.6 26.3 13.9 26.9 12 26.9C11.7 26.9 11.4 26.9 11 26.8C12.8 27.9 14.9 28.6 17.2 28.6C24.6 28.6 28.6 22.5 28.6 17.2V16.7C29.4 16.4 30.1 15.7 30.6 14.9Z" fill="white"/>
</svg>
