<svg width="111" height="111" viewBox="0 0 111 111" fill="none" xmlns="http://www.w3.org/2000/svg">
<path d="M44.6215 48.0366C44.6215 48.2783 44.584 48.4991 44.509 48.6991C44.4424 48.8908 44.3257 49.0616 44.159 49.2116C44.0007 49.3533 43.7924 49.4658 43.534 49.5491C43.284 49.6241 42.9757 49.6616 42.609 49.6616H37.9215L37.3215 53.0866C37.6965 53.02 38.059 52.97 38.409 52.9366C38.759 52.895 39.0965 52.8741 39.4215 52.8741C40.3715 52.8741 41.209 53.02 41.934 53.3116C42.6674 53.595 43.2799 53.9866 43.7715 54.4866C44.2715 54.9866 44.6465 55.5741 44.8965 56.2491C45.1465 56.9241 45.2715 57.6491 45.2715 58.4241C45.2715 59.3908 45.1007 60.2741 44.759 61.0741C44.4174 61.8658 43.9424 62.5491 43.334 63.1241C42.734 63.6908 42.0132 64.1325 41.1715 64.4491C40.3382 64.7658 39.4257 64.9241 38.434 64.9241C37.859 64.9241 37.309 64.8616 36.784 64.7366C36.259 64.62 35.7674 64.4616 35.309 64.2616C34.859 64.0533 34.4382 63.8158 34.0465 63.5491C33.6549 63.2825 33.3049 63.0033 32.9965 62.7116L34.059 61.2616C34.284 60.9533 34.5757 60.7991 34.934 60.7991C35.159 60.7991 35.3799 60.8658 35.5965 60.9991C35.8132 61.1325 36.059 61.2825 36.334 61.4491C36.609 61.6075 36.9299 61.7533 37.2965 61.8866C37.6632 62.02 38.109 62.0866 38.634 62.0866C39.1757 62.0866 39.6465 61.9991 40.0465 61.8241C40.4465 61.6408 40.7757 61.395 41.034 61.0866C41.3007 60.77 41.4965 60.3991 41.6215 59.9741C41.7549 59.5408 41.8215 59.0783 41.8215 58.5866C41.8215 57.645 41.5507 56.92 41.009 56.4116C40.4757 55.895 39.6965 55.6366 38.6715 55.6366C37.8299 55.6366 36.984 55.795 36.134 56.1116L33.9965 55.5116L35.5215 46.5866H44.6215V48.0366ZM48.6485 62.1866H52.2485V52.2616C52.2485 51.8366 52.261 51.3908 52.286 50.9241L49.9235 52.8866C49.7568 53.0116 49.5943 53.0908 49.436 53.1241C49.2777 53.1575 49.1277 53.1616 48.986 53.1366C48.8443 53.1033 48.7193 53.0533 48.611 52.9866C48.5027 52.9116 48.4193 52.8366 48.361 52.7616L47.2735 51.2991L52.8485 46.5741H55.686V62.1866H58.8235V64.7241H48.6485V62.1866ZM68.9879 50.9741C68.9879 51.6491 68.8713 52.2616 68.6379 52.8116C68.4046 53.3616 68.0879 53.8366 67.6879 54.2366C67.2963 54.6283 66.8421 54.9325 66.3254 55.1491C65.8088 55.3575 65.2713 55.4616 64.7129 55.4616C64.0963 55.4616 63.5296 55.3575 63.0129 55.1491C62.4963 54.9325 62.0463 54.6283 61.6629 54.2366C61.2879 53.8366 60.9921 53.3616 60.7754 52.8116C60.5671 52.2616 60.4629 51.6491 60.4629 50.9741C60.4629 50.2741 60.5671 49.645 60.7754 49.0866C60.9921 48.52 61.2879 48.0408 61.6629 47.6491C62.0463 47.2491 62.4963 46.9408 63.0129 46.7241C63.5296 46.5075 64.0963 46.3991 64.7129 46.3991C65.3296 46.3991 65.9004 46.5075 66.4254 46.7241C66.9504 46.9408 67.4004 47.2491 67.7754 47.6491C68.1588 48.0408 68.4546 48.52 68.6629 49.0866C68.8796 49.645 68.9879 50.2741 68.9879 50.9741ZM66.3379 50.9741C66.3379 50.5241 66.2963 50.1491 66.2129 49.8491C66.1296 49.5408 66.0129 49.295 65.8629 49.1116C65.7213 48.9283 65.5504 48.7991 65.3504 48.7241C65.1504 48.6408 64.9379 48.5991 64.7129 48.5991C64.4879 48.5991 64.2754 48.6408 64.0754 48.7241C63.8838 48.7991 63.7171 48.9283 63.5754 49.1116C63.4421 49.295 63.3338 49.5408 63.2504 49.8491C63.1754 50.1491 63.1379 50.5241 63.1379 50.9741C63.1379 51.4158 63.1754 51.7825 63.2504 52.0741C63.3338 52.3658 63.4421 52.6033 63.5754 52.7866C63.7171 52.9616 63.8838 53.0866 64.0754 53.1616C64.2754 53.2366 64.4879 53.2741 64.7129 53.2741C64.9379 53.2741 65.1504 53.2366 65.3504 53.1616C65.5504 53.0866 65.7213 52.9616 65.8629 52.7866C66.0129 52.6033 66.1296 52.3658 66.2129 52.0741C66.2963 51.7825 66.3379 51.4158 66.3379 50.9741ZM74.8629 47.1116C74.9796 46.9783 75.1171 46.8575 75.2754 46.7491C75.4421 46.6408 75.6713 46.5866 75.9629 46.5866H78.4754L64.9129 64.2241C64.7963 64.3658 64.6546 64.4866 64.4879 64.5866C64.3213 64.6783 64.1171 64.7241 63.8754 64.7241H61.3129L74.8629 47.1116ZM79.3129 60.4616C79.3129 61.1366 79.1963 61.7491 78.9629 62.2991C78.7296 62.8491 78.4129 63.3241 78.0129 63.7241C77.6213 64.1158 77.1671 64.42 76.6504 64.6366C76.1338 64.845 75.5963 64.9491 75.0379 64.9491C74.4213 64.9491 73.8546 64.845 73.3379 64.6366C72.8213 64.42 72.3713 64.1158 71.9879 63.7241C71.6129 63.3241 71.3171 62.8491 71.1004 62.2991C70.8921 61.7491 70.7879 61.1366 70.7879 60.4616C70.7879 59.7616 70.8921 59.1325 71.1004 58.5741C71.3171 58.0075 71.6129 57.5283 71.9879 57.1366C72.3713 56.7366 72.8213 56.4325 73.3379 56.2241C73.8546 56.0075 74.4213 55.8991 75.0379 55.8991C75.6546 55.8991 76.2254 56.0075 76.7504 56.2241C77.2754 56.4325 77.7254 56.7366 78.1004 57.1366C78.4838 57.5283 78.7796 58.0075 78.9879 58.5741C79.2046 59.1325 79.3129 59.7616 79.3129 60.4616ZM76.6629 60.4616C76.6629 60.0116 76.6213 59.6366 76.5379 59.3366C76.4546 59.0283 76.3379 58.7825 76.1879 58.5991C76.0463 58.4158 75.8754 58.2866 75.6754 58.2116C75.4754 58.1283 75.2629 58.0866 75.0379 58.0866C74.8129 58.0866 74.6004 58.1283 74.4004 58.2116C74.2088 58.2866 74.0421 58.4158 73.9004 58.5991C73.7671 58.7825 73.6588 59.0283 73.5754 59.3366C73.5004 59.6366 73.4629 60.0116 73.4629 60.4616C73.4629 60.9033 73.5004 61.27 73.5754 61.5616C73.6588 61.8533 73.7671 62.0908 73.9004 62.2741C74.0421 62.4491 74.2088 62.5741 74.4004 62.6491C74.6004 62.7241 74.8129 62.7616 75.0379 62.7616C75.2629 62.7616 75.4754 62.7241 75.6754 62.6491C75.8754 62.5741 76.0463 62.4491 76.1879 62.2741C76.3379 62.0908 76.4546 61.8533 76.5379 61.5616C76.6213 61.27 76.6629 60.9033 76.6629 60.4616Z" fill="#29333B"/>
<path fill-rule="evenodd" clip-rule="evenodd" d="M55.5 111C86.1518 111 111 86.1518 111 55.5C111 24.8482 86.1518 0 55.5 0C24.8482 0 0 24.8482 0 55.5C0 86.1518 24.8482 111 55.5 111ZM55.4999 93.2401C76.3431 93.2401 93.2399 76.3433 93.2399 55.5001C93.2399 34.6568 76.3431 17.7601 55.4999 17.7601C34.6567 17.7601 17.7599 34.6568 17.7599 55.5001C17.7599 76.3433 34.6567 93.2401 55.4999 93.2401Z" fill="#29333B"/>
<path fill-rule="evenodd" clip-rule="evenodd" d="M56.0253 14.8122C33.3397 14.8122 14.9494 32.9914 14.9494 55.4167C14.9494 71.3508 24.2333 85.1522 37.7729 91.8036C40.7278 93.2552 41.9328 96.8 40.4643 99.721C38.9959 102.642 35.4099 103.833 32.455 102.382C15.0098 93.8116 3 76.006 3 55.4167C3 26.4677 26.7402 3 56.0253 3C59.325 3 62 5.64425 62 8.9061C62 12.168 59.325 14.8122 56.0253 14.8122Z" fill="#F0AD4E"/>
</svg>
