<svg viewBox="0 0 20 20" fill="none" xmlns="http://www.w3.org/2000/svg">
<path fill-rule="evenodd" clip-rule="evenodd" d="M10 20C12.6522 20 15.1957 18.9464 17.0711 17.0711C18.9464 15.1957 20 12.6522 20 10C20 7.34784 18.9464 4.8043 17.0711 2.92893C15.1957 1.05357 12.6522 0 10 0C7.34784 0 4.8043 1.05357 2.92893 2.92893C1.05357 4.8043 0 7.34784 0 10C0 12.6522 1.05357 15.1957 2.92893 17.0711C4.8043 18.9464 7.34784 20 10 20Z" fill="#69ABCC"/>
<path d="M6.875 9.93752C6.875 10.3519 6.71038 10.7493 6.41735 11.0424C6.12433 11.3354 5.7269 11.5 5.3125 11.5C4.8981 11.5 4.50067 11.3354 4.20765 11.0424C3.91462 10.7493 3.75 10.3519 3.75 9.93752C3.75 9.52311 3.91462 9.12569 4.20765 8.83266C4.50067 8.53964 4.8981 8.37502 5.3125 8.37502C5.7269 8.37502 6.12433 8.53964 6.41735 8.83266C6.71038 9.12569 6.875 9.52311 6.875 9.93752ZM11.5625 9.93752C11.5625 10.3519 11.3979 10.7493 11.1049 11.0424C10.8118 11.3354 10.4144 11.5 10 11.5C9.5856 11.5 9.18817 11.3354 8.89515 11.0424C8.60212 10.7493 8.4375 10.3519 8.4375 9.93752C8.4375 9.52311 8.60212 9.12569 8.89515 8.83266C9.18817 8.53964 9.5856 8.37502 10 8.37502C10.4144 8.37502 10.8118 8.53964 11.1049 8.83266C11.3979 9.12569 11.5625 9.52311 11.5625 9.93752ZM14.6875 11.5C15.1019 11.5 15.4993 11.3354 15.7924 11.0424C16.0854 10.7493 16.25 10.3519 16.25 9.93752C16.25 9.52311 16.0854 9.12569 15.7924 8.83266C15.4993 8.53964 15.1019 8.37502 14.6875 8.37502C14.2731 8.37502 13.8757 8.53964 13.5826 8.83266C13.2896 9.12569 13.125 9.52311 13.125 9.93752C13.125 10.3519 13.2896 10.7493 13.5826 11.0424C13.8757 11.3354 14.2731 11.5 14.6875 11.5Z" fill="white"/>
</svg>
