<svg id="main" width="70" height="45" viewBox="0 0 71 48" fill="none" xmlns="http://www.w3.org/2000/svg">
<!--<rect x="0.904297" y="0.5" width="69" height="44" rx="5.5" fill="white" stroke="#D9D9D9"/>-->
<path fill-rule="evenodd" clip-rule="evenodd" d="M21.6548 30.5165H17.4142L14.2342 18.3847C14.0833 17.8267 13.7628 17.3333 13.2914 17.1008C12.1149 16.5165 10.8185 16.0514 9.4043 15.8169V15.3498H16.2356C17.1785 15.3498 17.8856 16.0514 18.0034 16.8663L19.6534 25.6173L23.892 15.3498H28.0147L21.6548 30.5165ZM30.3718 30.5165H26.3669L29.6647 15.3498H33.6696L30.3718 30.5165ZM38.851 19.5514C38.9689 18.7346 39.676 18.2675 40.501 18.2675C41.7974 18.1502 43.2095 18.3848 44.3881 18.9671L45.0952 15.7016C43.9166 15.2345 42.6203 15 41.4438 15C37.5567 15 34.7282 17.1008 34.7282 20.0165C34.7282 22.2346 36.7317 23.3992 38.146 24.1008C39.676 24.8004 40.2653 25.2675 40.1474 25.9671C40.1474 27.0165 38.9689 27.4836 37.7924 27.4836C36.3782 27.4836 34.9639 27.1338 33.6696 26.5494L32.9625 29.8169C34.3767 30.3992 35.9068 30.6338 37.321 30.6338C41.6795 30.749 44.3881 28.6502 44.3881 25.5C44.3881 21.5329 38.851 21.3004 38.851 19.5514ZM58.4043 30.5165L55.2243 15.3498H51.8087C51.1015 15.3498 50.3944 15.8169 50.1587 16.5165L44.2702 30.5165H48.393L49.2159 28.3004H54.2815L54.7529 30.5165H58.4043ZM52.3979 19.4342L53.5744 25.1502H50.2766L52.3979 19.4342Z" fill="#172B85"/>
</svg>
