<svg viewBox="0 0 48 48" fill="none" xmlns="http://www.w3.org/2000/svg">
<path d="M43.5 9.37377L43.5 44.6667C43.5 45.4181 43.2015 46.1388 42.6701 46.6701C42.1388 47.2015 41.4181 47.5 40.6667 47.5H11.3333C10.5819 47.5 9.86122 47.2015 9.32986 46.6701C8.79851 46.1388 8.5 45.4181 8.5 44.6667L8.50001 3.33333C8.50001 2.58189 8.79852 1.86122 9.32987 1.32986C9.86122 0.798511 10.5819 0.5 11.3333 0.5H34.6262L43.5 9.37377Z" fill="#FAFAFA" stroke="#D4D4D4"/>
<rect x="4" y="25" width="36" height="16" rx="2" fill="#57AB79"/>
<rect x="4" y="25" width="36" height="16" rx="2" stroke="#57AB79"/>
<path d="M13.826 33.024L11.084 28.794H12.884C13.004 28.794 13.092 28.81 13.148 28.842C13.204 28.874 13.254 28.926 13.298 28.998L15.164 32.076C15.184 32.028 15.206 31.98 15.23 31.932C15.258 31.88 15.288 31.828 15.32 31.776L17 29.028C17.048 28.948 17.1 28.89 17.156 28.854C17.216 28.814 17.288 28.794 17.372 28.794H19.094L16.328 32.946L19.166 37.5H17.366C17.246 37.5 17.148 37.47 17.072 37.41C17 37.35 16.942 37.28 16.898 37.2L15.008 33.996C14.992 34.04 14.974 34.084 14.954 34.128C14.934 34.168 14.914 34.206 14.894 34.242L13.106 37.2C13.054 37.276 12.992 37.346 12.92 37.41C12.852 37.47 12.764 37.5 12.656 37.5H10.976L13.826 33.024ZM22.2282 36.036H25.5942V37.5H20.4282V28.794H22.2282V36.036ZM31.7738 30.462C31.7178 30.554 31.6598 30.622 31.5998 30.666C31.5438 30.706 31.4698 30.726 31.3778 30.726C31.2898 30.726 31.1938 30.696 31.0898 30.636C30.9898 30.572 30.8718 30.504 30.7358 30.432C30.5998 30.36 30.4438 30.294 30.2678 30.234C30.0918 30.17 29.8858 30.138 29.6498 30.138C29.2338 30.138 28.9218 30.232 28.7138 30.42C28.5058 30.604 28.4018 30.846 28.4018 31.146C28.4018 31.338 28.4578 31.498 28.5698 31.626C28.6858 31.75 28.8358 31.858 29.0198 31.95C29.2078 32.042 29.4198 32.124 29.6558 32.196C29.8918 32.268 30.1338 32.348 30.3818 32.436C30.6298 32.52 30.8718 32.62 31.1078 32.736C31.3438 32.852 31.5538 32.998 31.7378 33.174C31.9258 33.35 32.0758 33.566 32.1878 33.822C32.3038 34.074 32.3618 34.382 32.3618 34.746C32.3618 35.142 32.2918 35.514 32.1518 35.862C32.0158 36.206 31.8178 36.508 31.5578 36.768C31.2978 37.024 30.9758 37.226 30.5918 37.374C30.2118 37.522 29.7798 37.596 29.2958 37.596C29.0198 37.596 28.7438 37.568 28.4678 37.512C28.1958 37.456 27.9318 37.378 27.6758 37.278C27.4238 37.178 27.1858 37.058 26.9618 36.918C26.7378 36.778 26.5418 36.622 26.3738 36.45L26.9018 35.598C26.9458 35.534 27.0038 35.482 27.0758 35.442C27.1478 35.398 27.2238 35.376 27.3038 35.376C27.4118 35.376 27.5258 35.416 27.6458 35.496C27.7658 35.576 27.9038 35.664 28.0598 35.76C28.2158 35.856 28.3958 35.944 28.5998 36.024C28.8078 36.104 29.0558 36.144 29.3438 36.144C29.7638 36.144 30.0878 36.048 30.3158 35.856C30.5478 35.664 30.6638 35.378 30.6638 34.998C30.6638 34.778 30.6058 34.6 30.4898 34.464C30.3778 34.328 30.2298 34.214 30.0458 34.122C29.8618 34.03 29.6518 33.952 29.4158 33.888C29.1798 33.82 28.9378 33.746 28.6898 33.666C28.4418 33.586 28.1998 33.49 27.9638 33.378C27.7278 33.266 27.5178 33.118 27.3338 32.934C27.1498 32.75 26.9998 32.522 26.8838 32.25C26.7718 31.978 26.7158 31.64 26.7158 31.236C26.7158 30.912 26.7798 30.598 26.9078 30.294C27.0358 29.99 27.2238 29.72 27.4718 29.484C27.7198 29.248 28.0238 29.058 28.3838 28.914C28.7478 28.77 29.1638 28.698 29.6318 28.698C30.1558 28.698 30.6398 28.78 31.0838 28.944C31.5318 29.104 31.9098 29.328 32.2178 29.616L31.7738 30.462Z" fill="white"/>
<path d="M44 10H34.9091C34.4091 10 34 9.59091 34 9.09091V0L44 10Z" fill="#D4D4D4"/>
</svg>
