<svg viewBox="0 0 48 48" fill="none" xmlns="http://www.w3.org/2000/svg">
<path d="M43.5 9.37377L43.5 44.6667C43.5 45.4181 43.2015 46.1388 42.6701 46.6701C42.1388 47.2015 41.4181 47.5 40.6667 47.5H11.3333C10.5819 47.5 9.86122 47.2015 9.32986 46.6701C8.79851 46.1388 8.5 45.4181 8.5 44.6667L8.50001 3.33333C8.50001 2.58189 8.79852 1.86122 9.32987 1.32986C9.86122 0.798511 10.5819 0.5 11.3333 0.5H34.6262L43.5 9.37377Z" fill="#FAFAFA" stroke="#D4D4D4"/>
<rect x="4" y="25" width="36" height="16" rx="2" fill="#9CB1C3"/>
<rect x="4" y="25" width="36" height="16" rx="2" stroke="#9CB1C3"/>
<path d="M18.99 28.794V29.454C18.99 29.546 18.974 29.64 18.942 29.736C18.914 29.828 18.872 29.914 18.816 29.994L14.52 36.09H18.87V37.5H12.21V36.798C12.21 36.714 12.224 36.632 12.252 36.552C12.28 36.468 12.32 36.392 12.372 36.324L16.674 30.204H12.516V28.794H18.99ZM22.3731 37.5H20.5611V28.794H22.3731V37.5ZM26.3539 34.506V37.5H24.5539V28.794H27.4939C28.0899 28.794 28.6039 28.864 29.0359 29.004C29.4719 29.144 29.8299 29.34 30.1099 29.592C30.3899 29.84 30.5959 30.136 30.7279 30.48C30.8639 30.824 30.9319 31.198 30.9319 31.602C30.9319 32.03 30.8619 32.422 30.7219 32.778C30.5819 33.134 30.3699 33.44 30.0859 33.696C29.8019 33.952 29.4439 34.152 29.0119 34.296C28.5799 34.436 28.0739 34.506 27.4939 34.506H26.3539ZM26.3539 33.126H27.4939C28.0579 33.126 28.4699 32.99 28.7299 32.718C28.9939 32.446 29.1259 32.074 29.1259 31.602C29.1259 31.386 29.0919 31.19 29.0239 31.014C28.9599 30.834 28.8599 30.682 28.7239 30.558C28.5919 30.43 28.4239 30.332 28.2199 30.264C28.0159 30.196 27.7739 30.162 27.4939 30.162H26.3539V33.126Z" fill="white"/>
<path d="M44 10H34.9091C34.4091 10 34 9.59091 34 9.09091V0L44 10Z" fill="#D4D4D4"/>
</svg>
