<svg viewBox="0 0 18 18" xmlns="http://www.w3.org/2000/svg">
<path d="M9 0C4.02931 0 0 4.02931 0 9C0 13.9707 4.02931 18 9 18C13.9707 18 18 13.9707 18 9C18 4.02931 13.9707 0 9 0ZM9 15.6774C5.30964 15.6774 2.32258 12.6911 2.32258 9C2.32258 5.30964 5.30891 2.32258 9 2.32258C12.6904 2.32258 15.6774 5.30891 15.6774 9C15.6774 12.6904 12.6911 15.6774 9 15.6774ZM9 4.35484C6.43464 4.35484 4.35484 6.43464 4.35484 9C4.35484 11.5654 6.43464 13.6452 9 13.6452C11.5654 13.6452 13.6452 11.5654 13.6452 9C13.6452 6.43464 11.5654 4.35484 9 4.35484ZM9 11.3226C7.71931 11.3226 6.67742 10.2807 6.67742 9C6.67742 7.71931 7.71931 6.67742 9 6.67742C10.2807 6.67742 11.3226 7.71931 11.3226 9C11.3226 10.2807 10.2807 11.3226 9 11.3226Z"/>
</svg>
