<svg viewBox="0 0 17 18" xmlns="http://www.w3.org/2000/svg">
<path d="M8.50586 9C11.0309 9 13.0773 6.98555 13.0773 4.5C13.0773 2.01445 11.0309 0 8.50586 0C5.98086 0 3.93443 2.01445 3.93443 4.5C3.93443 6.98555 5.98086 9 8.50586 9ZM11.7059 10.125H11.1094C10.3166 10.4836 9.43443 10.6875 8.50586 10.6875C7.57729 10.6875 6.69872 10.4836 5.90229 10.125H5.30586C2.65586 10.125 0.505859 12.2414 0.505859 14.85V16.3125C0.505859 17.2441 1.27372 18 2.22015 18H14.7916C15.738 18 16.5059 17.2441 16.5059 16.3125V14.85C16.5059 12.2414 14.3559 10.125 11.7059 10.125Z"/>
</svg>