<svg viewBox="0 0 20 20" xmlns="http://www.w3.org/2000/svg" id="icon">
  <path fill-rule="evenodd" d="M17.6657 10.3298C17.8797 10.5407 18 10.8268 18 11.1251C18 11.4234 17.8797 11.7095 17.6657 11.9205L10.8144 18.6706C10.6003 18.8815 10.3099 19 10.0071 19C9.70435 19 9.41397 18.8815 9.19983 18.6706L2.3486 11.9205C2.23954 11.8167 2.15255 11.6926 2.09271 11.5553C2.03286 11.4181 2.00136 11.2705 2.00004 11.1211C1.99873 10.9717 2.02762 10.8236 2.08503 10.6853C2.14245 10.547 2.22723 10.4214 2.33445 10.3158C2.44166 10.2102 2.56915 10.1266 2.70948 10.0701C2.84982 10.0135 3.00018 9.98504 3.15179 9.98634C3.30341 9.98764 3.45325 10.0187 3.59256 10.0776C3.73187 10.1366 3.85787 10.2223 3.96321 10.3298L8.86527 15.1594V2.12502C8.86527 1.82664 8.98557 1.54049 9.19971 1.32951C9.41385 1.11853 9.70429 1 10.0071 1C10.31 1 10.6004 1.11853 10.8146 1.32951C11.0287 1.54049 11.149 1.82664 11.149 2.12502V15.1594L16.0511 10.3298C16.2652 10.1188 16.5556 10.0004 16.8584 10.0004C17.1612 10.0004 17.4515 10.1188 17.6657 10.3298Z"/>
</svg>
