<svg viewBox="0 0 20 20" xmlns="http://www.w3.org/2000/svg" id="icon">
  <path fill-rule="evenodd" d="M10 20C12.6522 20 15.1957 18.9464 17.0711 17.0711C18.9464 15.1957 20 12.6522 20 10C20 7.34784 18.9464 4.8043 17.0711 2.92893C15.1957 1.05357 12.6522 0 10 0C7.34784 0 4.8043 1.05357 2.92893 2.92893C1.05357 4.8043 0 7.34784 0 10C0 12.6522 1.05357 15.1957 2.92893 17.0711C4.8043 18.9464 7.34784 20 10 20ZM13.7498 11.2539C14.0813 11.2539 14.3992 11.1217 14.6336 10.8866C14.8681 10.6515 14.9998 10.3325 14.9998 10C14.9998 9.66746 14.8681 9.34854 14.6336 9.11339C14.3992 8.87825 14.0813 8.74615 13.7498 8.74615H9.26726L10.8835 7.12492C11.1112 6.88844 11.2372 6.57171 11.2343 6.24296C11.2315 5.9142 11.1 5.59972 10.8683 5.36725C10.6365 5.13477 10.323 5.0029 9.99526 5.00005C9.66751 4.99719 9.35176 5.12357 9.11601 5.35197L5.36601 9.11353C5.13167 9.34866 5.00002 9.66752 5.00002 10C5.00002 10.3325 5.13167 10.6513 5.36601 10.8865L9.11601 14.648C9.35176 14.8764 9.66751 15.0028 9.99526 15C10.323 14.9971 10.6365 14.8652 10.8683 14.6328C11.1 14.4003 11.2315 14.0858 11.2343 13.757C11.2372 13.4283 11.1112 13.1116 10.8835 12.8751L9.26726 11.2539H13.7498Z"/>
</svg>
