<svg id="icon" viewBox="0 0 20 20" fill="currentColor" xmlns="http://www.w3.org/2000/svg">
<path fill-rule="evenodd" clip-rule="evenodd" d="M10 20C12.6522 20 15.1957 18.9464 17.0711 17.0711C18.9464 15.1957 20 12.6522 20 10C20 7.34784 18.9464 4.8043 17.0711 2.92893C15.1957 1.05357 12.6522 0 10 0C7.34784 0 4.8043 1.05357 2.92893 2.92893C1.05357 4.8043 0 7.34784 0 10C0 12.6522 1.05357 15.1957 2.92893 17.0711C4.8043 18.9464 7.34784 20 10 20ZM11.25 6.25C11.25 5.91848 11.1183 5.60054 10.8839 5.36612C10.6495 5.1317 10.3315 5 10 5C9.66848 5 9.35054 5.1317 9.11612 5.36612C8.8817 5.60054 8.75 5.91848 8.75 6.25V10.7325L7.13375 9.11625C6.898 8.88855 6.58224 8.76256 6.2545 8.76541C5.92675 8.76826 5.61324 8.89972 5.38148 9.13148C5.14972 9.36324 5.01826 9.67675 5.01541 10.0045C5.01256 10.3322 5.13855 10.648 5.36625 10.8837L9.11625 14.6337C9.35066 14.8681 9.66854 14.9997 10 14.9997C10.3315 14.9997 10.6493 14.8681 10.8837 14.6337L14.6337 10.8837C14.8614 10.648 14.9874 10.3322 14.9846 10.0045C14.9817 9.67675 14.8503 9.36324 14.6185 9.13148C14.3868 8.89972 14.0732 8.76826 13.7455 8.76541C13.4178 8.76256 13.102 8.88855 12.8663 9.11625L11.25 10.7325V6.25Z"/>
</svg>