<svg id="icon" viewBox="0 0 20 20" fill="currentColor" xmlns="http://www.w3.org/2000/svg">
<path fill-rule="evenodd" clip-rule="evenodd" d="M16.707 10.293C16.8944 10.4805 16.9997 10.7348 16.9997 11C16.9997 11.2652 16.8944 11.5195 16.707 11.707L10.707 17.707C10.5194 17.8945 10.2651 17.9998 9.99996 17.9998C9.73479 17.9998 9.48049 17.8945 9.29296 17.707L3.29296 11.707C3.19745 11.6148 3.12127 11.5044 3.06886 11.3824C3.01645 11.2604 2.98886 11.1292 2.98771 10.9964C2.98655 10.8636 3.01186 10.7319 3.06214 10.609C3.11242 10.4861 3.18667 10.3745 3.28056 10.2806C3.37446 10.1867 3.48611 10.1125 3.60901 10.0622C3.7319 10.0119 3.86358 9.9866 3.99636 9.98775C4.12914 9.9889 4.26036 10.0165 4.38236 10.0689C4.50437 10.1213 4.61471 10.1975 4.70696 10.293L8.99996 14.586V3C8.99996 2.73478 9.10532 2.48043 9.29285 2.29289C9.48039 2.10536 9.73474 2 9.99996 2C10.2652 2 10.5195 2.10536 10.7071 2.29289C10.8946 2.48043 11 2.73478 11 3V14.586L15.293 10.293C15.4805 10.1055 15.7348 10.0002 16 10.0002C16.2651 10.0002 16.5194 10.1055 16.707 10.293V10.293Z"/>
</svg>