<svg viewBox="0 0 20 20" xmlns="http://www.w3.org/2000/svg" id="icon">
  <path fill-rule="evenodd" d="M12.5798 4.7298C12.7908 4.51862 13.0769 4.39999 13.3752 4.39999C13.6735 4.39999 13.9596 4.51862 14.1706 4.7298L18.6706 9.23549C18.8815 9.44672 19 9.73318 19 10.0319C19 10.3306 18.8815 10.617 18.6706 10.8283L14.1706 15.3339C13.9584 15.5391 13.6742 15.6527 13.3792 15.6501C13.0842 15.6475 12.8021 15.5291 12.5935 15.3202C12.3849 15.1114 12.2666 14.8289 12.264 14.5335C12.2615 14.2382 12.3748 13.9536 12.5798 13.7412L15.1594 11.1583H2.12502C1.82664 11.1583 1.54049 11.0396 1.32951 10.8284C1.11853 10.6171 1 10.3306 1 10.0319C1 9.73312 1.11853 9.44661 1.32951 9.23537C1.54049 9.02412 1.82664 8.90545 2.12502 8.90545H15.1594L12.5798 6.32256C12.3689 6.11132 12.2504 5.82486 12.2504 5.52618C12.2504 5.22749 12.3689 4.94103 12.5798 4.7298Z"/>
</svg>
