<svg viewBox="0 0 20 20" xmlns="http://www.w3.org/2000/svg" id="icon">
  <path fill-rule="evenodd" d="M7.42046 15.3203C7.20949 15.5315 6.92339 15.6501 6.62508 15.6501C6.32677 15.6501 6.04067 15.5315 5.82969 15.3203L1.32963 10.8146C1.11873 10.6034 1.00024 10.317 1.00024 10.0183C1.00024 9.71958 1.11873 9.43312 1.32963 9.22189L5.82969 4.71619C6.04187 4.51101 6.32606 4.39747 6.62103 4.40004C6.91601 4.4026 7.19817 4.52107 7.40676 4.72992C7.61535 4.93876 7.73366 5.22128 7.73623 5.51663C7.73879 5.81197 7.62539 6.09651 7.42046 6.30896L4.84081 8.89185H17.8752C18.1736 8.89185 18.4598 9.01052 18.6707 9.22177C18.8817 9.43301 19.0002 9.71952 19.0002 10.0183C19.0002 10.317 18.8817 10.6035 18.6707 10.8148C18.4598 11.026 18.1736 11.1447 17.8752 11.1447H4.84081L7.42046 13.7276C7.63137 13.9388 7.74985 14.2253 7.74985 14.524C7.74985 14.8226 7.63137 15.1091 7.42046 15.3203Z"/>
</svg>
