<svg id="icon" viewBox="0 0 10 10" fill="currentColor" xmlns="http://www.w3.org/2000/svg">
<path d="M9.63364 5.88661C9.39922 6.12175 9.08128 6.25385 8.74976 6.25385L4.26726 6.25385L5.88351 7.87508C6.1112 8.11156 6.2372 8.42829 6.23435 8.75704C6.2315 9.0858 6.10004 9.40028 5.86828 9.63275C5.63652 9.86523 5.323 9.99709 4.99526 9.99995C4.66751 10.0028 4.35176 9.87643 4.11601 9.64803L0.366006 5.88647C0.131667 5.65134 2.26551e-05 5.33248 2.26696e-05 5C2.26842e-05 4.66752 0.131667 4.34866 0.366006 4.11353L4.11601 0.351971C4.35176 0.123572 4.66751 -0.00280963 4.99526 4.718e-05C5.323 0.00290399 5.63652 0.134771 5.86828 0.367245C6.10004 0.599719 6.2315 0.914201 6.23435 1.24296C6.2372 1.57171 6.1112 1.88844 5.88351 2.12492L4.26726 3.74615L8.74976 3.74615C9.08128 3.74615 9.39922 3.87825 9.63364 4.11339C9.86806 4.34854 9.99976 4.66746 9.99976 5C9.99976 5.33254 9.86806 5.65146 9.63364 5.88661Z"/>
</svg>
