<svg viewBox="0 0 20 20" xmlns="http://www.w3.org/2000/svg" id="icon">
  <path fill-rule="evenodd" d="M8.43006 6.90616L5.64583 4.28571H7.57143C8.24206 4.28571 8.78571 3.77404 8.78571 3.14286C8.78571 2.51167 8.24206 2 7.57143 2H2.71429C2.54964 2 2.39265 2.03084 2.24948 2.08672C2.10626 2.14249 1.97208 2.22516 1.85566 2.33474C1.61855 2.55789 1.5 2.85057 1.5 3.14306V7.71429C1.5 8.34547 2.04365 8.85714 2.71429 8.85714C3.38492 8.85714 3.92857 8.34547 3.92857 7.71429V5.90196L6.7128 8.52241C7.18701 8.96872 7.95585 8.96872 8.43006 8.52241C8.90427 8.07609 8.90427 7.35248 8.43006 6.90616ZM11.6254 4C11.8394 4.17782 12.1206 4.28571 12.4286 4.28571H14.3542L11.5699 6.90616C11.0957 7.35248 11.0957 8.07609 11.5699 8.52241C12.0441 8.96872 12.813 8.96872 13.2872 8.52241L15.7895 6.16727L16.0714 5.90196V7.71429C16.0714 8.34547 16.6151 8.85714 17.2857 8.85714C17.9563 8.85714 18.5 8.34547 18.5 7.71429V3.14286L18.5 3.13943C18.4995 2.9917 18.4688 2.84405 18.4079 2.70539C18.349 2.57159 18.2621 2.44617 18.1469 2.33716L18.1418 2.33231C18.0259 2.22394 17.8927 2.14208 17.7505 2.08672C17.6074 2.03084 17.4501 2 17.2855 2H12.4286C11.7579 2 11.2143 2.51167 11.2143 3.14286C11.2143 3.4842 11.3733 3.79059 11.6254 4ZM3.92857 12.2857C3.92857 11.6545 3.38492 11.1429 2.71429 11.1429C2.04365 11.1429 1.5 11.6545 1.5 12.2857V16.8571C1.5 17.0121 1.53277 17.1599 1.59214 17.2946C1.65096 17.4284 1.73794 17.5538 1.85308 17.6628L1.85824 17.6677C1.96955 17.7718 2.1022 17.8558 2.24948 17.9133C2.39159 17.9687 2.54733 17.9995 2.71064 18L2.71513 18H7.57143C8.24206 18 8.78571 17.4883 8.78571 16.8571C8.78571 16.226 8.24206 15.7143 7.57143 15.7143H5.64583L8.43006 13.0938C8.90427 12.6475 8.90427 11.9239 8.43006 11.4776C7.95585 11.0313 7.18701 11.0313 6.7128 11.4776L3.92857 14.098V12.2857ZM14.3542 15.7143H12.4286C12.1206 15.7143 11.8394 15.8222 11.6254 16C11.3733 16.2094 11.2143 16.5158 11.2143 16.8571C11.2143 17.4883 11.7579 18 12.4286 18H17.2857C17.4504 18 17.6074 17.9692 17.7505 17.9133C17.8927 17.8579 18.0259 17.7761 18.1418 17.6677L18.1469 17.6628C18.2576 17.5581 18.3468 17.4332 18.4079 17.2946C18.4668 17.1609 18.4995 17.0143 18.5 16.8606L18.5 16.8564V12.2857C18.5 11.6545 17.9563 11.1429 17.2857 11.1429C16.6151 11.1429 16.0714 11.6545 16.0714 12.2857V14.098L15.7895 13.8327L13.2872 11.4776C12.813 11.0313 12.0441 11.0313 11.5699 11.4776C11.0957 11.9239 11.0957 12.6475 11.5699 13.0938L14.3542 15.7143Z"/>
</svg>
