<svg viewBox="0 0 20 20" xmlns="http://www.w3.org/2000/svg" id="icon">
  <path d="M19.2673 11.7732C18.7984 12.2435 18.1626 12.5077 17.4995 12.5077L8.53451 12.5077L11.767 15.7502C12.2224 16.2231 12.4744 16.8566 12.4687 17.5141C12.463 18.1716 12.2001 18.8006 11.7366 19.2655C11.273 19.7305 10.646 19.9942 9.99051 19.9999C9.33502 20.0056 8.70352 19.7529 8.23201 19.2961L0.732011 11.7729C0.263334 11.3027 4.53102e-05 10.665 4.53393e-05 10C4.53683e-05 9.33505 0.263334 8.69732 0.732011 8.22705L8.23201 0.703942C8.70352 0.247144 9.33502 -0.00561927 9.99051 9.436e-05C10.646 0.00580799 11.273 0.269541 11.7366 0.73449C12.2001 1.19944 12.463 1.8284 12.4687 2.48591C12.4744 3.14343 12.2224 3.77688 11.767 4.24984L8.53451 7.4923L17.4995 7.4923C18.1626 7.4923 18.7984 7.7565 19.2673 8.22679C19.7361 8.69707 19.9995 9.33492 19.9995 10C19.9995 10.6651 19.7361 11.3029 19.2673 11.7732Z"/>
</svg>
