<svg id="icon" viewBox="0 0 20 20" fill="currentColor" xmlns="http://www.w3.org/2000/svg">
<path fill-rule="evenodd" clip-rule="evenodd" d="M10 20C12.6522 20 15.1957 18.9464 17.0711 17.0711C18.9464 15.1957 20 12.6522 20 10C20 7.34784 18.9464 4.8043 17.0711 2.92893C15.1957 1.05357 12.6522 0 10 0C7.34784 0 4.8043 1.05357 2.92893 2.92893C1.05357 4.8043 0 7.34784 0 10C0 12.6522 1.05357 15.1957 2.92893 17.0711C4.8043 18.9464 7.34784 20 10 20ZM10.8837 7.13375C11.1114 6.898 11.2374 6.58224 11.2346 6.2545C11.2317 5.92675 11.1003 5.61324 10.8685 5.38148C10.6368 5.14972 10.3232 5.01826 9.9955 5.01541C9.66776 5.01256 9.352 5.13855 9.11625 5.36625L5.36625 9.11625C5.13191 9.35066 5.00027 9.66854 5.00027 10C5.00027 10.3315 5.13191 10.6493 5.36625 10.8837L9.11625 14.6337C9.352 14.8614 9.66776 14.9874 9.9955 14.9846C10.3232 14.9817 10.6368 14.8503 10.8685 14.6185C11.1003 14.3868 11.2317 14.0732 11.2346 13.7455C11.2374 13.4178 11.1114 13.102 10.8837 12.8663L9.2675 11.25H13.75C14.0815 11.25 14.3995 11.1183 14.6339 10.8839C14.8683 10.6495 15 10.3315 15 10C15 9.66848 14.8683 9.35054 14.6339 9.11612C14.3995 8.8817 14.0815 8.75 13.75 8.75H9.2675L10.8837 7.13375Z"/>
</svg>