<svg id="icon" viewBox="0 0 20 20" fill="currentColor" xmlns="http://www.w3.org/2000/svg">
<path fill-rule="evenodd" clip-rule="evenodd" d="M10 20C12.6522 20 15.1957 18.9464 17.0711 17.0711C18.9464 15.1957 20 12.6522 20 10C20 7.34784 18.9464 4.8043 17.0711 2.92893C15.1957 1.05357 12.6522 0 10 0C7.34784 0 4.8043 1.05357 2.92893 2.92893C1.05357 4.8043 0 7.34784 0 10C0 12.6522 1.05357 15.1957 2.92893 17.0711C4.8043 18.9464 7.34784 20 10 20ZM14.6337 9.11625L10.8837 5.36625C10.6493 5.13191 10.3315 5.00027 10 5.00027C9.66854 5.00027 9.35066 5.13191 9.11625 5.36625L5.36625 9.11625C5.13855 9.352 5.01256 9.66776 5.01541 9.9955C5.01826 10.3232 5.14972 10.6368 5.38148 10.8685C5.61324 11.1003 5.92675 11.2317 6.2545 11.2346C6.58224 11.2374 6.898 11.1114 7.13375 10.8837L8.75 9.2675V13.75C8.75 14.0815 8.8817 14.3995 9.11612 14.6339C9.35054 14.8683 9.66848 15 10 15C10.3315 15 10.6495 14.8683 10.8839 14.6339C11.1183 14.3995 11.25 14.0815 11.25 13.75V9.2675L12.8663 10.8837C13.102 11.1114 13.4178 11.2374 13.7455 11.2346C14.0732 11.2317 14.3868 11.1003 14.6185 10.8685C14.8503 10.6368 14.9817 10.3232 14.9846 9.9955C14.9874 9.66776 14.8614 9.352 14.6337 9.11625Z"/>
</svg>