<svg viewBox="0 0 20 20" xmlns="http://www.w3.org/2000/svg" id="icon">
  <path fill-rule="evenodd" d="M9.67025 17.6651C9.45928 17.8795 9.17318 18 8.87486 18C8.57655 18 8.29045 17.8795 8.07948 17.6651L1.32939 10.8018C1.11848 10.5873 1 10.2964 1 9.99309C1 9.68978 1.11848 9.39888 1.32939 9.18437L8.07948 2.3211C8.29166 2.11273 8.57584 1.99744 8.87082 2.00004C9.16579 2.00265 9.44796 2.12295 9.65655 2.33503C9.86513 2.54712 9.98345 2.83402 9.98601 3.13394C9.98858 3.43386 9.87518 3.72281 9.67025 3.93854L4.84056 8.84922H17.875C18.1734 8.84922 18.4595 8.96973 18.6705 9.18425C18.8815 9.39877 19 9.68972 19 9.99309C19 10.2965 18.8815 10.5874 18.6705 10.8019C18.4595 11.0165 18.1734 11.137 17.875 11.137H4.84056L9.67025 16.0476C9.88116 16.2622 9.99964 16.5531 9.99964 16.8564C9.99964 17.1597 9.88116 17.4506 9.67025 17.6651Z"/>
</svg>
