<svg viewBox="0 0 20 20" xmlns="http://www.w3.org/2000/svg" id="icon">
  <path fill-rule="evenodd" d="M10 20C12.6522 20 15.1957 18.9464 17.0711 17.0711C18.9464 15.1957 20 12.6522 20 10C20 7.34784 18.9464 4.8043 17.0711 2.92893C15.1957 1.05357 12.6522 0 10 0C7.34784 0 4.8043 1.05357 2.92893 2.92893C1.05357 4.8043 0 7.34784 0 10C0 12.6522 1.05357 15.1957 2.92893 17.0711C4.8043 18.9464 7.34784 20 10 20ZM6.24998 8.74615C5.91846 8.74615 5.60051 8.87825 5.36609 9.11339C5.13167 9.34854 4.99998 9.66746 4.99998 10C4.99998 10.3325 5.13167 10.6515 5.36609 10.8866C5.60051 11.1217 5.91846 11.2539 6.24998 11.2539L10.7325 11.2539L9.11623 12.8751C8.88853 13.1116 8.76254 13.4283 8.76538 13.757C8.76823 14.0858 8.89969 14.4003 9.13145 14.6328C9.36321 14.8652 9.67673 14.9971 10.0045 15C10.3322 15.0028 10.648 14.8764 10.8837 14.648L14.6337 10.8865C14.8681 10.6513 14.9997 10.3325 14.9997 10C14.9997 9.66752 14.8681 9.34866 14.6337 9.11353L10.8837 5.35197C10.648 5.12357 10.3322 4.99719 10.0045 5.00005C9.67673 5.00291 9.36322 5.13477 9.13146 5.36725C8.8997 5.59972 8.76823 5.9142 8.76539 6.24296C8.76254 6.57171 8.88853 6.88844 9.11623 7.12492L10.7325 8.74615L6.24998 8.74615Z"/>
</svg>
