<svg viewBox="0 0 20 20" xmlns="http://www.w3.org/2000/svg" id="icon">
  <path fill-rule="evenodd" d="M6.29521 4.0255C6.928 3.36908 7.78632 3.0002 8.68136 3H15.625C16.5201 3 17.3785 3.36875 18.0115 4.02513C18.6444 4.6815 19 5.57174 19 6.5V13.5C19 14.4283 18.6444 15.3185 18.0115 15.9749C17.3785 16.6313 16.5201 17 15.625 17H8.68136C7.78671 16.9995 6.92885 16.6306 6.29633 15.9745L1.32939 10.8248C1.11848 10.6061 1 10.3094 1 10C1 9.69064 1.11848 9.39395 1.32939 9.17517L6.29521 4.0255ZM10.7953 6.84183C10.5831 6.62932 10.2989 6.51172 10.0039 6.51438C9.70895 6.51704 9.42679 6.63974 9.2182 6.85605C9.00961 7.07235 8.8913 7.36497 8.88873 7.67087C8.88617 7.97676 8.99956 8.27146 9.20449 8.4915L10.6591 10L9.20449 11.5085C9.09704 11.6161 9.01134 11.7449 8.95238 11.8872C8.89342 12.0295 8.86238 12.1826 8.86108 12.3375C8.85978 12.4924 8.88825 12.6461 8.94482 12.7894C9.00138 12.9328 9.08492 13.0631 9.19055 13.1726C9.29618 13.2822 9.42179 13.3688 9.56005 13.4275C9.69831 13.4861 9.84645 13.5156 9.99583 13.5143C10.1452 13.5129 10.2928 13.4808 10.4301 13.4196C10.5673 13.3585 10.6915 13.2696 10.7953 13.1582L12.2499 11.6497L13.7046 13.1582C13.9167 13.3707 14.2009 13.4883 14.4959 13.4856C14.7909 13.483 15.073 13.3603 15.2816 13.144C15.4902 12.9276 15.6085 12.635 15.6111 12.3291C15.6137 12.0232 15.5003 11.7285 15.2953 11.5085L13.8407 10L15.2953 8.4915C15.5003 8.27146 15.6137 7.97676 15.6111 7.67087C15.6085 7.36497 15.4902 7.07235 15.2816 6.85605C15.073 6.63974 14.7909 6.51704 14.4959 6.51438C14.2009 6.51172 13.9167 6.62932 13.7046 6.84183L12.2499 8.35033L10.7953 6.84183Z"/>
</svg>
