<svg id="icon" viewBox="0 0 20 20" fill="currentColor" xmlns="http://www.w3.org/2000/svg">
<path fill-rule="evenodd" clip-rule="evenodd" d="M13.9116 15.5013C12.6115 16.4254 11.0262 16.8592 9.43665 16.7259C7.84716 16.5925 6.35624 15.9006 5.22828 14.7728C4.10032 13.6449 3.40821 12.1541 3.27467 10.5646C3.14112 8.97514 3.57479 7.38972 4.49875 6.0895L13.9116 15.5035V15.5013ZM15.5024 13.9105L6.0895 4.49875C7.38967 3.57401 8.97538 3.13972 10.5653 3.27292C12.1552 3.40612 13.6466 4.0982 14.7747 5.22638C15.9029 6.35456 16.595 7.8459 16.7282 9.43583C16.8614 11.0257 16.4271 12.6115 15.5024 13.9116V13.9105ZM19 10C19 12.3869 18.0518 14.6761 16.364 16.364C14.6761 18.0518 12.3869 19 10 19C7.61305 19 5.32387 18.0518 3.63604 16.364C1.94821 14.6761 1 12.3869 1 10C1 7.61305 1.94821 5.32387 3.63604 3.63604C5.32387 1.94821 7.61305 1 10 1C12.3869 1 14.6761 1.94821 16.364 3.63604C18.0518 5.32387 19 7.61305 19 10V10Z"/>
</svg>