<svg viewBox="0 0 20 20" xmlns="http://www.w3.org/2000/svg" id="icon">
  <path fill-rule="evenodd" d="M6.69834 1C6.4807 1.00005 6.26796 1.06605 6.08702 1.18967C5.90608 1.31329 5.76505 1.48898 5.68177 1.69451C5.59849 1.90005 5.5767 2.12621 5.61915 2.34441C5.66159 2.56261 5.76637 2.76304 5.92024 2.92037L6.69834 3.71575V7.9435C6.69828 8.24184 6.58228 8.52795 6.37587 8.73887L1.97363 13.2389C-0.106429 15.3651 1.36722 19 4.30792 19H15.691C18.6328 19 20.1065 15.3651 18.0264 13.2389L13.6242 8.73887C13.4178 8.52795 13.3018 8.24184 13.3017 7.9435V3.71575L14.0798 2.92037C14.2337 2.76304 14.3384 2.56261 14.3809 2.34441C14.4233 2.12621 14.4015 1.90005 14.3183 1.69451C14.235 1.48898 14.094 1.31329 13.913 1.18967C13.7321 1.06605 13.5193 1.00005 13.3017 1H6.69834ZM8.89946 7.9435V3.25H11.1006V7.9435C11.1011 8.83814 11.449 9.69599 12.068 10.3285L13.1982 11.485C12.4067 11.2971 11.5797 11.3368 10.8089 11.5997L10.2917 11.7753C9.38797 12.0832 8.41094 12.0832 7.50725 11.7753L6.88763 11.5649C6.84621 11.5505 6.80437 11.5373 6.76217 11.5255L7.93207 10.3296C8.55129 9.69684 8.89927 8.83853 8.89946 7.9435Z"/>
</svg>
