<svg id="icon" viewBox="0 0 20 20" fill="currentColor" xmlns="http://www.w3.org/2000/svg">
<g clip-path="url(#clip0_19766_54682)">
<mask id="mask0_19766_54682" style="mask-type:luminance" maskUnits="userSpaceOnUse" x="0" y="0" width="20" height="20">
<path d="M20 0H0V20H20V0Z" fill="white"/>
</mask>
<g mask="url(#mask0_19766_54682)">
<path fill-rule="evenodd" clip-rule="evenodd" d="M8.77931 2.15274C8.67108 2.15274 8.57486 2.10463 8.55081 2.03247L8.2742 1.21467C8.19002 0.962117 8.2742 0.697535 8.53878 0.469032C8.87553 0.180397 9.4528 0 10.006 0C10.5592 0 11.1365 0.180397 11.4732 0.469032C11.7378 0.685508 11.822 0.95009 11.7378 1.21467L11.4612 2.03247C11.4372 2.11666 11.3049 2.16476 11.1846 2.15274C10.5 2 9.5 2 8.83945 2.15274C8.81539 2.15274 8.80337 2.15274 8.77931 2.15274Z"/>
<path fill-rule="evenodd" clip-rule="evenodd" d="M10.006 20C8.61094 20 7.48046 19.086 7.48046 17.9555C7.48046 17.8473 7.5887 17.7631 7.70896 17.7631H12.291C12.4233 17.7631 12.5316 17.8473 12.5316 17.9555C12.5316 19.086 11.4011 20 10.006 20Z"/>
<path fill-rule="evenodd" clip-rule="evenodd" d="M16.4281 14.1654H3.58388C3.40349 14.1654 3.29525 13.985 3.37943 13.8286C4.60613 11.6158 4.38966 10.3788 4.38966 8.02166C4.38966 5.01504 6.91521 2.57367 10.018 2.57367C13.1209 2.57367 15.6464 5.01504 15.6464 8.02166C15.6464 10.3668 15.4299 11.6158 16.6566 13.8286C16.7408 13.985 16.6326 14.1654 16.4522 14.1654H16.4281Z"/>
<path fill-rule="evenodd" clip-rule="evenodd" d="M16.5244 17.1738H3.47565C2.75406 17.1738 2.16476 16.6567 2.16476 16.0193C2.16476 15.3819 2.75406 14.8527 3.47565 14.8527H16.5244C17.2459 14.8527 17.8352 15.3699 17.8352 16.0193C17.8352 16.6687 17.2459 17.1738 16.5244 17.1738Z"/>
<path d="M2.44016 6.91393C2.44016 6.91393 2.368 6.91393 2.34395 6.91393C2.04329 6.8538 1.85086 6.57719 1.91099 6.27653C2.21166 4.68904 3.05351 3.20978 4.26818 2.13943C4.49668 1.93498 4.83342 1.95903 5.03787 2.18754C5.24232 2.41604 5.21827 2.75278 4.98977 2.95723C3.94347 3.87124 3.23391 5.12199 2.98135 6.48098C2.93324 6.74556 2.70474 6.92596 2.45219 6.92596L2.44016 6.91393Z" stroke-width="0.6" stroke-linejoin="round"/>
<path fill-rule="evenodd" clip-rule="evenodd" d="M17.208 6.46896C17.2561 6.73354 17.4846 6.91393 17.7371 6.91393C17.7732 6.91393 17.8093 6.91393 17.8334 6.91393C18.134 6.8538 18.3264 6.57719 18.2663 6.27653C17.9656 4.68904 17.1238 3.20978 15.9091 2.13943C15.6806 1.93498 15.3439 1.95903 15.1394 2.18754C14.935 2.41604 14.959 2.75278 15.1875 2.95723C16.2338 3.87124 16.9434 5.12199 17.196 6.48098L17.208 6.46896Z" stroke-width="0.6" stroke-linejoin="round"/>
</g>
</g>
<defs>
<clipPath id="clip0_19766_54682">
<rect width="20" height="20" fill="white"/>
</clipPath>
</defs>
</svg>
