<svg id="icon" viewBox="0 0 20 20" fill="currentColor" xmlns="http://www.w3.org/2000/svg">
<path d="M17.8197 13.8085C17.749 13.7192 17.6796 13.6299 17.6115 13.5438C16.6748 12.3558 16.1081 11.6388 16.1081 8.27589C16.1081 6.53482 15.7108 5.10625 14.9278 4.03482C14.3504 3.2433 13.57 2.64286 12.5413 2.19911C12.5281 2.19139 12.5163 2.18126 12.5064 2.1692C12.1364 0.870089 11.1239 0 9.98197 0C8.84004 0 7.82797 0.870089 7.45796 2.16786C7.44809 2.17948 7.43643 2.18928 7.42348 2.19688C5.02295 3.23304 3.85632 5.22098 3.85632 8.27455C3.85632 11.6388 3.29046 12.3558 2.3529 13.5424C2.28477 13.6286 2.21537 13.7161 2.14469 13.8071C1.96212 14.038 1.84644 14.3189 1.81136 14.6165C1.77627 14.9141 1.82324 15.2161 1.9467 15.4866C2.20941 16.067 2.76931 16.4272 3.4084 16.4272H16.5602C17.1963 16.4272 17.7524 16.0674 18.016 15.4897C18.14 15.2191 18.1874 14.917 18.1526 14.619C18.1178 14.321 18.0023 14.0397 17.8197 13.8085ZM9.98197 20C10.5972 19.9995 11.2009 19.8244 11.7289 19.4932C12.2569 19.1621 12.6897 18.6873 12.9811 18.1192C12.9949 18.092 13.0017 18.0615 13.0008 18.0307C13 17.9999 12.9916 17.9699 12.9764 17.9435C12.9613 17.9171 12.9398 17.8953 12.9143 17.8802C12.8887 17.865 12.8598 17.8571 12.8304 17.8571H7.13437C7.10496 17.857 7.07603 17.8649 7.05038 17.88C7.02474 17.8951 7.00326 17.9169 6.98804 17.9433C6.97282 17.9697 6.96438 17.9998 6.96354 18.0306C6.96269 18.0614 6.96947 18.0919 6.98322 18.1192C7.27468 18.6872 7.70732 19.162 8.23527 19.4931C8.76321 19.8242 9.36678 19.9994 9.98197 20Z"/>
</svg>
