<svg viewBox="0 0 20 20" xmlns="http://www.w3.org/2000/svg" id="icon">
  <path fill-rule="evenodd" d="M1 3.57143C1 2.88944 1.27092 2.23539 1.75315 1.75315C2.23539 1.27092 2.88944 1 3.57143 1H16.4286C17.1106 1 17.7646 1.27092 18.2468 1.75315C18.7291 2.23539 19 2.88944 19 3.57143V16.4286C19 17.1106 18.7291 17.7646 18.2468 18.2468C17.7646 18.7291 17.1106 19 16.4286 19H3.57143C2.88944 19 2.23539 18.7291 1.75315 18.2468C1.27092 17.7646 1 17.1106 1 16.4286V3.57143ZM15.1429 4.85714H4.85714V15.1429L10 12.5714L15.1429 15.1429V4.85714Z"/>
</svg>
