<svg viewBox="0 0 20 20" xmlns="http://www.w3.org/2000/svg" id="icon">
  <path d="M19.0859 9.77344L15.3125 8.35938V4.12109C15.3125 3.53516 14.9492 3.01172 14.3984 2.80469L10.4922 1.33984C10.1758 1.21875 9.82422 1.21875 9.50391 1.33984L5.59766 2.80469C5.04688 3.01172 4.68359 3.53516 4.68359 4.12109V8.35938L0.910156 9.77344C0.363281 9.98047 0 10.5039 0 11.0898V15.3906C0 15.9219 0.300781 16.4102 0.777344 16.6484L4.68359 18.6016C5.07812 18.8008 5.54688 18.8008 5.94141 18.6016L10 16.5703L14.0586 18.6016C14.4531 18.8008 14.9219 18.8008 15.3164 18.6016L19.2227 16.6484C19.6992 16.4102 20 15.9219 20 15.3906V11.0898C20 10.5039 19.6367 9.98047 19.0859 9.77344ZM13.9844 8.39063L10.6641 9.63672V6.97266L13.9844 5.52734V8.39063ZM6.01562 4.06641L10 2.57422L13.9844 4.06641V4.08984L10 5.70703L6.01562 4.08984V4.06641ZM9.29688 15.4375L5.97656 17.0977V14.0078L9.29688 12.4922V15.4375ZM9.29688 11.0625L5.3125 12.6797L1.32812 11.0625V11.0391L5.3125 9.54688L9.29688 11.0391V11.0625ZM18.6719 15.4375L15.3516 17.0977V14.0078L18.6719 12.4922V15.4375ZM18.6719 11.0625L14.6875 12.6797L10.7031 11.0625V11.0391L14.6875 9.54688L18.6719 11.0391V11.0625Z"/>
</svg>
