<svg viewBox="0 0 20 20" xmlns="http://www.w3.org/2000/svg" id="icon">
  <path fill-rule="evenodd" d="M5.5 2.125C5.5 1.82663 5.61853 1.54048 5.8295 1.3295C6.04048 1.11853 6.32663 1 6.625 1H6.63625C6.93462 1 7.22077 1.11853 7.43175 1.3295C7.64272 1.54048 7.76125 1.82663 7.76125 2.125C7.76125 2.42337 7.64272 2.70952 7.43175 2.9205C7.22077 3.13147 6.93462 3.25 6.63625 3.25H6.625C6.32663 3.25 6.04048 3.13147 5.8295 2.9205C5.61853 2.70952 5.5 2.42337 5.5 2.125ZM7.75 5.5C7.75 5.20163 7.63147 4.91548 7.4205 4.7045C7.20952 4.49353 6.92337 4.375 6.625 4.375C6.32663 4.375 6.04048 4.49353 5.8295 4.7045C5.61853 4.91548 5.5 5.20163 5.5 5.5V6.625C4.90326 6.625 4.33097 6.86205 3.90901 7.28401C3.48705 7.70597 3.25 8.27826 3.25 8.875V10C2.65326 10 2.08097 10.2371 1.65901 10.659C1.23705 11.081 1 11.6533 1 12.25V13.0184C1.42188 13.1367 1.82243 13.3208 2.18688 13.564C2.50173 13.7738 2.87163 13.8858 3.25 13.8858C3.62837 13.8858 3.99827 13.7738 4.31313 13.564C4.99772 13.1075 5.80215 12.8639 6.625 12.8639C7.44785 12.8639 8.25228 13.1075 8.93688 13.564C9.25173 13.7738 9.62163 13.8858 10 13.8858C10.3784 13.8858 10.7483 13.7738 11.0631 13.564C11.7477 13.1075 12.5521 12.8639 13.375 12.8639C14.1979 12.8639 15.0023 13.1075 15.6869 13.564C16.0017 13.7738 16.3716 13.8858 16.75 13.8858C17.1284 13.8858 17.4983 13.7738 17.8131 13.564C18.1776 13.3208 18.5781 13.1367 19 13.0184V12.25C19 11.6533 18.7629 11.081 18.341 10.659C17.919 10.2371 17.3467 10 16.75 10V8.875C16.75 8.27826 16.5129 7.70597 16.091 7.28401C15.669 6.86205 15.0967 6.625 14.5 6.625V5.5C14.5 5.20163 14.3815 4.91548 14.1705 4.7045C13.9595 4.49353 13.6734 4.375 13.375 4.375C13.0766 4.375 12.7905 4.49353 12.5795 4.7045C12.3685 4.91548 12.25 5.20163 12.25 5.5V6.625H11.125V5.5C11.125 5.20163 11.0065 4.91548 10.7955 4.7045C10.5845 4.49353 10.2984 4.375 10 4.375C9.70163 4.375 9.41548 4.49353 9.2045 4.7045C8.99353 4.91548 8.875 5.20163 8.875 5.5V6.625H7.75V5.5ZM19 15.4765C18.318 15.914 17.5233 16.1432 16.713 16.136C15.9028 16.1288 15.1122 15.8855 14.4381 15.436C14.1233 15.2262 13.7534 15.1142 13.375 15.1142C12.9966 15.1142 12.6267 15.2262 12.3119 15.436C11.6273 15.8925 10.8229 16.1361 10 16.1361C9.17715 16.1361 8.37272 15.8925 7.68813 15.436C7.37327 15.2262 7.00337 15.1142 6.625 15.1142C6.24663 15.1142 5.87673 15.2262 5.56187 15.436C4.88776 15.8855 4.0972 16.1288 3.28697 16.136C2.47674 16.1432 1.68199 15.914 1 15.4765V17.875C1 18.1734 1.11853 18.4595 1.3295 18.6705C1.54048 18.8815 1.82663 19 2.125 19H17.875C18.1734 19 18.4595 18.8815 18.6705 18.6705C18.8815 18.4595 19 18.1734 19 17.875V15.4765ZM8.875 2.125C8.875 1.82663 8.99353 1.54048 9.2045 1.3295C9.41548 1.11853 9.70163 1 10 1H10.0113C10.3096 1 10.5958 1.11853 10.8067 1.3295C11.0177 1.54048 11.1363 1.82663 11.1363 2.125C11.1363 2.42337 11.0177 2.70952 10.8067 2.9205C10.5958 3.13147 10.3096 3.25 10.0113 3.25H10C9.70163 3.25 9.41548 3.13147 9.2045 2.9205C8.99353 2.70952 8.875 2.42337 8.875 2.125ZM12.25 2.125C12.25 1.82663 12.3685 1.54048 12.5795 1.3295C12.7905 1.11853 13.0766 1 13.375 1H13.3863C13.6846 1 13.9708 1.11853 14.1817 1.3295C14.3927 1.54048 14.5113 1.82663 14.5113 2.125C14.5113 2.42337 14.3927 2.70952 14.1817 2.9205C13.9708 3.13147 13.6846 3.25 13.3863 3.25H13.375C13.0766 3.25 12.7905 3.13147 12.5795 2.9205C12.3685 2.70952 12.25 2.42337 12.25 2.125Z"/>
</svg>
