<svg viewBox="0 0 20 20" xmlns="http://www.w3.org/2000/svg" id="icon">
  <path fill-rule="evenodd" d="M5.33333 1C4.71449 1 4.121 1.23705 3.68342 1.65901C3.24583 2.08097 3 2.65326 3 3.25V16.75C3 17.3467 3.24583 17.919 3.68342 18.341C4.121 18.7629 4.71449 19 5.33333 19H14.6667C15.2855 19 15.879 18.7629 16.3166 18.341C16.7542 17.919 17 17.3467 17 16.75V3.25C17 2.65326 16.7542 2.08097 16.3166 1.65901C15.879 1.23705 15.2855 1 14.6667 1H5.33333ZM6.5 3.25C6.19058 3.25 5.89383 3.36853 5.67504 3.5795C5.45625 3.79048 5.33333 4.07663 5.33333 4.375C5.33333 4.67337 5.45625 4.95952 5.67504 5.1705C5.89383 5.38147 6.19058 5.5 6.5 5.5H13.5C13.8094 5.5 14.1062 5.38147 14.325 5.1705C14.5437 4.95952 14.6667 4.67337 14.6667 4.375C14.6667 4.07663 14.5437 3.79048 14.325 3.5795C14.1062 3.36853 13.8094 3.25 13.5 3.25H6.5ZM13.5 11.125C13.8094 11.125 14.1062 11.2435 14.325 11.4545C14.5437 11.6655 14.6667 11.9516 14.6667 12.25V15.625C14.6667 15.9234 14.5437 16.2095 14.325 16.4205C14.1062 16.6315 13.8094 16.75 13.5 16.75C13.1906 16.75 12.8938 16.6315 12.675 16.4205C12.4562 16.2095 12.3333 15.9234 12.3333 15.625V12.25C12.3333 11.9516 12.4562 11.6655 12.675 11.4545C12.8938 11.2435 13.1906 11.125 13.5 11.125ZM10 14.5C9.69058 14.5 9.39383 14.6185 9.17504 14.8295C8.95625 15.0405 8.83333 15.3266 8.83333 15.625C8.83333 15.9234 8.95625 16.2095 9.17504 16.4205C9.39383 16.6315 9.69058 16.75 10 16.75H10.0117C10.3211 16.75 10.6178 16.6315 10.8366 16.4205C11.0554 16.2095 11.1783 15.9234 11.1783 15.625C11.1783 15.3266 11.0554 15.0405 10.8366 14.8295C10.6178 14.6185 10.3211 14.5 10.0117 14.5H10ZM5.33333 15.625C5.33333 15.3266 5.45625 15.0405 5.67504 14.8295C5.89383 14.6185 6.19058 14.5 6.5 14.5H6.51167C6.82109 14.5 7.11783 14.6185 7.33662 14.8295C7.55542 15.0405 7.67833 15.3266 7.67833 15.625C7.67833 15.9234 7.55542 16.2095 7.33662 16.4205C7.11783 16.6315 6.82109 16.75 6.51167 16.75H6.5C6.19058 16.75 5.89383 16.6315 5.67504 16.4205C5.45625 16.2095 5.33333 15.9234 5.33333 15.625ZM6.5 11.125C6.19058 11.125 5.89383 11.2435 5.67504 11.4545C5.45625 11.6655 5.33333 11.9516 5.33333 12.25C5.33333 12.5484 5.45625 12.8345 5.67504 13.0455C5.89383 13.2565 6.19058 13.375 6.5 13.375H6.51167C6.82109 13.375 7.11783 13.2565 7.33662 13.0455C7.55542 12.8345 7.67833 12.5484 7.67833 12.25C7.67833 11.9516 7.55542 11.6655 7.33662 11.4545C7.11783 11.2435 6.82109 11.125 6.51167 11.125H6.5ZM8.83333 12.25C8.83333 11.9516 8.95625 11.6655 9.17504 11.4545C9.39383 11.2435 9.69058 11.125 10 11.125H10.0117C10.3211 11.125 10.6178 11.2435 10.8366 11.4545C11.0554 11.6655 11.1783 11.9516 11.1783 12.25C11.1783 12.5484 11.0554 12.8345 10.8366 13.0455C10.6178 13.2565 10.3211 13.375 10.0117 13.375H10C9.69058 13.375 9.39383 13.2565 9.17504 13.0455C8.95625 12.8345 8.83333 12.5484 8.83333 12.25ZM13.5 7.75C13.1906 7.75 12.8938 7.86853 12.675 8.0795C12.4562 8.29048 12.3333 8.57663 12.3333 8.875C12.3333 9.17337 12.4562 9.45952 12.675 9.6705C12.8938 9.88147 13.1906 10 13.5 10H13.5117C13.8211 10 14.1178 9.88147 14.3366 9.6705C14.5554 9.45952 14.6783 9.17337 14.6783 8.875C14.6783 8.57663 14.5554 8.29048 14.3366 8.0795C14.1178 7.86853 13.8211 7.75 13.5117 7.75H13.5ZM8.83333 8.875C8.83333 8.57663 8.95625 8.29048 9.17504 8.0795C9.39383 7.86853 9.69058 7.75 10 7.75H10.0117C10.3211 7.75 10.6178 7.86853 10.8366 8.0795C11.0554 8.29048 11.1783 8.57663 11.1783 8.875C11.1783 9.17337 11.0554 9.45952 10.8366 9.6705C10.6178 9.88147 10.3211 10 10.0117 10H10C9.69058 10 9.39383 9.88147 9.17504 9.6705C8.95625 9.45952 8.83333 9.17337 8.83333 8.875ZM6.5 7.75C6.19058 7.75 5.89383 7.86853 5.67504 8.0795C5.45625 8.29048 5.33333 8.57663 5.33333 8.875C5.33333 9.17337 5.45625 9.45952 5.67504 9.6705C5.89383 9.88147 6.19058 10 6.5 10H6.51167C6.82109 10 7.11783 9.88147 7.33662 9.6705C7.55542 9.45952 7.67833 9.17337 7.67833 8.875C7.67833 8.57663 7.55542 8.29048 7.33662 8.0795C7.11783 7.86853 6.82109 7.75 6.51167 7.75H6.5Z"/>
</svg>
