<svg viewBox="0 0 20 20" xmlns="http://www.w3.org/2000/svg" id="icon">
  <path fill-rule="evenodd" d="M5.5 1C5.20163 1 4.91548 1.11853 4.7045 1.3295C4.49353 1.54048 4.375 1.82663 4.375 2.125V3.25H3.25C2.65326 3.25 2.08097 3.48705 1.65901 3.90901C1.23705 4.33097 1 4.90326 1 5.5V16.75C1 17.3467 1.23705 17.919 1.65901 18.341C2.08097 18.7629 2.65326 19 3.25 19H16.75C17.3467 19 17.919 18.7629 18.341 18.341C18.7629 17.919 19 17.3467 19 16.75V5.5C19 4.90326 18.7629 4.33097 18.341 3.90901C17.919 3.48705 17.3467 3.25 16.75 3.25H15.625V2.125C15.625 1.82663 15.5065 1.54048 15.2955 1.3295C15.0845 1.11853 14.7984 1 14.5 1C14.2016 1 13.9155 1.11853 13.7045 1.3295C13.4935 1.54048 13.375 1.82663 13.375 2.125V3.25H6.625V2.125C6.625 1.82663 6.50647 1.54048 6.2955 1.3295C6.08452 1.11853 5.79837 1 5.5 1ZM5.5 6.625C5.20163 6.625 4.91548 6.74353 4.7045 6.9545C4.49353 7.16548 4.375 7.45163 4.375 7.75C4.375 8.04837 4.49353 8.33452 4.7045 8.5455C4.91548 8.75647 5.20163 8.875 5.5 8.875H14.5C14.7984 8.875 15.0845 8.75647 15.2955 8.5455C15.5065 8.33452 15.625 8.04837 15.625 7.75C15.625 7.45163 15.5065 7.16548 15.2955 6.9545C15.0845 6.74353 14.7984 6.625 14.5 6.625H5.5Z"/>
</svg>
