<svg viewBox="0 0 20 20" xmlns="http://www.w3.org/2000/svg" id="icon">
  <path fill-rule="evenodd" d="M3.25 4.28571C2.65326 4.28571 2.08097 4.52653 1.65901 4.95518C1.23705 5.38384 1 5.96522 1 6.57143V15.7143C1 16.3205 1.23705 16.9019 1.65901 17.3305C2.08097 17.7592 2.65326 18 3.25 18H16.75C17.3467 18 17.919 17.7592 18.341 17.3305C18.7629 16.9019 19 16.3205 19 15.7143V6.57143C19 5.96522 18.7629 5.38384 18.341 4.95518C17.919 4.52653 17.3467 4.28571 16.75 4.28571H14.9657C14.6674 4.28565 14.3813 4.1652 14.1704 3.95086L12.9093 2.66971C12.4874 2.24103 11.9152 2.00013 11.3185 2H8.6815C8.08481 2.00013 7.51261 2.24103 7.09075 2.66971L5.82963 3.95086C5.6187 4.1652 5.33259 4.28565 5.03425 4.28571H3.25ZM10 14.5714C10.4432 14.5714 10.8821 14.4827 11.2916 14.3104C11.701 14.1381 12.0731 13.8856 12.3865 13.5672C12.6999 13.2489 12.9485 12.8709 13.1181 12.4549C13.2877 12.0389 13.375 11.5931 13.375 11.1429C13.375 10.6926 13.2877 10.2468 13.1181 9.8308C12.9485 9.41483 12.6999 9.03686 12.3865 8.71849C12.0731 8.40012 11.701 8.14757 11.2916 7.97527C10.8821 7.80297 10.4432 7.71429 10 7.71429C9.10489 7.71429 8.24645 8.07551 7.61351 8.71849C6.98058 9.36147 6.625 10.2335 6.625 11.1429C6.625 12.0522 6.98058 12.9242 7.61351 13.5672C8.24645 14.2102 9.10489 14.5714 10 14.5714Z"/>
</svg>
