<svg id="icon" viewBox="0 0 20 20" fill="currentColor" xmlns="http://www.w3.org/2000/svg">
<path fill-rule="evenodd" clip-rule="evenodd" d="M6 5V6H4C3.46957 6 2.96086 6.21072 2.58579 6.58579C2.21071 6.96086 2 7.46957 2 8.00001V11.57C4.56037 12.5188 7.2695 13.003 10 13C12.7305 13.003 15.4396 12.5187 18 11.57V8.00001C18 7.46957 17.7893 6.96086 17.4142 6.58579C17.0391 6.21072 16.5304 6 16 6H14V5C14 4.20435 13.6839 3.44129 13.1213 2.87868C12.5587 2.31607 11.7957 2 11 2H9C8.20435 2 7.44129 2.31607 6.87868 2.87868C6.31607 3.44129 6 4.20435 6 5ZM8.2929 4.2929C8.10536 4.48043 8 4.73479 8 5V6H12V5C12 4.73479 11.8946 4.48043 11.7071 4.2929C11.5196 4.10536 11.2652 4 11 4H9C8.73479 4 8.48043 4.10536 8.2929 4.2929ZM9.2929 9.2929C9.10536 9.48044 9 9.73479 9 10C9 10.2652 9.10536 10.5196 9.2929 10.7071C9.48043 10.8947 9.73479 11 10 11H10.01C10.2752 11 10.5296 10.8947 10.7171 10.7071C10.9046 10.5196 11.01 10.2652 11.01 10C11.01 9.73479 10.9046 9.48044 10.7171 9.2929C10.5296 9.10536 10.2752 9.00001 10.01 9.00001H10C9.73479 9.00001 9.48043 9.10536 9.2929 9.2929ZM2 16V13.692C4.513 14.54 7.204 15 10 15C12.7201 15.0026 15.4224 14.5608 18 13.692V16C18 16.5304 17.7893 17.0391 17.4142 17.4142C17.0391 17.7893 16.5304 18 16 18H4C3.46957 18 2.96086 17.7893 2.58579 17.4142C2.21071 17.0391 2 16.5304 2 16Z"/>
</svg>
