<svg viewBox="0 0 20 20" xmlns="http://www.w3.org/2000/svg" id="icon">
  <path fill-rule="evenodd" d="M19 3.25V12.25C19 12.8467 18.7629 13.419 18.341 13.841C17.919 14.2629 17.3467 14.5 16.75 14.5H11.125L5.5 19V14.5H3.25C2.65326 14.5 2.08097 14.2629 1.65901 13.841C1.23705 13.419 1 12.8467 1 12.25V3.25C1 2.65326 1.23705 2.08097 1.65901 1.65901C2.08097 1.23705 2.65326 1 3.25 1H16.75C17.3467 1 17.919 1.23705 18.341 1.65901C18.7629 2.08097 19 2.65326 19 3.25ZM6.625 6.625H4.375V8.875H6.625V6.625ZM8.875 6.625H11.125V8.875H8.875V6.625ZM15.625 6.625H13.375V8.875H15.625V6.625Z"/>
</svg>
