<svg id="icon" viewBox="0 0 10 10" fill="currentColor" xmlns="http://www.w3.org/2000/svg">
<path d="M9.96923 2.43915C9.97208 2.7669 9.84609 3.08265 9.61839 3.3184L4.61839 8.3184C4.38398 8.55274 4.0661 8.68439 3.73464 8.68439C3.40318 8.68439 3.0853 8.55274 2.85089 8.3184L0.35089 5.8184C0.123193 5.58265 -0.00280077 5.2669 4.72531e-05 4.93915C0.00289528 4.61141 0.134357 4.29789 0.366117 4.06613C0.597877 3.83437 0.911393 3.70291 1.23914 3.70006C1.56688 3.69721 1.88264 3.8232 2.11839 4.0509L3.73464 5.66715L7.85089 1.5509C8.08664 1.3232 8.40239 1.19721 8.73014 1.20006C9.05789 1.20291 9.3714 1.33437 9.60316 1.56613C9.83492 1.79789 9.96638 2.11141 9.96923 2.43915Z"/>
</svg>
