<svg viewBox="0 0 20 20" xmlns="http://www.w3.org/2000/svg" id="icon">
  <path fill-rule="evenodd" d="M19.5814 3.40992C19.8494 3.67247 20 4.02851 20 4.39976C20 4.77101 19.8494 5.12705 19.5814 5.3896L8.14257 16.5901C7.87444 16.8526 7.51082 17 7.13167 17C6.75253 17 6.38891 16.8526 6.12077 16.5901L0.401375 10.9898C0.140917 10.7258 -0.00320374 10.3721 5.4052e-05 10.005C0.00331185 9.63795 0.153687 9.2868 0.418793 9.02721C0.683898 8.76763 1.04252 8.62039 1.41742 8.6172C1.79233 8.61401 2.15351 8.75513 2.42318 9.01016L7.13167 13.6206L17.5596 3.40992C17.8277 3.14745 18.1913 3 18.5705 3C18.9496 3 19.3132 3.14745 19.5814 3.40992Z"/>
</svg>
