<svg id="icon" viewBox="0 0 20 20" fill="currentColor" xmlns="http://www.w3.org/2000/svg">
<path fill-rule="evenodd" clip-rule="evenodd" d="M1.52638 5.05857C1.86352 4.71556 2.32073 4.52287 2.79744 4.52287C3.27416 4.52287 3.73137 4.71556 4.06851 5.05857L9.98876 11.0836L15.909 5.05857C16.0749 4.88382 16.2732 4.74443 16.4926 4.64854C16.7119 4.55265 16.9478 4.50218 17.1865 4.50007C17.4253 4.49796 17.662 4.54425 17.8829 4.63625C18.1039 4.72824 18.3046 4.8641 18.4734 5.03589C18.6422 5.20768 18.7757 5.41197 18.8661 5.63682C18.9565 5.86168 19.002 6.10261 18.9999 6.34555C18.9979 6.58849 18.9483 6.82858 18.854 7.0518C18.7598 7.27503 18.6229 7.47692 18.4511 7.6457L11.2598 14.9643C10.9227 15.3073 10.4655 15.5 9.98876 15.5C9.51204 15.5 9.05484 15.3073 8.7177 14.9643L1.52638 7.6457C1.18934 7.30259 1 6.83729 1 6.35213C1 5.86698 1.18934 5.40168 1.52638 5.05857V5.05857Z"/>
</svg>
