<svg id="icon" viewBox="0 0 20 20" fill="currentColor" xmlns="http://www.w3.org/2000/svg">
<path fill-rule="evenodd" clip-rule="evenodd" d="M5.12765 18.4723C4.78978 18.1344 4.59998 17.676 4.59998 17.1981C4.59998 16.7202 4.78978 16.2619 5.12765 15.9239L11.0625 9.98912L5.12765 4.0543C4.79936 3.71439 4.6177 3.25914 4.6218 2.78659C4.62591 2.31405 4.81545 1.86202 5.1496 1.52787C5.48376 1.19372 5.93579 1.00417 6.40833 1.00007C6.88088 0.995962 7.33613 1.17762 7.67604 1.50591L14.885 8.71493C15.2229 9.0529 15.4127 9.51123 15.4127 9.98912C15.4127 10.467 15.2229 10.9253 14.885 11.2633L7.67604 18.4723C7.33806 18.8102 6.87974 19 6.40184 19C5.92395 19 5.46562 18.8102 5.12765 18.4723Z"/>
</svg>
