<svg viewBox="0 0 20 20" xmlns="http://www.w3.org/2000/svg" id="icon">
  <path fill-rule="evenodd" d="M19.5308 18.7129C19.2425 19.0011 18.8516 19.163 18.4441 19.163C18.0365 19.163 17.6456 19.0011 17.3574 18.7129L9.67223 11.0278C9.38408 10.7395 9.2222 10.3487 9.2222 9.94109C9.2222 9.53352 9.38408 9.14264 9.67223 8.8544L17.3574 1.16924C17.4992 1.02243 17.6688 0.905338 17.8563 0.824784C18.0438 0.744229 18.2455 0.701828 18.4496 0.700055C18.6537 0.698282 18.8561 0.737171 19.045 0.814454C19.2339 0.891738 19.4055 1.00587 19.5498 1.15018C19.6941 1.2945 19.8083 1.46611 19.8855 1.65501C19.9628 1.8439 20.0017 2.0463 19.9999 2.25039C19.9982 2.45447 19.9558 2.65616 19.8752 2.84369C19.7947 3.03121 19.6776 3.20081 19.5308 3.3426L12.9323 9.94109L19.5308 16.5396C19.8189 16.8278 19.9808 17.2187 19.9808 17.6263C19.9808 18.0338 19.8189 18.4247 19.5308 18.7129ZM10.3086 18.7129C10.0203 19.0011 9.62944 19.163 9.22187 19.163C8.81431 19.163 8.42343 19.0011 8.13519 18.7129L0.450023 11.0278C0.161873 10.7395 0 10.3487 0 9.94109C0 9.53352 0.161873 9.14264 0.450023 8.8544L8.13519 1.16924C8.42508 0.889252 8.81334 0.734327 9.21634 0.737829C9.61935 0.741331 10.0049 0.90298 10.2898 1.18796C10.5748 1.47294 10.7365 1.85844 10.74 2.26145C10.7435 2.66445 10.5885 3.05271 10.3086 3.3426L3.71007 9.94109L10.3086 16.5396C10.5967 16.8278 10.7586 17.2187 10.7586 17.6263C10.7586 18.0338 10.5967 18.4247 10.3086 18.7129Z"/>
</svg>
