<svg id="icon" viewBox="0 0 20 20" fill="currentColor" xmlns="http://www.w3.org/2000/svg">
<path fill-rule="evenodd" clip-rule="evenodd" d="M14.7851 1.52768C15.1229 1.86565 15.3127 2.32398 15.3127 2.80187C15.3127 3.27976 15.1229 3.73809 14.7851 4.07606L8.85025 10.0109L14.7851 15.9457C15.1134 16.2856 15.295 16.7409 15.2909 17.2134C15.2868 17.686 15.0973 18.138 14.7631 18.4721C14.429 18.8063 13.9769 18.9958 13.5044 18.9999C13.0318 19.004 12.5766 18.8224 12.2367 18.4941L5.02768 11.2851C4.68981 10.9471 4.5 10.4888 4.5 10.0109C4.5 9.53299 4.68981 9.07466 5.02768 8.73669L12.2367 1.52768C12.5747 1.18981 13.033 1 13.5109 1C13.9888 1 14.4471 1.18981 14.7851 1.52768V1.52768Z"/>
</svg>
