<svg id="icon" viewBox="0 0 20 20" fill="currentColor" xmlns="http://www.w3.org/2000/svg">
<path fill-rule="evenodd" clip-rule="evenodd" d="M18.4723 14.9632C18.1344 15.3069 17.676 15.5 17.1981 15.5C16.7202 15.5 16.2619 15.3069 15.9239 14.9632L9.98912 8.92559L4.0543 14.9632C3.71439 15.2972 3.25914 15.482 2.78659 15.4778C2.31405 15.4736 1.86202 15.2808 1.52787 14.9409C1.19372 14.6009 1.00417 14.1411 1.00007 13.6603C0.995962 13.1796 1.17762 12.7165 1.50591 12.3707L8.71493 5.03681C9.0529 4.69309 9.51123 4.5 9.98912 4.5C10.467 4.5 10.9253 4.69309 11.2633 5.03681L18.4723 12.3707C18.8102 12.7145 19 13.1808 19 13.6669C19 14.1531 18.8102 14.6194 18.4723 14.9632V14.9632Z"/>
</svg>
