<svg viewBox="0 0 20 20" xmlns="http://www.w3.org/2000/svg" id="icon">
  <path fill-rule="evenodd" d="M19.4137 15.6258C19.0382 16.0077 18.5289 16.2222 17.9979 16.2222C17.4669 16.2222 16.9577 16.0077 16.5822 15.6258L9.98791 8.91732L3.39367 15.6258C3.01599 15.9969 2.51015 16.2022 1.9851 16.1975C1.46005 16.1929 0.957801 15.9787 0.58652 15.6009C0.21524 15.2232 0.00463824 14.7123 7.56996e-05 14.1781C-0.00448684 13.644 0.197355 13.1294 0.562127 12.7452L8.57214 4.59646C8.94767 4.21455 9.45692 4 9.98791 4C10.5189 4 11.0282 4.21455 11.4037 4.59646L19.4137 12.7452C19.7891 13.1272 20 13.6453 20 14.1855C20 14.7257 19.7891 15.2437 19.4137 15.6258Z"/>
</svg>
