<svg viewBox="0 0 20 20" xmlns="http://www.w3.org/2000/svg" id="icon">
  <path fill-rule="evenodd" d="M7.36608 0.366114C7.6005 0.131695 7.91844 0 8.24996 0H11.7499C12.0815 0 12.3994 0.131695 12.6338 0.366114C12.8682 0.600533 12.9999 0.918474 12.9999 1.24999C12.9999 1.58151 12.8682 1.89945 12.6338 2.13387C12.3994 2.36829 12.0815 2.49998 11.7499 2.49998H8.24996C7.91844 2.49998 7.6005 2.36829 7.36608 2.13387C7.13166 1.89945 6.99997 1.58151 6.99997 1.24999C6.99997 0.918474 7.13166 0.600533 7.36608 0.366114ZM2.73223 1.98222C2.26339 2.45106 2 3.08694 2 3.74998V17.4999C2 18.1629 2.26339 18.7988 2.73223 19.2676C3.20107 19.7365 3.83695 19.9999 4.49998 19.9999H15.4999C16.163 19.9999 16.7988 19.7365 17.2677 19.2676C17.7365 18.7988 17.9999 18.1629 17.9999 17.4999V3.74998C17.9999 3.08694 17.7365 2.45106 17.2677 1.98222C16.7988 1.51338 16.163 1.24999 15.4999 1.24999C15.4999 2.24455 15.1048 3.19837 14.4016 3.90163C13.6983 4.60488 12.7445 4.99997 11.7499 4.99997H8.24996C7.25541 4.99997 6.30158 4.60488 5.59833 3.90163C4.89507 3.19837 4.49998 2.24455 4.49998 1.24999C3.83695 1.24999 3.20107 1.51338 2.73223 1.98222ZM4.8661 9.11606C5.10052 8.88164 5.41846 8.74994 5.74998 8.74994H5.76248C6.094 8.74994 6.41194 8.88164 6.64635 9.11606C6.88077 9.35048 7.01247 9.66842 7.01247 9.99994C7.01247 10.3315 6.88077 10.6494 6.64635 10.8838C6.41194 11.1182 6.094 11.2499 5.76248 11.2499H5.74998C5.41846 11.2499 5.10052 11.1182 4.8661 10.8838C4.63168 10.6494 4.49998 10.3315 4.49998 9.99994C4.49998 9.66842 4.63168 9.35048 4.8661 9.11606ZM8.61608 9.11606C8.85049 8.88164 9.16844 8.74994 9.49995 8.74994H14.2499C14.5814 8.74994 14.8994 8.88164 15.1338 9.11606C15.3682 9.35048 15.4999 9.66842 15.4999 9.99994C15.4999 10.3315 15.3682 10.6494 15.1338 10.8838C14.8994 11.1182 14.5814 11.2499 14.2499 11.2499H9.49995C9.16844 11.2499 8.85049 11.1182 8.61608 10.8838C8.38166 10.6494 8.24996 10.3315 8.24996 9.99994C8.24996 9.66842 8.38166 9.35048 8.61608 9.11606ZM4.8661 14.116C5.10052 13.8816 5.41846 13.7499 5.74998 13.7499H5.76248C6.094 13.7499 6.41194 13.8816 6.64635 14.116C6.88077 14.3504 7.01247 14.6684 7.01247 14.9999C7.01247 15.3314 6.88077 15.6494 6.64635 15.8838C6.41194 16.1182 6.094 16.2499 5.76248 16.2499H5.74998C5.41846 16.2499 5.10052 16.1182 4.8661 15.8838C4.63168 15.6494 4.49998 15.3314 4.49998 14.9999C4.49998 14.6684 4.63168 14.3504 4.8661 14.116ZM8.61608 14.116C8.85049 13.8816 9.16844 13.7499 9.49995 13.7499H14.2499C14.5814 13.7499 14.8994 13.8816 15.1338 14.116C15.3682 14.3504 15.4999 14.6684 15.4999 14.9999C15.4999 15.3314 15.3682 15.6494 15.1338 15.8838C14.8994 16.1182 14.5814 16.2499 14.2499 16.2499H9.49995C9.16844 16.2499 8.85049 16.1182 8.61608 15.8838C8.38166 15.6494 8.24996 15.3314 8.24996 14.9999C8.24996 14.6684 8.38166 14.3504 8.61608 14.116Z"/>
</svg>
