<svg id="icon" viewBox="0 0 20 20" fill="currentColor" xmlns="http://www.w3.org/2000/svg">
<path fill-rule="evenodd" clip-rule="evenodd" d="M8.00838 1.00833C8.22717 0.789542 8.52391 0.666626 8.83333 0.666626H11.1667C11.4761 0.666626 11.7728 0.789542 11.9916 1.00833C12.2104 1.22713 12.3333 1.52387 12.3333 1.83329C12.3333 2.14271 12.2104 2.43946 11.9916 2.65825C11.7728 2.87704 11.4761 2.99996 11.1667 2.99996H8.83333C8.52391 2.99996 8.22717 2.87704 8.00838 2.65825C7.78958 2.43946 7.66667 2.14271 7.66667 1.83329C7.66667 1.52387 7.78958 1.22713 8.00838 1.00833ZM3.68342 2.51671C3.24583 2.95429 3 3.54779 3 4.16663V17C3 17.6188 3.24583 18.2123 3.68342 18.6499C4.121 19.0875 4.71449 19.3333 5.33333 19.3333H14.6667C15.2855 19.3333 15.879 19.0875 16.3166 18.6499C16.7542 18.2123 17 17.6188 17 17V4.16663C17 3.54779 16.7542 2.95429 16.3166 2.51671C15.879 2.07913 15.2855 1.83329 14.6667 1.83329C14.6667 2.76155 14.2979 3.65179 13.6415 4.30817C12.9852 4.96454 12.0949 5.33329 11.1667 5.33329H8.83333C7.90508 5.33329 7.01484 4.96454 6.35846 4.30817C5.70208 3.65179 5.33333 2.76155 5.33333 1.83329C4.71449 1.83329 4.121 2.07913 3.68342 2.51671ZM5.67504 9.175C5.89383 8.95621 6.19058 8.83329 6.5 8.83329H6.51167C6.82109 8.83329 7.11783 8.95621 7.33662 9.175C7.55542 9.39379 7.67833 9.69054 7.67833 9.99996C7.67833 10.3094 7.55542 10.6061 7.33662 10.8249C7.11783 11.0437 6.82109 11.1666 6.51167 11.1666H6.5C6.19058 11.1666 5.89383 11.0437 5.67504 10.8249C5.45625 10.6061 5.33333 10.3094 5.33333 9.99996C5.33333 9.69054 5.45625 9.39379 5.67504 9.175ZM9.17504 9.175C9.39383 8.95621 9.69058 8.83329 10 8.83329H13.5C13.8094 8.83329 14.1062 8.95621 14.325 9.175C14.5437 9.39379 14.6667 9.69054 14.6667 9.99996C14.6667 10.3094 14.5437 10.6061 14.325 10.8249C14.1062 11.0437 13.8094 11.1666 13.5 11.1666H10C9.69058 11.1666 9.39383 11.0437 9.17504 10.8249C8.95625 10.6061 8.83333 10.3094 8.83333 9.99996C8.83333 9.69054 8.95625 9.39379 9.17504 9.175ZM5.67504 13.8417C5.89383 13.6229 6.19058 13.5 6.5 13.5H6.51167C6.82109 13.5 7.11783 13.6229 7.33662 13.8417C7.55542 14.0605 7.67833 14.3572 7.67833 14.6666C7.67833 14.976 7.55542 15.2728 7.33662 15.4916C7.11783 15.7104 6.82109 15.8333 6.51167 15.8333H6.5C6.19058 15.8333 5.89383 15.7104 5.67504 15.4916C5.45625 15.2728 5.33333 14.976 5.33333 14.6666C5.33333 14.3572 5.45625 14.0605 5.67504 13.8417ZM9.17504 13.8417C9.39383 13.6229 9.69058 13.5 10 13.5H13.5C13.8094 13.5 14.1062 13.6229 14.325 13.8417C14.5437 14.0605 14.6667 14.3572 14.6667 14.6666C14.6667 14.976 14.5437 15.2728 14.325 15.4916C14.1062 15.7104 13.8094 15.8333 13.5 15.8333H10C9.69058 15.8333 9.39383 15.7104 9.17504 15.4916C8.95625 15.2728 8.83333 14.976 8.83333 14.6666C8.83333 14.3572 8.95625 14.0605 9.17504 13.8417Z"/>
</svg>
