<svg viewBox="0 0 20 20" xmlns="http://www.w3.org/2000/svg" id="icon">
  <path fill-rule="evenodd" d="M7.4777 0.325437C7.69203 0.117063 7.98272 0 8.28583 0H11.7144C12.0175 0 12.3082 0.117063 12.5225 0.325437C12.7368 0.533811 12.8573 0.816426 12.8573 1.11111C12.8573 1.4058 12.7368 1.68841 12.5225 1.89679C12.3082 2.10516 12.0175 2.22222 11.7144 2.22222H8.28583C7.98272 2.22222 7.69203 2.10516 7.4777 1.89679C7.26338 1.68841 7.14297 1.4058 7.14297 1.11111C7.14297 0.816426 7.26338 0.533811 7.4777 0.325437ZM2.78105 1.84877C2.28095 2.32108 2 2.96168 2 3.62963V17.4815C2 18.1494 2.28095 18.79 2.78105 19.2623C3.28115 19.7347 3.95942 20 4.66667 20H15.3333C16.0406 20 16.7189 19.7347 17.219 19.2623C17.719 18.79 18 18.1494 18 17.4815V3.62963C18 2.96168 17.719 2.32108 17.219 1.84877C16.7189 1.37645 16.0406 1.11111 15.3333 1.11111C15.3333 2.11304 14.9119 3.07393 14.1618 3.7824C13.4116 4.49087 12.3942 4.88889 11.3333 4.88889H8.66667C7.6058 4.88889 6.58839 4.49087 5.83824 3.7824C5.08809 3.07393 4.66667 2.11304 4.66667 1.11111C3.95942 1.11111 3.28115 1.37645 2.78105 1.84877ZM14.8905 9.87949C14.8935 10.2097 14.7591 10.5278 14.5162 10.7652L9.60933 15.8533C9.3593 16.0893 9.02022 16.222 8.66667 16.222C8.31311 16.222 7.97404 16.0893 7.724 15.8533L5.37423 13.3858C5.13136 13.1483 4.99696 12.8302 5 12.5C5.00304 12.1698 5.14326 11.854 5.39047 11.6205C5.63769 11.387 5.9721 11.2546 6.3217 11.2517C6.67129 11.2489 7.0081 11.3758 7.25957 11.6052L8.66667 13.1824L12.6309 8.98466C12.8824 8.75527 13.2192 8.62835 13.5688 8.63122C13.9184 8.63408 14.2528 8.76652 14.5 9C14.7472 9.23347 14.8874 9.54931 14.8905 9.87949Z"/>
</svg>
