<svg viewBox="0 0 20 20" xmlns="http://www.w3.org/2000/svg" id="icon">
  <path fill-rule="evenodd" d="M10 20C12.6522 20 15.1957 18.9464 17.0711 17.0711C18.9464 15.1957 20 12.6522 20 10C20 7.34784 18.9464 4.8043 17.0711 2.92893C15.1957 1.05357 12.6522 0 10 0C7.34784 0 4.8043 1.05357 2.92893 2.92893C1.05357 4.8043 0 7.34784 0 10C0 12.6522 1.05357 15.1957 2.92893 17.0711C4.8043 18.9464 7.34784 20 10 20ZM11.25 5C11.25 4.66848 11.1183 4.35054 10.8839 4.11612C10.6495 3.8817 10.3315 3.75 10 3.75C9.66848 3.75 9.35054 3.8817 9.11612 4.11612C8.8817 4.35054 8.75 4.66848 8.75 5V10C8.75007 10.3315 8.88181 10.6494 9.11625 10.8837L12.6513 14.42C12.7674 14.5361 12.9053 14.6283 13.057 14.6911C13.2087 14.754 13.3714 14.7863 13.5356 14.7863C13.6999 14.7863 13.8625 14.754 14.0142 14.6911C14.166 14.6283 14.3039 14.5361 14.42 14.42C14.5361 14.3039 14.6283 14.166 14.6911 14.0142C14.754 13.8625 14.7863 13.6999 14.7863 13.5356C14.7863 13.3714 14.754 13.2087 14.6911 13.057C14.6283 12.9053 14.5361 12.7674 14.42 12.6513L11.25 9.4825V5Z"/>
</svg>
