<svg viewBox="0 0 20 20" xmlns="http://www.w3.org/2000/svg" id="icon">
  <path fill-rule="evenodd" d="M2 9.49999C2 10.4283 2.36875 11.3185 3.02513 11.9749C3.6815 12.6312 4.57174 13 5.5 13H9V15.586L7.707 14.293C7.5184 14.1108 7.2658 14.01 7.0036 14.0123C6.7414 14.0146 6.49059 14.1198 6.30518 14.3052C6.11977 14.4906 6.0146 14.7414 6.01233 15.0036C6.01005 15.2658 6.11084 15.5184 6.293 15.707L9.293 18.707C9.48053 18.8945 9.73484 18.9998 10 18.9998C10.2652 18.9998 10.5195 18.8945 10.707 18.707L13.707 15.707C13.8892 15.5184 13.99 15.2658 13.9877 15.0036C13.9854 14.7414 13.8802 14.4906 13.6948 14.3052C13.5094 14.1198 13.2586 14.0146 12.9964 14.0123C12.7342 14.01 12.4816 14.1108 12.293 14.293L11 15.586V13H13.5C14.1167 12.9996 14.7268 12.8725 15.2924 12.6265C15.8579 12.3805 16.3668 12.0209 16.7876 11.5699C17.2083 11.119 17.5319 10.5864 17.7382 10.0052C17.9445 9.42397 18.0291 8.80656 17.9868 8.19128C17.9445 7.576 17.7761 6.97598 17.4922 6.42848C17.2083 5.88097 16.8149 5.39767 16.3364 5.00858C15.8579 4.61949 15.3045 4.33291 14.7106 4.16663C14.1167 4.00035 13.495 3.95793 12.884 4.04199C12.7659 3.52058 12.5445 3.02811 12.2329 2.59367C11.9214 2.15923 11.5259 1.79162 11.0699 1.51255C10.6139 1.23347 10.1066 1.0486 9.57795 0.968834C9.04931 0.88907 8.51005 0.916034 7.99201 1.04813C7.47396 1.18024 6.98763 1.41479 6.56174 1.73796C6.13585 2.06113 5.77903 2.46636 5.51234 2.92971C5.24565 3.39307 5.07451 3.90516 5.00901 4.43576C4.94351 4.96635 4.98499 5.50469 5.131 6.01899C4.27136 6.11013 3.47586 6.51618 2.89776 7.1589C2.31967 7.80162 1.99988 8.63554 2 9.49999ZM11 13H9V7.99999C9 7.73478 9.10536 7.48042 9.29289 7.29289C9.48043 7.10535 9.73478 6.99999 10 6.99999C10.2652 6.99999 10.5196 7.10535 10.7071 7.29289C10.8946 7.48042 11 7.73478 11 7.99999V13Z"/>
</svg>
