<svg viewBox="0 0 20 20" xmlns="http://www.w3.org/2000/svg" id="icon">
  <path d="M4.36925 18C3.24991 17.9984 2.17371 17.5381 1.36209 16.7137C0.550479 15.8893 0.0651977 14.7637 0.0061057 13.5683C-0.0529863 12.3729 0.318606 11.1987 1.04442 10.2875C1.77023 9.37617 2.79505 8.79705 3.908 8.66927C3.5803 7.29492 3.77653 5.83763 4.45354 4.618C5.13054 3.39837 6.23287 2.5163 7.51801 2.16584C8.80315 1.81538 10.1658 2.02524 11.3063 2.74924C12.4467 3.47325 13.2716 4.6521 13.5993 6.02646C14.3636 5.91265 15.1416 5.96824 15.885 6.18977C16.6283 6.4113 17.3211 6.79403 17.9202 7.31416C18.5193 7.83428 19.012 8.48068 19.3675 9.21314C19.723 9.9456 19.9338 10.7485 19.9867 11.5718C20.0397 12.3951 19.9337 13.2212 19.6753 13.9988C19.4169 14.7764 19.0116 15.4889 18.4847 16.0918C17.9578 16.6948 17.3205 17.1753 16.6125 17.5036C15.9045 17.8319 15.1409 18.0008 14.3693 18H4.36925Z"/>
</svg>
