<svg viewBox="0 0 20 20" xmlns="http://www.w3.org/2000/svg" id="icon">
  <path fill-rule="evenodd" d="M0.732233 3.23223C1.20107 2.76339 1.83696 2.5 2.5 2.5H17.5C18.163 2.5 18.7989 2.76339 19.2678 3.23223C19.7366 3.70107 20 4.33696 20 5V6.25H0V5C0 4.33696 0.263392 3.70107 0.732233 3.23223ZM0 8.75H20V15C20 15.663 19.7366 16.2989 19.2678 16.7678C18.7989 17.2366 18.163 17.5 17.5 17.5H2.5C1.83696 17.5 1.20107 17.2366 0.732233 16.7678C0.263392 16.2989 0 15.663 0 15V8.75ZM2.86612 12.8661C2.6317 13.1005 2.5 13.4185 2.5 13.75C2.5 14.0815 2.6317 14.3995 2.86612 14.6339C3.10054 14.8683 3.41848 15 3.75 15H5C5.33152 15 5.64946 14.8683 5.88388 14.6339C6.1183 14.3995 6.25 14.0815 6.25 13.75C6.25 13.4185 6.1183 13.1005 5.88388 12.8661C5.64946 12.6317 5.33152 12.5 5 12.5H3.75C3.41848 12.5 3.10054 12.6317 2.86612 12.8661ZM7.86612 12.8661C8.10054 12.6317 8.41848 12.5 8.75 12.5H10C10.3315 12.5 10.6495 12.6317 10.8839 12.8661C11.1183 13.1005 11.25 13.4185 11.25 13.75C11.25 14.0815 11.1183 14.3995 10.8839 14.6339C10.6495 14.8683 10.3315 15 10 15H8.75C8.41848 15 8.10054 14.8683 7.86612 14.6339C7.6317 14.3995 7.5 14.0815 7.5 13.75C7.5 13.4185 7.6317 13.1005 7.86612 12.8661Z"/>
</svg>
