<svg viewBox="0 0 20 20" xmlns="http://www.w3.org/2000/svg" id="icon">
  <path fill-rule="evenodd" d="M9.442 0.146301C9.61195 0.0504275 9.80428 0 10 0C10.1957 0 10.3881 0.0504275 10.558 0.146301L12.5268 1.25736C12.6587 1.32778 12.775 1.42355 12.869 1.53903C12.9629 1.65451 13.0325 1.78737 13.0736 1.92979C13.1148 2.07222 13.1267 2.22134 13.1087 2.36839C13.0907 2.51543 13.043 2.65743 12.9686 2.78603C12.8942 2.91464 12.7945 3.02725 12.6754 3.11724C12.5563 3.20724 12.4202 3.27281 12.275 3.31008C12.1299 3.34736 11.9786 3.3556 11.8302 3.33432C11.6818 3.31303 11.5392 3.26266 11.4108 3.18615L10 2.39063L8.58925 3.18615C8.46083 3.26266 8.31822 3.31303 8.1698 3.33432C8.02138 3.3556 7.87015 3.34736 7.725 3.31008C7.57985 3.27281 7.44371 3.20724 7.32459 3.11724C7.20547 3.02725 7.10577 2.91464 7.03136 2.78603C6.95696 2.65743 6.90933 2.51543 6.8913 2.36839C6.87327 2.22134 6.88519 2.07222 6.92636 1.92979C6.96753 1.78737 7.03712 1.65451 7.13104 1.53903C7.22496 1.42355 7.34131 1.32778 7.47325 1.25736L9.442 0.146301ZM5.07025 3.89278C5.21816 4.14857 5.25716 4.4519 5.17868 4.73608C5.10021 5.02026 4.91067 5.26204 4.65175 5.40825L4.393 5.55491L4.65175 5.70157C4.7837 5.772 4.90005 5.86776 4.99397 5.98324C5.08789 6.09872 5.15748 6.23158 5.19865 6.37401C5.23982 6.51644 5.25174 6.66556 5.23371 6.8126C5.21567 6.95965 5.16805 7.10165 5.09364 7.23025C5.01923 7.35885 4.91954 7.47146 4.80042 7.56146C4.6813 7.65146 4.54516 7.71702 4.40001 7.7543C4.25486 7.79158 4.10363 7.79982 3.95521 7.77854C3.80679 7.75725 3.66417 7.70687 3.53575 7.63036L3.25 7.46926V7.77702C3.25 8.07169 3.13148 8.35429 2.9205 8.56266C2.70952 8.77102 2.42337 8.88808 2.12501 8.88808C1.82664 8.88808 1.54049 8.77102 1.32951 8.56266C1.11853 8.35429 1.00001 8.07169 1.00001 7.77702V5.55491C0.999376 5.35532 1.05342 5.15928 1.1564 4.98755C1.25939 4.81582 1.40748 4.67479 1.58501 4.57941L3.53575 3.47946C3.79476 3.33339 4.10189 3.29487 4.38964 3.37238C4.67739 3.44988 4.9222 3.63707 5.07025 3.89278ZM14.9298 3.89278C15.0778 3.63707 15.3226 3.44988 15.6104 3.37238C15.8981 3.29487 16.2052 3.33339 16.4643 3.47946L18.4139 4.57941C18.5911 4.6752 18.7391 4.81629 18.8422 4.98791C18.9453 5.15952 18.9998 5.35536 19 5.55491V7.77702C19 8.07169 18.8815 8.35429 18.6705 8.56266C18.4595 8.77102 18.1734 8.88808 17.875 8.88808C17.5766 8.88808 17.2905 8.77102 17.0795 8.56266C16.8685 8.35429 16.75 8.07169 16.75 7.77702V7.46926L16.4643 7.63036C16.3358 7.70687 16.1932 7.75725 16.0448 7.77854C15.8964 7.79982 15.7451 7.79158 15.6 7.7543C15.4548 7.71702 15.3187 7.65146 15.1996 7.56146C15.0805 7.47146 14.9808 7.35885 14.9064 7.23025C14.832 7.10165 14.7843 6.95965 14.7663 6.8126C14.7483 6.66556 14.7602 6.51644 14.8014 6.37401C14.8425 6.23158 14.9121 6.09872 15.006 5.98324C15.1 5.86776 15.2163 5.772 15.3483 5.70157L15.607 5.55491L15.3483 5.40825C15.0893 5.26204 14.8998 5.02026 14.8213 4.73608C14.7428 4.4519 14.7818 4.14857 14.9298 3.89278ZM7.05475 8.33699C7.2028 8.08128 7.44761 7.8941 7.73536 7.8166C8.02311 7.73909 8.33025 7.77761 8.58925 7.92368L10 8.7192L11.4108 7.92368C11.5392 7.84717 11.6818 7.79679 11.8302 7.77551C11.9786 7.75422 12.1299 7.76246 12.275 7.79974C12.4202 7.83702 12.5563 7.90259 12.6754 7.99258C12.7945 8.08258 12.8942 8.19519 12.9686 8.3238C13.043 8.4524 13.0907 8.5944 13.1087 8.74144C13.1267 8.88848 13.1148 9.03761 13.0736 9.18003C13.0325 9.32246 12.9629 9.45532 12.869 9.5708C12.775 9.68628 12.6587 9.78205 12.5268 9.85247L11.125 10.6435V12.2212C11.125 12.5159 11.0065 12.7985 10.7955 13.0069C10.5845 13.2152 10.2984 13.3323 10 13.3323C9.70163 13.3323 9.41549 13.2152 9.20451 13.0069C8.99353 12.7985 8.875 12.5159 8.875 12.2212V10.6435L7.47325 9.85247C7.21433 9.70626 7.0248 9.46448 6.94632 9.1803C6.86785 8.89612 6.90685 8.59279 7.05475 8.33699ZM2.12501 11.1102C2.42337 11.1102 2.70952 11.2272 2.9205 11.4356C3.13148 11.644 3.25 11.9266 3.25 12.2212V13.7989L4.65175 14.59C4.7837 14.6604 4.90005 14.7562 4.99397 14.8717C5.08789 14.9872 5.15748 15.12 5.19865 15.2624C5.23982 15.4049 5.25174 15.554 5.23371 15.701C5.21567 15.8481 5.16805 15.9901 5.09364 16.1187C5.01923 16.2473 4.91954 16.3599 4.80042 16.4499C4.6813 16.5399 4.54516 16.6055 4.40001 16.6427C4.25486 16.68 4.10363 16.6883 3.95521 16.667C3.80679 16.6457 3.66417 16.5953 3.53575 16.5188L1.56701 15.4077C1.39482 15.3106 1.25169 15.1702 1.15212 15.0009C1.05255 14.8315 1.00007 14.6392 1.00001 14.4433V12.2212C1.00001 11.9266 1.11853 11.644 1.32951 11.4356C1.54049 11.2272 1.82664 11.1102 2.12501 11.1102ZM17.875 11.1102C18.1734 11.1102 18.4595 11.2272 18.6705 11.4356C18.8815 11.644 19 11.9266 19 12.2212V14.4433C18.9999 14.6392 18.9475 14.8315 18.8479 15.0009C18.7483 15.1702 18.6052 15.3106 18.433 15.4077L16.4643 16.5188C16.3358 16.5953 16.1932 16.6457 16.0448 16.667C15.8964 16.6883 15.7451 16.68 15.6 16.6427C15.4548 16.6055 15.3187 16.5399 15.1996 16.4499C15.0805 16.3599 14.9808 16.2473 14.9064 16.1187C14.832 15.9901 14.7843 15.8481 14.7663 15.701C14.7483 15.554 14.7602 15.4049 14.8014 15.2624C14.8425 15.12 14.9121 14.9872 15.006 14.8717C15.1 14.7562 15.2163 14.6604 15.3483 14.59L16.75 13.7989V12.2212C16.75 11.9266 16.8685 11.644 17.0795 11.4356C17.2905 11.2272 17.5766 11.1102 17.875 11.1102ZM7.05475 17.2254C7.2028 16.9697 7.44761 16.7825 7.73536 16.705C8.02311 16.6275 8.33025 16.666 8.58925 16.8121L8.875 16.9732V16.6655C8.875 16.3708 8.99353 16.0882 9.20451 15.8798C9.41549 15.6715 9.70163 15.5544 10 15.5544C10.2984 15.5544 10.5845 15.6715 10.7955 15.8798C11.0065 16.0882 11.125 16.3708 11.125 16.6655V16.9732L11.4108 16.8121C11.5392 16.7356 11.6818 16.6852 11.8302 16.6639C11.9786 16.6427 12.1299 16.6509 12.275 16.6882C12.4202 16.7255 12.5563 16.791 12.6754 16.881C12.7945 16.971 12.8942 17.0836 12.9686 17.2122C13.043 17.3408 13.0907 17.4828 13.1087 17.6299C13.1267 17.7769 13.1148 17.926 13.0736 18.0685C13.0325 18.2109 12.9629 18.3438 12.869 18.4592C12.775 18.5747 12.6587 18.6705 12.5268 18.7409L10.5749 19.8431C10.4011 19.9458 10.2025 20 10 20C9.79753 20 9.59886 19.9458 9.42513 19.8431L7.47325 18.7409C7.21433 18.5947 7.0248 18.3529 6.94632 18.0687C6.86785 17.7846 6.90685 17.4812 7.05475 17.2254Z"/>
</svg>
