<svg viewBox="0 0 20 20" xmlns="http://www.w3.org/2000/svg" id="icon">
  <path d="M11.4286 18.7506C11.4287 18.9636 11.491 19.173 11.6096 19.359C11.7282 19.545 11.8992 19.7014 12.1063 19.8134C12.3134 19.9254 12.5497 19.9892 12.7929 19.9987C13.036 20.0083 13.278 19.9634 13.4957 19.8682L19.21 17.368C19.4473 17.2642 19.6468 17.1048 19.7864 16.9074C19.9259 16.71 19.9999 16.4825 20 16.2504V9.04494C19.9999 8.83193 19.9375 8.62249 19.8189 8.43649C19.7003 8.25048 19.5294 8.09408 19.3223 7.98212C19.1152 7.87017 18.8789 7.80637 18.6357 7.79679C18.3925 7.7872 18.1506 7.83215 17.9329 7.92736L12.2186 10.4275C11.9813 10.5313 11.7817 10.6908 11.6422 10.8882C11.5027 11.0855 11.4287 11.313 11.4286 11.5451V18.7506ZM17.4443 5.34469C17.6813 5.24076 17.8805 5.08118 18.0198 4.88382C18.159 4.68645 18.2328 4.45907 18.2328 4.22711C18.2328 3.99516 18.159 3.76778 18.0198 3.57041C17.8805 3.37305 17.6813 3.21347 17.4443 3.10954L10.6386 0.131841C10.4403 0.0451372 10.2217 0 10 0C9.77834 0 9.55972 0.0451372 9.36143 0.131841L2.55571 3.10954C2.31874 3.21347 2.11949 3.37305 1.98024 3.57041C1.84099 3.76778 1.76724 3.99516 1.76724 4.22711C1.76724 4.45907 1.84099 4.68645 1.98024 4.88382C2.11949 5.08118 2.31874 5.24076 2.55571 5.34469L9.36143 8.32239C9.55972 8.40909 9.77834 8.45423 10 8.45423C10.2217 8.45423 10.4403 8.40909 10.6386 8.32239L17.4443 5.34469ZM2.06714 7.92736C1.8494 7.83215 1.60746 7.7872 1.36429 7.79679C1.12112 7.80637 0.884787 7.87017 0.677706 7.98212C0.470625 8.09408 0.29967 8.25048 0.181063 8.43649C0.0624555 8.62249 0.000129956 8.83193 0 9.04494V16.2504C0.000141641 16.4825 0.0741188 16.71 0.213646 16.9074C0.353174 17.1048 0.552742 17.2642 0.79 17.368L6.50429 19.8682C6.72203 19.9634 6.96396 20.0083 7.20713 19.9987C7.4503 19.9892 7.68664 19.9254 7.89372 19.8134C8.1008 19.7014 8.27176 19.545 8.39037 19.359C8.50897 19.173 8.5713 18.9636 8.57143 18.7506V11.5451C8.57129 11.313 8.49731 11.0855 8.35778 10.8882C8.21826 10.6908 8.01869 10.5313 7.78143 10.4275L2.06714 7.92736Z"/>
</svg>
