<svg viewBox="0 0 20 20" xmlns="http://www.w3.org/2000/svg" id="icon">
  <path d="M19.8714 4.01671C19.7811 3.64778 19.4442 3.38827 19.0586 3.38827H15.5574C15.5658 2.96258 15.5612 2.57793 15.552 2.25927C15.5366 1.66604 15.0468 1.20001 14.4425 1.20001H5.56439C4.96001 1.20001 4.47026 1.66604 4.45289 2.25927C4.41468 2.57793 4.439 2.96258 4.44942 3.38827H0.946816C0.561266 3.38827 0.227019 3.64778 0.135841 4.01671C0.107637 4.13296 -0.545714 6.91683 1.28756 9.60771C2.58801 11.5163 4.78182 12.8569 7.80023 13.6218C8.44976 13.7861 8.89123 14.3761 8.89123 15.0363C8.89193 15.8511 8.21461 16.5178 7.38446 16.5178H7.22468C6.30388 16.5178 5.55779 17.2526 5.55779 18.159C5.55779 18.4611 5.80659 18.7061 6.08227 18.7061H13.8315C14.1384 18.7061 14.356 18.4611 14.356 18.159C14.356 17.2526 13.6099 16.5178 12.6891 16.5178H12.5278C11.699 16.5178 11.0217 15.8511 11.0217 15.0356C11.0217 14.3754 11.4632 13.7852 12.1127 13.6211C15.1332 12.8573 17.3263 11.5166 18.6254 9.60702C20.5522 6.91683 19.8992 4.13296 19.8714 4.01671ZM2.68874 8.71531C1.71826 7.30662 1.63282 5.8398 1.6804 5.02946H4.47269C4.65883 7.06796 5.17953 9.51197 6.47581 11.4951C4.77245 10.8283 3.50465 9.89833 2.68874 8.71531ZM17.3185 8.71531C16.5043 9.89833 15.2365 10.8266 13.5324 11.4923C14.828 9.51197 15.349 7.06728 15.5331 5.02946H18.3254C18.3431 5.8398 18.2875 7.31004 17.3185 8.71531Z"/>
</svg>
