<svg id="icon" viewBox="0 0 20 20" fill="currentColor" xmlns="http://www.w3.org/2000/svg">
<path fill-rule="evenodd" clip-rule="evenodd" d="M10 20C12.6522 20 15.1957 18.9464 17.0711 17.0711C18.9464 15.1957 20 12.6522 20 10C20 7.34784 18.9464 4.8043 17.0711 2.92893C15.1957 1.05357 12.6522 0 10 0C7.34784 0 4.8043 1.05357 2.92893 2.92893C1.05357 4.8043 0 7.34784 0 10C0 12.6522 1.05357 15.1957 2.92893 17.0711C4.8043 18.9464 7.34784 20 10 20ZM11.25 2.5C10.2554 2.5 9.30161 2.89509 8.59835 3.59835C7.89509 4.30161 7.5 5.25544 7.5 6.25V8.75H6.25C5.91848 8.75 5.60054 8.8817 5.36612 9.11612C5.1317 9.35054 5 9.66848 5 10C5 10.3315 5.1317 10.6495 5.36612 10.8839C5.60054 11.1183 5.91848 11.25 6.25 11.25H7.5V12.5C7.5 12.8315 7.3683 13.1495 7.13388 13.3839C6.89946 13.6183 6.58152 13.75 6.25 13.75C5.91848 13.75 5.60054 13.8817 5.36612 14.1161C5.1317 14.3505 5 14.6685 5 15C5 15.3315 5.1317 15.6495 5.36612 15.8839C5.60054 16.1183 5.91848 16.25 6.25 16.25H13.75C14.0815 16.25 14.3995 16.1183 14.6339 15.8839C14.8683 15.6495 15 15.3315 15 15C15 14.6685 14.8683 14.3505 14.6339 14.1161C14.3995 13.8817 14.0815 13.75 13.75 13.75H9.7875C9.925 13.3588 10 12.9375 10 12.5V11.25H11.25C11.5815 11.25 11.8995 11.1183 12.1339 10.8839C12.3683 10.6495 12.5 10.3315 12.5 10C12.5 9.66848 12.3683 9.35054 12.1339 9.11612C11.8995 8.8817 11.5815 8.75 11.25 8.75H10V6.25C10 5.91848 10.1317 5.60054 10.3661 5.36612C10.6005 5.1317 10.9185 5 11.25 5C11.5815 5 11.8995 5.1317 12.1339 5.36612C12.3683 5.60054 12.5 5.91848 12.5 6.25C12.5 6.58152 12.6317 6.89946 12.8661 7.13388C13.1005 7.3683 13.4185 7.5 13.75 7.5C14.0815 7.5 14.3995 7.3683 14.6339 7.13388C14.8683 6.89946 15 6.58152 15 6.25C15 5.25544 14.6049 4.30161 13.9017 3.59835C13.1984 2.89509 12.2446 2.5 11.25 2.5Z"/>
</svg>