<svg viewBox="0 0 20 20" xmlns="http://www.w3.org/2000/svg" id="icon">
  <path fill-rule="evenodd" d="M10 20C15.5228 20 20 15.5228 20 10C20 4.47715 15.5228 0 10 0C4.47715 0 0 4.47715 0 10C0 15.5228 4.47715 20 10 20ZM8.2641 13.2602C8.84602 13.9949 9.68971 14.3623 10.7952 14.3623C11.2598 14.3634 11.7232 14.3136 12.1778 14.2138C12.537 14.1343 12.9218 14.0349 13.3112 13.9175C13.441 13.8784 13.5731 13.9747 13.5731 14.1103V15.3405C13.5731 15.4239 13.5214 15.4988 13.4428 15.5267C12.5183 15.8553 11.5454 16.0152 10.5674 15.9989C8.92036 15.9978 7.65456 15.4803 6.76999 14.4464C6.23214 13.7909 5.85671 13.0105 5.67503 12.1728C5.65459 12.0786 5.5723 12.0097 5.47589 12.0097H4.2C4.08954 12.0097 4 11.9201 4 11.8097V10.743C4 10.6326 4.08954 10.543 4.2 10.543H5.25029C5.36707 10.543 5.45907 10.4433 5.45576 10.3266C5.45269 10.2183 5.45269 10.1085 5.45269 9.99695V9.97423C5.45269 9.86378 5.36315 9.77423 5.25269 9.77423H4.2C4.08954 9.77423 4 9.68469 4 9.57423V8.50757C4 8.39712 4.08954 8.30757 4.2 8.30757H5.44102C5.53664 8.30757 5.61855 8.23981 5.63931 8.14648C5.74159 7.6866 5.89321 7.23982 6.09143 6.81452C6.4933 5.93823 7.14411 5.21006 7.95667 4.72754C8.83031 4.22768 9.81647 3.97717 10.8143 4.00163C11.8566 3.99242 12.8873 4.22108 13.8334 4.67042C13.9279 4.71533 13.9688 4.82699 13.9285 4.9236L13.4192 6.14336C13.3748 6.24966 13.2501 6.29641 13.1456 6.24795C12.8149 6.09461 12.4764 5.9599 12.1316 5.84444C11.6994 5.70262 11.2485 5.63137 10.7952 5.63327C9.73643 5.63327 8.90443 6.02152 8.29914 6.79802C8.01189 7.17661 7.79343 7.60526 7.65364 8.06303C7.61588 8.18666 7.71133 8.30757 7.8406 8.30757H11.2339C11.3444 8.30757 11.4339 8.39712 11.4339 8.50757V9.57423C11.4339 9.68469 11.3444 9.77423 11.2339 9.77423H7.5928C7.48234 9.77423 7.3928 9.86378 7.3928 9.97423V10.0135C7.3928 10.1295 7.39473 10.243 7.39859 10.3541C7.40227 10.4602 7.49013 10.543 7.59624 10.543H11.2339C11.3444 10.543 11.4339 10.6326 11.4339 10.743V11.8097C11.4339 11.9201 11.3444 12.0097 11.2339 12.0097H7.9054C7.77332 12.0097 7.67749 12.1356 7.72155 12.2601C7.84923 12.6209 8.03227 12.9587 8.2641 13.2602Z"/>
</svg>
