<svg id="icon" viewBox="0 0 20 20" fill="currentColor" xmlns="http://www.w3.org/2000/svg">
<path fill-rule="evenodd" clip-rule="evenodd" d="M10 20C15.5228 20 20 15.5228 20 10C20 4.47715 15.5228 0 10 0C4.47715 0 0 4.47715 0 10C0 15.5228 4.47715 20 10 20ZM12.4127 13.9749C12.5776 13.9346 12.7407 14.0483 12.7736 14.2258L12.9942 15.4175C13.0252 15.5849 12.9286 15.7487 12.7744 15.7914C12.4606 15.8783 11.9037 16 11.2457 16C8.63438 16 6.67976 14.2507 6.05366 11.8311H5.30023C5.13443 11.8311 5 11.6872 5 11.5096V10.75C5 10.5725 5.13443 10.4286 5.30023 10.4286H5.83534C5.81032 10.0815 5.81462 9.66148 5.83987 9.29701H5.30023C5.13443 9.29701 5 9.15309 5 8.97558V8.17857C5 8.00106 5.13443 7.85714 5.30023 7.85714H6.12774C6.85217 5.61389 8.81419 4 11.2457 4C11.7729 4 12.261 4.078 12.5638 4.13947C12.7355 4.17432 12.8427 4.35847 12.7971 4.53904L12.4971 5.72746C12.4557 5.89153 12.3023 5.9924 12.1468 5.95844C11.9145 5.90768 11.5622 5.84741 11.1998 5.84741C9.82554 5.84741 8.77331 6.65203 8.25709 7.85714H11.7167C11.9084 7.85714 12.051 8.04684 12.01 8.2473L11.8471 9.04431C11.8324 9.11593 11.7954 9.18003 11.742 9.22599C11.6887 9.27196 11.6222 9.29701 11.5538 9.29701H7.88613C7.84733 9.67088 7.85243 10.0448 7.88271 10.4286H11.2412C11.4336 10.4286 11.5763 10.6195 11.5341 10.8205L11.3747 11.5801C11.3597 11.6513 11.3226 11.715 11.2693 11.7606C11.2161 11.8062 11.1499 11.8311 11.0818 11.8311H8.23735C8.72603 13.188 9.85604 14.1199 11.2762 14.1199C11.7266 14.1199 12.1452 14.0402 12.4127 13.9749Z"/>
</svg>