<svg id="icon" viewBox="0 0 20 20" fill="currentColor" xmlns="http://www.w3.org/2000/svg">
<path fill-rule="evenodd" clip-rule="evenodd" d="M10 20C15.5228 20 20 15.5228 20 10C20 4.47715 15.5228 0 10 0C4.47715 0 0 4.47715 0 10C0 15.5228 4.47715 20 10 20ZM8.8107 8.72969L11.8113 9.47031C13.42 9.86641 14.423 11.3477 13.8257 12.7914C13.3978 13.825 12.1836 14.4742 10.8889 14.4953V15.625C10.8889 15.8313 10.6889 16 10.4444 16H9.55531C9.31081 16 9.11077 15.8313 9.11077 15.625V14.5C8.23836 14.4977 7.38818 14.2469 6.70747 13.7969C6.48798 13.6539 6.4602 13.3844 6.65746 13.2227L7.62434 12.4258C7.76881 12.3062 7.99664 12.2828 8.16612 12.3789C8.44396 12.5383 8.77736 12.625 9.11632 12.625H10.9584C11.4113 12.625 11.778 12.3156 11.778 11.9336C11.778 11.6289 11.5363 11.357 11.189 11.2703L8.34116 10.5672C7.10756 10.2625 6.12957 9.38359 6.01288 8.30313C5.84896 6.78203 7.27148 5.5 9.04131 5.5H9.11077V4.375C9.11077 4.16875 9.31081 4 9.55531 4H10.4444C10.6889 4 10.8889 4.16875 10.8889 4.375V5.5C11.7613 5.50234 12.6115 5.75313 13.2922 6.20312C13.5117 6.34609 13.5395 6.61562 13.3422 6.77734L12.3754 7.57422C12.2309 7.69375 12.0031 7.71719 11.8336 7.62109C11.5557 7.46172 11.2223 7.375 10.8834 7.375H9.04131C8.58843 7.375 8.22169 7.68437 8.22169 8.06641C8.22169 8.37109 8.46341 8.64531 8.8107 8.72969Z"/>
</svg>