<svg id="icon" viewBox="0 0 20 20" fill="currentColor" xmlns="http://www.w3.org/2000/svg">
<path fill-rule="evenodd" clip-rule="evenodd" d="M10 20C12.6522 20 15.1957 18.9464 17.0711 17.0711C18.9464 15.1957 20 12.6522 20 10C20 7.34784 18.9464 4.8043 17.0711 2.92893C15.1957 1.05357 12.6522 0 10 0C7.34784 0 4.8043 1.05357 2.92893 2.92893C1.05357 4.8043 0 7.34784 0 10C0 12.6522 1.05357 15.1957 2.92893 17.0711C4.8043 18.9464 7.34784 20 10 20ZM6.25 3.75C5.91848 3.75 5.60054 3.8817 5.36612 4.11612C5.1317 4.35054 5 4.66848 5 5C5 5.33152 5.1317 5.64946 5.36612 5.88388C5.60054 6.1183 5.91848 6.25 6.25 6.25H7.5C7.93883 6.25001 8.36993 6.36553 8.74996 6.58495C9.13 6.80437 9.44559 7.11996 9.665 7.5H6.25C5.91848 7.5 5.60054 7.6317 5.36612 7.86612C5.1317 8.10054 5 8.41848 5 8.75C5 9.08152 5.1317 9.39946 5.36612 9.63388C5.60054 9.8683 5.91848 10 6.25 10H9.665C9.44559 10.38 9.13 10.6956 8.74996 10.915C8.36993 11.1345 7.93883 11.25 7.5 11.25H6.25C6.00281 11.2501 5.76119 11.3234 5.55568 11.4607C5.35016 11.5981 5.18999 11.7933 5.0954 12.0217C5.00081 12.2501 4.97606 12.5013 5.02427 12.7438C5.07248 12.9862 5.19149 13.2089 5.36625 13.3837L9.11625 17.1337C9.352 17.3614 9.66776 17.4874 9.9955 17.4846C10.3232 17.4817 10.6368 17.3503 10.8685 17.1185C11.1003 16.8868 11.2317 16.5732 11.2346 16.2455C11.2374 15.9178 11.1114 15.602 10.8837 15.3663L9.03 13.5112C9.83317 13.2523 10.5579 12.7947 11.137 12.1809C11.7161 11.567 12.1308 10.8169 12.3425 10H13.75C14.0815 10 14.3995 9.8683 14.6339 9.63388C14.8683 9.39946 15 9.08152 15 8.75C15 8.41848 14.8683 8.10054 14.6339 7.86612C14.3995 7.6317 14.0815 7.5 13.75 7.5H12.3425C12.2294 7.06195 12.0569 6.6414 11.83 6.25H13.75C14.0815 6.25 14.3995 6.1183 14.6339 5.88388C14.8683 5.64946 15 5.33152 15 5C15 4.66848 14.8683 4.35054 14.6339 4.11612C14.3995 3.8817 14.0815 3.75 13.75 3.75H6.25Z"/>
</svg>