<svg id="icon" viewBox="0 0 20 20" fill="currentColor" xmlns="http://www.w3.org/2000/svg">
<path fill-rule="evenodd" clip-rule="evenodd" d="M10 19C12.3869 19 14.6761 18.0518 16.364 16.364C18.0518 14.6761 19 12.3869 19 10C19 7.61305 18.0518 5.32387 16.364 3.63604C14.6761 1.94821 12.3869 1 10 1C7.61305 1 5.32387 1.94821 3.63604 3.63604C1.94821 5.32387 1 7.61305 1 10C1 12.3869 1.94821 14.6761 3.63604 16.364C5.32387 18.0518 7.61305 19 10 19ZM7.59025 4.92063C7.43659 4.66477 7.18759 4.48044 6.89802 4.40818C6.60845 4.33592 6.30204 4.38165 6.04619 4.53531C5.79034 4.68897 5.60601 4.93797 5.53375 5.22754C5.46149 5.51711 5.50722 5.82352 5.66088 6.07937L7.33712 8.875H6.625C6.32663 8.875 6.04048 8.99353 5.8295 9.2045C5.61853 9.41548 5.5 9.70163 5.5 10C5.5 10.2984 5.61853 10.5845 5.8295 10.7955C6.04048 11.0065 6.32663 11.125 6.625 11.125H8.68825L8.875 11.4366V12.25H6.625C6.32663 12.25 6.04048 12.3685 5.8295 12.5795C5.61853 12.7905 5.5 13.0766 5.5 13.375C5.5 13.6734 5.61853 13.9595 5.8295 14.1705C6.04048 14.3815 6.32663 14.5 6.625 14.5H8.875V15.625C8.875 15.9234 8.99353 16.2095 9.2045 16.4205C9.41548 16.6315 9.70163 16.75 10 16.75C10.2984 16.75 10.5845 16.6315 10.7955 16.4205C11.0065 16.2095 11.125 15.9234 11.125 15.625V14.5H13.375C13.6734 14.5 13.9595 14.3815 14.1705 14.1705C14.3815 13.9595 14.5 13.6734 14.5 13.375C14.5 13.0766 14.3815 12.7905 14.1705 12.5795C13.9595 12.3685 13.6734 12.25 13.375 12.25H11.125V11.4366L11.3118 11.125H13.375C13.6734 11.125 13.9595 11.0065 14.1705 10.7955C14.3815 10.5845 14.5 10.2984 14.5 10C14.5 9.70163 14.3815 9.41548 14.1705 9.2045C13.9595 8.99353 13.6734 8.875 13.375 8.875H12.6617L14.3403 6.07825C14.4938 5.82225 14.5393 5.51575 14.4668 5.22618C14.3943 4.93662 14.2098 4.6877 13.9538 4.53419C13.6978 4.38068 13.3913 4.33515 13.1017 4.40762C12.8122 4.48009 12.5633 4.66462 12.4097 4.92063L10.0382 8.875H9.96175L7.59025 4.92063Z"/>
</svg>