<svg id="icon" viewBox="0 0 20 20" fill="currentColor" xmlns="http://www.w3.org/2000/svg">
<path fill-rule="evenodd" clip-rule="evenodd" d="M10 20C12.6522 20 15.1957 18.9464 17.0711 17.0711C18.9464 15.1957 20 12.6522 20 10C20 7.34784 18.9464 4.8043 17.0711 2.92893C15.1957 1.05357 12.6522 0 10 0C7.34784 0 4.8043 1.05357 2.92893 2.92893C1.05357 4.8043 0 7.34784 0 10C0 12.6522 1.05357 15.1957 2.92893 17.0711C4.8043 18.9464 7.34784 20 10 20ZM6.25 2.5C5.91848 2.5 5.60054 2.6317 5.36612 2.86612C5.1317 3.10054 5 3.41848 5 3.75C5 4.08152 5.1317 4.39946 5.36612 4.63388C5.60054 4.8683 5.91848 5 6.25 5C6.58152 5 6.89946 5.1317 7.13388 5.36612C7.3683 5.60054 7.5 5.91848 7.5 6.25V7.5H6.25C5.91848 7.5 5.60054 7.6317 5.36612 7.86612C5.1317 8.10054 5 8.41848 5 8.75C5 9.08152 5.1317 9.39946 5.36612 9.63388C5.60054 9.8683 5.91848 10 6.25 10H7.5V13.75C7.5 14.2425 7.597 14.7301 7.78545 15.1851C7.97391 15.64 8.25013 16.0534 8.59835 16.4017C8.94657 16.7499 9.35997 17.0261 9.81494 17.2145C10.2699 17.403 10.7575 17.5 11.25 17.5C11.7425 17.5 12.2301 17.403 12.6851 17.2145C13.14 17.0261 13.5534 16.7499 13.9017 16.4017C14.2499 16.0534 14.5261 15.64 14.7145 15.1851C14.903 14.7301 15 14.2425 15 13.75V12.5C15 12.1685 14.8683 11.8505 14.6339 11.6161C14.3995 11.3817 14.0815 11.25 13.75 11.25C13.4185 11.25 13.1005 11.3817 12.8661 11.6161C12.6317 11.8505 12.5 12.1685 12.5 12.5V13.75C12.5 14.0815 12.3683 14.3995 12.1339 14.6339C11.8995 14.8683 11.5815 15 11.25 15C10.9185 15 10.6005 14.8683 10.3661 14.6339C10.1317 14.3995 10 14.0815 10 13.75V10H13.75C14.0815 10 14.3995 9.8683 14.6339 9.63388C14.8683 9.39946 15 9.08152 15 8.75C15 8.41848 14.8683 8.10054 14.6339 7.86612C14.3995 7.6317 14.0815 7.5 13.75 7.5H10V6.25C10 5.25544 9.60491 4.30161 8.90165 3.59835C8.19839 2.89509 7.24456 2.5 6.25 2.5Z"/>
</svg>