<svg viewBox="0 0 20 20" xmlns="http://www.w3.org/2000/svg" id="icon">
  <path d="M12.5 10L19.8296 3.61473C20.0439 3.40536 20.0439 3.06607 19.8296 2.85714C18.3306 1.39286 14.0474 4.52649 12 5.85982L9.60555 7.33333L8.46941 5.85982C8.66638 5.37232 8.7747 4.84152 8.7747 4.28571C8.7747 1.91875 6.81044 0 4.38735 0C1.96425 0 0 1.91875 0 4.28571C0 6.65268 1.96425 8.57143 4.38735 8.57143C4.59483 8.57143 4.79821 8.55714 4.99792 8.52991L6.82476 10L4.99792 11.4701C4.79821 11.4429 4.59438 11.4286 4.38735 11.4286C1.96425 11.4286 0 13.3473 0 15.7143C0 18.0812 1.96425 20 4.38735 20C6.81044 20 8.7747 18.0812 8.7747 15.7143C8.7747 15.1585 8.66638 14.6277 8.46941 14.1402L9.60555 12.6667L12 14.2857C14.0165 15.4315 18.3306 18.2219 19.8296 16.7576C20.0439 16.5487 20.0439 16.2094 19.8296 16L12.5 10ZM4.38735 5.71429C3.58117 5.71429 2.9249 5.07321 2.9249 4.28571C2.9249 3.49821 3.58117 2.85714 4.38735 2.85714C5.19352 2.85714 5.8498 3.49821 5.8498 4.28571C5.8498 5.07321 5.19352 5.71429 4.38735 5.71429ZM4.38735 17.1429C3.58117 17.1429 2.9249 16.5018 2.9249 15.7143C2.9249 14.9268 3.58117 14.2857 4.38735 14.2857C5.19352 14.2857 5.8498 14.9268 5.8498 15.7143C5.8498 16.5018 5.19352 17.1429 4.38735 17.1429Z"/>
</svg>
