<svg viewBox="0 0 20 20" xmlns="http://www.w3.org/2000/svg" id="icon">
  <path d="M1 2.28571C1 1.94472 1.13546 1.6177 1.37658 1.37658C1.6177 1.13546 1.94472 1 2.28571 1H17.7143C18.0553 1 18.3823 1.13546 18.6234 1.37658C18.8645 1.6177 19 1.94472 19 2.28571V4.85714C19 5.19814 18.8645 5.52516 18.6234 5.76628C18.3823 6.0074 18.0553 6.14286 17.7143 6.14286H2.28571C1.94472 6.14286 1.6177 6.0074 1.37658 5.76628C1.13546 5.52516 1 5.19814 1 4.85714V2.28571ZM1 10C1 9.65901 1.13546 9.33198 1.37658 9.09086C1.6177 8.84974 1.94472 8.71429 2.28571 8.71429H10C10.341 8.71429 10.668 8.84974 10.9091 9.09086C11.1503 9.33198 11.2857 9.65901 11.2857 10V17.7143C11.2857 18.0553 11.1503 18.3823 10.9091 18.6234C10.668 18.8645 10.341 19 10 19H2.28571C1.94472 19 1.6177 18.8645 1.37658 18.6234C1.13546 18.3823 1 18.0553 1 17.7143V10ZM15.1429 8.71429C14.8019 8.71429 14.4748 8.84974 14.2337 9.09086C13.9926 9.33198 13.8571 9.65901 13.8571 10V17.7143C13.8571 18.0553 13.9926 18.3823 14.2337 18.6234C14.4748 18.8645 14.8019 19 15.1429 19H17.7143C18.0553 19 18.3823 18.8645 18.6234 18.6234C18.8645 18.3823 19 18.0553 19 17.7143V10C19 9.65901 18.8645 9.33198 18.6234 9.09086C18.3823 8.84974 18.0553 8.71429 17.7143 8.71429H15.1429Z"/>
</svg>
