<svg viewBox="0 0 20 20" xmlns="http://www.w3.org/2000/svg" id="icon">
  <path fill-rule="evenodd" d="M3.93969 0.298059C3.55065 -0.0939411 2.91988 -0.0939414 2.53084 0.298059L0.620311 2.22311C0.231269 2.61511 0.231269 3.25067 0.620311 3.64267L6.76748 9.83658L0.295933 16.3573C-0.0931088 16.7493 -0.0931095 17.3849 0.295933 17.7769L2.20646 19.7019C2.5955 20.0939 3.22627 20.0939 3.61531 19.7019L10.0869 13.1812L16.3915 19.5338C16.7805 19.9258 17.4113 19.9258 17.8004 19.5338L19.7109 17.6087C20.0999 17.2167 20.0999 16.5812 19.7109 16.1892L13.4062 9.83658L19.5534 3.64267C19.9424 3.25067 19.9424 2.61512 19.5534 2.22312L17.6429 0.29806C17.2538 -0.0939409 16.6231 -0.0939415 16.234 0.298059L10.0869 6.49196L3.93969 0.298059Z"/>
</svg>
