<svg id="icon" viewBox="0 0 20 20" fill="currentColor" xmlns="http://www.w3.org/2000/svg">
<path fill-rule="evenodd" clip-rule="evenodd" d="M6.15414 3.70977C5.7651 3.31777 5.13433 3.31777 4.74529 3.70977L3.92246 4.53886C3.53342 4.93086 3.53342 5.56642 3.92246 5.95842L7.82449 9.89012L3.70438 14.0416C3.31534 14.4336 3.31534 15.0691 3.70438 15.4611L4.52721 16.2902C4.91625 16.6822 5.54701 16.6822 5.93606 16.2902L10.0562 12.1388L14.0641 16.1771C14.4531 16.5691 15.0839 16.5691 15.4729 16.1771L16.2957 15.348C16.6848 14.956 16.6848 14.3205 16.2957 13.9285L12.2878 9.89012L16.1899 5.95843C16.5789 5.56643 16.5789 4.93087 16.1899 4.53887L15.367 3.70978C14.978 3.31778 14.3472 3.31778 13.9582 3.70978L10.0562 7.64147L6.15414 3.70977Z"/>
</svg>
