<svg id="icon" viewBox="0 0 20 20" xmlns="http://www.w3.org/2000/svg">
  <g clip-path="url(#a)">
    <path fill-rule="evenodd" d="M3.94.298a.99.99 0 0 0-1.41 0L.62 2.223a1.01 1.01 0 0 0 0 1.42l6.147 6.194-6.471 6.52a1.01 1.01 0 0 0 0 1.42l1.91 1.925a.99.99 0 0 0 1.41 0l6.47-6.52 6.306 6.352a.99.99 0 0 0 1.408 0l1.91-1.925a1.01 1.01 0 0 0 0-1.42l-6.304-6.352 6.147-6.194a1.01 1.01 0 0 0 0-1.42L17.643.298a.99.99 0 0 0-1.409 0l-6.147 6.194z" clip-rule="evenodd" />
  </g>
  <defs>
    <clipPath id="a">
      <path fill="#fff" d="M0 0h20v20H0z" />
    </clipPath>
  </defs>
</svg>