<svg viewBox="0 0 20 20" xmlns="http://www.w3.org/2000/svg" id="icon">
  <path fill-rule="evenodd" d="M10 20C12.6522 20 15.1957 18.9464 17.0711 17.0711C18.9464 15.1957 20 12.6522 20 10C20 7.34784 18.9464 4.8043 17.0711 2.92893C15.1957 1.05357 12.6522 0 10 0C7.34784 0 4.8043 1.05357 2.92893 2.92893C1.05357 4.8043 0 7.34784 0 10C0 12.6522 1.05357 15.1957 2.92893 17.0711C4.8043 18.9464 7.34784 20 10 20ZM8.38375 6.61625C8.148 6.38855 7.83224 6.26256 7.5045 6.26541C7.17675 6.26826 6.86324 6.39972 6.63148 6.63148C6.39972 6.86324 6.26826 7.17675 6.26541 7.5045C6.26256 7.83224 6.38855 8.148 6.61625 8.38375L8.2325 10L6.61625 11.6163C6.49686 11.7316 6.40163 11.8695 6.33612 12.022C6.27061 12.1745 6.23613 12.3385 6.23469 12.5045C6.23324 12.6705 6.26487 12.8351 6.32772 12.9887C6.39057 13.1423 6.48339 13.2819 6.60076 13.3992C6.71812 13.5166 6.85769 13.6094 7.01131 13.6723C7.16493 13.7351 7.32953 13.7668 7.4955 13.7653C7.66148 13.7639 7.8255 13.7294 7.97801 13.6639C8.13051 13.5984 8.26844 13.5031 8.38375 13.3837L10 11.7675L11.6163 13.3837C11.852 13.6114 12.1678 13.7374 12.4955 13.7346C12.8232 13.7317 13.1368 13.6003 13.3685 13.3685C13.6003 13.1368 13.7317 12.8232 13.7346 12.4955C13.7374 12.1678 13.6114 11.852 13.3837 11.6163L11.7675 10L13.3837 8.38375C13.6114 8.148 13.7374 7.83224 13.7346 7.5045C13.7317 7.17675 13.6003 6.86324 13.3685 6.63148C13.1368 6.39972 12.8232 6.26826 12.4955 6.26541C12.1678 6.26256 11.852 6.38855 11.6163 6.61625L10 8.2325L8.38375 6.61625Z"/>
</svg>
