<svg viewBox="0 0 20 20" xmlns="http://www.w3.org/2000/svg" id="icon">
  <path fill-rule="evenodd" d="M5.33333 1C4.71449 1 4.121 1.23705 3.68342 1.65901C3.24583 2.08097 3 2.65326 3 3.25V16.75C3 17.3467 3.24583 17.919 3.68342 18.341C4.121 18.7629 4.71449 19 5.33333 19H14.6667C15.2855 19 15.879 18.7629 16.3166 18.341C16.7542 17.919 17 17.3467 17 16.75V3.25C17 2.65326 16.7542 2.08097 16.3166 1.65901C15.879 1.23705 15.2855 1 14.6667 1H5.33333ZM10 16.75C10.3094 16.75 10.6062 16.6315 10.825 16.4205C11.0437 16.2095 11.1667 15.9234 11.1667 15.625C11.1667 15.3266 11.0437 15.0405 10.825 14.8295C10.6062 14.6185 10.3094 14.5 10 14.5C9.69058 14.5 9.39383 14.6185 9.17504 14.8295C8.95625 15.0405 8.83333 15.3266 8.83333 15.625C8.83333 15.9234 8.95625 16.2095 9.17504 16.4205C9.39383 16.6315 9.69058 16.75 10 16.75Z"/>
</svg>
