<svg id="icon" viewBox="0 0 20 20" fill="currentColor" xmlns="http://www.w3.org/2000/svg">
<path d="M10.3349 12.5796C10.2257 12.6834 10.1386 12.8075 10.0787 12.9448C10.0188 13.082 9.98732 13.2297 9.986 13.379C9.98468 13.5284 10.0136 13.6766 10.0711 13.8148C10.1285 13.9531 10.2134 14.0787 10.3207 14.1843C10.428 14.2899 10.5556 14.3735 10.6961 14.43C10.8365 14.4866 10.987 14.5151 11.1387 14.5138C11.2905 14.5125 11.4405 14.4814 11.5799 14.4225C11.7193 14.3635 11.8454 14.2778 11.9509 14.1704L15.3794 10.7954C15.5937 10.5844 15.714 10.2983 15.714 10C15.714 9.70169 15.5937 9.41559 15.3794 9.20462L11.9509 5.82962C11.7353 5.6247 11.4466 5.5113 11.147 5.51387C10.8473 5.51643 10.5607 5.63474 10.3488 5.84333C10.1369 6.05191 10.0167 6.33408 10.0141 6.62905C10.0115 6.92402 10.1267 7.2082 10.3349 7.42037L11.8126 8.875L5.42857 8.875L5.42857 3.25C5.42857 2.65326 5.66939 2.08097 6.09804 1.65901C6.5267 1.23705 7.10808 1 7.71429 1L16.7143 0.999999C17.3205 0.999999 17.9019 1.23705 18.3305 1.65901C18.7592 2.08097 19 2.65326 19 3.25L19 16.75C19 17.3467 18.7592 17.919 18.3305 18.341C17.9019 18.7629 17.3205 19 16.7143 19L7.71429 19C7.10808 19 6.5267 18.7629 6.09804 18.341C5.66939 17.919 5.42857 17.3467 5.42857 16.75L5.42857 11.125L11.8126 11.125L10.3349 12.5796ZM2.14286 11.125C1.83975 11.125 1.54906 11.0065 1.33473 10.7955C1.12041 10.5845 1 10.2984 1 10C1 9.70163 1.12041 9.41548 1.33473 9.2045C1.54906 8.99353 1.83975 8.875 2.14286 8.875L5.42857 8.875L5.42857 11.125L2.14286 11.125Z"/>
</svg>