<svg id="icon" viewBox="0 0 20 20" fill="currentColor" xmlns="http://www.w3.org/2000/svg">
<path fill-rule="evenodd" clip-rule="evenodd" d="M3 3.25C3 2.65326 3.24583 2.08097 3.68342 1.65901C4.121 1.23705 4.71449 1 5.33333 1H10.6837C11.3025 1.00013 11.8958 1.23726 12.3333 1.65925L16.3163 5.5C16.7539 5.92186 16.9999 6.49406 17 7.09075V16.75C17 17.3467 16.7542 17.919 16.3166 18.341C15.879 18.7629 15.2855 19 14.6667 19H5.33333C4.71449 19 4.121 18.7629 3.68342 18.341C3.24583 17.919 3 17.3467 3 16.75V3.25ZM5.33333 10C5.33333 9.70163 5.45625 9.41548 5.67504 9.20451C5.89383 8.99353 6.19058 8.875 6.5 8.875H13.5C13.8094 8.875 14.1062 8.99353 14.325 9.20451C14.5437 9.41548 14.6667 9.70163 14.6667 10C14.6667 10.2984 14.5437 10.5845 14.325 10.7955C14.1062 11.0065 13.8094 11.125 13.5 11.125H6.5C6.19058 11.125 5.89383 11.0065 5.67504 10.7955C5.45625 10.5845 5.33333 10.2984 5.33333 10ZM6.5 13.375C6.19058 13.375 5.89383 13.4935 5.67504 13.7045C5.45625 13.9155 5.33333 14.2016 5.33333 14.5C5.33333 14.7984 5.45625 15.0845 5.67504 15.2955C5.89383 15.5065 6.19058 15.625 6.5 15.625H13.5C13.8094 15.625 14.1062 15.5065 14.325 15.2955C14.5437 15.0845 14.6667 14.7984 14.6667 14.5C14.6667 14.2016 14.5437 13.9155 14.325 13.7045C14.1062 13.4935 13.8094 13.375 13.5 13.375H6.5Z"/>
</svg>
