<svg viewBox="0 0 20 20" xmlns="http://www.w3.org/2000/svg" id="icon">
  <path fill-rule="evenodd" d="M6.9323 0.732233C7.40114 0.263392 8.03703 0 8.70007 0H13.1826C13.8456 0.000141594 14.4813 0.263627 14.9501 0.7325L17.9676 3.75C18.4364 4.21873 18.6999 4.85451 18.7001 5.5175V12.5C18.7001 13.163 18.4367 13.7989 17.9678 14.2678C17.499 14.7366 16.8631 15 16.2001 15H8.70007C8.03703 15 7.40114 14.7366 6.9323 14.2678C6.46346 13.7989 6.20007 13.163 6.20007 12.5V2.5C6.20007 1.83696 6.46346 1.20107 6.9323 0.732233ZM1.93218 5.73221C1.46334 6.20106 1.19995 6.83694 1.19995 7.49998V17.5C1.19995 18.163 1.46334 18.7989 1.93218 19.2677C2.40103 19.7366 3.03691 20 3.69995 20H11.2C11.863 20 12.4989 19.7366 12.9677 19.2677C13.4366 18.7989 13.7 18.163 13.7 17.5H3.69995V4.99998C3.03691 4.99998 2.40103 5.26337 1.93218 5.73221Z"/>
</svg>
