<svg viewBox="0 0 20 20" xmlns="http://www.w3.org/2000/svg" id="icon">
  <path fill-rule="evenodd" d="M17.0711 17.0711C15.1957 18.9464 12.6522 20 10 20C7.34784 20 4.8043 18.9464 2.92893 17.0711C1.05357 15.1957 0 12.6522 0 10C0 7.34784 1.05357 4.8043 2.92893 2.92893C4.8043 1.05357 7.34784 0 10 0C12.6522 0 15.1957 1.05357 17.0711 2.92893C18.9464 4.8043 20 7.34784 20 10C20 12.6522 18.9464 15.1957 17.0711 17.0711ZM6.41735 11.0424C6.71038 10.7493 6.875 10.3519 6.875 9.93752C6.875 9.52311 6.71038 9.12569 6.41735 8.83266C6.12433 8.53964 5.7269 8.37502 5.3125 8.37502C4.8981 8.37502 4.50067 8.53964 4.20765 8.83266C3.91462 9.12569 3.75 9.52311 3.75 9.93752C3.75 10.3519 3.91462 10.7493 4.20765 11.0424C4.50067 11.3354 4.8981 11.5 5.3125 11.5C5.7269 11.5 6.12433 11.3354 6.41735 11.0424ZM11.1049 11.0424C11.3979 10.7493 11.5625 10.3519 11.5625 9.93752C11.5625 9.52311 11.3979 9.12569 11.1049 8.83266C10.8118 8.53964 10.4144 8.37502 10 8.37502C9.5856 8.37502 9.18817 8.53964 8.89515 8.83266C8.60212 9.12569 8.4375 9.52311 8.4375 9.93752C8.4375 10.3519 8.60212 10.7493 8.89515 11.0424C9.18817 11.3354 9.5856 11.5 10 11.5C10.4144 11.5 10.8118 11.3354 11.1049 11.0424ZM15.7924 11.0424C15.4993 11.3354 15.1019 11.5 14.6875 11.5C14.2731 11.5 13.8757 11.3354 13.5826 11.0424C13.2896 10.7493 13.125 10.3519 13.125 9.93752C13.125 9.52311 13.2896 9.12569 13.5826 8.83266C13.8757 8.53964 14.2731 8.37502 14.6875 8.37502C15.1019 8.37502 15.4993 8.53964 15.7924 8.83266C16.0854 9.12569 16.25 9.52311 16.25 9.93752C16.25 10.3519 16.0854 10.7493 15.7924 11.0424Z"/>
</svg>
