<svg viewBox="0 0 20 20" xmlns="http://www.w3.org/2000/svg" id="icon">
  <path fill-rule="evenodd" d="M1 18.75C1 18.4185 1.13546 18.1005 1.37658 17.8661C1.6177 17.6317 1.94472 17.5 2.28571 17.5H17.7143C18.0553 17.5 18.3823 17.6317 18.6234 17.8661C18.8645 18.1005 19 18.4185 19 18.75C19 19.0815 18.8645 19.3995 18.6234 19.6339C18.3823 19.8683 18.0553 20 17.7143 20H2.28571C1.94472 20 1.6177 19.8683 1.37658 19.6339C1.13546 19.3995 1 19.0815 1 18.75ZM5.23386 9.11625C5.47496 8.88191 5.80193 8.75027 6.14286 8.75027C6.48378 8.75027 6.81075 8.88191 7.05186 9.11625L8.71429 10.7325V1.25C8.71429 0.918479 8.84974 0.600537 9.09086 0.366116C9.33198 0.131696 9.65901 0 10 0C10.341 0 10.668 0.131696 10.9091 0.366116C11.1503 0.600537 11.2857 0.918479 11.2857 1.25V10.7325L12.9481 9.11625C13.0667 8.99686 13.2086 8.90163 13.3655 8.83612C13.5223 8.77061 13.6911 8.73613 13.8618 8.73469C14.0325 8.73324 14.2018 8.76487 14.3598 8.82772C14.5178 8.89057 14.6614 8.98339 14.7821 9.10076C14.9028 9.21812 14.9983 9.35769 15.0629 9.51131C15.1276 9.66493 15.1601 9.82953 15.1586 9.9955C15.1571 10.1615 15.1217 10.3255 15.0543 10.478C14.9869 10.6305 14.8889 10.7684 14.7661 10.8837L10.909 14.6337C10.6679 14.8681 10.3409 14.9997 10 14.9997C9.65907 14.9997 9.33211 14.8681 9.091 14.6337L5.23386 10.8837C4.99282 10.6493 4.85742 10.3315 4.85742 10C4.85742 9.66854 4.99282 9.35066 5.23386 9.11625Z"/>
</svg>
