<svg viewBox="0 0 20 20" xmlns="http://www.w3.org/2000/svg" id="icon">
  <path fill-rule="evenodd" d="M4.61538 2.30769C4.61538 3.5822 3.5822 4.61538 2.30769 4.61538C1.03319 4.61538 0 3.5822 0 2.30769C0 1.03319 1.03319 0 2.30769 0C3.5822 0 4.61538 1.03319 4.61538 2.30769ZM12.3078 2.30769C12.3078 3.5822 11.2746 4.61538 10.0001 4.61538C8.72557 4.61538 7.69238 3.5822 7.69238 2.30769C7.69238 1.03319 8.72557 0 10.0001 0C11.2746 0 12.3078 1.03319 12.3078 2.30769ZM17.6922 4.61538C18.9667 4.61538 19.9999 3.5822 19.9999 2.30769C19.9999 1.03319 18.9667 0 17.6922 0C16.4177 0 15.3845 1.03319 15.3845 2.30769C15.3845 3.5822 16.4177 4.61538 17.6922 4.61538ZM4.61538 10C4.61538 11.2745 3.5822 12.3077 2.30769 12.3077C1.03319 12.3077 0 11.2745 0 10C0 8.72551 1.03319 7.69232 2.30769 7.69232C3.5822 7.69232 4.61538 8.72551 4.61538 10ZM2.30769 20C3.5822 20 4.61538 18.9668 4.61538 17.6923C4.61538 16.4178 3.5822 15.3846 2.30769 15.3846C1.03319 15.3846 0 16.4178 0 17.6923C0 18.9668 1.03319 20 2.30769 20ZM12.3078 10C12.3078 11.2745 11.2746 12.3077 10.0001 12.3077C8.72557 12.3077 7.69238 11.2745 7.69238 10C7.69238 8.72551 8.72557 7.69232 10.0001 7.69232C11.2746 7.69232 12.3078 8.72551 12.3078 10ZM10.0001 20C11.2746 20 12.3078 18.9668 12.3078 17.6923C12.3078 16.4178 11.2746 15.3846 10.0001 15.3846C8.72557 15.3846 7.69238 16.4178 7.69238 17.6923C7.69238 18.9668 8.72557 20 10.0001 20ZM19.9999 10C19.9999 11.2745 18.9667 12.3077 17.6922 12.3077C16.4177 12.3077 15.3845 11.2745 15.3845 10C15.3845 8.72551 16.4177 7.69232 17.6922 7.69232C18.9667 7.69232 19.9999 8.72551 19.9999 10ZM17.6922 20C18.9667 20 19.9999 18.9668 19.9999 17.6923C19.9999 16.4178 18.9667 15.3846 17.6922 15.3846C16.4177 15.3846 15.3845 16.4178 15.3845 17.6923C15.3845 18.9668 16.4177 20 17.6922 20Z"/>
</svg>
