<svg viewBox="0 0 20 20" xmlns="http://www.w3.org/2000/svg" id="icon">
  <path fill-rule="evenodd" d="M8.49538 13.5C8.49538 13.8979 8.6539 14.2794 8.93607 14.5607C9.21824 14.842 9.60095 15.0001 10 15.0001C10.399 15.0001 10.7818 14.842 11.0639 14.5607C11.3461 14.2794 11.5046 13.8979 11.5046 13.5L11.5046 5.12082L13.4501 7.06037C13.7339 7.33361 14.1139 7.48481 14.5085 7.48139C14.903 7.47797 15.2803 7.32022 15.5593 7.0421C15.8383 6.76398 15.9965 6.38775 15.9999 5.99444C16.0034 5.60114 15.8517 5.22222 15.5776 4.93931L11.0638 0.439191C10.7816 0.157978 10.399 0 10 0C9.60103 0 9.21839 0.157977 8.93623 0.439191L4.42237 4.93931C4.14829 5.22222 3.99663 5.60113 4.00006 5.99444C4.00349 6.38775 4.16173 6.76398 4.44069 7.0421C4.71966 7.32021 5.09704 7.47797 5.49155 7.48139C5.88606 7.48481 6.26613 7.33361 6.5499 7.06037L8.49538 5.12082L8.49538 13.5ZM20 19.0625V14.6875C20 14.168 19.582 13.75 19.0625 13.75H12C12 13.75 11.9921 14.3132 11.418 15C10.8438 15.6868 9.15841 15.6895 8.58203 15C8.00565 14.3105 8 13.75 8 13.75H0.9375C0.417969 13.75 0 14.168 0 14.6875V19.0625C0 19.582 0.417969 20 0.9375 20H19.0625C19.582 20 20 19.582 20 19.0625ZM14.375 17.3438C14.8047 17.3438 15.1563 17.6953 15.1563 18.125C15.1563 18.5547 14.8047 18.9063 14.375 18.9063C13.9453 18.9063 13.5938 18.5547 13.5938 18.125C13.5938 17.6953 13.9453 17.3438 14.375 17.3438ZM16.875 17.3438C17.3047 17.3438 17.6562 17.6953 17.6562 18.125C17.6562 18.5547 17.3047 18.9063 16.875 18.9063C16.4453 18.9063 16.0938 18.5547 16.0938 18.125C16.0938 17.6953 16.4453 17.3438 16.875 17.3438Z"/>
</svg>
