<svg viewBox="0 0 20 20" xmlns="http://www.w3.org/2000/svg" id="icon">
  <path fill-rule="evenodd" d="M10.3767 1.37666C10.6178 1.13555 10.9448 1.00009 11.2858 1.00009H17.7143C18.0553 1.00009 18.3823 1.13555 18.6234 1.37666C18.8645 1.61778 19 1.9448 19 2.28579V8.7143C19 9.05529 18.8645 9.38231 18.6234 9.62343C18.3823 9.86454 18.0553 10 17.7143 10C17.3733 10 17.0463 9.86454 16.8052 9.62343C16.5641 9.38231 16.4286 9.05529 16.4286 8.7143V5.38948L8.33768 13.4804C8.21908 13.6032 8.07721 13.7011 7.92035 13.7685C7.76349 13.8359 7.59478 13.8714 7.42406 13.8729C7.25335 13.8743 7.08405 13.8418 6.92604 13.7772C6.76803 13.7125 6.62448 13.617 6.50376 13.4963C6.38305 13.3756 6.28758 13.2321 6.22293 13.0741C6.15829 12.916 6.12576 12.7467 6.12724 12.576C6.12872 12.4053 6.16419 12.2366 6.23157 12.0797C6.29895 11.9229 6.3969 11.781 6.5197 11.6624L14.6106 3.57149H11.2858C10.9448 3.57149 10.6178 3.43604 10.3767 3.19492C10.1356 2.9538 10.0001 2.62678 10.0001 2.28579C10.0001 1.9448 10.1356 1.61778 10.3767 1.37666ZM1.75323 4.32464C2.23546 3.84241 2.8895 3.57149 3.57148 3.57149H7.42859C7.76958 3.57149 8.0966 3.70695 8.33771 3.94807C8.57883 4.18918 8.71429 4.51621 8.71429 4.85719C8.71429 5.19818 8.57883 5.52521 8.33771 5.76632C8.0966 6.00744 7.76958 6.1429 7.42859 6.1429H3.57148V16.4285H13.8571V12.5714C13.8571 12.2304 13.9925 11.9034 14.2337 11.6623C14.4748 11.4212 14.8018 11.2857 15.1428 11.2857C15.4838 11.2857 15.8108 11.4212 16.0519 11.6623C16.293 11.9034 16.4285 12.2304 16.4285 12.5714V16.4285C16.4285 17.1105 16.1576 17.7645 15.6753 18.2468C15.1931 18.729 14.5391 18.9999 13.8571 18.9999H3.57148C2.8895 18.9999 2.23546 18.729 1.75323 18.2468C1.27099 17.7645 1.00008 17.1105 1.00008 16.4285V6.1429C1.00008 5.46092 1.27099 4.80687 1.75323 4.32464Z"/>
</svg>
