<svg id="icon" viewBox="0 0 20 20" fill="currentColor" xmlns="http://www.w3.org/2000/svg">
<path fill-rule="evenodd" clip-rule="evenodd" d="M3.70704 2.29304C3.51844 2.11088 3.26584 2.01009 3.00364 2.01237C2.74144 2.01465 2.49063 2.11981 2.30522 2.30522C2.11981 2.49063 2.01465 2.74144 2.01237 3.00364C2.01009 3.26584 2.11088 3.51844 2.29304 3.70704L16.293 17.707C16.4816 17.8892 16.7342 17.99 16.9964 17.9877C17.2586 17.9854 17.5095 17.8803 17.6949 17.6949C17.8803 17.5095 17.9854 17.2586 17.9877 16.9964C17.99 16.7342 17.8892 16.4816 17.707 16.293L16.234 14.82C17.7916 13.5782 18.9433 11.9 19.542 10C18.268 5.94304 14.478 3.00004 10 3.00004C8.43247 2.99792 6.88654 3.3659 5.48804 4.07404L3.70804 2.29304H3.70704ZM7.96804 6.55304L9.48204 8.06804C9.82113 7.97799 10.1779 7.97859 10.5167 8.06977C10.8555 8.16095 11.1644 8.33952 11.4125 8.58761C11.6606 8.83569 11.8391 9.14458 11.9303 9.48337C12.0215 9.82216 12.0221 10.179 11.932 10.518L13.446 12.032C13.897 11.2681 14.0812 10.3758 13.9697 9.49572C13.8581 8.6156 13.4572 7.79754 12.8299 7.17022C12.2025 6.5429 11.3845 6.14193 10.5044 6.03039C9.62425 5.91885 8.73202 6.10305 7.96804 6.55404V6.55304Z"/>
<path d="M12.454 16.697L9.75001 13.992C8.77769 13.9311 7.86103 13.5174 7.17206 12.8286C6.4831 12.1398 6.06918 11.2233 6.00801 10.251L2.33501 6.578C1.49022 7.58402 0.852357 8.74692 0.458008 10C1.73201 14.057 5.52301 17 10 17C10.847 17 11.669 16.895 12.454 16.697Z"/>
</svg>