<svg viewBox="0 0 20 20" xmlns="http://www.w3.org/2000/svg" id="icon">
  <path d="M3.76231 4.20177C3.59163 4.0812 3.39324 4.01195 3.1883 4.00141C2.98336 3.99087 2.77957 4.03944 2.59866 4.14193C2.41775 4.24442 2.26651 4.39698 2.16107 4.58335C2.05564 4.76972 1.99997 4.9829 2 5.20014V14.7999C1.99997 15.0171 2.05564 15.2303 2.16107 15.4166C2.26651 15.603 2.41775 15.7556 2.59866 15.8581C2.77957 15.9606 2.98336 16.0091 3.1883 15.9986C3.39324 15.988 3.59163 15.9188 3.76231 15.7982L9.93321 11.4424V14.7999C9.93318 15.0171 9.98885 15.2303 10.0943 15.4166C10.1997 15.603 10.351 15.7556 10.5319 15.8581C10.7128 15.9606 10.9166 16.0091 11.1215 15.9986C11.3265 15.988 11.5248 15.9188 11.6955 15.7982L18.4954 10.9984C18.6506 10.8888 18.7779 10.7403 18.8659 10.5662C18.9539 10.392 19 10.1975 19 10C19 9.80247 18.9539 9.608 18.8659 9.43384C18.7779 9.25967 18.6506 9.11121 18.4954 9.00163L11.6955 4.20177C11.5248 4.0812 11.3265 4.01195 11.1215 4.00141C10.9166 3.99087 10.7128 4.03944 10.5319 4.14193C10.351 4.24442 10.1997 4.39698 10.0943 4.58335C9.98885 4.76972 9.93318 4.9829 9.93321 5.20014V8.55764L3.76231 4.20177Z"/>
</svg>
