<svg id="icon" viewBox="0 0 20 20" fill="currentColor" xmlns="http://www.w3.org/2000/svg">
<path fill-rule="evenodd" clip-rule="evenodd" d="M6.62501 2.65495C7.99134 2.10224 9.4725 1.89355 10.9384 2.04722C12.4042 2.20089 13.8099 2.71221 15.0319 3.53626C16.2539 4.36031 17.2548 5.47187 17.9467 6.77326C18.6386 8.07466 19.0003 9.52606 19 10.9999C19 11.2652 18.8947 11.5195 18.7071 11.7071C18.5196 11.8946 18.2652 11.9999 18 11.9999C17.7348 11.9999 17.4804 11.8946 17.2929 11.7071C17.1054 11.5195 17 11.2652 17 10.9999C17.0005 9.85347 16.7193 8.72442 16.1813 7.71204C15.6432 6.69965 14.8648 5.83491 13.9143 5.19382C12.9638 4.55272 11.8704 4.1549 10.7302 4.03531C9.58997 3.91572 8.43782 4.07802 7.37501 4.50795C7.25247 4.56205 7.12032 4.59098 6.98639 4.59303C6.85245 4.59508 6.71948 4.5702 6.59535 4.51987C6.47121 4.46954 6.35846 4.39478 6.26377 4.30004C6.16909 4.2053 6.0944 4.09249 6.04415 3.96833C5.99389 3.84417 5.96909 3.71118 5.97122 3.57725C5.97335 3.44332 6.00237 3.31118 6.05655 3.18868C6.11072 3.06618 6.18896 2.95581 6.28661 2.86412C6.38426 2.77244 6.49934 2.70131 6.62501 2.65495ZM4.66201 4.95895C4.86071 5.13444 4.9816 5.38164 4.9981 5.64623C5.0146 5.91082 4.92536 6.17113 4.75001 6.36995C3.61987 7.64721 2.99725 9.29449 3.00001 10.9999C3.00001 11.2652 2.89465 11.5195 2.70711 11.7071C2.51958 11.8946 2.26522 11.9999 2.00001 11.9999C1.73479 11.9999 1.48044 11.8946 1.2929 11.7071C1.10536 11.5195 1.00001 11.2652 1.00001 10.9999C0.99722 8.80731 1.79764 6.68959 3.25001 5.04695C3.33691 4.94841 3.44239 4.86797 3.5604 4.81022C3.67841 4.75246 3.80664 4.71853 3.93777 4.71036C4.0689 4.70219 4.20036 4.71993 4.32463 4.76259C4.44889 4.80524 4.56354 4.87197 4.66201 4.95895ZM5.00001 11C5.00001 9.67392 5.5268 8.40215 6.46448 7.46447C7.40216 6.52678 8.67393 6 10 6C11.3261 6 12.5979 6.52678 13.5355 7.46447C14.4732 8.40215 15 9.67392 15 11C15 11.2652 14.8947 11.5196 14.7071 11.7071C14.5196 11.8946 14.2652 12 14 12C13.7348 12 13.4804 11.8946 13.2929 11.7071C13.1054 11.5196 13 11.2652 13 11C13 10.2044 12.6839 9.44129 12.1213 8.87868C11.5587 8.31607 10.7957 8 10 8C9.20436 8 8.4413 8.31607 7.87869 8.87868C7.31608 9.44129 7.00001 10.2044 7.00001 11C7.00001 12.677 6.65501 14.276 6.03201 15.729C5.92738 15.9727 5.73022 16.1649 5.48389 16.2633C5.23756 16.3616 4.96224 16.3581 4.71851 16.2535C4.47478 16.1489 4.28259 15.9517 4.18423 15.7054C4.08586 15.459 4.08938 15.1837 4.19401 14.94C4.72768 13.6951 5.00193 12.3545 5.00001 11ZM13.921 13.012C14.0508 13.0326 14.1752 13.0785 14.2872 13.1472C14.3992 13.2159 14.4966 13.306 14.5738 13.4123C14.651 13.5186 14.7064 13.6391 14.737 13.7669C14.7676 13.8947 14.7727 14.0272 14.752 14.157C14.6216 14.9796 14.4396 15.7932 14.207 16.593C14.1728 16.7219 14.1133 16.8426 14.0318 16.9481C13.9502 17.0536 13.8485 17.1417 13.7324 17.2073C13.6164 17.2729 13.4883 17.3146 13.3559 17.33C13.2235 17.3454 13.0893 17.3342 12.9613 17.297C12.8333 17.2598 12.714 17.1973 12.6105 17.1134C12.507 17.0294 12.4213 16.9256 12.3584 16.808C12.2956 16.6904 12.2569 16.5615 12.2447 16.4287C12.2324 16.296 12.2468 16.1621 12.287 16.035C12.494 15.322 12.658 14.59 12.777 13.843C12.8188 13.5813 12.9628 13.3469 13.1773 13.1913C13.3918 13.0356 13.6593 12.9715 13.921 13.013V13.012ZM10.7071 10.2929C10.5196 10.1054 10.2652 10 9.99999 10C9.73477 10 9.48042 10.1054 9.29288 10.2929C9.10535 10.4804 8.99999 10.7348 8.99999 11C9.0026 12.8959 8.61879 14.7724 7.87199 16.515C7.82018 16.6357 7.79265 16.7654 7.79098 16.8967C7.7893 17.028 7.8135 17.1584 7.8622 17.2804C7.91091 17.4023 7.98316 17.5135 8.07483 17.6076C8.16651 17.7016 8.2758 17.7767 8.39649 17.8285C8.51717 17.8803 8.64688 17.9078 8.7782 17.9095C8.90953 17.9112 9.0399 17.887 9.16187 17.8383C9.28384 17.7896 9.39502 17.7173 9.48907 17.6257C9.58311 17.534 9.65818 17.4247 9.70999 17.304C10.54 15.368 11 13.236 11 11C11 10.7348 10.8946 10.4804 10.7071 10.2929Z"/>
</svg>