<svg viewBox="0 0 20 20" xmlns="http://www.w3.org/2000/svg" id="icon">
  <path fill-rule="evenodd" d="M2.5 2C1.11875 2 0 3.19333 0 4.66667V15.3333C0 16.8067 1.11875 18 2.5 18H17.5C18.8813 18 20 16.8067 20 15.3333V7.33333C20 5.86 18.8813 4.66667 17.5 4.66667H11.25L8.75 2H2.5ZM11.25 8.66667C11.25 7.93067 10.69 7.33333 10 7.33333C9.31 7.33333 8.75 7.93067 8.75 8.66667V10H7.5C6.81 10 6.25 10.5973 6.25 11.3333C6.25 12.0693 6.81 12.6667 7.5 12.6667H8.75V14C8.75 14.736 9.31 15.3333 10 15.3333C10.69 15.3333 11.25 14.736 11.25 14V12.6667H12.5C13.19 12.6667 13.75 12.0693 13.75 11.3333C13.75 10.5973 13.19 10 12.5 10H11.25V8.66667Z"/>
</svg>
