<svg viewBox="0 0 20 20" xmlns="http://www.w3.org/2000/svg" id="icon">
  <path fill-rule="evenodd" d="M3 7V3H7V7H3ZM1 2C1 1.44772 1.44772 1 2 1H8C8.55228 1 9 1.44772 9 2V8C9 8.55228 8.55228 9 8 9H2C1.44772 9 1 8.55228 1 8V2ZM3 17V13H7V17H3ZM1 12C1 11.4477 1.44772 11 2 11H8C8.55228 11 9 11.4477 9 12V18C9 18.5523 8.55228 19 8 19H2C1.44772 19 1 18.5523 1 18V12ZM13 3V7H17V3H13ZM12 1C11.4477 1 11 1.44772 11 2V8C11 8.55228 11.4477 9 12 9H18C18.5523 9 19 8.55228 19 8V2C19 1.44772 18.5523 1 18 1H12ZM13 17V13H17V17H13ZM11 12C11 11.4477 11.4477 11 12 11H18C18.5523 11 19 11.4477 19 12V18C19 18.5523 18.5523 19 18 19H12C11.4477 19 11 18.5523 11 18V12Z"/>
</svg>
