<svg viewBox="0 0 20 20" xmlns="http://www.w3.org/2000/svg" id="icon">
  <path fill-rule="evenodd" d="M8.85714 2.125C8.85714 1.82663 8.97755 1.54048 9.19188 1.3295C9.40621 1.11853 9.6969 1 10 1C10.3031 1 10.5938 1.11853 10.8081 1.3295C11.0224 1.54048 11.1429 1.82663 11.1429 2.125V8.3125C11.1429 8.46168 11.2031 8.60476 11.3102 8.71025C11.4174 8.81574 11.5627 8.875 11.7143 8.875C11.8658 8.875 12.0112 8.81574 12.1183 8.71025C12.2255 8.60476 12.2857 8.46168 12.2857 8.3125V3.25C12.2857 2.95163 12.4061 2.66548 12.6205 2.4545C12.8348 2.24353 13.1255 2.125 13.4286 2.125C13.7317 2.125 14.0224 2.24353 14.2367 2.4545C14.451 2.66548 14.5714 2.95163 14.5714 3.25V8.3125C14.5714 8.46168 14.6316 8.60476 14.7388 8.71025C14.846 8.81574 14.9913 8.875 15.1429 8.875C15.2944 8.875 15.4398 8.81574 15.5469 8.71025C15.6541 8.60476 15.7143 8.46168 15.7143 8.3125V5.5C15.7143 5.20163 15.8347 4.91548 16.049 4.7045C16.2633 4.49353 16.554 4.375 16.8571 4.375C17.1602 4.375 17.4509 4.49353 17.6653 4.7045C17.8796 4.91548 18 5.20163 18 5.5V11.125C18 12.1592 17.7931 13.1832 17.391 14.1386C16.989 15.0941 16.3997 15.9622 15.6569 16.6935C14.914 17.4247 14.0321 18.0048 13.0615 18.4006C12.0909 18.7963 11.0506 19 10 19C8.94943 19 7.90914 18.7963 6.93853 18.4006C5.96793 18.0048 5.08601 17.4247 4.34315 16.6935C3.60028 15.9622 3.011 15.0941 2.60896 14.1386C2.20693 13.1832 2 12.1592 2 11.125V8.875C2 8.57663 2.12041 8.29048 2.33474 8.0795C2.54906 7.86853 2.83975 7.75 3.14286 7.75C3.44596 7.75 3.73665 7.86853 3.95098 8.0795C4.16531 8.29048 4.28571 8.57663 4.28571 8.875V11.6875C4.28571 11.8367 4.34592 11.9798 4.45308 12.0852C4.56025 12.1907 4.70559 12.25 4.85714 12.25C5.0087 12.25 5.15404 12.1907 5.2612 12.0852C5.36837 11.9798 5.42857 11.8367 5.42857 11.6875V3.25C5.42857 2.95163 5.54898 2.66548 5.76331 2.4545C5.97763 2.24353 6.26832 2.125 6.57143 2.125C6.87453 2.125 7.16522 2.24353 7.37955 2.4545C7.59388 2.66548 7.71429 2.95163 7.71429 3.25V8.3125C7.71429 8.46168 7.77449 8.60476 7.88165 8.71025C7.98882 8.81574 8.13416 8.875 8.28571 8.875C8.43727 8.875 8.58261 8.81574 8.68978 8.71025C8.79694 8.60476 8.85714 8.46168 8.85714 8.3125V2.125Z"/>
</svg>
