<svg id="icon" viewBox="0 0 20 20" fill="currentColor" xmlns="http://www.w3.org/2000/svg">
<path d="M8.70704 7.293C8.51844 7.11084 8.26584 7.01005 8.00364 7.01233C7.74144 7.0146 7.49063 7.11977 7.30522 7.30518C7.11981 7.49059 7.01465 7.7414 7.01237 8.0036C7.01009 8.2658 7.11088 8.5184 7.29304 8.707L9.29304 10.707C9.48057 10.8945 9.73488 10.9998 10 10.9998C10.2652 10.9998 10.5195 10.8945 10.707 10.707L12.707 8.707C12.8892 8.5184 12.99 8.2658 12.9877 8.0036C12.9854 7.7414 12.8803 7.49059 12.6949 7.30518C12.5095 7.11977 12.2586 7.0146 11.9964 7.01233C11.7342 7.01005 11.4816 7.11084 11.293 7.293L11 7.586V3C11 2.73478 10.8947 2.48043 10.7071 2.29289C10.5196 2.10536 10.2653 2 10 2C9.73482 2 9.48047 2.10536 9.29293 2.29289C9.1054 2.48043 9.00004 2.73478 9.00004 3V7.586L8.70704 7.293Z"/>
<path d="M3 5C3 4.46957 3.21071 3.96086 3.58579 3.58579C3.96086 3.21071 4.46957 3 5 3H6C6.26522 3 6.51957 3.10536 6.70711 3.29289C6.89464 3.48043 7 3.73478 7 4C7 4.26522 6.89464 4.51957 6.70711 4.70711C6.51957 4.89464 6.26522 5 6 5H5V12H7L8 14H12L13 12H15V5H14C13.7348 5 13.4804 4.89464 13.2929 4.70711C13.1054 4.51957 13 4.26522 13 4C13 3.73478 13.1054 3.48043 13.2929 3.29289C13.4804 3.10536 13.7348 3 14 3H15C15.5304 3 16.0391 3.21071 16.4142 3.58579C16.7893 3.96086 17 4.46957 17 5V15C17 15.5304 16.7893 16.0391 16.4142 16.4142C16.0391 16.7893 15.5304 17 15 17H5C4.46957 17 3.96086 16.7893 3.58579 16.4142C3.21071 16.0391 3 15.5304 3 15V5Z"/>
</svg>