<svg viewBox="0 0 20 20" xmlns="http://www.w3.org/2000/svg" id="icon">
  <path fill-rule="evenodd" d="M20 10C20 12.6522 18.9464 15.1957 17.0711 17.0711C15.1957 18.9464 12.6522 20 10 20C7.34784 20 4.8043 18.9464 2.92893 17.0711C1.05357 15.1957 0 12.6522 0 10C0 7.34784 1.05357 4.8043 2.92893 2.92893C4.8043 1.05357 7.34784 0 10 0C12.6522 0 15.1957 1.05357 17.0711 2.92893C18.9464 4.8043 20 7.34784 20 10ZM11.25 5C11.25 5.33152 11.1183 5.64946 10.8839 5.88388C10.6495 6.1183 10.3315 6.25 10 6.25C9.66848 6.25 9.35054 6.1183 9.11612 5.88388C8.8817 5.64946 8.75 5.33152 8.75 5C8.75 4.66848 8.8817 4.35054 9.11612 4.11612C9.35054 3.8817 9.66848 3.75 10 3.75C10.3315 3.75 10.6495 3.8817 10.8839 4.11612C11.1183 4.35054 11.25 4.66848 11.25 5ZM8.75 8.75C8.41848 8.75 8.10054 8.8817 7.86612 9.11612C7.6317 9.35054 7.5 9.66848 7.5 10C7.5 10.3315 7.6317 10.6495 7.86612 10.8839C8.10054 11.1183 8.41848 11.25 8.75 11.25V15C8.75 15.3315 8.8817 15.6495 9.11612 15.8839C9.35054 16.1183 9.66848 16.25 10 16.25H11.25C11.5815 16.25 11.8995 16.1183 12.1339 15.8839C12.3683 15.6495 12.5 15.3315 12.5 15C12.5 14.6685 12.3683 14.3505 12.1339 14.1161C11.8995 13.8817 11.5815 13.75 11.25 13.75V10C11.25 9.66848 11.1183 9.35054 10.8839 9.11612C10.6495 8.8817 10.3315 8.75 10 8.75H8.75Z"/>
</svg>
