<svg viewBox="0 0 20 20" xmlns="http://www.w3.org/2000/svg" id="icon">
  <path fill-rule="evenodd" d="M13.2939 3.17106C13.5246 2.93228 13.8004 2.74183 14.1054 2.61081C14.4104 2.47978 14.7385 2.41082 15.0704 2.40793C15.4024 2.40505 15.7316 2.4683 16.0388 2.59401C16.3461 2.71971 16.6252 2.90534 16.8599 3.14007C17.0947 3.3748 17.2803 3.65393 17.406 3.96117C17.5317 4.26841 17.5949 4.59761 17.5921 4.92956C17.5892 5.26151 17.5202 5.58956 17.3892 5.89457C17.2582 6.19958 17.0677 6.47544 16.8289 6.70606L13.0789 10.4561C12.6101 10.9247 11.9743 11.188 11.3114 11.188C10.6485 11.188 10.0128 10.9247 9.54394 10.4561C9.30819 10.2284 8.99243 10.1024 8.66469 10.1052C8.33694 10.1081 8.02343 10.2395 7.79167 10.4713C7.55991 10.703 7.42845 11.0166 7.4256 11.3443C7.42275 11.6721 7.54874 11.9878 7.77644 12.2236C8.71408 13.1609 9.98562 13.6875 11.3114 13.6875C12.6373 13.6875 13.9088 13.1609 14.8464 12.2236L18.5964 8.47356C19.5072 7.53055 20.0112 6.26754 19.9998 4.95655C19.9884 3.64557 19.4626 2.39151 18.5355 1.46447C17.6085 0.537426 16.3544 0.0115811 15.0434 0.000189013C13.7325 -0.0112031 12.4694 0.492769 11.5264 1.40356L9.65144 3.27856C9.53205 3.39387 9.43682 3.5318 9.37131 3.6843C9.3058 3.83681 9.27132 4.00083 9.26988 4.16681C9.26844 4.33278 9.30006 4.49738 9.36291 4.651C9.42576 4.80462 9.51858 4.94419 9.63595 5.06155C9.75331 5.17892 9.89288 5.27174 10.0465 5.33459C10.2001 5.39744 10.3647 5.42907 10.5307 5.42762C10.6967 5.42618 10.8607 5.3917 11.0132 5.32619C11.1657 5.26067 11.3036 5.16545 11.4189 5.04606L13.2939 3.17106ZM7.04394 9.42106C7.51276 8.95238 8.14853 8.68909 8.81144 8.68909C9.47435 8.68909 10.1101 8.95238 10.5789 9.42106C10.6942 9.54045 10.8322 9.63568 10.9847 9.70119C11.1372 9.7667 11.3012 9.80118 11.4672 9.80262C11.6332 9.80406 11.7978 9.77244 11.9514 9.70959C12.105 9.64674 12.2446 9.55392 12.3619 9.43655C12.4793 9.31919 12.5721 9.17962 12.635 9.026C12.6978 8.87238 12.7294 8.70778 12.728 8.54181C12.7266 8.37583 12.6921 8.21181 12.6266 8.0593C12.5611 7.9068 12.4658 7.76887 12.3464 7.65356C11.4088 6.7162 10.1373 6.18963 8.81144 6.18963C7.48562 6.18963 6.21408 6.7162 5.27644 7.65356L1.52644 11.4036C1.04889 11.8648 0.667979 12.4165 0.405934 13.0265C0.143889 13.6366 0.00595787 14.2927 0.000188784 14.9566C-0.0055803 15.6205 0.120928 16.2788 0.372333 16.8933C0.623737 17.5078 0.995003 18.0661 1.46447 18.5355C1.93393 19.005 2.49219 19.3763 3.10667 19.6277C3.72115 19.8791 4.37955 20.0056 5.04345 19.9998C5.70734 19.994 6.36344 19.8561 6.97346 19.5941C7.58348 19.332 8.13521 18.9511 8.59644 18.4736L10.4714 16.5986C10.5908 16.4833 10.6861 16.3453 10.7516 16.1928C10.8171 16.0403 10.8516 15.8763 10.853 15.7103C10.8544 15.5443 10.8228 15.3797 10.76 15.2261C10.6971 15.0725 10.6043 14.9329 10.4869 14.8156C10.3696 14.6982 10.23 14.6054 10.0764 14.5425C9.92276 14.4797 9.75816 14.4481 9.59219 14.4495C9.42621 14.4509 9.26219 14.4854 9.10968 14.5509C8.95718 14.6164 8.81925 14.7117 8.70394 14.8311L6.82894 16.7061C6.59832 16.9448 6.32246 17.1353 6.01745 17.2663C5.71244 17.3973 5.38439 17.4663 5.05244 17.4692C4.7205 17.4721 4.3913 17.4088 4.08406 17.2831C3.77681 17.1574 3.49769 16.9718 3.26295 16.737C3.02822 16.5023 2.84259 16.2232 2.71689 15.9159C2.59118 15.6087 2.52793 15.2795 2.53081 14.9476C2.5337 14.6156 2.60266 14.2876 2.73369 13.9825C2.86471 13.6775 3.05517 13.4017 3.29394 13.1711L7.04394 9.42106Z"/>
</svg>
