<svg viewBox="0 0 20 20" xmlns="http://www.w3.org/2000/svg" id="icon">
  <path fill-rule="evenodd" d="M1 2.5C0.447715 2.5 0 2.94772 0 3.5V4.5C0 5.05228 0.447715 5.5 1 5.5H2C2.55228 5.5 3 5.05228 3 4.5V3.5C3 2.94772 2.55228 2.5 2 2.5H1ZM6 2.5C5.44772 2.5 5 2.94772 5 3.5V4.5C5 5.05228 5.44772 5.5 6 5.5H19C19.5523 5.5 20 5.05228 20 4.5V3.5C20 2.94772 19.5523 2.5 19 2.5H6ZM1 8.5C0.447715 8.5 0 8.94772 0 9.5V10.5C0 11.0523 0.447715 11.5 1 11.5H2C2.55228 11.5 3 11.0523 3 10.5V9.5C3 8.94772 2.55228 8.5 2 8.5H1ZM6 8.5C5.44772 8.5 5 8.94772 5 9.5V10.5C5 11.0523 5.44772 11.5 6 11.5H19C19.5523 11.5 20 11.0523 20 10.5V9.5C20 8.94772 19.5523 8.5 19 8.5H6ZM0 15.5C0 14.9477 0.447715 14.5 1 14.5H2C2.55228 14.5 3 14.9477 3 15.5V16.5C3 17.0523 2.55228 17.5 2 17.5H1C0.447715 17.5 0 17.0523 0 16.5V15.5ZM5 15.5C5 14.9477 5.44772 14.5 6 14.5H19C19.5523 14.5 20 14.9477 20 15.5V16.5C20 17.0523 19.5523 17.5 19 17.5H6C5.44772 17.5 5 17.0523 5 16.5V15.5Z"/>
</svg>
