<svg viewBox="0 0 20 20" xmlns="http://www.w3.org/2000/svg" id="icon">
  <path fill-rule="evenodd" d="M6.00782 3.26498C6.35547 2.87983 6.32422 2.28725 5.94141 1.94077C5.55469 1.59428 4.96094 1.62553 4.61718 2.0103L2.46406 4.39936L1.60039 3.53725C1.23438 3.17124 0.640623 3.17124 0.27457 3.53725C-0.0915233 3.90327 -0.0915233 4.49701 0.27457 4.82905L1.83711 6.39155C2.01914 6.60639 2.26758 6.70795 2.52461 6.66498C2.78164 6.69233 3.02461 6.57905 3.19688 6.39155L6.00782 3.26498ZM6.00782 9.51654C6.35547 9.12985 6.32422 8.53608 5.94141 8.19231C5.55469 7.84467 4.96094 7.87592 4.61718 8.25877L2.46406 10.6494L1.60039 9.78608C1.23438 9.42277 0.640623 9.42277 0.27457 9.78608C-0.0915233 10.1532 -0.0915233 10.747 0.27457 11.0791L1.83711 12.6415C2.01914 12.8564 2.26758 12.9579 2.52461 12.915C2.78164 12.9423 3.02461 12.8291 3.19688 12.6415L6.00782 9.51654ZM10 2.95014C9.30862 2.95014 8.75 3.50991 8.75 4.20014C8.75 4.89155 9.30862 5.45014 10 5.45014H18.75C19.4414 5.45014 20 4.89155 20 4.20014C20 3.50991 19.4414 2.95014 18.75 2.95014H10ZM10 9.20015C9.30862 9.20015 8.75 9.75877 8.75 10.4502C8.75 11.1415 9.30862 11.7002 10 11.7002H18.75C19.4414 11.7002 20 11.1415 20 10.4502C20 9.75877 19.4414 9.20015 18.75 9.20015H10ZM8.36539 15.4502C7.67398 15.4502 7.11539 16.0088 7.11539 16.7002C7.11539 17.3915 7.67398 17.9502 8.36539 17.9502H18.75C19.4414 17.9502 20 17.3915 20 16.7002C20 16.0088 19.4414 15.4502 18.75 15.4502H8.36539ZM2.61528 18.2502C3.44371 18.2502 4.11528 17.5786 4.11528 16.7502C4.11528 15.9217 3.44371 15.2502 2.61528 15.2502C1.78685 15.2502 1.11528 15.9217 1.11528 16.7502C1.11528 17.5786 1.78685 18.2502 2.61528 18.2502Z"/>
</svg>
