<svg id="icon" viewBox="0 0 20 20" fill="currentColor" xmlns="http://www.w3.org/2000/svg">
<path fill-rule="evenodd" clip-rule="evenodd" d="M1 2C0.447715 2 0 2.44772 0 3V4C0 4.55228 0.447715 5 1 5H2C2.55228 5 3 4.55228 3 4V3C3 2.44772 2.55228 2 2 2H1ZM6 2C5.44772 2 5 2.44772 5 3V4C5 4.55228 5.44772 5 6 5H19C19.5523 5 20 4.55228 20 4V3C20 2.44772 19.5523 2 19 2H6Z"/>
<path fill-rule="evenodd" clip-rule="evenodd" d="M1 8C0.447715 8 0 8.44772 0 9V10C0 10.5523 0.447715 11 1 11H2C2.55228 11 3 10.5523 3 10V9C3 8.44772 2.55228 8 2 8H1ZM6 8C5.44772 8 5 8.44772 5 9V10C5 10.5523 5.44772 11 6 11H19C19.5523 11 20 10.5523 20 10V9C20 8.44772 19.5523 8 19 8H6Z"/>
<path fill-rule="evenodd" clip-rule="evenodd" d="M1 14C0.447715 14 0 14.4477 0 15V16C0 16.5523 0.447715 17 1 17H2C2.55228 17 3 16.5523 3 16V15C3 14.4477 2.55228 14 2 14H1ZM6 14C5.44772 14 5 14.4477 5 15V16C5 16.5523 5.44772 17 6 17H19C19.5523 17 20 16.5523 20 16V15C20 14.4477 19.5523 14 19 14H6Z"/>
</svg>