<svg viewBox="0 0 20 20" xmlns="http://www.w3.org/2000/svg" id="icon">
  <path fill-rule="evenodd" d="M4.91797 16.4141H9.12891C9.97266 16.4141 10.6562 17.0977 10.6562 17.9414C10.6562 18.7852 9.97266 19.4688 9.12891 19.4688H4.91797C2.19922 19.4688 0 17.2656 0 14.5508V5.44531C0 2.73047 2.20312 0.53125 4.91797 0.527344H9.12891C9.97266 0.527344 10.6562 1.21094 10.6562 2.05469C10.6562 2.89844 9.97266 3.58203 9.12891 3.58203H4.91797C3.88672 3.58203 3.05469 4.41797 3.05469 5.44531V14.5508C3.05469 15.582 3.89062 16.4141 4.91797 16.4141ZM15.7851 5.15625L19.5507 8.92578C20.1483 9.52344 20.1483 10.4883 19.5546 11.0859L15.7968 14.8438C15.1991 15.4414 14.2343 15.4414 13.6366 14.8438C13.039 14.2461 13.039 13.2813 13.6366 12.6836L14.7382 11.582H8.18741C7.36319 11.5664 6.69522 10.9023 6.6835 10.0781C6.67178 9.23438 7.34366 8.53906 8.18741 8.52734H14.8358L13.6249 7.31641C13.0272 6.71875 13.0272 5.75391 13.6249 5.15625C14.2226 4.55859 15.1874 4.55859 15.7851 5.15625Z"/>
</svg>
