<svg id="icon" viewBox="0 0 20 20" fill="currentColor" xmlns="http://www.w3.org/2000/svg">
<path d="M1 5.24209L10 10L19 5.24209C18.9667 4.63569 18.7154 4.06569 18.2975 3.64886C17.8797 3.23202 17.327 2.99989 16.7525 3H3.24747C2.67304 2.99989 2.1203 3.23202 1.70246 3.64886C1.28463 4.06569 1.03332 4.63569 1 5.24209V5.24209Z"/>
<path d="M19 8L10 12.5674L1 8V14.7163C1 15.322 1.23705 15.9028 1.65901 16.3311C2.08097 16.7594 2.65326 17 3.25 17H16.75C17.3467 17 17.919 16.7594 18.341 16.3311C18.7629 15.9028 19 15.322 19 14.7163V8Z"/>
</svg>
