<svg viewBox="0 0 20 20" xmlns="http://www.w3.org/2000/svg" id="icon">
  <path fill-rule="evenodd" d="M10 10L0 4.56239C0.037019 3.86936 0.316254 3.21794 0.780515 2.74155C1.24478 2.26517 1.85893 1.99987 2.49719 2H17.5028C18.1411 1.99987 18.7552 2.26517 19.2195 2.74155C19.6837 3.21794 19.963 3.86936 20 4.56239L10 10ZM10 12.9341L20 7.71429V15.3901C20 16.0823 19.7366 16.7461 19.2678 17.2356C18.7989 17.725 18.163 18 17.5 18H2.5C1.83696 18 1.20107 17.725 0.732233 17.2356C0.263392 16.7461 0 16.0823 0 15.3901V7.71429L10 12.9341Z"/>
</svg>
