<svg viewBox="0 0 20 20" xmlns="http://www.w3.org/2000/svg" id="icon">
  <path fill-rule="evenodd" d="M12.25 1L7.75 5.27858V19L12.25 14.7214V1ZM2.92037 2.82589C2.76304 2.67634 2.56261 2.5745 2.34441 2.53325C2.12621 2.49199 1.90005 2.51318 1.69451 2.59412C1.48898 2.67506 1.31329 2.81212 1.18967 2.98798C1.06605 3.16384 1.00005 3.3706 1 3.58213V14.2786C1.00006 14.5622 1.11863 14.8343 1.32962 15.0348L5.5 19V5.27858L2.92037 2.82589ZM18.6704 4.96518L14.5 1V14.7214L17.0796 17.1741C17.237 17.3237 17.4374 17.4255 17.6556 17.4668C17.8738 17.508 18.0999 17.4868 18.3055 17.4059C18.511 17.3249 18.6867 17.1879 18.8103 17.012C18.9339 16.8362 19 16.6294 19 16.4179V5.72142C18.9999 5.43775 18.8814 5.16573 18.6704 4.96518Z"/>
</svg>
