<svg viewBox="0 0 20 20" xmlns="http://www.w3.org/2000/svg" id="icon">
  <path d="M17.293 13.293C15.8115 13.9631 14.161 14.1659 12.5614 13.8743C10.9617 13.5827 9.48895 12.8106 8.33919 11.6608C7.18944 10.5111 6.41734 9.03827 6.12574 7.43863C5.83415 5.839 6.03691 4.18849 6.70701 2.707C5.52758 3.24001 4.49505 4.0512 3.69802 5.07096C2.90099 6.09072 2.36324 7.28862 2.13092 8.56189C1.8986 9.83515 1.97864 11.1458 2.36417 12.3813C2.7497 13.6168 3.42922 14.7404 4.34442 15.6556C5.25961 16.5708 6.38318 17.2503 7.61871 17.6358C8.85424 18.0214 10.1649 18.1014 11.4381 17.8691C12.7114 17.6368 13.9093 17.099 14.9291 16.302C15.9488 15.505 16.76 14.4724 17.293 13.293Z"/>
</svg>
