<svg viewBox="0 0 20 20" xmlns="http://www.w3.org/2000/svg" id="icon">
  <path fill-rule="evenodd" d="M8.55101 2.03247C8.57506 2.10463 8.67127 2.15274 8.77951 2.15274H8.83964C9.5002 2 10.5002 2 11.1848 2.15274C11.3051 2.16476 11.4374 2.11666 11.4614 2.03247L11.738 1.21467C11.8222 0.95009 11.738 0.685508 11.4734 0.469032C11.1367 0.180397 10.5594 0 10.0062 0C9.45299 0 8.87572 0.180397 8.53898 0.469032C8.2744 0.697535 8.19022 0.962117 8.2744 1.21467L8.55101 2.03247ZM7.48057 17.9555C7.48057 19.086 8.61105 20 10.0061 20C11.4012 20 12.5317 19.086 12.5317 17.9555C12.5317 17.8473 12.4234 17.7631 12.2911 17.7631H7.70907C7.5888 17.7631 7.48057 17.8473 7.48057 17.9555ZM16.0778 14.5917H3.23358C3.05318 14.5917 2.94494 14.4113 3.02913 14.255C4.08753 12.3457 4.07159 11.1629 4.04729 9.36034L4.04729 9.36029C4.04343 9.07366 4.03935 8.77137 4.03935 8.44799C4.03935 5.44137 6.56491 3 9.66773 3C12.7706 3 15.2961 5.44137 15.2961 8.44799C15.2961 8.76942 15.292 9.07026 15.2882 9.35582C15.2639 11.1536 15.2478 12.3454 16.3063 14.255C16.3905 14.4113 16.2823 14.5917 16.1019 14.5917H16.0778ZM3.47578 17.1738H16.5245C17.2461 17.1738 17.8354 16.6687 17.8354 16.0193C17.8354 15.3698 17.2461 14.8527 16.5245 14.8527H3.47578C2.75419 14.8527 2.16489 15.3819 2.16489 16.0193C2.16489 16.6567 2.75419 17.1738 3.47578 17.1738ZM18.5609 6.21934C18.2477 4.56719 17.3724 3.02924 16.1084 1.91511C15.7524 1.59739 15.227 1.63988 14.916 1.98751C14.5974 2.34353 14.6397 2.86955 14.9876 3.18083L14.9903 3.18317C15.9855 4.05255 16.6608 5.2429 16.9011 6.53581C16.9084 6.5751 16.9233 6.61179 16.9443 6.6442C17.0605 6.98722 17.3835 7.21395 17.7379 7.21395H17.8335C17.8532 7.21395 17.8729 7.21199 17.8923 7.20812C18.3482 7.11694 18.6538 6.68847 18.5609 6.21934ZM3.5717 1.91511C2.30774 3.02924 1.43243 4.56719 1.1192 6.21934C1.02628 6.68847 1.33194 7.11694 1.78782 7.20812C1.80719 7.21199 1.8269 7.21395 1.84665 7.21395H1.94223C2.29658 7.21395 2.61962 6.98722 2.73578 6.6442C2.7568 6.61179 2.7717 6.5751 2.77901 6.53581C3.01928 5.2429 3.69464 4.05255 4.68984 3.18317L4.69253 3.18083C5.04043 2.86955 5.0827 2.34353 4.76415 1.98751C4.45312 1.63988 3.9277 1.59739 3.5717 1.91511Z"/>
</svg>
