<svg viewBox="0 0 20 20" xmlns="http://www.w3.org/2000/svg" id="icon">
  <path fill-rule="evenodd" d="M2.28571 2.5C2.28571 1.83696 2.55663 1.20107 3.03887 0.732233C3.5211 0.263392 4.17516 0 4.85714 0H15.1429C15.8248 0 16.4789 0.263392 16.9611 0.732233C17.4434 1.20107 17.7143 1.83696 17.7143 2.5V17.5C18.0553 17.5 18.3823 17.6317 18.6234 17.8661C18.8645 18.1005 19 18.4185 19 18.75C19 19.0815 18.8645 19.3995 18.6234 19.6339C18.3823 19.8683 18.0553 20 17.7143 20H13.8571C13.5162 20 13.1891 19.8683 12.948 19.6339C12.7069 19.3995 12.5714 19.0815 12.5714 18.75V16.25C12.5714 15.9185 12.436 15.6005 12.1949 15.3661C11.9537 15.1317 11.6267 15 11.2857 15H8.71429C8.37329 15 8.04627 15.1317 7.80515 15.3661C7.56403 15.6005 7.42857 15.9185 7.42857 16.25V18.75C7.42857 19.0815 7.29311 19.3995 7.05199 19.6339C6.81088 19.8683 6.48385 20 6.14286 20H2.28571C1.94472 20 1.6177 19.8683 1.37658 19.6339C1.13546 19.3995 1 19.0815 1 18.75C1 18.4185 1.13546 18.1005 1.37658 17.8661C1.6177 17.6317 1.94472 17.5 2.28571 17.5V2.5ZM6.14286 3.75H8.71429V6.25H6.14286V3.75ZM8.71429 8.75H6.14286V11.25H8.71429V8.75ZM11.2857 3.75H13.8571V6.25H11.2857V3.75ZM13.8571 8.75H11.2857V11.25H13.8571V8.75Z"/>
</svg>
