<svg viewBox="0 0 20 20" xmlns="http://www.w3.org/2000/svg" id="icon">
  <path fill-rule="evenodd" d="M2.5 16.3983C2.5 16.8231 2.66872 17.2305 2.96904 17.531C3.26946 17.8313 3.67687 18 4.10166 18C4.52645 18 4.93386 17.8313 5.23428 17.531L11.6423 11.1229C11.9426 10.8225 12.1113 10.4151 12.1113 9.99033C12.1113 9.56553 11.9426 9.15813 11.6423 8.85771L5.23428 2.4497C4.93214 2.15788 4.52747 1.99641 4.10743 2.00006C3.68739 2.00371 3.28558 2.17219 2.98856 2.46922C2.69153 2.76624 2.52305 3.16804 2.5194 3.58808C2.51575 4.00812 2.67723 4.41279 2.96904 4.71493L8.24444 9.99033L2.96904 15.2657C2.66872 15.5661 2.5 15.9735 2.5 16.3983ZM16 2C15.1716 2 14.5 2.67157 14.5 3.5V16.5C14.5 17.3284 15.1716 18 16 18C16.8284 18 17.5 17.3284 17.5 16.5V3.5C17.5 2.67157 16.8284 2 16 2Z"/>
</svg>
