<svg viewBox="0 0 20 20" xmlns="http://www.w3.org/2000/svg" id="icon">
  <path d="M11.1171 0.689942C11.0132 0.482582 10.8536 0.308227 10.6563 0.18638C10.4589 0.0645329 10.2316 0 9.99963 0C9.7677 0 9.54033 0.0645329 9.34298 0.18638C9.14562 0.308227 8.98606 0.482582 8.88213 0.689942L0.132127 18.1906C0.0235571 18.4076 -0.0195169 18.6515 0.00815981 18.8925C0.0358365 19.1336 0.133068 19.3614 0.287992 19.5481C0.442916 19.7349 0.648837 19.8725 0.880633 19.9442C1.11243 20.0159 1.36008 20.0186 1.59338 19.9519L7.84338 18.1656C8.1046 18.0909 8.33437 17.9331 8.49789 17.7161C8.66141 17.4991 8.74979 17.2348 8.74963 16.963V11.2491C8.74963 10.9176 8.88133 10.5996 9.11575 10.3652C9.35017 10.1307 9.66811 9.99904 9.99963 9.99904C10.3312 9.99904 10.6491 10.1307 10.8835 10.3652C11.1179 10.5996 11.2496 10.9176 11.2496 11.2491V16.963C11.2495 17.2348 11.3379 17.4991 11.5014 17.7161C11.6649 17.9331 11.8947 18.0909 12.1559 18.1656L18.4059 19.9507C18.6391 20.0174 18.8867 20.0149 19.1185 19.9434C19.3504 19.8719 19.5563 19.7344 19.7114 19.5478C19.8664 19.3612 19.9638 19.1336 19.9917 18.8926C20.0196 18.6516 19.9767 18.4077 19.8684 18.1906L11.1184 0.689942H11.1171Z"/>
</svg>
