<svg id="icon" viewBox="0 0 20 20" fill="currentColor" xmlns="http://www.w3.org/2000/svg">
<path d="M17.9875 3.15184L15.9875 16.1237C15.9406 16.4279 15.757 16.6931 15.4884 16.844C15.337 16.929 15.1675 16.9721 14.9984 16.9721C14.8675 16.9721 14.7384 16.9466 14.6143 16.8948L10.7831 15.2979L9.1937 17.682C9.07183 17.8906 8.8687 18 8.64995 18C8.29058 18 7.99995 17.7093 7.99995 17.35V14.3443C7.99995 14.122 8.07408 13.9059 8.21064 13.7306L15 4.99997L5.82183 13.2593L2.61526 11.9218C2.26364 11.775 2.02534 11.4437 2.0019 11.0343C1.97847 10.625 2.17281 10.2931 2.50378 10.104L16.5038 2.13215C16.8378 1.94125 17.25 1.95881 17.5663 2.17609C17.8825 2.39337 18.0468 2.77247 17.9875 3.15184Z"/>
</svg>