<svg viewBox="0 0 20 20" xmlns="http://www.w3.org/2000/svg" id="icon">
  <path fill-rule="evenodd" d="M4.5791 0.292892C4.37915 0.480423 4.2666 0.734787 4.2666 1C4.2666 1.26521 4.37915 1.51958 4.5791 1.70711C4.77905 1.89464 5.05054 2 5.3335 2H7.4668C7.74951 2 8.021 1.89464 8.22095 1.70711C8.4209 1.51958 8.53345 1.26521 8.53345 1C8.53345 0.734787 8.4209 0.480423 8.22095 0.292892C8.021 0.105362 7.74951 0 7.4668 0H5.3335C5.05054 0 4.77905 0.105362 4.5791 0.292892ZM0.624756 1.58578C1.0249 1.21071 1.56763 1 2.1333 1C2.1333 1.79565 2.47046 2.55872 3.07056 3.12132C3.67065 3.68393 4.48462 4 5.33325 4H7.46655C8.31543 4 9.12939 3.68393 9.72949 3.12132C10.3296 2.55872 10.6667 1.79565 10.6667 1C11.2324 1 11.7751 1.21071 12.175 1.58578C12.5752 1.96086 12.8 2.46957 12.8 3V5H9.5C8.67163 5 8 5.67157 8 6.5V16H2.1333C1.56763 16 1.0249 15.7893 0.624756 15.4142C0.224854 15.0391 0 14.5304 0 14V3C0 2.46957 0.224854 1.96086 0.624756 1.58578ZM16.3333 9.73334V6L20 9.73334H16.3333ZM15.4167 6V9.73334C15.4167 10.2496 15.8264 10.6667 16.3591 10.6667H20V18.6C20 19.3732 19.3845 20 18.625 20H10.375C9.61548 20 9 19.3729 9 18.6V7.39999C9 6.62679 9.61548 6 10.375 6H15.4167Z"/>
</svg>
