<svg id="icon" viewBox="0 0 20 20" fill="currentColor" xmlns="http://www.w3.org/2000/svg">
<path d="M18.5043 5.99327L16.8835 7.61403C16.7183 7.77927 16.4511 7.77927 16.2858 7.61403L12.3833 3.71153C12.218 3.54629 12.218 3.27909 12.3833 3.11385L14.0041 1.49309C14.6615 0.835638 15.7303 0.835638 16.3913 1.49309L18.5043 3.60606C19.1652 4.26351 19.1652 5.3323 18.5043 5.99327ZM10.991 4.5061L1.75858 13.7385L1.01323 18.0101C0.911272 18.5867 1.41403 19.086 1.99062 18.9875L6.2623 18.2387L15.4948 9.00628C15.66 8.84103 15.66 8.57384 15.4948 8.4086L11.5922 4.5061C11.4235 4.34086 11.1563 4.34086 10.991 4.5061V4.5061ZM5.36226 12.9474C5.16889 12.7541 5.16889 12.4447 5.36226 12.2513L10.7766 6.83705C10.9699 6.64368 11.2793 6.64368 11.4727 6.83705C11.6661 7.03042 11.6661 7.3398 11.4727 7.53317L6.05839 12.9474C5.86502 13.1408 5.55563 13.1408 5.36226 12.9474V12.9474ZM4.09306 15.9042H5.78064V17.1804L3.51296 17.5777L2.41955 16.4843L2.81683 14.2166H4.09306V15.9042Z"/>
</svg>