<svg viewBox="0 0 20 20" xmlns="http://www.w3.org/2000/svg" id="icon">
  <path d="M19.0643 14.6515L18.2386 18.2309C18.1226 18.7369 17.6778 19.0909 17.1568 19.0909C8.1968 19.0902 0.90918 11.8036 0.90918 2.84457C0.90918 2.324 1.26323 1.87871 1.76935 1.7633L5.34923 0.937705C5.87059 0.816901 6.40331 1.08748 6.61995 1.58114L8.27209 5.43393C8.46522 5.88774 8.33495 6.41648 7.95317 6.72825L6.04106 8.26333C7.24785 10.7213 9.24662 12.7198 11.7057 13.9271L13.2711 12.0167C13.5797 11.6339 14.1125 11.5014 14.5664 11.698L18.4197 13.3495C18.8832 13.5933 19.1851 14.1331 19.0643 14.6515Z"/>
</svg>
