<svg viewBox="0 0 20 20" xmlns="http://www.w3.org/2000/svg" id="icon">
  <path fill-rule="evenodd" d="M1.3295 1.3295C1.11853 1.54048 1 1.82663 1 2.125V4.375C1 12.4525 7.5475 19 15.625 19H17.875C18.1734 19 18.4595 18.8815 18.6705 18.6705C18.8815 18.4595 19 18.1734 19 17.875V15.4529C18.9999 15.1866 18.9053 14.929 18.7331 14.7258C18.5609 14.5227 18.3222 14.3873 18.0595 14.3436L13.0701 13.5111C12.8327 13.4716 12.5888 13.5093 12.3744 13.6186C12.1599 13.728 11.9862 13.9032 11.8787 14.1186L11.008 15.8601C9.46039 15.2356 8.05456 14.3056 6.8745 13.1255C5.69444 11.9454 4.76437 10.5396 4.13987 8.992L5.88138 8.12238C6.09698 8.01486 6.27237 7.84096 6.38173 7.62628C6.4911 7.41161 6.52865 7.1675 6.48888 6.92987L5.65637 1.9405C5.6127 1.67781 5.47726 1.43913 5.27415 1.26692C5.07104 1.0947 4.81342 1.00012 4.54712 1H2.125C1.82663 1 1.54048 1.11853 1.3295 1.3295ZM16.9999 4C16.9999 3.73484 16.8946 3.48053 16.7071 3.293C16.5196 3.10553 16.2652 3.00021 16.0001 3.00021C15.7349 3.00021 15.4806 3.10553 15.2931 3.293L14.0001 4.586L12.7071 3.293C12.5185 3.11084 12.2659 3.01005 12.0037 3.01233C11.7415 3.0146 11.4907 3.11977 11.3053 3.30518C11.1199 3.49059 11.0147 3.7414 11.0124 4.0036C11.0101 4.2658 11.1109 4.5184 11.2931 4.707L12.5861 6L11.2931 7.293C11.1976 7.38525 11.1214 7.49559 11.069 7.6176C11.0166 7.7396 10.989 7.87082 10.9878 8.0036C10.9867 8.13638 11.012 8.26806 11.0623 8.39095C11.1125 8.51385 11.1868 8.6255 11.2807 8.71939C11.3746 8.81329 11.4862 8.88754 11.6091 8.93782C11.732 8.9881 11.8637 9.0134 11.9965 9.01225C12.1293 9.0111 12.2605 8.98351 12.3825 8.9311C12.5045 8.87869 12.6148 8.80251 12.7071 8.707L14.0001 7.414L15.2931 8.707C15.4817 8.88916 15.7343 8.98995 15.9965 8.98767C16.2587 8.9854 16.5095 8.88023 16.6949 8.69482C16.8803 8.50941 16.9855 8.2586 16.9878 7.9964C16.99 7.7342 16.8892 7.4816 16.7071 7.293L15.4141 6L16.7071 4.707C16.8946 4.51947 16.9999 4.26516 16.9999 4Z"/>
</svg>
