<svg id="icon" viewBox="0 0 20 20" fill="currentColor" xmlns="http://www.w3.org/2000/svg">
<path d="M2 3C2 2.73478 2.10536 2.48043 2.29289 2.29289C2.48043 2.10536 2.73478 2 3 2H5.153C5.38971 2.00011 5.6187 2.08418 5.79924 2.23726C5.97979 2.39034 6.10018 2.6025 6.139 2.836L6.879 7.271C6.91436 7.48222 6.88097 7.69921 6.78376 7.89003C6.68655 8.08085 6.53065 8.23543 6.339 8.331L4.791 9.104C5.34611 10.4797 6.17283 11.7293 7.22178 12.7782C8.27072 13.8272 9.52035 14.6539 10.896 15.209L11.67 13.661C11.7655 13.4695 11.9199 13.3138 12.1106 13.2166C12.3012 13.1194 12.5179 13.0859 12.729 13.121L17.164 13.861C17.3975 13.8998 17.6097 14.0202 17.7627 14.2008C17.9158 14.3813 17.9999 14.6103 18 14.847V17C18 17.2652 17.8946 17.5196 17.7071 17.7071C17.5196 17.8946 17.2652 18 17 18H15C7.82 18 2 12.18 2 5V3Z"/>
<path d="M16.707 3.29303C16.8944 3.48056 16.9997 3.73487 16.9997 4.00003C16.9997 4.26519 16.8944 4.5195 16.707 4.70703L15.414 6.00003L16.707 7.29303C16.8891 7.48163 16.9899 7.73424 16.9876 7.99643C16.9854 8.25863 16.8802 8.50944 16.6948 8.69485C16.5094 8.88026 16.2586 8.98543 15.9964 8.9877C15.7342 8.98998 15.4816 8.88919 15.293 8.70703L14 7.41403L12.707 8.70703C12.6147 8.80254 12.5044 8.87872 12.3824 8.93113C12.2604 8.98354 12.1291 9.01113 11.9964 9.01228C11.8636 9.01344 11.7319 8.98813 11.609 8.93785C11.4861 8.88757 11.3745 8.81332 11.2806 8.71943C11.1867 8.62553 11.1124 8.51388 11.0621 8.39098C11.0119 8.26809 10.9866 8.13641 10.9877 8.00363C10.9889 7.87085 11.0164 7.73963 11.0689 7.61763C11.1213 7.49562 11.1974 7.38528 11.293 7.29303L12.586 6.00003L11.293 4.70703C11.1108 4.51843 11.01 4.26583 11.0123 4.00363C11.0146 3.74143 11.1197 3.49062 11.3051 3.30521C11.4905 3.1198 11.7414 3.01463 12.0036 3.01236C12.2658 3.01008 12.5184 3.11087 12.707 3.29303L14 4.58603L15.293 3.29303C15.4805 3.10556 15.7348 3.00024 16 3.00024C16.2651 3.00024 16.5194 3.10556 16.707 3.29303Z"/>
</svg>
