<svg id="icon" viewBox="0 0 20 20" fill="currentColor" xmlns="http://www.w3.org/2000/svg">
<path d="M17.924 2.617C17.8741 2.49665 17.8011 2.38725 17.709 2.295L17.705 2.291C17.5179 2.1044 17.2643 1.99973 17 2H13C12.7348 2 12.4805 2.10536 12.2929 2.29289C12.1054 2.48043 12 2.73478 12 3C12 3.26522 12.1054 3.51957 12.2929 3.70711C12.4805 3.89464 12.7348 4 13 4H14.586L11.293 7.293C11.1109 7.4816 11.0101 7.73421 11.0124 7.9964C11.0146 8.2586 11.1198 8.50941 11.3052 8.69482C11.4906 8.88023 11.7414 8.9854 12.0036 8.98767C12.2658 8.98995 12.5184 8.88916 12.707 8.707L16 5.414V7C16 7.26522 16.1054 7.51957 16.2929 7.70711C16.4805 7.89464 16.7348 8 17 8C17.2653 8 17.5196 7.89464 17.7071 7.70711C17.8947 7.51957 18 7.26522 18 7V3C18.0002 2.86857 17.9744 2.73841 17.924 2.617V2.617Z"/>
<path d="M2 3C2 2.73478 2.10536 2.48043 2.29289 2.29289C2.48043 2.10536 2.73478 2 3 2H5.153C5.38971 2.00011 5.6187 2.08418 5.79924 2.23726C5.97979 2.39034 6.10018 2.6025 6.139 2.836L6.879 7.271C6.91436 7.48222 6.88097 7.69921 6.78376 7.89003C6.68655 8.08085 6.53065 8.23543 6.339 8.331L4.791 9.104C5.34611 10.4797 6.17283 11.7293 7.22178 12.7782C8.27072 13.8272 9.52035 14.6539 10.896 15.209L11.67 13.661C11.7655 13.4695 11.9199 13.3138 12.1106 13.2166C12.3012 13.1194 12.5179 13.0859 12.729 13.121L17.164 13.861C17.3975 13.8998 17.6097 14.0202 17.7627 14.2008C17.9158 14.3813 17.9999 14.6103 18 14.847V17C18 17.2652 17.8946 17.5196 17.7071 17.7071C17.5196 17.8946 17.2652 18 17 18H15C7.82 18 2 12.18 2 5V3Z"/>
</svg>
