<svg id="icon" viewBox="0 0 20 20" fill="currentColor" xmlns="http://www.w3.org/2000/svg">
<path d="M11.7512 8.30469L11.7512 2.21926C11.7512 1.59521 11.2453 1.08931 10.621 1.08905L9.4908 1.08905C8.86675 1.08905 8.36085 1.59495 8.3606 2.21926L8.3606 8.30469L2.27517 8.30469C1.65111 8.30469 1.14521 8.81059 1.14496 9.4349L1.14496 10.5651C1.14496 11.1892 1.65086 11.6951 2.27517 11.6953L8.3606 11.6953L8.3606 17.7807C8.3606 18.4048 8.8665 18.9107 9.4908 18.9109L10.621 18.9109C11.2451 18.9109 11.7512 18.4048 11.7512 17.7807V11.6953L17.8366 11.6953C18.4607 11.6953 18.9669 11.1892 18.9669 10.5651V9.4349C18.9669 8.81084 18.461 8.30494 17.8366 8.30469L11.7512 8.30469Z"/>
</svg>