<svg id="icon" viewBox="0 0 32 32" fill="currentColor" xmlns="http://www.w3.org/2000/svg">
<path fill-rule="evenodd" clip-rule="evenodd" d="M24.146 24.1458C21.9855 26.3063 19.0554 27.52 16.0001 27.52C12.9448 27.52 10.0146 26.3063 7.85423 24.1458C5.69381 21.9854 4.4801 19.0553 4.4801 16C4.4801 12.9447 5.69381 10.0145 7.85423 7.85411C10.0146 5.69369 12.9448 4.47998 16.0001 4.47998C19.0554 4.47998 21.9855 5.69369 24.146 7.85411C26.3064 10.0145 27.5201 12.9447 27.5201 16C27.5201 19.0553 26.3064 21.9854 24.146 24.1458ZM16.0001 30.4C19.8192 30.4 23.4819 28.8828 26.1824 26.1823C28.883 23.4818 30.4001 19.8191 30.4001 16C30.4001 12.1809 28.883 8.51816 26.1824 5.81764C23.4819 3.11711 19.8192 1.59998 16.0001 1.59998C12.181 1.59998 8.51828 3.11711 5.81776 5.81764C3.11724 8.51816 1.6001 12.1809 1.6001 16C1.6001 19.8191 3.11724 23.4818 5.81776 26.1823C8.51828 28.8828 12.181 30.4 16.0001 30.4ZM17.8001 10.6C17.8001 10.1226 17.6105 9.66475 17.2729 9.32718C16.9353 8.98962 16.4775 8.79998 16.0001 8.79998C15.5227 8.79998 15.0649 8.98962 14.7273 9.32718C14.3897 9.66475 14.2001 10.1226 14.2001 10.6V14.2H10.6001C10.1227 14.2 9.66487 14.3896 9.32731 14.7272C8.98974 15.0647 8.8001 15.5226 8.8001 16C8.8001 16.4774 8.98974 16.9352 9.32731 17.2728C9.66487 17.6103 10.1227 17.8 10.6001 17.8H14.2001V21.4C14.2001 21.8774 14.3897 22.3352 14.7273 22.6728C15.0649 23.0103 15.5227 23.2 16.0001 23.2C16.4775 23.2 16.9353 23.0103 17.2729 22.6728C17.6105 22.3352 17.8001 21.8774 17.8001 21.4V17.8H21.4001C21.8775 17.8 22.3353 17.6103 22.6729 17.2728C23.0105 16.9352 23.2001 16.4774 23.2001 16C23.2001 15.5226 23.0105 15.0647 22.6729 14.7272C22.3353 14.3896 21.8775 14.2 21.4001 14.2H17.8001V10.6Z"/>
</svg>
