<svg viewBox="0 0 20 20" xmlns="http://www.w3.org/2000/svg" id="icon">
  <path fill-rule="evenodd" d="M2.125 1.5C1.82663 1.5 1.54048 1.61931 1.3295 1.83167C1.11853 2.04404 1 2.33207 1 2.63241C1 2.93274 1.11853 3.22077 1.3295 3.43314C1.54048 3.6455 1.82663 3.76481 2.125 3.76481V12.8241C2.125 13.4247 2.36205 14.0008 2.78401 14.4255C3.20597 14.8503 3.77826 15.0889 4.375 15.0889H7.28425L5.82963 16.5531C5.72218 16.6575 5.63647 16.7825 5.57751 16.9206C5.51855 17.0588 5.48752 17.2074 5.48622 17.3578C5.48492 17.5081 5.51338 17.6572 5.56995 17.7964C5.62652 17.9356 5.71005 18.062 5.81568 18.1683C5.92131 18.2747 6.04692 18.3587 6.18518 18.4157C6.32344 18.4726 6.47157 18.5013 6.62095 18.5C6.77033 18.4987 6.91795 18.4674 7.0552 18.4081C7.19246 18.3487 7.3166 18.2624 7.42037 18.1543L10 15.5577L12.5796 18.1543C12.7918 18.3606 13.076 18.4747 13.371 18.4721C13.6659 18.4695 13.9481 18.3505 14.1567 18.1405C14.3653 17.9305 14.4836 17.6465 14.4861 17.3496C14.4887 17.0527 14.3753 16.7666 14.1704 16.5531L12.7157 15.0889H15.625C16.2217 15.0889 16.794 14.8503 17.216 14.4255C17.6379 14.0008 17.875 13.4247 17.875 12.8241V3.76481C18.1734 3.76481 18.4595 3.6455 18.6705 3.43314C18.8815 3.22077 19 2.93274 19 2.63241C19 2.33207 18.8815 2.04404 18.6705 1.83167C18.4595 1.61931 18.1734 1.5 17.875 1.5H2.125ZM14.5 6.02962C14.5 5.72929 14.3815 5.44126 14.1705 5.22889C13.9595 5.01652 13.6734 4.89722 13.375 4.89722C13.0766 4.89722 12.7905 5.01652 12.5795 5.22889C12.3685 5.44126 12.25 5.72929 12.25 6.02962V10.5592C12.25 10.8596 12.3685 11.1476 12.5795 11.36C12.7905 11.5723 13.0766 11.6917 13.375 11.6917C13.6734 11.6917 13.9595 11.5723 14.1705 11.36C14.3815 11.1476 14.5 10.8596 14.5 10.5592V6.02962ZM11.125 7.16203C11.125 6.8617 11.0065 6.57366 10.7955 6.3613C10.5845 6.14893 10.2984 6.02962 10 6.02962C9.70163 6.02962 9.41548 6.14893 9.2045 6.3613C8.99353 6.57366 8.875 6.8617 8.875 7.16203V10.5592C8.875 10.8596 8.99353 11.1476 9.2045 11.36C9.41548 11.5723 9.70163 11.6917 10 11.6917C10.2984 11.6917 10.5845 11.5723 10.7955 11.36C11.0065 11.1476 11.125 10.8596 11.125 10.5592V7.16203ZM7.75 8.29443C7.75 7.9941 7.63147 7.70607 7.4205 7.4937C7.20952 7.28133 6.92337 7.16203 6.625 7.16203C6.32663 7.16203 6.04048 7.28133 5.8295 7.4937C5.61853 7.70607 5.5 7.9941 5.5 8.29443V10.5592C5.5 10.8596 5.61853 11.1476 5.8295 11.36C6.04048 11.5723 6.32663 11.6917 6.625 11.6917C6.92337 11.6917 7.20952 11.5723 7.4205 11.36C7.63147 11.1476 7.75 10.8596 7.75 10.5592V8.29443Z"/>
</svg>
