<svg viewBox="0 0 20 20" xmlns="http://www.w3.org/2000/svg" id="icon">
  <path fill-rule="evenodd" d="M2.125 1.5C1.82663 1.5 1.54048 1.61931 1.3295 1.83167C1.11853 2.04404 1 2.33207 1 2.63241C1 2.93274 1.11853 3.22077 1.3295 3.43314C1.54048 3.6455 1.82663 3.76481 2.125 3.76481V12.8241C2.125 13.4247 2.36205 14.0008 2.78401 14.4255C3.20597 14.8503 3.77826 15.0889 4.375 15.0889H7.28425L5.82963 16.5531C5.72218 16.6575 5.63647 16.7825 5.57751 16.9206C5.51855 17.0588 5.48752 17.2074 5.48622 17.3578C5.48492 17.5081 5.51338 17.6572 5.56995 17.7964C5.62652 17.9356 5.71005 18.062 5.81568 18.1683C5.92131 18.2747 6.04692 18.3587 6.18518 18.4157C6.32344 18.4726 6.47157 18.5013 6.62095 18.5C6.77033 18.4987 6.91795 18.4674 7.0552 18.4081C7.19246 18.3487 7.3166 18.2624 7.42037 18.1543L10 15.5577L12.5796 18.1543C12.7918 18.3606 13.076 18.4747 13.371 18.4721C13.6659 18.4695 13.9481 18.3505 14.1567 18.1405C14.3653 17.9305 14.4836 17.6465 14.4861 17.3496C14.4887 17.0527 14.3753 16.7666 14.1704 16.5531L12.7157 15.0889H15.625C16.2217 15.0889 16.794 14.8503 17.216 14.4255C17.6379 14.0008 17.875 13.4247 17.875 12.8241V3.76481C18.1734 3.76481 18.4595 3.6455 18.6705 3.43314C18.8815 3.22077 19 2.93274 19 2.63241C19 2.33207 18.8815 2.04404 18.6705 1.83167C18.4595 1.61931 18.1734 1.5 17.875 1.5H2.125ZM15.2954 6.83023C15.5003 6.61666 15.6137 6.33061 15.6111 6.0337C15.6086 5.73678 15.4903 5.45276 15.2817 5.24281C15.0731 5.03285 14.7909 4.91375 14.496 4.91117C14.201 4.90859 13.9168 5.02274 13.7046 5.22901L10 8.95802L8.54537 7.49382C8.33441 7.28153 8.04831 7.16227 7.75 7.16227C7.45169 7.16227 7.16559 7.28153 6.95463 7.49382L4.70463 9.75863C4.59718 9.8631 4.51147 9.98805 4.45251 10.1262C4.39355 10.2644 4.36252 10.413 4.36122 10.5633C4.35992 10.7137 4.38838 10.8628 4.44495 11.002C4.50152 11.1411 4.58505 11.2676 4.69068 11.3739C4.79631 11.4802 4.92192 11.5643 5.06018 11.6212C5.19844 11.6782 5.34657 11.7068 5.49595 11.7055C5.64533 11.7042 5.79295 11.673 5.9302 11.6136C6.06746 11.5543 6.1916 11.468 6.29537 11.3599L7.75 9.89565L9.20463 11.3599C9.41559 11.5721 9.70169 11.6914 10 11.6914C10.2983 11.6914 10.5844 11.5721 10.7954 11.3599L15.2954 6.83023Z"/>
</svg>
