<svg viewBox="0 0 20 20" xmlns="http://www.w3.org/2000/svg" id="icon">
  <path fill-rule="evenodd" d="M4.375 3.25V6.625H3.25C2.65326 6.625 2.08097 6.86205 1.65901 7.28401C1.23705 7.70597 1 8.27826 1 8.875V12.25C1 12.8467 1.23705 13.419 1.65901 13.841C2.08097 14.2629 2.65326 14.5 3.25 14.5H4.375V16.75C4.375 17.3467 4.61205 17.919 5.03401 18.341C5.45597 18.7629 6.02826 19 6.625 19H13.375C13.9717 19 14.544 18.7629 14.966 18.341C15.3879 17.919 15.625 17.3467 15.625 16.75V14.5H16.75C17.3467 14.5 17.919 14.2629 18.341 13.841C18.7629 13.419 19 12.8467 19 12.25V8.875C19 8.27826 18.7629 7.70597 18.341 7.28401C17.919 6.86205 17.3467 6.625 16.75 6.625H15.625V3.25C15.625 2.65326 15.3879 2.08097 14.966 1.65901C14.544 1.23705 13.9717 1 13.375 1H6.625C6.02826 1 5.45597 1.23705 5.03401 1.65901C4.61205 2.08097 4.375 2.65326 4.375 3.25ZM13.375 3.25H6.625V6.625H13.375V3.25ZM13.375 12.25H6.625V16.75H13.375V12.25Z"/>
</svg>
