<svg viewBox="0 0 20 20" xmlns="http://www.w3.org/2000/svg" id="icon">
  <path fill-rule="evenodd" d="M4.28571 1C3.67951 1 3.09812 1.23705 2.66947 1.65901C2.24082 2.08097 2 2.65326 2 3.25V19L6 16.75L10 19L14 16.75L18 19V3.25C18 2.65326 17.7592 2.08097 17.3305 1.65901C16.9019 1.23705 16.3205 1 15.7143 1H4.28571ZM7.14286 4.375C6.6882 4.375 6.25216 4.55279 5.93067 4.86926C5.60918 5.18572 5.42857 5.61495 5.42857 6.0625C5.42857 6.51005 5.60918 6.93928 5.93067 7.25574C6.25216 7.57221 6.6882 7.75 7.14286 7.75C7.59751 7.75 8.03355 7.57221 8.35504 7.25574C8.67653 6.93928 8.85714 6.51005 8.85714 6.0625C8.85714 5.61495 8.67653 5.18572 8.35504 4.86926C8.03355 4.55279 7.59751 4.375 7.14286 4.375ZM14.2366 4.70463C14.0223 4.49372 13.7316 4.37524 13.4286 4.37524C13.1255 4.37524 12.8349 4.49372 12.6206 4.70463L5.76343 11.4546C5.65427 11.5584 5.56721 11.6825 5.50731 11.8198C5.44742 11.957 5.41589 12.1047 5.41457 12.254C5.41325 12.4034 5.44217 12.5516 5.49963 12.6898C5.5571 12.8281 5.64196 12.9537 5.74926 13.0593C5.85657 13.1649 5.98417 13.2485 6.12462 13.305C6.26508 13.3616 6.41557 13.3901 6.56732 13.3888C6.71906 13.3875 6.86903 13.3565 7.00846 13.2975C7.1479 13.2385 7.274 13.1528 7.37943 13.0454L14.2366 6.29537C14.4508 6.08441 14.5712 5.79831 14.5712 5.5C14.5712 5.20169 14.4508 4.91559 14.2366 4.70463ZM12.8571 10C12.4025 10 11.9665 10.1778 11.645 10.4943C11.3235 10.8107 11.1429 11.2399 11.1429 11.6875C11.1429 12.1351 11.3235 12.5643 11.645 12.8807C11.9665 13.1972 12.4025 13.375 12.8571 13.375C13.3118 13.375 13.7478 13.1972 14.0693 12.8807C14.3908 12.5643 14.5714 12.1351 14.5714 11.6875C14.5714 11.2399 14.3908 10.8107 14.0693 10.4943C13.7478 10.1778 13.3118 10 12.8571 10Z"/>
</svg>
