<svg viewBox="0 0 20 20" xmlns="http://www.w3.org/2000/svg" id="icon">
  <path fill-rule="evenodd" d="M17.45 0C17.1184 0 16.8005 0.131696 16.5661 0.366116C16.3316 0.600537 16.2 0.918479 16.2 1.25V3.87625C15.1599 2.81534 13.8669 2.03663 12.4428 1.61348C11.0186 1.19032 9.51021 1.13665 8.0596 1.45751C6.60898 1.77836 5.26392 2.4632 4.15109 3.4475C3.03826 4.4318 2.1943 5.68317 1.6987 7.08375C1.63857 7.2397 1.61033 7.40612 1.61565 7.57317C1.62096 7.74022 1.65972 7.90451 1.72963 8.05632C1.79955 8.20814 1.8992 8.34438 2.02269 8.45701C2.14618 8.56964 2.291 8.65635 2.4486 8.71203C2.60618 8.76771 2.77334 8.79122 2.94018 8.78117C3.10701 8.77112 3.27014 8.72772 3.4199 8.65352C3.56967 8.57933 3.70303 8.47585 3.81211 8.34922C3.92119 8.22258 4.00377 8.07536 4.05495 7.91625C4.43228 6.84977 5.09188 5.90564 5.96347 5.18447C6.83506 4.4633 7.88598 3.99211 9.00425 3.8211C10.1225 3.6501 11.2662 3.78569 12.3135 4.21343C13.3608 4.64116 14.2724 5.34502 14.9512 6.25H11.2C10.8684 6.25 10.5505 6.3817 10.3161 6.61612C10.0816 6.85054 9.94995 7.16848 9.94995 7.5C9.94995 7.83152 10.0816 8.14946 10.3161 8.38388C10.5505 8.6183 10.8684 8.75 11.2 8.75H17.45C17.7815 8.75 18.0994 8.6183 18.3338 8.38388C18.5683 8.14946 18.7 7.83152 18.7 7.5V1.25C18.7 0.918479 18.5683 0.600537 18.3338 0.366116C18.0994 0.131696 17.7815 0 17.45 0ZM17.44 11.3212C17.2852 11.2666 17.1211 11.2429 16.9572 11.2517C16.7932 11.2604 16.6326 11.3013 16.4845 11.3721C16.3364 11.4429 16.2037 11.5422 16.094 11.6643C15.9842 11.7864 15.8996 11.9289 15.845 12.0837C15.4676 13.1502 14.808 14.0944 13.9364 14.8155C13.0648 15.5367 12.0139 16.0079 10.8957 16.1789C9.77739 16.3499 8.63368 16.2143 7.5864 15.7866C6.53912 15.3588 5.62751 14.655 4.9487 13.75H8.69995C9.03147 13.75 9.34941 13.6183 9.58383 13.3839C9.81825 13.1495 9.94995 12.8315 9.94995 12.5C9.94995 12.1685 9.81825 11.8505 9.58383 11.6161C9.34941 11.3817 9.03147 11.25 8.69995 11.25H2.44995C2.11843 11.25 1.80049 11.3817 1.56607 11.6161C1.33165 11.8505 1.19995 12.1685 1.19995 12.5V18.75C1.19995 19.0815 1.33165 19.3995 1.56607 19.6339C1.80049 19.8683 2.11843 20 2.44995 20C2.78147 20 3.09941 19.8683 3.33383 19.6339C3.56825 19.3995 3.69995 19.0815 3.69995 18.75V16.1238C4.74 17.1847 6.03299 17.9634 7.45713 18.3865C8.88127 18.8097 10.3897 18.8634 11.8403 18.5425C13.2909 18.2216 14.636 17.5368 15.7488 16.5525C16.8616 15.5682 17.7056 14.3168 18.2012 12.9163C18.2559 12.7615 18.2795 12.5974 18.2708 12.4335C18.2621 12.2695 18.2211 12.1089 18.1503 11.9608C18.0795 11.8127 17.9802 11.68 17.8581 11.5703C17.736 11.4605 17.5935 11.3759 17.4387 11.3212H17.44Z"/>
</svg>
