<svg viewBox="0 0 20 20" xmlns="http://www.w3.org/2000/svg" id="icon">
  <path fill-rule="evenodd" d="M17.0711 17.0711C18.9464 15.1957 20 12.6522 20 10C20 7.34784 18.9464 4.8043 17.0711 2.92893C15.1957 1.05357 12.6522 0 10 0C7.34784 0 4.8043 1.05357 2.92893 2.92893C1.05357 4.8043 0 7.34784 0 10C0 12.6522 1.05357 15.1957 2.92893 17.0711C4.8043 18.9464 7.34784 20 10 20C12.6522 20 15.1957 18.9464 17.0711 17.0711ZM9.99617 5.76613C11.0808 5.76517 12.1033 6.16956 12.8911 6.90726L11.839 7.9594C11.4579 8.34045 11.7278 8.99194 12.2667 8.99194H15.6452C15.9792 8.99194 16.25 8.72114 16.25 8.3871V5.00859C16.25 4.46973 15.5985 4.19987 15.2175 4.5809L14.3174 5.48097C13.1953 4.40867 11.6746 3.75 10 3.75C6.94589 3.75 4.40355 5.94063 3.85827 8.83629C3.82331 9.022 3.96686 9.19355 4.15582 9.19355H5.59995C5.73929 9.19355 5.8597 9.09811 5.89357 8.96295C6.35887 7.1063 8.0441 5.76784 9.99617 5.76613ZM7.73334 11.0081H4.35484C4.02079 11.0081 3.75 11.2789 3.75 11.6129V14.9914C3.75 15.5303 4.40149 15.8001 4.78251 15.4191L5.68259 14.519C6.80466 15.5913 8.3254 16.25 10 16.25C13.0541 16.25 15.5964 14.0594 16.1418 11.1638C16.1767 10.9781 16.0332 10.8065 15.8442 10.8065H14.4001C14.2607 10.8065 14.1403 10.9019 14.1064 11.0371C13.6409 12.8946 11.955 14.2321 10.0039 14.2339C8.91923 14.2349 7.89672 13.8305 7.10887 13.0928L8.16104 12.0406C8.54206 11.6596 8.2722 11.0081 7.73334 11.0081Z"/>
</svg>
