<svg viewBox="0 0 20 20" xmlns="http://www.w3.org/2000/svg" id="icon">
  <path d="M1.81818 3C0.818182 3 0 3.81818 0 4.81818V14.8182H1.81818C1.81818 16.3636 3 17.5455 4.54545 17.5455C6.09091 17.5455 7.27273 16.3636 7.27273 14.8182H12.7273C12.7273 16.3636 13.9091 17.5455 15.4545 17.5455C17 17.5455 18.1818 16.3636 18.1818 14.8182H20V10.2727L17.2727 6.63636H14.5455V3H1.81818ZM6.36364 4.81818H8.18182V8.45455H6.36364V4.81818ZM14.5455 8H16.8182L18.6364 10.2727H14.5455V8ZM6.36364 10.2727H8.18182V12.0909H6.36364V10.2727ZM4.54545 13.4545C5.27273 13.4545 5.90909 14.0909 5.90909 14.8182C5.90909 15.5455 5.27273 16.1818 4.54545 16.1818C3.81818 16.1818 3.18182 15.5455 3.18182 14.8182C3.18182 14.0909 3.81818 13.4545 4.54545 13.4545ZM15.4545 13.4545C16.1818 13.4545 16.8182 14.0909 16.8182 14.8182C16.8182 15.5455 16.1818 16.1818 15.4545 16.1818C14.7273 16.1818 14.0909 15.5455 14.0909 14.8182C14.0909 14.0909 14.7273 13.4545 15.4545 13.4545Z"/>
</svg>
