<svg viewBox="0 0 20 20" xmlns="http://www.w3.org/2000/svg" id="icon">
  <path fill-rule="evenodd" d="M13.2646 5.67639L7 2L0.735368 5.67639L7 9.35353L13.2646 5.67639ZM0 6.97157V14.3244L6.26316 18V10.6472L0 6.97157ZM7.73684 17.9993L14 14.3236V6.97157L7.73684 10.6465V17.9993ZM18 3.2C18 3.08954 18.0895 3 18.2 3H19.8C19.9105 3 20 3.08954 20 3.2V12.8C20 12.9105 19.9105 13 19.8 13H18.2C18.0895 13 18 12.9105 18 12.8V3.2ZM18.2 15C18.0895 15 18 15.0895 18 15.2V16.8C18 16.9105 18.0895 17 18.2 17H19.8C19.9105 17 20 16.9105 20 16.8V15.2C20 15.0895 19.9105 15 19.8 15H18.2Z"/>
</svg>
