<svg viewBox="0 0 20 20" xmlns="http://www.w3.org/2000/svg" id="icon">
  <path d="M8.30448 15.7982C8.47516 15.9188 8.67355 15.988 8.87848 15.9986C9.08342 16.0091 9.28722 15.9606 9.46813 15.8581C9.64904 15.7556 9.80028 15.603 9.90571 15.4166C10.0111 15.2303 10.0668 15.0171 10.0668 14.7999V11.4424L16.2377 15.7982C16.4084 15.9188 16.6068 15.988 16.8117 15.9986C17.0166 16.0091 17.2204 15.9606 17.4013 15.8581C17.5823 15.7556 17.7335 15.603 17.8389 15.4166C17.9444 15.2303 18 15.0171 18 14.7999V5.20014C18 4.9829 17.9444 4.76972 17.8389 4.58335C17.7335 4.39698 17.5823 4.24442 17.4013 4.14193C17.2204 4.03944 17.0166 3.99087 16.8117 4.00141C16.6068 4.01195 16.4084 4.0812 16.2377 4.20177L10.0668 8.55764V5.20014C10.0668 4.9829 10.0111 4.76972 9.90571 4.58335C9.80028 4.39698 9.64904 4.24442 9.46813 4.14193C9.28722 4.03944 9.08342 3.99087 8.87848 4.00141C8.67355 4.01195 8.47516 4.0812 8.30448 4.20177L1.50458 9.00163C1.34936 9.11121 1.2221 9.25967 1.13408 9.43384C1.04605 9.608 1 9.80247 1 10C1 10.1975 1.04605 10.392 1.13408 10.5662C1.2221 10.7403 1.34936 10.8888 1.50458 10.9984L8.30448 15.7982Z"/>
</svg>
