<svg viewBox="0 0 20 20" xmlns="http://www.w3.org/2000/svg" id="icon">
  <path fill-rule="evenodd" d="M8.7545 6.26541C9.08224 6.26256 9.398 6.38855 9.63375 6.61625L11.25 8.2325V3.75H13.75V8.2325L15.3663 6.61625C15.602 6.38855 15.9178 6.26256 16.2455 6.26541C16.5732 6.26826 16.8868 6.39972 17.1185 6.63148C17.3503 6.86324 17.4817 7.17675 17.4846 7.5045C17.4874 7.83224 17.3614 8.148 17.1338 8.38375L13.3837 12.1337C13.1493 12.3681 12.8315 12.4997 12.5 12.4997C12.1685 12.4997 11.8507 12.3681 11.6163 12.1337L7.86625 8.38375C7.63855 8.148 7.51256 7.83224 7.51541 7.5045C7.51826 7.17675 7.64972 6.86324 7.88148 6.63148C8.11324 6.39972 8.42675 6.26826 8.7545 6.26541ZM13.75 3.75V1.25C13.75 0.918479 13.6183 0.600537 13.3839 0.366116C13.1495 0.131696 12.8315 0 12.5 0C12.1685 0 11.8505 0.131696 11.6161 0.366116C11.3817 0.600537 11.25 0.918479 11.25 1.25V3.75H7.5C6.83696 3.75 6.20107 4.01339 5.73223 4.48223C5.26339 4.95107 5 5.58696 5 6.25V12.5C5 13.163 5.26339 13.7989 5.73223 14.2678C6.20107 14.7366 6.83696 15 7.5 15H17.5C18.163 15 18.7989 14.7366 19.2678 14.2678C19.7366 13.7989 20 13.163 20 12.5V6.25C20 5.58696 19.7366 4.95107 19.2678 4.48223C18.7989 4.01339 18.163 3.75 17.5 3.75H13.75ZM0.732233 9.71596C1.20107 9.25754 1.83696 9 2.5 9V17.5556H15C15 18.2039 14.7366 18.8256 14.2678 19.284C13.7989 19.7425 13.163 20 12.5 20H2.5C1.83696 20 1.20107 19.7425 0.732233 19.284C0.263392 18.8256 0 18.2039 0 17.5556V11.4444C0 10.7961 0.263392 10.1744 0.732233 9.71596Z"/>
</svg>
