<svg id="icon" viewBox="0 0 16 16" fill="currentColor" xmlns="http://www.w3.org/2000/svg">
<path d="M2.28571 0C1.025 0 0 1.025 0 2.28571V13.7143C0 14.975 1.025 16 2.28571 16H13.7143C14.975 16 16 14.975 16 13.7143V5.04643C16 4.43929 15.7607 3.85714 15.3321 3.42857L12.5714 0.667857C12.1429 0.239286 11.5607 0 10.9536 0H2.28571ZM2.28571 3.42857C2.28571 2.79643 2.79643 2.28571 3.42857 2.28571H10.2857C10.9179 2.28571 11.4286 2.79643 11.4286 3.42857V5.71429C11.4286 6.34643 10.9179 6.85714 10.2857 6.85714H3.42857C2.79643 6.85714 2.28571 6.34643 2.28571 5.71429V3.42857ZM8 13.7143C6.73929 13.7143 5.71429 12.6893 5.71429 11.4286C5.71429 10.1679 6.73929 9.14286 8 9.14286C9.26071 9.14286 10.2857 10.1679 10.2857 11.4286C10.2857 12.6893 9.26071 13.7143 8 13.7143Z"/>
</svg>
