<svg id="icon" viewBox="0 0 20 20" fill="currentColor" xmlns="http://www.w3.org/2000/svg">
<path d="M4.28571 2C3.025 2 2 3.025 2 4.28571V15.7143C2 16.975 3.025 18 4.28571 18H15.7143C16.975 18 18 16.975 18 15.7143V7.04643C18 6.43929 17.7607 5.85714 17.3321 5.42857L14.5714 2.66786C14.1429 2.23929 13.5607 2 12.9536 2H4.28571ZM4.28571 5.42857C4.28571 4.79643 4.79643 4.28571 5.42857 4.28571H12.2857C12.9179 4.28571 13.4286 4.79643 13.4286 5.42857V7.71429C13.4286 8.34643 12.9179 8.85714 12.2857 8.85714H5.42857C4.79643 8.85714 4.28571 8.34643 4.28571 7.71429V5.42857ZM10 15.7143C8.73929 15.7143 7.71429 14.6893 7.71429 13.4286C7.71429 12.1679 8.73929 11.1429 10 11.1429C11.2607 11.1429 12.2857 12.1679 12.2857 13.4286C12.2857 14.6893 11.2607 15.7143 10 15.7143Z"/>
</svg>