<svg viewBox="0 0 20 20" xmlns="http://www.w3.org/2000/svg" id="icon">
  <path fill-rule="evenodd" d="M3.7253 1.33757C4.26734 1.07224 4.86278 0.934087 5.46628 0.93364C6.1535 0.933259 6.82903 1.11143 7.42667 1.45069C8.0243 1.78995 8.52355 2.27867 8.87547 2.86894C9.22739 3.45921 9.41992 4.13079 9.43419 4.81786C9.44846 5.50493 9.28397 6.18392 8.95686 6.78829L10.5661 8.39759L16.5647 2.399C16.7785 2.19256 17.0648 2.07833 17.3619 2.08091C17.659 2.0835 17.9433 2.20268 18.1534 2.41281C18.3635 2.62293 18.4827 2.90718 18.4853 3.20433C18.4879 3.50148 18.3737 3.78775 18.1672 4.0015L8.95572 13.2119C9.40891 14.05 9.54527 15.0232 9.33988 15.9536C9.13448 16.884 8.60104 17.7094 7.83712 18.2788C7.0732 18.8482 6.12984 19.1236 5.17954 19.0547C4.22924 18.9857 3.33551 18.577 2.66179 17.9033C1.98806 17.2296 1.57935 16.3359 1.5104 15.3856C1.44146 14.4353 1.71688 13.4919 2.2863 12.728C2.85572 11.9641 3.68109 11.4306 4.61148 11.2252C5.54187 11.0198 6.51511 11.1562 7.35323 11.6094L8.96252 10.0001L7.35323 8.39079C6.82215 8.67743 6.23267 8.83911 5.62966 8.86353C5.02666 8.88794 4.42603 8.77443 3.87352 8.53165C3.32101 8.28887 2.83118 7.92322 2.44133 7.46254C2.05148 7.00186 1.77189 6.45829 1.62385 5.87324C1.47581 5.28818 1.46321 4.67705 1.58703 4.08639C1.71085 3.49573 1.96782 2.94111 2.33836 2.46476C2.7089 1.98842 3.18326 1.6029 3.7253 1.33757ZM3.89572 4.24966C3.81029 4.45591 3.76632 4.67697 3.76632 4.90021C3.76632 5.35106 3.94542 5.78345 4.26423 6.10226C4.58303 6.42106 5.01542 6.60016 5.46628 6.60016C5.91713 6.60016 6.34953 6.42106 6.66833 6.10226C6.98713 5.78345 7.16623 5.35106 7.16623 4.90021C7.16623 4.67697 7.12226 4.45591 7.03683 4.24966C6.9514 4.04341 6.82618 3.85601 6.66833 3.69816C6.51047 3.5403 6.32307 3.41508 6.11682 3.32965C5.91057 3.24422 5.68952 3.20025 5.46628 3.20025C5.24304 3.20025 5.02198 3.24422 4.81573 3.32965C4.60948 3.41508 4.42208 3.5403 4.26423 3.69816C4.10637 3.85601 3.98115 4.04341 3.89572 4.24966ZM3.89572 14.4494C3.81029 14.6557 3.76632 14.8767 3.76632 15.1C3.76632 15.5508 3.94542 15.9832 4.26423 16.302C4.58303 16.6208 5.01542 16.7999 5.46628 16.7999C5.91713 16.7999 6.34953 16.6208 6.66833 16.302C6.98713 15.9832 7.16623 15.5508 7.16623 15.1C7.16623 14.8767 7.12226 14.6557 7.03683 14.4494C6.9514 14.2432 6.82618 14.0558 6.66833 13.8979C6.51047 13.74 6.32307 13.6148 6.11682 13.5294C5.91057 13.444 5.68952 13.4 5.46628 13.4C5.24304 13.4 5.02198 13.444 4.81573 13.5294C4.60948 13.6148 4.42208 13.74 4.26423 13.8979C4.10637 14.0558 3.98115 14.2432 3.89572 14.4494ZM12.974 11.2845C13.2711 11.2819 13.5574 11.3961 13.7712 11.6026L18.1673 15.9987C18.3799 16.2112 18.4994 16.4994 18.4995 16.8001C18.4996 17.1007 18.3803 17.3891 18.1678 17.6017C17.9553 17.8144 17.667 17.9339 17.3664 17.934C17.0658 17.9341 16.7774 17.8148 16.5648 17.6023L12.1687 13.2051C11.9622 12.9913 11.848 12.705 11.8506 12.4079C11.8532 12.1107 11.9724 11.8265 12.1825 11.6164C12.3926 11.4063 12.6768 11.2871 12.974 11.2845Z"/>
</svg>
