<svg id="icon" viewBox="0 0 20 20" fill="currentColor" xmlns="http://www.w3.org/2000/svg">
<path fill-rule="evenodd" clip-rule="evenodd" d="M8 3.99997C6.93913 3.99997 5.92172 4.4214 5.17157 5.17155C4.42143 5.92169 4 6.93911 4 7.99997C4 9.06084 4.42143 10.0783 5.17157 10.8284C5.92172 11.5785 6.93913 12 8 12C9.06087 12 10.0783 11.5785 10.8284 10.8284C11.5786 10.0783 12 9.06084 12 7.99997C12 6.93911 11.5786 5.92169 10.8284 5.17155C10.0783 4.4214 9.06087 3.99997 8 3.99997ZM2 7.99997C1.99988 7.05568 2.22264 6.12468 2.65017 5.28271C3.0777 4.44074 3.69792 3.71157 4.4604 3.1545C5.22287 2.59743 6.10606 2.22819 7.03815 2.07681C7.97023 1.92543 8.92488 1.99618 9.82446 2.28332C10.724 2.57046 11.5432 3.06587 12.2152 3.72927C12.8872 4.39266 13.3931 5.20531 13.6919 6.10111C13.9906 6.9969 14.0737 7.95056 13.9343 8.88452C13.795 9.81848 13.4372 10.7064 12.89 11.476L17.707 16.293C17.8892 16.4816 17.99 16.7342 17.9877 16.9964C17.9854 17.2586 17.8802 17.5094 17.6948 17.6948C17.5094 17.8802 17.2586 17.9854 16.9964 17.9876C16.7342 17.9899 16.4816 17.8891 16.293 17.707L11.477 12.891C10.5794 13.5293 9.52335 13.9081 8.42468 13.9861C7.326 14.0641 6.22707 13.8381 5.2483 13.3329C4.26953 12.8278 3.44869 12.063 2.87572 11.1223C2.30276 10.1816 1.99979 9.10141 2 7.99997V7.99997Z"/>
</svg>
