<svg viewBox="0 0 20 20" xmlns="http://www.w3.org/2000/svg" id="icon">
  <path fill-rule="evenodd" d="M7.75519 3.25248C6.5608 3.25248 5.41532 3.72693 4.57076 4.57145C3.7262 5.41597 3.25173 6.56139 3.25173 7.75573C3.25173 8.95006 3.7262 10.0955 4.57076 10.94C5.41532 11.7845 6.5608 12.259 7.75519 12.259C8.94958 12.259 10.0951 11.7845 10.9396 10.94C11.7842 10.0955 12.2586 8.95006 12.2586 7.75573C12.2586 6.56139 11.7842 5.41597 10.9396 4.57145C10.0951 3.72693 8.94958 3.25248 7.75519 3.25248ZM1 7.75573C0.999864 6.69263 1.25067 5.64451 1.73201 4.69661C2.21334 3.74871 2.91163 2.9278 3.77007 2.30064C4.62851 1.67348 5.62287 1.25779 6.67227 1.08736C7.72167 0.916938 8.79648 0.996597 9.80929 1.31986C10.8221 1.64313 11.7443 2.20087 12.5009 2.94772C13.2575 3.69458 13.8271 4.60946 14.1634 5.61796C14.4998 6.62646 14.5933 7.7001 14.4364 8.75156C14.2796 9.80303 13.8767 10.8026 13.2607 11.669L18.684 17.0921C18.889 17.3044 19.0025 17.5888 19 17.884C18.9974 18.1792 18.879 18.4615 18.6702 18.6703C18.4615 18.879 18.1791 18.9974 17.8839 19C17.5887 19.0025 17.3043 18.889 17.092 18.684L11.6698 13.2621C10.6592 13.9806 9.47027 14.4072 8.23332 14.495C6.99636 14.5827 5.75911 14.3283 4.65715 13.7596C3.55518 13.191 2.63103 12.3299 1.98595 11.2709C1.34087 10.2119 0.999759 8.99573 1 7.75573Z"/>
</svg>
