<svg id="icon" viewBox="0 0 47 47" xmlns="http://www.w3.org/2000/svg">
<path d="M37.9945 35.79C42.9297 30.0853 44.5379 22.2213 42.2373 15.0373C39.9373 7.85269 34.0608 2.38564 26.7291 0.60902C19.3983 -1.1676 11.6702 1.00274 6.33657 6.33656C1.00262 11.6705 -1.16759 19.3984 0.609038 26.7291C2.38566 34.0606 7.85253 39.9373 15.0373 42.2373C22.2211 44.5379 30.0852 42.9297 35.79 37.9944L44.7956 47L46.9588 44.8367L37.9945 35.79ZM34.8066 34.7551H34.8059C31.3282 38.2292 26.6134 40.1804 21.6975 40.179C16.7816 40.1769 12.0673 38.2235 8.59197 34.7468C5.11645 31.2705 3.1638 26.5557 3.1638 21.6398C3.1638 16.7239 5.11645 12.0091 8.59197 8.53285C12.0675 5.0559 16.7816 3.10254 21.6975 3.10059C26.6134 3.0992 31.3282 5.0504 34.8059 8.52451C38.2766 12.0117 40.2216 16.7337 40.2133 21.6536C40.2057 26.5731 38.2461 31.2886 34.7644 34.7649L34.8066 34.7551Z"/>
<path d="M28.1382 12.9971L21.6482 19.4871L15.1581 12.9971L12.9844 15.1604L19.4849 21.6504L12.9844 28.1404L15.1581 30.3037L21.6482 23.8137L28.1382 30.3037L30.3015 28.1404L23.8115 21.6504L30.3015 15.1604L28.1382 12.9971Z"/>
</svg>
