<svg id="icon" viewBox="0 0 20 20" fill="currentColor" xmlns="http://www.w3.org/2000/svg">
<path d="M9.3125 8.3125C9.3125 7.68261 9.56272 7.07852 10.0081 6.63312C10.4535 6.18772 11.0576 5.9375 11.6875 5.9375C12.3174 5.9375 12.9215 6.18772 13.3669 6.63312C13.8123 7.07852 14.0625 7.68261 14.0625 8.3125C14.0625 8.94239 13.8123 9.54648 13.3669 9.99188C12.9215 10.4373 12.3174 10.6875 11.6875 10.6875C11.0576 10.6875 10.4535 10.4373 10.0081 9.99188C9.56272 9.54648 9.3125 8.94239 9.3125 8.3125Z"/>
<path fill-rule="evenodd" clip-rule="evenodd" d="M10.5 19C13.0196 19 15.4359 17.9991 17.2175 16.2175C18.9991 14.4359 20 12.0196 20 9.5C20 6.98044 18.9991 4.56408 17.2175 2.78249C15.4359 1.00089 13.0196 0 10.5 0C7.98044 0 5.56408 1.00089 3.78249 2.78249C2.00089 4.56408 1 6.98044 1 9.5C1 12.0196 2.00089 14.4359 3.78249 16.2175C5.56408 17.9991 7.98044 19 10.5 19ZM11.6875 3.5625C10.8499 3.56238 10.0272 3.78374 9.30274 4.20413C8.5783 4.62453 7.9779 5.22901 7.56241 5.95628C7.14693 6.68356 6.93115 7.50776 6.93693 8.34533C6.94272 9.18289 7.16988 10.004 7.59538 10.7255L4.91044 13.4093C4.68761 13.6319 4.56237 13.934 4.56226 14.249C4.5622 14.405 4.59287 14.5594 4.65251 14.7035C4.71215 14.8477 4.79959 14.9786 4.90984 15.089C5.0201 15.1993 5.151 15.2868 5.29508 15.3466C5.43917 15.4063 5.5936 15.4371 5.74958 15.4371C6.06459 15.4373 6.36674 15.3122 6.58956 15.0896L9.2745 12.4046C9.90369 12.7755 10.6099 12.9962 11.3383 13.0497C12.0667 13.1032 12.7976 12.9881 13.4742 12.7132C14.1509 12.4383 14.755 12.0111 15.2397 11.4647C15.7243 10.9184 16.0765 10.2676 16.2688 9.56304C16.4611 8.85846 16.4883 8.11903 16.3483 7.40222C16.2084 6.68542 15.905 6.01054 15.4618 5.43004C15.0186 4.84954 14.4475 4.37906 13.7929 4.05516C13.1383 3.73127 12.4178 3.56268 11.6875 3.5625Z"/>
</svg>