<svg viewBox="0 0 20 20" xmlns="http://www.w3.org/2000/svg" id="icon">
  <path d="M10 2C10.5304 2 11.0391 2.21071 11.4142 2.58579C11.7893 2.96086 12 3.46957 12 4C12 4.04072 11.9988 4.08115 11.9965 4.12129C11.979 4.42716 12.1517 4.74311 12.4479 4.82149C16.0675 5.77947 18.7595 8.82421 18.9847 12.4999C19.0016 12.7755 18.7761 13 18.5 13H1.5C1.22386 13 0.998389 12.7755 1.01528 12.4999C1.24049 8.82421 3.93251 5.77947 7.55215 4.82149C7.84833 4.74311 8.021 4.42716 8.00345 4.12129C8.00115 4.08115 8 4.04072 8 4C8 3.46957 8.21071 2.96086 8.58579 2.58579C8.96086 2.21071 9.46957 2 10 2ZM20 15.5C20 15.7761 19.7761 16 19.5 16H0.5C0.223857 16 0 15.7761 0 15.5V14.5C0 14.2239 0.223858 14 0.5 14H19.5C19.7761 14 20 14.2239 20 14.5V15.5Z"/>
</svg>
