<svg viewBox="0 0 20 20" xmlns="http://www.w3.org/2000/svg" id="icon">
  <path d="M15.6248 7.75002C16.3101 7.75005 16.9792 7.54145 17.5431 7.15197C18.107 6.76249 18.5389 6.21059 18.7815 5.56966C19.0241 4.92873 19.0658 4.22914 18.9011 3.56392C18.7364 2.89871 18.3731 2.29939 17.8595 1.84567C17.3459 1.39194 16.7063 1.10532 16.0259 1.0239C15.3454 0.94249 14.6563 1.07015 14.0501 1.3899C13.444 1.70965 12.9495 2.20634 12.6325 2.81393C12.3156 3.42151 12.191 4.1112 12.2756 4.79126L6.71791 7.57002C6.24116 7.11029 5.63968 6.80099 4.98839 6.68065C4.33711 6.5603 3.66481 6.63423 3.05524 6.89322C2.44567 7.15222 1.92578 7.58483 1.56032 8.13718C1.19487 8.68952 1 9.33718 1 9.99947C1 10.6618 1.19487 11.3094 1.56032 11.8618C1.92578 12.4141 2.44567 12.8467 3.05524 13.1057C3.66481 13.3647 4.33711 13.4386 4.98839 13.3183C5.63968 13.1979 6.24116 12.8886 6.71791 12.4289L12.2756 15.2077C12.1771 15.9977 12.3611 16.7971 12.7951 17.4646C13.229 18.132 13.885 18.6246 14.647 18.8553C15.409 19.0859 16.228 19.0398 16.9593 18.725C17.6906 18.4102 18.287 17.847 18.6432 17.135C18.9994 16.423 19.0925 15.608 18.9059 14.8341C18.7193 14.0601 18.2651 13.377 17.6236 12.9055C16.9821 12.434 16.1945 12.2045 15.4002 12.2575C14.6058 12.3104 13.8557 12.6425 13.2825 13.195L7.72481 10.4163C7.75886 10.1398 7.75886 9.86024 7.72481 9.58378L13.2825 6.80502C13.8877 7.39002 14.7135 7.75002 15.6248 7.75002Z"/>
</svg>
