<svg viewBox="0 0 20 20" xmlns="http://www.w3.org/2000/svg" id="icon">
  <path d="M10.0554 1C5.07495 1 1 5.15385 1 10.2308C1 14.0385 3.26387 17.2692 6.43327 18.6538C6.43327 17.9615 6.43326 17.2692 6.54646 16.5769C6.77284 15.7692 7.67839 11.5 7.67839 11.5C7.67839 11.5 7.33882 10.9231 7.33882 10C7.33882 8.61539 8.13117 7.57692 9.03672 7.57692C9.82907 7.57692 10.2818 8.15385 10.2818 8.96154C10.2818 9.76923 9.71587 11.0385 9.48948 12.1923C9.2631 13.1154 9.94226 13.9231 10.961 13.9231C12.6589 13.9231 13.7908 11.7308 13.7908 8.96154C13.7908 6.88461 12.4325 5.38462 10.0554 5.38462C7.33881 5.38462 5.64092 7.46154 5.64092 9.76923C5.64092 10.5769 5.86731 11.1538 6.20689 11.6154C6.32008 11.8462 6.43327 11.8462 6.32007 12.0769C6.32007 12.1923 6.20688 12.6538 6.09369 12.7692C5.9805 13 5.86731 13.1154 5.64092 13C4.3958 12.4231 3.82983 11.0385 3.82983 9.42308C3.82983 6.76923 5.98049 3.65385 10.2818 3.65385C13.7908 3.65385 16.0547 6.19231 16.0547 8.96154C16.0547 12.5385 14.1304 15.3077 11.1874 15.3077C10.1686 15.3077 9.2631 14.7308 8.92352 14.1538C8.92352 14.1538 8.35754 16.2308 8.24435 16.6923C8.01797 17.3846 7.6784 18.0769 7.33882 18.6538C8.13117 18.8846 9.0367 19 9.94225 19C14.9227 19 18.9977 14.8462 18.9977 9.76923C19.1109 5.15385 15.0359 1 10.0554 1Z"/>
</svg>
