<svg viewBox="0 0 20 20" xmlns="http://www.w3.org/2000/svg" id="icon">
  <path d="M10 2C5.58065 2 2 5.6129 2 10C2 14.4194 5.58065 18 10 18C14.3871 18 18 14.4194 18 10C18 5.6129 14.3871 2 10 2ZM15.2581 5.70968C16.2258 6.87097 16.8065 8.35484 16.8065 9.96774C16.5806 9.90323 14.3226 9.45161 12.0645 9.74194C11.871 9.29032 11.7097 8.90323 11.4516 8.3871C14 7.35484 15.129 5.90323 15.2581 5.70968ZM14.5161 4.90323C14.3871 5.09677 13.3548 6.48387 10.9355 7.3871C9.80645 5.32258 8.58065 3.64516 8.3871 3.3871C10.5484 2.87097 12.8387 3.41935 14.5161 4.90323ZM7.06452 3.83871C7.25806 4.09677 8.48387 5.77419 9.6129 7.80645C6.41935 8.64516 3.6129 8.64516 3.29032 8.6129C3.74194 6.51613 5.16129 4.74194 7.06452 3.83871ZM3.16129 10.0323C3.16129 9.96774 3.16129 9.90323 3.16129 9.80645C3.45161 9.83871 6.77419 9.87097 10.1613 8.83871C10.3871 9.22581 10.5484 9.6129 10.7419 10C8.25806 10.7097 6 12.7097 4.90323 14.5806C3.80645 13.3871 3.16129 11.7742 3.16129 10.0323ZM5.77419 15.4194C6.51613 13.9677 8.45161 12.0645 11.1935 11.129C12.1613 13.6129 12.5484 15.7097 12.6452 16.3226C10.4516 17.2581 7.80645 17 5.77419 15.4194ZM13.8065 15.6774C13.7419 15.2903 13.3548 13.2903 12.4839 10.8065C14.6129 10.4839 16.4839 11.0323 16.7419 11.0968C16.4194 13 15.3226 14.6452 13.8065 15.6774Z"/>
</svg>
