<svg viewBox="0 0 20 20" xmlns="http://www.w3.org/2000/svg" id="icon">
  <path d="M2.12586 2C1.82727 2 1.5409 2.12041 1.32976 2.33474C1.11862 2.54906 1 2.83975 1 3.14286C1 3.44596 1.11862 3.73665 1.32976 3.95098C1.5409 4.16531 1.82727 4.28571 2.12586 4.28571H14.5104C14.809 4.28571 15.0953 4.16531 15.3065 3.95098C15.5176 3.73665 15.6362 3.44596 15.6362 3.14286C15.6362 2.83975 15.5176 2.54906 15.3065 2.33474C15.0953 2.12041 14.809 2 14.5104 2H2.12586ZM2.12586 6.57143C1.82727 6.57143 1.5409 6.69184 1.32976 6.90616C1.11862 7.12049 1 7.41118 1 7.71429C1 8.01739 1.11862 8.30808 1.32976 8.52241C1.5409 8.73674 1.82727 8.85714 2.12586 8.85714H7.75519C8.05379 8.85714 8.34015 8.73674 8.55129 8.52241C8.76243 8.30808 8.88105 8.01739 8.88105 7.71429C8.88105 7.41118 8.76243 7.12049 8.55129 6.90616C8.34015 6.69184 8.05379 6.57143 7.75519 6.57143H2.12586ZM2.12586 11.1429C1.82727 11.1429 1.5409 11.2633 1.32976 11.4776C1.11862 11.6919 1 11.9826 1 12.2857C1 12.5888 1.11862 12.8795 1.32976 13.0938C1.5409 13.3082 1.82727 13.4286 2.12586 13.4286H6.62932C6.92792 13.4286 7.21429 13.3082 7.42543 13.0938C7.63657 12.8795 7.75519 12.5888 7.75519 12.2857C7.75519 11.9826 7.63657 11.6919 7.42543 11.4776C7.21429 11.2633 6.92792 11.1429 6.62932 11.1429H2.12586ZM13.3845 16.8571C13.3845 17.1602 13.5031 17.4509 13.7143 17.6653C13.9254 17.8796 14.2118 18 14.5104 18C14.809 18 15.0953 17.8796 15.3065 17.6653C15.5176 17.4509 15.6362 17.1602 15.6362 16.8571V10.4731L17.092 11.9509C17.3043 12.159 17.5887 12.2742 17.8839 12.2716C18.1791 12.269 18.4615 12.1488 18.6702 11.9369C18.879 11.725 18.9974 11.4384 19 11.1387C19.0025 10.8391 18.889 10.5504 18.684 10.3349L15.3064 6.90629C15.0952 6.69203 14.8089 6.57167 14.5104 6.57167C14.2118 6.57167 13.9255 6.69203 13.7144 6.90629L10.3368 10.3349C10.2293 10.4403 10.1435 10.5664 10.0845 10.7058C10.0255 10.8453 9.99442 10.9952 9.99312 11.147C9.99183 11.2987 10.0203 11.4492 10.0769 11.5897C10.1335 11.7301 10.2171 11.8577 10.3228 11.965C10.4286 12.0723 10.5543 12.1572 10.6926 12.2147C10.831 12.2721 10.9792 12.301 11.1287 12.2997C11.2782 12.2984 11.426 12.2669 11.5633 12.207C11.7007 12.1471 11.8249 12.06 11.9288 11.9509L13.3845 10.4731V16.8571Z"/>
</svg>
