<svg viewBox="0 0 20 20" xmlns="http://www.w3.org/2000/svg" id="icon">
  <path d="M2.12586 2C1.82727 2 1.5409 2.12041 1.32976 2.33474C1.11862 2.54907 1 2.83977 1 3.14287C1 3.44598 1.11862 3.73668 1.32976 3.95101C1.5409 4.16534 1.82727 4.28575 2.12586 4.28575H14.5104C14.809 4.28575 15.0953 4.16534 15.3065 3.95101C15.5176 3.73668 15.6362 3.44598 15.6362 3.14287C15.6362 2.83977 15.5176 2.54907 15.3065 2.33474C15.0953 2.12041 14.809 2 14.5104 2H2.12586ZM2.12586 6.5715C1.82727 6.5715 1.5409 6.69191 1.32976 6.90624C1.11862 7.12057 1 7.41126 1 7.71437C1 8.01748 1.11862 8.30818 1.32976 8.52251C1.5409 8.73684 1.82727 8.85725 2.12586 8.85725H10.0069C10.3055 8.85725 10.5919 8.73684 10.803 8.52251C11.0142 8.30818 11.1328 8.01748 11.1328 7.71437C11.1328 7.41126 11.0142 7.12057 10.803 6.90624C10.5919 6.69191 10.3055 6.5715 10.0069 6.5715H2.12586ZM2.12586 11.143C1.82727 11.143 1.5409 11.2634 1.32976 11.4777C1.11862 11.6921 1 11.9828 1 12.2859C1 12.589 1.11862 12.8797 1.32976 13.094C1.5409 13.3083 1.82727 13.4287 2.12586 13.4287H6.62932C6.92792 13.4287 7.21429 13.3083 7.42543 13.094C7.63657 12.8797 7.75519 12.589 7.75519 12.2859C7.75519 11.9828 7.63657 11.6921 7.42543 11.4777C7.21429 11.2634 6.92792 11.143 6.62932 11.143H2.12586ZM15.6362 7.71437C15.6362 7.41126 15.5176 7.12057 15.3065 6.90624C15.0953 6.69191 14.809 6.5715 14.5104 6.5715C14.2118 6.5715 13.9254 6.69191 13.7143 6.90624C13.5031 7.12057 13.3845 7.41126 13.3845 7.71437V14.0985L11.9288 12.6207C11.7164 12.4125 11.432 12.2974 11.1368 12.3C10.8416 12.3026 10.5593 12.4228 10.3505 12.6347C10.1418 12.8466 10.0234 13.1332 10.0208 13.4329C10.0182 13.7325 10.1317 14.0212 10.3368 14.2368L13.7144 17.6654C13.9255 17.8796 14.2118 18 14.5104 18C14.8089 18 15.0952 17.8796 15.3064 17.6654L18.684 14.2368C18.889 14.0212 19.0025 13.7325 19 13.4329C18.9974 13.1332 18.879 12.8466 18.6702 12.6347C18.4615 12.4228 18.1791 12.3026 17.8839 12.3C17.5887 12.2974 17.3043 12.4125 17.092 12.6207L15.6362 14.0985V7.71437Z"/>
</svg>
