<svg viewBox="0 0 20 20" xmlns="http://www.w3.org/2000/svg" id="icon">
  <path fill-rule="evenodd" d="M5.05008 3.636C5.23755 3.82353 5.34286 4.07784 5.34286 4.343C5.34286 4.60817 5.23755 4.86247 5.05008 5.05C4.39999 5.70002 3.88431 6.47173 3.53248 7.32105C3.18066 8.17038 2.99957 9.08069 2.99957 10C2.99957 10.9193 3.18066 11.8296 3.53248 12.679C3.88431 13.5283 4.39999 14.3 5.05008 14.95C5.14559 15.0422 5.22177 15.1526 5.27418 15.2746C5.32659 15.3966 5.35417 15.5278 5.35533 15.6606C5.35648 15.7934 5.33118 15.9251 5.2809 16.048C5.23062 16.1709 5.15637 16.2825 5.06247 16.3764C4.96858 16.4703 4.85693 16.5445 4.73403 16.5948C4.61114 16.6451 4.47946 16.6704 4.34668 16.6693C4.2139 16.6681 4.08268 16.6405 3.96067 16.5881C3.83867 16.5357 3.72832 16.4595 3.63608 16.364C2.80034 15.5283 2.13739 14.5361 1.68509 13.4442C1.2328 12.3522 1 11.1819 1 10C1 8.8181 1.2328 7.64776 1.68509 6.55583C2.13739 5.46389 2.80034 4.47173 3.63608 3.636C3.82361 3.44853 4.07791 3.34322 4.34308 3.34322C4.60824 3.34322 4.86255 3.44853 5.05008 3.636ZM14.9501 3.636C15.1376 3.44853 15.3919 3.34322 15.6571 3.34322C15.9222 3.34322 16.1766 3.44853 16.3641 3.636C17.1998 4.47173 17.8628 5.46389 18.3151 6.55583C18.7674 7.64776 19.0002 8.8181 19.0002 10C19.0002 11.1819 18.7674 12.3522 18.3151 13.4442C17.8628 14.5361 17.1998 15.5283 16.3641 16.364C16.2718 16.4595 16.1615 16.5357 16.0395 16.5881C15.9175 16.6405 15.7863 16.6681 15.6535 16.6693C15.5207 16.6704 15.389 16.6451 15.2661 16.5948C15.1432 16.5445 15.0316 16.4703 14.9377 16.3764C14.8438 16.2825 14.7695 16.1709 14.7193 16.048C14.669 15.9251 14.6437 15.7934 14.6448 15.6606C14.646 15.5278 14.6736 15.3966 14.726 15.2746C14.7784 15.1526 14.8546 15.0422 14.9501 14.95C15.6002 14.3 16.1158 13.5283 16.4677 12.679C16.8195 11.8296 17.0006 10.9193 17.0006 10C17.0006 9.08069 16.8195 8.17038 16.4677 7.32105C16.1158 6.47173 15.6002 5.70002 14.9501 5.05C14.7626 4.86247 14.6573 4.60817 14.6573 4.343C14.6573 4.07784 14.7626 3.82353 14.9501 3.636ZM7.87908 6.464C8.06655 6.65153 8.17186 6.90584 8.17186 7.171C8.17186 7.43617 8.06655 7.69047 7.87908 7.878C7.60045 8.15658 7.37943 8.48733 7.22863 8.85134C7.07783 9.21534 7.00022 9.60549 7.00022 9.9995C7.00022 10.3935 7.07783 10.7837 7.22863 11.1477C7.37943 11.5117 7.60045 11.8424 7.87908 12.121C7.97192 12.2139 8.04556 12.3242 8.09578 12.4456C8.146 12.5669 8.17183 12.697 8.17178 12.8284C8.17173 12.9597 8.14582 13.0898 8.09551 13.2111C8.0452 13.3324 7.97149 13.4427 7.87858 13.5355C7.78567 13.6283 7.67538 13.702 7.55401 13.7522C7.43264 13.8024 7.30257 13.8283 7.17122 13.8282C7.03988 13.8282 6.90982 13.8022 6.78849 13.7519C6.66716 13.7016 6.55692 13.6279 6.46408 13.535C5.52672 12.5974 5.00015 11.3258 5.00015 10C5.00015 8.67418 5.52672 7.40264 6.46408 6.465C6.55695 6.37203 6.66724 6.29827 6.78864 6.24794C6.91004 6.19762 7.04016 6.17172 7.17158 6.17172C7.30299 6.17172 7.43312 6.19762 7.55452 6.24794C7.67592 6.29827 7.7862 6.37203 7.87908 6.465V6.464ZM12.1211 6.464C12.214 6.37103 12.3242 6.29727 12.4456 6.24694C12.567 6.19662 12.6972 6.17072 12.8286 6.17072C12.96 6.17072 13.0901 6.19662 13.2115 6.24694C13.3329 6.29727 13.4432 6.37103 13.5361 6.464C14.0005 6.92831 14.3689 7.47957 14.6203 8.08628C14.8716 8.69299 15.001 9.34328 15.001 10C15.001 10.6567 14.8716 11.307 14.6203 11.9137C14.3689 12.5204 14.0005 13.0717 13.5361 13.536C13.3484 13.7236 13.0939 13.8291 12.8286 13.8291C12.5632 13.8291 12.3087 13.7236 12.1211 13.536C11.9334 13.3484 11.828 13.0939 11.828 12.8285C11.828 12.5631 11.9334 12.3086 12.1211 12.121C12.6835 11.5584 12.9994 10.7955 12.9994 10C12.9994 9.20451 12.6835 8.44159 12.1211 7.879C12.0281 7.78613 11.9543 7.67584 11.904 7.55444C11.8537 7.43304 11.8278 7.30292 11.8278 7.1715C11.8278 7.04009 11.8537 6.90996 11.904 6.78856C11.9543 6.66716 12.0281 6.55688 12.1211 6.464ZM10.0001 9C10.2653 9 10.5196 9.10536 10.7072 9.2929C10.8947 9.48043 11.0001 9.73479 11.0001 10V10.01C11.0001 10.2752 10.8947 10.5296 10.7072 10.7171C10.5196 10.9046 10.2653 11.01 10.0001 11.01C9.73486 11.01 9.48051 10.9046 9.29297 10.7171C9.10544 10.5296 9.00008 10.2752 9.00008 10.01V10C9.00008 9.73479 9.10544 9.48043 9.29297 9.2929C9.48051 9.10536 9.73486 9 10.0001 9Z"/>
</svg>
