<svg id="icon" viewBox="0 0 20 20" fill="currentColor" xmlns="http://www.w3.org/2000/svg">
<path fill-rule="evenodd" clip-rule="evenodd" d="M5.04996 3.63599C5.23743 3.82351 5.34274 4.07782 5.34274 4.34299C5.34274 4.60815 5.23743 4.86246 5.04996 5.04999C4.39987 5.70001 3.88419 6.47171 3.53236 7.32104C3.18053 8.17036 2.99945 9.08067 2.99945 9.99999C2.99945 10.9193 3.18053 11.8296 3.53236 12.6789C3.88419 13.5283 4.39987 14.3 5.04996 14.95C5.14547 15.0422 5.22165 15.1526 5.27406 15.2746C5.32647 15.3966 5.35405 15.5278 5.35521 15.6606C5.35636 15.7934 5.33106 15.925 5.28078 16.0479C5.2305 16.1708 5.15624 16.2825 5.06235 16.3764C4.96846 16.4703 4.85681 16.5445 4.73391 16.5948C4.61101 16.6451 4.47933 16.6704 4.34655 16.6692C4.21378 16.6681 4.08256 16.6405 3.96055 16.5881C3.83855 16.5357 3.7282 16.4595 3.63596 16.364C2.80022 15.5283 2.13727 14.5361 1.68497 13.4442C1.23267 12.3522 0.999878 11.1819 0.999878 9.99999C0.999878 8.81808 1.23267 7.64775 1.68497 6.55581C2.13727 5.46387 2.80022 4.47172 3.63596 3.63599C3.82348 3.44852 4.07779 3.3432 4.34296 3.3432C4.60812 3.3432 4.86243 3.44852 5.04996 3.63599V3.63599ZM14.95 3.63599C15.1375 3.44852 15.3918 3.3432 15.657 3.3432C15.9221 3.3432 16.1764 3.44852 16.364 3.63599C17.1997 4.47172 17.8626 5.46387 18.3149 6.55581C18.7672 7.64775 19 8.81808 19 9.99999C19 11.1819 18.7672 12.3522 18.3149 13.4442C17.8626 14.5361 17.1997 15.5283 16.364 16.364C16.2717 16.4595 16.1614 16.5357 16.0394 16.5881C15.9174 16.6405 15.7861 16.6681 15.6534 16.6692C15.5206 16.6704 15.3889 16.6451 15.266 16.5948C15.1431 16.5445 15.0315 16.4703 14.9376 16.3764C14.8437 16.2825 14.7694 16.1708 14.7191 16.0479C14.6689 15.925 14.6436 15.7934 14.6447 15.6606C14.6459 15.5278 14.6734 15.3966 14.7259 15.2746C14.7783 15.1526 14.8544 15.0422 14.95 14.95C15.6 14.3 16.1157 13.5283 16.4676 12.6789C16.8194 11.8296 17.0005 10.9193 17.0005 9.99999C17.0005 9.08067 16.8194 8.17036 16.4676 7.32104C16.1157 6.47171 15.6 5.70001 14.95 5.04999C14.7625 4.86246 14.6572 4.60815 14.6572 4.34299C14.6572 4.07782 14.7625 3.82351 14.95 3.63599V3.63599ZM7.87896 6.46399C8.06643 6.65152 8.17174 6.90582 8.17174 7.17099C8.17174 7.43615 8.06643 7.69046 7.87896 7.87799C7.60033 8.15657 7.3793 8.48731 7.22851 8.85132C7.07771 9.21533 7.0001 9.60548 7.0001 9.99949C7.0001 10.3935 7.07771 10.7836 7.22851 11.1477C7.3793 11.5117 7.60033 11.8424 7.87896 12.121C7.9718 12.2139 8.04544 12.3242 8.09566 12.4456C8.14588 12.5669 8.1717 12.697 8.17166 12.8283C8.17161 12.9597 8.1457 13.0897 8.09539 13.2111C8.04508 13.3324 7.97137 13.4426 7.87846 13.5355C7.78555 13.6283 7.67526 13.702 7.55389 13.7522C7.43252 13.8024 7.30245 13.8282 7.1711 13.8282C7.03975 13.8281 6.9097 13.8022 6.78837 13.7519C6.66704 13.7016 6.5568 13.6279 6.46396 13.535C5.5266 12.5973 5.00002 11.3258 5.00002 9.99999C5.00002 8.67417 5.5266 7.40263 6.46396 6.46499C6.55683 6.37201 6.66712 6.29825 6.78852 6.24793C6.90991 6.1976 7.04004 6.1717 7.17146 6.1717C7.30287 6.1717 7.433 6.1976 7.5544 6.24793C7.67579 6.29825 7.78608 6.37201 7.87896 6.46499V6.46399ZM12.121 6.46399C12.2138 6.37101 12.3241 6.29725 12.4455 6.24693C12.5669 6.1966 12.697 6.1707 12.8285 6.1707C12.9599 6.1707 13.09 6.1966 13.2114 6.24693C13.3328 6.29725 13.4431 6.37101 13.536 6.46399C14.0004 6.9283 14.3688 7.47955 14.6202 8.08627C14.8715 8.69298 15.0009 9.34327 15.0009 9.99999C15.0009 10.6567 14.8715 11.307 14.6202 11.9137C14.3688 12.5204 14.0004 13.0717 13.536 13.536C13.3483 13.7236 13.0938 13.829 12.8285 13.829C12.5631 13.829 12.3086 13.7236 12.121 13.536C11.9333 13.3483 11.8279 13.0939 11.8279 12.8285C11.8279 12.5631 11.9333 12.3086 12.121 12.121C12.6834 11.5584 12.9993 10.7955 12.9993 9.99999C12.9993 9.20449 12.6834 8.44157 12.121 7.87899C12.028 7.78611 11.9542 7.67583 11.9039 7.55443C11.8536 7.43303 11.8277 7.3029 11.8277 7.17149C11.8277 7.04007 11.8536 6.90994 11.9039 6.78855C11.9542 6.66715 12.028 6.55686 12.121 6.46399V6.46399ZM9.99996 8.99999C10.2652 8.99999 10.5195 9.10534 10.7071 9.29288C10.8946 9.48042 11 9.73477 11 9.99999V10.01C11 10.2752 10.8946 10.5296 10.7071 10.7171C10.5195 10.9046 10.2652 11.01 9.99996 11.01C9.73474 11.01 9.48039 10.9046 9.29285 10.7171C9.10531 10.5296 8.99996 10.2752 8.99996 10.01V9.99999C8.99996 9.73477 9.10531 9.48042 9.29285 9.29288C9.48039 9.10534 9.73474 8.99999 9.99996 8.99999V8.99999Z"/>
</svg>
