<svg id="icon" viewBox="0 0 17 16" fill="currentColor" xmlns="http://www.w3.org/2000/svg">
<path d="M3.49231 10.057C3.49231 10.3298 3.59783 10.5914 3.78565 10.7843C3.97348 10.9772 4.22822 11.0856 4.49385 11.0856C4.75947 11.0856 5.01422 10.9772 5.20204 10.7843C5.38987 10.5914 5.49538 10.3298 5.49538 10.057V4.31124L6.79037 5.64122C6.97927 5.82859 7.23226 5.93226 7.49486 5.92992C7.75746 5.92758 8.00866 5.8194 8.19435 5.62869C8.38004 5.43798 8.48537 5.17999 8.48765 4.91029C8.48994 4.6406 8.38899 4.38077 8.20655 4.18677L5.20193 1.10097C5.01412 0.908132 4.75942 0.799805 4.49385 0.799805C4.22827 0.799805 3.97357 0.908132 3.78576 1.10097L0.781144 4.18677C0.598705 4.38077 0.497756 4.6406 0.500038 4.91029C0.50232 5.17999 0.607651 5.43798 0.793344 5.62869C0.979037 5.8194 1.23024 5.92758 1.49284 5.92992C1.75544 5.93226 2.00843 5.82859 2.19732 5.64122L3.49231 4.31124V10.057ZM13.5077 5.9426C13.5077 5.6698 13.4022 5.40817 13.2143 5.21527C13.0265 5.02237 12.7718 4.914 12.5062 4.914C12.2405 4.914 11.9858 5.02237 11.798 5.21527C11.6101 5.40817 11.5046 5.6698 11.5046 5.9426V11.6884L10.2096 10.3584C10.0207 10.171 9.76774 10.0673 9.50514 10.0697C9.24254 10.072 8.99134 10.1802 8.80565 10.3709C8.61996 10.5616 8.51463 10.8196 8.51234 11.0893C8.51006 11.359 8.61101 11.6188 8.79345 11.8128L11.7981 14.8986C11.9859 15.0915 12.2406 15.1998 12.5062 15.1998C12.7717 15.1998 13.0264 15.0915 13.2142 14.8986L16.2189 11.8128C16.4013 11.6188 16.5022 11.359 16.5 11.0893C16.4977 10.8196 16.3923 10.5616 16.2067 10.3709C16.021 10.1802 15.7698 10.072 15.5072 10.0697C15.2446 10.0673 14.9916 10.171 14.8027 10.3584L13.5077 11.6884V5.9426Z"/>
</svg>
