<svg viewBox="0 0 20 20" xmlns="http://www.w3.org/2000/svg" id="icon">
  <path fill-rule="evenodd" d="M18.6706 9.20473C18.8815 9.41571 19 9.70181 19 10.0001C19 10.2984 18.8815 10.5845 18.6706 10.7955L10.7955 18.6706C10.5845 18.8815 10.2984 19 10.0001 19C9.70181 19 9.41571 18.8815 9.20473 18.6706L1.32963 10.7955C1.22501 10.6912 1.14203 10.5672 1.08546 10.4307C1.02889 10.2942 0.999848 10.1479 1 10.0001V4.37505C1 3.47993 1.35558 2.62147 1.98853 1.98853C2.62147 1.35558 3.47993 1 4.37505 1H10.0001C10.2881 1 10.5761 1.11025 10.7955 1.32963L18.6706 9.20473ZM4.37505 5.50006C4.67342 5.50006 4.95957 5.38153 5.17055 5.17055C5.38153 4.95957 5.50006 4.67342 5.50006 4.37505C5.50006 4.07667 5.38153 3.79052 5.17055 3.57954C4.95957 3.36856 4.67342 3.25003 4.37505 3.25003C4.07667 3.25003 3.79052 3.36856 3.57954 3.57954C3.36856 3.79052 3.25003 4.07667 3.25003 4.37505C3.25003 4.67342 3.36856 4.95957 3.57954 5.17055C3.79052 5.38153 4.07667 5.50006 4.37505 5.50006Z"/>
</svg>
