<svg viewBox="0 0 20 20" xmlns="http://www.w3.org/2000/svg" id="icon">
  <path fill-rule="evenodd" d="M3.23223 0.732233C2.76339 1.20107 2.5 1.83696 2.5 2.5V17.5C2.5 18.163 2.76339 18.7989 3.23223 19.2678C3.70107 19.7366 4.33696 20 5 20H15C15.663 20 16.2989 19.7366 16.7678 19.2678C17.2366 18.7989 17.5 18.163 17.5 17.5V6.7675C17.4999 6.10451 17.2364 5.46873 16.7675 5L12.5 0.7325C12.0313 0.263627 11.3955 0.000141594 10.7325 0H5C4.33696 0 3.70107 0.263392 3.23223 0.732233ZM6.17128 7.4935C6.47598 7.17752 6.88924 7 7.32015 7C7.75105 7 8.16431 7.17752 8.46901 7.4935C8.7737 7.80948 8.94488 8.23805 8.94488 8.68491C8.94488 9.13178 8.7737 9.56034 8.46901 9.87632C8.16431 10.1923 7.75105 10.3698 7.32015 10.3698C6.88924 10.3698 6.47598 10.1923 6.17128 9.87632C5.86659 9.56034 5.69541 9.13178 5.69541 8.68491C5.69541 8.23805 5.86659 7.80948 6.17128 7.4935ZM13.2775 7.00024C13.5647 7.00024 13.8402 7.11854 14.0433 7.32912C14.2464 7.53976 14.3604 7.82542 14.3604 8.12327C14.3604 8.42113 14.2464 8.70678 14.0433 8.91743L7.54436 15.6571C7.44444 15.7644 7.32492 15.8499 7.19277 15.9088C7.06062 15.9677 6.91849 15.9987 6.77467 16C6.63085 16.0013 6.48822 15.9728 6.3551 15.9164C6.22199 15.8599 6.10105 15.7765 5.99935 15.671C5.89765 15.5655 5.81722 15.4401 5.76276 15.3021C5.7083 15.164 5.68089 15.0161 5.68214 14.867C5.68339 14.7178 5.71327 14.5704 5.77004 14.4334C5.8268 14.2963 5.90932 14.1724 6.01277 14.0688L12.5117 7.32912C12.7148 7.11854 12.9903 7.00024 13.2775 7.00024ZM12.7359 12.6164C12.305 12.6164 11.8918 12.7939 11.5871 13.1099C11.2824 13.4259 11.1112 13.8544 11.1112 14.3013C11.1112 14.7481 11.2824 15.1767 11.5871 15.4927C11.8918 15.8087 12.305 15.9862 12.7359 15.9862C13.1668 15.9862 13.5801 15.8087 13.8848 15.4927C14.1895 15.1767 14.3607 14.7481 14.3607 14.3013C14.3607 13.8544 14.1895 13.4259 13.8848 13.1099C13.5801 12.7939 13.1668 12.6164 12.7359 12.6164Z"/>
</svg>
