<svg viewBox="0 0 20 20" xmlns="http://www.w3.org/2000/svg" id="icon">
  <path fill-rule="evenodd" d="M1 4.28571C1 3.67951 1.23705 3.09812 1.65901 2.66947C2.08097 2.24082 2.65326 2 3.25 2H16.75C17.3467 2 17.919 2.24082 18.341 2.66947C18.7629 3.09812 19 3.67951 19 4.28571V15.7143C19 16.3205 18.7629 16.9019 18.341 17.3305C17.919 17.7592 17.3467 18 16.75 18H3.25C2.65326 18 2.08097 17.7592 1.65901 17.3305C1.23705 16.9019 1 16.3205 1 15.7143V4.28571ZM4.70463 5.76343C4.91559 5.54918 5.20169 5.42882 5.5 5.42882C5.79831 5.42882 6.08441 5.54918 6.29537 5.76343L9.67037 9.192C9.88128 9.40632 9.99976 9.69696 9.99976 10C9.99976 10.303 9.88128 10.5937 9.67037 10.808L6.29537 14.2366C6.0832 14.4448 5.79902 14.5599 5.50405 14.5573C5.20908 14.5547 4.92691 14.4345 4.71833 14.2227C4.50975 14.0108 4.39143 13.7241 4.38887 13.4245C4.3863 13.1248 4.4997 12.8361 4.70463 12.6206L7.28425 10L4.70463 7.37943C4.49372 7.16511 4.37524 6.87447 4.37524 6.57143C4.37524 6.26838 4.49372 5.97775 4.70463 5.76343ZM11.125 12.2857C10.8266 12.2857 10.5405 12.4061 10.3295 12.6205C10.1185 12.8348 10 13.1255 10 13.4286C10 13.7317 10.1185 14.0224 10.3295 14.2367C10.5405 14.451 10.8266 14.5714 11.125 14.5714H14.5C14.7984 14.5714 15.0845 14.451 15.2955 14.2367C15.5065 14.0224 15.625 13.7317 15.625 13.4286C15.625 13.1255 15.5065 12.8348 15.2955 12.6205C15.0845 12.4061 14.7984 12.2857 14.5 12.2857H11.125Z"/>
</svg>
