<svg id="icon" viewBox="0 0 86 86" xmlns="http://www.w3.org/2000/svg">
<path d="M24.4065 47.375C24.2625 47.3758 24.1194 47.3483 23.9862 47.2938C23.8529 47.2394 23.7316 47.1592 23.6294 47.0578L15.1966 38.625H9.09396C8.80388 38.625 8.52523 38.5098 8.32011 38.3047C8.115 38.0996 8.00021 37.8213 8.00021 37.5313V9.09376C8.00021 8.80368 8.115 8.52543 8.32011 8.32031C8.52523 8.11519 8.80388 8.00001 9.09396 8.00001H50.6565C50.9465 8.00001 51.2247 8.11519 51.4298 8.32031C51.6349 8.52543 51.7502 8.80368 51.7502 9.09376V37.5313C51.7502 37.8213 51.6349 38.0996 51.4298 38.3047C51.2247 38.5098 50.9465 38.625 50.6565 38.625H47.3752V36.4375H49.5627V10.1875H10.1877V36.4375H15.6565C15.9461 36.4415 16.2234 36.5549 16.433 36.7547L23.3127 43.6453V37.5313C23.3127 37.2412 23.4275 36.9629 23.6326 36.7578C23.8377 36.5527 24.1164 36.4375 24.4065 36.4375H33.1565V38.625H25.5002V46.2813C25.4991 46.4972 25.434 46.7079 25.3133 46.887C25.1926 47.0661 25.0217 47.2055 24.822 47.2876C24.6922 47.3488 24.5499 47.3787 24.4065 47.375Z"/>
<path d="M26.594 78H8.00024V49.5625H26.594V78ZM10.1877 75.8125H24.4065V51.75H10.1877V75.8125Z"/>
<path d="M51.7502 78H33.1565C32.9867 77.9975 32.819 77.9603 32.6641 77.8907L28.2891 75.7032L29.2734 73.7453L33.408 75.8125H51.7502C52.3304 75.8125 52.8866 75.582 53.2969 75.1718C53.7071 74.7615 53.9377 74.2052 53.9377 73.625C53.9377 73.0449 53.7071 72.4885 53.2969 72.0783C52.8866 71.668 52.3304 71.4375 51.7502 71.4375C51.4602 71.4375 51.1815 71.3223 50.9764 71.1172C50.7713 70.9121 50.6565 70.6339 50.6565 70.3438C50.6565 70.0537 50.7713 69.7754 50.9764 69.5703C51.1815 69.3652 51.4602 69.25 51.7502 69.25H52.844C53.4242 69.25 53.9804 69.0195 54.3906 68.6093C54.8009 68.199 55.0315 67.6427 55.0315 67.0625C55.0315 66.4824 54.8009 65.926 54.3906 65.5158C53.9804 65.1055 53.4242 64.875 52.844 64.875C52.5539 64.875 52.2753 64.7598 52.0701 64.5547C51.865 64.3496 51.7502 64.0714 51.7502 63.7813C51.7502 63.4912 51.865 63.2129 52.0701 63.0078C52.2753 62.8027 52.5539 62.6875 52.844 62.6875H55.0315C55.6117 62.6875 56.1679 62.457 56.5781 62.0468C56.9884 61.6365 57.219 61.0802 57.219 60.5C57.219 59.9199 56.9884 59.3635 56.5781 58.9533C56.1679 58.543 55.6117 58.3125 55.0315 58.3125H53.9377C53.6477 58.3125 53.369 58.1973 53.1639 57.9922C52.9588 57.7871 52.844 57.5089 52.844 57.2188C52.844 56.9287 52.9588 56.6504 53.1639 56.4453C53.369 56.2402 53.6477 56.125 53.9377 56.125C54.5179 56.125 55.0741 55.8945 55.4844 55.4843C55.8946 55.074 56.1252 54.5177 56.1252 53.9375C56.1252 53.3574 55.8946 52.801 55.4844 52.3908C55.0741 51.9805 54.5179 51.75 53.9377 51.75H39.719C39.5398 51.7503 39.363 51.7066 39.2047 51.6226C39.0464 51.5387 38.9114 51.4171 38.8111 51.2687C38.7113 51.1209 38.6491 50.9511 38.6301 50.7738C38.611 50.5965 38.6355 50.4172 38.7016 50.2516L43.0002 39.5109V36.4375C43.0002 35.8574 42.7696 35.301 42.3594 34.8908C41.9491 34.4805 41.3929 34.25 40.8127 34.25C40.2326 34.25 39.6758 34.4805 39.2656 34.8908C38.8553 35.301 38.6252 35.8574 38.6252 36.4375C38.6242 36.6087 38.5826 36.7773 38.5045 36.9297L35.2233 43.4922C35.1863 43.5713 35.1386 43.645 35.0812 43.711L28.5187 51.3672C28.416 51.4873 28.2884 51.5837 28.1449 51.6497C28.0014 51.7158 27.8457 51.75 27.6877 51.75H25.5002V49.5625H27.1841L33.3311 42.3875L36.4484 36.1641C36.5181 35.0518 37.0095 34.008 37.8226 33.2457C38.6356 32.4835 39.709 32.0603 40.8234 32.0625C41.9837 32.0625 43.0968 32.5234 43.9172 33.3439C44.7377 34.1643 45.1984 35.2772 45.1984 36.4375V39.7188C45.1951 39.8569 45.1694 39.9936 45.1221 40.1235L41.3377 49.5625H53.9484C55.1087 49.5625 56.2218 50.0234 57.0422 50.8439C57.8627 51.6643 58.3234 52.7772 58.3234 53.9375C58.3218 54.9662 57.9579 55.9614 57.2954 56.7484C57.9428 57.1374 58.4787 57.6874 58.8505 58.3448C59.2224 59.0023 59.4174 59.7447 59.4172 60.5C59.4181 61.4081 59.1365 62.2941 58.6113 63.0349C58.086 63.7757 57.343 64.3347 56.4857 64.6344C56.9719 65.3507 57.2313 66.1968 57.2297 67.0625C57.2299 67.8178 57.0349 68.5603 56.663 69.2177C56.2912 69.8751 55.7553 70.425 55.1079 70.814C55.7704 71.601 56.1343 72.5963 56.1359 73.625C56.1359 74.2005 56.0227 74.7703 55.8021 75.3018C55.5816 75.8333 55.2579 76.316 54.8504 76.7224C54.443 77.1288 53.9598 77.4509 53.4277 77.6701C52.8957 77.8893 52.3257 78.0015 51.7502 78Z"/>
<path d="M22.2188 71.4375H20.0312V73.625H22.2188V71.4375Z"/>
<path d="M61.594 53.9375C61.4505 53.9412 61.3078 53.9113 61.178 53.8501C60.9782 53.768 60.8073 53.6286 60.6866 53.4495C60.566 53.2704 60.5013 53.0597 60.5002 52.8438V45.1875H47.3752V43H61.594C61.8841 43 62.1622 43.1152 62.3673 43.3203C62.5724 43.5254 62.6877 43.8037 62.6877 44.0938V50.2078L69.5669 43.3172C69.6691 43.2159 69.7904 43.1356 69.9237 43.0812C70.0569 43.0268 70.2 42.9992 70.344 43H75.8127V18.9375H53.9377V16.75H76.9065C77.1966 16.75 77.4747 16.8652 77.6798 17.0703C77.8849 17.2754 78.0002 17.5537 78.0002 17.8438V44.0938C78.0002 44.3838 77.8849 44.6621 77.6798 44.8672C77.4747 45.0723 77.1966 45.1875 76.9065 45.1875H70.7921L62.3705 53.6203C62.2683 53.7217 62.147 53.8019 62.0138 53.8563C61.8805 53.9108 61.7379 53.9383 61.594 53.9375Z"/>
<path d="M26.5938 22.2188H24.4062V24.4062H26.5938V22.2188Z"/>
<path d="M30.9688 22.2188H28.7812V24.4062H30.9688V22.2188Z"/>
<path d="M35.3438 22.2188H33.1562V24.4062H35.3438V22.2188Z"/>
<path d="M71.4375 23.3125H53.9375V25.5H71.4375V23.3125Z"/>
<path d="M71.4375 29.875H53.9375V32.0625H71.4375V29.875Z"/>
<path d="M71.4375 36.4375H53.9375V38.625H71.4375V36.4375Z"/>
<path d="M44.094 29.875H15.6565C15.3664 29.875 15.0878 29.7598 14.8826 29.5547C14.6775 29.3496 14.5627 29.0713 14.5627 28.7813V17.8438C14.5627 17.5537 14.6775 17.2754 14.8826 17.0703C15.0878 16.8652 15.3664 16.75 15.6565 16.75H44.094C44.3841 16.75 44.6622 16.8652 44.8673 17.0703C45.0724 17.2754 45.1877 17.5537 45.1877 17.8438V28.7813C45.1877 29.0713 45.0724 29.3496 44.8673 29.5547C44.6622 29.7598 44.3841 29.875 44.094 29.875ZM16.7502 27.6875H43.0002V18.9375H16.7502V27.6875Z"/>
</svg>
