<svg id="icon" viewBox="0 0 86 86" xmlns="http://www.w3.org/2000/svg">
<path d="M63.7098 54.3501H63.0861C62.4729 54.3995 62.001 54.9124 62.0031 55.5272C62.0583 56.1357 62.5695 56.6013 63.1801 56.5986H63.7802C67.2331 56.5986 70.4233 58.4404 72.1494 61.4303C73.8756 64.4203 73.8756 68.1038 72.1494 71.0938C70.4233 74.0838 67.2331 75.926 63.7802 75.926H63.2269H63.2274C62.6957 76.0306 62.3047 76.4851 62.2795 77.0258C62.2543 77.5671 62.6016 78.0557 63.1213 78.2092H63.7802C68.0486 78.2092 71.9928 75.9323 74.1267 72.2357C76.2612 68.5394 76.2612 63.9853 74.1267 60.2886C71.9928 56.5924 68.0486 54.3151 63.7802 54.3151L63.7098 54.3501Z"/>
<path d="M55.2454 59.4592C54.7126 59.1282 54.0137 59.2732 53.6565 59.7887C53.4326 60.1418 53.2209 60.5064 53.0327 60.8717C52.7616 61.4355 52.9791 62.1128 53.5272 62.4134C53.6885 62.4917 53.8656 62.5322 54.0453 62.5311C54.4746 62.5259 54.8672 62.2868 55.069 61.9074C55.2219 61.6084 55.3911 61.3173 55.5755 61.0367C55.8987 60.5059 55.7547 59.8155 55.2455 59.4591L55.2454 59.4592Z"/>
<path d="M57.1532 76.3498C57.5063 76.5737 57.871 76.7854 58.2362 76.9736C58.3975 77.0519 58.5746 77.0923 58.7543 77.0913C59.181 77.0881 59.573 76.8538 59.778 76.4791C60.0491 75.9158 59.8321 75.2385 59.284 74.9374C58.9792 74.7871 58.6844 74.6184 58.4012 74.4313C57.8705 74.1077 57.18 74.2522 56.8237 74.7608C56.4927 75.2936 56.6377 75.9925 57.1532 76.3498L57.1532 76.3498Z"/>
<path d="M56.8342 57.8584C57.0402 58.1853 57.4012 58.3818 57.7879 58.376C58.0081 58.3771 58.2246 58.3156 58.4117 58.1995C58.6928 58.015 58.9834 57.8463 59.2829 57.6934C59.6355 57.612 59.9314 57.3724 60.0843 57.0445C60.2377 56.7161 60.2314 56.3356 60.0669 56.013C59.903 55.6903 59.5992 55.4607 59.2435 55.3913C58.8883 55.322 58.5205 55.4197 58.2467 55.6572C57.8757 55.8464 57.5142 56.055 57.1642 56.281C56.655 56.6372 56.511 57.3277 56.8342 57.8585L56.8342 57.8584Z"/>
<path d="M52.9509 64.5793C52.3361 64.5772 51.8233 65.049 51.7739 65.6623V66.286V66.9097C51.8233 67.5229 52.3361 67.9948 52.9509 67.9927C53.5641 67.9433 54.036 67.4305 54.0339 66.8157V66.3096V65.8036C54.0612 65.1704 53.5825 64.6292 52.9509 64.5793Z"/>
<path d="M53.6571 72.8184C53.8631 73.1458 54.2241 73.3423 54.6109 73.3365C54.831 73.3371 55.0475 73.2761 55.2346 73.16C55.7474 72.8069 55.8972 72.1159 55.5761 71.5824C55.388 71.2997 55.223 71.0055 55.058 70.6997C54.9813 70.3418 54.7422 70.0402 54.4117 69.8836C54.0817 69.7265 53.6965 69.7323 53.3713 69.8988C53.0455 70.0654 52.8158 70.3739 52.7496 70.7338C52.6834 71.0938 52.7885 71.4637 53.0334 71.7354C53.2184 72.109 53.427 72.471 53.6571 72.8183L53.6571 72.8184Z"/>
<path d="M64.0614 60.7555C62.4216 60.7555 61.3595 61.4609 60.5256 62.719C60.3744 62.9473 60.421 63.2602 60.632 63.4282L61.5182 64.1337C61.7313 64.3034 62.0345 64.2637 62.2014 64.0443C62.716 63.3673 63.0977 62.9776 63.9015 62.9776C64.5336 62.9776 65.3153 63.4047 65.3153 64.0482C65.3153 64.5347 64.9328 64.7845 64.3088 65.1518C63.5811 65.5803 62.618 66.1134 62.618 67.4471V67.6583C62.618 67.9442 62.8388 68.176 63.1111 68.176H64.5999C64.8722 68.176 65.093 67.9442 65.093 67.6583V67.5337C65.093 66.6092 67.6665 66.5707 67.6665 64.0688C67.6665 62.1847 65.8052 60.7555 64.0614 60.7555ZM63.8555 68.8114C63.0708 68.8114 62.4324 69.4818 62.4324 70.3057C62.4324 71.1296 63.0708 71.7999 63.8555 71.7999C64.6402 71.7999 65.2786 71.1296 65.2786 70.3057C65.2786 69.4817 64.6402 68.8114 63.8555 68.8114Z"/>
<path d="M63.6974 81.058C63.0469 81.058 62.5204 81.585 62.5204 82.235V83.7178H13.3195V17.2256H50.1377V28.6078C50.1377 28.9199 50.2618 29.2189 50.4825 29.4402C50.7031 29.6609 51.0027 29.7849 51.3148 29.7849H62.5793V50.3356C62.7012 50.871 63.1773 51.251 63.7269 51.251C64.276 51.251 64.7521 50.871 64.8745 50.3356V28.7127V28.6066V28.6071C64.8709 28.2403 64.6964 27.8967 64.4037 27.677L52.0914 15.2827C52.0011 15.1907 51.8928 15.1187 51.7735 15.0709H51.6674H51.6679C51.5691 15.0347 51.4661 15.011 51.3616 15H12.1771C11.5271 15 11 15.5271 11 16.1771V84.8229C11 85.1351 11.124 85.4346 11.3447 85.6553C11.5654 85.876 11.8649 86 12.1771 86H63.6971C64.0092 86 64.3082 85.876 64.5295 85.6553C64.7502 85.4346 64.8742 85.1351 64.8742 84.8229V82.2334C64.8742 81.9213 64.7502 81.6218 64.5295 81.4011C64.3082 81.1804 64.0092 81.0564 63.6971 81.0564L63.6974 81.058ZM52.4208 27.4663V18.8617L61.0018 27.4663H52.4208Z"/>
<path d="M28.3266 33.435C28.6388 33.435 28.9377 33.311 29.159 33.0903C29.3797 32.8691 29.5037 32.5701 29.5037 32.258V24.1715C29.5037 23.8594 29.3797 23.5599 29.159 23.3392C28.9377 23.1185 28.6388 22.9945 28.3266 22.9945H20.3579C19.7079 22.9945 19.1808 23.5215 19.1808 24.1715V32.2932C19.1808 32.6054 19.3048 32.9049 19.5255 33.1256C19.7462 33.3463 20.0458 33.4703 20.3579 33.4703L28.3266 33.435ZM21.4997 25.3134H27.1848V31.1986H21.4997V25.3134Z"/>
<path d="M48.9483 68.4639C48.9483 68.1518 48.8243 67.8523 48.6036 67.6316C48.3829 67.4109 48.0834 67.2869 47.7713 67.2869H19.522C18.9986 67.4182 18.6313 67.8885 18.6313 68.4287C18.6313 68.9684 18.9986 69.4392 19.522 69.5706H47.7713C48.395 69.5716 48.911 69.0861 48.9483 68.4639Z"/>
<path d="M19.5934 75.5962C19.0695 75.7276 18.7022 76.1984 18.7022 76.7381C18.7022 77.2783 19.0695 77.7486 19.5934 77.8799H30.9756C31.3272 77.9682 31.6997 77.8894 31.9856 77.6661C32.2714 77.4433 32.4385 77.1007 32.4385 76.7381C32.4385 76.3755 32.2714 76.0334 31.9856 75.8101C31.6997 75.5873 31.3272 75.5085 30.9756 75.5963L19.5934 75.5962Z"/>
<path d="M35.8249 25.3128H45.0296C45.6796 25.3128 46.2067 24.7858 46.2067 24.1358C46.2067 23.4853 45.6796 22.9587 45.0296 22.9587H35.8249C35.1749 22.9587 34.6479 23.4853 34.6479 24.1358C34.6479 24.7858 35.1749 25.3128 35.8249 25.3128Z"/>
<path d="M35.8246 33.104H45.0293C45.5532 32.9731 45.9205 32.5023 45.9205 31.9626C45.9205 31.4225 45.5532 30.9522 45.0293 30.8208H35.8246C35.3012 30.9521 34.9339 31.4225 34.9339 31.9626C34.9339 32.5023 35.3012 32.9731 35.8246 33.104Z"/>
<path d="M57.5888 51.9853C57.5888 51.6731 57.4648 51.3736 57.2441 51.1529C57.0234 50.9322 56.7239 50.8082 56.4117 50.8082H19.5934C19.0695 50.9396 18.7022 51.4099 18.7022 51.9501C18.7022 52.4897 19.0695 52.9605 19.5934 53.0919H56.4467C57.0568 53.0746 57.5523 52.5943 57.5886 51.9853H57.5888Z"/>
<path d="M18.4517 44.4036C18.4517 44.7157 18.5757 45.0152 18.7964 45.2359C19.0171 45.4566 19.3166 45.5806 19.6288 45.5806H56.2937C56.8176 45.4498 57.1844 44.979 57.1844 44.4393C57.1844 43.8991 56.8176 43.4288 56.2937 43.2975H19.5938C18.9837 43.3148 18.4882 43.7951 18.4519 44.4036H18.4517Z"/>
<path d="M50.0069 60.1062C50.0069 59.7941 49.8829 59.4946 49.6622 59.2739C49.4415 59.0532 49.142 58.9292 48.8299 58.9292H19.5918C19.0679 59.0606 18.7006 59.5309 18.7006 60.071C18.7006 60.6107 19.0679 61.0815 19.5918 61.2129H48.8649C49.4744 61.1955 49.9699 60.7153 50.0062 60.1062H50.0069Z"/>
</svg>
