<svg id="icon" viewBox="0 0 86 86" fill="currentColor" xmlns="http://www.w3.org/2000/svg">
<path d="M68.1562 78H22.2188C20.4141 78 18.9375 76.5234 18.9375 74.7188V59.4062C18.9375 57.6016 20.4141 56.125 22.2188 56.125H68.1562C69.9609 56.125 71.4375 57.6016 71.4375 59.4062V62.6875H76.9062C77.3438 62.6875 77.7484 62.95 77.9125 63.3656C78.0875 63.7703 77.9891 64.2406 77.6719 64.5578L71.4266 70.8031V74.7297C71.4266 76.5344 69.95 78.0109 68.1453 78.0109L68.1562 78ZM22.2188 58.3125C21.6172 58.3125 21.125 58.8047 21.125 59.4062V74.7188C21.125 75.3203 21.6172 75.8125 22.2188 75.8125H68.1562C68.7578 75.8125 69.25 75.3203 69.25 74.7188V70.3438C69.25 70.0484 69.3703 69.775 69.5672 69.5672L74.2594 64.875H70.3328C69.7313 64.875 69.2391 64.3828 69.2391 63.7812V59.4062C69.2391 58.8047 68.7469 58.3125 68.1453 58.3125H22.2188Z"/>
<path d="M46.2812 65.9688H44.0938V68.1562H46.2812V65.9688Z"/>
<path d="M50.6562 65.9688H48.4688V68.1562H50.6562V65.9688Z"/>
<path d="M41.9062 65.9688H39.7188V68.1562H41.9062V65.9688Z"/>
<path d="M68.1562 29.875H22.2188C20.4141 29.875 18.9375 28.3984 18.9375 26.5938V11.2812C18.9375 9.47656 20.4141 8 22.2188 8H68.1562C69.9609 8 71.4375 9.47656 71.4375 11.2812V14.5625H76.9062C77.3438 14.5625 77.7484 14.825 77.9125 15.2406C78.0875 15.6453 77.9891 16.1156 77.6719 16.4328L71.4266 22.6781V26.6047C71.4266 28.4094 69.95 29.8859 68.1453 29.8859L68.1562 29.875ZM22.2188 10.1875C21.6172 10.1875 21.125 10.6797 21.125 11.2812V26.5938C21.125 27.1953 21.6172 27.6875 22.2188 27.6875H68.1562C68.7578 27.6875 69.25 27.1953 69.25 26.5938V22.2188C69.25 21.9234 69.3703 21.65 69.5672 21.4422L74.2594 16.75H70.3328C69.7313 16.75 69.2391 16.2578 69.2391 15.6562V11.2812C69.2391 10.6797 68.7469 10.1875 68.1453 10.1875H22.2188Z"/>
<path d="M36.4375 15.6562H25.5V17.8438H36.4375V15.6562Z"/>
<path d="M58.3125 15.6562H38.625V17.8438H58.3125V15.6562Z"/>
<path d="M47.375 20.0312H25.5V22.2188H47.375V20.0312Z"/>
<path d="M63.7813 53.9375H17.8438C16.0391 53.9375 14.5625 52.4609 14.5625 50.6562V46.7297L8.31719 40.4953C8 40.1781 7.9125 39.7078 8.07657 39.3031C8.24063 38.8984 8.64532 38.625 9.08282 38.625H14.5516V35.3438C14.5516 33.5391 16.0281 32.0625 17.8328 32.0625H63.7703C65.575 32.0625 67.0516 33.5391 67.0516 35.3438V50.6562C67.0516 52.4609 65.575 53.9375 63.7703 53.9375H63.7813ZM11.7297 40.8125L16.4219 45.5047C16.6297 45.7125 16.7391 45.9859 16.7391 46.2812V50.6562C16.7391 51.2578 17.2313 51.75 17.8328 51.75H63.7703C64.3719 51.75 64.8641 51.2578 64.8641 50.6562V35.3438C64.8641 34.7422 64.3719 34.25 63.7703 34.25H17.8438C17.2422 34.25 16.75 34.7422 16.75 35.3438V39.7188C16.75 40.3203 16.2578 40.8125 15.6563 40.8125H11.7297Z"/>
<path d="M44.0938 39.7188H21.125V41.9062H44.0938V39.7188Z"/>
<path d="M33.1562 44.0938H21.125V46.2812H33.1562V44.0938Z"/>
<path d="M55.0312 44.0938H35.3438V46.2812H55.0312V44.0938Z"/>
</svg>