<svg id="icon" viewBox="0 0 86 86" fill="currentColor" xmlns="http://www.w3.org/2000/svg">
<path fill-rule="evenodd" clip-rule="evenodd" d="M26 11.1343C26 9.4033 27.3879 8 29.1 8H52.1C53.8121 8 55.2 9.4033 55.2 11.1343V15.1787C55.2 16.9097 53.8121 18.313 52.1 18.313H29.1C27.3879 18.313 26 16.9097 26 15.1787V11.1343ZM29.1 10.2244C28.6029 10.2244 28.2 10.6318 28.2 11.1343V15.1787C28.2 15.6812 28.6029 16.0886 29.1 16.0886H52.1C52.5971 16.0886 53 15.6812 53 15.1787V11.1343C53 10.6318 52.5971 10.2244 52.1 10.2244H29.1Z"/>
<path fill-rule="evenodd" clip-rule="evenodd" d="M22.6001 29.3007C23.4285 29.3007 24.1001 28.6291 24.1001 27.8007C24.1001 26.9722 23.4285 26.3007 22.6001 26.3007C21.7717 26.3007 21.1001 26.9722 21.1001 27.8007C21.1001 28.6291 21.7717 29.3007 22.6001 29.3007ZM29.2501 26.6508C28.615 26.6508 28.1001 27.1656 28.1001 27.8008C28.1001 28.4359 28.615 28.9508 29.2501 28.9508H57.9501C58.5852 28.9508 59.1001 28.4359 59.1001 27.8008C59.1001 27.1656 58.5852 26.6508 57.9501 26.6508H29.2501Z"/>
<path fill-rule="evenodd" clip-rule="evenodd" d="M22.6001 37.3007C23.4285 37.3007 24.1001 36.6291 24.1001 35.8007C24.1001 34.9722 23.4285 34.3007 22.6001 34.3007C21.7717 34.3007 21.1001 34.9722 21.1001 35.8007C21.1001 36.6291 21.7717 37.3007 22.6001 37.3007ZM29.2501 34.6508C28.615 34.6508 28.1001 35.1656 28.1001 35.8008C28.1001 36.4359 28.615 36.9508 29.2501 36.9508H57.9501C58.5852 36.9508 59.1001 36.4359 59.1001 35.8008C59.1001 35.1656 58.5852 34.6508 57.9501 34.6508H29.2501Z"/>
<path fill-rule="evenodd" clip-rule="evenodd" d="M22.6001 45.3007C23.4285 45.3007 24.1001 44.6291 24.1001 43.8007C24.1001 42.9722 23.4285 42.3007 22.6001 42.3007C21.7717 42.3007 21.1001 42.9722 21.1001 43.8007C21.1001 44.6291 21.7717 45.3007 22.6001 45.3007ZM29.2501 42.6508C28.615 42.6508 28.1001 43.1656 28.1001 43.8008C28.1001 44.4359 28.615 44.9508 29.2501 44.9508H57.9501C58.5852 44.9508 59.1001 44.4359 59.1001 43.8008C59.1001 43.1656 58.5852 42.6508 57.9501 42.6508H29.2501Z"/>
<path fill-rule="evenodd" clip-rule="evenodd" d="M22.6001 53.3007C23.4285 53.3007 24.1001 52.6291 24.1001 51.8007C24.1001 50.9722 23.4285 50.3007 22.6001 50.3007C21.7717 50.3007 21.1001 50.9722 21.1001 51.8007C21.1001 52.6291 21.7717 53.3007 22.6001 53.3007ZM29.2501 50.6507C28.615 50.6507 28.1001 51.1656 28.1001 51.8007C28.1001 52.4359 28.615 52.9507 29.2501 52.9507H57.9501C58.5852 52.9507 59.1001 52.4359 59.1001 51.8007C59.1001 51.1656 58.5852 50.6507 57.9501 50.6507H29.2501Z"/>
<path fill-rule="evenodd" clip-rule="evenodd" d="M22.6001 61.3007C23.4285 61.3007 24.1001 60.6291 24.1001 59.8007C24.1001 58.9722 23.4285 58.3007 22.6001 58.3007C21.7717 58.3007 21.1001 58.9722 21.1001 59.8007C21.1001 60.6291 21.7717 61.3007 22.6001 61.3007ZM29.2501 58.6507C28.615 58.6507 28.1001 59.1656 28.1001 59.8007C28.1001 60.4359 28.615 60.9507 29.2501 60.9507H57.9501C58.5852 60.9507 59.1001 60.4359 59.1001 59.8007C59.1001 59.1656 58.5852 58.6507 57.9501 58.6507H29.2501Z"/>
<path fill-rule="evenodd" clip-rule="evenodd" d="M22.6001 69.3007C23.4285 69.3007 24.1001 68.6291 24.1001 67.8007C24.1001 66.9722 23.4285 66.3007 22.6001 66.3007C21.7717 66.3007 21.1001 66.9722 21.1001 67.8007C21.1001 68.6291 21.7717 69.3007 22.6001 69.3007ZM29.2501 66.6507C28.615 66.6507 28.1001 67.1656 28.1001 67.8007C28.1001 68.4359 28.615 68.9507 29.2501 68.9507H57.9501C58.5852 68.9507 59.1001 68.4359 59.1001 67.8007C59.1001 67.1656 58.5852 66.6507 57.9501 66.6507H29.2501Z"/>
<path fill-rule="evenodd" clip-rule="evenodd" d="M24.1001 12.0442H16.1C14.3879 12.0442 13 13.4475 13 15.1786V77.8655C13 79.5966 14.3879 80.9999 16.1 80.9999H65.1C66.8121 80.9999 68.2 79.5966 68.2 77.8655V15.1786C68.2 13.4475 66.8121 12.0442 65.1 12.0442H57.1001V14.2686H65.1C65.5971 14.2686 66 14.676 66 15.1786V77.8655C66 78.3681 65.5971 78.7755 65.1 78.7755H16.1C15.6029 78.7755 15.2 78.3681 15.2 77.8655V15.1786C15.2 14.676 15.6029 14.2686 16.1 14.2686H24.1001V12.0442Z"/>
<path fill-rule="evenodd" clip-rule="evenodd" d="M18 79V82.8213C18 84.5524 19.3879 85.9557 21.1 85.9557H70.1C71.8121 85.9557 73.2 84.5524 73.2 82.8213V20.1343C73.2 18.4033 71.8121 17 70.1 17H66V19.2244H70.1C70.5971 19.2244 71 19.6318 71 20.1343V82.8213C71 83.3239 70.5971 83.7313 70.1 83.7313H21.1C20.6029 83.7313 20.2 83.3239 20.2 82.8213V79H18Z"/>
</svg>