<svg id="icon" viewBox="0 0 86 86" xmlns="http://www.w3.org/2000/svg">
<path d="M84.952 79.0686C84.5887 79.0686 35.5756 78.985 35.5469 79.0686H19.9269C19.5548 79.0568 19.1927 78.9457 18.8781 78.7472C18.5298 78.9625 18.1271 79.0743 17.7176 79.0686H2.20931C1.625 79.0724 1.06251 78.8427 0.648001 78.4306C0.23349 78.0186 0 77.458 0 76.8737V61.3517C0 60.1312 0.989477 59.1418 2.20928 59.1418H8.90775C8.90026 59.0119 8.90026 58.8808 8.90775 58.7504V43.8021C8.9115 43.1416 9.17682 42.5098 9.64627 42.046C10.1157 41.5816 10.7506 41.3231 11.4105 41.3269H14.3889L14.3896 28.154C14.3858 27.0727 14.6836 26.0121 15.2492 25.0907C15.8148 24.1692 16.6257 23.4238 17.5914 22.9381L45.2378 8.70278C47.0881 7.76574 49.2744 7.76574 51.1247 8.70278L78.7982 22.91C79.7615 23.405 80.5693 24.1567 81.1319 25.0825C81.6943 26.0077 81.9902 27.0708 81.9865 28.154V76.971H84.9512C85.5305 76.971 86 77.4411 86 78.0198C86 78.5991 85.5305 79.0686 84.9512 79.0686L84.952 79.0686ZM20.0113 61.2541C19.9632 61.261 19.927 61.3028 19.9276 61.3521V76.8741C19.9276 76.9022 19.9395 76.9297 19.9613 76.9484C19.9825 76.9671 20.0113 76.9759 20.0394 76.9715H35.6312C35.7292 76.9715 35.6312 61.4358 35.6312 61.3797C35.6312 61.3179 35.5813 61.2679 35.5195 61.2679H31.3243V66.3302C31.2931 66.8608 30.9641 67.3284 30.4747 67.5357C29.9853 67.7436 29.4203 67.6555 29.017 67.3091L27.8565 66.1342L26.6816 67.3228C26.2795 67.7067 25.6877 67.8153 25.1752 67.6C24.6627 67.3846 24.3262 66.8864 24.3187 66.3302V61.2542L20.0113 61.2541ZM2.2095 61.2541C2.1477 61.2541 2.09776 61.304 2.09776 61.3658V76.8878C2.09776 76.9166 2.10962 76.9434 2.13147 76.9628C2.15269 76.9815 2.18141 76.9896 2.2095 76.9859H17.7178C17.7459 76.9896 17.7746 76.9815 17.7958 76.9628C17.8176 76.9434 17.8295 76.9166 17.8295 76.8878V61.3521C17.8301 61.3028 17.7939 61.261 17.7459 61.2541H13.5507V66.302C13.5376 66.8557 13.1993 67.3495 12.6874 67.5612C12.1761 67.7728 11.588 67.6629 11.1872 67.2809L10.0267 66.106L8.79625 67.3089C8.3936 67.6929 7.80177 67.8015 7.28924 67.5861C6.77672 67.3708 6.44023 66.8719 6.43273 66.3164V61.2397L2.2095 61.2541ZM37.7571 76.9441H73.1081V51.1995H49.2238V56.6113C50.3469 56.9497 51.2378 57.8093 51.6167 58.9192C51.995 60.0298 51.8146 61.2546 51.1316 62.2085C50.4493 63.1624 49.3481 63.728 48.1751 63.728C47.002 63.728 45.9009 63.1624 45.2185 62.2085C44.5355 61.2546 44.3551 60.0298 44.7334 58.9192C45.1124 57.8093 46.0032 56.9497 47.1263 56.6113V51.1995H28.8084V58.7508C28.8227 58.8812 28.8227 59.0123 28.8084 59.1422H35.5906C36.1768 59.1422 36.7386 59.375 37.1531 59.7896C37.567 60.2041 37.7999 60.7659 37.7999 61.3521L37.7571 76.9441ZM75.2049 76.9441H79.8758V28.1542C79.8795 27.4588 79.6891 26.7765 79.3258 26.1834C78.9625 25.5904 78.4412 25.1109 77.8201 24.7981L50.1737 10.5765C48.9283 9.9323 47.4481 9.9323 46.2026 10.5765L18.5147 24.8119C17.8904 25.1196 17.3642 25.5953 16.9965 26.1859C16.6281 26.7765 16.4321 27.4582 16.4309 28.1542V41.299H21.1018V32.4329C21.1018 31.8542 21.5712 31.3841 22.1506 31.3841H74.1287H74.1281C74.6681 31.3966 75.1138 31.8111 75.1631 32.3493L75.2049 76.9441ZM26.3599 61.2542V64.5965C26.7376 64.1907 27.1989 63.6739 27.7583 63.7157C28.3176 63.7575 28.8208 64.177 29.1567 64.5828V61.2398H26.3599V61.2542ZM8.53098 61.2542V64.6103C8.90867 64.2045 9.37 63.6876 9.92935 63.7294C10.4887 63.7713 10.9919 64.1908 11.3277 64.5965V61.2542L8.53098 61.2542ZM48.1746 58.5554C47.325 58.5554 46.6364 59.244 46.6364 60.0936C46.6364 60.9426 47.325 61.6318 48.1746 61.6318C49.0243 61.6318 49.7128 60.9426 49.7128 60.0936C49.7128 59.244 49.0243 58.5554 48.1746 58.5554ZM17.829 59.1566H26.3454C26.5364 59.1228 26.6769 58.9587 26.6806 58.7651V43.8025C26.6731 43.5915 26.5002 43.4248 26.2892 43.4248H22.3875V48.4727C22.38 49.0321 22.0391 49.5333 21.5222 49.7462C21.0047 49.9591 20.4098 49.8436 20.0102 49.4516L18.8497 48.2767L17.6748 49.4653L17.6754 49.4659C17.2728 49.8492 16.681 49.9585 16.1684 49.7431C15.6559 49.5277 15.3194 49.0289 15.3119 48.4727V43.4248H11.3827C11.2785 43.4211 11.1773 43.4585 11.1012 43.5297C11.0256 43.6002 10.9807 43.6982 10.9769 43.8025V58.7507C10.9682 58.9493 11.1149 59.1203 11.3128 59.1422H17.8289L17.829 59.1566ZM48.1746 49.1301H73.1073V45.2982H28.8067V49.1301H48.1746ZM17.4101 43.383V46.7254C17.7878 46.3196 18.2491 45.8027 18.8085 45.8445C19.3678 45.8863 19.8572 46.3059 20.2068 46.7116V43.4249L17.4101 43.383ZM28.7232 43.1595L73.1069 43.1589V39.3414H23.2272V41.2854H26.318C26.8761 41.2866 27.4173 41.4764 27.8543 41.8241C28.2907 42.1719 28.5972 42.6569 28.7233 43.2007L28.7232 43.1595ZM23.2276 37.2445L73.1074 37.2438V33.482H23.2276V37.2445ZM48.1747 26.756C46.1665 26.6573 44.3516 25.5293 43.3753 23.7713C42.3983 22.014 42.3983 19.8771 43.3753 18.1198C44.3517 16.3624 46.1665 15.2337 48.1747 15.1357C50.183 15.2337 51.9978 16.3624 52.9741 18.1198C53.9511 19.8771 53.9511 22.014 52.9741 23.7713C51.9978 25.5292 50.183 26.6574 48.1747 26.756ZM48.1747 17.2333C46.9025 17.3113 45.7588 18.0354 45.1438 19.1523C44.5296 20.2691 44.5296 21.6226 45.1438 22.7394C45.7588 23.8562 46.9024 24.5804 48.1747 24.6584C49.5063 24.6584 50.7361 23.948 51.4022 22.795C52.0677 21.6419 52.0677 20.2216 51.4022 19.0687C50.7361 17.9157 49.5063 17.2053 48.1747 17.2053V17.2333Z"/>
</svg>
