<svg id="icon" viewBox="0 0 86 86" fill="currentColor" xmlns="http://www.w3.org/2000/svg">
<path d="M29.0019 41.9966C19.0736 41.9966 11 33.9231 11 24.0017C11 14.0803 19.0736 6 29.0019 6C38.9303 6 47.0039 14.0735 47.0039 24.0017C47.0039 33.9299 38.9303 42.0034 29.0019 42.0034V41.9966ZM29.0019 8.25021C20.3146 8.25021 13.2502 15.3145 13.2502 24.0017C13.2502 32.6889 20.3146 39.7532 29.0019 39.7532C37.6893 39.7532 44.7537 32.6889 44.7537 24.0017C44.7537 15.3145 37.6824 8.25021 29.0019 8.25021Z"/>
<path d="M29.002 68.9991C25.8993 68.9991 23.3763 66.4762 23.3763 63.3736V40.8715H25.6266V63.3736C25.6266 65.2352 27.1404 66.7489 29.002 66.7489C30.8635 66.7489 32.3773 65.2352 32.3773 63.3736V40.8715H34.6276V63.3736C34.6276 66.4762 32.1046 68.9991 29.002 68.9991Z"/>
<path d="M30.1271 50.9974H27.8768V53.2477H30.1271V50.9974Z"/>
<path d="M30.1271 55.4979H27.8768V57.7481H30.1271V55.4979Z"/>
<path d="M30.1271 59.9983H27.8768V62.2485H30.1271V59.9983Z"/>
<path d="M63.2125 78H27.8768V71.2494H30.1271V75.7498H62.2851L71.7498 66.2853V15.0009H46.9971V12.7506H74V67.2126L63.2125 78Z"/>
<path d="M63.8739 76.8749H61.6237V65.6238H72.8749V67.874H63.8739V76.8749Z"/>
<path d="M38.0029 33.0026H20.001V15.0009H33.5024V17.2511H22.2512V30.7523H35.7527V24.0017H38.0029V33.0026Z"/>
<path d="M29.002 27.8407L24.8288 23.6676L26.4176 22.0788L29.002 24.6563L36.08 17.5784L37.6688 19.1672L29.002 27.8407Z"/>
<path d="M43.6217 49.8723H36.871V43.1217H43.6217V49.8723ZM39.1212 47.6221H41.3715V45.3719H39.1212V47.6221Z"/>
<path d="M43.6217 58.8732H36.871V52.1226H43.6217V58.8732ZM39.1212 56.623H41.3715V54.3728H39.1212V56.623Z"/>
<path d="M43.6217 67.874H36.871V61.1234H43.6217V67.874ZM39.1212 65.6238H41.3715V63.3736H39.1212V65.6238Z"/>
<path d="M67.2493 43.1217H45.8719V45.3719H67.2493V43.1217Z"/>
<path d="M67.2493 47.6221H45.8719V49.8723H67.2493V47.6221Z"/>
<path d="M67.2493 52.1226H45.8719V54.3728H67.2493V52.1226Z"/>
<path d="M67.2493 56.623H45.8719V58.8732H67.2493V56.623Z"/>
<path d="M57.1232 65.6238H45.8719V67.874H57.1232V65.6238Z"/>
<path d="M67.2493 61.1234H45.8719V63.3736H67.2493V61.1234Z"/>
<path d="M67.2493 38.6213H45.8719V36.3779H64.999V27.377H49.2473V25.1268H67.2493V38.6213Z"/>
<path d="M67.2493 20.6264H64.999V22.8766H67.2493V20.6264Z"/>
<path d="M62.7488 20.6264H60.4985V22.8766H62.7488V20.6264Z"/>
<path d="M58.2483 20.6264H55.998V22.8766H58.2483V20.6264Z"/>
</svg>