<svg id="icon" viewBox="0 0 86 86" fill="currentColor" xmlns="http://www.w3.org/2000/svg">
<path d="M85.1254 84.2542H78.0922V75.1713C81.9317 74.7318 84.9347 71.5055 84.9347 67.5583V61.9199C84.9347 57.6726 81.4733 54.218 77.2177 54.218C76.2854 54.218 75.4022 54.4082 74.5731 54.7136V27.9741C74.5731 27.4924 74.1811 27.1012 73.6985 27.1012H64.4844V19.7577C64.4844 19.4156 64.283 19.1046 63.9699 18.9636L22.2213 0.0784811C21.9535 -0.043871 21.6388 -0.0228293 21.3874 0.139268C21.1352 0.299807 20.9868 0.575684 20.9868 0.872607V31.1733H11.5994C11.1168 31.1733 10.7249 31.5646 10.7249 32.0462V37.0751C10.7249 37.5567 11.1168 37.9479 11.5994 37.9479C12.082 37.9479 12.474 37.5567 12.474 37.0751V32.919H20.9868V84.2553H12.474V69.0889C14.2652 67.6768 15.4388 65.5174 15.4388 63.0679L15.4381 57.4319C15.4381 54.9826 14.2644 52.8215 12.4732 51.4092V32.4843C12.4732 32.0027 12.0812 31.6115 11.5986 31.6115C11.1161 31.6115 10.7241 32.0027 10.7241 32.4843V50.3379C9.80034 49.9451 8.78446 49.7285 7.71703 49.7285C3.46142 49.7285 0 53.1831 0 57.432V63.0688C0 67.0175 3.00306 70.2415 6.84248 70.6818V84.2543H2.09412C1.61155 84.2543 1.21957 84.6455 1.21957 85.1272C1.21957 85.6088 1.61155 86 2.09412 86H85.1255C85.608 86 86 85.6088 86 85.1272C86 84.6455 85.608 84.2559 85.1255 84.2559L85.1254 84.2542ZM76.3431 75.1721V84.255H74.573V74.7654C75.1344 74.9711 75.7278 75.102 76.3431 75.1721ZM83.1856 61.9191V67.5575C83.1856 70.8431 80.5096 73.5137 77.2177 73.5137C73.9258 73.5137 71.2498 70.8429 71.2498 67.5575V61.9191C71.2498 58.6334 73.9258 55.9629 77.2177 55.9629C80.5096 55.9629 83.1856 58.6336 83.1856 61.9191ZM1.74948 63.0678V57.431C1.74948 54.1453 4.42551 51.4732 7.71741 51.4732C11.0111 51.4732 13.6885 54.1455 13.6885 57.431V63.0678C13.6885 66.3534 11.0109 69.024 7.71741 69.024C4.42531 69.0232 1.74948 66.3524 1.74948 63.0678ZM8.59196 70.6817C9.3369 70.5959 10.0592 70.4424 10.7245 70.1611V84.2543H8.59196V70.6817ZM52.1796 73.8839V84.2549H43.609V73.8839H52.1796ZM30.3408 72.1382V70.4697H55.8137V72.1382H30.3408ZM41.8607 73.8839V84.2549H33.1729V73.8839H41.8607ZM53.9295 84.2542V73.8831H56.6898C57.1724 73.8831 57.5644 73.4919 57.5644 73.0103V69.5962C57.5644 69.1145 57.1724 68.7233 56.6898 68.7233H29.4658C28.9833 68.7233 28.5913 69.1145 28.5913 69.5962V73.0103C28.5913 73.4919 28.9833 73.8831 29.4658 73.8831H31.4234V84.2542H22.7357L22.7349 2.22613L62.7364 20.3202V53.9105C62.7364 54.3921 63.1283 54.7834 63.6109 54.7834C64.0935 54.7834 64.4855 54.3921 64.4855 53.9105V28.8448H72.825V55.5983C70.8206 56.9917 69.5017 59.2993 69.5017 61.9162V67.5546C69.5017 70.1715 70.8221 72.4792 72.825 73.8725V84.2508H64.4855V59.0035C64.4855 58.5218 64.0935 58.1306 63.6109 58.1306C63.1283 58.1306 62.7364 58.5218 62.7364 59.0035V84.2528L53.9295 84.2542Z" stroke-width="0.3"/>
<path d="M29.466 23.5031C28.9834 23.5031 28.5914 23.8943 28.5914 24.3759V31.5683C28.5914 32.0499 28.9834 32.4411 29.466 32.4411H37.7416C38.2242 32.4411 38.6162 32.0499 38.6162 31.5683V24.3759C38.6162 23.8943 38.2242 23.5031 37.7416 23.5031H29.466ZM36.8649 30.6955H30.3383V25.2488H36.8649V30.6955Z" stroke-width="0.3"/>
<path d="M41.4018 23.5031C40.9192 23.5031 40.5273 23.8943 40.5273 24.3759V31.5683C40.5273 32.0499 40.9192 32.4411 41.4018 32.4411H56.6893C57.1719 32.4411 57.5639 32.0499 57.5639 31.5683V24.3759C57.5639 23.8943 57.1719 23.5031 56.6893 23.5031H41.4018ZM55.814 30.6955H42.2756V25.2488H55.814V30.6955Z" stroke-width="0.3"/>
<path d="M37.7393 49.4328C38.2219 49.4328 38.6138 49.0416 38.6138 48.5599V41.3676C38.6138 40.886 38.2219 40.4948 37.7393 40.4948H29.4637C28.9811 40.4948 28.5891 40.886 28.5891 41.3676V48.5599C28.5891 49.0416 28.9811 49.4328 29.4637 49.4328H37.7393ZM30.3404 42.2404H36.8669V47.6871H30.3404V42.2404Z" stroke-width="0.3"/>
<path d="M56.6901 49.4328C57.1727 49.4328 57.5647 49.0416 57.5647 48.5599V41.3676C57.5647 40.886 57.1727 40.4948 56.6901 40.4948H41.4026C40.92 40.4948 40.528 40.886 40.528 41.3676V48.5599C40.528 49.0416 40.92 49.4328 41.4026 49.4328H56.6901ZM42.2779 42.2404H55.8164V47.6871H42.2779V42.2404Z" stroke-width="0.3"/>
<path d="M38.0452 55.9865H29.7663C29.2838 55.9865 28.8918 56.3777 28.8918 56.8593V64.0517C28.8918 64.5333 29.2838 64.9245 29.7663 64.9245H38.0452C38.5277 64.9245 38.9197 64.5333 38.9197 64.0517V56.8593C38.9197 56.3754 38.5301 55.9865 38.0452 55.9865ZM37.1706 63.1788H30.6409V57.7322H37.1706V63.1788Z" stroke-width="0.3"/>
<path d="M56.9897 55.9865H41.7022C41.2196 55.9865 40.8276 56.3777 40.8276 56.8593V64.0517C40.8276 64.5333 41.2196 64.9245 41.7022 64.9245H56.9897C57.4723 64.9245 57.8643 64.5333 57.8643 64.0517V56.8593C57.8643 56.3754 57.4723 55.9865 56.9897 55.9865ZM56.1152 63.1788H42.5767V57.7322H56.1152V63.1788Z" stroke-width="0.3"/>
</svg>