<svg id="icon" viewBox="0 0 86 86" fill="currentColor" xmlns="http://www.w3.org/2000/svg">
<path fill-rule="evenodd" clip-rule="evenodd" d="M28 16.1343C28 14.4033 29.3879 13 31.1 13H54.1C55.8121 13 57.2 14.4033 57.2 16.1343V20.1787C57.2 21.9097 55.8121 23.313 54.1 23.313H31.1C29.3879 23.313 28 21.9097 28 20.1787V16.1343ZM31.1 15.2244C30.6029 15.2244 30.2 15.6318 30.2 16.1343V20.1787C30.2 20.6812 30.6029 21.0886 31.1 21.0886H54.1C54.5971 21.0886 55 20.6812 55 20.1787V16.1343C55 15.6318 54.5971 15.2244 54.1 15.2244H31.1Z"/>
<path fill-rule="evenodd" clip-rule="evenodd" d="M24.6001 34.3007C25.4285 34.3007 26.1001 33.6291 26.1001 32.8007C26.1001 31.9722 25.4285 31.3007 24.6001 31.3007C23.7717 31.3007 23.1001 31.9722 23.1001 32.8007C23.1001 33.6291 23.7717 34.3007 24.6001 34.3007ZM31.2501 31.6508C30.615 31.6508 30.1001 32.1656 30.1001 32.8008C30.1001 33.4359 30.615 33.9508 31.2501 33.9508H59.9501C60.5852 33.9508 61.1001 33.4359 61.1001 32.8008C61.1001 32.1656 60.5852 31.6508 59.9501 31.6508H31.2501Z"/>
<path fill-rule="evenodd" clip-rule="evenodd" d="M24.6001 42.3007C25.4285 42.3007 26.1001 41.6291 26.1001 40.8007C26.1001 39.9722 25.4285 39.3007 24.6001 39.3007C23.7717 39.3007 23.1001 39.9722 23.1001 40.8007C23.1001 41.6291 23.7717 42.3007 24.6001 42.3007ZM31.2501 39.6508C30.615 39.6508 30.1001 40.1656 30.1001 40.8008C30.1001 41.4359 30.615 41.9508 31.2501 41.9508H59.9501C60.5852 41.9508 61.1001 41.4359 61.1001 40.8008C61.1001 40.1656 60.5852 39.6508 59.9501 39.6508H31.2501Z"/>
<path fill-rule="evenodd" clip-rule="evenodd" d="M24.6001 50.3007C25.4285 50.3007 26.1001 49.6291 26.1001 48.8007C26.1001 47.9722 25.4285 47.3007 24.6001 47.3007C23.7717 47.3007 23.1001 47.9722 23.1001 48.8007C23.1001 49.6291 23.7717 50.3007 24.6001 50.3007ZM31.2501 47.6508C30.615 47.6508 30.1001 48.1656 30.1001 48.8008C30.1001 49.4359 30.615 49.9508 31.2501 49.9508H59.9501C60.5852 49.9508 61.1001 49.4359 61.1001 48.8008C61.1001 48.1656 60.5852 47.6508 59.9501 47.6508H31.2501Z"/>
<path fill-rule="evenodd" clip-rule="evenodd" d="M24.6001 58.3007C25.4285 58.3007 26.1001 57.6291 26.1001 56.8007C26.1001 55.9722 25.4285 55.3007 24.6001 55.3007C23.7717 55.3007 23.1001 55.9722 23.1001 56.8007C23.1001 57.6291 23.7717 58.3007 24.6001 58.3007ZM31.2501 55.6507C30.615 55.6507 30.1001 56.1656 30.1001 56.8007C30.1001 57.4359 30.615 57.9507 31.2501 57.9507H59.9501C60.5852 57.9507 61.1001 57.4359 61.1001 56.8007C61.1001 56.1656 60.5852 55.6507 59.9501 55.6507H31.2501Z"/>
<path fill-rule="evenodd" clip-rule="evenodd" d="M24.6001 66.3007C25.4285 66.3007 26.1001 65.6291 26.1001 64.8007C26.1001 63.9722 25.4285 63.3007 24.6001 63.3007C23.7717 63.3007 23.1001 63.9722 23.1001 64.8007C23.1001 65.6291 23.7717 66.3007 24.6001 66.3007ZM31.2501 63.6507C30.615 63.6507 30.1001 64.1656 30.1001 64.8007C30.1001 65.4359 30.615 65.9507 31.2501 65.9507H59.9501C60.5852 65.9507 61.1001 65.4359 61.1001 64.8007C61.1001 64.1656 60.5852 63.6507 59.9501 63.6507H31.2501Z"/>
<path fill-rule="evenodd" clip-rule="evenodd" d="M24.6001 74.3007C25.4285 74.3007 26.1001 73.6291 26.1001 72.8007C26.1001 71.9722 25.4285 71.3007 24.6001 71.3007C23.7717 71.3007 23.1001 71.9722 23.1001 72.8007C23.1001 73.6291 23.7717 74.3007 24.6001 74.3007ZM31.2501 71.6507C30.615 71.6507 30.1001 72.1656 30.1001 72.8007C30.1001 73.4359 30.615 73.9507 31.2501 73.9507H59.9501C60.5852 73.9507 61.1001 73.4359 61.1001 72.8007C61.1001 72.1656 60.5852 71.6507 59.9501 71.6507H31.2501Z"/>
<path fill-rule="evenodd" clip-rule="evenodd" d="M26.1001 17.0442H18.1C16.3879 17.0442 15 18.4475 15 20.1786V82.8655C15 84.5966 16.3879 85.9999 18.1 85.9999H67.1C68.8121 85.9999 70.2 84.5966 70.2 82.8655V20.1786C70.2 18.4475 68.8121 17.0442 67.1 17.0442H59.1001V19.2686H67.1C67.5971 19.2686 68 19.676 68 20.1786V82.8655C68 83.3681 67.5971 83.7755 67.1 83.7755H18.1C17.6029 83.7755 17.2 83.3681 17.2 82.8655V20.1786C17.2 19.676 17.6029 19.2686 18.1 19.2686H26.1001V17.0442Z"/>
</svg>