<svg id="icon" viewBox="0 0 86 86" fill="currentColor" xmlns="http://www.w3.org/2000/svg">
<path fill-rule="evenodd" clip-rule="evenodd" d="M78.1595 55.3884C79.2666 57.1084 79.8342 59.0621 79.8342 61.2311L79.8333 61.231L79.8322 72.973H71.1229C70.6568 75.8197 68.1863 78 65.2091 78C62.2335 78 59.7625 75.8196 59.2952 72.973H55.7289V72.9358H23.8806C23.2812 75.6151 20.8861 77.626 18.0282 77.626C15.1693 77.626 12.7753 75.6157 12.1753 72.9358H7V53.6346H9.3206V62.1436L12.4208 62.1441V43.5805H23.3124V23.0348L28.466 19.8698C28.2664 19.0142 28.1536 18.2491 28.1536 17.6313C28.1536 12.3206 32.4742 8 37.7849 8C42.7057 8 46.7694 11.7109 47.3413 16.4789L60.662 23.5183L75.8389 11.656V11.6187H78.1595V55.3884ZM74.182 33.0034C74.7242 32.6489 75.2788 32.2701 75.8389 31.8801L75.8385 14.7374L61.9392 25.4624L61.9387 46.6738H64.9785C68.3085 46.6738 70.7456 47.5677 72.6508 49.4853L75.8384 52.6939V34.6841C75.7771 34.7245 75.7146 34.7675 75.6523 34.8104L75.652 34.8106L75.6517 34.8108C75.5852 34.8567 75.5188 34.9024 75.4542 34.9447L74.182 33.0034ZM54.1758 62.1441H55.7296L55.7291 46.6735H59.6192V41.623C58.9977 41.7055 58.3799 41.7702 57.7788 41.7983L57.6699 39.481C58.3049 39.4519 58.9593 39.3812 59.6192 39.283V25.5922L47.2708 19.0653C46.4225 23.8754 42.0065 32.7471 38.7131 34.2864V49.7686H41.0337V55.9555H54.1758V62.1441ZM38.713 55.9555V52.0886H27.8904V55.9555H38.713ZM38.713 58.2761H27.8904V62.1441H38.713V58.2761ZM51.8552 58.2761H41.0336V62.1441H51.8552V58.2761ZM45.0968 17.6308C45.0968 13.5993 41.8168 10.32 37.7849 10.32C33.7534 10.32 30.4736 13.5998 30.4741 17.6308C30.4741 21.9227 35.9921 31.6009 37.7849 32.1944C39.579 31.6019 45.0968 21.9228 45.0968 17.6308ZM29.1389 22.1792L25.6323 24.3325V43.5818H27.8839V49.7698H36.3925V34.0308C33.807 32.3549 30.6944 26.7172 29.1389 22.1792ZM25.5637 45.9017H14.7411V49.7691H25.5637V45.9017ZM25.5637 52.0897H14.7411V55.9566H25.5637V52.0897ZM25.5637 58.2772H14.7411V62.1452H25.5637V58.2772ZM14.3479 71.6265C14.3479 73.6562 15.9994 75.3077 18.0291 75.3077L18.0291 75.3078C20.0562 75.3078 21.7061 73.6596 21.7109 71.6325V71.6271C21.7109 69.5984 20.0594 67.9469 18.0297 67.9469C18.0197 67.9469 18.01 67.9484 18.0004 67.9499L18.0003 67.9499C17.9917 67.9512 17.9833 67.9525 17.9747 67.9528C17.7416 67.956 17.5107 67.9765 17.2873 68.0224C17.1121 68.0585 16.948 68.1184 16.7833 68.1786L16.7677 68.1843C16.7435 68.1928 16.719 68.1997 16.6946 68.2066L16.6945 68.2066L16.6944 68.2066C16.66 68.2163 16.6259 68.226 16.5934 68.2398C16.4775 68.2879 16.3712 68.3507 16.2644 68.4139L16.2347 68.4315L16.1926 68.4562C16.1624 68.4737 16.1317 68.49 16.101 68.5062C16.0503 68.5331 15.9996 68.5599 15.9519 68.5922C15.8792 68.6419 15.8137 68.6996 15.7481 68.7574C15.7213 68.7811 15.6944 68.8048 15.667 68.8279C15.6451 68.8465 15.6229 68.8649 15.6007 68.8832C15.5275 68.9438 15.4542 69.0044 15.3876 69.074C14.7471 69.7369 14.3479 70.6348 14.3479 71.6265ZM23.9324 70.5604C23.9369 70.5788 23.9414 70.5973 23.9446 70.6164L23.9448 70.6153H55.7296V69.1056H24.7901V66.785H55.7296V64.4644H9.32043V66.785H11.7398V69.1056H9.32043V70.6153L11.9809 70.6147C12.2102 69.4429 12.7864 68.367 13.66 67.5086C13.6736 67.4938 13.6883 67.4801 13.7031 67.4662L13.7031 67.4662C13.7168 67.4533 13.7306 67.4404 13.7436 67.4266C13.7704 67.4006 13.7974 67.3748 13.8245 67.3489L13.8661 67.309C13.9761 67.2033 14.0873 67.0997 14.2049 67.002C14.2091 66.9984 14.2136 66.995 14.2183 66.9914C14.2221 66.9886 14.2259 66.9857 14.2297 66.9826C14.3711 66.8655 14.5173 66.756 14.6689 66.6529C14.6705 66.6517 14.6721 66.6506 14.6738 66.6495L14.6772 66.6474C14.6804 66.6455 14.6836 66.6436 14.6867 66.6411C14.8383 66.5396 14.9932 66.4447 15.1539 66.3578C15.1795 66.3439 15.2055 66.3314 15.2316 66.3188L15.2317 66.3188L15.2317 66.3188L15.2317 66.3187L15.2318 66.3187L15.2318 66.3187L15.2319 66.3187L15.2319 66.3186L15.2322 66.3185L15.2325 66.3183L15.2327 66.3182L15.2329 66.3181L15.2331 66.3181L15.2332 66.318C15.2512 66.3093 15.2693 66.3006 15.2872 66.2914C15.4124 66.2272 15.537 66.1641 15.667 66.1091C15.7717 66.0637 15.8797 66.0259 15.9873 65.9883L16.0291 65.9736C16.0525 65.9652 16.0756 65.9562 16.0987 65.9472L16.0989 65.9471C16.1366 65.9324 16.1743 65.9177 16.2131 65.9057C16.7817 65.7255 17.3849 65.6262 18.0124 65.6256L18.0186 65.6254L18.0248 65.6251H18.0253H18.0286C18.2244 65.6251 18.417 65.6359 18.608 65.6542C18.6495 65.6587 18.6899 65.6647 18.7303 65.6707C18.7535 65.6741 18.7767 65.6775 18.8001 65.6807C18.9258 65.6969 19.0515 65.7141 19.1751 65.7379C19.2305 65.7482 19.2844 65.7615 19.3387 65.7749L19.3968 65.7891C19.5069 65.8145 19.6159 65.8409 19.7233 65.8728C19.785 65.8913 19.8449 65.9116 19.9051 65.9319L19.9504 65.9472C20.0524 65.9817 20.1538 66.0179 20.2536 66.0584C20.3286 66.0886 20.4015 66.1204 20.4748 66.1528C20.572 66.197 20.6664 66.2429 20.7597 66.2914C20.8309 66.3276 20.9011 66.3648 20.9707 66.4042C21.0646 66.4571 21.1541 66.5126 21.2431 66.5698C21.2624 66.5823 21.2818 66.5946 21.3011 66.6069L21.3012 66.607L21.3013 66.6071L21.3014 66.6071L21.3015 66.6072L21.3016 66.6073L21.3016 66.6073L21.3018 66.6074L21.3019 66.6074C21.3482 66.6369 21.3942 66.6662 21.439 66.6977C21.5297 66.7603 21.6171 66.8277 21.7045 66.8957L21.7476 66.9285C21.7915 66.9618 21.8352 66.995 21.8771 67.0311C21.9689 67.1069 22.0562 67.1896 22.1428 67.2716L22.155 67.2831L22.1884 67.3133C22.2197 67.3413 22.251 67.3695 22.2812 67.3997C22.4091 67.528 22.531 67.6619 22.6465 67.8011C22.6649 67.8236 22.6821 67.8468 22.6993 67.8701L22.7196 67.8973L22.7371 67.9203C22.8197 68.025 22.9006 68.1291 22.9762 68.2392C23.0021 68.2772 23.0262 68.3162 23.0504 68.3554C23.064 68.3775 23.0776 68.3996 23.0916 68.4215C23.152 68.5149 23.2114 68.6093 23.2664 68.707C23.2956 68.7596 23.3226 68.8128 23.3495 68.8659L23.3496 68.866L23.3749 68.9158C23.424 69.0107 23.4704 69.1062 23.5135 69.2028C23.5464 69.2778 23.5767 69.3528 23.6069 69.4294C23.6457 69.5265 23.6819 69.6252 23.7153 69.7251C23.7418 69.8033 23.7671 69.8821 23.7898 69.9619C23.82 70.0633 23.8459 70.1659 23.8696 70.2705C23.888 70.3515 23.9063 70.4324 23.922 70.5144C23.9249 70.5299 23.9286 70.5451 23.9324 70.5604ZM61.5312 71.9992C61.5312 74.029 63.1827 75.6805 65.2115 75.6805L65.2114 75.6804C67.2411 75.6804 68.8926 74.0289 68.8926 71.9992C68.8926 69.9695 67.2411 68.3179 65.2114 68.3179C63.7217 68.3179 62.4414 69.2131 61.8636 70.4891C61.835 70.5513 61.8112 70.6146 61.7873 70.6783L61.7832 70.6892C61.726 70.8382 61.678 70.9903 61.6402 71.1473C61.6377 71.1581 61.635 71.1688 61.6322 71.1794L61.6229 71.2146L61.6229 71.2147L61.6229 71.2147L61.6229 71.2148L61.6228 71.2149L61.6228 71.215C61.6149 71.2447 61.607 71.2742 61.6008 71.3038C61.5576 71.5299 61.5312 71.7602 61.5312 71.9992ZM65.3377 65.7799C68.2518 65.7799 70.6879 67.8797 71.2268 70.6535L77.5146 70.6531V69.1062H72.7466V66.7857H77.5146V61.2322C77.5146 60.7482 77.4704 60.2815 77.4002 59.8246H61.9181V50.5503H64.2387V57.504L76.6832 57.5045C76.2748 56.6574 75.725 55.8713 75.015 55.1575L71.0067 51.1223C69.5456 49.652 67.688 48.9959 64.9805 48.9959H58.0507V70.6535H59.3634C59.3785 70.5882 59.3973 70.5242 59.4161 70.4603L59.4162 70.4601C59.4235 70.4354 59.4307 70.4107 59.4378 70.3859C59.4444 70.3622 59.4506 70.3383 59.4569 70.3143L59.4569 70.3142C59.4686 70.2693 59.4804 70.2242 59.4945 70.1803C59.5425 70.0292 59.5981 69.8819 59.6569 69.7363C59.6618 69.7245 59.6659 69.7128 59.6699 69.7013L59.6699 69.7012C59.6728 69.6929 59.6757 69.6848 59.6787 69.6768C59.6809 69.6714 59.6831 69.666 59.6855 69.6607C59.7594 69.4843 59.8435 69.3127 59.9347 69.1438L59.9378 69.1379L59.9426 69.1299C59.9454 69.1253 59.9483 69.1205 59.9509 69.1152C60.027 68.9793 60.1058 68.8439 60.1916 68.7122C61.2334 66.9232 63.2184 65.7799 65.3377 65.7799ZM65.7841 61.3693H61.99V63.6899H65.7841V61.3693ZM42.576 17.6303C42.576 14.9887 40.427 12.8402 37.7859 12.8402C35.1443 12.8402 32.9947 14.9892 32.9947 17.6303C32.9947 20.2724 35.1442 22.4214 37.7859 22.4214C40.4276 22.4214 42.576 20.2724 42.576 17.6303ZM35.3149 17.6303C35.3149 16.2679 36.4231 15.1608 37.7855 15.1608C39.1478 15.1608 40.255 16.269 40.255 17.6303C40.255 18.9931 39.1468 20.1008 37.7855 20.1008C36.4232 20.1008 35.3149 18.9932 35.3149 17.6303ZM55.3165 41.7572C54.4889 41.6897 53.665 41.5662 52.8691 41.3897L53.372 39.1242C54.0642 39.2785 54.7813 39.3859 55.5038 39.4447L55.3165 41.7572ZM48.2453 39.6854C48.9871 40.0723 49.7436 40.41 50.4935 40.6884L51.3017 38.5125C50.6413 38.268 49.9739 37.9697 49.3179 37.6271L48.2453 39.6854ZM40.5899 34.0379L42.0833 32.2612L42.0833 32.2612C42.3822 32.5131 42.6865 32.7716 42.9957 33.036L43.8541 33.766L42.3579 35.5394L41.4887 34.8008C41.1844 34.5408 40.8855 34.2856 40.5899 34.0379ZM44.1928 37.0361C44.8775 37.5665 45.5163 38.0262 46.146 38.4433L47.4253 36.5079C46.8437 36.1238 46.2512 35.6959 45.6146 35.2022L44.1928 37.0361ZM72.2538 34.2201L73.4575 36.2034L73.4576 36.2034C72.7599 36.6275 72.0769 37.0219 71.4084 37.3915L70.2878 35.3596C70.9287 35.0062 71.5842 34.6253 72.2538 34.2201ZM62.5915 41.0444C63.3442 40.8485 64.1205 40.6128 64.8986 40.3435L64.14 38.1514C63.4191 38.4007 62.7027 38.6186 62.0099 38.7978L62.5915 41.0444ZM68.2812 36.4061L69.3036 38.4893L69.3036 38.4893C68.5758 38.8459 67.8469 39.1799 67.1363 39.4815L66.2315 37.3449C66.9027 37.0606 67.5928 36.7449 68.2812 36.4061Z"/>
</svg>
