<svg viewBox="0 0 20 20" xmlns="http://www.w3.org/2000/svg" id="icon">
  <path d="M0 4.5C0 3.83696 0.263392 3.20107 0.732233 2.73223C1.20107 2.26339 1.83696 2 2.5 2H17.5C18.163 2 18.7989 2.26339 19.2678 2.73223C19.7366 3.20107 20 3.83696 20 4.5V7C19.337 7 18.7011 7.26339 18.2322 7.73223C17.7634 8.20107 17.5 8.83696 17.5 9.5C17.5 10.163 17.7634 10.7989 18.2322 11.2678C18.7011 11.7366 19.337 12 20 12V14.5C20 15.163 19.7366 15.7989 19.2678 16.2678C18.7989 16.7366 18.163 17 17.5 17H2.5C1.83696 17 1.20107 16.7366 0.732233 16.2678C0.263392 15.7989 0 15.163 0 14.5V12C0.663041 12 1.29893 11.7366 1.76777 11.2678C2.23661 10.7989 2.5 10.163 2.5 9.5C2.5 8.83696 2.23661 8.20107 1.76777 7.73223C1.29893 7.26339 0.663041 7 0 7V4.5Z"/>
</svg>
