<svg id="icon" viewBox="0 0 20 20" fill="currentColor" xmlns="http://www.w3.org/2000/svg">
<path fill-rule="evenodd" clip-rule="evenodd" d="M11.9999 13C11.7347 13 11.4803 13.1053 11.2928 13.2929C11.1053 13.4804 10.9999 13.7348 10.9999 14C10.9999 14.2652 11.1053 14.5196 11.2928 14.7071C11.4803 14.8946 11.7347 15 11.9999 15H16.9999C17.2651 15 17.5195 14.8946 17.707 14.7071C17.8946 14.5196 17.9999 14.2652 17.9999 14V8.99998C17.9999 8.73476 17.8946 8.48041 17.707 8.29287C17.5195 8.10534 17.2651 7.99998 16.9999 7.99998C16.7347 7.99998 16.4803 8.10534 16.2928 8.29287C16.1053 8.48041 15.9999 8.73476 15.9999 8.99998V11.586L11.7069 7.29298C11.5194 7.10551 11.2651 7.00019 10.9999 7.00019C10.7348 7.00019 10.4804 7.10551 10.2929 7.29298L7.99992 9.58598L3.70692 5.29298C3.51832 5.11082 3.26571 5.01003 3.00352 5.01231C2.74132 5.01458 2.49051 5.11975 2.3051 5.30516C2.11969 5.49057 2.01452 5.74138 2.01224 6.00358C2.00997 6.26578 2.11076 6.51838 2.29292 6.70698L7.29292 11.707C7.48045 11.8945 7.73475 11.9998 7.99992 11.9998C8.26508 11.9998 8.51939 11.8945 8.70692 11.707L10.9999 9.41398L14.5859 13H11.9999Z"/>
</svg>
