<svg id="icon" viewBox="0 0 20 20" fill="currentColor" xmlns="http://www.w3.org/2000/svg">
<path fill-rule="evenodd" clip-rule="evenodd" d="M10.5 19C15.7467 19 20 14.7467 20 9.5C20 4.25329 15.7467 0 10.5 0C5.25329 0 1 4.25329 1 9.5C1 14.7467 5.25329 19 10.5 19ZM6.20989 9.72417L6.66074 10.1635C6.85367 10.3535 7.16845 10.3495 7.35732 10.1556L9.68873 7.77095V13.4584C9.68873 13.7216 9.90603 13.9334 10.1761 13.9334H10.826C11.0961 13.9334 11.3134 13.7216 11.3134 13.4584V7.77095L13.6428 10.1536C13.8317 10.3456 14.1464 10.3495 14.3394 10.1615L14.7902 9.72219C14.9811 9.53815 14.9811 9.23735 14.7902 9.05133L10.8443 5.20623C10.6554 5.02021 10.3467 5.02021 10.1558 5.20623L6.20989 9.0533C6.01899 9.23735 6.01899 9.53815 6.20989 9.72417Z"/>
</svg>
