<svg viewBox="0 0 20 20" xmlns="http://www.w3.org/2000/svg" id="icon">
  <path fill-rule="evenodd" d="M10 20C15.5228 20 20 15.5228 20 10C20 4.47715 15.5228 0 10 0C4.47715 0 0 4.47715 0 10C0 15.5228 4.47715 20 10 20ZM5.4841 10.236L5.95867 10.6984C6.16176 10.8984 6.49311 10.8942 6.69192 10.6901L9.14603 8.17994V14.1668C9.14603 14.4438 9.37477 14.6667 9.65909 14.6667H10.3432C10.6275 14.6667 10.8562 14.4438 10.8562 14.1668V8.17994L13.3082 10.688C13.507 10.8901 13.8383 10.8942 14.0414 10.6963L14.516 10.2339C14.717 10.0402 14.717 9.72352 14.516 9.52771L10.3624 5.48025C10.1636 5.28443 9.83866 5.28443 9.63771 5.48025L5.4841 9.52979C5.28315 9.72352 5.28315 10.0402 5.4841 10.236Z"/>
</svg>
