<svg id="icon" viewBox="0 0 20 20" fill="currentColor" xmlns="http://www.w3.org/2000/svg">
<path fill-rule="evenodd" clip-rule="evenodd" d="M18 10C18 14.4183 14.4183 18 10 18C5.58172 18 2 14.4183 2 10C2 5.58172 5.58172 2 10 2C14.4183 2 18 5.58172 18 10ZM20 10C20 15.5228 15.5228 20 10 20C4.47715 20 0 15.5228 0 10C0 4.47715 4.47715 0 10 0C15.5228 0 20 4.47715 20 10ZM5.48408 10.236L5.95866 10.6984C6.16174 10.8984 6.49309 10.8942 6.6919 10.6901L9.14602 8.17993V14.1668C9.14602 14.4438 9.37475 14.6667 9.65907 14.6667H10.3431C10.6275 14.6667 10.8562 14.4438 10.8562 14.1668V8.17993L13.3082 10.688C13.507 10.89 13.8383 10.8942 14.0414 10.6963L14.516 10.2339C14.7169 10.0401 14.7169 9.72351 14.516 9.5277L10.3624 5.48023C10.1636 5.28442 9.83864 5.28442 9.6377 5.48023L5.48408 9.52978C5.28314 9.72351 5.28314 10.0401 5.48408 10.236Z"/>
</svg>