<svg viewBox="0 0 20 20" xmlns="http://www.w3.org/2000/svg" id="icon">
  <path fill-rule="evenodd" d="M1 18.75C1 18.4185 1.13546 18.1005 1.37658 17.8661C1.6177 17.6317 1.94472 17.5 2.28571 17.5H17.7143C18.0553 17.5 18.3823 17.6317 18.6234 17.8661C18.8645 18.1005 19 18.4185 19 18.75C19 19.0815 18.8645 19.3995 18.6234 19.6339C18.3823 19.8683 18.0553 20 17.7143 20H2.28571C1.94472 20 1.6177 19.8683 1.37658 19.6339C1.13546 19.3995 1 19.0815 1 18.75ZM5.23386 5.88356C4.99282 5.64915 4.85742 5.33126 4.85742 4.9998C4.85742 4.66834 4.99282 4.35045 5.23386 4.11604L9.091 0.365988C9.33211 0.131646 9.65907 0 10 0C10.3409 0 10.6679 0.131646 10.909 0.365988L14.7661 4.11604C15.0003 4.35179 15.1299 4.66755 15.127 4.9953C15.1241 5.32305 14.9889 5.63657 14.7505 5.86833C14.5121 6.1001 14.1896 6.23156 13.8525 6.23441C13.5154 6.23726 13.1906 6.11126 12.9481 5.88356L11.2857 4.26729V13.7499C11.2857 14.0814 11.1503 14.3994 10.9091 14.6338C10.668 14.8682 10.341 14.9999 10 14.9999C9.65901 14.9999 9.33198 14.8682 9.09086 14.6338C8.84974 14.3994 8.71429 14.0814 8.71429 13.7499V4.26729L7.05186 5.88356C6.81075 6.1179 6.48378 6.24955 6.14286 6.24955C5.80193 6.24955 5.47496 6.1179 5.23386 5.88356Z"/>
</svg>
