<svg viewBox="0 0 20 20" xmlns="http://www.w3.org/2000/svg" id="icon">
  <path d="M7.5 8.71429C8.49456 8.71429 9.44839 8.30791 10.1517 7.58456C10.8549 6.8612 11.25 5.88012 11.25 4.85714C11.25 3.83416 10.8549 2.85309 10.1517 2.12973C9.44839 1.40638 8.49456 1 7.5 1C6.50544 1 5.55161 1.40638 4.84835 2.12973C4.14509 2.85309 3.75 3.83416 3.75 4.85714C3.75 5.88012 4.14509 6.8612 4.84835 7.58456C5.55161 8.30791 6.50544 8.71429 7.5 8.71429ZM7.5 11.2857C9.48912 11.2857 11.3968 12.0985 12.8033 13.5452C14.2098 14.9919 15 16.954 15 19H0C0 16.954 0.790176 14.9919 2.1967 13.5452C3.60322 12.0985 5.51088 11.2857 7.5 11.2857ZM17.5 6.14286C17.5 5.80186 17.3683 5.47484 17.1339 5.23372C16.8995 4.9926 16.5815 4.85714 16.25 4.85714C15.9185 4.85714 15.6005 4.9926 15.3661 5.23372C15.1317 5.47484 15 5.80186 15 6.14286V7.42857H13.75C13.4185 7.42857 13.1005 7.56403 12.8661 7.80515C12.6317 8.04627 12.5 8.37329 12.5 8.71429C12.5 9.05528 12.6317 9.3823 12.8661 9.62342C13.1005 9.86454 13.4185 10 13.75 10H15V11.2857C15 11.6267 15.1317 11.9537 15.3661 12.1949C15.6005 12.436 15.9185 12.5714 16.25 12.5714C16.5815 12.5714 16.8995 12.436 17.1339 12.1949C17.3683 11.9537 17.5 11.6267 17.5 11.2857V10H18.75C19.0815 10 19.3995 9.86454 19.6339 9.62342C19.8683 9.3823 20 9.05528 20 8.71429C20 8.37329 19.8683 8.04627 19.6339 7.80515C19.3995 7.56403 19.0815 7.42857 18.75 7.42857H17.5V6.14286Z"/>
</svg>
