<svg id="icon" viewBox="0 0 20 20" fill="currentColor" xmlns="http://www.w3.org/2000/svg">
<path d="M8.57143 5.71429C8.57143 6.56677 8.23278 7.38433 7.62999 7.98713C7.02719 8.58992 6.20962 8.92857 5.35714 8.92857C4.50466 8.92857 3.6871 8.58992 3.0843 7.98713C2.4815 7.38433 2.14286 6.56677 2.14286 5.71429C2.14286 4.8618 2.4815 4.04424 3.0843 3.44144C3.6871 2.83865 4.50466 2.5 5.35714 2.5C6.20962 2.5 7.02719 2.83865 7.62999 3.44144C8.23278 4.04424 8.57143 4.8618 8.57143 5.71429V5.71429ZM17.1429 5.71429C17.1429 6.13639 17.0597 6.55436 16.8982 6.94434C16.7367 7.33431 16.4999 7.68866 16.2014 7.98713C15.9029 8.2856 15.5486 8.52237 15.1586 8.6839C14.7687 8.84543 14.3507 8.92857 13.9286 8.92857C13.5065 8.92857 13.0885 8.84543 12.6985 8.6839C12.3085 8.52237 11.9542 8.2856 11.6557 7.98713C11.3573 7.68866 11.1205 7.33431 10.959 6.94434C10.7974 6.55436 10.7143 6.13639 10.7143 5.71429C10.7143 4.8618 11.0529 4.04424 11.6557 3.44144C12.2585 2.83865 13.0761 2.5 13.9286 2.5C14.7811 2.5 15.5986 2.83865 16.2014 3.44144C16.8042 4.04424 17.1429 4.8618 17.1429 5.71429V5.71429ZM12.7821 17.5C12.8314 17.1496 12.8571 16.7929 12.8571 16.4286C12.8596 14.7452 12.2933 13.1104 11.25 11.7893C12.0644 11.3191 12.9882 11.0716 13.9285 11.0716C14.8689 11.0716 15.7927 11.3191 16.6071 11.7893C17.4215 12.2594 18.0977 12.9357 18.5679 13.75C19.0381 14.5644 19.2857 15.4882 19.2857 16.4286V17.5H12.7821ZM5.35714 11.0714C6.77795 11.0714 8.14056 11.6358 9.14522 12.6405C10.1499 13.6452 10.7143 15.0078 10.7143 16.4286V17.5H0V16.4286C0 15.0078 0.564412 13.6452 1.56907 12.6405C2.57373 11.6358 3.93634 11.0714 5.35714 11.0714V11.0714Z"/>
</svg>
