<svg viewBox="0 0 20 20" xmlns="http://www.w3.org/2000/svg" id="icon">
  <path fill-rule="evenodd" d="M3.98013 2.09552C4.25294 2.21706 4.46704 2.44337 4.57545 2.72477C4.68386 3.00618 4.67772 3.3197 4.55838 3.59653C3.69182 5.61115 3.24633 7.78594 3.25001 9.9838C3.25001 12.257 3.71801 14.4161 4.55951 16.3711C4.66823 16.6462 4.66701 16.9535 4.55611 17.2278C4.44521 17.5021 4.23334 17.7218 3.96539 17.8405C3.69744 17.9591 3.39446 17.9673 3.12065 17.8633C2.84683 17.7594 2.6237 17.5514 2.49851 17.2835C1.50727 14.9813 0.997058 12.4958 1.00001 9.9838C1.00001 7.39011 1.53439 4.9196 2.49851 2.68406C2.55766 2.54676 2.6429 2.42263 2.74938 2.31874C2.85586 2.21486 2.98148 2.13326 3.11907 2.0786C3.25665 2.02395 3.40352 1.99731 3.55126 2.00021C3.699 2.00312 3.84474 2.0355 3.98013 2.09552ZM13.33 6.56204C12.824 6.56216 12.3244 6.67765 11.8683 6.89995C11.4123 7.12226 11.0114 7.4457 10.6953 7.84634L10.3263 8.31398L10.2014 7.99576C10.0344 7.57267 9.74626 7.20999 9.37411 6.95445C9.00196 6.69892 8.56285 6.56224 8.11338 6.56204H7.75C7.45164 6.56204 7.16549 6.68221 6.95451 6.89611C6.74353 7.11002 6.62501 7.40013 6.62501 7.70263C6.62501 8.00513 6.74353 8.29524 6.95451 8.50914C7.16549 8.72304 7.45164 8.84321 7.75 8.84321H8.11338L8.71188 10.3602L7.5475 11.8372C7.44206 11.9708 7.30834 12.0785 7.15625 12.1526C7.00416 12.2266 6.83759 12.265 6.66888 12.265H6.62501C6.32664 12.265 6.04049 12.3851 5.82951 12.599C5.61853 12.8129 5.50001 13.103 5.50001 13.4055C5.50001 13.708 5.61853 13.9982 5.82951 14.2121C6.04049 14.426 6.32664 14.5461 6.62501 14.5461H6.66888C7.17492 14.546 7.67446 14.4305 8.13053 14.2082C8.5866 13.9859 8.98752 13.6625 9.30363 13.2618L9.67263 12.7942L9.7975 13.1124C9.96455 13.5357 10.2529 13.8985 10.6252 14.154C10.9976 14.4096 11.437 14.5462 11.8866 14.5461H12.25C12.5484 14.5461 12.8345 14.426 13.0455 14.2121C13.2565 13.9982 13.375 13.708 13.375 13.4055C13.375 13.103 13.2565 12.8129 13.0455 12.599C12.8345 12.3851 12.5484 12.265 12.25 12.265H11.8866L11.2881 10.748L12.4525 9.27093C12.5579 9.13741 12.6917 9.02963 12.8438 8.9556C12.9958 8.88156 13.1624 8.84315 13.3311 8.84321H13.375C13.6734 8.84321 13.9595 8.72304 14.1705 8.50914C14.3815 8.29524 14.5 8.00513 14.5 7.70263C14.5 7.40013 14.3815 7.11002 14.1705 6.89611C13.9595 6.68221 13.6734 6.56204 13.375 6.56204H13.3311H13.33ZM15.4382 3.59653C15.3207 3.3196 15.3162 3.00678 15.4255 2.72643C15.5348 2.44609 15.7492 2.22103 16.0217 2.10044C16.2942 1.97985 16.6027 1.97355 16.8798 2.08292C17.1569 2.19228 17.38 2.40841 17.5004 2.68406C18.492 4.98623 19.0026 7.47168 19 9.9838C19 12.5775 18.4656 15.048 17.5015 17.2835C17.4455 17.4253 17.3619 17.5542 17.2558 17.6627C17.1498 17.7711 17.0233 17.8568 16.8839 17.9148C16.7445 17.9727 16.595 18.0017 16.4444 17.9999C16.2938 17.9982 16.145 17.9658 16.0069 17.9047C15.8689 17.8436 15.7443 17.7549 15.6407 17.6441C15.5371 17.5333 15.4564 17.4024 15.4036 17.2594C15.3508 17.1164 15.3268 16.964 15.3332 16.8114C15.3395 16.6588 15.376 16.5091 15.4405 16.3711C16.3075 14.3565 16.7533 12.1817 16.75 9.9838C16.75 7.71061 16.282 5.55149 15.4394 3.59653H15.4382Z"/>
</svg>
