<svg id="icon" viewBox="0 0 16 16" fill="currentColor" xmlns="http://www.w3.org/2000/svg">
<path d="M7.9985 6.52979C7.60885 6.52979 7.23515 6.68458 6.95962 6.96011C6.68409 7.23564 6.5293 7.60933 6.5293 7.99899C6.5293 8.38865 6.68409 8.76235 6.95962 9.03788C7.23515 9.31341 7.60885 9.4682 7.9985 9.4682C8.38816 9.4682 8.76186 9.31341 9.03739 9.03788C9.31292 8.76235 9.46771 8.38865 9.46771 7.99899C9.46771 7.60933 9.31292 7.23564 9.03739 6.96011C8.76186 6.68458 8.38816 6.52979 7.9985 6.52979Z"/>
<path d="M7.99974 3.26489C6.74417 3.26489 5.54003 3.76366 4.65222 4.65148C3.7644 5.5393 3.26563 6.74344 3.26562 7.99901C3.26563 9.25457 3.7644 10.4587 4.65222 11.3465C5.54003 12.2343 6.74417 12.7331 7.99974 12.7331C9.2553 12.7331 10.4594 12.2343 11.3473 11.3465C12.2351 10.4587 12.7339 9.25457 12.7339 7.99901C12.7339 6.74344 12.2351 5.5393 11.3473 4.65148C10.4594 3.76366 9.2553 3.26489 7.99974 3.26489ZM4.89808 7.99901C4.89808 7.1764 5.22486 6.38748 5.80653 5.8058C6.38821 5.22413 7.17713 4.89735 7.99974 4.89735C8.82235 4.89735 9.61127 5.22413 10.1929 5.8058C10.7746 6.38748 11.1014 7.1764 11.1014 7.99901C11.1014 8.82162 10.7746 9.61054 10.1929 10.1922C9.61127 10.7739 8.82235 11.1007 7.99974 11.1007C7.17713 11.1007 6.38821 10.7739 5.80653 10.1922C5.22486 9.61054 4.89808 8.82162 4.89808 7.99901Z"/>
<path d="M7.99967 0C3.5816 0 0 3.5816 0 7.99967C0 12.4177 3.5816 16 7.99967 16C12.4177 16 16 12.4177 16 7.99967C16 3.5816 12.4177 0 7.99902 0H7.99967ZM1.63245 7.99967C1.63245 4.48337 4.48337 1.63245 7.99967 1.63245C11.5166 1.63245 14.3675 4.48337 14.3675 7.99967C14.3675 11.5166 11.5166 14.3675 7.99967 14.3675C4.48337 14.3675 1.63245 11.5166 1.63245 7.99967Z"/>
</svg>
