<svg viewBox="0 0 20 20" xmlns="http://www.w3.org/2000/svg" id="icon">
  <path d="M18 16.3231C18 16.4863 17.9352 16.6428 17.8198 16.7582C17.7044 16.8737 17.5478 16.9385 17.3846 16.9385H2.61538C2.45217 16.9385 2.29565 16.8737 2.18024 16.7582C2.06483 16.6428 2 16.4863 2 16.3231C2 16.1599 2.06483 16.0034 2.18024 15.888C2.29565 15.7726 2.45217 15.7077 2.61538 15.7077H17.3846C17.5478 15.7077 17.7044 15.7726 17.8198 15.888C17.9352 16.0034 18 16.1599 18 16.3231ZM18 4.63079V13.2462C18 13.5726 17.8703 13.8856 17.6395 14.1165C17.4087 14.3473 17.0957 14.4769 16.7692 14.4769H3.23077C2.90435 14.4769 2.5913 14.3473 2.36048 14.1165C2.12967 13.8856 2 13.5726 2 13.2462V4.63079C2 4.30437 2.12967 3.99132 2.36048 3.76051C2.5913 3.52969 2.90435 3.40002 3.23077 3.40002H16.7692C17.0957 3.40002 17.4087 3.52969 17.6395 3.76051C17.8703 3.99132 18 4.30437 18 4.63079ZM12.7692 8.93849C12.7692 8.83492 12.743 8.73303 12.6931 8.64226C12.6433 8.5515 12.5713 8.47479 12.4838 8.41926L9.09923 6.26541C9.0062 6.2063 8.899 6.17327 8.78884 6.16976C8.67868 6.16625 8.56959 6.19238 8.47299 6.24544C8.37638 6.2985 8.29579 6.37653 8.23966 6.47138C8.18352 6.56623 8.15388 6.67442 8.15385 6.78464V11.0923C8.15388 11.2026 8.18352 11.3107 8.23966 11.4056C8.29579 11.5004 8.37638 11.5785 8.47299 11.6315C8.56959 11.6846 8.67868 11.7107 8.78884 11.7072C8.899 11.7037 9.0062 11.6707 9.09923 11.6116L12.4838 9.45772C12.5713 9.40218 12.6433 9.32547 12.6931 9.23471C12.743 9.14394 12.7692 9.04206 12.7692 8.93849Z"/>
</svg>
