<svg id="icon" viewBox="0 0 16 16" fill="currentColor" xmlns="http://www.w3.org/2000/svg">
<path d="M15.8199 13.1856C16.3326 14.0668 15.6891 15.1683 14.665 15.1683H1.33484C0.308813 15.1683 -0.331798 14.0651 0.179925 13.1856L6.84509 1.72725C7.35806 0.845651 8.64287 0.847248 9.15492 1.72725L15.8199 13.1856ZM8 10.8166C7.29431 10.8166 6.72223 11.3839 6.72223 12.0836C6.72223 12.7833 7.29431 13.3505 8 13.3505C8.7057 13.3505 9.27778 12.7833 9.27778 12.0836C9.27778 11.3839 8.7057 10.8166 8 10.8166ZM6.78687 6.26263L6.99292 10.0084C7.00256 10.1837 7.14873 10.3209 7.32576 10.3209H8.67426C8.85128 10.3209 8.99745 10.1837 9.00709 10.0084L9.21314 6.26263C9.22356 6.0733 9.07153 5.91411 8.88031 5.91411H7.11967C6.92845 5.91411 6.77645 6.0733 6.78687 6.26263Z"/>
</svg>