<svg id="icon" viewBox="0 0 20 20" fill="currentColor" xmlns="http://www.w3.org/2000/svg">
<path d="M13.524 6.00688L18.9661 6.7935C19.4168 6.85658 19.7955 7.16826 19.9394 7.59497C20.0833 8.02538 19.9659 8.4929 19.6402 8.812L15.694 12.6041L16.6257 18.0437C16.7014 18.4889 16.5158 18.9416 16.1371 19.205C15.7622 19.4685 15.2661 19.5019 14.8609 19.2904L9.9982 16.7487L5.13932 19.2904C4.73031 19.5019 4.2342 19.4685 3.85927 19.205C3.48435 18.9416 3.29499 18.4889 3.37452 18.0437L4.30615 12.6041L0.359211 8.812C0.0331392 8.4929 -0.0827469 8.02538 0.0604065 7.59497C0.203181 7.16826 0.580757 6.85658 1.03483 6.7935L6.47239 6.00688L8.9113 1.09681C9.11201 0.688066 9.53617 0.428589 9.9982 0.428589C10.464 0.428589 10.8882 0.688066 11.0889 1.09681L13.524 6.00688Z"/>
</svg>