<svg viewBox="0 0 20 20" xmlns="http://www.w3.org/2000/svg" id="icon">
  <path d="M13.524 6.07829L18.9661 6.86491C19.4168 6.92799 19.7955 7.23967 19.9394 7.66638C20.0833 8.09679 19.9659 8.56431 19.6402 8.88341L15.694 12.6755L16.6257 18.1151C16.7014 18.5603 16.5158 19.013 16.1371 19.2764C15.7622 19.5399 15.2661 19.5733 14.8609 19.3618L9.9982 16.8201L5.13932 19.3618C4.73031 19.5733 4.2342 19.5399 3.85927 19.2764C3.48435 19.013 3.29499 18.5603 3.37452 18.1151L4.30615 12.6755L0.359211 8.88341C0.0331392 8.56431 -0.0827469 8.09679 0.0604065 7.66638C0.203181 7.23967 0.580757 6.92799 1.03483 6.86491L6.47239 6.07829L8.9113 1.16822C9.11201 0.759477 9.53617 0.5 9.9982 0.5C10.464 0.5 10.8882 0.759477 11.0889 1.16822L13.524 6.07829Z"/>
</svg>
