<svg viewBox="0 0 20 20" xmlns="http://www.w3.org/2000/svg" id="icon">
  <path fill-rule="evenodd" d="M18.211 8.222C13.6758 3.926 6.32418 3.926 1.78905 8.222C1.58995 8.40416 1.32328 8.50495 1.04649 8.50268C0.769699 8.5004 0.504925 8.39523 0.309197 8.20982C0.113468 8.02441 0.00244515 7.7736 3.99069e-05 7.5114C-0.00236534 7.24921 0.10404 6.9966 0.296337 6.808C5.65489 1.731 14.3451 1.731 19.7037 6.808C19.896 6.9966 20.0024 7.24921 20 7.5114C19.9976 7.7736 19.8865 8.02441 19.6908 8.20982C19.4951 8.39523 19.2303 8.5004 18.9535 8.50268C18.6767 8.50495 18.4101 8.40416 18.211 8.222ZM15.2255 11.05C14.5393 10.3999 13.7247 9.88424 12.8281 9.53241C11.9315 9.18058 10.9705 8.9995 10 8.9995C9.02951 8.9995 8.06853 9.18058 7.17193 9.53241C6.27533 9.88424 5.46067 10.3999 4.77446 11.05C4.57536 11.2322 4.3087 11.333 4.03191 11.3307C3.75512 11.3284 3.49034 11.2232 3.29461 11.0378C3.09889 10.8524 2.98786 10.6016 2.98546 10.3394C2.98305 10.0772 3.08946 9.8246 3.28175 9.636C4.164 8.80026 5.21139 8.13732 6.36411 7.68502C7.51683 7.23272 8.7523 6.99992 10 6.99992C11.2477 6.99992 12.4832 7.23272 13.6359 7.68502C14.7886 8.13732 15.836 8.80026 16.7182 9.636C16.9105 9.8246 17.0169 10.0772 17.0145 10.3394C17.0121 10.6016 16.9011 10.8524 16.7054 11.0378C16.5097 11.2232 16.2449 11.3284 15.9681 11.3307C15.6913 11.333 15.4246 11.2322 15.2255 11.05ZM12.238 13.88C11.6441 13.3176 10.8387 13.0016 9.99894 13.0016C9.15917 13.0016 8.35378 13.3176 7.75988 13.88C7.5618 14.0676 7.29313 14.1731 7.013 14.1731C6.73286 14.1731 6.4642 14.0676 6.26612 13.88C6.06803 13.6924 5.95675 13.4379 5.95675 13.1725C5.95675 12.9071 6.06803 12.6526 6.26612 12.465C6.75627 12.0006 7.33821 11.6322 7.9787 11.3808C8.61918 11.1294 9.30567 11.0001 9.99894 11.0001C10.6922 11.0001 11.3787 11.1294 12.0192 11.3808C12.6597 11.6322 13.2416 12.0006 13.7318 12.465C13.9299 12.6526 14.0411 12.9071 14.0411 13.1725C14.0411 13.4379 13.9299 13.6924 13.7318 13.88C13.5337 14.0676 13.265 14.1731 12.9849 14.1731C12.7048 14.1731 12.4361 14.0676 12.238 13.88ZM8.94434 16C8.94434 15.7348 9.05556 15.4804 9.25353 15.2929C9.45151 15.1054 9.72002 15 10 15H10.0106C10.2905 15 10.559 15.1054 10.757 15.2929C10.955 15.4804 11.0662 15.7348 11.0662 16C11.0662 16.2652 10.955 16.5196 10.757 16.7071C10.559 16.8946 10.2905 17 10.0106 17H10C9.72002 17 9.45151 16.8946 9.25353 16.7071C9.05556 16.5196 8.94434 16.2652 8.94434 16Z"/>
</svg>
