<svg id="icon" viewBox="0 0 20 20" fill="currentColor" xmlns="http://www.w3.org/2000/svg">
<path fill-rule="evenodd" clip-rule="evenodd" d="M2.38999 2.40705C2.63978 2.15709 2.97851 2.01667 3.33171 2.01667C3.68491 2.01667 4.02364 2.15709 4.27343 2.40705L9.99167 8.13105L15.7099 2.40705C15.8328 2.2797 15.9798 2.17813 16.1423 2.10825C16.3048 2.03837 16.4796 2.00159 16.6564 2.00005C16.8333 1.99851 17.0087 2.03225 17.1724 2.09929C17.3361 2.16633 17.4848 2.26533 17.6099 2.39052C17.7349 2.51571 17.8338 2.66458 17.9008 2.82845C17.9678 2.99231 18.0015 3.16788 17.9999 3.34492C17.9984 3.52196 17.9617 3.69692 17.8919 3.85959C17.8221 4.02226 17.7206 4.16939 17.5934 4.29238L11.8751 10.0164L17.5934 15.7404C17.836 15.9919 17.9702 16.3287 17.9672 16.6783C17.9642 17.0278 17.8241 17.3623 17.5771 17.6095C17.3302 17.8567 16.9961 17.9969 16.6468 17.9999C16.2976 18.003 15.9611 17.8686 15.7099 17.6257L9.99167 11.9017L4.27343 17.6257C4.02221 17.8686 3.68575 18.003 3.3365 17.9999C2.98726 17.9969 2.65318 17.8567 2.40622 17.6095C2.15925 17.3623 2.01917 17.0278 2.01613 16.6783C2.0131 16.3287 2.14736 15.9919 2.38999 15.7404L8.10824 10.0164L2.38999 4.29238C2.14028 4.04235 2 3.70327 2 3.34972C2 2.99617 2.14028 2.65709 2.38999 2.40705Z" />
</svg>
