<svg viewBox="0 0 25 20" xmlns="http://www.w3.org/2000/svg">
<path d="M22.1375 11.726L24.0933 3.80414C24.2345 3.23217 23.7622 2.6875 23.125 2.6875H6.87484L6.49563 0.980869C6.40114 0.555487 5.99453 0.25 5.52285 0.25H1.28101C0.732628 0.25 0.288086 0.659233 0.288086 1.16406V1.77344C0.288086 2.27827 0.732628 2.6875 1.28101 2.6875H4.17222L7.07852 15.7675C6.38322 16.1356 5.91468 16.8258 5.91468 17.6172C5.91468 18.7951 6.95196 19.75 8.23152 19.75C9.51107 19.75 10.5484 18.7951 10.5484 17.6172C10.5484 17.0202 10.2816 16.4809 9.85231 16.0938H18.5258C18.0966 16.4809 17.8298 17.0202 17.8298 17.6172C17.8298 18.7951 18.8671 19.75 20.1467 19.75C21.4262 19.75 22.4635 18.7951 22.4635 17.6172C22.4635 16.7727 21.9303 16.043 21.157 15.6975L21.3853 14.7729C21.5265 14.2009 21.0542 13.6562 20.417 13.6562H9.31203L9.04125 12.4375H21.1693C21.6329 12.4375 22.0348 12.1422 22.1375 11.726Z"/>
</svg>