<svg id="main" width="43" height="37" viewBox="0 0 43 37" fill="none" xmlns="http://www.w3.org/2000/svg">
<path d="M3.30872 21.8534C1.79281 21.8534 0.556152 20.7271 0.556152 19.3466V3.10679C0.556152 1.72622 1.79281 0.599976 3.30872 0.599976H32.8049H34.8635C36.3794 0.599976 37.616 1.76256 37.616 3.14312V15.4H36.2198V3.10679C36.2198 2.41651 35.6214 1.83522 34.8635 1.83522H32.3657H32.1109H3.30872C2.55076 1.83522 1.95238 2.38017 1.95238 3.07046V19.3102C1.95238 20.0005 2.55076 20.5455 3.30872 20.5455H6.26333V21.8534H3.30872Z" fill="currentColor"/>
<path d="M25.269 11.8624H4.68457V13.0977H25.269V11.8624Z" fill="currentColor"/>
<path d="M30.8479 8.91998C31.7692 8.91998 32.5161 8.23945 32.5161 7.39998C32.5161 6.5605 31.7692 5.87998 30.8479 5.87998C30.3781 5.87998 29.9536 6.05692 29.6504 6.34166L28.6528 5.44038C29.2106 4.92176 29.988 4.59998 30.8479 4.59998C32.5451 4.59998 33.921 5.85358 33.921 7.39998C33.921 8.94637 32.5451 10.2 30.8479 10.2C29.9158 10.2 29.0807 9.82191 28.5171 9.22492L29.6504 8.45829C29.9536 8.74303 30.3781 8.91998 30.8479 8.91998Z" fill="currentColor"/>
<path fill-rule="evenodd" clip-rule="evenodd" d="M27.3358 8.91998C28.2571 8.91998 29.004 8.23945 29.004 7.39998C29.004 6.5605 28.2571 5.87998 27.3358 5.87998C26.4144 5.87998 25.6675 6.5605 25.6675 7.39998C25.6675 8.23945 26.4144 8.91998 27.3358 8.91998ZM27.3358 10.2C29.033 10.2 30.4089 8.94637 30.4089 7.39998C30.4089 5.85358 29.033 4.59998 27.3358 4.59998C25.6386 4.59998 24.2627 5.85358 24.2627 7.39998C24.2627 8.94637 25.6386 10.2 27.3358 10.2Z" fill="currentColor"/>
<path fill-rule="evenodd" clip-rule="evenodd" d="M40.2516 16.2H8.4583C7.73092 16.2 7.14126 16.7373 7.14126 17.4V33.856C7.14126 34.5187 7.73092 35.056 8.4583 35.056H40.2517C40.979 35.056 41.5687 34.5187 41.5687 33.856V17.4C41.5687 16.7373 40.979 16.2 40.2516 16.2ZM8.4583 15C7.00354 15 5.82422 16.0745 5.82422 17.4V33.856C5.82422 35.1815 7.00354 36.256 8.4583 36.256H40.2517C41.7064 36.256 42.8857 35.1815 42.8857 33.856V17.4C42.8857 16.0745 41.7064 15 40.2516 15H8.4583Z" fill="currentColor"/>
<path d="M38.3255 18.2H6.70215V19.4352H38.3255V18.2Z" fill="currentColor"/>
<path d="M42.3657 18.2H37.5786V19.4352H42.3657V18.2Z" fill="currentColor"/>
<path d="M42.3658 23.2135H6.70215V24.4487H42.3658V23.2135Z" fill="currentColor"/>
<path d="M30.7172 26.9556H10.1328V28.1908H30.7172V26.9556Z" fill="currentColor"/>
<path d="M21.1032 29.4624H10.1328V30.6976H21.1032V29.4624Z" fill="currentColor"/>
<path d="M33.469 26.9556H32.1133V28.1908H33.469V26.9556Z" fill="currentColor"/>
<path d="M36.1824 26.9556H34.8267V28.1908H36.1824V26.9556Z" fill="currentColor"/>
<path d="M38.9343 26.9556H37.5786V28.1908H38.9343V26.9556Z" fill="currentColor"/>
</svg>
