<svg id="main" viewBox="0 0 36 36" fill="currentColor" xmlns="http://www.w3.org/2000/svg">
<path d="M5.4001 1.80005C4.92271 1.80005 4.46487 1.98969 4.12731 2.32726C3.78974 2.66482 3.6001 3.12266 3.6001 3.60005C3.6001 4.07744 3.78974 4.53528 4.12731 4.87284C4.46487 5.21041 4.92271 5.40005 5.4001 5.40005H7.5961L8.1451 7.59965C8.15055 7.62498 8.15655 7.65018 8.1631 7.67525L10.6075 17.4492L9.0001 19.0548C6.7321 21.3228 8.3377 25.2 11.5453 25.2H27.0001C27.4775 25.2 27.9353 25.0104 28.2729 24.6728C28.6105 24.3353 28.8001 23.8774 28.8001 23.4C28.8001 22.9227 28.6105 22.4648 28.2729 22.1273C27.9353 21.7897 27.4775 21.6 27.0001 21.6H11.5453L13.3453 19.8H25.2001C25.5343 19.7999 25.8618 19.7067 26.146 19.5309C26.4303 19.355 26.6599 19.1036 26.8093 18.8046L32.2093 8.00465C32.3464 7.73029 32.4111 7.42545 32.3973 7.11906C32.3835 6.81267 32.2917 6.51488 32.1304 6.25396C31.9692 5.99304 31.744 5.77763 31.4762 5.62819C31.2084 5.47874 30.9068 5.40021 30.6001 5.40005H11.3041L10.7461 3.16265C10.6486 2.7734 10.4238 2.4279 10.1075 2.18103C9.79113 1.93415 9.40137 1.80006 9.0001 1.80005H5.4001ZM28.8001 29.7C28.8001 30.4161 28.5156 31.1029 28.0093 31.6092C27.5029 32.1156 26.8162 32.4 26.1001 32.4C25.384 32.4 24.6973 32.1156 24.1909 31.6092C23.6846 31.1029 23.4001 30.4161 23.4001 29.7C23.4001 28.984 23.6846 28.2972 24.1909 27.7909C24.6973 27.2845 25.384 27 26.1001 27C26.8162 27 27.5029 27.2845 28.0093 27.7909C28.5156 28.2972 28.8001 28.984 28.8001 29.7ZM11.7001 32.4C12.4162 32.4 13.1029 32.1156 13.6093 31.6092C14.1156 31.1029 14.4001 30.4161 14.4001 29.7C14.4001 28.984 14.1156 28.2972 13.6093 27.7909C13.1029 27.2845 12.4162 27 11.7001 27C10.984 27 10.2973 27.2845 9.79091 27.7909C9.28456 28.2972 9.0001 28.984 9.0001 29.7C9.0001 30.4161 9.28456 31.1029 9.79091 31.6092C10.2973 32.1156 10.984 32.4 11.7001 32.4Z"/>
</svg>
