<svg id="main" viewBox="0 0 26 26" fill="currentColor" xmlns="http://www.w3.org/2000/svg">
<path d="M4.33333 1.40833C4.85243 1.40833 5.29931 1.77831 5.39861 2.2897L5.46632 2.85394H24.4562C25.3726 2.85394 26.1038 3.76875 25.8465 4.69078L23.409 13.3663C23.233 13.9897 22.6642 14.4189 22.0187 14.4189H7.70521L8.12049 16.5873H22.0278C22.6281 16.5873 23.1111 17.0707 23.1111 17.6715C23.1111 18.2723 22.6281 18.7557 22.0278 18.7557H7.1816C6.70312 18.7557 6.25625 18.3853 6.15694 17.8748L3.43687 3.57675H1.08333C0.485243 3.57675 0 3.09111 0 2.49254C0 1.89396 0.485243 1.40833 1.08333 1.40833H4.33333ZM5.77778 22.3698C5.77778 21.1726 6.74826 20.2013 7.94444 20.2013C9.14062 20.2013 10.1111 21.1726 10.1111 22.3698C10.1111 23.5669 9.14062 24.5382 7.94444 24.5382C6.74826 24.5382 5.77778 23.5669 5.77778 22.3698ZM23.1111 22.3698C23.1111 23.5669 22.1406 24.5382 20.9444 24.5382C19.7483 24.5382 18.7778 23.5669 18.7778 22.3698C18.7778 21.1726 19.7483 20.2013 20.9444 20.2013C22.1406 20.2013 23.1111 21.1726 23.1111 22.3698Z"/>
</svg>