<svg width="50" height="50" viewBox="0 0 50 50" fill="none" xmlns="http://www.w3.org/2000/svg">
<path d="M38.7197 23.3379C38.5963 23.1982 38.4189 23.1182 38.2326 23.1182H34.6699C34.4154 23.1182 34.1844 23.2668 34.0787 23.4982C33.9729 23.7297 34.012 24.0016 34.1787 24.1939L37.1866 27.6649L34.1787 31.1354C34.0121 31.3277 33.9729 31.5996 34.0786 31.8311C34.1844 32.0626 34.4154 32.2111 34.6699 32.2111H38.1242C38.3135 32.2111 38.4934 32.1286 38.6169 31.9851L39.7682 30.6471L40.9321 31.9873C41.0556 32.1295 41.2346 32.2111 41.4229 32.2111H45.0002C45.2549 32.2111 45.4862 32.0623 45.5918 31.8304C45.6973 31.5986 45.6577 31.3264 45.4904 31.1343L42.4545 27.6477L45.4455 24.1938C45.6121 24.0014 45.6511 23.7296 45.5454 23.4981C45.4396 23.2667 45.2086 23.1182 44.9541 23.1182H41.5156C41.325 23.1182 41.144 23.2019 41.0205 23.3471L39.8959 24.669L38.7197 23.3379Z" fill="white" stroke="#AFAFAF" stroke-width="1.3" stroke-linejoin="round"/>
<path d="M35.3199 23.8656C35.3199 23.5066 35.0289 23.2156 34.6699 23.2156H31.8465V22.7909H34.6699C35.0289 22.7909 35.3199 22.4999 35.3199 22.1409V19.4388C35.3199 19.0799 35.0289 18.7888 34.6699 18.7888H28.6439C28.2849 18.7888 27.9939 19.0799 27.9939 19.4388V31.5611C27.9939 31.9201 28.2849 32.2111 28.6439 32.2111H34.6699C35.0289 32.2111 35.3199 31.9201 35.3199 31.5611V28.8516C35.3199 28.4926 35.0289 28.2016 34.6699 28.2016H31.8465V27.1157H34.6699C35.0289 27.1157 35.3199 26.8247 35.3199 26.4657V23.8656Z" fill="white" stroke="#AFAFAF" stroke-width="1.3" stroke-linejoin="round"/>
<path d="M25.8729 18.7888C25.5139 18.7888 25.2229 19.0799 25.2229 19.4388V22.9636C24.7076 22.7277 24.1491 22.6365 23.5727 22.6365C21.9751 22.6365 20.6819 23.4396 19.8966 24.6134C19.6075 24.1799 19.2498 23.8031 18.8251 23.4958C18.012 22.9075 16.9937 22.603 15.8283 22.603C14.6215 22.603 13.5451 22.9454 12.7059 23.5681C12.6411 23.2775 12.3817 23.0602 12.0715 23.0602H9.19442V22.6961H12.3935C12.7525 22.6961 13.0435 22.4051 13.0435 22.0461V19.4388C13.0435 19.0799 12.7525 18.7888 12.3935 18.7888H5.40051C5.04153 18.7888 4.75051 19.0799 4.75051 19.4388V31.1357C4.75051 31.4947 5.04153 31.7857 5.40051 31.7857H8.54442C8.9034 31.7857 9.19442 31.4947 9.19442 31.1357V26.8691H10.908C10.8927 27.0349 10.8848 27.2038 10.8848 27.3754C10.8848 30.2057 13.0948 32.1776 15.8283 32.1776C16.9429 32.1776 17.9139 31.9179 18.7149 31.3852C19.1857 31.072 19.5816 30.6752 19.9077 30.2079C20.7 31.3861 21.9999 32.2111 23.6032 32.2111C24.2819 32.2111 24.9274 32.0104 25.4701 31.6475C25.5808 31.7347 25.7205 31.7868 25.8723 31.7868H28.6436C29.0026 31.7868 29.2936 31.4958 29.2936 31.1368V19.4388C29.2936 19.0799 29.0026 18.7888 28.6436 18.7888H25.8729ZM15.8283 28.8936C15.5823 28.8936 15.3465 28.7805 15.1747 28.602H16.5922C16.4799 28.7463 16.4125 28.7949 16.3598 28.8212C16.2893 28.8563 16.159 28.8936 15.8283 28.8936ZM24.1905 28.7051C23.6556 28.7051 23.1838 28.1978 23.1838 27.432C23.1838 27.0105 23.2963 26.6374 23.4755 26.3885C23.6404 26.1595 23.8653 26.0227 24.1905 26.0227C24.5378 26.0227 24.7393 26.1598 24.8806 26.3707C25.0429 26.6127 25.1417 26.9871 25.1417 27.432C25.1417 27.8364 25.0418 28.1695 24.8856 28.3831C24.7481 28.5712 24.5431 28.7051 24.1905 28.7051Z" fill="white" stroke="#AFAFAF" stroke-width="1.3" stroke-linejoin="round"/>
<rect x="0.75" y="0.75" width="48.5" height="48.5" rx="1.25" stroke="#AFAFAF" stroke-width="1.5"/>
</svg>
