<svg width="60" height="60" viewBox="0 0 60 60" fill="none" xmlns="http://www.w3.org/2000/svg">
<path d="M27.5 1.44338C29.047 0.550211 30.953 0.550212 32.5 1.44338L53.4808 13.5566C55.0278 14.4498 55.9808 16.1004 55.9808 17.8868V42.1133C55.9808 43.8996 55.0278 45.5502 53.4808 46.4434L32.5 58.5566C30.953 59.4498 29.047 59.4498 27.5 58.5566L6.51924 46.4434C4.97223 45.5502 4.01924 43.8996 4.01924 42.1133V17.8868C4.01924 16.1004 4.97223 14.4498 6.51924 13.5566L27.5 1.44338Z" fill="#F0AD4E"/>
<path d="M17.75 39.75C17.75 40.718 18.532 41.5 19.5 41.5H28.25V32.75H17.75V39.75ZM31.75 41.5H40.5C41.468 41.5 42.25 40.718 42.25 39.75V32.75H31.75V41.5ZM42.25 24H39.9477C40.2867 23.3383 40.5 22.6055 40.5 21.8125C40.5 19.1602 38.3398 17 35.6875 17C33.4125 17 31.9414 18.1648 30.0547 20.7352C28.168 18.1648 26.6969 17 24.4219 17C21.7695 17 19.6094 19.1602 19.6094 21.8125C19.6094 22.6055 19.8172 23.3383 20.1617 24H17.75C16.782 24 16 24.782 16 25.75V30.125C16 30.6062 16.3937 31 16.875 31H43.125C43.6063 31 44 30.6062 44 30.125V25.75C44 24.782 43.218 24 42.25 24ZM24.4164 24C23.2078 24 22.2289 23.0211 22.2289 21.8125C22.2289 20.6039 23.2078 19.625 24.4164 19.625C25.5047 19.625 26.3086 19.8055 29.125 24H24.4164ZM35.6875 24H30.9789C33.7898 19.8164 34.5719 19.625 35.6875 19.625C36.8961 19.625 37.875 20.6039 37.875 21.8125C37.875 23.0211 36.8961 24 35.6875 24Z" fill="white"/>
</svg>
