<svg width="50" height="50" viewBox="0 0 50 50" fill="none" xmlns="http://www.w3.org/2000/svg">
<path d="M42.49 48.5H7.59998V1.5H34.6259L42.49 9.3641V48.5ZM9.26141 46.8386H40.8286V10.0656L33.9244 3.16143H9.26141V46.8386Z" fill="#AFAFAF"/>
<path d="M41.6407 10.5456H33.4443V2.31226H35.1057V8.88413H41.6407V10.5456Z" fill="#AFAFAF"/>
<path d="M25.0267 8.88416H13.2121V10.5456H25.0267V8.88416Z" fill="#AFAFAF"/>
<path d="M36.103 26.5322H13.9506V28.1937H36.103V26.5322Z" fill="#AFAFAF"/>
<path d="M37.0625 30.2244H13.064V31.8858H37.0625V30.2244Z" fill="#AFAFAF"/>
<path d="M37.0625 33.9164H13.064V35.5778H37.0625V33.9164Z" fill="#AFAFAF"/>
<path d="M37.0625 37.6084H13.064V39.2698H37.0625V37.6084Z" fill="#AFAFAF"/>
<path d="M37.0625 41.3005H13.064V42.962H37.0625V41.3005Z" fill="#AFAFAF"/>
<path d="M36.9518 28.1937H13.1379V17.376H14.7994V26.5323H35.2903V17.376H36.9518V28.1937Z" fill="#AFAFAF"/>
<path d="M36.9518 18.1882H13.1379V12.5763H36.9518V18.1882ZM14.7994 16.5268H35.2903V14.2377H14.7994V16.5268Z" fill="#AFAFAF"/>
<path d="M31.4136 13.4255H29.7522V27.3446H31.4136V13.4255Z" fill="#AFAFAF"/>
<path d="M25.8754 13.4255H24.2139V27.3446H25.8754V13.4255Z" fill="#AFAFAF"/>
</svg>
