<svg width="56" height="56" viewBox="0 0 56 56" fill="none" xmlns="http://www.w3.org/2000/svg">
<path d="M25.3665 0.688904C26.9574 -0.229634 28.9176 -0.229635 30.5085 0.688904L50.304 12.1179C51.8949 13.0364 52.875 14.7339 52.875 16.571V39.429C52.875 41.2661 51.8949 42.9636 50.304 43.8821L30.5085 55.3111C28.9176 56.2296 26.9574 56.2296 25.3665 55.3111L5.57101 43.8821C3.98007 42.9636 3 41.2661 3 39.429V16.571C3 14.7339 3.98006 13.0364 5.57101 12.1179L25.3665 0.688904Z" fill="#D2D4D9"/>
<path fill-rule="evenodd" clip-rule="evenodd" d="M17.8004 17.8C16.8986 17.8 16.0337 18.1583 15.3961 18.7959C14.7584 19.4335 14.4001 20.2983 14.4001 21.2V28C14.4001 28.9018 14.7584 29.7666 15.3961 30.4042C16.0337 31.0418 16.8986 31.4001 17.8004 31.4001V21.2H34.8017C34.8017 20.2983 34.4435 19.4335 33.8058 18.7959C33.1681 18.1583 32.3033 17.8 31.4015 17.8H17.8004ZM21.2007 28C21.2007 27.0983 21.5589 26.2335 22.1966 25.5959C22.8343 24.9583 23.6991 24.6 24.6009 24.6H38.202C39.1038 24.6 39.9687 24.9583 40.6063 25.5959C41.244 26.2335 41.6022 27.0983 41.6022 28V34.8001C41.6022 35.7018 41.244 36.5666 40.6063 37.2042C39.9687 37.8418 39.1038 38.2001 38.202 38.2001H24.6009C23.6991 38.2001 22.8343 37.8418 22.1966 37.2042C21.5589 36.5666 21.2007 35.7018 21.2007 34.8001V28ZM31.4015 34.8001C32.3033 34.8001 33.1681 34.4418 33.8058 33.8042C34.4435 33.1666 34.8017 32.3018 34.8017 31.4001C34.8017 30.4983 34.4435 29.6335 33.8058 28.9959C33.1681 28.3583 32.3033 28 31.4015 28C30.4997 28 29.6348 28.3583 28.9971 28.9959C28.3594 29.6335 28.0012 30.4983 28.0012 31.4001C28.0012 32.3018 28.3594 33.1666 28.9971 33.8042C29.6348 34.4418 30.4997 34.8001 31.4015 34.8001Z" fill="white"/>
</svg>
