<svg id="main" viewBox="0 0 24 24" fill="currentColor" xmlns="http://www.w3.org/2000/svg">
<path fill-rule="evenodd" clip-rule="evenodd" d="M12 24C15.1826 24 18.2348 22.7357 20.4853 20.4853C22.7357 18.2348 24 15.1826 24 12C24 8.8174 22.7357 5.76516 20.4853 3.51472C18.2348 1.26428 15.1826 0 12 0C8.8174 0 5.76516 1.26428 3.51472 3.51472C1.26428 5.76516 0 8.8174 0 12C0 15.1826 1.26428 18.2348 3.51472 20.4853C5.76516 22.7357 8.8174 24 12 24ZM17.5605 10.0605C17.8337 9.7776 17.9849 9.39869 17.9815 9.0054C17.9781 8.6121 17.8203 8.23588 17.5422 7.95777C17.2641 7.67966 16.8879 7.52191 16.4946 7.51849C16.1013 7.51507 15.7224 7.66626 15.4395 7.9395L10.5 12.879L8.5605 10.9395C8.2776 10.6663 7.89869 10.5151 7.5054 10.5185C7.1121 10.5219 6.73588 10.6797 6.45777 10.9578C6.17966 11.2359 6.02191 11.6121 6.01849 12.0054C6.01507 12.3987 6.16626 12.7776 6.4395 13.0605L9.4395 16.0605C9.72079 16.3417 10.1023 16.4997 10.5 16.4997C10.8977 16.4997 11.2792 16.3417 11.5605 16.0605L17.5605 10.0605Z"/>
</svg>
