<svg id="main" viewBox="0 0 16 16" fill="currentColor" xmlns="http://www.w3.org/2000/svg">
<g clip-path="url(#clip0_11957_1996)">
<path d="M9.61547 3.17486C9.66431 3.11206 9.68525 3.07717 9.72014 3.04228C10.5714 2.18402 11.4297 1.33273 12.281 0.481447C12.8392 -0.0697961 13.6347 -0.153529 14.2557 0.279092C14.2836 0.300025 14.3185 0.320958 14.3464 0.348869C14.779 0.774513 15.2256 1.1862 15.6303 1.63278C16.1676 2.23984 16.1118 3.11904 15.5396 3.69819C14.6813 4.55646 13.8161 5.41472 12.9508 6.27996C12.9159 6.31485 12.8741 6.32881 12.8183 6.3637C13.1113 6.65676 13.3765 6.90796 13.6347 7.16614C14.0812 7.61271 14.5348 8.05929 14.9814 8.51285C15.6303 9.16875 15.6233 10.0898 14.9674 10.7388C13.3835 12.3227 11.7995 13.9067 10.2086 15.4976C9.54569 16.1605 8.61765 16.1605 7.95476 15.4976C5.45673 13.0065 2.95869 10.5085 0.467629 8.01742C-0.0905918 7.4592 -0.153392 6.6149 0.314118 6.00085C0.355985 5.93805 0.411807 5.88921 0.460651 5.83339C2.06554 4.22152 3.6774 2.61664 5.28926 1.00478C5.8405 0.453536 6.6569 0.390736 7.27792 0.837312C7.36863 0.900112 7.45237 0.983845 7.52912 1.0606C8.18503 1.71651 8.84094 2.37242 9.48987 3.02135C9.52476 3.06322 9.55965 3.10508 9.61547 3.17486ZM12.5671 10.983C12.909 10.6411 12.9997 10.5504 13.3416 10.2084C13.7044 9.8456 13.7044 9.39902 13.3416 9.03618C12.4903 8.18489 11.639 7.3336 10.7877 6.48232C10.7598 6.45441 10.7249 6.41952 10.697 6.38463C11.018 6.06365 11.339 5.74965 11.66 5.42868C12.4903 4.59832 13.3207 3.76797 14.151 2.93762C14.3743 2.71433 14.3743 2.51197 14.158 2.29566C14.0115 2.14913 13.8719 2.00958 13.7254 1.86304C13.4951 1.63278 13.2997 1.63278 13.0695 1.86304C11.953 2.97948 10.8366 4.09592 9.72014 5.20539C9.68525 5.24028 9.65036 5.26819 9.60151 5.31703C9.56663 5.27517 9.53871 5.24028 9.50383 5.20539C8.65254 4.34712 7.80125 3.48886 6.94299 2.63757C6.60108 2.29566 6.14752 2.29566 5.80561 2.63757C5.47766 2.96553 5.4009 3.04228 5.07295 3.37024C5.05202 3.39117 5.03108 3.41908 5.01713 3.44002C7.5361 5.95201 10.0481 8.464 12.5671 10.983ZM7.9757 13.3973C8.15712 13.5787 8.32458 13.7392 8.48507 13.8997C8.84792 14.2625 9.28752 14.2625 9.65036 13.8997C10.1528 13.4043 10.8924 12.6576 11.3948 12.1552C11.4227 12.1273 11.4436 12.0994 11.4576 12.0855C8.93863 9.56649 6.42663 7.05449 3.90766 4.53552C3.91464 4.53552 3.90069 4.53552 3.89371 4.5425C3.34944 5.08677 2.55398 5.86828 2.02367 6.41952C1.76549 6.69165 1.75851 7.11032 2.00274 7.3964C2.18416 7.60574 2.40047 7.78716 2.6098 7.98951C2.95869 7.64063 3.06336 7.52898 3.40527 7.18009C3.77509 7.54294 4.13095 7.8988 4.50077 8.26862C4.15189 8.61751 4.04024 8.72218 3.69833 9.07107C4.0542 9.42693 4.41006 9.7828 4.77291 10.1456C5.19855 9.71302 5.63815 9.2804 6.25219 8.65938C6.60806 9.01524 6.96392 9.37111 7.34072 9.74791C6.71272 10.3689 6.27312 10.8016 5.85446 11.2202C6.21032 11.5761 6.56619 11.9319 6.92903 12.3018C7.27792 11.9529 7.38259 11.8482 7.73148 11.4993C8.08734 11.8552 8.44321 12.2111 8.79907 12.5669C8.45716 12.9228 8.34552 13.0275 7.9757 13.3973Z"/>
</g>
<defs>
<clipPath id="clip0_11957_1996">
<rect width="16" height="16"/>
</clipPath>
</defs>
</svg>
