<svg id="main" viewBox="0 0 16 16" fill="currentColor" xmlns="http://www.w3.org/2000/svg">
<path d="M8.146 0.55896C4.13232 0.55896 0.880371 3.81091 0.880371 7.82458C0.880371 11.8383 4.13232 15.0902 8.146 15.0902C12.1597 15.0902 15.4116 11.8383 15.4116 7.82458C15.4116 3.81091 12.1597 0.55896 8.146 0.55896ZM8.146 13.684C4.90869 13.684 2.28662 11.0619 2.28662 7.82458C2.28662 4.58728 4.90869 1.96521 8.146 1.96521C11.3833 1.96521 14.0054 4.58728 14.0054 7.82458C14.0054 11.0619 11.3833 13.684 8.146 13.684ZM9.95654 10.6254L7.46924 8.81775C7.37842 8.75037 7.32568 8.6449 7.32568 8.53357V3.72302C7.32568 3.52966 7.48389 3.37146 7.67725 3.37146H8.61475C8.80811 3.37146 8.96631 3.52966 8.96631 3.72302V7.87439L10.9233 9.29822C11.0815 9.41248 11.1138 9.6322 10.9995 9.79041L10.4487 10.5492C10.3345 10.7045 10.1147 10.7396 9.95654 10.6254Z"/>
</svg>
