<svg id="main" width="10" height="10" viewBox="0 0 10 10" fill="currentColor" xmlns="http://www.w3.org/2000/svg">
<path fill-rule="evenodd" clip-rule="evenodd" d="M6.56853 5.00002L6.92296 5.35431L6.92246 5.35786L9.83781 8.27199C10.0541 8.48821 10.0541 8.83873 9.83781 9.05492L9.05457 9.83786C8.83829 10.054 8.48759 10.054 8.27131 9.83786L4.99997 6.56791L1.72863 9.83786C1.51235 10.054 1.16165 10.054 0.94537 9.83786L0.162131 9.05492C-0.0541507 8.83873 -0.0541507 8.48821 0.162131 8.27199L3.07746 5.35788L3.07695 5.35431L3.4314 5.00001L3.07694 4.64569L3.07744 4.64214L0.162089 1.72801C-0.0541925 1.51179 -0.0541925 1.16127 0.162089 0.945075L0.945329 0.162143C1.16161 -0.0540477 1.51231 -0.0540477 1.72859 0.162143L4.99996 3.43212L8.27133 0.162143C8.48761 -0.0540477 8.8383 -0.0540477 9.05459 0.162143L9.83783 0.945075C10.0541 1.16127 10.0541 1.51179 9.83783 1.72801L6.9225 4.64212L6.92301 4.64569L6.56853 5.00002Z"/>
</svg>
