<svg id="main" viewBox="0 0 22 21" fill="currentColor" xmlns="http://www.w3.org/2000/svg">
<path fill-rule="evenodd" clip-rule="evenodd" d="M20.2557 0.292893C19.8652 -0.0976316 19.232 -0.0976306 18.8415 0.292894L10.9996 8.13478L3.18863 0.323802C2.7981 -0.0667224 2.16494 -0.0667224 1.77441 0.323802L1.06731 1.03091C0.676783 1.42143 0.676783 2.0546 1.06731 2.44512L8.87829 10.2561L1.47994 17.6544C1.08942 18.045 1.08942 18.6781 1.47994 19.0687L2.18705 19.7758C2.57757 20.1663 3.21074 20.1663 3.60126 19.7758L10.9996 12.3774L19.0117 20.3895C19.4022 20.78 20.0354 20.78 20.4259 20.3895L21.133 19.6824C21.5235 19.2919 21.5235 18.6587 21.133 18.2682L13.1209 10.2561L20.9628 2.41421C21.3533 2.02369 21.3533 1.39052 20.9628 0.999999L20.2557 0.292893Z"/>
</svg>
