<svg id="main" viewBox="0 0 16 16" fill="currentColor" xmlns="http://www.w3.org/2000/svg">
<path d="M6.39997 9.19999C6.39997 8.79549 6.43297 8.98174 4.27322 4.66224C3.83197 3.77999 2.56847 3.77824 2.12647 4.66224C-0.0515259 9.01874 0.000474215 8.80824 0.000474215 9.19999C0.000474215 10.3045 1.43272 11.2 3.19997 11.2C4.96722 11.2 6.39997 10.3045 6.39997 9.19999ZM3.19997 5.19999L4.99997 8.79999H1.39997L3.19997 5.19999ZM15.9995 9.19999C15.9995 8.79549 16.033 8.98174 13.8732 4.66224C13.432 3.77999 12.1685 3.77824 11.7265 4.66224C9.54847 9.01874 9.60047 8.80824 9.60047 9.19999C9.60047 10.3045 11.0327 11.2 12.8 11.2C14.5672 11.2 15.9995 10.3045 15.9995 9.19999ZM11 8.79999L12.8 5.19999L14.6 8.79999H11ZM13.2 13.6H8.79997V4.63124C9.38772 4.37399 9.82897 3.84424 9.95972 3.19999H13.2C13.421 3.19999 13.6 3.02099 13.6 2.79999V1.99999C13.6 1.77899 13.421 1.59999 13.2 1.59999H9.59097C9.22597 1.11699 8.65222 0.799988 7.99997 0.799988C7.34772 0.799988 6.77397 1.11699 6.40897 1.59999H2.79997C2.57897 1.59999 2.39997 1.77899 2.39997 1.99999V2.79999C2.39997 3.02099 2.57897 3.19999 2.79997 3.19999H6.04022C6.17097 3.84399 6.61197 4.37399 7.19997 4.63124V13.6H2.79997C2.57897 13.6 2.39997 13.779 2.39997 14V14.8C2.39997 15.021 2.57897 15.2 2.79997 15.2H13.2C13.421 15.2 13.6 15.021 13.6 14.8V14C13.6 13.779 13.421 13.6 13.2 13.6Z"/>
</svg>
