<svg id="main" viewBox="0 0 12 12" fill="currentColor" xmlns="http://www.w3.org/2000/svg">
<path d="M11.9188 2.43943C11.8647 2.21815 11.6626 2.0625 11.4313 2.0625H9.33135C9.33639 1.80718 9.33359 1.57646 9.3281 1.38533C9.31885 1.02952 9.0251 0.75 8.6626 0.75H3.3376C2.9751 0.75 2.68135 1.02952 2.67093 1.38533C2.64802 1.57646 2.6626 1.80718 2.66885 2.0625H0.568015C0.336765 2.0625 0.136286 2.21815 0.0815987 2.43943C0.064682 2.50916 -0.327193 4.17891 0.77239 5.79287C1.55239 6.93762 2.86822 7.74173 4.67864 8.20049C5.06822 8.29903 5.33301 8.65289 5.33301 9.0489C5.33343 9.5376 4.92718 9.9375 4.42927 9.9375H4.33343C3.78114 9.9375 3.33364 10.3782 3.33364 10.9219C3.33364 11.1031 3.48287 11.25 3.64822 11.25H8.29614C8.48022 11.25 8.61072 11.1031 8.61072 10.9219C8.61072 10.3782 8.16322 9.9375 7.61093 9.9375H7.51418C7.0171 9.9375 6.61085 9.5376 6.61085 9.04849C6.61085 8.65248 6.87564 8.29852 7.26522 8.20008C9.07689 7.74193 10.3923 6.93782 11.1715 5.79246C12.3272 4.17891 11.9355 2.50916 11.9188 2.43943ZM1.61281 5.25762C1.03072 4.4127 0.979474 3.53291 1.00802 3.04688H2.68281C2.79445 4.26955 3.10677 5.73545 3.88427 6.9249C2.8626 6.525 2.10218 5.96719 1.61281 5.25762ZM10.3876 5.25762C9.89926 5.96719 9.13885 6.52397 8.11677 6.92326C8.89385 5.73545 9.20635 4.26914 9.31676 3.04688H10.9916C11.0022 3.53291 10.9688 4.41475 10.3876 5.25762Z"/>
</svg>
