<svg id="main" viewBox="0 0 14 15" fill="currentColor" xmlns="http://www.w3.org/2000/svg">
<path d="M9.65364 7.50098L13.6337 3.52092C14.1221 3.03251 14.1221 2.24064 13.6337 1.75183L12.7491 0.867283C12.2607 0.378874 11.4689 0.378874 10.9801 0.867283L7 4.84734L3.01994 0.867283C2.53153 0.378874 1.73966 0.378874 1.25085 0.867283L0.366307 1.75183C-0.122102 2.24024 -0.122102 3.03211 0.366307 3.52092L4.34636 7.50098L0.366307 11.481C-0.122102 11.9694 -0.122102 12.7613 0.366307 13.2501L1.25085 14.1347C1.73926 14.6231 2.53153 14.6231 3.01994 14.1347L7 10.1546L10.9801 14.1347C11.4685 14.6231 12.2607 14.6231 12.7491 14.1347L13.6337 13.2501C14.1221 12.7617 14.1221 11.9698 13.6337 11.481L9.65364 7.50098Z"/>
</svg>