<svg id="main" viewBox="0 0 24 24" fill="currentColor" xmlns="http://www.w3.org/2000/svg">
<path fill-rule="evenodd" clip-rule="evenodd" d="M24 12C24 15.1826 22.7357 18.2348 20.4853 20.4853C18.2348 22.7357 15.1826 24 12 24C8.8174 24 5.76516 22.7357 3.51472 20.4853C1.26428 18.2348 0 15.1826 0 12C0 8.8174 1.26428 5.76516 3.51472 3.51472C5.76516 1.26428 8.8174 0 12 0C15.1826 0 18.2348 1.26428 20.4853 3.51472C22.7357 5.76516 24 8.8174 24 12ZM13.5 6C13.5 6.39782 13.342 6.77936 13.0607 7.06066C12.7794 7.34196 12.3978 7.5 12 7.5C11.6022 7.5 11.2206 7.34196 10.9393 7.06066C10.658 6.77936 10.5 6.39782 10.5 6C10.5 5.60218 10.658 5.22064 10.9393 4.93934C11.2206 4.65804 11.6022 4.5 12 4.5C12.3978 4.5 12.7794 4.65804 13.0607 4.93934C13.342 5.22064 13.5 5.60218 13.5 6ZM10.5 10.5C10.1022 10.5 9.72064 10.658 9.43934 10.9393C9.15804 11.2206 9 11.6022 9 12C9 12.3978 9.15804 12.7794 9.43934 13.0607C9.72064 13.342 10.1022 13.5 10.5 13.5V18C10.5 18.3978 10.658 18.7794 10.9393 19.0607C11.2206 19.342 11.6022 19.5 12 19.5H13.5C13.8978 19.5 14.2794 19.342 14.5607 19.0607C14.842 18.7794 15 18.3978 15 18C15 17.6022 14.842 17.2206 14.5607 16.9393C14.2794 16.658 13.8978 16.5 13.5 16.5V12C13.5 11.6022 13.342 11.2206 13.0607 10.9393C12.7794 10.658 12.3978 10.5 12 10.5H10.5Z"/>
</svg>
