<svg id="main" viewBox="0 0 10 10" fill="currentColor" xmlns="http://www.w3.org/2000/svg">
<path d="M7.5 6.25C7.15488 6.25 6.875 6.52988 6.875 6.875V8.75H1.25V3.125H3.125C3.47012 3.125 3.75 2.84531 3.75 2.5C3.75 2.15469 3.47012 1.875 3.125 1.875H1.25C0.55957 1.875 0 2.43457 0 3.125V8.75C0 9.44023 0.55957 10 1.25 10H6.875C7.56543 10 8.125 9.44023 8.125 8.75V6.875C8.125 6.5293 7.8457 6.25 7.5 6.25ZM9.53125 0H6.875C6.62227 0 6.39414 0.152285 6.29766 0.385742C6.20061 0.619531 6.25432 0.888086 6.43316 1.06699L7.24219 1.875L3.30859 5.80859C3.06445 6.05273 3.06445 6.44824 3.30859 6.69238C3.42969 6.81445 3.58984 6.875 3.75 6.875C3.91016 6.875 4.06992 6.81396 4.1918 6.69189L8.125 2.75977L8.9332 3.56797C9.11203 3.7465 9.38008 3.79922 9.61445 3.70348C9.84766 3.60547 10 3.37695 10 3.125V0.46875C10 0.209766 9.79102 0 9.53125 0Z"/>
</svg>
