<svg id="main" viewBox="0 0 16 16" fill="currentColor" xmlns="http://www.w3.org/2000/svg">
<path d="M9.76596 6.29822L9.76596 1.19337C9.76596 0.566938 9.25813 0.0591068 8.63144 0.0588516L7.49691 0.0588526C6.87048 0.0588524 6.36265 0.566683 6.36239 1.19337L6.36239 6.29822L1.25755 6.29822C0.631112 6.29822 0.123281 6.80605 0.123026 7.43274L0.123026 8.56726C0.123026 9.1937 0.630857 9.70153 1.25755 9.70178L6.36239 9.70178L6.36239 14.8066C6.36239 15.4331 6.87022 15.9409 7.49691 15.9411L8.63144 15.9411C9.25787 15.9411 9.76596 15.4331 9.76596 14.8066L9.76596 9.70178H14.8708C15.4972 9.70178 16.0053 9.1937 16.0053 8.56726V7.43274C16.0053 6.8063 15.4975 6.29847 14.8708 6.29822H9.76596Z"/>
</svg>