<svg id="main" width="54" height="54" viewBox="0 0 54 54" fill="none" xmlns="http://www.w3.org/2000/svg">
<path d="M24.5 1.44338C26.047 0.550212 27.953 0.550212 29.5 1.44338L47.8827 12.0566C49.4297 12.9498 50.3827 14.6004 50.3827 16.3868V37.6132C50.3827 39.3996 49.4297 41.0502 47.8827 41.9434L29.5 52.5566C27.953 53.4498 26.047 53.4498 24.5 52.5566L6.11731 41.9434C4.57031 41.0502 3.61731 39.3996 3.61731 37.6132V16.3868C3.61731 14.6004 4.57031 12.9498 6.11731 12.0566L24.5 1.44338Z" fill="currentColor"/>
<path fill-rule="evenodd" clip-rule="evenodd" d="M37.08 24.48C37.0804 25.6609 36.8041 26.8254 36.2734 27.8802C35.7426 28.935 34.9722 29.8509 34.0237 30.5543C33.0753 31.2578 31.9753 31.7293 30.8118 31.931C29.6483 32.1328 28.4538 32.0592 27.3239 31.7162L27 32.04L25.74 33.3L24.48 34.56H21.96V37.08H16.92V32.04L22.2839 26.6762C21.9694 25.6367 21.8826 24.5417 22.0294 23.4657C22.1762 22.3896 22.553 21.3578 23.1344 20.4405C23.7157 19.5232 24.4878 18.7419 25.3982 18.1498C26.3086 17.5577 27.3359 17.1687 28.4101 17.0092C29.4843 16.8498 30.5803 16.9237 31.6234 17.2258C32.6665 17.528 33.6323 18.0513 34.455 18.7602C35.2777 19.4691 35.938 20.347 36.391 21.334C36.844 22.321 37.079 23.394 37.08 24.48V24.48ZM29.52 19.44C29.1859 19.44 28.8654 19.5728 28.6291 19.8091C28.3928 20.0454 28.26 20.3658 28.26 20.7C28.26 21.0342 28.3928 21.3547 28.6291 21.591C28.8654 21.8273 29.1859 21.96 29.52 21.96C30.1884 21.96 30.8294 22.2255 31.302 22.6981C31.7745 23.1707 32.04 23.8117 32.04 24.48C32.04 24.8142 32.1728 25.1347 32.4091 25.371C32.6454 25.6073 32.9659 25.74 33.3 25.74C33.6342 25.74 33.9547 25.6073 34.191 25.371C34.4273 25.1347 34.56 24.8142 34.56 24.48C34.56 23.1433 34.029 21.8614 33.0839 20.9162C32.1387 19.971 30.8567 19.44 29.52 19.44Z" fill="white"/>
</svg>
