<svg width="56" height="56" viewBox="0 0 56 56" fill="none" xmlns="http://www.w3.org/2000/svg">
<path d="M25.3665 0.688904C26.9574 -0.229634 28.9176 -0.229635 30.5085 0.688904L50.304 12.1179C51.8949 13.0364 52.875 14.7339 52.875 16.571V39.429C52.875 41.2661 51.8949 42.9636 50.304 43.8821L30.5085 55.3111C28.9176 56.2296 26.9574 56.2296 25.3665 55.3111L5.57101 43.8821C3.98007 42.9636 3 41.2661 3 39.429V16.571C3 14.7339 3.98006 13.0364 5.57101 12.1179L25.3665 0.688904Z" fill="#D2D4D9"/>
<path d="M29.7014 39.9C29.7015 40.1896 29.7757 40.4745 29.9169 40.7274C30.058 40.9804 30.2615 41.1931 30.5079 41.3453C30.7544 41.4976 31.0356 41.5843 31.325 41.5973C31.6144 41.6104 31.9023 41.5493 32.1615 41.4198L38.962 38.0198C39.2444 37.8787 39.4819 37.6618 39.6479 37.3934C39.814 37.1249 39.902 36.8156 39.9022 36.5V26.7012C39.902 26.4115 39.8279 26.1267 39.6867 25.8737C39.5455 25.6208 39.3421 25.4081 39.0956 25.2558C38.8492 25.1036 38.5679 25.0168 38.2785 25.0038C37.9892 24.9908 37.7012 25.0519 37.4421 25.1814L30.6416 28.5814C30.3592 28.7225 30.1217 28.9394 29.9557 29.2078C29.7896 29.4762 29.7016 29.7855 29.7014 30.1012V39.9ZM36.8606 21.6692C37.1427 21.5278 37.3798 21.3108 37.5455 21.0424C37.7112 20.774 37.799 20.4648 37.799 20.1494C37.799 19.8339 37.7112 19.5247 37.5455 19.2563C37.3798 18.9879 37.1427 18.7709 36.8606 18.6296L28.7612 14.5802C28.5252 14.4623 28.2651 14.4009 28.0013 14.4009C27.7375 14.4009 27.4773 14.4623 27.2413 14.5802L19.1419 18.6296C18.8599 18.7709 18.6227 18.9879 18.457 19.2563C18.2913 19.5247 18.2035 19.8339 18.2035 20.1494C18.2035 20.4648 18.2913 20.774 18.457 21.0424C18.6227 21.3108 18.8599 21.5278 19.1419 21.6692L27.2413 25.7186C27.4773 25.8365 27.7375 25.8979 28.0013 25.8979C28.2651 25.8979 28.5252 25.8365 28.7612 25.7186L36.8606 21.6692V21.6692ZM18.5604 25.1814C18.3013 25.0519 18.0134 24.9908 17.724 25.0038C17.4346 25.0168 17.1533 25.1036 16.9069 25.2558C16.6604 25.4081 16.457 25.6208 16.3158 25.8737C16.1747 26.1267 16.1005 26.4115 16.1003 26.7012V36.5C16.1005 36.8156 16.1885 37.1249 16.3546 37.3934C16.5207 37.6618 16.7582 37.8787 17.0405 38.0198L23.841 41.4198C24.1002 41.5493 24.3881 41.6104 24.6775 41.5973C24.9669 41.5843 25.2482 41.4976 25.4946 41.3453C25.741 41.1931 25.9445 40.9804 26.0856 40.7274C26.2268 40.4745 26.301 40.1896 26.3011 39.9V30.1012C26.301 29.7855 26.2129 29.4762 26.0469 29.2078C25.8808 28.9394 25.6433 28.7225 25.361 28.5814L18.5604 25.1814V25.1814Z" fill="white"/>
</svg>
