<svg width="56" height="56" viewBox="0 0 56 56" fill="none" xmlns="http://www.w3.org/2000/svg">
<path d="M25.3665 0.688904C26.9574 -0.229634 28.9176 -0.229635 30.5085 0.688904L50.304 12.1179C51.8949 13.0364 52.875 14.7339 52.875 16.571V39.429C52.875 41.2661 51.8949 42.9636 50.304 43.8821L30.5085 55.3111C28.9176 56.2296 26.9574 56.2296 25.3665 55.3111L5.57101 43.8821C3.98007 42.9636 3 41.2661 3 39.429V16.571C3 14.7339 3.98006 13.0364 5.57101 12.1179L25.3665 0.688904Z" fill="#D2D4D9"/>
<path fill-rule="evenodd" clip-rule="evenodd" d="M17.8005 17.7999C17.8005 16.8982 18.1588 16.0334 18.7965 15.3957C19.4341 14.7581 20.299 14.3999 21.2008 14.3999H28.9976C29.8993 14.4001 30.7641 14.7584 31.4016 15.3961L37.2058 21.1999C37.8436 21.8374 38.2019 22.702 38.2021 23.6037V38.1999C38.2021 39.1016 37.8439 39.9664 37.2062 40.6041C36.5685 41.2417 35.7037 41.5999 34.8019 41.5999H21.2008C20.299 41.5999 19.4341 41.2417 18.7965 40.6041C18.1588 39.9664 17.8005 39.1016 17.8005 38.1999V17.7999ZM21.2008 27.9999C21.2008 27.549 21.3799 27.1166 21.6988 26.7978C22.0176 26.479 22.45 26.2999 22.9009 26.2999H33.1017C33.5526 26.2999 33.9851 26.479 34.3039 26.7978C34.6227 27.1166 34.8019 27.549 34.8019 27.9999C34.8019 28.4508 34.6227 28.8832 34.3039 29.202C33.9851 29.5208 33.5526 29.6999 33.1017 29.6999H22.9009C22.45 29.6999 22.0176 29.5208 21.6988 29.202C21.3799 28.8832 21.2008 28.4508 21.2008 27.9999ZM22.9009 33.0999C22.45 33.0999 22.0176 33.279 21.6988 33.5978C21.3799 33.9166 21.2008 34.349 21.2008 34.7999C21.2008 35.2508 21.3799 35.6832 21.6988 36.002C22.0176 36.3208 22.45 36.4999 22.9009 36.4999H33.1017C33.5526 36.4999 33.9851 36.3208 34.3039 36.002C34.6227 35.6832 34.8019 35.2508 34.8019 34.7999C34.8019 34.349 34.6227 33.9166 34.3039 33.5978C33.9851 33.279 33.5526 33.0999 33.1017 33.0999H22.9009Z" fill="white"/>
</svg>
