<svg width="56" height="56" viewBox="0 0 56 56" fill="none" xmlns="http://www.w3.org/2000/svg">
<path d="M25.3665 0.688904C26.9574 -0.229634 28.9176 -0.229635 30.5085 0.688904L50.304 12.1179C51.8949 13.0364 52.875 14.7339 52.875 16.571V39.429C52.875 41.2661 51.8949 42.9636 50.304 43.8821L30.5085 55.3111C28.9176 56.2296 26.9574 56.2296 25.3665 55.3111L5.57101 43.8821C3.98007 42.9636 3 41.2661 3 39.429V16.571C3 14.7339 3.98006 13.0364 5.57101 12.1179L25.3665 0.688904Z" fill="#D2D4D9"/>
<path d="M24.6011 39.05C24.6011 39.7263 24.3324 40.3749 23.8542 40.8531C23.3759 41.3313 22.7273 41.6 22.0509 41.6C21.3746 41.6 20.7259 41.3313 20.2477 40.8531C19.7694 40.3749 19.5007 39.7263 19.5007 39.05C19.5007 38.3737 19.7694 37.7251 20.2477 37.2469C20.7259 36.7687 21.3746 36.5 22.0509 36.5C22.7273 36.5 23.3759 36.7687 23.8542 37.2469C24.3324 37.7251 24.6011 38.3737 24.6011 39.05ZM36.502 39.05C36.502 39.7263 36.2334 40.3749 35.7551 40.8531C35.2769 41.3313 34.6282 41.6 33.9519 41.6C33.2755 41.6 32.6268 41.3313 32.1486 40.8531C31.6703 40.3749 31.4017 39.7263 31.4017 39.05C31.4017 38.3737 31.6703 37.7251 32.1486 37.2469C32.6268 36.7687 33.2755 36.5 33.9519 36.5C34.6282 36.5 35.2769 36.7687 35.7551 37.2469C36.2334 37.7251 36.502 38.3737 36.502 39.05Z" fill="white"/>
<path d="M16.1003 17.8C15.6494 17.8 15.2169 17.9792 14.8981 18.298C14.5793 18.6168 14.4001 19.0492 14.4001 19.5V36.5001C14.4001 36.9509 14.5793 37.3833 14.8981 37.7021C15.2169 38.0209 15.6494 38.2001 16.1003 38.2001H17.8854C18.0805 37.2393 18.6018 36.3755 19.3609 35.7551C20.12 35.1347 21.0703 34.7958 22.0507 34.7958C23.0312 34.7958 23.9814 35.1347 24.7406 35.7551C25.4997 36.3755 26.021 37.2393 26.2161 38.2001H28.0012C28.4521 38.2001 28.8845 38.0209 29.2034 37.7021C29.5222 37.3833 29.7013 36.9509 29.7013 36.5001V19.5C29.7013 19.0492 29.5222 18.6168 29.2034 18.298C28.8845 17.9792 28.4521 17.8 28.0012 17.8H16.1003ZM34.8017 22.9C34.3508 22.9 33.9184 23.0792 33.5996 23.398C33.2807 23.7168 33.1016 24.1492 33.1016 24.6V34.8851C33.6486 34.7733 34.2123 34.7704 34.7604 34.8766C35.3085 34.9827 35.8303 35.1958 36.2961 35.5036C36.7618 35.8115 37.1624 36.208 37.4748 36.6707C37.7872 37.1334 38.0055 37.653 38.117 38.2001H39.9021C40.353 38.2001 40.7855 38.0209 41.1043 37.7021C41.4231 37.3833 41.6022 36.9509 41.6022 36.5001V28C41.6022 27.5492 41.423 27.1169 41.1041 26.7982L37.7038 23.3981C37.3851 23.0793 36.9527 22.9001 36.5019 22.9H34.8017Z" fill="white"/>
</svg>
