<svg id="main" viewBox="0 0 16 16" fill="currentColor" xmlns="http://www.w3.org/2000/svg">
<path d="M10.8192 4.80547L15.1729 5.43477C15.5334 5.48523 15.8364 5.73457 15.9515 6.07594C16.0667 6.42027 15.9727 6.79428 15.7122 7.04956L12.5552 10.0832L13.3005 14.4349C13.3611 14.7911 13.2127 15.1532 12.9097 15.364C12.6098 15.5747 12.2129 15.6015 11.8887 15.4323L7.99856 13.3989L4.11146 15.4323C3.78425 15.6015 3.38736 15.5747 3.08742 15.364C2.78748 15.1532 2.63599 14.7911 2.69962 14.4349L3.44492 10.0832L0.287369 7.04956C0.0265114 6.79428 -0.0661975 6.42027 0.0483252 6.07594C0.162545 5.73457 0.464606 5.48523 0.827867 5.43477L5.17791 4.80547L7.12904 0.877413C7.28961 0.550416 7.62894 0.342834 7.99856 0.342834C8.37121 0.342834 8.71054 0.550416 8.87111 0.877413L10.8192 4.80547Z"/>
</svg>