<svg width="54" height="54" viewBox="0 0 54 54" fill="none" xmlns="http://www.w3.org/2000/svg">
<path d="M24.5 1.44338C26.047 0.550212 27.953 0.550212 29.5 1.44338L47.8827 12.0566C49.4297 12.9498 50.3827 14.6004 50.3827 16.3868V37.6132C50.3827 39.3996 49.4297 41.0502 47.8827 41.9434L29.5 52.5566C27.953 53.4498 26.047 53.4498 24.5 52.5566L6.11731 41.9434C4.57031 41.0502 3.61731 39.3996 3.61731 37.6132V16.3868C3.61731 14.6004 4.57031 12.9498 6.11731 12.0566L24.5 1.44338Z" fill="#F0AD4E"/>
<path d="M37.2375 15.9508H16.7625C15.4577 15.9508 14.4 17.0085 14.4 18.3133V35.6383C14.4 36.9431 15.4577 38.0008 16.7625 38.0008H37.2375C38.5423 38.0008 39.6 36.9431 39.6 35.6383V18.3133C39.6 17.0085 38.5423 15.9508 37.2375 15.9508ZM36.9422 35.6383H17.0578C16.9795 35.6383 16.9044 35.6072 16.849 35.5518C16.7936 35.4964 16.7625 35.4213 16.7625 35.343V18.6086C16.7625 18.5303 16.7936 18.4552 16.849 18.3998C16.9044 18.3444 16.9795 18.3133 17.0578 18.3133H36.9422C37.0205 18.3133 37.0956 18.3444 37.151 18.3998C37.2064 18.4552 37.2375 18.5303 37.2375 18.6086V35.343C37.2375 35.4213 37.2064 35.4964 37.151 35.5518C37.0956 35.6072 37.0205 35.6383 36.9422 35.6383ZM34.875 31.1101V32.2914C34.875 32.6176 34.6106 32.882 34.2844 32.882H24.4406C24.1145 32.882 23.85 32.6176 23.85 32.2914V31.1101C23.85 30.784 24.1145 30.5195 24.4406 30.5195H34.2844C34.6106 30.5195 34.875 30.784 34.875 31.1101ZM34.875 26.3851V27.5664C34.875 27.8926 34.6106 28.157 34.2844 28.157H24.4406C24.1145 28.157 23.85 27.8926 23.85 27.5664V26.3851C23.85 26.059 24.1145 25.7945 24.4406 25.7945H34.2844C34.6106 25.7945 34.875 26.059 34.875 26.3851ZM34.875 21.6602V22.8414C34.875 23.1676 34.6106 23.432 34.2844 23.432H24.4406C24.1145 23.432 23.85 23.1676 23.85 22.8414V21.6602C23.85 21.334 24.1145 21.0695 24.4406 21.0695H34.2844C34.6106 21.0695 34.875 21.334 34.875 21.6602ZM22.4719 22.2508C22.4719 23.2293 21.6786 24.0226 20.7 24.0226C19.7215 24.0226 18.9281 23.2293 18.9281 22.2508C18.9281 21.2722 19.7215 20.4789 20.7 20.4789C21.6786 20.4789 22.4719 21.2722 22.4719 22.2508ZM22.4719 26.9758C22.4719 27.9543 21.6786 28.7476 20.7 28.7476C19.7215 28.7476 18.9281 27.9543 18.9281 26.9758C18.9281 25.9972 19.7215 25.2039 20.7 25.2039C21.6786 25.2039 22.4719 25.9972 22.4719 26.9758ZM22.4719 31.7008C22.4719 32.6793 21.6786 33.4726 20.7 33.4726C19.7215 33.4726 18.9281 32.6793 18.9281 31.7008C18.9281 30.7222 19.7215 29.9289 20.7 29.9289C21.6786 29.9289 22.4719 30.7222 22.4719 31.7008Z" fill="white"/>
</svg>
