<svg width="54" height="54" viewBox="0 0 54 54" fill="none" xmlns="http://www.w3.org/2000/svg">
<path d="M24.5 1.44338C26.047 0.550212 27.953 0.550212 29.5 1.44338L47.8827 12.0566C49.4297 12.9498 50.3827 14.6004 50.3827 16.3868V37.6132C50.3827 39.3996 49.4297 41.0502 47.8827 41.9434L29.5 52.5566C27.953 53.4498 26.047 53.4498 24.5 52.5566L6.11731 41.9434C4.57031 41.0502 3.61731 39.3996 3.61731 37.6132V16.3868C3.61731 14.6004 4.57031 12.9498 6.11731 12.0566L24.5 1.44338Z" fill="#F0AD4E"/>
<g clip-path="url(#clip0_5324_19398)">
<path d="M38.8124 33.3H22.2749V32.5125C22.2749 32.0794 21.9205 31.725 21.4874 31.725H19.9124C19.4793 31.725 19.1249 32.0794 19.1249 32.5125V33.3H15.1874C14.7543 33.3 14.3999 33.6544 14.3999 34.0875V35.6625C14.3999 36.0956 14.7543 36.45 15.1874 36.45H19.1249V37.2375C19.1249 37.6706 19.4793 38.025 19.9124 38.025H21.4874C21.9205 38.025 22.2749 37.6706 22.2749 37.2375V36.45H38.8124C39.2455 36.45 39.5999 36.0956 39.5999 35.6625V34.0875C39.5999 33.6544 39.2455 33.3 38.8124 33.3ZM38.8124 25.425H34.8749V24.6375C34.8749 24.2044 34.5205 23.85 34.0874 23.85H32.5124C32.0793 23.85 31.7249 24.2044 31.7249 24.6375V25.425H15.1874C14.7543 25.425 14.3999 25.7794 14.3999 26.2125V27.7875C14.3999 28.2206 14.7543 28.575 15.1874 28.575H31.7249V29.3625C31.7249 29.7956 32.0793 30.15 32.5124 30.15H34.0874C34.5205 30.15 34.8749 29.7956 34.8749 29.3625V28.575H38.8124C39.2455 28.575 39.5999 28.2206 39.5999 27.7875V26.2125C39.5999 25.7794 39.2455 25.425 38.8124 25.425ZM38.8124 17.55H28.5749V16.7625C28.5749 16.3294 28.2205 15.975 27.7874 15.975H26.2124C25.7793 15.975 25.4249 16.3294 25.4249 16.7625V17.55H15.1874C14.7543 17.55 14.3999 17.9044 14.3999 18.3375V19.9125C14.3999 20.3456 14.7543 20.7 15.1874 20.7H25.4249V21.4875C25.4249 21.9206 25.7793 22.275 26.2124 22.275H27.7874C28.2205 22.275 28.5749 21.9206 28.5749 21.4875V20.7H38.8124C39.2455 20.7 39.5999 20.3456 39.5999 19.9125V18.3375C39.5999 17.9044 39.2455 17.55 38.8124 17.55Z" fill="white"/>
</g>
<defs>
<clipPath id="clip0_5324_19398">
<rect width="25.2" height="25.2" fill="white" transform="translate(14.3999 14.4)"/>
</clipPath>
</defs>
</svg>
