<svg id="main" viewBox="0 0 26 26" fill="currentColor" xmlns="http://www.w3.org/2000/svg">
<path d="M24.8117 12.7055L19.9062 10.8672V5.35741C19.9062 4.59569 19.434 3.91522 18.718 3.64608L13.6398 1.74178C13.2285 1.58436 12.7715 1.58436 12.3551 1.74178L7.27695 3.64608C6.56094 3.91522 6.08867 4.59569 6.08867 5.35741V10.8672L1.1832 12.7055C0.472266 12.9746 0 13.6551 0 14.4168V20.0078C0 20.6984 0.391016 21.3332 1.01055 21.643L6.08867 24.182C6.60156 24.441 7.21094 24.441 7.72383 24.182L13 21.5414L18.2762 24.182C18.7891 24.441 19.3984 24.441 19.9113 24.182L24.9895 21.643C25.609 21.3332 26 20.6984 26 20.0078V14.4168C26 13.6551 25.5277 12.9746 24.8117 12.7055V12.7055ZM18.1797 10.9078L13.8633 12.5277V9.06444L18.1797 7.18553V10.9078ZM7.82031 5.28632L13 3.34647L18.1797 5.28632V5.31678L13 7.41913L7.82031 5.31678V5.28632ZM12.0859 20.0687L7.76953 22.2269V18.2101L12.0859 16.2398V20.0687ZM12.0859 14.3812L6.90625 16.4836L1.72656 14.3812V14.3508L6.90625 12.4109L12.0859 14.3508V14.3812ZM24.2734 20.0687L19.957 22.2269V18.2101L24.2734 16.2398V20.0687ZM24.2734 14.3812L19.0938 16.4836L13.9141 14.3812V14.3508L19.0938 12.4109L24.2734 14.3508V14.3812Z"/>
</svg>
