<svg id="main" viewBox="0 0 36 36" fill="currentColor" xmlns="http://www.w3.org/2000/svg">
<path d="M17.4724 13.1274C17.1329 12.7995 16.6782 12.6181 16.2063 12.6222C15.7343 12.6263 15.2829 12.8156 14.9491 13.1493C14.6154 13.483 14.4261 13.9345 14.422 14.4065C14.4179 14.8784 14.5993 15.3331 14.9272 15.6726L20.3272 21.0726C20.6648 21.41 21.1225 21.5996 21.5998 21.5996C22.0771 21.5996 22.5349 21.41 22.8724 21.0726L28.2724 15.6726C28.6003 15.3331 28.7817 14.8784 28.7776 14.4065C28.7735 13.9345 28.5842 13.483 28.2505 13.1493C27.9167 12.8156 27.4653 12.6263 26.9933 12.6222C26.5214 12.6181 26.0667 12.7995 25.7272 13.1274L23.3998 15.4548V8.99998H28.7998C29.7546 8.99998 30.6703 9.37926 31.3454 10.0544C32.0205 10.7295 32.3998 11.6452 32.3998 12.6V21.6C32.3998 22.5548 32.0205 23.4704 31.3454 24.1456C30.6703 24.8207 29.7546 25.2 28.7998 25.2H14.3998C13.445 25.2 12.5294 24.8207 11.8542 24.1456C11.1791 23.4704 10.7998 22.5548 10.7998 21.6V12.6C10.7998 11.6452 11.1791 10.7295 11.8542 10.0544C12.5294 9.37926 13.445 8.99998 14.3998 8.99998H19.7998V15.4548L17.4724 13.1274ZM19.7998 5.39998C19.7998 4.92259 19.9894 4.46475 20.327 4.12718C20.6646 3.78962 21.1224 3.59998 21.5998 3.59998C22.0772 3.59998 22.535 3.78962 22.8726 4.12718C23.2102 4.46475 23.3998 4.92259 23.3998 5.39998V8.99998H19.7998V5.39998Z"/>
<path d="M7.2001 16.2C6.24532 16.2 5.32964 16.5792 4.65451 17.2544C3.97938 17.9295 3.6001 18.8452 3.6001 19.8V28.7999C3.6001 29.7547 3.97938 30.6704 4.65451 31.3455C5.32964 32.0207 6.24532 32.4 7.2001 32.4H21.6001C22.5549 32.4 23.4705 32.0207 24.1457 31.3455C24.8208 30.6704 25.2001 29.7547 25.2001 28.7999H7.2001V16.2Z"/>
</svg>
