<svg id="main" viewBox="0 0 36 36" fill="currentColor" xmlns="http://www.w3.org/2000/svg">
<path d="M12.6001 5.40002C12.1227 5.40002 11.6649 5.58967 11.3273 5.92723C10.9897 6.2648 10.8001 6.72263 10.8001 7.20002C10.8001 7.67741 10.9897 8.13525 11.3273 8.47282C11.6649 8.81038 12.1227 9.00002 12.6001 9.00002H23.4001C23.8775 9.00002 24.3353 8.81038 24.6729 8.47282C25.0105 8.13525 25.2001 7.67741 25.2001 7.20002C25.2001 6.72263 25.0105 6.2648 24.6729 5.92723C24.3353 5.58967 23.8775 5.40002 23.4001 5.40002H12.6001ZM7.2001 12.6C7.2001 12.1226 7.38974 11.6648 7.72731 11.3272C8.06487 10.9897 8.52271 10.8 9.0001 10.8H27.0001C27.4775 10.8 27.9353 10.9897 28.2729 11.3272C28.6105 11.6648 28.8001 12.1226 28.8001 12.6C28.8001 13.0774 28.6105 13.5353 28.2729 13.8728C27.9353 14.2104 27.4775 14.4 27.0001 14.4H9.0001C8.52271 14.4 8.06487 14.2104 7.72731 13.8728C7.38974 13.5353 7.2001 13.0774 7.2001 12.6ZM3.6001 19.8C3.6001 18.8452 3.97938 17.9296 4.65451 17.2544C5.32964 16.5793 6.24532 16.2 7.2001 16.2H28.8001C29.7549 16.2 30.6705 16.5793 31.3457 17.2544C32.0208 17.9296 32.4001 18.8452 32.4001 19.8V27C32.4001 27.9548 32.0208 28.8705 31.3457 29.5456C30.6705 30.2207 29.7549 30.6 28.8001 30.6H7.2001C6.24532 30.6 5.32964 30.2207 4.65451 29.5456C3.97938 28.8705 3.6001 27.9548 3.6001 27V19.8Z" />
</svg>
