<svg id="main" viewBox="0 0 27 26" fill="currentColor" xmlns="http://www.w3.org/2000/svg">
<path d="M24.875 13C23.9777 13 23.25 13.7267 23.25 14.625C23.25 17.3133 21.0634 19.5 18.375 19.5H10.25V17.4687C10.25 16.9879 9.96674 16.5516 9.52738 16.3546C9.08711 16.1637 8.57422 16.2398 8.21367 16.5648L4.15117 20.2211C3.89676 20.4496 3.75 20.7797 3.75 21.125C3.75 21.4703 3.89681 21.7994 4.1531 22.0309L8.2156 25.6872C8.44219 25.8934 8.73672 26 9.03125 26C9.19944 26 9.36717 25.9651 9.52667 25.8953C9.96562 25.7004 10.25 25.2637 10.25 24.7812V22.75H18.375C22.8549 22.75 26.5 19.1049 26.5 14.625C26.5 13.7262 25.7738 13 24.875 13ZM8.625 6.49999H16.7043L16.75 8.53124C16.75 9.01208 17.0333 9.44835 17.4726 9.64538C17.6336 9.71444 17.8012 9.74999 17.923 9.74999C18.2182 9.74999 18.5106 9.64208 18.7391 9.43738L22.8016 5.78113C23.1027 5.55038 23.25 5.2203 23.25 4.82928C23.25 4.43827 23.1032 4.15491 22.8469 3.92335L18.7844 0.267095C18.4265 -0.0534361 17.9115 -0.132807 17.4727 0.0591968C17.0344 0.301525 16.7043 0.737837 16.7043 1.21874L16.75 3.24999H8.625C4.14508 3.24999 0.5 6.89608 0.5 11.375C0.5 12.2733 1.2277 13 2.125 13C3.0223 13 3.75 12.2733 3.75 11.375C3.75 8.68866 5.93867 6.49999 8.625 6.49999Z" />
</svg>