<svg id="main" xmlns="http://www.w3.org/2000/svg" viewBox="0 0 27 26" fill="currentColor">

<defs>
<clipPath id="clip0_11570_4889">
<rect width="26" height="26" fill="white" y="0" x="0.5" id="svg_1"/>
</clipPath>
</defs>
<g class="currentLayer" style=""><title>Layer 1</title><g clip-path="url(#clip0_11570_4889)" id="svg_2" class="">
<path d="M10.8999 14.1924C10.8999 13.535 10.9536 13.8377 7.44377 6.81815C6.7267 5.38442 4.6734 5.38157 3.95511 6.81815C0.415671 13.8978 0.500176 13.5558 0.500176 14.1924C0.500176 15.9873 2.82771 17.4426 5.69964 17.4426C8.57158 17.4426 10.8999 15.9873 10.8999 14.1924ZM5.69964 7.69204L8.6248 13.5424H2.77449L5.69964 7.69204ZM26.5 14.1924C26.5 13.535 26.5544 13.8377 23.0446 6.81815C22.3275 5.38442 20.2742 5.38157 19.556 6.81815C16.0165 13.8978 16.101 13.5558 16.101 14.1924C16.101 15.9873 18.4285 17.4426 21.3005 17.4426C24.1724 17.4426 26.5 15.9873 26.5 14.1924ZM18.3753 13.5424L21.3005 7.69204L24.2256 13.5424H18.3753ZM21.9505 22.4261H14.8001V6.76777C15.7553 6.34972 16.4723 5.48883 16.6848 4.44187H21.9505C22.3097 4.44187 22.6006 4.15098 22.6006 3.79183V2.49176C22.6006 2.13262 22.3097 1.84173 21.9505 1.84173H16.0856C15.4924 1.05681 14.56 0.541656 13.5001 0.541656C12.4401 0.541656 11.5077 1.05681 10.9145 1.84173H5.04961C4.69046 1.84173 4.39957 2.13262 4.39957 2.49176V3.79183C4.39957 4.15098 4.69046 4.44187 5.04961 4.44187H10.3153C10.5278 5.48842 11.2444 6.34972 12.2 6.76777V22.4261H5.04961C4.69046 22.4261 4.39957 22.717 4.39957 23.0761V24.3762C4.39957 24.7354 4.69046 25.0263 5.04961 25.0263H21.9505C22.3097 25.0263 22.6006 24.7354 22.6006 24.3762V23.0761C22.6006 22.717 22.3097 22.4261 21.9505 22.4261Z" id="svg_3"/>
</g></g></svg>
