<svg id="main" viewBox="0 0 36 36" fill="currentColor" xmlns="http://www.w3.org/2000/svg">
<path d="M3.60547 10.5912L18.0001 17.7875L32.3947 10.5912C32.3414 9.67395 31.9394 8.81183 31.2711 8.18136C30.6029 7.55089 29.7188 7.19978 28.8001 7.19995H7.20007C6.28132 7.19978 5.39727 7.55089 4.72899 8.18136C4.0607 8.81183 3.65876 9.67395 3.60547 10.5912Z"/>
<path d="M32.4001 14.6124L18.0001 21.8124L3.6001 14.6124V25.2C3.6001 26.1548 3.97938 27.0705 4.65451 27.7456C5.32964 28.4207 6.24532 28.8 7.2001 28.8H28.8001C29.7549 28.8 30.6705 28.4207 31.3457 27.7456C32.0208 27.0705 32.4001 26.1548 32.4001 25.2V14.6124Z"/>
</svg>
