<svg id="main" viewBox="0 0 36 36" fill="currentColor" xmlns="http://www.w3.org/2000/svg">
<path d="M8.9999 5.40002C8.04512 5.40002 7.12945 5.77931 6.45432 6.45444C5.77919 7.12957 5.3999 8.04525 5.3999 9.00002V12.6C5.3999 13.5548 5.77919 14.4705 6.45432 15.1456C7.12945 15.8207 8.04512 16.2 8.9999 16.2H12.5999C13.5547 16.2 14.4704 15.8207 15.1455 15.1456C15.8206 14.4705 16.1999 13.5548 16.1999 12.6V9.00002C16.1999 8.04525 15.8206 7.12957 15.1455 6.45444C14.4704 5.77931 13.5547 5.40002 12.5999 5.40002H8.9999ZM8.9999 19.8C8.04512 19.8 7.12945 20.1793 6.45432 20.8544C5.77919 21.5296 5.3999 22.4452 5.3999 23.4V27C5.3999 27.9548 5.77919 28.8705 6.45432 29.5456C7.12945 30.2207 8.04512 30.6 8.9999 30.6H12.5999C13.5547 30.6 14.4704 30.2207 15.1455 29.5456C15.8206 28.8705 16.1999 27.9548 16.1999 27V23.4C16.1999 22.4452 15.8206 21.5296 15.1455 20.8544C14.4704 20.1793 13.5547 19.8 12.5999 19.8H8.9999ZM19.7999 9.00002C19.7999 8.04525 20.1792 7.12957 20.8543 6.45444C21.5295 5.77931 22.4451 5.40002 23.3999 5.40002H26.9999C27.9547 5.40002 28.8704 5.77931 29.5455 6.45444C30.2206 7.12957 30.5999 8.04525 30.5999 9.00002V12.6C30.5999 13.5548 30.2206 14.4705 29.5455 15.1456C28.8704 15.8207 27.9547 16.2 26.9999 16.2H23.3999C22.4451 16.2 21.5295 15.8207 20.8543 15.1456C20.1792 14.4705 19.7999 13.5548 19.7999 12.6V9.00002ZM19.7999 23.4C19.7999 22.4452 20.1792 21.5296 20.8543 20.8544C21.5295 20.1793 22.4451 19.8 23.3999 19.8H26.9999C27.9547 19.8 28.8704 20.1793 29.5455 20.8544C30.2206 21.5296 30.5999 22.4452 30.5999 23.4V27C30.5999 27.9548 30.2206 28.8705 29.5455 29.5456C28.8704 30.2207 27.9547 30.6 26.9999 30.6H23.3999C22.4451 30.6 21.5295 30.2207 20.8543 29.5456C20.1792 28.8705 19.7999 27.9548 19.7999 27V23.4Z"/>
</svg>
