<svg id="main" viewBox="0 0 27 26" fill="currentColor" xmlns="http://www.w3.org/2000/svg">
<path d="M8.22383 1.9378C8.72149 2.38823 8.76211 3.15858 8.31016 3.65928L4.65594 7.72381C4.43199 7.96756 4.11613 8.11483 3.78199 8.07928C3.44785 8.13514 3.12488 8.00311 2.88824 7.72381L0.856941 5.69256C0.38102 5.26092 0.38102 4.48905 0.856941 4.01323C1.33281 3.53741 2.10469 3.53741 2.58051 4.01323L3.70328 5.13397L6.50234 2.02819C6.94922 1.52799 7.72109 1.48737 8.22383 1.9378ZM8.22383 10.0648C8.72149 10.5117 8.76211 11.2836 8.31016 11.7863L4.65594 15.8488C4.43199 16.0926 4.11613 16.2398 3.78199 16.2043C3.44785 16.2601 3.12488 16.1281 2.88824 15.8488L0.856941 13.8176C0.38102 13.3859 0.38102 12.614 0.856941 12.1367C1.33281 11.6644 2.10469 11.6644 2.58051 12.1367L3.70328 13.259L6.50234 10.1512C6.94922 9.6535 7.72109 9.61287 8.22383 10.0648ZM11.875 4.87498C11.875 3.97768 12.6012 3.24998 13.5 3.24998H24.875C25.7738 3.24998 26.5 3.97768 26.5 4.87498C26.5 5.77381 25.7738 6.49998 24.875 6.49998H13.5C12.6012 6.49998 11.875 5.77381 11.875 4.87498ZM11.875 13C11.875 12.1012 12.6012 11.375 13.5 11.375H24.875C25.7738 11.375 26.5 12.1012 26.5 13C26.5 13.8988 25.7738 14.625 24.875 14.625H13.5C12.6012 14.625 11.875 13.8988 11.875 13ZM8.625 21.125C8.625 20.2262 9.35117 19.5 10.25 19.5H24.875C25.7738 19.5 26.5 20.2262 26.5 21.125C26.5 22.0238 25.7738 22.75 24.875 22.75H10.25C9.35117 22.75 8.625 22.0238 8.625 21.125ZM0.5 21.125C0.5 19.7793 1.59129 18.6875 2.9375 18.6875C4.28371 18.6875 5.375 19.7793 5.375 21.125C5.375 22.4707 4.28371 23.5625 2.9375 23.5625C1.59129 23.5625 0.5 22.4707 0.5 21.125Z"/>
</svg>