<svg id="main" viewBox="0 0 26 26" fill="currentColor" xmlns="http://www.w3.org/2000/svg">
<path d="M16.1766 0V6.5H22.6398L16.1766 0ZM17.7924 13H8.09746V16.25H17.7924V13ZM14.5607 6.5V0H5.67373C4.33512 0 3.25 1.09129 3.25 2.4375V23.5625C3.25 24.9082 4.33512 26 5.67373 26H20.2161C21.5547 26 22.6398 24.9087 22.6398 23.5625V8.125H16.222C15.2828 8.125 14.5607 7.39883 14.5607 6.5ZM6.48164 3.65625C6.48164 3.43434 6.66493 3.25 6.88559 3.25H10.9251C11.1473 3.25 11.3291 3.43434 11.3291 3.65625V4.46875C11.3291 4.69117 11.1473 4.875 10.9251 4.875H6.88559C6.66493 4.875 6.48164 4.69117 6.48164 4.46875V3.65625ZM6.48164 6.90625C6.48164 6.68281 6.66493 6.5 6.88559 6.5H10.9251C11.1473 6.5 11.3291 6.68281 11.3291 6.90625V7.71875C11.3291 7.94219 11.1473 8.125 10.9251 8.125H6.88559C6.66493 8.125 6.48164 7.94219 6.48164 7.71875V6.90625ZM19.4082 22.3438C19.4082 22.5659 19.2252 22.75 19.0042 22.75H14.9647C14.7425 22.75 14.5607 22.5672 14.5607 22.3438V21.5312C14.5607 21.3091 14.7438 21.125 14.9647 21.125H19.0042C19.2252 21.125 19.4082 21.3091 19.4082 21.5312V22.3438ZM19.4082 12.1875V17.0625C19.4082 17.5132 19.0484 17.875 18.6003 17.875H7.28955C6.84166 17.875 6.48164 17.5145 6.48164 17.0625V12.1875C6.48164 11.7355 6.84166 11.375 7.28955 11.375H18.6003C19.0497 11.375 19.4082 11.7355 19.4082 12.1875Z"/>
</svg>