<svg id="main" viewBox="0 0 20 20" fill="currentColor" xmlns="http://www.w3.org/2000/svg">
<path fill-rule="evenodd" clip-rule="evenodd" d="M8.29289 2.29289C8.48043 2.10536 8.73478 2 9 2H11C11.2652 2 11.5196 2.10536 11.7071 2.29289C11.8946 2.48043 12 2.73478 12 3C12 3.26522 11.8946 3.51957 11.7071 3.70711C11.5196 3.89464 11.2652 4 11 4H9C8.73478 4 8.48043 3.89464 8.29289 3.70711C8.10536 3.51957 8 3.26522 8 3C8 2.73478 8.10536 2.48043 8.29289 2.29289ZM4.58579 3.58579C4.21071 3.96086 4 4.46957 4 5V16C4 16.5304 4.21071 17.0391 4.58579 17.4142C4.96086 17.7893 5.46957 18 6 18H14C14.5304 18 15.0391 17.7893 15.4142 17.4142C15.7893 17.0391 16 16.5304 16 16V5C16 4.46957 15.7893 3.96086 15.4142 3.58579C15.0391 3.21071 14.5304 3 14 3C14 3.79565 13.6839 4.55871 13.1213 5.12132C12.5587 5.68393 11.7956 6 11 6H9C8.20435 6 7.44129 5.68393 6.87868 5.12132C6.31607 4.55871 6 3.79565 6 3C5.46957 3 4.96086 3.21071 4.58579 3.58579ZM6.29289 9.29289C6.48043 9.10536 6.73478 9 7 9H7.01C7.27522 9 7.52957 9.10536 7.71711 9.29289C7.90464 9.48043 8.01 9.73478 8.01 10C8.01 10.2652 7.90464 10.5196 7.71711 10.7071C7.52957 10.8946 7.27522 11 7.01 11H7C6.73478 11 6.48043 10.8946 6.29289 10.7071C6.10536 10.5196 6 10.2652 6 10C6 9.73478 6.10536 9.48043 6.29289 9.29289ZM9.29289 9.29289C9.48043 9.10536 9.73478 9 10 9H13C13.2652 9 13.5196 9.10536 13.7071 9.29289C13.8946 9.48043 14 9.73478 14 10C14 10.2652 13.8946 10.5196 13.7071 10.7071C13.5196 10.8946 13.2652 11 13 11H10C9.73478 11 9.48043 10.8946 9.29289 10.7071C9.10536 10.5196 9 10.2652 9 10C9 9.73478 9.10536 9.48043 9.29289 9.29289ZM6.29289 13.2929C6.48043 13.1054 6.73478 13 7 13H7.01C7.27522 13 7.52957 13.1054 7.71711 13.2929C7.90464 13.4804 8.01 13.7348 8.01 14C8.01 14.2652 7.90464 14.5196 7.71711 14.7071C7.52957 14.8946 7.27522 15 7.01 15H7C6.73478 15 6.48043 14.8946 6.29289 14.7071C6.10536 14.5196 6 14.2652 6 14C6 13.7348 6.10536 13.4804 6.29289 13.2929ZM9.29289 13.2929C9.48043 13.1054 9.73478 13 10 13H13C13.2652 13 13.5196 13.1054 13.7071 13.2929C13.8946 13.4804 14 13.7348 14 14C14 14.2652 13.8946 14.5196 13.7071 14.7071C13.5196 14.8946 13.2652 15 13 15H10C9.73478 15 9.48043 14.8946 9.29289 14.7071C9.10536 14.5196 9 14.2652 9 14C9 13.7348 9.10536 13.4804 9.29289 13.2929Z"/>
</svg>
