<svg id="main" viewBox="0 0 20 20" fill="currentColor" xmlns="http://www.w3.org/2000/svg">
<path d="M12.2492 1V5.5H16.7237L12.2492 1ZM13.3678 10H6.65593V12.25H13.3678V10ZM11.1305 5.5V1H4.97797C4.05124 1 3.3 1.75551 3.3 2.6875V17.3125C3.3 18.2441 4.05124 19 4.97797 19H15.0458C15.9725 19 16.7237 18.2445 16.7237 17.3125V6.625H12.2806C11.6304 6.625 11.1305 6.12227 11.1305 5.5ZM5.53729 3.53125C5.53729 3.37762 5.66418 3.25 5.81695 3.25H8.61356C8.76737 3.25 8.89322 3.37762 8.89322 3.53125V4.09375C8.89322 4.24773 8.76737 4.375 8.61356 4.375H5.81695C5.66418 4.375 5.53729 4.24773 5.53729 4.09375V3.53125ZM5.53729 5.78125C5.53729 5.62656 5.66418 5.5 5.81695 5.5H8.61356C8.76737 5.5 8.89322 5.62656 8.89322 5.78125V6.34375C8.89322 6.49844 8.76737 6.625 8.61356 6.625H5.81695C5.66418 6.625 5.53729 6.49844 5.53729 6.34375V5.78125ZM14.4864 16.4688C14.4864 16.6226 14.3597 16.75 14.2068 16.75H11.4102C11.2564 16.75 11.1305 16.6234 11.1305 16.4688V15.9062C11.1305 15.7524 11.2572 15.625 11.4102 15.625H14.2068C14.3597 15.625 14.4864 15.7524 14.4864 15.9062V16.4688ZM14.4864 9.4375V12.8125C14.4864 13.1245 14.2374 13.375 13.9271 13.375H6.09661C5.78654 13.375 5.53729 13.1254 5.53729 12.8125V9.4375C5.53729 9.12461 5.78654 8.875 6.09661 8.875H13.9271C14.2382 8.875 14.4864 9.12461 14.4864 9.4375Z" />
</svg>
