<svg width="39" height="38" viewBox="0 0 39 38" fill="none" xmlns="http://www.w3.org/2000/svg">
<path fill-rule="evenodd" clip-rule="evenodd" d="M5.81225 27.4385H35.6697V12.6103H37.5011V29.2457H5.81225V27.4385ZM4.31905 27.4385H0.994385V7.85449H35.6697V11.1344H38.9943V30.7217H4.31905V27.4385ZM6.74486 25.9626H2.48758V21.7544C3.55269 21.9126 4.5463 22.4037 5.31709 23.1656C6.08791 23.9275 6.58475 24.9097 6.74486 25.9626ZM8.25761 25.9626C8.08846 24.5157 7.42989 23.1591 6.3772 22.1197C5.32453 21.0802 3.95145 20.4307 2.48758 20.2649V15.0274C3.95136 14.8602 5.32377 14.2092 6.37534 13.1687C7.42535 12.1298 8.08217 10.775 8.25105 9.33042H28.4129C28.582 10.7772 29.2406 12.1338 30.2933 13.1733C31.3444 14.2113 32.715 14.8604 34.1765 15.0274V20.2657C32.7144 20.4326 31.3434 21.0823 30.2921 22.1208C29.2401 23.1602 28.582 24.5163 28.4129 25.9626H8.25761ZM5.31952 12.1251C4.54845 12.8882 3.55389 13.3802 2.48758 13.5387V9.33042H6.74495C6.58502 10.3822 6.08903 11.3635 5.31952 12.1251ZM29.9223 25.9626H34.1765V21.7548C33.1125 21.9136 32.1201 22.4045 31.3501 23.1656C30.5793 23.9275 30.0824 24.9097 29.9223 25.9626ZM31.3479 12.1285C30.5764 11.3665 30.0792 10.3838 29.919 9.33042H34.1765V13.5387C33.1119 13.3805 32.1186 12.8898 31.3479 12.1285ZM14.6933 23.0364C15.7726 23.748 17.0412 24.1272 18.3386 24.1259C20.075 24.1233 21.7395 23.4403 22.9673 22.2267C24.1951 21.0131 24.8861 19.3678 24.8887 17.6515C24.89 16.3691 24.5065 15.1152 23.7865 14.0484C23.0665 12.9816 22.0425 12.1499 20.8442 11.6585C19.6458 11.1672 18.3269 11.0383 17.0544 11.2881C15.7819 11.538 14.613 12.1554 13.6956 13.0622C12.7782 13.9689 12.1536 15.1244 11.9009 16.3822C11.6481 17.64 11.7784 18.9436 12.2755 20.1281C12.7726 21.3126 13.6141 22.3247 14.6933 23.0364ZM15.5227 13.4851C16.3567 12.9364 17.3367 12.6445 18.3386 12.6464V12.6431C19.6801 12.6466 20.9655 13.1758 21.9128 14.1147C22.8602 15.0536 23.3922 16.3255 23.3922 17.6515C23.3922 18.6418 23.095 19.6099 22.5382 20.4332C21.9813 21.2564 21.1899 21.8979 20.2641 22.2765C19.3382 22.655 18.3196 22.7535 17.3371 22.5596C16.3546 22.3657 15.4524 21.888 14.7446 21.1871C14.0369 20.4861 13.5554 19.5934 13.3611 18.6219C13.1669 17.6503 13.2686 16.6437 13.6534 15.7293C14.0381 14.8149 14.6887 14.0339 15.5227 13.4851ZM17.1358 20.7312C17.2827 20.7909 17.4359 20.8328 17.5921 20.8563V21.42H19.0853V20.8504C19.492 20.7816 19.8705 20.5899 20.1662 20.2976C20.5427 19.9255 20.7542 19.4208 20.7542 18.8945C20.7542 18.3682 20.5427 17.8635 20.1662 17.4914C19.7897 17.1193 19.2791 16.9102 18.7467 16.9102H17.9005C17.8328 16.9102 17.7658 16.8969 17.7034 16.8711C17.641 16.8454 17.5843 16.8076 17.5368 16.76C17.4893 16.7124 17.4518 16.6559 17.4265 16.5938C17.4012 16.5318 17.3887 16.4654 17.3895 16.3985C17.3884 16.2666 17.4396 16.1394 17.5322 16.0443C17.6299 15.9477 17.7624 15.8935 17.9005 15.8935H18.7467C18.8817 15.8928 19.0116 15.9446 19.1083 16.0378C19.1563 16.085 19.1942 16.1413 19.2199 16.2032C19.2455 16.2652 19.2584 16.3316 19.2577 16.3985H20.7509C20.752 16.137 20.7003 15.8778 20.5989 15.6362C20.4974 15.3946 20.3483 15.1755 20.1602 14.9915C19.9745 14.8085 19.754 14.6636 19.5114 14.5651C19.374 14.5093 19.2311 14.469 19.0853 14.4448V13.8763H17.5921V14.4414C17.1714 14.5061 16.7791 14.7008 16.4737 15.0013C16.1966 15.2806 16.0089 15.6344 15.934 16.0185C15.8591 16.4026 15.9003 16.7999 16.0525 17.161C16.2047 17.5221 16.4611 17.8308 16.7898 18.0487C17.1185 18.2666 17.5048 18.384 17.9005 18.3861H18.7467C18.8844 18.3882 19.0161 18.4422 19.115 18.537C19.2064 18.6341 19.2572 18.7618 19.2572 18.8945C19.2572 19.0272 19.2064 19.1549 19.115 19.252C19.0165 19.3474 18.8845 19.4015 18.7467 19.4029H17.9005C17.8329 19.4038 17.7657 19.3912 17.7031 19.3659C17.6405 19.3407 17.5837 19.3032 17.536 19.2558C17.4883 19.2084 17.4508 19.1519 17.4256 19.0898C17.4005 19.0278 17.3882 18.9614 17.3895 18.8945H15.8963C15.8973 19.4232 16.1096 19.9302 16.4869 20.3049C16.6727 20.4878 16.8932 20.6327 17.1358 20.7312ZM27.6428 16.9102H31.4289V18.3861H27.6428V16.9102ZM9.03091 16.9102H5.24815V18.3861H9.03091V16.9102Z" fill="#BBBBBB"/>
</svg>
