<svg width="54" height="54" viewBox="0 0 54 54" fill="none" xmlns="http://www.w3.org/2000/svg">
<path d="M24.5 1.44338C26.047 0.550212 27.953 0.550212 29.5 1.44338L47.8827 12.0566C49.4297 12.9498 50.3827 14.6004 50.3827 16.3868V37.6132C50.3827 39.3996 49.4297 41.0502 47.8827 41.9434L29.5 52.5566C27.953 53.4498 26.047 53.4498 24.5 52.5566L6.11731 41.9434C4.57031 41.0502 3.61731 39.3996 3.61731 37.6132V16.3868C3.61731 14.6004 4.57031 12.9498 6.11731 12.0566L24.5 1.44338Z" fill="#F0AD4E"/>
<g clip-path="url(#clip0_4768_12369)">
<path d="M28.9373 21.0937V14.3999H19.0611C18.4043 14.3999 17.8759 14.9265 17.8759 15.5812V38.4187C17.8759 39.0733 18.4043 39.5999 19.0611 39.5999H35.6531C36.3099 39.5999 36.8383 39.0733 36.8383 38.4187V22.2749H30.1224C29.4706 22.2749 28.9373 21.7433 28.9373 21.0937ZM32.0977 32.7093C32.0977 33.0341 31.831 33.2999 31.5051 33.2999H23.2091C22.8832 33.2999 22.6165 33.0341 22.6165 32.7093V32.3155C22.6165 31.9907 22.8832 31.7249 23.2091 31.7249H31.5051C31.831 31.7249 32.0977 31.9907 32.0977 32.3155V32.7093ZM32.0977 29.5593C32.0977 29.8841 31.831 30.1499 31.5051 30.1499H23.2091C22.8832 30.1499 22.6165 29.8841 22.6165 29.5593V29.1655C22.6165 28.8407 22.8832 28.5749 23.2091 28.5749H31.5051C31.831 28.5749 32.0977 28.8407 32.0977 29.1655V29.5593ZM32.0977 26.0155V26.4093C32.0977 26.7341 31.831 26.9999 31.5051 26.9999H23.2091C22.8832 26.9999 22.6165 26.7341 22.6165 26.4093V26.0155C22.6165 25.6907 22.8832 25.4249 23.2091 25.4249H31.5051C31.831 25.4249 32.0977 25.6907 32.0977 26.0155ZM36.8383 20.3997V20.6999H30.5175V14.3999H30.8187C31.1348 14.3999 31.436 14.5229 31.6582 14.7444L36.4926 19.5679C36.7148 19.7894 36.8383 20.0896 36.8383 20.3997Z" fill="white"/>
</g>
<defs>
<clipPath id="clip0_4768_12369">
<rect width="25.2" height="25.2" fill="white" transform="translate(14.4 14.3999)"/>
</clipPath>
</defs>
</svg>
