<svg width="18" height="19" viewBox="0 0 18 19" fill="none" xmlns="http://www.w3.org/2000/svg">
<circle cx="9" cy="9.7171" r="9" fill="#EC6A5E"/>
<path fill-rule="evenodd" clip-rule="evenodd" d="M12.5355 6.46449C12.145 6.07396 11.5118 6.07396 11.1213 6.46449L9 8.58581L6.87868 6.46449C6.48816 6.07396 5.85499 6.07396 5.46447 6.46449C5.07394 6.85501 5.07394 7.48818 5.46447 7.8787L7.58579 10L5.46447 12.1213C5.07394 12.5119 5.07394 13.145 5.46447 13.5356C5.85499 13.9261 6.48816 13.9261 6.87868 13.5356L9 11.4142L11.1213 13.5356C11.5118 13.9261 12.145 13.9261 12.5355 13.5356C12.9261 13.145 12.9261 12.5119 12.5355 12.1213L10.4142 10L12.5355 7.8787C12.9261 7.48818 12.9261 6.85501 12.5355 6.46449Z" fill="white"/>
</svg>
