<svg width="60" height="60" viewBox="0 0 60 60" fill="none" xmlns="http://www.w3.org/2000/svg">
<path d="M27.5 1.44338C29.047 0.550211 30.953 0.550212 32.5 1.44338L53.4808 13.5566C55.0278 14.4498 55.9808 16.1004 55.9808 17.8868V42.1133C55.9808 43.8996 55.0278 45.5502 53.4808 46.4434L32.5 58.5566C30.953 59.4498 29.047 59.4498 27.5 58.5566L6.51924 46.4434C4.97223 45.5502 4.01924 43.8996 4.01924 42.1133V17.8868C4.01924 16.1004 4.97223 14.4498 6.51924 13.5566L27.5 1.44338Z" fill="#F0AD4E"/>
<path d="M41.375 17.723H18.625C17.1752 17.723 16 18.8983 16 20.348V39.598C16 41.0478 17.1752 42.223 18.625 42.223H41.375C42.8248 42.223 44 41.0478 44 39.598V20.348C44 18.8983 42.8248 17.723 41.375 17.723ZM41.0469 39.598H18.9531C18.8661 39.598 18.7826 39.5635 18.7211 39.5019C18.6596 39.4404 18.625 39.3569 18.625 39.2699V20.6761C18.625 20.5891 18.6596 20.5057 18.7211 20.4441C18.7826 20.3826 18.8661 20.348 18.9531 20.348H41.0469C41.1339 20.348 41.2174 20.3826 41.2789 20.4441C41.3404 20.5057 41.375 20.5891 41.375 20.6761V39.2699C41.375 39.3569 41.3404 39.4404 41.2789 39.5019C41.2174 39.5635 41.1339 39.598 41.0469 39.598ZM38.75 34.5668V35.8793C38.75 36.2417 38.4562 36.5355 38.0938 36.5355H27.1562C26.7938 36.5355 26.5 36.2417 26.5 35.8793V34.5668C26.5 34.2044 26.7938 33.9105 27.1562 33.9105H38.0938C38.4562 33.9105 38.75 34.2044 38.75 34.5668ZM38.75 29.3168V30.6293C38.75 30.9917 38.4562 31.2855 38.0938 31.2855H27.1562C26.7938 31.2855 26.5 30.9917 26.5 30.6293V29.3168C26.5 28.9544 26.7938 28.6605 27.1562 28.6605H38.0938C38.4562 28.6605 38.75 28.9544 38.75 29.3168ZM38.75 24.0668V25.3793C38.75 25.7417 38.4562 26.0355 38.0938 26.0355H27.1562C26.7938 26.0355 26.5 25.7417 26.5 25.3793V24.0668C26.5 23.7044 26.7938 23.4105 27.1562 23.4105H38.0938C38.4562 23.4105 38.75 23.7044 38.75 24.0668ZM24.9688 24.723C24.9688 25.8103 24.0873 26.6918 23 26.6918C21.9127 26.6918 21.0312 25.8103 21.0312 24.723C21.0312 23.6357 21.9127 22.7543 23 22.7543C24.0873 22.7543 24.9688 23.6357 24.9688 24.723ZM24.9688 29.973C24.9688 31.0603 24.0873 31.9418 23 31.9418C21.9127 31.9418 21.0312 31.0603 21.0312 29.973C21.0312 28.8857 21.9127 28.0043 23 28.0043C24.0873 28.0043 24.9688 28.8857 24.9688 29.973ZM24.9688 35.223C24.9688 36.3103 24.0873 37.1918 23 37.1918C21.9127 37.1918 21.0312 36.3103 21.0312 35.223C21.0312 34.1357 21.9127 33.2543 23 33.2543C24.0873 33.2543 24.9688 34.1357 24.9688 35.223Z" fill="white"/>
</svg>
