<svg width="183" height="45" viewBox="0 0 183 45" fill="none" xmlns="http://www.w3.org/2000/svg">
<g clip-path="url(#clip0_4381_3324)">
<path fill-rule="evenodd" clip-rule="evenodd" d="M19.4048 0.769287L9.70251 22.4424H19.4048L29.1076 0.769287H19.4048Z" fill="#CCCCCC"/>
<path fill-rule="evenodd" clip-rule="evenodd" d="M0 0.769287L9.70253 22.4424H19.4051L9.70253 0.769287H0Z" fill="#FF4A4A"/>
<path fill-rule="evenodd" clip-rule="evenodd" d="M43.1224 26.777C43.1224 28.5726 41.6742 30.0279 39.8882 30.0279C38.1019 30.0279 36.6541 28.5726 36.6541 26.777C36.6541 24.9813 38.1019 23.526 39.8882 23.526C41.6742 23.526 43.1224 24.9813 43.1224 26.777Z" fill="#FF4A4A"/>
<path fill-rule="evenodd" clip-rule="evenodd" d="M32.5896 28.9442H22.6393C23.826 37.4581 31.1067 44.0318 39.8882 44.0318V34.2452C36.4934 34.2452 33.6102 32.0196 32.5896 28.9442Z" fill="#FFC10D"/>
<path fill-rule="evenodd" clip-rule="evenodd" d="M32.5896 24.6096C33.6102 21.5172 36.4934 19.2792 39.8882 19.2792V9.43848C31.1067 9.43848 23.826 16.0486 22.6393 24.6096H32.5896Z" fill="#FFC10D"/>
<path fill-rule="evenodd" clip-rule="evenodd" d="M64.235 17.0675L69.6857 3.89024H70.9736L64.488 19.3793H64.0051L57.4965 3.89024H58.7844L64.235 17.0675ZM74.1244 3.89024H75.3204V19.1481H74.1244V3.89024ZM86.0837 12.2127L91.2124 19.1481H89.8095L84.7038 12.3052H81.001V19.1481H79.8051V3.89024H84.9568C86.3597 3.89024 87.4866 4.28324 88.3145 5.06925C89.1425 5.85526 89.5565 6.84933 89.5565 8.07459C89.5565 10.2014 88.2686 11.8197 86.0837 12.2127ZM84.9108 4.97678H81.001V11.2186H84.9108C87.0956 11.2186 88.3145 9.94714 88.3145 8.0977C88.3145 6.24827 87.0956 4.97678 84.9108 4.97678ZM91.6493 3.89024H103.954V4.97678H98.3879V19.1481H97.192V4.97678H91.6493V3.89024ZM112.854 3.65906C115.016 3.65906 116.856 4.42195 118.374 5.92462C119.892 7.42728 120.651 9.29984 120.651 11.5192C120.651 13.7154 119.892 15.5879 118.374 17.1137C116.856 18.6164 115.016 19.3793 112.854 19.3793C110.669 19.3793 108.829 18.6164 107.334 17.1137C105.839 15.5879 105.081 13.7154 105.081 11.5192C105.081 9.29984 105.839 7.42728 107.334 5.92462C108.829 4.42195 110.669 3.65906 112.854 3.65906ZM112.877 4.76872C111.014 4.76872 109.45 5.41602 108.208 6.71063C106.966 7.98211 106.345 9.57725 106.345 11.496C106.345 13.4148 106.966 15.01 108.208 16.3046C109.45 17.5992 111.014 18.2465 112.877 18.2465C114.74 18.2465 116.281 17.5992 117.523 16.3046C118.765 15.01 119.386 13.4148 119.386 11.496C119.386 9.60037 118.765 8.00523 117.5 6.71063C116.258 5.41602 114.717 4.76872 112.877 4.76872ZM65.592 26.777C68.1448 26.777 70.3757 27.956 71.7326 29.8748L70.8356 30.5915C69.5707 28.7883 67.8228 27.8867 65.615 27.8867C63.7521 27.8867 62.2112 28.534 60.9462 29.8286C59.7043 31.1001 59.0834 32.6952 59.0834 34.614C59.0834 36.5328 59.7043 38.151 60.9462 39.4456C62.1882 40.7171 63.7521 41.3644 65.615 41.3644C67.8458 41.3644 69.5707 40.4628 70.8356 38.6827L71.7326 39.3994C70.3757 41.3182 68.1448 42.4972 65.592 42.4972C63.4071 42.4972 61.5672 41.7343 60.0723 40.2317C58.5774 38.729 57.8184 36.8564 57.8184 34.6371C57.8184 32.4178 58.5774 30.5452 60.0723 29.0426C61.5672 27.5399 63.4071 26.777 65.592 26.777ZM81.852 26.777C84.0138 26.777 85.8537 27.5399 87.3716 29.0426C88.8895 30.5452 89.6485 32.4178 89.6485 34.6371C89.6485 36.8333 88.8895 38.7059 87.3716 40.2317C85.8537 41.7343 84.0138 42.4972 81.852 42.4972C79.6671 42.4972 77.8272 41.7343 76.3323 40.2317C74.8374 38.7059 74.0784 36.8333 74.0784 34.6371C74.0784 32.4178 74.8374 30.5452 76.3323 29.0426C77.8272 27.5399 79.6671 26.777 81.852 26.777ZM81.8749 27.8867C80.0121 27.8867 78.4482 28.534 77.2062 29.8286C75.9643 31.1001 75.3434 32.6952 75.3434 34.614C75.3434 36.5328 75.9643 38.1279 77.2062 39.4225C78.4482 40.7171 80.0121 41.3644 81.8749 41.3644C83.7378 41.3644 85.2787 40.7171 86.5207 39.4225C87.7626 38.1279 88.3835 36.5328 88.3835 34.614C88.3835 32.7183 87.7626 31.1232 86.4977 29.8286C85.2557 28.534 83.7148 27.8867 81.8749 27.8867ZM99.8828 35.8624L106.207 26.777H106.667V42.266H105.471V29.8517L100.136 37.5037H99.6758L94.3172 29.8517V42.266H93.1212V26.777H93.5812L99.8828 35.8624ZM117.937 35.8624L124.261 26.777H124.721V42.266H123.525V29.8517L118.19 37.5037H117.73L112.371 29.8517V42.266H111.175V26.777H111.635L117.937 35.8624ZM129.229 27.0082H138.727V28.0947H130.425V33.4812H136.888V34.5678H130.425V41.1795H139.003V42.266H129.229V27.0082ZM148.456 35.3306L153.585 42.266H152.182L147.076 35.4231H143.373V42.266H142.177V27.0082H147.329C148.732 27.0082 149.859 27.4012 150.687 28.1872C151.515 28.9732 151.929 29.9673 151.929 31.1925C151.929 33.3194 150.641 34.9376 148.456 35.3306ZM147.283 28.0947H143.373V34.3366H147.283C149.468 34.3366 150.687 33.0651 150.687 31.2157C150.687 29.3662 149.468 28.0947 147.283 28.0947ZM162.692 26.777C165.245 26.777 167.476 27.956 168.833 29.8748L167.936 30.5915C166.671 28.7883 164.923 27.8867 162.715 27.8867C160.852 27.8867 159.311 28.534 158.046 29.8286C156.804 31.1001 156.183 32.6952 156.183 34.614C156.183 36.5328 156.804 38.151 158.046 39.4456C159.288 40.7171 160.852 41.3644 162.715 41.3644C164.946 41.3644 166.671 40.4628 167.936 38.6827L168.833 39.3994C167.476 41.3182 165.245 42.4972 162.692 42.4972C160.507 42.4972 158.667 41.7343 157.172 40.2317C155.677 38.729 154.918 36.8564 154.918 34.6371C154.918 32.4178 155.677 30.5452 157.172 29.0426C158.667 27.5399 160.507 26.777 162.692 26.777ZM172.328 27.0082H181.827V28.0947H173.524V33.4812H179.987V34.5678H173.524V41.1795H182.103V42.266H172.328V27.0082Z" fill="#161D25"/>
</g>
<defs>
<clipPath id="clip0_4381_3324">
<rect width="182.551" height="43.3462" fill="white" transform="translate(0 0.769287)"/>
</clipPath>
</defs>
</svg>
