<svg width="60" height="60" viewBox="0 0 60 60" fill="none" xmlns="http://www.w3.org/2000/svg">
<path d="M27.5 1.44338C29.047 0.550211 30.953 0.550212 32.5 1.44338L53.4808 13.5566C55.0278 14.4498 55.9808 16.1004 55.9808 17.8868V42.1133C55.9808 43.8996 55.0278 45.5502 53.4808 46.4434L32.5 58.5566C30.953 59.4498 29.047 59.4498 27.5 58.5566L6.51924 46.4434C4.97223 45.5502 4.01924 43.8996 4.01924 42.1133V17.8868C4.01924 16.1004 4.97223 14.4498 6.51924 13.5566L27.5 1.44338Z" fill="#F0AD4E"/>
<path d="M34.6251 30.5399C33.8857 30.5399 33.1901 30.1289 32.8139 29.4712L30.001 24.6026L27.1924 29.4712C26.8118 30.1334 26.1162 30.5445 25.3769 30.5445C25.18 30.5445 24.9832 30.5171 24.795 30.4577L18.8017 28.6674V36.797C18.8017 37.4683 19.2391 38.0529 19.8604 38.2128L29.3185 40.6836C29.7647 40.7978 30.2328 40.7978 30.6747 40.6836L40.1416 38.2128C40.7628 38.0484 41.2003 37.4638 41.2003 36.797V28.6674L35.2069 30.4531C35.0188 30.5125 34.8219 30.5399 34.6251 30.5399ZM43.9257 25.4155L41.6727 20.7205C41.5371 20.4373 41.244 20.2729 40.9422 20.314L30.001 21.7709L34.0126 28.7176C34.1788 29.0053 34.5113 29.1424 34.8219 29.051L43.4795 26.4706C43.9126 26.3381 44.1226 25.8357 43.9257 25.4155ZM18.3292 20.7205L16.0762 25.4155C15.875 25.8357 16.0893 26.3381 16.5181 26.466L25.1756 29.0465C25.4863 29.1378 25.8187 29.0008 25.985 28.713L30.001 21.7709L19.0554 20.314C18.7536 20.2775 18.4648 20.4373 18.3292 20.7205Z" fill="white"/>
</svg>
