<svg width="40" height="40" viewBox="0 0 40 40" fill="none" xmlns="http://www.w3.org/2000/svg">
<rect width="40" height="40" rx="3" fill="#C22031"/>
<path d="M29.6679 28.1085L26.0788 24.5457C28.8811 20.9579 28.5864 15.8481 25.3652 12.6288C23.6692 10.9338 21.4063 10 18.9979 10C16.5882 10 14.3265 10.9339 12.6305 12.6288C10.9344 14.3238 10 16.5853 10 18.9922C10 21.4004 10.9345 23.6607 12.6305 25.3556C14.3266 27.0506 16.5894 27.9844 18.9979 27.9844C20.9897 27.9844 22.9568 27.3212 24.5298 26.0677L28.0948 29.6804C28.3157 29.9011 28.5865 30 28.8814 30C29.1762 30 29.4471 29.8771 29.6679 29.6804C30.1107 29.2629 30.1107 28.5507 29.6679 28.1082L29.6679 28.1085ZM25.784 18.9922C25.784 20.8101 25.0714 22.5061 23.7921 23.7836C22.5138 25.061 20.7928 25.7742 18.9978 25.7742C17.2027 25.7742 15.4817 25.062 14.2035 23.7836C12.9252 22.5061 12.2116 20.7861 12.2116 18.9922C12.2116 17.1744 12.9242 15.4783 14.2035 14.2009C15.4817 12.9234 17.2027 12.2103 18.9978 12.2103C20.8168 12.2103 22.5139 12.9224 23.7921 14.2009C25.0704 15.4793 25.784 17.1745 25.784 18.9922Z" fill="white"/>
</svg>
