<svg width="60" height="60" viewBox="0 0 60 60" fill="none" xmlns="http://www.w3.org/2000/svg">
<path d="M27.5 1.44338C29.047 0.550211 30.953 0.550212 32.5 1.44338L53.4808 13.5566C55.0278 14.4498 55.9808 16.1004 55.9808 17.8868V42.1133C55.9808 43.8996 55.0278 45.5502 53.4808 46.4434L32.5 58.5566C30.953 59.4498 29.047 59.4498 27.5 58.5566L6.51924 46.4434C4.97223 45.5502 4.01924 43.8996 4.01924 42.1133V17.8868C4.01924 16.1004 4.97223 14.4498 6.51924 13.5566L27.5 1.44338Z" fill="#F0AD4E"/>
<g clip-path="url(#clip0_4226_8614)">
<path d="M43.3 34.2H42.6V29.4706C42.6 28.915 42.3769 28.3812 41.9831 27.9875L37.6125 23.6169C37.2188 23.2231 36.685 23 36.1294 23H34.2V20.9C34.2 19.7406 33.2594 18.8 32.1 18.8H18.1C16.9406 18.8 16 19.7406 16 20.9V34.9C16 36.0594 16.9406 37 18.1 37H18.8C18.8 39.3187 20.6813 41.2 23 41.2C25.3187 41.2 27.2 39.3187 27.2 37H32.8C32.8 39.3187 34.6812 41.2 37 41.2C39.3188 41.2 41.2 39.3187 41.2 37H43.3C43.685 37 44 36.685 44 36.3V34.9C44 34.515 43.685 34.2 43.3 34.2ZM23 39.1C21.8406 39.1 20.9 38.1594 20.9 37C20.9 35.8406 21.8406 34.9 23 34.9C24.1594 34.9 25.1 35.8406 25.1 37C25.1 38.1594 24.1594 39.1 23 39.1ZM37 39.1C35.8406 39.1 34.9 38.1594 34.9 37C34.9 35.8406 35.8406 34.9 37 34.9C38.1594 34.9 39.1 35.8406 39.1 37C39.1 38.1594 38.1594 39.1 37 39.1ZM40.5 30H34.2V25.1H36.1294L40.5 29.4706V30Z" fill="white"/>
</g>
<defs>
<clipPath id="clip0_4226_8614">
<rect width="28" height="28" fill="white" transform="translate(16 16)"/>
</clipPath>
</defs>
</svg>
