<svg viewBox="0 0 48 48" fill="none" xmlns="http://www.w3.org/2000/svg">
<path d="M43.5 9.37377L43.5 44.6667C43.5 45.4181 43.2015 46.1388 42.6701 46.6701C42.1388 47.2015 41.4181 47.5 40.6667 47.5H11.3333C10.5819 47.5 9.86122 47.2015 9.32986 46.6701C8.79851 46.1388 8.5 45.4181 8.5 44.6667L8.50001 3.33333C8.50001 2.58189 8.79852 1.86122 9.32987 1.32986C9.86122 0.798511 10.5819 0.5 11.3333 0.5H34.6262L43.5 9.37377Z" fill="#FAFAFA" stroke="#D4D4D4"/>
<rect x="4" y="25" width="36" height="16" rx="2" fill="#F0AD4E"/>
<rect x="4" y="25" width="36" height="16" rx="2" stroke="#F0AD4E"/>
<path d="M14.856 34.38C14.856 34.868 14.796 35.31 14.676 35.706C14.556 36.098 14.374 36.436 14.13 36.72C13.89 37 13.588 37.216 13.224 37.368C12.86 37.52 12.436 37.596 11.952 37.596C11.732 37.596 11.514 37.582 11.298 37.554C11.086 37.53 10.862 37.49 10.626 37.434L10.722 36.378C10.734 36.282 10.772 36.206 10.836 36.15C10.9 36.09 10.992 36.06 11.112 36.06C11.18 36.06 11.266 36.072 11.37 36.096C11.478 36.12 11.61 36.132 11.766 36.132C11.982 36.132 12.17 36.102 12.33 36.042C12.49 35.982 12.624 35.884 12.732 35.748C12.84 35.612 12.92 35.436 12.972 35.22C13.028 35 13.056 34.734 13.056 34.422V28.794H14.856V34.38ZM18.7517 34.506V37.5H16.9517V28.794H19.8917C20.4877 28.794 21.0017 28.864 21.4337 29.004C21.8697 29.144 22.2277 29.34 22.5077 29.592C22.7877 29.84 22.9937 30.136 23.1257 30.48C23.2617 30.824 23.3297 31.198 23.3297 31.602C23.3297 32.03 23.2597 32.422 23.1197 32.778C22.9797 33.134 22.7677 33.44 22.4837 33.696C22.1997 33.952 21.8417 34.152 21.4097 34.296C20.9777 34.436 20.4717 34.506 19.8917 34.506H18.7517ZM18.7517 33.126H19.8917C20.4557 33.126 20.8677 32.99 21.1277 32.718C21.3917 32.446 21.5237 32.074 21.5237 31.602C21.5237 31.386 21.4897 31.19 21.4217 31.014C21.3577 30.834 21.2577 30.682 21.1217 30.558C20.9897 30.43 20.8217 30.332 20.6177 30.264C20.4137 30.196 20.1717 30.162 19.8917 30.162H18.7517V33.126ZM32.0591 36.66C31.6151 36.984 31.1411 37.222 30.6371 37.374C30.1371 37.522 29.6071 37.596 29.0471 37.596C28.3311 37.596 27.6831 37.486 27.1031 37.266C26.5231 37.042 26.0271 36.732 25.6151 36.336C25.2031 35.94 24.8851 35.47 24.6611 34.926C24.4371 34.382 24.3251 33.788 24.3251 33.144C24.3251 32.492 24.4311 31.894 24.6431 31.35C24.8591 30.806 25.1651 30.338 25.5611 29.946C25.9571 29.554 26.4351 29.248 26.9951 29.028C27.5591 28.808 28.1891 28.698 28.8851 28.698C29.2451 28.698 29.5811 28.728 29.8931 28.788C30.2051 28.844 30.4931 28.924 30.7571 29.028C31.0211 29.128 31.2631 29.248 31.4831 29.388C31.7031 29.528 31.9031 29.682 32.0831 29.85L31.5611 30.654C31.4811 30.782 31.3771 30.86 31.2491 30.888C31.1211 30.916 30.9811 30.884 30.8291 30.792C30.6851 30.704 30.5431 30.626 30.4031 30.558C30.2671 30.486 30.1211 30.424 29.9651 30.372C29.8091 30.32 29.6391 30.28 29.4551 30.252C29.2711 30.224 29.0591 30.21 28.8191 30.21C28.4151 30.21 28.0491 30.28 27.7211 30.42C27.3931 30.56 27.1131 30.758 26.8811 31.014C26.6531 31.27 26.4771 31.578 26.3531 31.938C26.2291 32.298 26.1671 32.7 26.1671 33.144C26.1671 33.624 26.2351 34.054 26.3711 34.434C26.5071 34.81 26.6991 35.128 26.9471 35.388C27.1951 35.648 27.4911 35.846 27.8351 35.982C28.1831 36.118 28.5691 36.186 28.9931 36.186C29.2811 36.186 29.5371 36.158 29.7611 36.102C29.9891 36.042 30.2111 35.962 30.4271 35.862V34.398H29.4431C29.3271 34.398 29.2351 34.368 29.1671 34.308C29.1031 34.244 29.0711 34.164 29.0711 34.068V33.066H32.0591V36.66Z" fill="white"/>
<path d="M44 10H34.9091C34.4091 10 34 9.59091 34 9.09091V0L44 10Z" fill="#D4D4D4"/>
</svg>
