<svg width="139" height="40" viewBox="0 0 139 40" xmlns="http://www.w3.org/2000/svg"><title>Group 19</title><g fill="none" fill-rule="evenodd"><path fill="#C3C3C3" d="M18 0L9 20h9l9-20z"/><path fill="#DB3A35" d="M0 0l9 20h9L9 0zm40 24a3 3 0 1 1-6 0 3 3 0 0 1 6 0"/><path d="M30.23 26H21c1.1 7.857 7.854 13.923 16 13.923v-9.031c-3.149 0-5.823-2.054-6.77-4.892m0-4c.947-2.854 3.621-4.919 6.77-4.919V8c-8.146 0-14.9 6.1-16 14h9.23z" fill="#F89406"/><path d="M56.688 9.28L60.48.16h.896l-4.512 10.72h-.336L52 .16h.896l3.792 9.12zm6.88-9.12h.832v10.56h-.832V.16zm8.32 5.76l3.568 4.8h-.976l-3.552-4.736h-2.576v4.736h-.832V.16h3.584c.976 0 1.76.272 2.336.816.576.544.864 1.232.864 2.08 0 1.472-.896 2.592-2.416 2.864zM71.072.912h-2.72v4.32h2.72c1.52 0 2.368-.88 2.368-2.16 0-1.28-.848-2.16-2.368-2.16zM75.76.16h8.56v.752h-3.872v9.808h-.832V.912H75.76V.16zM90.512 0c1.504 0 2.784.528 3.84 1.568s1.584 2.336 1.584 3.872c0 1.52-.528 2.816-1.584 3.872-1.056 1.04-2.336 1.568-3.84 1.568-1.52 0-2.8-.528-3.84-1.568-1.04-1.056-1.568-2.352-1.568-3.872 0-1.536.528-2.832 1.568-3.872S88.992 0 90.512 0zm.016.768c-1.296 0-2.384.448-3.248 1.344-.864.88-1.296 1.984-1.296 3.312 0 1.328.432 2.432 1.296 3.328.864.896 1.952 1.344 3.248 1.344 1.296 0 2.368-.448 3.232-1.344.864-.896 1.296-2 1.296-3.328 0-1.312-.432-2.416-1.312-3.312-.864-.896-1.936-1.344-3.216-1.344zM57.632 16c1.776 0 3.328.816 4.272 2.144l-.624.496c-.88-1.248-2.096-1.872-3.632-1.872-1.296 0-2.368.448-3.248 1.344-.864.88-1.296 1.984-1.296 3.312 0 1.328.432 2.448 1.296 3.344.864.88 1.952 1.328 3.248 1.328 1.552 0 2.752-.624 3.632-1.856l.624.496c-.944 1.328-2.496 2.144-4.272 2.144-1.52 0-2.8-.528-3.84-1.568s-1.568-2.336-1.568-3.872.528-2.832 1.568-3.872S56.112 16 57.632 16zm11.312 0c1.504 0 2.784.528 3.84 1.568s1.584 2.336 1.584 3.872c0 1.52-.528 2.816-1.584 3.872-1.056 1.04-2.336 1.568-3.84 1.568-1.52 0-2.8-.528-3.84-1.568-1.04-1.056-1.568-2.352-1.568-3.872 0-1.536.528-2.832 1.568-3.872S67.424 16 68.944 16zm.016.768c-1.296 0-2.384.448-3.248 1.344-.864.88-1.296 1.984-1.296 3.312 0 1.328.432 2.432 1.296 3.328.864.896 1.952 1.344 3.248 1.344 1.296 0 2.368-.448 3.232-1.344.864-.896 1.296-2 1.296-3.328 0-1.312-.432-2.416-1.312-3.312-.864-.896-1.936-1.344-3.216-1.344zm12.528 5.52l4.4-6.288h.32v10.72h-.832v-8.592l-3.712 5.296h-.32l-3.728-5.296v8.592h-.832V16h.32l4.384 6.288zm12.56 0l4.4-6.288h.32v10.72h-.832v-8.592l-3.712 5.296h-.32l-3.728-5.296v8.592h-.832V16h.32l4.384 6.288zm7.856-6.128h6.608v.752h-5.776v3.728h4.496v.752h-4.496v4.576h5.968v.752h-6.8V16.16zm13.376 5.76l3.568 4.8h-.976l-3.552-4.736h-2.576v4.736h-.832V16.16h3.584c.976 0 1.76.272 2.336.816.576.544.864 1.232.864 2.08 0 1.472-.896 2.592-2.416 2.864zm-.816-5.008h-2.72v4.32h2.72c1.52 0 2.368-.88 2.368-2.16 0-1.28-.848-2.16-2.368-2.16zm10.72-.912c1.776 0 3.328.816 4.272 2.144l-.624.496c-.88-1.248-2.096-1.872-3.632-1.872-1.296 0-2.368.448-3.248 1.344-.864.88-1.296 1.984-1.296 3.312 0 1.328.432 2.448 1.296 3.344.864.88 1.952 1.328 3.248 1.328 1.552 0 2.752-.624 3.632-1.856l.624.496c-.944 1.328-2.496 2.144-4.272 2.144-1.52 0-2.8-.528-3.84-1.568s-1.568-2.336-1.568-3.872.528-2.832 1.568-3.872 2.32-1.568 3.84-1.568zm6.704.16h6.608v.752h-5.776v3.728h4.496v.752h-4.496v4.576h5.968v.752h-6.8V16.16z" fill="#000"/></g></svg>