<svg width="14" height="14" viewBox="0 0 14 14" fill="none" xmlns="http://www.w3.org/2000/svg">
<path d="M9.59945 7.00021L13.4983 3.10138C13.9767 2.62294 13.9767 1.84722 13.4983 1.36839L12.6318 0.501898C12.1533 0.023456 11.3776 0.023456 10.8988 0.501898L6.99996 4.40073L3.10113 0.501898C2.62269 0.023456 1.84698 0.023456 1.36815 0.501898L0.501653 1.36839C0.0232119 1.84683 0.0232119 2.62255 0.501653 3.10138L4.40048 7.00021L0.501653 10.899C0.0232119 11.3775 0.0232119 12.1532 0.501653 12.632L1.36815 13.4985C1.84659 13.977 2.62269 13.977 3.10113 13.4985L6.99996 9.59969L10.8988 13.4985C11.3772 13.977 12.1533 13.977 12.6318 13.4985L13.4983 12.632C13.9767 12.1536 13.9767 11.3779 13.4983 10.899L9.59945 7.00021Z" fill="#EC6A5E"/>
</svg>
