<svg width="16" height="16" viewBox="0 0 16 16" fill="none" xmlns="http://www.w3.org/2000/svg">
<path d="M15.5601 4.44219L14.1195 5.88281C13.9726 6.02969 13.7351 6.02969 13.5882 5.88281L10.1195 2.41406C9.9726 2.26719 9.9726 2.02969 10.1195 1.88281L11.5601 0.442188C12.1445 -0.142188 13.0945 -0.142188 13.682 0.442188L15.5601 2.32031C16.1476 2.90469 16.1476 3.85469 15.5601 4.44219ZM8.88197 3.12031L0.675724 11.3266L0.0132244 15.1234C-0.0774006 15.6359 0.369474 16.0797 0.881974 15.9922L4.67885 15.3266L12.8851 7.12031C13.032 6.97344 13.032 6.73594 12.8851 6.58906L9.41635 3.12031C9.26635 2.97344 9.02885 2.97344 8.88197 3.12031ZM3.87885 10.6234C3.70697 10.4516 3.70697 10.1766 3.87885 10.0047L8.69135 5.19219C8.86322 5.02031 9.13822 5.02031 9.3101 5.19219C9.48197 5.36406 9.48197 5.63906 9.3101 5.81094L4.4976 10.6234C4.32572 10.7953 4.05072 10.7953 3.87885 10.6234ZM2.75072 13.2516H4.25072V14.3859L2.2351 14.7391L1.26322 13.7672L1.61635 11.7516H2.75072V13.2516Z" fill="#F0AD4E"/>
</svg>
