<svg width="14" height="14" viewBox="0 0 14 14" fill="none" xmlns="http://www.w3.org/2000/svg">
<path d="M13.8212 8.68225L12.5651 7.9879C12.6919 7.33306 12.6919 6.66129 12.5651 6.00646L13.8212 5.3121C13.9657 5.23307 14.0305 5.06936 13.9833 4.91694C13.6561 3.91211 13.0988 3.00324 12.3705 2.24679C12.2585 2.13107 12.0757 2.10284 11.9342 2.18187L10.6781 2.87623C10.1503 2.44155 9.54294 2.10566 8.88543 1.8855V0.499621C8.88543 0.341557 8.77044 0.203251 8.60827 0.169381C7.52618 -0.0620701 6.41755 -0.0507798 5.38853 0.169381C5.22636 0.203251 5.11137 0.341557 5.11137 0.499621V1.88833C4.45681 2.11131 3.84942 2.44719 3.31869 2.87905L2.06559 2.1847C1.92112 2.10566 1.74126 2.13107 1.62922 2.24961C0.900941 3.00324 0.343678 3.91211 0.0163971 4.91977C-0.0337271 5.07218 0.034088 5.23589 0.178563 5.31493L1.43462 6.00928C1.30783 6.66411 1.30783 7.33589 1.43462 7.99072L0.178563 8.68507C0.034088 8.76411 -0.0307786 8.92781 0.0163971 9.08023C0.343678 10.0851 0.900941 10.9939 1.62922 11.7504C1.74126 11.8661 1.92406 11.8943 2.06559 11.8153L3.32164 11.121C3.84942 11.5556 4.45681 11.8915 5.11432 12.1117V13.5004C5.11432 13.6584 5.22931 13.7967 5.39148 13.8306C6.47357 14.0621 7.5822 14.0508 8.61122 13.8306C8.77338 13.7967 8.88837 13.6584 8.88837 13.5004V12.1117C9.54294 11.8887 10.1503 11.5528 10.681 11.121L11.9371 11.8153C12.0816 11.8943 12.2614 11.8689 12.3735 11.7504C13.1018 10.9968 13.659 10.0879 13.9863 9.08023C14.0305 8.92499 13.9657 8.76128 13.8212 8.68225ZM6.9984 9.25523C5.69812 9.25523 4.7 8.24475 4.7 7C4.7 5.75525 5.69812 4.73912 6.9984 4.73912C8.29868 4.73912 9.3 5.75242 9.3 6.99718C9.3 8.24193 8.29868 9.25523 6.9984 9.25523Z" fill="#99A2B9"/>
</svg>
