<svg xmlns="http://www.w3.org/2000/svg" width="512" height="512" fill="none"><g fill-rule="evenodd" clip-path="url(#a)" clip-rule="evenodd"><path fill="#00FF00" d="M168.055 23.5h316.587L334.747 327.449H167.815A151.973 151.973 0 0 1 15.84 175.474 151.974 151.974 0 0 1 167.815 23.5h.24Z"/><path fill="#ED4041" d="M343.625 488.863H27.038l150.055-303.95h166.852a151.976 151.976 0 0 1 0 303.95h-.32Z"/><path fill="#C0202D" d="M343.785 184.913a151.993 151.993 0 0 1 55.991 10.638l-65.029 131.898H167.814a151 151 0 0 1-55.99-10.638l65.109-131.898h166.852Z"/></g><defs><clipPath id="a"><path fill="#fff" d="M16 23.5h480v465.362H16z"/></clipPath></defs></svg>