<svg viewBox="0 0 20 20" xmlns="http://www.w3.org/2000/svg" id="icon">
  <path d="M10.4939 0.101106C10.3383 0.0343977 10.1708 0 10.0015 0C9.83216 0 9.66463 0.0343977 9.50902 0.101106L0.760015 3.8509C0.534554 3.94695 0.342304 4.10717 0.207174 4.31162C0.072045 4.51608 0 4.75575 0 5.00083C0 5.24592 0.072045 5.48559 0.207174 5.69004C0.342304 5.8945 0.534554 6.05472 0.760015 6.15077L4.06464 7.56444C4.1873 7.42569 4.33929 7.31596 4.50959 7.24321L9.50902 5.10083C9.6603 5.0334 9.82348 4.99671 9.98907 4.9929C10.1547 4.98909 10.3194 5.01823 10.4736 5.07863C10.6278 5.13903 10.7685 5.22948 10.8875 5.34473C11.0064 5.45999 11.1013 5.59773 11.1666 5.74997C11.2318 5.90222 11.2662 6.06591 11.2676 6.23155C11.2691 6.39718 11.2376 6.56145 11.175 6.71481C11.1124 6.86817 11.02 7.00757 10.9031 7.12488C10.7861 7.2422 10.6471 7.33511 10.4939 7.3982L7.08554 8.86062L9.51027 9.89931C9.6657 9.96585 9.83301 10.0002 10.0021 10.0002C10.1712 10.0002 10.3385 9.96585 10.4939 9.89931L19.2429 6.14952C19.4676 6.05311 19.6591 5.89289 19.7937 5.68872C19.9283 5.48454 20 5.24537 20 5.00083C20 4.7563 19.9283 4.51713 19.7937 4.31295C19.6591 4.10877 19.4676 3.94856 19.2429 3.85215L10.4939 0.102356V0.101106ZM1.63992 9.24685L3.75217 10.1505V15.2778C3.31941 15.1794 2.88119 15.1067 2.43982 15.0603C2.15504 15.0303 1.88916 14.9035 1.68668 14.701C1.4842 14.4985 1.35738 14.2326 1.32745 13.9478C1.16308 12.3741 1.26876 10.7838 1.63992 9.2456V9.24685ZM9.12656 18.2164C8.28168 17.3873 7.31158 16.6964 6.25189 16.169V11.223L8.52413 12.1979C8.99095 12.3981 9.49356 12.5013 10.0015 12.5013C10.5094 12.5013 11.012 12.3981 11.4788 12.1979L18.363 9.24685C18.7363 10.7847 18.842 12.3754 18.6755 13.9491C18.6455 14.2339 18.5187 14.4998 18.3162 14.7023C18.1138 14.9048 17.8479 15.0316 17.5631 15.0615C15.0415 15.3265 12.6843 16.4387 10.8764 18.2164C10.6427 18.4454 10.3286 18.5737 10.0015 18.5737C9.67431 18.5737 9.3602 18.4454 9.12656 18.2164ZM5.00203 20C5.33352 20 5.65142 19.8683 5.88581 19.6339C6.12021 19.3995 6.25189 19.0816 6.25189 18.7501V16.169C5.45698 15.774 4.61782 15.4753 3.75217 15.279V18.7501C3.75217 19.0816 3.88386 19.3995 4.11825 19.6339C4.35264 19.8683 4.67055 20 5.00203 20Z"/>
</svg>
