<svg viewBox="0 0 20 20" xmlns="http://www.w3.org/2000/svg" id="icon">
  <path fill-rule="evenodd" d="M17.0711 17.0711C18.9464 15.1957 20 12.6522 20 10C20 7.34784 18.9464 4.8043 17.0711 2.92893C15.1957 1.05357 12.6522 0 10 0C7.34784 0 4.8043 1.05357 2.92893 2.92893C1.05357 4.8043 0 7.34784 0 10C0 12.6522 1.05357 15.1957 2.92893 17.0711C4.8043 18.9464 7.34784 20 10 20C12.6522 20 15.1957 18.9464 17.0711 17.0711ZM11.3657 5.23489V8.80863H14.9394C15.3782 8.80881 15.7337 9.16433 15.7337 9.60288V10.3971C15.7337 10.8357 15.378 11.1914 14.9394 11.1914H11.3657V14.7651C11.3657 15.2037 11.01 15.5594 10.5714 15.5594H9.77719C9.33846 15.5592 8.98294 15.2037 8.98294 14.7651V11.1914H5.4092C4.97047 11.1912 4.61495 10.8357 4.61495 10.3971V9.60288C4.61513 9.16415 4.97065 8.80863 5.4092 8.80863H8.98294V5.23489C8.98312 4.79616 9.33864 4.44064 9.77719 4.44064L10.5714 4.44064C11.0102 4.44082 11.3657 4.79634 11.3657 5.23489Z"/>
</svg>
