<svg viewBox="0 0 20 20" xmlns="http://www.w3.org/2000/svg" id="icon">
  <path fill-rule="evenodd" d="M20 13.6667V3.53333C20 2.86145 19.7366 2.21709 19.2678 1.742C18.7989 1.2669 18.163 1 17.5 1H2.5C1.83696 1 1.20107 1.2669 0.732233 1.742C0.263392 2.21709 0 2.86145 0 3.53333V13.6667C0 14.3385 0.263392 14.9829 0.732233 15.458C1.20107 15.9331 1.83696 16.2 2.5 16.2H6.25L10 20L13.75 16.2H17.5C18.163 16.2 18.7989 15.9331 19.2678 15.458C19.7366 14.9829 20 14.3385 20 13.6667ZM3.75 6.06667C3.75 5.73073 3.8817 5.40854 4.11612 5.171C4.35054 4.93345 4.66848 4.8 5 4.8H15C15.3315 4.8 15.6495 4.93345 15.8839 5.171C16.1183 5.40854 16.25 5.73073 16.25 6.06667C16.25 6.40261 16.1183 6.72479 15.8839 6.96234C15.6495 7.19988 15.3315 7.33333 15 7.33333H5C4.66848 7.33333 4.35054 7.19988 4.11612 6.96234C3.8817 6.72479 3.75 6.40261 3.75 6.06667ZM5 9.86667C4.66848 9.86667 4.35054 10.0001 4.11612 10.2377C3.8817 10.4752 3.75 10.7974 3.75 11.1333C3.75 11.4693 3.8817 11.7915 4.11612 12.029C4.35054 12.2665 4.66848 12.4 5 12.4H8.75C9.08152 12.4 9.39946 12.2665 9.63388 12.029C9.8683 11.7915 10 11.4693 10 11.1333C10 10.7974 9.8683 10.4752 9.63388 10.2377C9.39946 10.0001 9.08152 9.86667 8.75 9.86667H5Z"/>
</svg>
