<svg viewBox="0 0 20 20" xmlns="http://www.w3.org/2000/svg" id="icon">
  <path fill-rule="evenodd" d="M1.65901 2.73223C2.08097 2.26339 2.65326 2 3.25 2H16.75C17.3467 2 17.919 2.26339 18.341 2.73223C18.7629 3.20107 19 3.83696 19 4.5C19 5.16304 18.7629 5.79893 18.341 6.26777C17.919 6.73661 17.3467 7 16.75 7H3.25C2.65326 7 2.08097 6.73661 1.65901 6.26777C1.23705 5.79893 1 5.16304 1 4.5C1 3.83696 1.23705 3.20107 1.65901 2.73223ZM18 8H2V15.7778C2 16.3671 2.24082 16.9324 2.66947 17.3491C3.09812 17.7659 3.67951 18 4.28571 18H15.7143C16.3205 18 16.9019 17.7659 17.3305 17.3491C17.7592 16.9324 18 16.3671 18 15.7778V8ZM8.04902 10.5477C7.83469 10.756 7.71429 11.0386 7.71429 11.3333C7.71429 11.628 7.83469 11.9106 8.04902 12.119C8.26335 12.3274 8.55404 12.4444 8.85714 12.4444H11.1429C11.446 12.4444 11.7367 12.3274 11.951 12.119C12.1653 11.9106 12.2857 11.628 12.2857 11.3333C12.2857 11.0386 12.1653 10.756 11.951 10.5477C11.7367 10.3393 11.446 10.2222 11.1429 10.2222H8.85714C8.55404 10.2222 8.26335 10.3393 8.04902 10.5477Z"/>
</svg>
