<svg viewBox="0 0 20 20" xmlns="http://www.w3.org/2000/svg" id="icon">
  <path fill-rule="evenodd" d="M2.33491 9.67025C2.12047 9.45928 2 9.17318 2 8.87486C2 8.57655 2.12047 8.29045 2.33491 8.07948L9.19818 1.32939C9.41269 1.11848 9.70359 1 10.0069 1C10.3102 1 10.6011 1.11848 10.8156 1.32939L17.6789 8.07948C17.8873 8.29166 18.0026 8.57584 18 8.87082C17.9974 9.16579 17.877 9.44796 17.665 9.65655C17.4529 9.86513 17.166 9.98345 16.8661 9.98601C16.5661 9.98858 16.2772 9.87518 16.0615 9.67025L11.1508 4.84056V17.875C11.1508 18.1734 11.0303 18.4595 10.8158 18.6705C10.6012 18.8815 10.3103 19 10.0069 19C9.70353 19 9.41258 18.8815 9.19806 18.6705C8.98354 18.4595 8.86303 18.1734 8.86303 17.875V4.84056L3.95236 9.67025C3.73785 9.88116 3.44695 9.99964 3.14363 9.99964C2.84032 9.99964 2.54942 9.88116 2.33491 9.67025Z"/>
</svg>
