<svg viewBox="0 0 20 20" xmlns="http://www.w3.org/2000/svg" id="icon">
  <path fill-rule="evenodd" d="M4.7297 7.42043C4.51853 7.20946 4.3999 6.92336 4.3999 6.62505C4.3999 6.32673 4.51853 6.04063 4.7297 5.82966L9.2354 1.3296C9.44663 1.11869 9.73309 1.00021 10.0318 1.00021C10.3305 1.00021 10.6169 1.11869 10.8282 1.3296L15.3339 5.82966C15.539 6.04184 15.6526 6.32602 15.65 6.621C15.6474 6.91598 15.529 7.19814 15.3201 7.40673C15.1113 7.61532 14.8288 7.73363 14.5334 7.7362C14.2381 7.73876 13.9535 7.62536 13.7411 7.42043L11.1582 4.84077V17.8752C11.1582 18.1736 11.0395 18.4597 10.8283 18.6707C10.617 18.8817 10.3305 19.0002 10.0318 19.0002C9.73303 19.0002 9.44652 18.8817 9.23528 18.6707C9.02403 18.4597 8.90535 18.1736 8.90535 17.8752V4.84077L6.32247 7.42043C6.11123 7.63134 5.82477 7.74982 5.52608 7.74982C5.2274 7.74982 4.94094 7.63134 4.7297 7.42043Z"/>
</svg>
