<svg viewBox="0 0 20 20" xmlns="http://www.w3.org/2000/svg" id="icon">
  <path fill-rule="evenodd" d="M10.3298 2.33491C10.5407 2.12047 10.8268 2 11.1251 2C11.4234 2 11.7095 2.12047 11.9205 2.33491L18.6706 9.19818C18.8815 9.41269 19 9.70359 19 10.0069C19 10.3102 18.8815 10.6011 18.6706 10.8156L11.9205 17.6789C11.7083 17.8873 11.4242 18.0026 11.1292 18C10.8342 17.9974 10.552 17.877 10.3435 17.665C10.1349 17.4529 10.0166 17.166 10.014 16.8661C10.0114 16.5661 10.1248 16.2772 10.3298 16.0615L15.1594 11.1508H2.12502C1.82664 11.1508 1.54049 11.0303 1.32951 10.8158C1.11853 10.6012 1 10.3103 1 10.0069C1 9.70353 1.11853 9.41258 1.32951 9.19806C1.54049 8.98354 1.82664 8.86303 2.12502 8.86303H15.1594L10.3298 3.95236C10.1188 3.73785 10.0004 3.44695 10.0004 3.14363C10.0004 2.84032 10.1188 2.54942 10.3298 2.33491Z"/>
</svg>
