<svg viewBox="0 0 20 20" xmlns="http://www.w3.org/2000/svg" id="icon">
  <path fill-rule="evenodd" d="M5.5 4.375V5.5H3.25C2.65326 5.5 2.08097 5.73705 1.65901 6.15901C1.23705 6.58097 1 7.15327 1 7.75V11.7663C3.88041 12.8336 6.92818 13.3784 10 13.375C13.0718 13.3784 16.1196 12.8336 19 11.7663V7.75C19 7.15327 18.7629 6.58097 18.341 6.15901C17.919 5.73705 17.3467 5.5 16.75 5.5H14.5V4.375C14.5 3.4799 14.1444 2.62145 13.5115 1.98852C12.8785 1.35558 12.0201 1 11.125 1H8.875C7.97989 1 7.12145 1.35558 6.48851 1.98852C5.85558 2.62145 5.5 3.4799 5.5 4.375ZM8.0795 3.57951C7.86852 3.79048 7.75 4.07663 7.75 4.375V5.5H12.25V4.375C12.25 4.07663 12.1315 3.79048 11.9205 3.57951C11.7095 3.36853 11.4234 3.25 11.125 3.25H8.875C8.57663 3.25 8.29048 3.36853 8.0795 3.57951ZM9.2045 9.20451C8.99352 9.41549 8.875 9.70164 8.875 10C8.875 10.2984 8.99352 10.5845 9.2045 10.7955C9.41548 11.0065 9.70163 11.125 10 11.125H10.0112C10.3096 11.125 10.5958 11.0065 10.8067 10.7955C11.0177 10.5845 11.1362 10.2984 11.1362 10C11.1362 9.70164 11.0177 9.41549 10.8067 9.20451C10.5958 8.99353 10.3096 8.875 10.0112 8.875H10C9.70163 8.875 9.41548 8.99353 9.2045 9.20451ZM1.00001 16.75V14.1535C3.82713 15.1075 6.8545 15.625 10 15.625C13.0601 15.6279 16.1002 15.1309 19 14.1535V16.75C19 17.3468 18.7629 17.9191 18.341 18.341C17.919 18.763 17.3467 19 16.75 19H3.25001C2.65327 19 2.08097 18.763 1.65902 18.341C1.23706 17.9191 1.00001 17.3468 1.00001 16.75Z"/>
</svg>
