<svg viewBox="0 0 20 20" xmlns="http://www.w3.org/2000/svg" id="icon">
  <path fill-rule="evenodd" d="M2.5 2C1.83696 2 1.20107 2.28095 0.732233 2.78105C0.263392 3.28115 0 3.95942 0 4.66667V10C0 10.7072 0.263392 11.3855 0.732233 11.8856C1.20107 12.3857 1.83696 12.6667 2.5 12.6667V4.66667H15C15 3.95942 14.7366 3.28115 14.2678 2.78105C13.7989 2.28095 13.163 2 12.5 2H2.5ZM5 10C5 9.29276 5.26339 8.61448 5.73223 8.11438C6.20107 7.61429 6.83696 7.33333 7.5 7.33333H17.5C18.163 7.33333 18.7989 7.61429 19.2678 8.11438C19.7366 8.61448 20 9.29276 20 10V15.3333C20 16.0406 19.7366 16.7189 19.2678 17.219C18.7989 17.719 18.163 18 17.5 18H7.5C6.83696 18 6.20107 17.719 5.73223 17.219C5.26339 16.7189 5 16.0406 5 15.3333V10ZM12.5 15.3333C13.163 15.3333 13.7989 15.0524 14.2678 14.5523C14.7366 14.0522 15 13.3739 15 12.6667C15 11.9594 14.7366 11.2811 14.2678 10.781C13.7989 10.281 13.163 10 12.5 10C11.837 10 11.2011 10.281 10.7322 10.781C10.2634 11.2811 10 11.9594 10 12.6667C10 13.3739 10.2634 14.0522 10.7322 14.5523C11.2011 15.0524 11.837 15.3333 12.5 15.3333Z"/>
</svg>
