<svg viewBox="0 0 20 20" xmlns="http://www.w3.org/2000/svg" id="icon">
  <path d="M1 11.1429C1 10.8398 1.11853 10.5491 1.3295 10.3347C1.54048 10.1204 1.82663 10 2.125 10H4.375C4.67337 10 4.95952 10.1204 5.1705 10.3347C5.38147 10.5491 5.5 10.8398 5.5 11.1429V16.8571C5.5 17.1602 5.38147 17.4509 5.1705 17.6653C4.95952 17.8796 4.67337 18 4.375 18H2.125C1.82663 18 1.54048 17.8796 1.3295 17.6653C1.11853 17.4509 1 17.1602 1 16.8571V11.1429ZM7.75 6.57143C7.75 6.26832 7.86853 5.97763 8.0795 5.76331C8.29048 5.54898 8.57663 5.42857 8.875 5.42857H11.125C11.4234 5.42857 11.7095 5.54898 11.9205 5.76331C12.1315 5.97763 12.25 6.26832 12.25 6.57143V16.8571C12.25 17.1602 12.1315 17.4509 11.9205 17.6653C11.7095 17.8796 11.4234 18 11.125 18H8.875C8.57663 18 8.29048 17.8796 8.0795 17.6653C7.86853 17.4509 7.75 17.1602 7.75 16.8571V6.57143ZM14.5 3.14286C14.5 2.83975 14.6185 2.54906 14.8295 2.33474C15.0405 2.12041 15.3266 2 15.625 2H17.875C18.1734 2 18.4595 2.12041 18.6705 2.33474C18.8815 2.54906 19 2.83975 19 3.14286V16.8571C19 17.1602 18.8815 17.4509 18.6705 17.6653C18.4595 17.8796 18.1734 18 17.875 18H15.625C15.3266 18 15.0405 17.8796 14.8295 17.6653C14.6185 17.4509 14.5 17.1602 14.5 16.8571V3.14286Z"/>
</svg>
