<svg viewBox="0 0 20 20" xmlns="http://www.w3.org/2000/svg" id="icon">
  <path d="M19.9999 4.64902C20.0056 5.34967 19.7529 6.02468 19.2961 6.52867L9.26524 17.2176C8.79498 17.7186 8.15725 18 7.4923 18C6.82734 18 6.18961 17.7186 5.71935 17.2176L0.703943 11.8731C0.247145 11.3691 -0.0056188 10.6941 9.47975e-05 9.99349C0.0058084 9.29283 0.269542 8.6226 0.73449 8.12715C1.19944 7.6317 1.8284 7.35066 2.48591 7.34457C3.14343 7.33848 3.77688 7.60783 4.24984 8.0946L7.4923 11.5498L15.7502 2.75013C16.2231 2.26336 16.8566 1.99401 17.5141 2.0001C18.1716 2.00619 18.8006 2.28723 19.2655 2.78268C19.7305 3.27813 19.9942 3.94836 19.9999 4.64902Z"/>
</svg>
