<svg viewBox="0 0 20 20" xmlns="http://www.w3.org/2000/svg" id="icon">
  <path fill-rule="evenodd" d="M4.58631 19.4137C4.21089 19.0382 4 18.5289 4 17.9979C4 17.4669 4.21089 16.9577 4.58631 16.5822L11.1806 9.98791L4.58631 3.39367C4.22153 3.01599 4.01969 2.51015 4.02425 1.9851C4.02882 1.46005 4.23942 0.957801 4.6107 0.58652C4.98198 0.21524 5.48423 0.00463824 6.00928 7.56996e-05C6.53433 -0.00448684 7.04017 0.197355 7.41785 0.562127L15.4279 8.57214C15.8033 8.94767 16.0142 9.45692 16.0142 9.98791C16.0142 10.5189 15.8033 11.0282 15.4279 11.4037L7.41785 19.4137C7.04232 19.7891 6.53307 20 6.00208 20C5.47108 20 4.96183 19.7891 4.58631 19.4137Z"/>
</svg>
