<svg viewBox="0 0 20 20" xmlns="http://www.w3.org/2000/svg" id="icon">
  <path fill-rule="evenodd" d="M9.23111 17.6425C9.23111 18.0504 9.39314 18.4417 9.68157 18.7302C9.97008 19.0186 10.3613 19.1806 10.7693 19.1806C11.1772 19.1806 11.5685 19.0186 11.857 18.7302L19.5495 11.0377C19.838 10.7491 20 10.3579 20 9.94994C20 9.54198 19.838 9.15073 19.5495 8.86221L11.857 1.16968C11.7151 1.02274 11.5453 0.905535 11.3576 0.824903C11.1699 0.744272 10.968 0.70183 10.7638 0.700055C10.5595 0.69828 10.3569 0.737206 10.1678 0.814564C9.97873 0.891921 9.80695 1.00616 9.6625 1.15061C9.51804 1.29507 9.40381 1.46685 9.32645 1.65592C9.24909 1.845 9.21016 2.04759 9.21194 2.25187C9.21371 2.45615 9.25616 2.65804 9.33679 2.84574C9.41742 3.03344 9.53463 3.20321 9.68157 3.34513L16.2864 9.94994L9.68157 16.5547C9.39314 16.8433 9.23111 17.2345 9.23111 17.6425ZM0 17.6425C0 18.0504 0.162029 18.4417 0.450454 18.7302C0.738966 19.0186 1.13022 19.1806 1.53818 19.1806C1.94613 19.1806 2.33739 19.0186 2.6259 18.7302L10.3184 11.0376C10.6069 10.7491 10.7689 10.3579 10.7689 9.94992C10.7689 9.54197 10.6069 9.15071 10.3184 8.8622L2.6259 1.16967C2.33574 0.889419 1.94711 0.734346 1.54371 0.737851C1.14032 0.741356 0.754446 0.90316 0.469195 1.18841C0.183943 1.47366 0.02214 1.85954 0.0186346 2.26293C0.0151292 2.66632 0.170203 3.05495 0.450454 3.34512L7.05526 9.94992L0.450454 16.5547C0.162029 16.8432 0 17.2345 0 17.6425Z"/>
</svg>
