<svg viewBox="0 0 20 20" xmlns="http://www.w3.org/2000/svg" id="icon">
  <path fill-rule="evenodd" d="M5.96644 0.366116C6.20086 0.131696 6.5188 0 6.85032 0H9.35032C9.68184 0 9.99979 0.131696 10.2342 0.366116C10.4686 0.600537 10.6003 0.918479 10.6003 1.25C10.6003 1.58152 10.4686 1.89946 10.2342 2.13388C9.99979 2.3683 9.68184 2.5 9.35032 2.5H6.85032C6.5188 2.5 6.20086 2.3683 5.96644 2.13388C5.73202 1.89946 5.60032 1.58152 5.60032 1.25C5.60032 0.918479 5.73202 0.600537 5.96644 0.366116ZM1.33233 1.98223C0.86349 2.45107 0.600098 3.08696 0.600098 3.75V17.5C0.600098 18.163 0.86349 18.7989 1.33233 19.2678C1.80117 19.7366 2.43706 20 3.1001 20H13.1001C13.7631 20 14.399 19.7366 14.8679 19.2678C15.3367 18.7989 15.6001 18.163 15.6001 17.5V13.75H18.1001C18.4316 13.75 18.7496 13.6183 18.984 13.3839C19.2184 13.1495 19.3501 12.8315 19.3501 12.5C19.3501 12.1685 19.2184 11.8505 18.984 11.6161C18.7496 11.3817 18.4316 11.25 18.1001 11.25H15.6001V3.75C15.6001 3.08696 15.3367 2.45107 14.8679 1.98223C14.399 1.51339 13.7631 1.25 13.1001 1.25C13.1001 2.24456 12.705 3.19839 12.0017 3.90165C11.2985 4.60491 10.3447 5 9.3501 5H6.8501C5.85554 5 4.90171 4.60491 4.19845 3.90165C3.49519 3.19839 3.1001 2.24456 3.1001 1.25C2.43706 1.25 1.80117 1.51339 1.33233 1.98223ZM15.6001 11.25H9.8676L11.4838 9.63375C11.7115 9.39799 11.8375 9.08224 11.8347 8.7545C11.8318 8.42675 11.7004 8.11323 11.4686 7.88147C11.2369 7.64971 10.9233 7.51825 10.5956 7.5154C10.2679 7.51256 9.9521 7.63855 9.71635 7.86625L5.96635 11.6162C5.73201 11.8507 5.60037 12.1685 5.60037 12.5C5.60037 12.8315 5.73201 13.1493 5.96635 13.3837L9.71635 17.1337C9.9521 17.3614 10.2679 17.4874 10.5956 17.4846C10.9233 17.4817 11.2369 17.3503 11.4686 17.1185C11.7004 16.8868 11.8318 16.5732 11.8347 16.2455C11.8375 15.9178 11.7115 15.602 11.4838 15.3662L9.8676 13.75H15.6001V11.25Z"/>
</svg>
