<svg viewBox="0 0 20 20" xmlns="http://www.w3.org/2000/svg" id="icon">
  <path fill-rule="evenodd" d="M7.72388 0.366114C7.47383 0.600533 7.33336 0.918474 7.33336 1.24999C7.33336 1.58151 7.47383 1.89945 7.72388 2.13387C7.97392 2.36829 8.31306 2.49998 8.66668 2.49998H11.3333C11.687 2.49998 12.0261 2.36829 12.2761 2.13387C12.5262 1.89945 12.6667 1.58151 12.6667 1.24999C12.6667 0.918474 12.5262 0.600533 12.2761 0.366114C12.0261 0.131695 11.687 0 11.3333 0H8.66668C8.31306 0 7.97392 0.131695 7.72388 0.366114ZM2.78104 1.98222C3.28114 1.51338 3.95941 1.24999 4.66665 1.24999C4.66665 2.24455 5.08808 3.19837 5.83822 3.90163C6.58836 4.60488 7.60577 4.99997 8.66663 4.99997H11.3333C12.3941 4.99997 13.4115 4.60488 14.1617 3.90163C14.9118 3.19837 15.3333 2.24455 15.3333 1.24999C16.0405 1.24999 16.7188 1.51338 17.2189 1.98222C17.719 2.45106 17.9999 3.08694 17.9999 3.74998V17.4999C17.9999 18.1629 17.719 18.7988 17.2189 19.2676C16.7188 19.7365 16.0405 19.9999 15.3333 19.9999H4.66665C3.95941 19.9999 3.28114 19.7365 2.78104 19.2676C2.28095 18.7988 2 18.1629 2 17.4999V3.74998C2 3.08694 2.28095 2.45106 2.78104 1.98222Z"/>
</svg>
