<svg viewBox="0 0 20 20" xmlns="http://www.w3.org/2000/svg" id="icon">
  <path fill-rule="evenodd" d="M12.316 3.051C12.4407 3.09247 12.5559 3.15809 12.6552 3.24412C12.7545 3.33014 12.8358 3.43488 12.8946 3.55236C12.9534 3.66983 12.9885 3.79774 12.9978 3.92876C13.0071 4.05979 12.9906 4.19138 12.949 4.316L8.94903 16.316C8.86522 16.5677 8.68486 16.7758 8.44763 16.8945C8.2104 17.0132 7.93572 17.0328 7.68403 16.949C7.43234 16.8652 7.22425 16.6848 7.10554 16.4476C6.98683 16.2104 6.96722 15.9357 7.05103 15.684L11.051 3.684C11.0925 3.55936 11.1581 3.44411 11.2442 3.34483C11.3302 3.24556 11.4349 3.16421 11.5524 3.10542C11.6699 3.04664 11.7978 3.01158 11.9288 3.00224C12.0598 2.9929 12.1914 3.00947 12.316 3.051ZM5.70703 6.293C5.8945 6.48053 5.99982 6.73483 5.99982 7C5.99982 7.26516 5.8945 7.51947 5.70703 7.707L3.41403 10L5.70703 12.293C5.80254 12.3852 5.87872 12.4956 5.93113 12.6176C5.98354 12.7396 6.01113 12.8708 6.01228 13.0036C6.01343 13.1364 5.98813 13.2681 5.93785 13.391C5.88757 13.5138 5.81332 13.6255 5.71943 13.7194C5.62553 13.8133 5.51388 13.8875 5.39098 13.9378C5.26809 13.9881 5.13641 14.0134 5.00363 14.0122C4.87085 14.0111 4.73963 13.9835 4.61763 13.9311C4.49562 13.8787 4.38528 13.8025 4.29303 13.707L1.29303 10.707C1.10556 10.5195 1.00024 10.2652 1.00024 10C1.00024 9.73483 1.10556 9.48053 1.29303 9.293L4.29303 6.293C4.48056 6.10553 4.73487 6.00021 5.00003 6.00021C5.26519 6.00021 5.5195 6.10553 5.70703 6.293ZM14.293 6.293C14.4806 6.10553 14.7349 6.00021 15 6.00021C15.2652 6.00021 15.5195 6.10553 15.707 6.293L18.707 9.293C18.8945 9.48053 18.9998 9.73483 18.9998 10C18.9998 10.2652 18.8945 10.5195 18.707 10.707L15.707 13.707C15.6148 13.8025 15.5044 13.8787 15.3824 13.9311C15.2604 13.9835 15.1292 14.0111 14.9964 14.0122C14.8637 14.0134 14.732 13.9881 14.6091 13.9378C14.4862 13.8875 14.3745 13.8133 14.2806 13.7194C14.1867 13.6255 14.1125 13.5138 14.0622 13.391C14.0119 13.2681 13.9866 13.1364 13.9878 13.0036C13.9889 12.8708 14.0165 12.7396 14.0689 12.6176C14.1213 12.4956 14.1975 12.3852 14.293 12.293L16.586 10L14.293 7.707C14.1056 7.51947 14.0002 7.26516 14.0002 7C14.0002 6.73483 14.1056 6.48053 14.293 6.293Z"/>
</svg>
