<svg viewBox="0 0 20 20" xmlns="http://www.w3.org/2000/svg" id="icon">
  <path d="M6.625 1C6.32663 1 6.04048 1.13546 5.8295 1.37658C5.61853 1.6177 5.5 1.94472 5.5 2.28571C5.5 2.62671 5.61853 2.95373 5.8295 3.19485C6.04048 3.43597 6.32663 3.57143 6.625 3.57143H13.375C13.6734 3.57143 13.9595 3.43597 14.1705 3.19485C14.3815 2.95373 14.5 2.62671 14.5 2.28571C14.5 1.94472 14.3815 1.6177 14.1705 1.37658C13.9595 1.13546 13.6734 1 13.375 1H6.625ZM3.25 6.28571C3.25 5.94472 3.36853 5.61769 3.5795 5.37658C3.79048 5.13546 4.07663 5 4.375 5H15.625C15.9234 5 16.2095 5.13546 16.4205 5.37658C16.6315 5.61769 16.75 5.94472 16.75 6.28571C16.75 6.62671 16.6315 6.95373 16.4205 7.19485C16.2095 7.43597 15.9234 7.57143 15.625 7.57143H4.375C4.07663 7.57143 3.79048 7.43597 3.5795 7.19485C3.36853 6.95373 3.25 6.62671 3.25 6.28571ZM1 11.5C1 10.818 1.23705 10.164 1.65901 9.68173C2.08097 9.19949 2.65326 8.92857 3.25 8.92857H16.75C17.3467 8.92857 17.919 9.19949 18.341 9.68173C18.7629 10.164 19 10.818 19 11.5V16.4286C19 17.1106 18.7629 17.7646 18.341 18.2468C17.919 18.7291 17.3467 19 16.75 19H3.25C2.65326 19 2.08097 18.7291 1.65901 18.2468C1.23705 17.7646 1 17.1106 1 16.4286V11.5Z"/>
</svg>
