<svg viewBox="0 0 20 20" xmlns="http://www.w3.org/2000/svg" id="icon">
  <path fill-rule="evenodd" d="M3.25 1C2.65326 1 2.08097 1.23705 1.65901 1.65901C1.23705 2.08097 1 2.65326 1 3.25V15.625C1 16.5201 1.35558 17.3786 1.98851 18.0115C2.62145 18.6444 3.47989 19 4.375 19C5.27011 19 6.12855 18.6444 6.76149 18.0115C7.39442 17.3786 7.75 16.5201 7.75 15.625V3.25C7.75 2.65326 7.51295 2.08097 7.09099 1.65901C6.66903 1.23705 6.09674 1 5.5 1H3.25ZM4.375 16.75C4.67337 16.75 4.95952 16.6315 5.1705 16.4205C5.38147 16.2095 5.5 15.9234 5.5 15.625C5.5 15.3266 5.38147 15.0405 5.1705 14.8295C4.95952 14.6185 4.67337 14.5 4.375 14.5C4.07663 14.5 3.79048 14.6185 3.5795 14.8295C3.36853 15.0405 3.25 15.3266 3.25 15.625C3.25 15.9234 3.36853 16.2095 3.5795 16.4205C3.79048 16.6315 4.07663 16.75 4.375 16.75ZM10 14.7734L15.5125 9.26088C15.9343 8.83894 16.1713 8.26674 16.1713 7.67013C16.1713 7.07351 15.9343 6.50131 15.5125 6.07937L13.9206 4.4875C13.4987 4.06569 12.9265 3.82873 12.3299 3.82873C11.7333 3.82873 11.1611 4.06569 10.7391 4.4875L10 5.22662V14.7734ZM16.75 19H8.95487L15.7049 12.25H16.75C17.3467 12.25 17.919 12.4871 18.341 12.909C18.7629 13.331 19 13.9033 19 14.5V16.75C19 17.3467 18.7629 17.919 18.341 18.341C17.919 18.7629 17.3467 19 16.75 19Z"/>
</svg>
