<svg viewBox="0 0 20 20" xmlns="http://www.w3.org/2000/svg" id="icon">
  <path d="M8 11.5C8 10.9944 8.04125 11.2272 5.34156 5.82781C4.79 4.725 3.21062 4.72281 2.65812 5.82781C-0.0643768 11.2734 0.000623287 11.0103 0.000623287 11.5C0.000623287 12.8806 1.79094 14 4 14C6.20906 14 8 12.8806 8 11.5ZM4 6.5L6.25 11H1.75L4 6.5ZM19.9994 11.5C19.9994 10.9944 20.0412 11.2272 17.3416 5.82781C16.79 4.725 15.2106 4.72281 14.6581 5.82781C11.9356 11.2734 12.0006 11.0103 12.0006 11.5C12.0006 12.8806 13.7909 14 16 14C18.2091 14 19.9994 12.8806 19.9994 11.5ZM13.75 11L16 6.5L18.25 11H13.75ZM16.5 17H11V5.78906C11.7347 5.4675 12.2862 4.80531 12.4497 4H16.5C16.7762 4 17 3.77625 17 3.5V2.5C17 2.22375 16.7762 2 16.5 2H11.9887C11.5325 1.39625 10.8153 1 10 1C9.18469 1 8.4675 1.39625 8.01125 2H3.5C3.22375 2 3 2.22375 3 2.5V3.5C3 3.77625 3.22375 4 3.5 4H7.55031C7.71375 4.805 8.265 5.4675 9 5.78906V17H3.5C3.22375 17 3 17.2237 3 17.5V18.5C3 18.7763 3.22375 19 3.5 19H16.5C16.7762 19 17 18.7763 17 18.5V17.5C17 17.2237 16.7762 17 16.5 17Z"/>
</svg>
