<svg id="icon" viewBox="0 0 20 20" xmlns="http://www.w3.org/2000/svg">
<path d="M13.0327 10L17.5814 5.45136C18.1395 4.89318 18.1395 3.98818 17.5814 3.42955L16.5705 2.41864C16.0123 1.86045 15.1073 1.86045 14.5486 2.41864L10 6.96727L5.45136 2.41864C4.89318 1.86045 3.98818 1.86045 3.42955 2.41864L2.41864 3.42955C1.86045 3.98773 1.86045 4.89273 2.41864 5.45136L6.96727 10L2.41864 14.5486C1.86045 15.1068 1.86045 16.0118 2.41864 16.5705L3.42955 17.5814C3.98773 18.1395 4.89318 18.1395 5.45136 17.5814L10 13.0327L14.5486 17.5814C15.1068 18.1395 16.0123 18.1395 16.5705 17.5814L17.5814 16.5705C18.1395 16.0123 18.1395 15.1073 17.5814 14.5486L13.0327 10Z"/>
</svg>
