<svg viewBox="0 0 20 20" xmlns="http://www.w3.org/2000/svg" id="icon">
  <path fill-rule="evenodd" d="M6.4 1C5.76348 1 5.15303 1.23705 4.70294 1.65901C4.25286 2.08097 4 2.65326 4 3.25V16.75C4 17.3467 4.25286 17.919 4.70294 18.341C5.15303 18.7629 5.76348 19 6.4 19H13.6C14.2365 19 14.847 18.7629 15.2971 18.341C15.7471 17.919 16 17.3467 16 16.75V3.25C16 2.65326 15.7471 2.08097 15.2971 1.65901C14.847 1.23705 14.2365 1 13.6 1H6.4ZM10 16.75C10.3183 16.75 10.6235 16.6315 10.8485 16.4205C11.0736 16.2095 11.2 15.9234 11.2 15.625C11.2 15.3266 11.0736 15.0405 10.8485 14.8295C10.6235 14.6185 10.3183 14.5 10 14.5C9.68174 14.5 9.37652 14.6185 9.15147 14.8295C8.92643 15.0405 8.8 15.3266 8.8 15.625C8.8 15.9234 8.92643 16.2095 9.15147 16.4205C9.37652 16.6315 9.68174 16.75 10 16.75Z"/>
</svg>
