<svg viewBox="0 0 20 20" xmlns="http://www.w3.org/2000/svg" id="icon">
  <path fill-rule="evenodd" d="M5 0C4.33696 0 3.70107 0.263392 3.23223 0.732233C2.76339 1.20107 2.5 1.83696 2.5 2.5V17.5C2.5 18.163 2.76339 18.7989 3.23223 19.2678C3.70107 19.7366 4.33696 20 5 20H15C15.663 20 16.2989 19.7366 16.7678 19.2678C17.2366 18.7989 17.5 18.163 17.5 17.5V6.7675C17.4999 6.10451 17.2364 5.46873 16.7675 5L12.5 0.7325C12.0313 0.263627 11.3955 0.000141594 10.7325 0H5ZM11.25 7.5C11.25 7.16848 11.1183 6.85054 10.8839 6.61612C10.6495 6.3817 10.3315 6.25 10 6.25C9.66848 6.25 9.35054 6.3817 9.11612 6.61612C8.8817 6.85054 8.75 7.16848 8.75 7.5V11.9825L7.13375 10.3663C7.01844 10.2469 6.88051 10.1516 6.72801 10.0861C6.5755 10.0206 6.41148 9.98613 6.2455 9.98469C6.07953 9.98324 5.91493 10.0149 5.76131 10.0777C5.60769 10.1406 5.46812 10.2334 5.35076 10.3508C5.23339 10.4681 5.14057 10.6077 5.07772 10.7613C5.01487 10.9149 4.98324 11.0795 4.98469 11.2455C4.98613 11.4115 5.02061 11.5755 5.08612 11.728C5.15163 11.8805 5.24686 12.0184 5.36625 12.1337L9.11625 15.8837C9.35066 16.1181 9.66854 16.2497 10 16.2497C10.3315 16.2497 10.6493 16.1181 10.8837 15.8837L14.6337 12.1337C14.8614 11.898 14.9874 11.5822 14.9846 11.2545C14.9817 10.9268 14.8503 10.6132 14.6185 10.3815C14.3868 10.1497 14.0732 10.0183 13.7455 10.0154C13.4178 10.0126 13.102 10.1386 12.8663 10.3663L11.25 11.9825V7.5Z"/>
</svg>
