<svg viewBox="0 0 20 20" xmlns="http://www.w3.org/2000/svg" id="icon">
  <path fill-rule="evenodd" d="M3.8659 0.689173C3.42463 1.13044 3.17673 1.72893 3.17673 2.35298V8.85663C4.52155 7.65448 6.27556 7.01277 8.07866 7.06323C9.88176 7.11369 11.5971 7.8525 12.8726 9.12798C14.1481 10.4035 14.8869 12.1188 14.9374 13.9219C14.9878 15.725 14.3461 17.4791 13.144 18.8239H15.647C16.271 18.8239 16.8695 18.576 17.3108 18.1347C17.7521 17.6934 18 17.0949 18 16.4709V6.36953C17.9998 5.74553 17.7518 5.14714 17.3105 4.70597L12.5887 0.689424C12.1475 0.248124 11.5491 0.000133267 10.9251 0H5.52971C4.90566 0 4.30717 0.247903 3.8659 0.689173ZM5.52005 10.0476C6.23778 9.63112 7.05288 9.41181 7.8827 9.41193C8.60627 9.41211 9.32006 9.57913 9.96859 9.90003C10.6171 10.2209 11.1829 10.687 11.622 11.2622C12.0611 11.8373 12.3616 12.5059 12.5003 13.2161C12.639 13.9262 12.612 14.6588 12.4215 15.3568C12.231 16.0549 11.8821 16.6996 11.4019 17.2409C10.9218 17.7822 10.3232 18.2054 9.65287 18.4778C8.9825 18.7501 8.25837 18.8642 7.53674 18.8112C6.81511 18.7582 6.11543 18.5395 5.49207 18.1721L4.00851 19.6557C3.8992 19.7649 3.76945 19.8515 3.62666 19.9106C3.48387 19.9697 3.33085 20.0001 3.17631 20C3.02178 20 2.86878 19.9695 2.72603 19.9103C2.58328 19.8511 2.45359 19.7644 2.34436 19.6551C2.23513 19.5458 2.1485 19.416 2.08941 19.2732C2.03033 19.1304 1.99995 18.9774 2 18.8229C2.00005 18.6683 2.03055 18.5153 2.08973 18.3726C2.14892 18.2298 2.23564 18.1001 2.34495 17.9909L3.82851 16.5085C3.40696 15.7938 3.18191 14.9802 3.17617 14.1504C3.17044 13.3206 3.38422 12.5041 3.79585 11.7835C4.20748 11.063 4.80232 10.4641 5.52005 10.0476ZM6.21889 12.4541C5.77762 12.8954 5.52972 13.4939 5.52972 14.1179C5.52972 14.742 5.77762 15.3404 6.21889 15.7817C6.66016 16.223 7.25865 16.4709 7.8827 16.4709C8.50675 16.4709 9.10524 16.223 9.54651 15.7817C9.98778 15.3404 10.2357 14.742 10.2357 14.1179C10.2357 13.4939 9.98778 12.8954 9.54651 12.4541C9.10524 12.0128 8.50675 11.7649 7.8827 11.7649C7.25865 11.7649 6.66016 12.0128 6.21889 12.4541Z"/>
</svg>
