<svg viewBox="0 0 20 20" xmlns="http://www.w3.org/2000/svg" id="icon">
  <path d="M10 5.54999C9.40326 5.54999 8.83097 5.31293 8.40901 4.89098C7.98705 4.46902 7.75 3.89672 7.75 3.29999C7.75 2.70325 7.98705 2.13095 8.40901 1.709C8.83097 1.28704 9.40326 1.04999 10 1.04999C10.5967 1.04999 11.169 1.28704 11.591 1.709C12.0129 2.13095 12.25 2.70325 12.25 3.29999C12.25 3.89672 12.0129 4.46902 11.591 4.89098C11.169 5.31293 10.5967 5.54999 10 5.54999ZM10 12.3C9.40326 12.3 8.83097 12.0629 8.40901 11.641C7.98705 11.219 7.75 10.6467 7.75 10.05C7.75 9.45325 7.98705 8.88095 8.40901 8.459C8.83097 8.03704 9.40326 7.79999 10 7.79999C10.5967 7.79999 11.169 8.03704 11.591 8.459C12.0129 8.88095 12.25 9.45325 12.25 10.05C12.25 10.6467 12.0129 11.219 11.591 11.641C11.169 12.0629 10.5967 12.3 10 12.3ZM7.75 16.8C7.75 17.3967 7.98705 17.969 8.40901 18.391C8.83097 18.8129 9.40326 19.05 10 19.05C10.5967 19.05 11.169 18.8129 11.591 18.391C12.0129 17.969 12.25 17.3967 12.25 16.8C12.25 16.2033 12.0129 15.631 11.591 15.209C11.169 14.787 10.5967 14.55 10 14.55C9.40326 14.55 8.83097 14.787 8.40901 15.209C7.98705 15.631 7.75 16.2033 7.75 16.8Z"/>
</svg>
