<svg viewBox="0 0 20 20" xmlns="http://www.w3.org/2000/svg" id="icon">
  <path fill-rule="evenodd" d="M7 2.5C6.44772 2.5 6 2.94772 6 3.5V4.5C6 5.05228 6.44772 5.5 7 5.5H8C8.55228 5.5 9 5.05228 9 4.5V3.5C9 2.94772 8.55228 2.5 8 2.5H7ZM12 2.5C11.4477 2.5 11 2.94772 11 3.5V4.5C11 5.05228 11.4477 5.5 12 5.5H13C13.5523 5.5 14 5.05228 14 4.5V3.5C14 2.94772 13.5523 2.5 13 2.5H12ZM7 8.5C6.44772 8.5 6 8.94772 6 9.5V10.5C6 11.0523 6.44772 11.5 7 11.5H8C8.55228 11.5 9 11.0523 9 10.5V9.5C9 8.94772 8.55228 8.5 8 8.5H7ZM12 8.5C11.4477 8.5 11 8.94772 11 9.5V10.5C11 11.0523 11.4477 11.5 12 11.5H13C13.5523 11.5 14 11.0523 14 10.5V9.5C14 8.94772 13.5523 8.5 13 8.5H12ZM6 15.5C6 14.9477 6.44772 14.5 7 14.5H8C8.55228 14.5 9 14.9477 9 15.5V16.5C9 17.0523 8.55228 17.5 8 17.5H7C6.44772 17.5 6 17.0523 6 16.5V15.5ZM11 15.5C11 14.9477 11.4477 14.5 12 14.5H13C13.5523 14.5 14 14.9477 14 15.5V16.5C14 17.0523 13.5523 17.5 13 17.5H12C11.4477 17.5 11 17.0523 11 16.5V15.5Z"/>
</svg>
