<svg viewBox="0 0 20 20" xmlns="http://www.w3.org/2000/svg" id="icon">
  <path fill-rule="evenodd" d="M10 20C12.6522 20 15.1957 18.9464 17.0711 17.0711C18.9464 15.1957 20 12.6522 20 10C20 7.34784 18.9464 4.8043 17.0711 2.92893C15.1957 1.05357 12.6522 0 10 0C7.34784 0 4.8043 1.05357 2.92893 2.92893C1.05357 4.8043 0 7.34784 0 10C0 12.6522 1.05357 15.1957 2.92893 17.0711C4.8043 18.9464 7.34784 20 10 20ZM6.25 8.75C6.58152 8.75 6.89946 8.6183 7.13388 8.38388C7.3683 8.14946 7.5 7.83152 7.5 7.5C7.5 7.16848 7.3683 6.85054 7.13388 6.61612C6.89946 6.3817 6.58152 6.25 6.25 6.25C5.91848 6.25 5.60054 6.3817 5.36612 6.61612C5.1317 6.85054 5 7.16848 5 7.5C5 7.83152 5.1317 8.14946 5.36612 8.38388C5.60054 8.6183 5.91848 8.75 6.25 8.75ZM15 7.5C15 7.83152 14.8683 8.14946 14.6339 8.38388C14.3995 8.6183 14.0815 8.75 13.75 8.75C13.4185 8.75 13.1005 8.6183 12.8661 8.38388C12.6317 8.14946 12.5 7.83152 12.5 7.5C12.5 7.16848 12.6317 6.85054 12.8661 6.61612C13.1005 6.3817 13.4185 6.25 13.75 6.25C14.0815 6.25 14.3995 6.3817 14.6339 6.61612C14.8683 6.85054 15 7.16848 15 7.5ZM5.58 14.8487C5.69609 14.965 5.83395 15.0572 5.9857 15.1201C6.13745 15.183 6.30011 15.2154 6.46438 15.2154C6.62864 15.2154 6.7913 15.183 6.94305 15.1201C7.0948 15.0572 7.23266 14.965 7.34875 14.8487C8.05198 14.1457 9.00563 13.7508 10 13.7508C10.9944 13.7508 11.948 14.1457 12.6513 14.8487C12.8858 15.0833 13.2039 15.2151 13.5356 15.2151C13.8673 15.2151 14.1854 15.0833 14.42 14.8487C14.6546 14.6142 14.7863 14.2961 14.7863 13.9644C14.7863 13.6327 14.6546 13.3146 14.42 13.08C13.8396 12.4995 13.1505 12.0389 12.3922 11.7247C11.6338 11.4106 10.8209 11.2488 10 11.2488C9.1791 11.2488 8.36624 11.4106 7.60785 11.7247C6.84945 12.0389 6.16039 12.4995 5.58 13.08C5.46378 13.1961 5.37158 13.334 5.30868 13.4857C5.24577 13.6374 5.21339 13.8001 5.21339 13.9644C5.21339 14.1286 5.24577 14.2913 5.30868 14.4431C5.37158 14.5948 5.46378 14.7327 5.58 14.8487Z"/>
</svg>
