<svg viewBox="0 0 20 20" xmlns="http://www.w3.org/2000/svg" id="icon">
  <path fill-rule="evenodd" d="M7.70139 2.31897C8.71024 0.560345 11.2911 0.560345 12.2986 2.31897L19.6573 15.1466C20.6464 16.8716 19.3764 19 17.36 19H2.64129C0.623585 19 -0.646384 16.8716 0.342689 15.1466L7.70139 2.31897ZM11.3188 15.122C11.3188 15.4649 11.1798 15.7938 10.9325 16.0363C10.6852 16.2788 10.3497 16.4151 9.99999 16.4151C9.65023 16.4151 9.3148 16.2788 9.06748 16.0363C8.82017 15.7938 8.68123 15.4649 8.68123 15.122C8.68123 14.779 8.82017 14.4501 9.06748 14.2076C9.3148 13.9651 9.65023 13.8289 9.99999 13.8289C10.3497 13.8289 10.6852 13.9651 10.9325 14.2076C11.1798 14.4501 11.3188 14.779 11.3188 15.122ZM9.99999 4.77716C9.65023 4.77716 9.3148 4.91339 9.06748 5.1559C8.82017 5.3984 8.68123 5.72731 8.68123 6.07026V9.94957C8.68123 10.2925 8.82017 10.6214 9.06748 10.8639C9.3148 11.1064 9.65023 11.2427 9.99999 11.2427C10.3497 11.2427 10.6852 11.1064 10.9325 10.8639C11.1798 10.6214 11.3188 10.2925 11.3188 9.94957V6.07026C11.3188 5.72731 11.1798 5.3984 10.9325 5.1559C10.6852 4.91339 10.3497 4.77716 9.99999 4.77716Z"/>
</svg>
