<svg viewBox="0 0 20 20" xmlns="http://www.w3.org/2000/svg" id="icon">
  <path fill-rule="evenodd" d="M2 5.4C2 4.49826 2.36122 3.63346 3.00421 2.99584C3.64719 2.35821 4.51926 2 5.42857 2H16.8571C17.0694 2 17.2774 2.05861 17.458 2.16926C17.6385 2.27991 17.7844 2.43824 17.8793 2.62649C17.9743 2.81474 18.0144 3.02549 17.9954 3.23511C17.9763 3.44474 17.8988 3.64495 17.7714 3.81333L14.8571 7.66667L17.7714 11.52C17.8988 11.6884 17.9763 11.8886 17.9954 12.0982C18.0144 12.3078 17.9743 12.5186 17.8793 12.7068C17.7844 12.8951 17.6385 13.0534 17.458 13.1641C17.2774 13.2747 17.0694 13.3333 16.8571 13.3333H5.42857C5.12547 13.3333 4.83478 13.4527 4.62045 13.6653C4.40612 13.8778 4.28571 14.1661 4.28571 14.4667V17.8667C4.28571 18.1672 4.16531 18.4555 3.95098 18.6681C3.73665 18.8806 3.44596 19 3.14286 19C2.83975 19 2.54906 18.8806 2.33474 18.6681C2.12041 18.4555 2 18.1672 2 17.8667V5.4Z"/>
</svg>
