<svg viewBox="0 0 20 20" xmlns="http://www.w3.org/2000/svg" id="icon">
  <path fill-rule="evenodd" d="M2.5 2C1.11875 2 0 3.19333 0 4.66667V15.3333C0 16.8067 1.11875 18 2.5 18H17.5C18.8813 18 20 16.8067 20 15.3333V7.33333C20 5.86 18.8813 4.66667 17.5 4.66667H11.25L8.75 2H2.5ZM11.25 8.66667C11.25 7.93067 10.69 7.33333 10 7.33333C9.31 7.33333 8.75 7.93067 8.75 8.66667V10.7813L8.38375 10.3907C7.89625 9.86937 7.10375 9.86937 6.61625 10.3907C6.1275 10.9107 6.1275 11.756 6.61625 12.276L9.11625 14.9426C9.60375 15.464 10.3963 15.464 10.8838 14.9426L13.3838 12.276C13.8725 11.756 13.8725 10.9107 13.3838 10.3907C12.8963 9.86937 12.1037 9.86937 11.6162 10.3907L11.25 10.7813V8.66667Z"/>
</svg>
