<svg viewBox="0 0 20 20" xmlns="http://www.w3.org/2000/svg" id="icon">
  <path fill-rule="evenodd" d="M4.35333 1.71048C3.95956 2.31792 3.75002 3.02634 3.75 3.75024C3.75 4.18774 3.825 4.60899 3.9625 5.00024H2.5C1.83696 5.00024 1.20107 5.26364 0.732233 5.73248C0.263392 6.20132 0 6.8372 0 7.50024C0 8.16329 0.263392 8.79917 0.732233 9.26801C1.20107 9.73685 1.83696 10.0002 2.5 10.0002H8.75V8.75025C8.75 8.41872 8.8817 8.10078 9.11612 7.86636C9.35054 7.63194 9.66848 7.50024 10 7.50024C10.3315 7.50024 10.6495 7.63194 10.8839 7.86636C11.1183 8.10078 11.25 8.41872 11.25 8.75025V10.0002H17.5C18.163 10.0002 18.7989 9.73685 19.2678 9.26801C19.7366 8.79917 20 8.16329 20 7.50024C20 6.8372 19.7366 6.20132 19.2678 5.73248C18.7989 5.26364 18.163 5.00024 17.5 5.00024H16.0375C16.3158 4.21486 16.3246 3.35915 16.0625 2.56821C15.8004 1.77728 15.2823 1.09616 14.5901 0.632374C13.8979 0.168592 13.0709 -0.051432 12.2397 0.00703366C11.4085 0.0654993 10.6205 0.399124 10 0.955244C9.46043 0.472642 8.79272 0.156527 8.07745 0.0450552C7.36218 -0.0664165 6.62994 0.0315208 5.96911 0.327045C5.30828 0.622569 4.7471 1.10305 4.35333 1.71048ZM8.75 3.75024V5.00024H7.5C7.25277 5.00024 7.0111 4.92693 6.80554 4.78958C6.59998 4.65223 6.43976 4.45701 6.34515 4.2286C6.25054 4.00019 6.22579 3.74886 6.27402 3.50638C6.32225 3.2639 6.4413 3.04118 6.61612 2.86636C6.79093 2.69154 7.01366 2.57249 7.25614 2.52426C7.49861 2.47603 7.74995 2.50078 7.97835 2.59539C8.20676 2.69 8.40199 2.85022 8.53934 3.05578C8.67669 3.26134 8.75 3.50302 8.75 3.75024ZM13.1945 4.78958C12.9889 4.92693 12.7472 5.00024 12.5 5.00024H11.25V3.75024C11.25 3.50302 11.3233 3.26134 11.4607 3.05578C11.598 2.85022 11.7932 2.69 12.0216 2.59539C12.2501 2.50078 12.5014 2.47603 12.7439 2.52426C12.9863 2.57249 13.2091 2.69154 13.3839 2.86636C13.5587 3.04118 13.6778 3.2639 13.726 3.50638C13.7742 3.74886 13.7495 4.00019 13.6548 4.2286C13.5602 4.45701 13.4 4.65223 13.1945 4.78958ZM1.25 11.2502H8.75V20.0002H3.75C3.08696 20.0002 2.45107 19.7369 1.98223 19.268C1.51339 18.7992 1.25 18.1633 1.25 17.5002V11.2502ZM16.25 20.0002H11.25V11.2502H18.75V17.5002C18.75 18.1633 18.4866 18.7992 18.0178 19.268C17.5489 19.7369 16.913 20.0002 16.25 20.0002Z"/>
</svg>
