<svg viewBox="0 0 20 20" xmlns="http://www.w3.org/2000/svg" id="icon">
  <path fill-rule="evenodd" d="M10 20C12.6522 20 15.1957 18.9464 17.0711 17.0711C18.9464 15.1957 20 12.6522 20 10C20 7.34784 18.9464 4.8043 17.0711 2.92893C15.1957 1.05357 12.6522 0 10 0C7.34784 0 4.8043 1.05357 2.92893 2.92893C1.05357 4.8043 0 7.34784 0 10C0 12.6522 1.05357 15.1957 2.92893 17.0711C4.8043 18.9464 7.34784 20 10 20ZM2.915 7.53375C3.37911 6.20464 4.20723 5.03263 5.305 4.15125C5.64 4.6625 6.2175 5 6.875 5C7.37228 5 7.84919 5.19754 8.20083 5.54917C8.55246 5.90081 8.75 6.37772 8.75 6.875V7.5C8.75 8.16304 9.01339 8.79893 9.48223 9.26777C9.95107 9.73661 10.587 10 11.25 10C11.913 10 12.5489 9.73661 13.0178 9.26777C13.4866 8.79893 13.75 8.16304 13.75 7.5C13.7498 6.94053 13.9373 6.39716 14.2824 5.95683C14.6276 5.51651 15.1104 5.20468 15.6537 5.07125C16.8466 6.43584 17.5028 8.18753 17.5 10C17.5 10.425 17.465 10.8438 17.3962 11.25H16.25C15.587 11.25 14.9511 11.5134 14.4822 11.9822C14.0134 12.4511 13.75 13.087 13.75 13.75V16.4963C12.6104 17.1556 11.3166 17.5019 10 17.5V15C10 14.337 9.73661 13.7011 9.26777 13.2322C8.79893 12.7634 8.16304 12.5 7.5 12.5C6.83696 12.5 6.20107 12.2366 5.73223 11.7678C5.26339 11.2989 5 10.663 5 10C5.00022 9.40875 4.79088 8.83655 4.40916 8.38503C4.02744 7.93351 3.49805 7.6319 2.915 7.53375Z"/>
</svg>
