<svg viewBox="0 0 20 20" xmlns="http://www.w3.org/2000/svg" id="icon">
  <path fill-rule="evenodd" d="M7.57577 7.01497C7.89416 7.0122 8.20089 7.1346 8.4299 7.35579L8.78569 7.71157V2.14286C8.78569 1.82081 8.91362 1.51195 9.14135 1.28423C9.36907 1.05651 9.67793 0.928574 9.99998 0.928574C10.322 0.928574 10.6309 1.05651 10.8586 1.28423C11.0863 1.51195 11.2143 1.82081 11.2143 2.14286V7.71157L11.57 7.35579C11.7991 7.1346 12.1058 7.0122 12.4242 7.01497C12.7426 7.01774 13.0471 7.14544 13.2723 7.37058C13.4974 7.59572 13.6251 7.90028 13.6279 8.21866C13.6306 8.53704 13.5082 8.84377 13.287 9.07279L10.8585 11.5014C10.6308 11.729 10.322 11.8569 9.99998 11.8569C9.67799 11.8569 9.36919 11.729 9.14148 11.5014L6.7129 9.07279C6.49171 8.84377 6.36932 8.53704 6.37209 8.21866C6.37485 7.90028 6.50256 7.59572 6.7277 7.37058C6.95283 7.14544 7.25739 7.01774 7.57577 7.01497ZM2.21131 2.85417C1.75587 3.30962 1.5 3.92734 1.5 4.57143V16.7143C1.5 17.3584 1.75587 17.9761 2.21131 18.4316C2.66676 18.887 3.28447 19.1429 3.92857 19.1429H16.0714C16.7155 19.1429 17.3332 18.887 17.7887 18.4316C18.2441 17.9761 18.5 17.3584 18.5 16.7143V4.57143C18.5 3.92734 18.2441 3.30962 17.7887 2.85417C17.3332 2.39873 16.7155 2.14286 16.0714 2.14286H14.8571C14.5351 2.14286 14.2262 2.2708 13.9985 2.49852C13.7708 2.72624 13.6429 3.0351 13.6429 3.35715C13.6429 3.6792 13.7708 3.98806 13.9985 4.21578C14.2262 4.4435 14.5351 4.57143 14.8571 4.57143H16.0714V13.0714H13.6429L12.4286 15.5H7.57143L6.35714 13.0714H3.92857V4.57143H5.14286C5.46491 4.57143 5.77376 4.4435 6.00149 4.21578C6.22921 3.98806 6.35714 3.6792 6.35714 3.35715C6.35714 3.0351 6.22921 2.72624 6.00149 2.49852C5.77376 2.2708 5.46491 2.14286 5.14286 2.14286H3.92857C3.28447 2.14286 2.66676 2.39873 2.21131 2.85417Z"/>
</svg>
