<svg viewBox="0 0 20 20" xmlns="http://www.w3.org/2000/svg" id="icon">
  <path d="M11.4142 3.41421C11.7893 3.03914 12 2.53043 12 2C12 1.46957 11.7893 0.960859 11.4142 0.585786C11.0391 0.210714 10.5304 0 10 0C9.46957 0 8.96086 0.210714 8.58579 0.585786C8.21071 0.960859 8 1.46957 8 2C8 2.53043 8.21071 3.03914 8.58579 3.41421C8.96086 3.78929 9.46957 4 10 4C10.5304 4 11.0391 3.78929 11.4142 3.41421Z"/>
  <path d="M6.58579 8.58579C6.96086 8.21071 7.46957 8 8 8H10C10.5304 8 11.0391 8.21071 11.4142 8.58579C11.7893 8.96086 12 9.46957 12 10V16C12.5304 16 13.0391 16.2107 13.4142 16.5858C13.7893 16.9609 14 17.4696 14 18C14 18.5304 13.7893 19.0391 13.4142 19.4142C13.0391 19.7893 12.5304 20 12 20H10C9.46957 20 8.96086 19.7893 8.58579 19.4142C8.21071 19.0391 8 18.5304 8 18V12C7.46957 12 6.96086 11.7893 6.58579 11.4142C6.21071 11.0391 6 10.5304 6 10C6 9.46957 6.21071 8.96086 6.58579 8.58579Z"/>
</svg>
