<svg viewBox="0 0 20 20" xmlns="http://www.w3.org/2000/svg" id="icon">
  <path d="M11.25 1.25C11.25 0.918479 11.1183 0.600537 10.8839 0.366116C10.6495 0.131696 10.3315 0 10 0C9.66848 0 9.35054 0.131696 9.11612 0.366116C8.8817 0.600537 8.75 0.918479 8.75 1.25V2.5C8.75 2.83152 8.8817 3.14946 9.11612 3.38388C9.35054 3.6183 9.66848 3.75 10 3.75C10.3315 3.75 10.6495 3.6183 10.8839 3.38388C11.1183 3.14946 11.25 2.83152 11.25 2.5V1.25ZM17.0712 4.69625C17.2989 4.4605 17.4249 4.14474 17.4221 3.817C17.4192 3.48925 17.2878 3.17574 17.056 2.94398C16.8243 2.71222 16.5107 2.58076 16.183 2.57791C15.8553 2.57506 15.5395 2.70105 15.3038 2.92875L14.42 3.8125C14.1923 4.04825 14.0663 4.36401 14.0692 4.69175C14.072 5.0195 14.2035 5.33301 14.4352 5.56477C14.667 5.79653 14.9805 5.92799 15.3082 5.93084C15.636 5.93369 15.9517 5.8077 16.1875 5.58L17.0712 4.69625ZM20 10C20 10.3315 19.8683 10.6495 19.6339 10.8839C19.3995 11.1183 19.0815 11.25 18.75 11.25H17.5C17.1685 11.25 16.8505 11.1183 16.6161 10.8839C16.3817 10.6495 16.25 10.3315 16.25 10C16.25 9.66848 16.3817 9.35054 16.6161 9.11612C16.8505 8.8817 17.1685 8.75 17.5 8.75H18.75C19.0815 8.75 19.3995 8.8817 19.6339 9.11612C19.8683 9.35054 20 9.66848 20 10ZM3.8125 5.58C3.92781 5.69939 4.06574 5.79462 4.21824 5.86013C4.37075 5.92564 4.53477 5.96012 4.70075 5.96156C4.86672 5.96301 5.03132 5.93138 5.18494 5.86853C5.33856 5.80568 5.47813 5.71286 5.59549 5.59549C5.71286 5.47813 5.80568 5.33856 5.86853 5.18494C5.93138 5.03132 5.96301 4.86672 5.96156 4.70075C5.96012 4.53477 5.92564 4.37075 5.86013 4.21824C5.79462 4.06574 5.69939 3.92781 5.58 3.8125L4.69625 2.92875C4.4605 2.70105 4.14474 2.57506 3.817 2.57791C3.48925 2.58076 3.17574 2.71222 2.94398 2.94398C2.71222 3.17574 2.58076 3.48925 2.57791 3.817C2.57506 4.14474 2.70105 4.4605 2.92875 4.69625L3.8125 5.58ZM3.75 10C3.75 10.3315 3.6183 10.6495 3.38388 10.8839C3.14946 11.1183 2.83152 11.25 2.5 11.25H1.25C0.918479 11.25 0.600537 11.1183 0.366116 10.8839C0.131696 10.6495 0 10.3315 0 10C0 9.66848 0.131696 9.35054 0.366116 9.11612C0.600537 8.8817 0.918479 8.75 1.25 8.75H2.5C2.83152 8.75 3.14946 8.8817 3.38388 9.11612C3.6183 9.35054 3.75 9.66848 3.75 10ZM7.5 17.5V16.25H12.5V17.5C12.5 18.163 12.2366 18.7989 11.7678 19.2678C11.2989 19.7366 10.663 20 10 20C9.33696 20 8.70107 19.7366 8.23223 19.2678C7.76339 18.7989 7.5 18.163 7.5 17.5ZM12.5 15C12.5188 14.575 12.76 14.1925 13.0963 13.9262C13.9121 13.2828 14.5072 12.4012 14.7989 11.4039C15.0906 10.4067 15.0644 9.34332 14.7239 8.36166C14.3833 7.38 13.7455 6.52881 12.8989 5.92639C12.0523 5.32398 11.039 5.00028 10 5.00028C8.96095 5.00028 7.94772 5.32398 7.10113 5.92639C6.25454 6.52881 5.61665 7.38 5.27613 8.36166C4.93561 9.34332 4.90938 10.4067 5.20107 11.4039C5.49276 12.4012 6.0879 13.2828 6.90375 13.9262C7.24125 14.1925 7.48125 14.575 7.49875 15H12.5013H12.5Z"/>
</svg>
