<svg viewBox="0 0 20 20" xmlns="http://www.w3.org/2000/svg" id="icon">
  <path fill-rule="evenodd" d="M1.25 1C1.58152 1 1.89946 1.13546 2.13388 1.37658C2.3683 1.6177 2.5 1.94472 2.5 2.28571V17.7143C2.5 18.0553 2.3683 18.3823 2.13388 18.6234C1.89946 18.8645 1.58152 19 1.25 19C0.918479 19 0.600537 18.8645 0.366116 18.6234C0.131696 18.3823 0 18.0553 0 17.7143V2.28571C0 1.94472 0.131696 1.6177 0.366116 1.37658C0.600537 1.13546 0.918479 1 1.25 1ZM10.8837 5.23386C11.1181 5.47496 11.2497 5.80193 11.2497 6.14286C11.2497 6.48378 11.1181 6.81075 10.8837 7.05186L9.2675 8.71429H18.75C19.0815 8.71429 19.3995 8.84974 19.6339 9.09086C19.8683 9.33198 20 9.65901 20 10C20 10.341 19.8683 10.668 19.6339 10.9091C19.3995 11.1503 19.0815 11.2857 18.75 11.2857H9.2675L10.8837 12.9481C11.1114 13.1906 11.2374 13.5154 11.2346 13.8525C11.2317 14.1896 11.1003 14.5121 10.8685 14.7505C10.6368 14.9889 10.3232 15.1241 9.9955 15.127C9.66776 15.1299 9.352 15.0003 9.11625 14.7661L5.36625 10.909C5.13191 10.6679 5.00027 10.3409 5.00027 10C5.00027 9.65907 5.13191 9.33211 5.36625 9.091L9.11625 5.23386C9.35066 4.99282 9.66854 4.85742 10 4.85742C10.3315 4.85742 10.6493 4.99282 10.8837 5.23386Z"/>
</svg>
