<svg viewBox="0 0 20 20" xmlns="http://www.w3.org/2000/svg" id="icon">
  <path fill-rule="evenodd" d="M1.52665 2.66947C1.09799 3.09812 0.857178 3.67951 0.857178 4.28571V15.7143C0.857178 16.3205 1.09799 16.9019 1.52665 17.3305C1.9553 17.7592 2.53668 18 3.14289 18H16.8572C16.251 18 15.6696 17.7592 15.2409 17.3305C14.8123 16.9019 14.5715 16.3205 14.5715 15.7143V4.28571C14.5715 3.67951 14.3306 3.09812 13.902 2.66947C13.4733 2.24082 12.892 2 12.2858 2H3.14289C2.53668 2 1.9553 2.24082 1.52665 2.66947ZM11.1429 5.42857H4.28575V10H11.1429V5.42857ZM4.28575 12.2857H11.1429V14.5714H4.28575V12.2857ZM16.8572 6.57143H15.7143V15.1429C15.7143 15.5975 15.8949 16.0335 16.2164 16.355C16.5379 16.6765 16.9739 16.8571 17.4286 16.8571C17.8833 16.8571 18.3193 16.6765 18.6408 16.355C18.9623 16.0335 19.1429 15.5975 19.1429 15.1429V8.85714C19.1429 8.25093 18.9021 7.66955 18.4734 7.2409C18.0448 6.81224 17.4634 6.57143 16.8572 6.57143Z"/>
</svg>
