<svg viewBox="0 0 20 20" xmlns="http://www.w3.org/2000/svg" id="icon">
  <path fill-rule="evenodd" d="M17.0711 17.0711C18.9464 15.1957 20 12.6522 20 10C20 7.34784 18.9464 4.8043 17.0711 2.92893C15.1957 1.05357 12.6522 0 10 0C7.34784 0 4.8043 1.05357 2.92893 2.92893C1.05357 4.8043 0 7.34784 0 10C0 12.6522 1.05357 15.1957 2.92893 17.0711C4.8043 18.9464 7.34784 20 10 20C12.6522 20 15.1957 18.9464 17.0711 17.0711ZM12.4922 13.8275L13.7422 5.72003C13.7793 5.48292 13.6766 5.24599 13.4789 5.11019C13.2813 4.97439 13.0237 4.96341 12.8149 5.08273L4.06486 10.0651C3.85801 10.1833 3.73654 10.3907 3.75119 10.6466C3.76584 10.9025 3.91477 11.1095 4.13454 11.2013L6.13864 12.0372L11.875 6.87511L7.63165 12.3317C7.5463 12.4413 7.49997 12.5764 7.49997 12.7153V14.5939C7.49997 14.8185 7.68161 15.0001 7.90622 15.0001C8.04294 15.0001 8.16989 14.9317 8.24606 14.8014L9.23942 13.3113L11.634 14.3094C11.7115 14.3417 11.7922 14.3577 11.874 14.3577C11.9797 14.3577 12.0856 14.3308 12.1802 14.2776C12.3481 14.1833 12.4629 14.0176 12.4922 13.8275Z"/>
</svg>
