<svg viewBox="0 0 20 20" xmlns="http://www.w3.org/2000/svg" id="icon">
  <path fill-rule="evenodd" d="M7.71429 3.25C6.80497 3.25 5.9329 3.60558 5.28992 4.23851C4.64694 4.87145 4.28571 5.72989 4.28571 6.625V11.125C4.28571 12.6168 4.88775 14.0476 5.95939 15.1025C7.03103 16.1574 8.48448 16.75 10 16.75C11.5155 16.75 12.969 16.1574 14.0406 15.1025C15.1122 14.0476 15.7143 12.6168 15.7143 11.125V6.625C15.7143 6.32663 15.8347 6.04048 16.049 5.8295C16.2633 5.61853 16.554 5.5 16.8571 5.5C17.1602 5.5 17.4509 5.61853 17.6653 5.8295C17.8796 6.04048 18 6.32663 18 6.625V11.125C18 12.1592 17.7931 13.1832 17.391 14.1386C16.989 15.0941 16.3997 15.9622 15.6569 16.6935C14.914 17.4247 14.0321 18.0048 13.0615 18.4006C12.0909 18.7963 11.0506 19 10 19C8.94943 19 7.90914 18.7963 6.93853 18.4006C5.96793 18.0048 5.08601 17.4247 4.34315 16.6935C3.60028 15.9622 3.011 15.0941 2.60896 14.1386C2.20693 13.1832 2 12.1592 2 11.125V6.625C2 5.13316 2.60204 3.70242 3.67368 2.64752C4.74531 1.59263 6.19876 1 7.71429 1C9.22981 1 10.6833 1.59263 11.7549 2.64752C12.8265 3.70242 13.4286 5.13316 13.4286 6.625V11.125C13.4286 12.0201 13.0673 12.8786 12.4244 13.5115C11.7814 14.1444 10.9093 14.5 10 14.5C9.09069 14.5 8.21862 14.1444 7.57563 13.5115C6.93265 12.8786 6.57143 12.0201 6.57143 11.125V6.625C6.57143 6.32663 6.69184 6.04048 6.90616 5.8295C7.12049 5.61853 7.41118 5.5 7.71429 5.5C8.01739 5.5 8.30808 5.61853 8.52241 5.8295C8.73674 6.04048 8.85714 6.32663 8.85714 6.625V11.125C8.85714 11.4234 8.97755 11.7095 9.19188 11.9205C9.40621 12.1315 9.6969 12.25 10 12.25C10.3031 12.25 10.5938 12.1315 10.8081 11.9205C11.0224 11.7095 11.1429 11.4234 11.1429 11.125V6.625C11.1429 5.72989 10.7816 4.87145 10.1387 4.23851C9.49567 3.60558 8.6236 3.25 7.71429 3.25Z"/>
</svg>
