<svg viewBox="0 0 20 20" xmlns="http://www.w3.org/2000/svg" id="icon">
  <path fill-rule="evenodd" d="M1.3295 1.3295C1.11853 1.54048 1 1.82663 1 2.125V4.375C1 12.4525 7.5475 19 15.625 19H17.875C18.1734 19 18.4595 18.8815 18.6705 18.6705C18.8815 18.4595 19 18.1734 19 17.875V15.4529C18.9999 15.1866 18.9053 14.929 18.7331 14.7258C18.5609 14.5227 18.3222 14.3873 18.0595 14.3436L13.0701 13.5111C12.8327 13.4716 12.5888 13.5093 12.3744 13.6186C12.1599 13.728 11.9862 13.9032 11.8787 14.1186L11.008 15.8601C9.46039 15.2356 8.05456 14.3056 6.8745 13.1255C5.69444 11.9454 4.76437 10.5396 4.13987 8.992L5.88138 8.12238C6.09698 8.01486 6.27237 7.84096 6.38173 7.62628C6.4911 7.41161 6.52865 7.1675 6.48888 6.92987L5.65637 1.9405C5.6127 1.67781 5.47726 1.43913 5.27415 1.26692C5.07104 1.0947 4.81342 1.00012 4.54712 1H2.125C1.82663 1 1.54048 1.11853 1.3295 1.3295ZM17.707 3.70701L14.414 7.00001H16C16.2652 7.00001 16.5196 7.10537 16.7071 7.2929C16.8946 7.48044 17 7.73479 17 8.00001C17 8.26523 16.8946 8.51958 16.7071 8.70712C16.5196 8.89465 16.2652 9.00001 16 9.00001H12C11.8686 9.00017 11.7384 8.97434 11.617 8.92401C11.4345 8.84891 11.2784 8.72126 11.1685 8.55728C11.0587 8.3933 11 8.20039 11 8.00301V4.00001C11 3.73479 11.1054 3.48044 11.2929 3.2929C11.4804 3.10537 11.7348 3.00001 12 3.00001C12.2652 3.00001 12.5196 3.10537 12.7071 3.2929C12.8946 3.48044 13 3.73479 13 4.00001V5.58601L16.293 2.29301C16.4816 2.11085 16.7342 2.01006 16.9964 2.01234C17.2586 2.01461 17.5094 2.11978 17.6948 2.30519C17.8802 2.4906 17.9854 2.74141 17.9877 3.00361C17.99 3.26581 17.8892 3.51841 17.707 3.70701Z"/>
</svg>
