<svg viewBox="0 0 20 20" xmlns="http://www.w3.org/2000/svg" id="icon">
  <path fill-rule="evenodd" d="M3.25 2C2.65326 2 2.08097 2.24082 1.65901 2.66947C1.23705 3.09812 1 3.67951 1 4.28571V15.7143C1 16.3205 1.23705 16.9019 1.65901 17.3305C2.08097 17.7592 2.65326 18 3.25 18H16.75C17.3467 18 17.919 17.7592 18.341 17.3305C18.7629 16.9019 19 16.3205 19 15.7143V4.28571C19 3.67951 18.7629 3.09812 18.341 2.66947C17.919 2.24082 17.3467 2 16.75 2H3.25ZM16.75 15.7143H3.25L7.75 6.57143L11.125 13.4286L13.375 8.85714L16.75 15.7143Z"/>
</svg>
