<svg viewBox="0 0 20 20" xmlns="http://www.w3.org/2000/svg" id="icon">
  <path fill-rule="evenodd" d="M10 1C9.70168 1 9.41553 1.1194 9.20455 1.33195C8.99357 1.54449 8.87505 1.83275 8.87505 2.13333V3.26667C8.87505 3.56725 8.99357 3.85551 9.20455 4.06805C9.41553 4.2806 9.70168 4.4 10 4.4C10.2984 4.4 10.5846 4.2806 10.7955 4.06805C11.0065 3.85551 11.125 3.56725 11.125 3.26667V2.13333C11.125 1.83275 11.0065 1.54449 10.7955 1.33195C10.5846 1.1194 10.2984 1 10 1ZM2.25 3.26667H6.62505C6.62505 4.1684 6.98063 5.03321 7.61356 5.67083C8.2465 6.30845 9.10494 6.66667 10 6.66667C10.8952 6.66667 11.7536 6.30845 12.3865 5.67083C13.0195 5.03321 13.375 4.1684 13.375 3.26667H17.75C18.3468 3.26667 18.9191 3.50548 19.341 3.93056C19.763 4.35564 20 4.93218 20 5.53333V15.7333C20 16.3345 19.763 16.911 19.341 17.3361C18.9191 17.7612 18.3468 18 17.75 18H2.25C1.65326 18 1.08097 17.7612 0.65901 17.3361C0.237053 16.911 0 16.3345 0 15.7333V5.53333C0 4.93218 0.237053 4.35564 0.65901 3.93056C1.08097 3.50548 1.65326 3.26667 2.25 3.26667ZM6.06255 11.2C6.5101 11.2 6.93932 11.0209 7.25579 10.7021C7.57226 10.3833 7.75005 9.95087 7.75005 9.5C7.75005 9.04913 7.57226 8.61673 7.25579 8.29792C6.93932 7.97911 6.5101 7.8 6.06255 7.8C5.61499 7.8 5.18577 7.97911 4.8693 8.29792C4.55283 8.61673 4.37505 9.04913 4.37505 9.5C4.37505 9.95087 4.55283 10.3833 4.8693 10.7021C5.18577 11.0209 5.61499 11.2 6.06255 11.2ZM8.8188 15.7333C8.90174 15.3218 8.89286 14.8969 8.79279 14.4893C8.69272 14.0817 8.50397 13.7015 8.24019 13.3764C7.97641 13.0513 7.64419 12.7893 7.26758 12.6094C6.89096 12.4295 6.47936 12.3362 6.06255 12.3362C5.64573 12.3362 5.23413 12.4295 4.85751 12.6094C4.4809 12.7893 4.14868 13.0513 3.8849 13.3764C3.62112 13.7015 3.43237 14.0817 3.3323 14.4893C3.23223 14.8969 3.22335 15.3218 3.3063 15.7333H8.8188ZM12.25 8.93333C11.9517 8.93333 11.6655 9.05274 11.4546 9.26528C11.2436 9.47782 11.125 9.76609 11.125 10.0667C11.125 10.3672 11.2436 10.6555 11.4546 10.8681C11.6655 11.0806 11.9517 11.2 12.25 11.2H15.625C15.9234 11.2 16.2096 11.0806 16.4205 10.8681C16.6315 10.6555 16.75 10.3672 16.75 10.0667C16.75 9.76609 16.6315 9.47782 16.4205 9.26528C16.2096 9.05274 15.9234 8.93333 15.625 8.93333H12.25ZM11.125 13.4667C11.125 13.1661 11.2436 12.8778 11.4546 12.6653C11.6655 12.4527 11.9517 12.3333 12.25 12.3333H14.5C14.7984 12.3333 15.0846 12.4527 15.2955 12.6653C15.5065 12.8778 15.625 13.1661 15.625 13.4667C15.625 13.7672 15.5065 14.0555 15.2955 14.2681C15.0846 14.4806 14.7984 14.6 14.5 14.6H12.25C11.9517 14.6 11.6655 14.4806 11.4546 14.2681C11.2436 14.0555 11.125 13.7672 11.125 13.4667Z"/>
</svg>
