<svg viewBox="0 0 20 20" xmlns="http://www.w3.org/2000/svg" id="icon">
  <path d="M9.5 2.59375C9.5 2.17106 9.66791 1.76568 9.9668 1.4668C10.2657 1.16791 10.6711 1 11.0938 1C11.5164 1 11.9218 1.16791 12.2207 1.4668C12.5196 1.76568 12.6875 2.17106 12.6875 2.59375V3.125C12.6875 3.40679 12.7994 3.67704 12.9987 3.8763C13.198 4.07556 13.4682 4.1875 13.75 4.1875H16.9375C17.2193 4.1875 17.4895 4.29944 17.6888 4.4987C17.8881 4.69796 18 4.96821 18 5.25V8.4375C18 8.71929 17.8881 8.98954 17.6888 9.1888C17.4895 9.38806 17.2193 9.5 16.9375 9.5H16.4062C15.9836 9.5 15.5782 9.66791 15.2793 9.9668C14.9804 10.2657 14.8125 10.6711 14.8125 11.0938C14.8125 11.5164 14.9804 11.9218 15.2793 12.2207C15.5782 12.5196 15.9836 12.6875 16.4062 12.6875H16.9375C17.2193 12.6875 17.4895 12.7994 17.6888 12.9987C17.8881 13.198 18 13.4682 18 13.75V16.9375C18 17.2193 17.8881 17.4895 17.6888 17.6888C17.4895 17.8881 17.2193 18 16.9375 18H13.75C13.4682 18 13.198 17.8881 12.9987 17.6888C12.7994 17.4895 12.6875 17.2193 12.6875 16.9375V16.4062C12.6875 15.9836 12.5196 15.5782 12.2207 15.2793C11.9218 14.9804 11.5164 14.8125 11.0938 14.8125C10.6711 14.8125 10.2657 14.9804 9.9668 15.2793C9.66791 15.5782 9.5 15.9836 9.5 16.4062V16.9375C9.5 17.2193 9.38806 17.4895 9.1888 17.6888C8.98954 17.8881 8.71929 18 8.4375 18H5.25C4.96821 18 4.69796 17.8881 4.4987 17.6888C4.29944 17.4895 4.1875 17.2193 4.1875 16.9375V13.75C4.1875 13.4682 4.07556 13.198 3.8763 12.9987C3.67704 12.7994 3.40679 12.6875 3.125 12.6875H2.59375C2.17106 12.6875 1.76568 12.5196 1.4668 12.2207C1.16791 11.9218 1 11.5164 1 11.0938C1 10.6711 1.16791 10.2657 1.4668 9.9668C1.76568 9.66791 2.17106 9.5 2.59375 9.5H3.125C3.40679 9.5 3.67704 9.38806 3.8763 9.1888C4.07556 8.98954 4.1875 8.71929 4.1875 8.4375V5.25C4.1875 4.96821 4.29944 4.69796 4.4987 4.4987C4.69796 4.29944 4.96821 4.1875 5.25 4.1875H8.4375C8.71929 4.1875 8.98954 4.07556 9.1888 3.8763C9.38806 3.67704 9.5 3.40679 9.5 3.125V2.59375Z"/>
</svg>
