<svg viewBox="0 0 20 20" xmlns="http://www.w3.org/2000/svg" id="icon">
  <path fill-rule="evenodd" d="M4.84572 4.34699C5.00461 4.25043 5.18483 4.1997 5.36825 4.19988C5.64512 4.19988 5.91064 4.31578 6.10641 4.52207C6.30218 4.72836 6.41217 5.00816 6.41217 5.2999C6.41217 5.59164 6.30218 5.87143 6.10641 6.07773C5.91064 6.28402 5.64512 6.39991 5.36825 6.39991C5.09139 6.39991 4.82586 6.51581 4.63009 6.7221C4.43432 6.92839 4.32434 7.20819 4.32434 7.49993V8.59994C4.32434 8.89168 4.43432 9.17148 4.63009 9.37777C4.82586 9.58406 5.09139 9.69996 5.36825 9.69996C5.64512 9.69996 5.91064 9.58406 6.10641 9.37777C6.30218 9.17148 6.41217 8.89168 6.41217 8.59994V8.41294C7.02294 8.18523 7.55169 7.76358 7.9256 7.20606C8.29951 6.64855 8.50019 5.98259 8.5 5.2999C8.49997 4.57347 8.27248 3.86736 7.8528 3.29105C7.43312 2.71475 6.84471 2.30047 6.17882 2.11245C5.51293 1.92444 4.80677 1.97319 4.16986 2.25117C3.53295 2.52914 3.00088 3.02079 2.65616 3.64988C2.58264 3.7751 2.53373 3.9146 2.51232 4.06011C2.49092 4.20562 2.49745 4.35418 2.53154 4.49698C2.56564 4.63978 2.62659 4.77391 2.71079 4.89143C2.79499 5.00895 2.90072 5.10745 3.02172 5.18111C3.14272 5.25477 3.27652 5.30208 3.41519 5.32023C3.55387 5.33839 3.69459 5.32702 3.82902 5.28681C3.96344 5.2466 4.08884 5.17835 4.19777 5.08612C4.30671 4.99389 4.39696 4.87956 4.46318 4.74989C4.55489 4.58251 4.68683 4.44355 4.84572 4.34699ZM6.10641 12.3778C5.91064 12.5841 5.64512 12.7 5.36825 12.7C5.09139 12.7 4.82586 12.5841 4.63009 12.3778C4.43432 12.1715 4.32434 11.8918 4.32434 11.6C4.32434 11.3083 4.43432 11.0285 4.63009 10.8222C4.82586 10.6159 5.09139 10.5 5.36825 10.5C5.64512 10.5 5.91064 10.6159 6.10641 10.8222C6.30218 11.0285 6.41217 11.3083 6.41217 11.6C6.41217 11.8918 6.30218 12.1715 6.10641 12.3778ZM18.8253 10.444C18.8546 10.4826 18.8842 10.5211 18.9138 10.5595C19.3464 11.1204 20 11.9681 20 13.5871V15.5987C20 16.2451 19.474 16.7711 18.8276 16.7711H17.1223C17.0049 18.1131 15.8754 19.1696 14.5031 19.1696C13.1308 19.1696 12.0013 18.1131 11.8839 16.7711H8.13182C8.01442 18.1131 6.88489 19.1696 5.5126 19.1696C4.14031 19.1696 3.01087 18.1131 2.89342 16.7711H0.651536C0.292272 16.7711 0 16.4961 0 16.1581V14.0512C0 13.7133 0.292272 13.4383 0.651536 13.4383H10.8593C11.049 13.4383 11.1874 13.3967 11.2595 13.318C11.3249 13.2467 11.3184 13.1638 11.3181 13.1603L11.3174 13.1484V7.36196L11.321 7.3481C11.3969 7.05115 11.6633 6.84377 11.9687 6.84377H12.3961C12.6974 6.84377 12.9477 6.84073 12.9502 6.84068H15.571C16.1017 6.84068 16.6354 7.16107 17.2026 7.82024C17.4569 8.11567 17.6897 8.5429 17.9363 8.9952L17.9363 8.99527C18.1877 9.45659 18.4727 9.97946 18.8253 10.444ZM14.5031 17.5204C15.0438 17.5204 15.4837 17.0806 15.4837 16.5401C15.4837 15.9995 15.0438 15.5598 14.5031 15.5598C13.9625 15.5598 13.5228 15.9996 13.5228 16.5401C13.5228 17.0806 13.9625 17.5204 14.5031 17.5204ZM17.5706 11.479C17.6595 11.4847 17.718 11.4701 17.7385 11.4363C17.8341 11.2783 17.5379 10.7122 17.3416 10.337L17.3411 10.3361C17.3161 10.2882 17.2912 10.2408 17.267 10.1942C17.2323 10.1344 16.5519 8.96316 16.2949 8.59118C15.9085 8.03189 15.5371 7.80375 15.013 7.80375H13.0652V11.4788L17.5706 11.479ZM6.4932 16.5401C6.4932 15.9996 6.05331 15.5598 5.5126 15.5598C4.97207 15.5598 4.53232 15.9995 4.53232 16.5401C4.53232 17.0806 4.97207 17.5204 5.5126 17.5204C6.05331 17.5204 6.4932 17.0806 6.4932 16.5401Z"/>
</svg>
