<svg viewBox="0 0 20 20" xmlns="http://www.w3.org/2000/svg" id="icon">
  <path fill-rule="evenodd" d="M3.47759 2.33474C3.69192 2.12041 3.98261 2 4.28571 2C11.8594 2 18 8.14057 18 15.7143C18 16.0174 17.8796 16.3081 17.6653 16.5224C17.4509 16.7367 17.1602 16.8571 16.8571 16.8571C16.554 16.8571 16.2633 16.7367 16.049 16.5224C15.8347 16.3081 15.7143 16.0174 15.7143 15.7143C15.7143 9.40229 10.5977 4.28571 4.28571 4.28571C3.98261 4.28571 3.69192 4.16531 3.47759 3.95098C3.26327 3.73665 3.14286 3.44596 3.14286 3.14286C3.14286 2.83975 3.26327 2.54906 3.47759 2.33474ZM3.47759 8.04902C3.26327 8.26335 3.14286 8.55404 3.14286 8.85714C3.14286 9.16025 3.26327 9.45094 3.47759 9.66526C3.69192 9.87959 3.98261 10 4.28571 10C5.80124 10 7.25469 10.602 8.32632 11.6737C9.39796 12.7453 10 14.1988 10 15.7143C10 16.0174 10.1204 16.3081 10.3347 16.5224C10.5491 16.7367 10.8398 16.8571 11.1429 16.8571C11.446 16.8571 11.7367 16.7367 11.951 16.5224C12.1653 16.3081 12.2857 16.0174 12.2857 15.7143C12.2857 13.5926 11.4429 11.5577 9.94257 10.0574C8.44228 8.55714 6.40745 7.71429 4.28571 7.71429C3.98261 7.71429 3.69192 7.83469 3.47759 8.04902ZM2.66947 14.098C2.24082 14.5267 2 15.1081 2 15.7143C2 16.3205 2.24082 16.9019 2.66947 17.3305C3.09812 17.7592 3.6795 18 4.28571 18C4.89192 18 5.4733 17.7592 5.90196 17.3305C6.33061 16.9019 6.57143 16.3205 6.57143 15.7143C6.57143 15.1081 6.33061 14.5267 5.90196 14.098C5.4733 13.6694 4.89192 13.4286 4.28571 13.4286C3.6795 13.4286 3.09812 13.6694 2.66947 14.098Z"/>
</svg>
