<svg viewBox="0 0 20 20" xmlns="http://www.w3.org/2000/svg" id="icon">
  <path d="M2.85714 0C1.28125 0 0 1.28125 0 2.85714V17.1429C0 18.7188 1.28125 20 2.85714 20H17.1429C18.7188 20 20 18.7188 20 17.1429V6.30804C20 5.54911 19.7009 4.82143 19.1652 4.28571L15.7143 0.834821C15.1786 0.299107 14.4509 0 13.692 0H2.85714ZM2.85714 4.28571C2.85714 3.49554 3.49554 2.85714 4.28571 2.85714H12.8571C13.6473 2.85714 14.2857 3.49554 14.2857 4.28571V7.14286C14.2857 7.93304 13.6473 8.57143 12.8571 8.57143H4.28571C3.49554 8.57143 2.85714 7.93304 2.85714 7.14286V4.28571ZM10 17.1429C8.42411 17.1429 7.14286 15.8616 7.14286 14.2857C7.14286 12.7098 8.42411 11.4286 10 11.4286C11.5759 11.4286 12.8571 12.7098 12.8571 14.2857C12.8571 15.8616 11.5759 17.1429 10 17.1429Z"/>
</svg>
