<svg viewBox="0 0 20 20" xmlns="http://www.w3.org/2000/svg" id="icon">
  <path fill-rule="evenodd" d="M9.9996 1C10.298 1 10.5841 1.11853 10.7951 1.3295C11.0061 1.54048 11.1246 1.82663 11.1246 2.125V3.61337L15.5728 5.39313L17.3717 4.49312C17.6387 4.35975 17.9478 4.33793 18.2309 4.43245C18.514 4.52696 18.748 4.73009 18.8814 4.99712C19.0148 5.26416 19.0366 5.57325 18.9421 5.85638C18.8476 6.13951 18.6444 6.3735 18.3774 6.50688L16.9903 7.19988L18.9455 13.2974C19.0118 13.5042 19.0168 13.7258 18.9599 13.9354C18.903 14.145 18.7867 14.3337 18.6249 14.4786C17.8005 15.2178 16.7319 15.6261 15.6246 15.625C14.5173 15.6261 13.4486 15.2178 12.6242 14.4786C12.4624 14.3337 12.3461 14.145 12.2892 13.9354C12.2323 13.7258 12.2373 13.5042 12.3036 13.2974L14.2329 7.27975L11.1246 6.03663V16.75H13.3746C13.6729 16.75 13.9591 16.8685 14.1701 17.0795C14.381 17.2905 14.4996 17.5766 14.4996 17.875C14.4996 18.1734 14.381 18.4595 14.1701 18.6705C13.9591 18.8815 13.6729 19 13.3746 19H6.62463C6.32626 19 6.04012 18.8815 5.82914 18.6705C5.61817 18.4595 5.49964 18.1734 5.49964 17.875C5.49964 17.5766 5.61817 17.2905 5.82914 17.0795C6.04012 16.8685 6.32626 16.75 6.62463 16.75H8.87461V6.03663L5.76626 7.27975L7.69562 13.2974C7.76191 13.5042 7.76691 13.7258 7.71001 13.9354C7.65312 14.145 7.53677 14.3337 7.375 14.4786C6.55056 15.2178 5.48195 15.6261 4.37465 15.625C3.26735 15.6261 2.19873 15.2178 1.3743 14.4786C1.21253 14.3337 1.09618 14.145 1.03928 13.9354C0.982389 13.7258 0.987388 13.5042 1.05368 13.2974L3.00891 7.19988L1.6218 6.50575C1.36448 6.36699 1.17128 6.13351 1.08313 5.85477C0.994981 5.57603 1.0188 5.27392 1.14954 5.01243C1.28028 4.75095 1.50768 4.55063 1.78356 4.4539C2.05944 4.35718 2.36214 4.37165 2.62754 4.49425L4.4264 5.39313L8.87461 3.61337V2.125C8.87461 1.82663 8.99314 1.54048 9.20411 1.3295C9.41509 1.11853 9.70124 1 9.9996 1ZM4.37465 10.3083L3.45441 13.1793C3.73565 13.3053 4.04615 13.375 4.37465 13.375C4.70315 13.375 5.01477 13.3053 5.29489 13.1793L4.37465 10.3083ZM15.6246 10.3083L14.7043 13.1793C14.9856 13.3053 15.2961 13.375 15.6246 13.375C15.9531 13.375 16.2647 13.3053 16.5448 13.1793L15.6246 10.3083Z"/>
</svg>
