<svg viewBox="0 0 20 20" xmlns="http://www.w3.org/2000/svg" id="icon">
  <path d="M18.9859 2.2958L16.7359 16.8892C16.6831 17.2314 16.4766 17.5297 16.1744 17.6995C16.0041 17.7951 15.8134 17.8435 15.6232 17.8435C15.476 17.8435 15.3307 17.8149 15.1911 17.7566L10.881 15.9602L9.09291 18.6422C8.9558 18.8769 8.72729 18.9999 8.4812 18.9999C8.0769 18.9999 7.74995 18.673 7.74995 18.2687V14.8874C7.74995 14.6372 7.83334 14.3941 7.98697 14.1969L15.6249 4.37494L5.29955 13.6667L1.69217 12.162C1.29659 11.9968 1.02851 11.6242 1.00214 11.1636C0.975775 10.7031 1.19441 10.3297 1.56675 10.117L17.3168 1.14865C17.6926 0.93388 18.1563 0.953637 18.5121 1.19808C18.8678 1.44252 19.0527 1.869 18.9859 2.2958Z"/>
</svg>
