<svg viewBox="0 0 20 20" xmlns="http://www.w3.org/2000/svg" id="icon">
  <path fill-rule="evenodd" d="M1.13649 3.84846C1.16329 3.65626 1.32826 3.51562 1.52217 3.5082C4.53725 3.39287 7.42702 2.24313 9.72609 0.24469C9.88284 0.108435 10.1171 0.10845 10.2739 0.244725C12.573 2.2437 15.463 3.39385 18.4784 3.50934C18.6721 3.51676 18.8369 3.65703 18.8638 3.84894C18.9541 4.4929 19 5.15251 19 5.82134C19 11.7841 15.3072 17.9957 10.1357 19.9498C10.0482 19.9829 9.95181 19.9829 9.86435 19.9498C4.6928 17.9945 1 11.7829 1 5.82019C1 5.15051 1.04666 4.49255 1.13649 3.84846ZM14.1704 8.93634C14.3753 8.71923 14.4887 8.42845 14.4861 8.12662C14.4836 7.8248 14.3653 7.53608 14.1567 7.32264C13.9481 7.10921 13.6659 6.98815 13.371 6.98553C13.076 6.9829 12.7918 7.09893 12.5796 7.30862L9.16107 10.8066C9.00415 10.9672 8.74585 10.9672 8.58893 10.8066L7.42037 9.61091C7.2082 9.40122 6.92402 9.28519 6.62905 9.28782C6.33408 9.29044 6.05191 9.4115 5.84333 9.62494C5.63475 9.83837 5.51643 10.1271 5.51387 10.4289C5.5113 10.7307 5.6247 11.0215 5.82963 11.2386L8.07963 13.5409C8.29059 13.7567 8.57669 13.878 8.875 13.878C9.17331 13.878 9.45941 13.7567 9.67037 13.5409L14.1704 8.93634Z"/>
</svg>
