<svg viewBox="0 0 20 20" xmlns="http://www.w3.org/2000/svg" id="icon">
  <path fill-rule="evenodd" d="M10 0.5C7.47542 0.5 5.42856 2.62681 5.42856 5.25V6.4375H4.28571C3.70285 6.4375 3.21372 6.89233 3.14972 7.49439L2.00686 18.1819C1.97143 18.5168 2.07428 18.8528 2.29142 19.1046C2.50857 19.3563 2.81828 19.5 3.14285 19.5H16.8572C17.1817 19.5 17.4914 19.3563 17.7086 19.1046C17.9257 18.8528 18.0286 18.5168 17.9931 18.1819L16.8503 7.49439C16.7863 6.89233 16.2972 6.4375 15.7143 6.4375H14.5714V5.25C14.5714 2.62681 12.5246 0.5 10 0.5ZM12.2857 6.4375V5.25C12.2857 3.93781 11.2629 2.875 10 2.875C8.73714 2.875 7.71428 3.93781 7.71428 5.25V6.4375H12.2857ZM5.42856 10C5.42856 9.3445 5.94057 8.8125 6.57142 8.8125C7.20228 8.8125 7.71428 9.3445 7.71428 10C7.71428 10.6555 7.20228 11.1875 6.57142 11.1875C5.94057 11.1875 5.42856 10.6555 5.42856 10ZM13.4286 8.8125C12.7977 8.8125 12.2857 9.3445 12.2857 10C12.2857 10.6555 12.7977 11.1875 13.4286 11.1875C14.0594 11.1875 14.5714 10.6555 14.5714 10C14.5714 9.3445 14.0594 8.8125 13.4286 8.8125Z"/>
</svg>
