<svg viewBox="0 0 20 20" xmlns="http://www.w3.org/2000/svg" id="icon">
  <path fill-rule="evenodd" d="M4.37501 1C4.67338 1 4.95953 1.11853 5.17051 1.3295C5.38149 1.54048 5.50001 1.82663 5.50001 2.125V3.25H6.62502C6.92338 3.25 7.20953 3.36853 7.42051 3.5795C7.63149 3.79048 7.75002 4.07663 7.75002 4.375C7.75002 4.67337 7.63149 4.95952 7.42051 5.1705C7.20953 5.38147 6.92338 5.5 6.62502 5.5H5.50001V6.625C5.50001 6.92337 5.38149 7.20952 5.17051 7.4205C4.95953 7.63147 4.67338 7.75 4.37501 7.75C4.07664 7.75 3.79049 7.63147 3.57951 7.4205C3.36853 7.20952 3.25001 6.92337 3.25001 6.625V5.5H2.125C1.82663 5.5 1.54048 5.38147 1.32951 5.1705C1.11853 4.95952 1 4.67337 1 4.375C1 4.07663 1.11853 3.79048 1.32951 3.5795C1.54048 3.36853 1.82663 3.25 2.125 3.25H3.25001V2.125C3.25001 1.82663 3.36853 1.54048 3.57951 1.3295C3.79049 1.11853 4.07664 1 4.37501 1ZM4.37501 12.25C4.67338 12.25 4.95953 12.3685 5.17051 12.5795C5.38149 12.7905 5.50001 13.0766 5.50001 13.375V14.5H6.62502C6.92338 14.5 7.20953 14.6185 7.42051 14.8295C7.63149 15.0405 7.75002 15.3266 7.75002 15.625C7.75002 15.9234 7.63149 16.2095 7.42051 16.4205C7.20953 16.6315 6.92338 16.75 6.62502 16.75H5.50001V17.875C5.50001 18.1734 5.38149 18.4595 5.17051 18.6705C4.95953 18.8815 4.67338 19 4.37501 19C4.07664 19 3.79049 18.8815 3.57951 18.6705C3.36853 18.4595 3.25001 18.1734 3.25001 17.875V16.75H2.125C1.82663 16.75 1.54048 16.6315 1.32951 16.4205C1.11853 16.2095 1 15.9234 1 15.625C1 15.3266 1.11853 15.0405 1.32951 14.8295C1.54048 14.6185 1.82663 14.5 2.125 14.5H3.25001V13.375C3.25001 13.0766 3.36853 12.7905 3.57951 12.5795C3.79049 12.3685 4.07664 12.25 4.37501 12.25ZM12.25 1C12.4983 0.99992 12.7396 1.08197 12.9364 1.23337C13.1332 1.38476 13.2744 1.597 13.3379 1.837L14.6643 6.85L18.4375 9.02575C18.6086 9.12449 18.7506 9.26651 18.8493 9.43752C18.948 9.60854 19 9.80253 19 10C19 10.1975 18.948 10.3915 18.8493 10.5625C18.7506 10.7335 18.6086 10.8755 18.4375 10.9742L14.6643 13.1511L13.3368 18.163C13.2731 18.4028 13.132 18.6148 12.9353 18.766C12.7387 18.9172 12.4976 18.9993 12.2495 18.9993C12.0014 18.9993 11.7603 18.9172 11.5636 18.766C11.367 18.6148 11.2258 18.4028 11.1622 18.163L9.83577 13.15L6.06251 10.9742C5.89151 10.8755 5.7495 10.7335 5.65077 10.5625C5.55204 10.3915 5.50006 10.1975 5.50006 10C5.50006 9.80253 5.55204 9.60854 5.65077 9.43752C5.7495 9.26651 5.89151 9.12449 6.06251 9.02575L9.83577 6.84888L11.1633 1.837C11.2268 1.59718 11.3678 1.38509 11.5643 1.23371C11.7609 1.08233 12.0019 1.00017 12.25 1Z"/>
</svg>
