<svg viewBox="0 0 20 20" xmlns="http://www.w3.org/2000/svg" id="icon">
  <path fill-rule="evenodd" d="M19 2.12444C18.9999 1.93274 18.9508 1.74425 18.8574 1.57685C18.764 1.40945 18.6294 1.26869 18.4663 1.16794C18.3032 1.06718 18.1171 1.00976 17.9256 1.00114C17.7341 0.992514 17.5436 1.03297 17.3721 1.11865L8.60837 5.49955H4.375C3.47989 5.49955 2.62145 5.85514 1.98851 6.4881C1.35558 7.12105 1 7.97953 1 8.87466C1 9.7698 1.35558 10.6283 1.98851 11.2612C2.62145 11.8942 3.47989 12.2498 4.375 12.2498H4.69L6.68237 18.2305C6.75702 18.4546 6.90031 18.6495 7.09193 18.7876C7.28355 18.9258 7.51379 19.0001 7.75 19H8.875C9.17337 19 9.45952 18.8815 9.6705 18.6705C9.88147 18.4595 10 18.1733 10 17.875V12.945L17.3721 16.6307C17.5436 16.7164 17.7341 16.7568 17.9256 16.7482C18.1171 16.7396 18.3032 16.6821 18.4663 16.5814C18.6294 16.4806 18.764 16.3399 18.8574 16.1725C18.9508 16.0051 18.9999 15.8166 19 15.6249V2.12444Z"/>
</svg>
