<svg viewBox="0 0 20 20" xmlns="http://www.w3.org/2000/svg" id="icon">
  <path d="M3.70691 2.293C3.51831 2.11084 3.2657 2.01004 3.00351 2.01232C2.74131 2.0146 2.4905 2.11977 2.30509 2.30518C2.11968 2.49058 2.01451 2.7414 2.01223 3.00359C2.00996 3.26579 2.11075 3.51839 2.29291 3.707L9.21391 10.629C9.26391 10.691 9.31891 10.747 9.38191 10.796L16.2919 17.707C16.3848 17.7999 16.495 17.8736 16.6163 17.9239C16.7377 17.9742 16.8677 18.0002 16.9991 18.0002C17.1304 18.0002 17.2605 17.9744 17.3818 17.9242C17.5032 17.874 17.6135 17.8003 17.7064 17.7075C17.7993 17.6147 17.873 17.5044 17.9233 17.3831C17.9736 17.2618 17.9996 17.1317 17.9996 17.0003C17.9997 16.869 17.9738 16.7389 17.9236 16.6176C17.8734 16.4962 17.7998 16.3859 17.7069 16.293L17.0319 15.618C18.4136 13.8882 19.1093 11.7099 18.9861 9.49943C18.8628 7.28899 17.9293 5.20149 16.3639 3.636C16.2717 3.54048 16.1613 3.4643 16.0393 3.41189C15.9173 3.35948 15.7861 3.3319 15.6533 3.33074C15.5205 3.32959 15.3888 3.35489 15.266 3.40517C15.1431 3.45545 15.0314 3.52971 14.9375 3.6236C14.8436 3.71749 14.7694 3.82914 14.7191 3.95204C14.6688 4.07494 14.6435 4.20662 14.6447 4.3394C14.6458 4.47218 14.6734 4.6034 14.7258 4.7254C14.7782 4.8474 14.8544 4.95775 14.9499 5.05C16.1402 6.24045 16.8618 7.81991 16.9825 9.49904C17.1031 11.1782 16.6148 12.8446 15.6069 14.193L14.1719 12.758C14.8074 11.7963 15.0911 10.6446 14.9752 9.49769C14.8594 8.35082 14.3509 7.27917 13.5359 6.464C13.3481 6.27622 13.0935 6.17073 12.8279 6.17073C12.5624 6.17073 12.3077 6.27622 12.1199 6.464C11.9321 6.65177 11.8266 6.90644 11.8266 7.172C11.8266 7.43755 11.9321 7.69222 12.1199 7.88C13.0439 8.803 13.2399 10.18 12.7069 11.295L10.7149 9.303C10.709 9.29691 10.703 9.29091 10.6969 9.285L3.70691 2.294V2.293ZM3.23791 8.187C3.30633 7.93066 3.27013 7.65765 3.13726 7.42801C3.00439 7.19837 2.78574 7.03092 2.52941 6.9625C2.27308 6.89407 2.00006 6.93027 1.77042 7.06314C1.54078 7.19601 1.37333 7.41466 1.30491 7.671C0.504908 10.671 1.27991 14.007 3.63591 16.364C3.72882 16.4568 3.83911 16.5305 3.96047 16.5807C4.08184 16.6309 4.21191 16.6567 4.34326 16.6567C4.47461 16.6567 4.60466 16.6307 4.726 16.5804C4.84733 16.5301 4.95756 16.4564 5.05041 16.3635C5.14325 16.2706 5.21689 16.1603 5.26711 16.0389C5.31733 15.9176 5.34316 15.7875 5.34311 15.6561C5.34306 15.5248 5.31715 15.3947 5.26684 15.2734C5.21653 15.1521 5.14282 15.0418 5.04991 14.949C4.18065 14.0803 3.55553 12.9979 3.23744 11.8109C2.91935 10.6239 2.91951 9.37396 3.23791 8.187ZM7.39991 11.5C7.33739 11.3805 7.25135 11.2749 7.14696 11.1895C7.04256 11.1041 6.92197 11.0407 6.79244 11.0031C6.66292 10.9655 6.52713 10.9546 6.39324 10.9708C6.25936 10.9871 6.13014 11.0303 6.01338 11.0978C5.89661 11.1652 5.79471 11.2557 5.71379 11.3636C5.63288 11.4715 5.57462 11.5946 5.54254 11.7256C5.51045 11.8566 5.50519 11.9927 5.52708 12.1258C5.54897 12.2589 5.59755 12.3862 5.66991 12.5C5.88391 12.871 6.14991 13.22 6.46491 13.535C6.65351 13.7172 6.90611 13.8179 7.16831 13.8157C7.43051 13.8134 7.68132 13.7082 7.86673 13.5228C8.05213 13.3374 8.1573 13.0866 8.15958 12.8244C8.16186 12.5622 8.06107 12.3096 7.87891 12.121C7.68791 11.93 7.52891 11.721 7.40091 11.499L7.39991 11.5Z"/>
</svg>
