<svg viewBox="0 0 20 20" xmlns="http://www.w3.org/2000/svg" id="icon">
  <path fill-rule="evenodd" d="M10 1C10.2984 1 10.5845 1.11853 10.7955 1.3295C11.0065 1.54048 11.125 1.82663 11.125 2.125V3.25C11.125 3.54837 11.0065 3.83452 10.7955 4.0455C10.5845 4.25647 10.2984 4.375 10 4.375C9.70163 4.375 9.41548 4.25647 9.2045 4.0455C8.99353 3.83452 8.875 3.54837 8.875 3.25V2.125C8.875 1.82663 8.99353 1.54048 9.2045 1.3295C9.41548 1.11853 9.70163 1 10 1ZM14.5 10C14.5 11.1935 14.0259 12.3381 13.182 13.182C12.3381 14.0259 11.1935 14.5 10 14.5C8.80653 14.5 7.66193 14.0259 6.81802 13.182C5.97411 12.3381 5.5 11.1935 5.5 10C5.5 8.80653 5.97411 7.66193 6.81802 6.81802C7.66193 5.97411 8.80653 5.5 10 5.5C11.1935 5.5 12.3381 5.97411 13.182 6.81802C14.0259 7.66193 14.5 8.80653 14.5 10ZM13.978 15.5687L14.7734 16.3641C14.9856 16.5691 15.2697 16.6824 15.5647 16.6799C15.8597 16.6773 16.1418 16.559 16.3504 16.3504C16.559 16.1418 16.6773 15.8597 16.6799 15.5647C16.6824 15.2697 16.5691 14.9856 16.3641 14.7734L15.5687 13.978C15.3566 13.7731 15.0724 13.6597 14.7774 13.6622C14.4825 13.6648 14.2003 13.7831 13.9917 13.9917C13.7831 14.2003 13.6648 14.4825 13.6622 14.7774C13.6597 15.0724 13.7731 15.3566 13.978 15.5687ZM16.363 3.63587C16.5739 3.84684 16.6924 4.13294 16.6924 4.43125C16.6924 4.72956 16.5739 5.01566 16.363 5.22662L15.5687 6.022C15.465 6.12945 15.3408 6.21515 15.2036 6.27411C15.0663 6.33307 14.9187 6.36411 14.7693 6.36541C14.6199 6.3667 14.4718 6.33824 14.3336 6.28167C14.1953 6.22511 14.0697 6.14157 13.9641 6.03594C13.8584 5.93032 13.7749 5.80471 13.7183 5.66645C13.6618 5.52819 13.6333 5.38005 13.6346 5.23067C13.6359 5.0813 13.6669 4.93367 13.7259 4.79642C13.7848 4.65917 13.8706 4.53503 13.978 4.43125L14.7734 3.63587C14.9843 3.42497 15.2704 3.30649 15.5687 3.30649C15.8671 3.30649 16.1532 3.42497 16.3641 3.63587H16.363ZM17.875 11.125C18.1734 11.125 18.4595 11.0065 18.6705 10.7955C18.8815 10.5845 19 10.2984 19 10C19 9.70163 18.8815 9.41548 18.6705 9.2045C18.4595 8.99353 18.1734 8.875 17.875 8.875H16.75C16.4516 8.875 16.1655 8.99353 15.9545 9.2045C15.7435 9.41548 15.625 9.70163 15.625 10C15.625 10.2984 15.7435 10.5845 15.9545 10.7955C16.1655 11.0065 16.4516 11.125 16.75 11.125H17.875ZM10 15.625C10.2984 15.625 10.5845 15.7435 10.7955 15.9545C11.0065 16.1655 11.125 16.4516 11.125 16.75V17.875C11.125 18.1734 11.0065 18.4595 10.7955 18.6705C10.5845 18.8815 10.2984 19 10 19C9.70163 19 9.41548 18.8815 9.2045 18.6705C8.99353 18.4595 8.875 18.1734 8.875 17.875V16.75C8.875 16.4516 8.99353 16.1655 9.2045 15.9545C9.41548 15.7435 9.70163 15.625 10 15.625ZM4.43125 6.022C4.5357 6.12652 4.65972 6.20945 4.79621 6.26605C4.93271 6.32264 5.07902 6.3518 5.22679 6.35185C5.37456 6.35191 5.52089 6.32285 5.65743 6.26635C5.79397 6.20985 5.91804 6.12701 6.02256 6.02256C6.12709 5.91811 6.21001 5.7941 6.26661 5.6576C6.32321 5.5211 6.35236 5.37479 6.35242 5.22702C6.35247 5.07926 6.32341 4.93293 6.26691 4.79639C6.21042 4.65985 6.12758 4.53577 6.02313 4.43125L5.22662 3.63587C5.01445 3.43095 4.73027 3.31755 4.4353 3.32012C4.14033 3.32268 3.85816 3.44099 3.64958 3.64958C3.44099 3.85816 3.32268 4.14033 3.32012 4.4353C3.31755 4.73027 3.43095 5.01445 3.63587 5.22662L4.43125 6.022ZM6.022 15.5687L5.22662 16.3641C5.01445 16.5691 4.73027 16.6824 4.4353 16.6799C4.14033 16.6773 3.85816 16.559 3.64958 16.3504C3.44099 16.1418 3.32268 15.8597 3.32012 15.5647C3.31755 15.2697 3.43095 14.9856 3.63587 14.7734L4.43125 13.978C4.64343 13.7731 4.92761 13.6597 5.22258 13.6622C5.51755 13.6648 5.79971 13.7831 6.0083 13.9917C6.21688 14.2003 6.3352 14.4825 6.33776 14.7774C6.34032 15.0724 6.22693 15.3566 6.022 15.5687ZM3.25 11.125C3.54837 11.125 3.83452 11.0065 4.0455 10.7955C4.25647 10.5845 4.375 10.2984 4.375 10C4.375 9.70163 4.25647 9.41548 4.0455 9.2045C3.83452 8.99353 3.54837 8.875 3.25 8.875H2.125C1.82663 8.875 1.54048 8.99353 1.3295 9.2045C1.11853 9.41548 1 9.70163 1 10C1 10.2984 1.11853 10.5845 1.3295 10.7955C1.54048 11.0065 1.82663 11.125 2.125 11.125H3.25Z"/>
</svg>
