<svg viewBox="0 0 20 20" xmlns="http://www.w3.org/2000/svg" id="icon">
  <path d="M7.42849 3.76536C7.08749 3.76536 6.76045 3.89706 6.51933 4.13148C6.2782 4.3659 6.14274 4.68384 6.14274 5.01536C6.14274 5.34688 6.2782 5.66482 6.51933 5.89924C6.76045 6.13366 7.08749 6.26536 7.42849 6.26536H14.6107L12.9482 7.88161C12.714 8.11736 12.5844 8.43312 12.5874 8.76086C12.5903 9.08861 12.7255 9.40212 12.9639 9.63388C13.2023 9.86564 13.5248 9.9971 13.8619 9.99995C14.199 10.0028 14.5238 9.87681 14.7663 9.64911L18.6235 5.89911C18.8646 5.6647 19 5.34682 19 5.01536C19 4.68391 18.8646 4.36602 18.6235 4.13161L14.7663 0.38161C14.6477 0.262222 14.5058 0.166995 14.3489 0.101484C14.1921 0.0359723 14.0234 0.00148947 13.8526 4.71959e-05C13.6819 -0.00139507 13.5126 0.0302321 13.3546 0.0930832C13.1966 0.155934 13.053 0.248751 12.9323 0.366117C12.8116 0.483482 12.7161 0.623047 12.6515 0.776668C12.5868 0.930288 12.5543 1.09489 12.5558 1.26086C12.5572 1.42684 12.5927 1.59086 12.6601 1.74337C12.7275 1.89587 12.8254 2.0338 12.9482 2.14911L14.6107 3.76536H7.42849ZM12.5715 16.2654C12.9125 16.2654 13.2395 16.1337 13.4807 15.8992C13.7218 15.6648 13.8573 15.3469 13.8573 15.0154C13.8573 14.6838 13.7218 14.3659 13.4807 14.1315C13.2395 13.8971 12.9125 13.7654 12.5715 13.7654H5.38929L7.05177 12.1491C7.17457 12.0338 7.27252 11.8959 7.33991 11.7434C7.40729 11.5909 7.44276 11.4268 7.44424 11.2609C7.44573 11.0949 7.4132 10.9303 7.34855 10.7767C7.2839 10.623 7.18843 10.4835 7.0677 10.3661C6.94698 10.2488 6.80342 10.1559 6.64541 10.0931C6.4874 10.0302 6.31809 9.9986 6.14737 10C5.97664 10.0015 5.80793 10.036 5.65106 10.1015C5.49419 10.167 5.35232 10.2622 5.23371 10.3816L1.37645 14.1316C1.13541 14.366 1 14.6839 1 15.0154C1 15.3468 1.13541 15.6647 1.37645 15.8991L5.23371 19.6491C5.47621 19.8768 5.80099 20.0028 6.13811 20C6.47523 19.9971 6.79772 19.8656 7.0361 19.6339C7.27449 19.4021 7.40972 19.0886 7.41264 18.7609C7.41557 18.4331 7.28598 18.1174 7.05177 17.8816L5.38929 16.2654H12.5715Z"/>
</svg>
