<svg viewBox="0 0 20 20" xmlns="http://www.w3.org/2000/svg" id="icon">
  <path d="M19 9.4375C19 9.88505 18.8172 10.3143 18.4918 10.6307C18.1664 10.9472 17.7251 11.125 17.2649 11.125C16.8047 11.125 16.3633 10.9472 16.0379 10.6307C15.7125 10.3143 15.5297 9.88505 15.5297 9.4375V2.6875C15.5297 2.23995 15.7125 1.81073 16.0379 1.49426C16.3633 1.17779 16.8047 1 17.2649 1C17.7251 1 18.1664 1.17779 18.4918 1.49426C18.8172 1.81073 19 2.23995 19 2.6875V9.4375ZM14.373 9.62538V3.51663C14.3733 3.09862 14.2539 2.6888 14.0281 2.33311C13.8023 1.97742 13.4791 1.68993 13.0948 1.50288L13.0369 1.47475C12.394 1.16224 11.6851 0.999699 10.9663 1H4.70253C4.1675 0.999794 3.64893 1.17995 3.23512 1.50978C2.82131 1.83962 2.53784 2.29875 2.43298 2.809L1.04487 9.559C0.977774 9.88549 0.986014 10.2224 1.069 10.5454C1.15198 10.8684 1.30764 11.1695 1.52475 11.4269C1.74186 11.6843 2.01501 11.8917 2.32449 12.034C2.63398 12.1764 2.97208 12.2501 3.31442 12.25H7.43247V16.75C7.43247 17.3467 7.67621 17.919 8.11008 18.341C8.54394 18.7629 9.13239 19 9.74597 19C10.0528 19 10.347 18.8815 10.5639 18.6705C10.7809 18.4595 10.9027 18.1734 10.9027 17.875V17.1246C10.9027 16.151 11.2274 15.2036 11.8281 14.4246L13.4476 12.3254C14.0483 11.5464 14.373 10.599 14.373 9.62538Z"/>
</svg>
