<svg viewBox="0 0 20 20" xmlns="http://www.w3.org/2000/svg" id="icon">
  <path fill-rule="evenodd" d="M1.31381 3.31381C1.51475 3.11288 1.78727 3 2.07143 3H11.1786C11.4627 3 11.7353 3.11288 11.9362 3.31381C12.1371 3.51475 12.25 3.78727 12.25 4.07143V14.7857C12.25 15.0699 12.1371 15.3424 11.9362 15.5433C11.7353 15.7443 11.4627 15.8571 11.1786 15.8571H9.51786C9.3949 15.2516 9.06639 14.7072 8.588 14.3162C8.1096 13.9252 7.51073 13.7116 6.89286 13.7116C6.27499 13.7116 5.67612 13.9252 5.19772 14.3162C4.71932 14.7072 4.39081 15.2516 4.26786 15.8571H2.07143C1.78727 15.8571 1.51475 15.7443 1.31381 15.5433C1.11288 15.3424 1 15.0699 1 14.7857V4.07143C1 3.78727 1.11288 3.51475 1.31381 3.31381ZM14.1174 6.47453C14.3183 6.2736 14.5908 6.16071 14.875 6.16071L16 6.21429C16.2841 6.21435 16.5566 6.32727 16.7575 6.52821L18.9004 8.67107C19.1013 8.87196 19.2142 9.14443 19.2143 9.42857V14.7857C19.2143 15.0699 19.1014 15.3424 18.9005 15.5433C18.6995 15.7443 18.427 15.8571 18.1429 15.8571H17.0179C16.9476 15.5124 16.8101 15.1849 16.6132 14.8933C16.4163 14.6017 16.1638 14.3517 15.8703 14.1577C15.5768 13.9637 15.1944 13.7758 14.8489 13.7089C14.5035 13.642 14.1483 13.6439 13.8036 13.7143V7.23214C13.8036 6.94798 13.9165 6.67546 14.1174 6.47453ZM8.02928 17.5293C8.33068 17.2279 8.5 16.8191 8.5 16.3929C8.5 15.9666 8.33068 15.5578 8.02928 15.2564C7.72788 14.955 7.3191 14.7857 6.89286 14.7857C6.46662 14.7857 6.05783 14.955 5.75644 15.2564C5.45504 15.5578 5.28571 15.9666 5.28571 16.3929C5.28571 16.8191 5.45504 17.2279 5.75644 17.5293C6.05783 17.8307 6.46662 18 6.89286 18C7.3191 18 7.72788 17.8307 8.02928 17.5293ZM15.5293 17.5293C15.8307 17.2279 16 16.8191 16 16.3929C16 15.9666 15.8307 15.5578 15.5293 15.2564C15.2279 14.955 14.8191 14.7857 14.3929 14.7857C13.9666 14.7857 13.5578 14.955 13.2564 15.2564C12.955 15.5578 12.7857 15.9666 12.7857 16.3929C12.7857 16.8191 12.955 17.2279 13.2564 17.5293C13.5578 17.8307 13.9666 18 14.3929 18C14.8191 18 15.2279 17.8307 15.5293 17.5293Z"/>
</svg>
