<svg viewBox="0 0 20 20" xmlns="http://www.w3.org/2000/svg" id="icon">
  <path fill-rule="evenodd" d="M18 10C18 14.4183 14.4183 18 10 18C5.58172 18 2 14.4183 2 10C2 5.58172 5.58172 2 10 2C14.4183 2 18 5.58172 18 10ZM20 10C20 15.5228 15.5228 20 10 20C4.47715 20 0 15.5228 0 10C0 4.47715 4.47715 0 10 0C15.5228 0 20 4.47715 20 10ZM5.48421 10.236L5.95878 10.6984C6.16187 10.8984 6.49322 10.8942 6.69202 10.6901L9.14614 8.17993V14.1668C9.14614 14.4438 9.37488 14.6667 9.65919 14.6667H10.3433C10.6276 14.6667 10.8563 14.4438 10.8563 14.1668V8.17993L13.3083 10.688C13.5071 10.89 13.8385 10.8942 14.0415 10.6963L14.5161 10.2339C14.7171 10.0401 14.7171 9.72351 14.5161 9.5277L10.3625 5.48023C10.1637 5.28442 9.83876 5.28442 9.63782 5.48023L5.48421 9.52978C5.28326 9.72351 5.28326 10.0401 5.48421 10.236Z"/>
</svg>
