<svg viewBox="0 0 20 20" xmlns="http://www.w3.org/2000/svg" id="icon">
  <path fill-rule="evenodd" d="M0 9.99959C0 4.477 4.477 0 9.99959 0H9.99878C15.5222 0 20 4.477 20 9.99959C20 15.5222 15.5222 20 9.99959 20C4.477 20 0 15.5222 0 9.99959ZM9.99959 2.04057C5.60421 2.04057 2.04057 5.60421 2.04057 9.99959C2.04057 14.3958 5.60421 17.9594 9.99959 17.9594C14.3958 17.9594 17.9594 14.3958 17.9594 9.99959C17.9594 5.60421 14.3958 2.04057 9.99959 2.04057ZM9.99906 4.08112C8.42961 4.08112 6.92443 4.70458 5.81466 5.81435C4.70489 6.92413 4.08142 8.4293 4.08142 9.99876C4.08142 11.5682 4.70489 13.0734 5.81466 14.1832C6.92443 15.2929 8.42961 15.9164 9.99906 15.9164C11.5685 15.9164 13.0737 15.2929 14.1835 14.1832C15.2932 13.0734 15.9167 11.5682 15.9167 9.99876C15.9167 8.4293 15.2932 6.92413 14.1835 5.81435C13.0737 4.70458 11.5685 4.08112 9.99906 4.08112ZM6.12199 9.99876C6.12199 8.97049 6.53046 7.98434 7.25756 7.25725C7.98465 6.53016 8.9708 6.12168 9.99906 6.12168C11.0273 6.12168 12.0135 6.53016 12.7406 7.25725C13.4677 7.98434 13.8761 8.97049 13.8761 9.99876C13.8761 11.027 13.4677 12.0132 12.7406 12.7403C12.0135 13.4674 11.0273 13.8758 9.99906 13.8758C8.9708 13.8758 7.98465 13.4674 7.25756 12.7403C6.53046 12.0132 6.12199 11.027 6.12199 9.99876ZM9.99874 8.16223C9.51167 8.16223 9.04455 8.35572 8.70013 8.70013C8.35572 9.04455 8.16223 9.51167 8.16223 9.99874C8.16223 10.4858 8.35572 10.9529 8.70013 11.2973C9.04455 11.6418 9.51167 11.8353 9.99874 11.8353C10.4858 11.8353 10.9529 11.6418 11.2973 11.2973C11.6418 10.9529 11.8353 10.4858 11.8353 9.99874C11.8353 9.51167 11.6418 9.04455 11.2973 8.70013C10.9529 8.35572 10.4858 8.16223 9.99874 8.16223Z"/>
</svg>
