<svg viewBox="0 0 20 20" xmlns="http://www.w3.org/2000/svg" id="icon">
  <path d="M1 5.33333C1 4.71449 1.23705 4.121 1.65901 3.68342C2.08097 3.24583 2.65326 3 3.25 3H10C10.5967 3 11.169 3.24583 11.591 3.68342C12.0129 4.121 12.25 4.71449 12.25 5.33333V14.6667C12.25 15.2855 12.0129 15.879 11.591 16.3166C11.169 16.7542 10.5967 17 10 17H3.25C2.65326 17 2.08097 16.7542 1.65901 16.3166C1.23705 15.879 1 15.2855 1 14.6667V5.33333ZM15.1221 6.62367C14.9353 6.72049 14.7781 6.86934 14.6682 7.05355C14.5584 7.23776 14.5001 7.45006 14.5 7.66667V12.3333C14.5001 12.5499 14.5584 12.7622 14.6682 12.9464C14.7781 13.1307 14.9353 13.2795 15.1221 13.3763L17.3721 14.543C17.5436 14.6319 17.7341 14.6738 17.9256 14.6649C18.1171 14.6559 18.3032 14.5964 18.4663 14.4919C18.6294 14.3874 18.764 14.2414 18.8574 14.0679C18.9508 13.8943 18.9999 13.6988 19 13.5V6.5C18.9999 6.30121 18.9508 6.10574 18.8574 5.93215C18.764 5.75856 18.6294 5.61259 18.4663 5.50811C18.3032 5.40362 18.1171 5.34408 17.9256 5.33514C17.7341 5.32619 17.5436 5.36814 17.3721 5.457L15.1221 6.62367Z"/>
</svg>
