<svg viewBox="0 0 20 20" xmlns="http://www.w3.org/2000/svg" id="icon">
  <path d="M19.7747 16.4821C20.4156 17.5836 19.6111 18.9605 18.331 18.9605H1.66831C0.385773 18.9605 -0.414991 17.5814 0.224662 16.4821L8.55612 2.1591C9.19733 1.05709 10.8033 1.05909 11.4434 2.1591L19.7747 16.4821ZM9.99976 13.5208C9.11765 13.5208 8.40254 14.2299 8.40254 15.1045C8.40254 15.9792 9.11765 16.6882 9.99976 16.6882C10.8819 16.6882 11.597 15.9792 11.597 15.1045C11.597 14.2299 10.8819 13.5208 9.99976 13.5208ZM8.48334 7.82832L8.74091 12.5105C8.75296 12.7296 8.93567 12.9011 9.15695 12.9011H10.8426C11.0639 12.9011 11.2466 12.7296 11.2586 12.5105L11.5162 7.82832C11.5292 7.59166 11.3392 7.39266 11.1001 7.39266H8.89935C8.66032 7.39266 8.47032 7.59166 8.48334 7.82832Z"/>
</svg>
