<svg viewBox="0 0 156 155" fill="none" xmlns="http://www.w3.org/2000/svg">
  <!-- Slanted background document -->
  <path opacity="0.14"
    d="M112.801 131.435L70.5056 106.593C70.1654 106.393 70.0533 105.958 70.2551 105.621L104.398 48.571C104.6 48.234 105.039 48.123 105.379 48.3229L147.675 73.1647C148.015 73.3643 148.127 73.7993 147.925 74.1362L113.782 131.186C113.58 131.523 113.141 131.634 112.801 131.435Z"
    fill="var(--color-secondary-600)" />
  <path
    d="M111.703 129.148L69.4071 104.307C69.0674 104.107 68.9549 103.672 69.1566 103.335L103.3 46.2849C103.502 45.9479 103.941 45.8369 104.281 46.0368L146.576 70.8786C146.916 71.0782 147.029 71.5132 146.827 71.8501L112.683 128.9C112.482 129.237 112.042 129.348 111.703 129.148Z"
    fill="var(--color-secondary-400)" />
  <path opacity="0.14"
    d="M123.852 128.45L75.4961 119.62C75.1076 119.549 74.8506 119.179 74.9221 118.794L87.0585 53.5694C87.13 53.1846 87.5034 52.9299 87.8919 53.0008L136.248 61.8308C136.636 61.9016 136.893 62.2715 136.822 62.6564L124.685 127.881C124.614 128.266 124.241 128.52 123.852 128.45Z"
    fill="var(--color-secondary-600)" />
  <path d="M86.1557 51.0445L73.7583 117.661L123.52 126.75L135.917 60.1328L86.1557 51.0445Z"
    fill="var(--color-additional-50)" />
  <path opacity="0.39"
    d="M122.818 126.615L74.4624 117.785C74.074 117.714 73.8169 117.344 73.8884 116.959L86.0248 51.7348C86.0963 51.3495 86.4697 51.0953 86.8582 51.1661L135.214 59.9961C135.602 60.067 135.859 60.4369 135.788 60.8217L123.652 126.046C123.58 126.432 123.207 126.686 122.818 126.615Z"
    fill="var(--color-secondary-400)" />
  <path
    d="M128.387 67.9722C128.364 67.9722 128.34 67.9703 128.317 67.9657L116.212 65.7554C116.002 65.7171 115.864 65.5172 115.902 65.3093C115.941 65.1014 116.14 64.9643 116.353 65.0022L128.457 67.2125C128.667 67.2508 128.806 67.4506 128.767 67.6586C128.732 67.8432 128.57 67.9722 128.387 67.9722Z"
    fill="var(--color-additional-50)" />
  <path
    d="M127.674 71.8031C127.651 71.8031 127.628 71.8011 127.604 71.7965L115.499 69.5863C115.289 69.548 115.151 69.3481 115.189 69.1401C115.228 68.9326 115.427 68.7947 115.64 68.833L127.744 71.0437C127.954 71.082 128.093 71.2819 128.054 71.4898C128.02 71.674 127.857 71.8031 127.674 71.8031Z"
    fill="var(--color-additional-50)" />
  <path
    d="M126.9 75.9667C126.877 75.9667 126.853 75.9647 126.829 75.9601L114.724 73.7499C114.515 73.7116 114.376 73.5117 114.414 73.3041C114.453 73.0962 114.652 72.9591 114.865 72.997L126.969 75.2073C127.179 75.2456 127.318 75.4455 127.279 75.6534C127.245 75.8376 127.083 75.9667 126.9 75.9667Z"
    fill="var(--color-additional-50)" />
  <path opacity="0.07"
    d="M111.838 58.6639L90.5425 54.7753L90.914 52.779C90.9893 52.3743 91.3813 52.107 91.7899 52.1813L111.632 55.8046C112.026 55.8766 112.286 56.2511 112.214 56.6409L111.838 58.6639Z"
    fill="var(--color-secondary-200)" />
  <path
    d="M122.14 96.2539C122.117 96.2539 122.093 96.252 122.069 96.2474L85.0828 89.4933C84.8729 89.455 84.7342 89.2555 84.7728 89.0472C84.8115 88.8396 85.0101 88.701 85.2231 88.7401L122.209 95.4942C122.419 95.5325 122.558 95.732 122.519 95.9403C122.485 96.1249 122.323 96.2539 122.14 96.2539Z"
    fill="var(--color-additional-50)" />
  <path
    d="M119.495 110.466C119.472 110.466 119.449 110.464 119.425 110.459L82.4381 103.705C82.2282 103.667 82.0894 103.468 82.128 103.259C82.1667 103.052 82.3658 102.912 82.5784 102.952L119.565 109.706C119.775 109.744 119.914 109.944 119.875 110.152C119.841 110.337 119.678 110.466 119.495 110.466Z"
    fill="var(--color-additional-50)" />
  <path
    d="M101.315 99.7987C101.292 99.7987 101.269 99.7968 101.245 99.7922L83.7603 96.5993C83.5504 96.5611 83.4117 96.3615 83.4503 96.1532C83.4893 95.9457 83.688 95.8059 83.9006 95.8461L101.385 99.039C101.595 99.0773 101.734 99.2768 101.695 99.4851C101.661 99.6697 101.498 99.7987 101.315 99.7987Z"
    fill="var(--color-additional-50)" />
  <path
    d="M103.725 86.8511C103.701 86.8511 103.678 86.8492 103.654 86.8446L86.1693 83.6521C85.9594 83.6138 85.8206 83.4139 85.8592 83.2063C85.8983 82.9984 86.0974 82.8617 86.3096 82.8992L103.794 86.0917C104.004 86.13 104.142 86.3295 104.104 86.5379C104.07 86.7224 103.907 86.8511 103.725 86.8511Z"
    fill="var(--color-additional-50)" />
  <path
    d="M120.828 103.304C120.805 103.304 120.781 103.303 120.757 103.298L104.098 100.256C103.888 100.218 103.75 100.018 103.788 99.8099C103.827 99.6023 104.026 99.4637 104.239 99.5027L120.897 102.545C121.107 102.583 121.246 102.783 121.208 102.991C121.173 103.175 121.011 103.304 120.828 103.304Z"
    fill="var(--color-additional-50)" />
  <!-- Front upright document -->
  <path
    d="M32.5509 19.5916H81.8904C82.8842 19.5916 83.6898 20.3896 83.6898 21.3741V93.3667C83.6898 96.7629 80.9105 99.5162 77.4822 99.5162H43.2238C35.9185 99.5162 29.9966 93.6493 29.9966 86.4123V22.122C29.9966 20.7243 31.14 19.5916 32.5509 19.5916Z"
    fill="var(--color-additional-50)" />
  <path opacity="0.2"
    d="M30.6242 19.5916H82.7248C83.2575 19.5916 83.6893 20.0193 83.6893 20.547V93.6527C83.6893 96.8908 81.0395 99.5158 77.7709 99.5158H42.0478C35.3919 99.5158 29.9961 94.1704 29.9961 87.5767V20.2134C29.9965 19.87 30.2775 19.5916 30.6242 19.5916Z"
    fill="var(--color-primary-500)" />
  <path
    d="M42.2585 99.5024V99.5158H85.3847C90.3484 99.5158 94.3723 95.5294 94.3723 90.6122V87.2302H50.7583V90.6122C50.7583 95.3675 46.9953 99.2515 42.2585 99.5024Z"
    fill="var(--color-primary-400)" />
  <g opacity="0.28">
    <path
      d="M47.9758 99.5024V99.5158H86.3707C90.7897 99.5158 94.3722 95.5294 94.3722 90.6122V87.2302H55.5432V90.6122C55.5432 95.3675 52.193 99.2515 47.9758 99.5024Z"
      fill="var(--color-primary-500)" />
  </g>
  <path
    d="M75.5402 78.018H44.5318C44.3184 78.018 44.1453 77.8465 44.1453 77.6351C44.1453 77.4237 44.3184 77.2522 44.5318 77.2522H75.5402C75.7539 77.2522 75.9267 77.4237 75.9267 77.6351C75.9267 77.8465 75.7539 78.018 75.5402 78.018Z"
    fill="var(--color-additional-50)" />
  <path
    d="M76.1903 65.0841H43.952C43.7386 65.0841 43.5654 64.9126 43.5654 64.7012C43.5654 64.4898 43.7386 64.3183 43.952 64.3183H76.1903C76.4041 64.3183 76.5769 64.4898 76.5769 64.7012C76.5769 64.913 76.4041 65.0841 76.1903 65.0841Z"
    fill="var(--color-additional-50)" />
  <path
    d="M60.0359 71.5457H43.5628C43.3494 71.5457 43.1763 71.3742 43.1763 71.1628C43.1763 70.9514 43.3494 70.7799 43.5628 70.7799H60.0359C60.2492 70.7799 60.4224 70.9514 60.4224 71.1628C60.4224 71.3742 60.2492 71.5457 60.0359 71.5457Z"
    fill="var(--color-additional-50)" />
  <path
    d="M58.7877 71.5457H44.8106C44.5972 71.5457 44.4241 71.3742 44.4241 71.1628C44.4241 70.9514 44.5972 70.7799 44.8106 70.7799H58.7877C59.0011 70.7799 59.1743 70.9514 59.1743 71.1628C59.1743 71.3742 59.0015 71.5457 58.7877 71.5457Z"
    fill="var(--color-additional-50)" />
  <path
    d="M65.3981 51.2553H44.1763C43.963 51.2553 43.7898 51.0838 43.7898 50.8724C43.7898 50.661 43.963 50.4895 44.1763 50.4895H65.3981C65.6115 50.4895 65.7847 50.661 65.7847 50.8724C65.7847 51.0838 65.6115 51.2553 65.3981 51.2553Z"
    fill="var(--color-additional-50)" />
  <path
    d="M75.2364 51.2553H68.7718C68.5584 51.2553 68.3853 51.0838 68.3853 50.8724C68.3853 50.661 68.5584 50.4895 68.7718 50.4895H75.2364C75.4502 50.4895 75.6229 50.661 75.6229 50.8724C75.6229 51.0838 75.4498 51.2553 75.2364 51.2553Z"
    fill="var(--color-additional-50)" />
  <path
    d="M76.1904 57.7165H53.2103C52.9969 57.7165 52.8237 57.545 52.8237 57.3336C52.8237 57.1222 52.9969 56.9507 53.2103 56.9507H76.1904C76.4042 56.9507 76.577 57.1222 76.577 57.3336C76.577 57.545 76.4042 57.7165 76.1904 57.7165Z"
    fill="var(--color-additional-50)" />
  <path
    d="M50.9407 57.7165H43.952C43.7386 57.7165 43.5654 57.545 43.5654 57.3336C43.5654 57.1222 43.7386 56.9507 43.952 56.9507H50.9407C51.1541 56.9507 51.3273 57.1222 51.3273 57.3336C51.3273 57.545 51.1541 57.7165 50.9407 57.7165Z"
    fill="var(--color-additional-50)" />
  <path
    d="M75.5402 45.784H44.5318C44.3184 45.784 44.1453 45.6125 44.1453 45.4011C44.1453 45.1897 44.3184 45.0182 44.5318 45.0182H75.5402C75.7539 45.0182 75.9267 45.1897 75.9267 45.4011C75.9267 45.6125 75.7539 45.784 75.5402 45.784Z"
    fill="var(--color-additional-50)" />
  <path
    d="M75.5402 32.8502H44.5318C44.3184 32.8502 44.1453 32.6786 44.1453 32.4672C44.1453 32.2558 44.3184 32.0843 44.5318 32.0843H75.5402C75.7539 32.0843 75.9267 32.2558 75.9267 32.4672C75.9267 32.6786 75.7539 32.8502 75.5402 32.8502Z"
    fill="var(--color-additional-50)" />
  <path
    d="M55.9123 39.3117H44.1763C43.963 39.3117 43.7898 39.1402 43.7898 38.9288C43.7898 38.7174 43.963 38.5459 44.1763 38.5459H55.9123C56.1256 38.5459 56.2988 38.7174 56.2988 38.9288C56.2988 39.1402 56.126 39.3117 55.9123 39.3117Z"
    fill="var(--color-additional-50)" />
  <path
    d="M75.3041 39.3117H61.327C61.1136 39.3117 60.9404 39.1402 60.9404 38.9288C60.9404 38.7174 61.1136 38.5459 61.327 38.5459H75.3041C75.5179 38.5459 75.6906 38.7174 75.6906 38.9288C75.6906 39.1402 75.5179 39.3117 75.3041 39.3117Z"
    fill="var(--color-additional-50)" />
  <!-- Folder -->
  <path
    d="M72.4347 94.7709H39.54C37.2377 94.7709 35.3714 92.9221 35.3714 90.6413V87.9332C35.3714 85.6445 33.4982 83.7888 31.1879 83.7888H15.9939C13.6835 83.7888 11.8103 85.6445 11.8103 87.9332V98.6312V110.93V130.949C11.8103 133.081 13.5548 134.809 15.7071 134.809H72.4347C74.5866 134.809 76.3314 133.081 76.3314 130.949V98.6312C76.3314 96.499 74.5869 94.7709 72.4347 94.7709Z"
    fill="var(--color-secondary-500)" />
  <path
    d="M68.81 94.7709H35.9153C33.613 94.7709 31.7468 92.9221 31.7468 90.6413V87.9332C31.7468 85.6445 29.8736 83.7888 27.5632 83.7888H12.3696C10.0592 83.7888 8.18604 85.6445 8.18604 87.9332V98.6312V110.93V130.949C8.18604 133.081 9.93052 134.809 12.0828 134.809H68.81C70.9619 134.809 72.7068 133.081 72.7068 130.949V98.6312C72.7068 96.499 70.9619 94.7709 68.81 94.7709Z"
    fill="var(--color-secondary-500)" />
  <path opacity="0.12"
    d="M68.81 94.7709H35.9153C33.613 94.7709 31.7468 92.9221 31.7468 90.6413V87.9332C31.7468 85.6445 29.8736 83.7888 27.5632 83.7888H12.3696C10.0592 83.7888 8.18604 85.6445 8.18604 87.9332V98.6312V110.93V130.949C8.18604 133.081 9.93052 134.809 12.0828 134.809H68.81C70.9619 134.809 72.7068 133.081 72.7068 130.949V98.6312C72.7068 96.499 70.9619 94.7709 68.81 94.7709Z"
    fill="var(--color-additional-50)" />
  <path opacity="0.12"
    d="M60.4664 94.7709H32.0989C30.1136 94.7709 28.5041 92.9221 28.5041 90.6413V87.9332C28.5041 85.6445 26.8887 83.7888 24.8964 83.7888H11.7937C9.80102 83.7888 8.18604 85.6445 8.18604 87.9332V98.6312V110.93V130.949C8.18604 133.081 9.69047 134.809 11.5463 134.809H60.4668C62.3226 134.809 63.827 133.081 63.827 130.949V98.6312C63.827 96.499 62.3222 94.7709 60.4664 94.7709Z"
    fill="var(--color-additional-50)" />
  <path
    d="M11.2252 99.072C11.0118 99.072 10.8386 98.9008 10.8386 98.689V89.2923C10.8386 87.8368 12.0338 86.6527 13.5027 86.6527H24.699C24.9124 86.6527 25.0856 86.8239 25.0856 87.0357C25.0856 87.2474 24.9124 87.4186 24.699 87.4186H13.5031C12.4606 87.4186 11.6121 88.2587 11.6121 89.2923V98.689C11.6117 98.9004 11.4389 99.072 11.2252 99.072Z"
    fill="var(--color-additional-50)" />
  <!-- Warning badge (overlays top-right, analogous to the magnifier) -->
  <g filter="url(#filter0_d_load_error)">
    <circle cx="99.8325" cy="66.9712" r="24.8" fill="black" fill-opacity="0.1" shape-rendering="crispEdges" />
  </g>
  <!-- Separation halo + ring: keeps the badge a distinct object on top of the amber
       document in both light and dark. Backing = additional-50 (page tone), ring = slate
       secondary which contrasts with the primary/amber both in front of and behind it. -->
  <circle cx="99.7017" cy="66.9214" r="27" fill="var(--color-additional-50)" />
  <circle cx="99.7017" cy="66.9214" r="26.25" fill="none" stroke="var(--color-secondary-500)" stroke-width="1.5"
    opacity="0.55" />
  <!-- Badge disc -->
  <circle cx="99.7017" cy="66.9214" r="24" fill="var(--color-primary-500)" />
  <circle cx="99.7017" cy="66.9214" r="24" fill="none" stroke="var(--color-primary-600)" stroke-width="1.5" />
  <!-- Inner ring -->
  <circle cx="99.7017" cy="66.9214" r="19.5" fill="none" stroke="var(--color-primary-600)" stroke-width="1.2"
    opacity="0.45" />
  <!-- Exclamation mark -->
  <path
    d="M99.7017 52.9214C98.1449 52.9214 96.9081 54.2364 97.0021 55.7902L97.7834 68.7089C97.8461 69.7461 98.7057 70.5555 99.7442 70.5555C100.783 70.5555 101.642 69.7461 101.705 68.7089L102.486 55.7902C102.58 54.2364 101.344 52.9214 99.7867 52.9214H99.7017Z"
    fill="var(--color-additional-50)" />
  <circle cx="99.7017" cy="77.4214" r="3.1" fill="var(--color-additional-50)" />
  <defs>
    <filter id="filter0_d_load_error" x="72.1472" y="43.4378" width="55.3704" height="55.0668"
      filterUnits="userSpaceOnUse" color-interpolation-filters="sRGB">
      <feFlood flood-opacity="0" result="BackgroundImageFix" />
      <feColorMatrix in="SourceAlpha" type="matrix" values="0 0 0 0 0 0 0 0 0 0 0 0 0 0 0 0 0 0 127 0"
        result="hardAlpha" />
      <feOffset dy="4" />
      <feGaussianBlur stdDeviation="2" />
      <feComposite in2="hardAlpha" operator="out" />
      <feColorMatrix type="matrix" values="0 0 0 0 0 0 0 0 0 0 0 0 0 0 0 0 0 0 0.25 0" />
      <feBlend mode="normal" in2="BackgroundImageFix" result="effect1_dropShadow_load_error" />
      <feBlend mode="normal" in="SourceGraphic" in2="effect1_dropShadow_load_error" result="shape" />
    </filter>
  </defs>
</svg>
