<svg style="fill:var(--color-additional-50); stroke:var(--color-primary-100);" width="718" height="702" viewBox="0 0 718 702" xmlns="http://www.w3.org/2000/svg">
<path d="M131.169 511.239C131.152 516.995 134.305 522.339 139.41 525.203L386.275 663.688C391.263 666.486 397.358 666.492 402.297 663.702L650.441 523.538C655.379 520.748 658.423 515.581 658.44 509.956L659.286 231.55C659.304 225.794 656.15 220.45 651.046 217.587L404.181 79.1009C399.193 76.303 393.097 76.2979 388.159 79.0874L140.015 219.252C135.076 222.041 132.033 227.208 132.016 232.833L131.169 511.239Z" stroke="none"/>
<path d="M137.302 225.691C134.539 224.116 131.151 224.116 128.389 225.691L46.7107 272.242C43.9015 273.843 42.1671 276.827 42.1671 280.061V372.939C42.1671 376.173 43.9015 379.157 46.7107 380.758L128.389 427.309C131.151 428.884 134.539 428.884 137.302 427.309L218.98 380.758C221.789 379.157 223.524 376.173 223.524 372.939V280.061C223.524 276.827 221.789 273.843 218.98 272.242L137.302 225.691Z" fill="none" stroke-width="2"/>
</svg>
