<svg id="main" width="34" height="34" viewBox="0 0 34 34" fill="none" xmlns="http://www.w3.org/2000/svg">
  <circle cx="17" cy="17" r="17" fill="#D9B888"/>
  <path d="M17 7C15.0605 7.00369 13.1639 7.57131 11.5413 8.63374C9.91862 9.69617 8.63994 11.2075 7.86099 12.9838C7.08204 14.76 6.83643 16.7244 7.15408 18.6378C7.47173 20.5511 8.33893 22.3308 9.65005 23.76C10.5865 24.775 11.723 25.5851 12.988 26.1392C14.253 26.6933 15.619 26.9793 17 26.9793C18.3811 26.9793 19.7471 26.6933 21.0121 26.1392C22.2771 25.5851 23.4136 24.775 24.35 23.76C25.6612 22.3308 26.5284 20.5511 26.846 18.6378C27.1637 16.7244 26.9181 14.76 26.1391 12.9838C25.3602 11.2075 24.0815 9.69617 22.4588 8.63374C20.8362 7.57131 18.9396 7.00369 17 7ZM17 25C14.9285 24.9969 12.939 24.1903 11.45 22.75C11.9021 21.6495 12.6711 20.7083 13.6593 20.0459C14.6475 19.3835 15.8104 19.0298 17 19.0298C18.1897 19.0298 19.3526 19.3835 20.3408 20.0459C21.329 20.7083 22.098 21.6495 22.55 22.75C21.0611 24.1903 19.0716 24.9969 17 25ZM15 15C15 14.6044 15.1173 14.2178 15.3371 13.8889C15.5569 13.56 15.8692 13.3036 16.2347 13.1522C16.6001 13.0009 17.0023 12.9613 17.3902 13.0384C17.7782 13.1156 18.1346 13.3061 18.4143 13.5858C18.694 13.8655 18.8844 14.2219 18.9616 14.6098C19.0388 14.9978 18.9992 15.3999 18.8478 15.7654C18.6964 16.1308 18.4401 16.4432 18.1112 16.6629C17.7823 16.8827 17.3956 17 17 17C16.4696 17 15.9609 16.7893 15.5858 16.4142C15.2108 16.0391 15 15.5304 15 15ZM23.91 21C23.0166 19.4718 21.6415 18.283 20 17.62C20.5092 17.0427 20.841 16.3307 20.9555 15.5694C21.0701 14.8082 20.9625 14.0301 20.6458 13.3285C20.3291 12.6269 19.8166 12.0316 19.17 11.614C18.5233 11.1964 17.7698 10.9742 17 10.9742C16.2303 10.9742 15.4768 11.1964 14.8301 11.614C14.1835 12.0316 13.671 12.6269 13.3543 13.3285C13.0376 14.0301 12.93 14.8082 13.0446 15.5694C13.1591 16.3307 13.4909 17.0427 14 17.62C12.3586 18.283 10.9835 19.4718 10.09 21C9.37799 19.7871 9.00177 18.4065 9.00005 17C9.00005 14.8783 9.8429 12.8434 11.3432 11.3431C12.8435 9.84285 14.8783 9 17 9C19.1218 9 21.1566 9.84285 22.6569 11.3431C24.1572 12.8434 25 14.8783 25 17C24.9983 18.4065 24.6221 19.7871 23.91 21Z" fill="white"/>
</svg>
