<svg id="main" width="34" height="34" viewBox="0 0 34 34" fill="none" xmlns="http://www.w3.org/2000/svg">
  <circle cx="17" cy="17" r="17" fill="#DB3D07"/>
  <path d="M18.8334 13.3334H19.75C19.9932 13.3334 20.2263 13.2368 20.3982 13.0649C20.5701 12.893 20.6667 12.6598 20.6667 12.4167C20.6667 12.1736 20.5701 11.9404 20.3982 11.7685C20.2263 11.5966 19.9932 11.5 19.75 11.5H18.8334C18.5903 11.5 18.3571 11.5966 18.1852 11.7685C18.0133 11.9404 17.9167 12.1736 17.9167 12.4167C17.9167 12.6598 18.0133 12.893 18.1852 13.0649C18.3571 13.2368 18.5903 13.3334 18.8334 13.3334ZM18.8334 17H19.75C19.9932 17 20.2263 16.9035 20.3982 16.7316C20.5701 16.5596 20.6667 16.3265 20.6667 16.0834C20.6667 15.8403 20.5701 15.6071 20.3982 15.4352C20.2263 15.2633 19.9932 15.1667 19.75 15.1667H18.8334C18.5903 15.1667 18.3571 15.2633 18.1852 15.4352C18.0133 15.6071 17.9167 15.8403 17.9167 16.0834C17.9167 16.3265 18.0133 16.5596 18.1852 16.7316C18.3571 16.9035 18.5903 17 18.8334 17ZM14.25 13.3334H15.1667C15.4098 13.3334 15.643 13.2368 15.8149 13.0649C15.9868 12.893 16.0834 12.6598 16.0834 12.4167C16.0834 12.1736 15.9868 11.9404 15.8149 11.7685C15.643 11.5966 15.4098 11.5 15.1667 11.5H14.25C14.0069 11.5 13.7738 11.5966 13.6019 11.7685C13.43 11.9404 13.3334 12.1736 13.3334 12.4167C13.3334 12.6598 13.43 12.893 13.6019 13.0649C13.7738 13.2368 14.0069 13.3334 14.25 13.3334ZM14.25 17H15.1667C15.4098 17 15.643 16.9035 15.8149 16.7316C15.9868 16.5596 16.0834 16.3265 16.0834 16.0834C16.0834 15.8403 15.9868 15.6071 15.8149 15.4352C15.643 15.2633 15.4098 15.1667 15.1667 15.1667H14.25C14.0069 15.1667 13.7738 15.2633 13.6019 15.4352C13.43 15.6071 13.3334 15.8403 13.3334 16.0834C13.3334 16.3265 13.43 16.5596 13.6019 16.7316C13.7738 16.9035 14.0069 17 14.25 17ZM25.25 24.3334H24.3334V8.75004C24.3334 8.50693 24.2368 8.27377 24.0649 8.10186C23.893 7.92995 23.6598 7.83337 23.4167 7.83337H10.5834C10.3403 7.83337 10.1071 7.92995 9.93519 8.10186C9.76328 8.27377 9.66671 8.50693 9.66671 8.75004V24.3334H8.75004C8.50693 24.3334 8.27377 24.4299 8.10186 24.6019C7.92995 24.7738 7.83337 25.0069 7.83337 25.25C7.83337 25.4932 7.92995 25.7263 8.10186 25.8982C8.27377 26.0701 8.50693 26.1667 8.75004 26.1667H25.25C25.4932 26.1667 25.7263 26.0701 25.8982 25.8982C26.0701 25.7263 26.1667 25.4932 26.1667 25.25C26.1667 25.0069 26.0701 24.7738 25.8982 24.6019C25.7263 24.4299 25.4932 24.3334 25.25 24.3334ZM17.9167 24.3334H16.0834V20.6667H17.9167V24.3334ZM22.5 24.3334H19.75V19.75C19.75 19.5069 19.6535 19.2738 19.4816 19.1019C19.3096 18.93 19.0765 18.8334 18.8334 18.8334H15.1667C14.9236 18.8334 14.6904 18.93 14.5185 19.1019C14.3466 19.2738 14.25 19.5069 14.25 19.75V24.3334H11.5V9.66671H22.5V24.3334Z" fill="white"/>
</svg>
