<svg width="93" height="105" viewBox="0 0 93 105" fill="none" xmlns="http://www.w3.org/2000/svg">
<g clip-path="url(#clip0_6815_27551)">
<path d="M29.9769 18.4335H12.8472V35.449H29.9769V18.4335Z" fill="#F86464"/>
<path d="M75.2993 90.5368C70.3031 90.4659 67.6623 88.1263 60.6677 87.5591C57.2417 87.2755 54.4582 87.5591 52.6738 87.7718C52.7452 89.686 52.7452 91.5294 52.8166 93.4436C53.7444 94.4362 54.7437 95.4288 55.6715 96.4213C64.6646 96.4922 73.5863 96.4922 82.5794 96.5631C84.1497 95.925 85.6485 95.287 87.2187 94.6489C87.2187 91.9548 87.2187 89.2606 87.2187 86.6374C82.0798 89.9696 78.0115 90.5368 75.2993 90.5368Z" fill="#61C4F2"/>
<path d="M38.8274 82.5253C38.6847 82.1708 38.4705 81.8163 38.1137 81.6036C37.3999 81.1783 36.4721 81.4619 36.0438 82.1708C35.8297 82.5253 35.8297 82.9507 35.9011 83.3052C36.0438 83.6597 36.258 84.0142 36.6148 84.2269C36.8289 84.3687 37.1144 84.4396 37.3286 84.4396C37.8995 84.4396 38.3992 84.156 38.6133 83.6597C38.8988 83.3052 38.9702 82.9507 38.8274 82.5253Z" fill="#263357"/>
<path d="M37.3997 80.4693C38.1849 80.4693 38.8272 79.8312 38.8272 79.0513C38.8272 70.3309 31.6898 63.2411 22.9109 63.2411C22.1258 63.2411 21.4834 63.8791 21.4834 64.659C21.4834 65.4389 22.1258 66.077 22.9109 66.077C30.1196 66.077 35.9723 71.8906 35.9723 79.0513C35.9723 79.8312 36.6146 80.4693 37.3997 80.4693Z" fill="#263357"/>
<path d="M12.8474 43.9568H45.6793C46.4644 43.9568 47.1068 43.3187 47.1068 42.5388C47.1068 41.7589 46.4644 41.1208 45.6793 41.1208H12.8474C12.0623 41.1208 11.4199 41.7589 11.4199 42.5388C11.4199 43.3187 12.0623 43.9568 12.8474 43.9568Z" fill="#263357"/>
<path d="M12.8474 51.0466H58.5266C59.3117 51.0466 59.9541 50.4085 59.9541 49.6286C59.9541 48.8487 59.3117 48.2107 58.5266 48.2107H12.8474C12.0623 48.2107 11.4199 48.8487 11.4199 49.6286C11.4199 50.4085 12.0623 51.0466 12.8474 51.0466Z" fill="#263357"/>
<path d="M59.9541 56.7184C59.9541 55.9386 59.3117 55.3005 58.5266 55.3005H12.8474C12.0623 55.3005 11.4199 55.9386 11.4199 56.7184C11.4199 57.4983 12.0623 58.1364 12.8474 58.1364H58.5266C59.3117 58.1364 59.9541 57.4983 59.9541 56.7184Z" fill="#263357"/>
<path d="M12.8474 2.83592H48.4629C50.961 2.83592 53.2449 3.7576 55.0293 5.53005L63.8083 14.2505C64.0938 14.5341 64.4506 14.6759 64.8075 14.6759C65.1644 14.6759 65.5212 14.5341 65.8067 14.2505C66.3777 13.6833 66.3777 12.8325 65.8067 12.2654L57.0278 3.5449C54.7438 1.27616 51.6747 0 48.4629 0H12.8474C12.0623 0 11.4199 0.638082 11.4199 1.41796C11.4199 2.19784 12.0623 2.83592 12.8474 2.83592Z" fill="#263357"/>
<path d="M67.8764 17.9372C68.6648 17.9372 69.3039 17.3024 69.3039 16.5192C69.3039 15.7361 68.6648 15.1013 67.8764 15.1013C67.0881 15.1013 66.449 15.7361 66.449 16.5192C66.449 17.3024 67.0881 17.9372 67.8764 17.9372Z" fill="#263357"/>
<path d="M81.3661 80.7529V76.6408C81.3661 75.8609 80.7237 75.2228 79.9386 75.2228H71.3738V29.8481C71.3738 28.501 70.8741 27.2958 69.9463 26.3741L52.0315 8.50777C51.1036 7.5861 49.8189 7.08981 48.5342 7.08981H5.49578C2.42671 7.08981 0 9.50035 0 12.549V89.6151C0 92.5928 2.42671 95.0743 5.49578 95.0743H14.2748V103.653C14.2748 104.149 14.5602 104.646 15.0599 104.929C15.4881 105.213 16.0591 105.142 16.4873 104.858L22.7682 100.746L29.0491 104.858C29.2632 105 29.5487 105.071 29.8342 105.071C30.0484 105.071 30.3338 105 30.4766 104.929C30.9762 104.716 31.2617 104.22 31.2617 103.653V95.0034H51.6746C52.317 96.7049 53.9586 97.9102 55.8857 97.9102H84.0783C86.505 97.9102 88.5748 95.9251 88.5748 93.4436V88.5517C88.5035 84.5105 85.363 81.1074 81.3661 80.7529ZM78.5111 78.0587V80.7529H71.3738H68.5188H61.3814V78.0587H68.5188H71.3738H78.5111ZM66.5203 26.9413H57.099C54.2441 26.9413 51.3891 24.2471 51.3891 21.6239V11.9109L63.6654 24.1053L66.5203 26.9413ZM28.4068 100.959L23.5533 97.7684C23.3392 97.6266 23.0537 97.5557 22.7682 97.5557C22.4827 97.5557 22.1972 97.6266 21.9831 97.7684L17.1297 100.959V95.0034V92.1675V89.3315C18.7713 90.2532 20.627 90.7495 22.6255 90.7495C24.6953 90.7495 26.6938 90.1823 28.3354 89.1897V92.1675V95.0034V100.959H28.4068ZM28.835 85.2195C27.3362 86.921 25.1236 87.9136 22.6255 87.9136C20.1988 87.9136 17.9862 86.8501 16.416 85.2195C14.9885 83.7306 14.132 81.7454 14.132 79.5476C14.132 74.9392 17.9148 71.1816 22.5541 71.1816C27.1934 71.1816 30.9762 74.9392 30.9762 79.5476C31.119 81.6745 30.2625 83.7306 28.835 85.2195ZM31.2617 86.7792C32.9747 84.7941 33.9739 82.2417 33.9739 79.4767C33.9739 73.3086 28.9064 68.2748 22.6969 68.2748C16.4873 68.2748 11.4198 73.3086 11.4198 79.4767C11.4198 82.3835 12.5618 85.0777 14.3461 87.0628V92.1675H5.49578C4.0683 92.1675 2.85495 91.0331 2.85495 89.5442V12.549C2.85495 11.131 3.99693 9.92573 5.49578 9.92573H48.5342H48.6055C48.6055 10.0675 48.5342 10.1384 48.5342 10.2802V21.553C48.5342 25.8069 52.6738 29.7772 57.099 29.7772H68.4474C68.4474 29.7772 68.4474 29.7772 68.5188 29.7772C68.5188 29.7772 68.5188 29.7772 68.5188 29.8481V75.2228H59.954C59.1688 75.2228 58.5265 75.8609 58.5265 76.6408V80.7529C54.5296 81.1074 51.3891 84.4396 51.3891 88.5517V92.1675H31.2617V86.7792ZM85.6485 93.4436C85.6485 94.3653 84.9348 95.0743 84.0069 95.0743H55.8857C55.7429 95.0743 55.6002 95.0743 55.4574 95.0034C54.7437 94.8616 54.2441 94.2235 54.2441 93.4436V92.1675V88.5517C54.2441 85.7866 56.4566 83.5888 59.2402 83.5888H68.5188H71.3738H80.581H80.6524C83.4359 83.5888 85.6485 85.7866 85.6485 88.5517V93.4436Z" fill="#263357"/>
<path d="M84.8635 50.9048C84.6494 50.2667 85.0062 49.6286 85.5772 49.4159L92.4291 47.1472C93.9993 38.5685 92.215 31.6205 91.644 29.6354C88.9318 30.6988 77.3692 35.5908 70.9456 48.5652C64.4506 61.5395 67.5197 73.5922 68.3048 76.4281C71.017 75.3646 82.5795 70.4727 89.0032 57.4983C90.2879 54.8751 91.2157 52.3228 91.8581 49.8413L86.3623 51.6847C85.72 51.8974 85.0776 51.5429 84.8635 50.9048Z" fill="#61C4F2"/>
<path d="M63.5226 93.9399C63.3799 93.9399 63.2371 93.9399 63.1657 93.869C62.3806 93.6563 61.9524 92.8764 62.1665 92.0965C64.0936 85.2194 66.3776 78.4132 69.0184 71.7488C71.6592 65.1553 74.6569 58.5618 78.0115 52.3227C78.3684 51.6138 79.2248 51.3302 79.9386 51.7556C80.6523 52.1101 80.9378 52.9608 80.5096 53.6698C77.2264 59.9088 74.2287 66.3606 71.6592 72.8832C69.0898 79.4058 66.8058 86.1411 64.9501 92.9473C64.736 93.5145 64.165 93.9399 63.5226 93.9399Z" fill="#263357"/>
</g>
<defs>
<clipPath id="clip0_6815_27551">
<rect width="93" height="105" fill="white"/>
</clipPath>
</defs>
</svg>
