<svg id="main" viewBox="0 0 36 36" fill="currentColor" xmlns="http://www.w3.org/2000/svg">
<path d="M19.7999 30.6C19.8001 30.9067 19.8786 31.2083 20.028 31.4761C20.1775 31.7439 20.3929 31.9691 20.6538 32.1303C20.9147 32.2915 21.2125 32.3834 21.5189 32.3972C21.8253 32.411 22.1301 32.3463 22.4045 32.2092L29.6045 28.6092C29.9035 28.4598 30.1549 28.2301 30.3307 27.9459C30.5065 27.6617 30.5997 27.3342 30.5999 27V16.6248C30.5997 16.3181 30.5212 16.0165 30.3718 15.7487C30.2223 15.4808 30.0069 15.2556 29.746 15.0944C29.4851 14.9332 29.1873 14.8414 28.8809 14.8276C28.5745 14.8138 28.2697 14.8785 27.9953 15.0156L20.7953 18.6156C20.4964 18.765 20.2449 18.9946 20.0691 19.2788C19.8933 19.5631 19.8001 19.8906 19.7999 20.2248V30.6ZM27.3797 11.2968C27.6783 11.1471 27.9294 10.9174 28.1048 10.6332C28.2803 10.349 28.3732 10.0216 28.3732 9.68759C28.3732 9.3536 28.2803 9.0262 28.1048 8.742C27.9294 8.45781 27.6783 8.22804 27.3797 8.07839L18.8045 3.79079C18.5547 3.66595 18.2792 3.60095 17.9999 3.60095C17.7206 3.60095 17.4451 3.66595 17.1953 3.79079L8.6201 8.07839C8.32152 8.22804 8.07045 8.45781 7.895 8.742C7.71955 9.0262 7.62662 9.3536 7.62662 9.68759C7.62662 10.0216 7.71955 10.349 7.895 10.6332C8.07045 10.9174 8.32152 11.1471 8.6201 11.2968L17.1953 15.5844C17.4451 15.7092 17.7206 15.7742 17.9999 15.7742C18.2792 15.7742 18.5547 15.7092 18.8045 15.5844L27.3797 11.2968ZM8.0045 15.0156C7.73015 14.8785 7.42531 14.8138 7.11891 14.8276C6.81252 14.8414 6.51473 14.9332 6.25381 15.0944C5.99289 15.2556 5.77749 15.4808 5.62804 15.7487C5.4786 16.0165 5.40007 16.3181 5.3999 16.6248V27C5.40008 27.3342 5.49329 27.6617 5.6691 27.9459C5.8449 28.2301 6.09636 28.4598 6.3953 28.6092L13.5953 32.2092C13.8697 32.3463 14.1745 32.411 14.4809 32.3972C14.7873 32.3834 15.0851 32.2915 15.346 32.1303C15.6069 31.9691 15.8223 31.7439 15.9718 31.4761C16.1212 31.2083 16.1997 30.9067 16.1999 30.6V20.2248C16.1997 19.8906 16.1065 19.5631 15.9307 19.2788C15.7549 18.9946 15.5034 18.765 15.2045 18.6156L8.0045 15.0156Z" />
</svg>
