<svg id="main" viewBox="0 0 16 16" fill="currentColor" xmlns="http://www.w3.org/2000/svg">
<path d="M10.8192 4.80638L15.1729 5.43568C15.5334 5.48614 15.8364 5.73549 15.9515 6.07685C16.0667 6.42118 15.9727 6.7952 15.7122 7.05048L12.5552 10.0842L13.3005 14.4358C13.3611 14.792 13.2127 15.1542 12.9097 15.3649C12.6098 15.5757 12.2129 15.6024 11.8887 15.4332L7.99856 13.3998L4.11146 15.4332C3.78425 15.6024 3.38736 15.5757 3.08742 15.3649C2.78748 15.1542 2.63599 14.792 2.69962 14.4358L3.44492 10.0842L0.287369 7.05048C0.0265114 6.7952 -0.0661975 6.42118 0.0483252 6.07685C0.162545 5.73549 0.464606 5.48614 0.827867 5.43568L5.17791 4.80638L7.12904 0.878328C7.28961 0.551332 7.62894 0.34375 7.99856 0.34375C8.37121 0.34375 8.71054 0.551332 8.87111 0.878328L10.8192 4.80638Z"/>
</svg>
