<svg viewBox="0 0 20 20" fill="currentColor" id="main" xmlns="http://www.w3.org/2000/svg">
    <path d="M 12 1 C 11.446 1 11 1.446 11 2 L 11 8 C 11 8.554 11.446 9 12 9 L 18 9 C 18.554 9 19 8.554 19 8 L 19 2 C 19 1.446 18.554 1 18 1 L 12 1 z M 13.001953 2.984375 L 16.990234 2.984375 L 16.990234 6.9902344 L 13.001953 6.9902344 L 13.001953 2.984375 z " />
    <path d="M 2,1 C 1.446,1 1,1.446 1,2 V 8 C 1,8.554 1.446,9 2,9 H 8 C 8.554,9 9,8.554 9,8 V 2 C 9,1.446 8.554,1 8,1 Z M 3.001953,2.984375 H 6.990234 V 6.9902344 H 3.001953 Z" />
    <path d="m 1.9990629,10.999875 c -0.554,0 -1,0.446 -1,1 v 6 c 0,0.554 0.446,1 1,1 h 6 c 0.554,0 1,-0.446 1,-1 v -6 c 0,-0.554 -0.446,-1 -1,-1 z m 1.001953,1.984375 h 3.988281 v 4.00586 h -3.988281 z" />
    <path d="m 11.999063,10.999875 c -0.554,0 -1,0.446 -1,1 v 6 c 0,0.554 0.446,1 1,1 h 6 c 0.554,0 1,-0.446 1,-1 v -6 c 0,-0.554 -0.446,-1 -1,-1 z m 1.001953,1.984375 h 3.988281 v 4.00586 h -3.988281 z" />
</svg>