<svg width="56" height="73" viewBox="0 0 56 73" fill="none" xmlns="http://www.w3.org/2000/svg">
<path fill-rule="evenodd" clip-rule="evenodd" d="M13.5 3.13435C13.5 1.4033 14.8879 0 16.6 0H39.6C41.3121 0 42.7 1.4033 42.7 3.13435V7.17867C42.7 8.90972 41.3121 10.313 39.6 10.313H16.6C14.8879 10.313 13.5 8.90972 13.5 7.17867V3.13435ZM16.6 2.22438C16.1029 2.22438 15.7 2.63179 15.7 3.13435V7.17867C15.7 7.68123 16.1029 8.08864 16.6 8.08864H39.6C40.0971 8.08864 40.5 7.68123 40.5 7.17867V3.13435C40.5 2.63179 40.0971 2.22438 39.6 2.22438H16.6Z" fill="#F0AD4E"/>
<path fill-rule="evenodd" clip-rule="evenodd" d="M10.1001 21.3008C10.9285 21.3008 11.6001 20.6292 11.6001 19.8008C11.6001 18.9724 10.9285 18.3008 10.1001 18.3008C9.27167 18.3008 8.6001 18.9724 8.6001 19.8008C8.6001 20.6292 9.27167 21.3008 10.1001 21.3008ZM16.7501 18.6509C16.115 18.6509 15.6001 19.1658 15.6001 19.8009C15.6001 20.436 16.115 20.9509 16.7501 20.9509H45.4501C46.0852 20.9509 46.6001 20.436 46.6001 19.8009C46.6001 19.1658 46.0852 18.6509 45.4501 18.6509H16.7501Z" fill="#F0AD4E"/>
<path fill-rule="evenodd" clip-rule="evenodd" d="M10.1001 29.3008C10.9285 29.3008 11.6001 28.6292 11.6001 27.8008C11.6001 26.9724 10.9285 26.3008 10.1001 26.3008C9.27167 26.3008 8.6001 26.9724 8.6001 27.8008C8.6001 28.6292 9.27167 29.3008 10.1001 29.3008ZM16.7501 26.6509C16.115 26.6509 15.6001 27.1658 15.6001 27.8009C15.6001 28.436 16.115 28.9509 16.7501 28.9509H45.4501C46.0852 28.9509 46.6001 28.436 46.6001 27.8009C46.6001 27.1658 46.0852 26.6509 45.4501 26.6509H16.7501Z" fill="#F0AD4E"/>
<path fill-rule="evenodd" clip-rule="evenodd" d="M10.1001 37.3008C10.9285 37.3008 11.6001 36.6292 11.6001 35.8008C11.6001 34.9724 10.9285 34.3008 10.1001 34.3008C9.27167 34.3008 8.6001 34.9724 8.6001 35.8008C8.6001 36.6292 9.27167 37.3008 10.1001 37.3008ZM16.7501 34.6509C16.115 34.6509 15.6001 35.1658 15.6001 35.8009C15.6001 36.436 16.115 36.9509 16.7501 36.9509H45.4501C46.0852 36.9509 46.6001 36.436 46.6001 35.8009C46.6001 35.1658 46.0852 34.6509 45.4501 34.6509H16.7501Z" fill="#F0AD4E"/>
<path fill-rule="evenodd" clip-rule="evenodd" d="M10.1001 45.3008C10.9285 45.3008 11.6001 44.6292 11.6001 43.8008C11.6001 42.9724 10.9285 42.3008 10.1001 42.3008C9.27167 42.3008 8.6001 42.9724 8.6001 43.8008C8.6001 44.6292 9.27167 45.3008 10.1001 45.3008ZM16.7501 42.6509C16.115 42.6509 15.6001 43.1658 15.6001 43.8009C15.6001 44.436 16.115 44.9509 16.7501 44.9509H45.4501C46.0852 44.9509 46.6001 44.436 46.6001 43.8009C46.6001 43.1658 46.0852 42.6509 45.4501 42.6509H16.7501Z" fill="#F0AD4E"/>
<path fill-rule="evenodd" clip-rule="evenodd" d="M10.1001 53.3008C10.9285 53.3008 11.6001 52.6292 11.6001 51.8008C11.6001 50.9724 10.9285 50.3008 10.1001 50.3008C9.27167 50.3008 8.6001 50.9724 8.6001 51.8008C8.6001 52.6292 9.27167 53.3008 10.1001 53.3008ZM16.7501 50.6509C16.115 50.6509 15.6001 51.1658 15.6001 51.8009C15.6001 52.436 16.115 52.9509 16.7501 52.9509H45.4501C46.0852 52.9509 46.6001 52.436 46.6001 51.8009C46.6001 51.1658 46.0852 50.6509 45.4501 50.6509H16.7501Z" fill="#F0AD4E"/>
<path fill-rule="evenodd" clip-rule="evenodd" d="M10.1001 61.3008C10.9285 61.3008 11.6001 60.6292 11.6001 59.8008C11.6001 58.9724 10.9285 58.3008 10.1001 58.3008C9.27167 58.3008 8.6001 58.9724 8.6001 59.8008C8.6001 60.6292 9.27167 61.3008 10.1001 61.3008ZM16.7501 58.6509C16.115 58.6509 15.6001 59.1658 15.6001 59.8009C15.6001 60.436 16.115 60.9509 16.7501 60.9509H45.4501C46.0852 60.9509 46.6001 60.436 46.6001 59.8009C46.6001 59.1658 46.0852 58.6509 45.4501 58.6509H16.7501Z" fill="#F0AD4E"/>
<path fill-rule="evenodd" clip-rule="evenodd" d="M11.6001 4.04443H3.6C1.88792 4.04443 0.5 5.44773 0.5 7.17878V69.8658C0.5 71.5968 1.88791 73.0001 3.6 73.0001H52.6C54.3121 73.0001 55.7 71.5968 55.7 69.8658V7.17878C55.7 5.44773 54.3121 4.04443 52.6 4.04443H44.6001V6.26881H52.6C53.0971 6.26881 53.5 6.67622 53.5 7.17878V69.8658C53.5 70.3683 53.0971 70.7757 52.6 70.7757H3.6C3.10294 70.7757 2.7 70.3683 2.7 69.8658V7.17878C2.7 6.67622 3.10294 6.26881 3.6 6.26881H11.6001V4.04443Z" fill="#F0AD4E"/>
</svg>
