<svg width="61" height="78" viewBox="0 0 61 78" fill="none" xmlns="http://www.w3.org/2000/svg">
<path fill-rule="evenodd" clip-rule="evenodd" d="M13.5 3.13435C13.5 1.4033 14.8879 0 16.6 0H39.6C41.3121 0 42.7 1.4033 42.7 3.13435V7.17867C42.7 8.90972 41.3121 10.313 39.6 10.313H16.6C14.8879 10.313 13.5 8.90972 13.5 7.17867V3.13435ZM16.6 2.22438C16.1029 2.22438 15.7 2.63179 15.7 3.13435V7.17867C15.7 7.68123 16.1029 8.08864 16.6 8.08864H39.6C40.0971 8.08864 40.5 7.68123 40.5 7.17867V3.13435C40.5 2.63179 40.0971 2.22438 39.6 2.22438H16.6Z" fill="#F0AD4E"/>
<path fill-rule="evenodd" clip-rule="evenodd" d="M10.1001 21.3007C10.9285 21.3007 11.6001 20.6291 11.6001 19.8007C11.6001 18.9722 10.9285 18.3007 10.1001 18.3007C9.27167 18.3007 8.6001 18.9722 8.6001 19.8007C8.6001 20.6291 9.27167 21.3007 10.1001 21.3007ZM16.7501 18.6508C16.115 18.6508 15.6001 19.1656 15.6001 19.8008C15.6001 20.4359 16.115 20.9508 16.7501 20.9508H45.4501C46.0852 20.9508 46.6001 20.4359 46.6001 19.8008C46.6001 19.1656 46.0852 18.6508 45.4501 18.6508H16.7501Z" fill="#F0AD4E"/>
<path fill-rule="evenodd" clip-rule="evenodd" d="M10.1001 29.3007C10.9285 29.3007 11.6001 28.6291 11.6001 27.8007C11.6001 26.9722 10.9285 26.3007 10.1001 26.3007C9.27167 26.3007 8.6001 26.9722 8.6001 27.8007C8.6001 28.6291 9.27167 29.3007 10.1001 29.3007ZM16.7501 26.6508C16.115 26.6508 15.6001 27.1656 15.6001 27.8008C15.6001 28.4359 16.115 28.9508 16.7501 28.9508H45.4501C46.0852 28.9508 46.6001 28.4359 46.6001 27.8008C46.6001 27.1656 46.0852 26.6508 45.4501 26.6508H16.7501Z" fill="#F0AD4E"/>
<path fill-rule="evenodd" clip-rule="evenodd" d="M10.1001 37.3007C10.9285 37.3007 11.6001 36.6291 11.6001 35.8007C11.6001 34.9722 10.9285 34.3007 10.1001 34.3007C9.27167 34.3007 8.6001 34.9722 8.6001 35.8007C8.6001 36.6291 9.27167 37.3007 10.1001 37.3007ZM16.7501 34.6508C16.115 34.6508 15.6001 35.1656 15.6001 35.8008C15.6001 36.4359 16.115 36.9508 16.7501 36.9508H45.4501C46.0852 36.9508 46.6001 36.4359 46.6001 35.8008C46.6001 35.1656 46.0852 34.6508 45.4501 34.6508H16.7501Z" fill="#F0AD4E"/>
<path fill-rule="evenodd" clip-rule="evenodd" d="M10.1001 45.3007C10.9285 45.3007 11.6001 44.6291 11.6001 43.8007C11.6001 42.9722 10.9285 42.3007 10.1001 42.3007C9.27167 42.3007 8.6001 42.9722 8.6001 43.8007C8.6001 44.6291 9.27167 45.3007 10.1001 45.3007ZM16.7501 42.6508C16.115 42.6508 15.6001 43.1656 15.6001 43.8008C15.6001 44.4359 16.115 44.9508 16.7501 44.9508H45.4501C46.0852 44.9508 46.6001 44.4359 46.6001 43.8008C46.6001 43.1656 46.0852 42.6508 45.4501 42.6508H16.7501Z" fill="#F0AD4E"/>
<path fill-rule="evenodd" clip-rule="evenodd" d="M10.1001 53.3007C10.9285 53.3007 11.6001 52.6291 11.6001 51.8007C11.6001 50.9722 10.9285 50.3007 10.1001 50.3007C9.27167 50.3007 8.6001 50.9722 8.6001 51.8007C8.6001 52.6291 9.27167 53.3007 10.1001 53.3007ZM16.7501 50.6508C16.115 50.6508 15.6001 51.1656 15.6001 51.8008C15.6001 52.4359 16.115 52.9508 16.7501 52.9508H45.4501C46.0852 52.9508 46.6001 52.4359 46.6001 51.8008C46.6001 51.1656 46.0852 50.6508 45.4501 50.6508H16.7501Z" fill="#F0AD4E"/>
<path fill-rule="evenodd" clip-rule="evenodd" d="M10.1001 61.3007C10.9285 61.3007 11.6001 60.6291 11.6001 59.8007C11.6001 58.9722 10.9285 58.3007 10.1001 58.3007C9.27167 58.3007 8.6001 58.9722 8.6001 59.8007C8.6001 60.6291 9.27167 61.3007 10.1001 61.3007ZM16.7501 58.6508C16.115 58.6508 15.6001 59.1656 15.6001 59.8008C15.6001 60.4359 16.115 60.9508 16.7501 60.9508H45.4501C46.0852 60.9508 46.6001 60.4359 46.6001 59.8008C46.6001 59.1656 46.0852 58.6508 45.4501 58.6508H16.7501Z" fill="#F0AD4E"/>
<path fill-rule="evenodd" clip-rule="evenodd" d="M11.6001 4.04419H3.6C1.88792 4.04419 0.5 5.44748 0.5 7.17854V69.8655C0.5 71.5966 1.88791 72.9999 3.6 72.9999H52.6C54.3121 72.9999 55.7 71.5966 55.7 69.8655V7.17854C55.7 5.44749 54.3121 4.04419 52.6 4.04419H44.6001V6.26857H52.6C53.0971 6.26857 53.5 6.67597 53.5 7.17854V69.8655C53.5 70.3681 53.0971 70.7755 52.6 70.7755H3.6C3.10294 70.7755 2.7 70.3681 2.7 69.8655V7.17854C2.7 6.67597 3.10294 6.26857 3.6 6.26857H11.6001V4.04419Z" fill="#F0AD4E"/>
<path fill-rule="evenodd" clip-rule="evenodd" d="M5.5 71V74.8213C5.5 76.5524 6.88791 77.9557 8.6 77.9557H57.6C59.3121 77.9557 60.7 76.5524 60.7 74.8213V12.1343C60.7 10.4033 59.3121 9 57.6 9H53.5V11.2244H57.6C58.0971 11.2244 58.5 11.6318 58.5 12.1343V74.8213C58.5 75.3239 58.0971 75.7313 57.6 75.7313H8.6C8.10294 75.7313 7.7 75.3239 7.7 74.8213V71H5.5Z" fill="#F0AD4E"/>
</svg>
