<svg width="160" height="38" viewBox="0 0 160 38" fill="none" xmlns="http://www.w3.org/2000/svg">
<path fill-rule="evenodd" clip-rule="evenodd" d="M17.0077 0L8.50391 19H17.0077L25.5118 0H17.0077Z" fill="#CCCCCC"/>
<path fill-rule="evenodd" clip-rule="evenodd" d="M0 0L8.50394 19H17.0079L8.50394 0H0Z" fill="#FF4A4A"/>
<path fill-rule="evenodd" clip-rule="evenodd" d="M37.7953 22.8C37.7953 24.3742 36.526 25.65 34.9606 25.65C33.395 25.65 32.126 24.3742 32.126 22.8C32.126 21.2259 33.395 19.95 34.9606 19.95C36.526 19.95 37.7953 21.2259 37.7953 22.8Z" fill="#FF4A4A"/>
<path fill-rule="evenodd" clip-rule="evenodd" d="M28.5637 24.7H19.8425C20.8826 32.1638 27.264 37.9267 34.9606 37.9267V29.3472C31.9852 29.3472 29.4582 27.3961 28.5637 24.7Z" fill="#FFC10D"/>
<path fill-rule="evenodd" clip-rule="evenodd" d="M28.5637 20.9C29.4582 18.189 31.9852 16.227 34.9606 16.227V7.60001C27.264 7.60001 20.8826 13.3949 19.8425 20.9H28.5637Z" fill="#FFC10D"/>
<path fill-rule="evenodd" clip-rule="evenodd" d="M56.2998 14.288L61.0771 2.73599H62.206L56.5215 16.3147H56.0982L50.3937 2.73599H51.5225L56.2998 14.288ZM64.9675 2.73599H66.0157V16.112H64.9675V2.73599ZM75.4494 10.032L79.9445 16.112H78.7149L74.24 10.1131H70.9946V16.112H69.9464V2.73599H74.4617C75.6913 2.73599 76.679 3.08053 77.4047 3.76959C78.1304 4.45866 78.4932 5.33013 78.4932 6.40426C78.4932 8.26879 77.3644 9.68746 75.4494 10.032ZM74.4214 3.68853H70.9946V9.16053H74.4214C76.3364 9.16053 77.4047 8.04586 77.4047 6.42453C77.4047 4.80319 76.3364 3.68853 74.4214 3.68853ZM80.3275 2.73599H91.1118V3.68853H86.2337V16.112H85.1855V3.68853H80.3275V2.73599ZM98.9127 2.53333C100.808 2.53333 102.42 3.20213 103.751 4.51946C105.081 5.83679 105.746 7.47839 105.746 9.42399C105.746 11.3493 105.081 12.9909 103.751 14.3285C102.42 15.6459 100.808 16.3147 98.9127 16.3147C96.9978 16.3147 95.3852 15.6459 94.0749 14.3285C92.7647 12.9909 92.0995 11.3493 92.0995 9.42399C92.0995 7.47839 92.7647 5.83679 94.0749 4.51946C95.3852 3.20213 96.9978 2.53333 98.9127 2.53333ZM98.9329 3.50613C97.3001 3.50613 95.9294 4.07359 94.8409 5.20853C93.7524 6.32319 93.2082 7.72159 93.2082 9.40373C93.2082 11.0859 93.7524 12.4843 94.8409 13.6192C95.9294 14.7541 97.3001 15.3216 98.9329 15.3216C100.566 15.3216 101.916 14.7541 103.005 13.6192C104.093 12.4843 104.637 11.0859 104.637 9.40373C104.637 7.74186 104.093 6.34346 102.985 5.20853C101.896 4.07359 100.545 3.50613 98.9329 3.50613ZM57.4891 22.8C59.7266 22.8 61.6819 23.8336 62.8712 25.5157L62.085 26.144C60.9764 24.5632 59.4444 23.7728 57.5093 23.7728C55.8765 23.7728 54.526 24.3403 53.4173 25.4752C52.3288 26.5899 51.7845 27.9883 51.7845 29.6704C51.7845 31.3525 52.3288 32.7712 53.4173 33.9061C54.5058 35.0208 55.8765 35.5883 57.5093 35.5883C59.4645 35.5883 60.9764 34.7979 62.085 33.2373L62.8712 33.8656C61.6819 35.5477 59.7266 36.5813 57.4891 36.5813C55.5741 36.5813 53.9616 35.9125 52.6513 34.5952C51.3411 33.2779 50.6759 31.6363 50.6759 29.6907C50.6759 27.7451 51.3411 26.1035 52.6513 24.7861C53.9616 23.4688 55.5741 22.8 57.4891 22.8ZM71.7404 22.8C73.6353 22.8 75.2479 23.4688 76.5782 24.7861C77.9086 26.1035 78.5738 27.7451 78.5738 29.6907C78.5738 31.616 77.9086 33.2576 76.5782 34.5952C75.2479 35.9125 73.6353 36.5813 71.7404 36.5813C69.8255 36.5813 68.2129 35.9125 66.9027 34.5952C65.5924 33.2576 64.9272 31.616 64.9272 29.6907C64.9272 27.7451 65.5924 26.1035 66.9027 24.7861C68.2129 23.4688 69.8255 22.8 71.7404 22.8ZM71.7606 23.7728C70.1278 23.7728 68.7571 24.3403 67.6686 25.4752C66.5801 26.5899 66.0359 27.9883 66.0359 29.6704C66.0359 31.3525 66.5801 32.7509 67.6686 33.8859C68.7571 35.0208 70.1278 35.5883 71.7606 35.5883C73.3934 35.5883 74.7439 35.0208 75.8324 33.8859C76.9209 32.7509 77.4652 31.3525 77.4652 29.6704C77.4652 28.0085 76.9209 26.6101 75.8123 25.4752C74.7238 24.3403 73.3732 23.7728 71.7606 23.7728ZM87.5439 30.7648L93.0872 22.8H93.4904V36.3787H92.4422V25.4955L87.7656 32.2037H87.3625L82.6658 25.4955V36.3787H81.6176V22.8H82.0208L87.5439 30.7648ZM103.368 30.7648L108.911 22.8H109.314V36.3787H108.266V25.4955L103.589 32.2037H103.186L98.4894 25.4955V36.3787H97.4412V22.8H97.8444L103.368 30.7648ZM113.265 23.0027H121.59V23.9552H114.313V28.6773H119.977V29.6299H114.313V35.4261H121.832V36.3787H113.265V23.0027ZM130.117 30.2987L134.612 36.3787H133.382L128.907 30.3797H125.662V36.3787H124.614V23.0027H129.129C130.358 23.0027 131.346 23.3472 132.072 24.0363C132.797 24.7253 133.16 25.5968 133.16 26.6709C133.16 28.5355 132.031 29.9541 130.117 30.2987ZM129.088 23.9552H125.662V29.4272H129.088C131.003 29.4272 132.072 28.3125 132.072 26.6912C132.072 25.0699 131.003 23.9552 129.088 23.9552ZM142.594 22.8C144.831 22.8 146.787 23.8336 147.976 25.5157L147.19 26.144C146.081 24.5632 144.549 23.7728 142.614 23.7728C140.981 23.7728 139.631 24.3403 138.522 25.4752C137.434 26.5899 136.889 27.9883 136.889 29.6704C136.889 31.3525 137.434 32.7712 138.522 33.9061C139.611 35.0208 140.981 35.5883 142.614 35.5883C144.569 35.5883 146.081 34.7979 147.19 33.2373L147.976 33.8656C146.787 35.5477 144.831 36.5813 142.594 36.5813C140.679 36.5813 139.066 35.9125 137.756 34.5952C136.446 33.2779 135.781 31.6363 135.781 29.6907C135.781 27.7451 136.446 26.1035 137.756 24.7861C139.066 23.4688 140.679 22.8 142.594 22.8ZM151.04 23.0027H159.365V23.9552H152.088V28.6773H157.752V29.6299H152.088V35.4261H159.607V36.3787H151.04V23.0027Z" fill="white"/>
</svg>
