<svg width="183" height="45" viewBox="0 0 183 45" fill="none" xmlns="http://www.w3.org/2000/svg">
<g clip-path="url(#clip0_8124_2589)">
<path fill-rule="evenodd" clip-rule="evenodd" d="M19.4048 0.769287L9.70251 22.4424H19.4048L29.1076 0.769287H19.4048Z" fill="#CCCCCC"/>
<path fill-rule="evenodd" clip-rule="evenodd" d="M0 0.769287L9.70253 22.4424H19.4051L9.70253 0.769287H0Z" fill="#FF4A4A"/>
<path fill-rule="evenodd" clip-rule="evenodd" d="M43.1224 26.7768C43.1224 28.5725 41.6742 30.0278 39.8882 30.0278C38.1019 30.0278 36.6541 28.5725 36.6541 26.7768C36.6541 24.9812 38.1019 23.5259 39.8882 23.5259C41.6742 23.5259 43.1224 24.9812 43.1224 26.7768Z" fill="#FF4A4A"/>
<path fill-rule="evenodd" clip-rule="evenodd" d="M32.5896 28.9443H22.6393C23.826 37.4582 31.1067 44.0319 39.8882 44.0319V34.2454C36.4934 34.2454 33.6102 32.0197 32.5896 28.9443Z" fill="#FFC10D"/>
<path fill-rule="evenodd" clip-rule="evenodd" d="M32.5896 24.6096C33.6102 21.5172 36.4934 19.2792 39.8882 19.2792V9.43848C31.1067 9.43848 23.826 16.0486 22.6393 24.6096H32.5896Z" fill="#FFC10D"/>
<path fill-rule="evenodd" clip-rule="evenodd" d="M64.235 17.0673L69.6857 3.89012H70.9736L64.488 19.3791H64.0051L57.4965 3.89012H58.7844L64.235 17.0673ZM74.1244 3.89012H75.3204V19.148H74.1244V3.89012ZM86.0837 12.2126L91.2124 19.148H89.8095L84.7038 12.305H81.001V19.148H79.8051V3.89012H84.9568C86.3597 3.89012 87.4866 4.28312 88.3145 5.06913C89.1425 5.85514 89.5565 6.84921 89.5565 8.07446C89.5565 10.2013 88.2686 11.8196 86.0837 12.2126ZM84.9108 4.97666H81.001V11.2185H84.9108C87.0956 11.2185 88.3145 9.94702 88.3145 8.09758C88.3145 6.24815 87.0956 4.97666 84.9108 4.97666ZM91.6493 3.89012H103.954V4.97666H98.3879V19.148H97.192V4.97666H91.6493V3.89012ZM112.854 3.65894C115.016 3.65894 116.856 4.42183 118.374 5.92449C119.892 7.42716 120.651 9.29972 120.651 11.519C120.651 13.7152 119.892 15.5878 118.374 17.1136C116.856 18.6162 115.016 19.3791 112.854 19.3791C110.669 19.3791 108.829 18.6162 107.334 17.1136C105.839 15.5878 105.081 13.7152 105.081 11.519C105.081 9.29972 105.839 7.42716 107.334 5.92449C108.829 4.42183 110.669 3.65894 112.854 3.65894ZM112.877 4.7686C111.014 4.7686 109.45 5.4159 108.208 6.7105C106.966 7.98199 106.345 9.57713 106.345 11.4959C106.345 13.4147 106.966 15.0098 108.208 16.3045C109.45 17.5991 111.014 18.2464 112.877 18.2464C114.74 18.2464 116.281 17.5991 117.523 16.3045C118.765 15.0098 119.386 13.4147 119.386 11.4959C119.386 9.60025 118.765 8.00511 117.5 6.7105C116.258 5.4159 114.717 4.7686 112.877 4.7686ZM65.592 26.7769C68.1448 26.7769 70.3757 27.9559 71.7326 29.8747L70.8356 30.5913C69.5707 28.7881 67.8228 27.8865 65.615 27.8865C63.7521 27.8865 62.2112 28.5338 60.9462 29.8285C59.7043 31.0999 59.0834 32.6951 59.0834 34.6139C59.0834 36.5327 59.7043 38.1509 60.9462 39.4455C62.1882 40.717 63.7521 41.3643 65.615 41.3643C67.8458 41.3643 69.5707 40.4627 70.8356 38.6826L71.7326 39.3993C70.3757 41.3181 68.1448 42.4971 65.592 42.4971C63.4071 42.4971 61.5672 41.7342 60.0723 40.2315C58.5774 38.7289 57.8184 36.8563 57.8184 34.637C57.8184 32.4177 58.5774 30.5451 60.0723 29.0424C61.5672 27.5398 63.4071 26.7769 65.592 26.7769ZM81.852 26.7769C84.0138 26.7769 85.8537 27.5398 87.3716 29.0424C88.8895 30.5451 89.6485 32.4177 89.6485 34.637C89.6485 36.8332 88.8895 38.7057 87.3716 40.2315C85.8537 41.7342 84.0138 42.4971 81.852 42.4971C79.6671 42.4971 77.8272 41.7342 76.3323 40.2315C74.8374 38.7057 74.0784 36.8332 74.0784 34.637C74.0784 32.4177 74.8374 30.5451 76.3323 29.0424C77.8272 27.5398 79.6671 26.7769 81.852 26.7769ZM81.8749 27.8865C80.0121 27.8865 78.4482 28.5338 77.2062 29.8285C75.9643 31.0999 75.3434 32.6951 75.3434 34.6139C75.3434 36.5327 75.9643 38.1278 77.2062 39.4224C78.4482 40.717 80.0121 41.3643 81.8749 41.3643C83.7378 41.3643 85.2787 40.717 86.5207 39.4224C87.7626 38.1278 88.3835 36.5327 88.3835 34.6139C88.3835 32.7182 87.7626 31.1231 86.4977 29.8285C85.2557 28.5338 83.7148 27.8865 81.8749 27.8865ZM99.8828 35.8622L106.207 26.7769H106.667V42.2659H105.471V29.8516L100.136 37.5036H99.6758L94.3172 29.8516V42.2659H93.1212V26.7769H93.5812L99.8828 35.8622ZM117.937 35.8622L124.261 26.7769H124.721V42.2659H123.525V29.8516L118.19 37.5036H117.73L112.371 29.8516V42.2659H111.175V26.7769H111.635L117.937 35.8622ZM129.229 27.0081H138.727V28.0946H130.425V33.4811H136.888V34.5676H130.425V41.1794H139.003V42.2659H129.229V27.0081ZM148.456 35.3305L153.585 42.2659H152.182L147.076 35.423H143.373V42.2659H142.177V27.0081H147.329C148.732 27.0081 149.859 27.4011 150.687 28.1871C151.515 28.9731 151.929 29.9672 151.929 31.1924C151.929 33.3193 150.641 34.9375 148.456 35.3305ZM147.283 28.0946H143.373V34.3365H147.283C149.468 34.3365 150.687 33.065 150.687 31.2155C150.687 29.3661 149.468 28.0946 147.283 28.0946ZM162.692 26.7769C165.245 26.7769 167.476 27.9559 168.833 29.8747L167.936 30.5913C166.671 28.7881 164.923 27.8865 162.715 27.8865C160.852 27.8865 159.311 28.5338 158.046 29.8285C156.804 31.0999 156.183 32.6951 156.183 34.6139C156.183 36.5327 156.804 38.1509 158.046 39.4455C159.288 40.717 160.852 41.3643 162.715 41.3643C164.946 41.3643 166.671 40.4627 167.936 38.6826L168.833 39.3993C167.476 41.3181 165.245 42.4971 162.692 42.4971C160.507 42.4971 158.667 41.7342 157.172 40.2315C155.677 38.7289 154.918 36.8563 154.918 34.637C154.918 32.4177 155.677 30.5451 157.172 29.0424C158.667 27.5398 160.507 26.7769 162.692 26.7769ZM172.328 27.0081H181.827V28.0946H173.524V33.4811H179.987V34.5676H173.524V41.1794H182.103V42.2659H172.328V27.0081Z" fill="#161D25"/>
</g>
<defs>
<clipPath id="clip0_8124_2589">
<rect width="182.551" height="43.3462" fill="white" transform="translate(0 0.769287)"/>
</clipPath>
</defs>
</svg>
