<svg xmlns="http://www.w3.org/2000/svg" width="86" height="86" fill="none"><g fill="#F0AD4E" clip-path="url(#a)"><path d="M68.156 78H22.22a3.29 3.29 0 0 1-3.282-3.281V59.406a3.29 3.29 0 0 1 3.282-3.281h45.937a3.29 3.29 0 0 1 3.281 3.281v3.282h5.47c.437 0 .841.262 1.005.678a1.08 1.08 0 0 1-.24 1.192l-6.245 6.245v3.927a3.29 3.29 0 0 1-3.282 3.28l.011-.01ZM22.22 58.312c-.602 0-1.094.493-1.094 1.094V74.72c0 .601.492 1.094 1.094 1.094h45.937c.602 0 1.094-.493 1.094-1.094v-4.375c0-.296.12-.569.317-.777l4.692-4.692h-3.926a1.097 1.097 0 0 1-1.094-1.094v-4.375c0-.601-.492-1.093-1.094-1.093H22.22Z"/><path d="M46.281 65.969h-2.187v2.187h2.187V65.97ZM50.656 65.969H48.47v2.187h2.187V65.97ZM41.906 65.969H39.72v2.187h2.187V65.97ZM68.156 29.875H22.22a3.29 3.29 0 0 1-3.282-3.281V11.28A3.29 3.29 0 0 1 22.22 8h45.937a3.29 3.29 0 0 1 3.281 3.281v3.281h5.47c.437 0 .841.263 1.005.679a1.08 1.08 0 0 1-.24 1.192l-6.245 6.245v3.927a3.29 3.29 0 0 1-3.282 3.28l.011-.01ZM22.22 10.187c-.602 0-1.094.493-1.094 1.094v15.313c0 .601.492 1.093 1.094 1.093h45.937c.602 0 1.094-.492 1.094-1.093v-4.375c0-.296.12-.569.317-.777l4.692-4.692h-3.926a1.097 1.097 0 0 1-1.094-1.094v-4.375c0-.601-.492-1.094-1.094-1.094H22.22Z"/><path d="M36.438 15.656H25.5v2.188h10.938v-2.188ZM58.313 15.656H38.624v2.188h19.688v-2.188ZM47.375 20.031H25.5v2.188h21.875V20.03ZM63.781 53.938H17.844a3.29 3.29 0 0 1-3.281-3.282V46.73l-6.246-6.235a1.1 1.1 0 0 1-.24-1.192 1.096 1.096 0 0 1 1.006-.678h5.469v-3.281a3.291 3.291 0 0 1 3.28-3.282H63.77a3.29 3.29 0 0 1 3.282 3.282v15.312a3.29 3.29 0 0 1-3.282 3.282h.011ZM11.73 40.812l4.692 4.693c.208.207.317.48.317.776v4.375c0 .602.492 1.094 1.094 1.094H63.77c.602 0 1.094-.492 1.094-1.094V35.344c0-.602-.492-1.094-1.094-1.094H17.844c-.602 0-1.094.492-1.094 1.094v4.375c0 .601-.492 1.093-1.094 1.093H11.73Z"/><path d="M44.094 39.719H21.125v2.187h22.969V39.72ZM33.156 44.094H21.125v2.187h12.031v-2.187ZM55.031 44.094H35.344v2.187H55.03v-2.187Z"/></g><defs><clipPath id="a"><path fill="#fff" d="M8 8h70v70H8z"/></clipPath></defs></svg>