<svg width="66" height="71" viewBox="0 0 66 71" fill="none" xmlns="http://www.w3.org/2000/svg">
<path d="M53.2097 39.3505H52.5859C51.9727 39.3999 51.5008 39.9127 51.5029 40.5275C51.5581 41.136 52.0694 41.6016 52.68 41.599H53.2801C56.733 41.599 59.9231 43.4407 61.6493 46.4307C63.3755 49.4207 63.3755 53.1041 61.6493 56.0941C59.9231 59.0841 56.733 60.9263 53.2801 60.9263H52.7268H52.7273C52.1955 61.0309 51.8045 61.4854 51.7793 62.0262C51.7541 62.5674 52.1014 63.0561 52.6211 63.2095H53.2801C57.5484 63.2095 61.4927 60.9326 63.6266 57.236C65.761 53.5398 65.761 48.9856 63.6266 45.289C61.4927 41.5927 57.5484 39.3154 53.2801 39.3154L53.2097 39.3505Z" fill="#F0AD4E"/>
<path d="M44.7452 44.4596C44.2123 44.1285 43.5135 44.2736 43.1562 44.7891C42.9323 45.1422 42.7206 45.5068 42.5325 45.8721C42.2613 46.4359 42.4789 47.1132 43.0269 47.4138C43.1883 47.4921 43.3653 47.5326 43.5451 47.5315C43.9744 47.5262 44.3669 47.2872 44.5687 46.9078C44.7216 46.6088 44.8908 46.3177 45.0752 46.0371C45.3984 45.5063 45.2544 44.8159 44.7452 44.4595L44.7452 44.4596Z" fill="#F0AD4E"/>
<path d="M46.6534 61.3497C47.0065 61.5735 47.3712 61.7853 47.7364 61.9734C47.8977 62.0517 48.0748 62.0922 48.2545 62.0911C48.6812 62.088 49.0732 61.8536 49.2781 61.4789C49.5492 60.9156 49.3322 60.2383 48.7842 59.9372C48.4794 59.7869 48.1846 59.6183 47.9014 59.4312C47.3706 59.1075 46.6802 59.252 46.3238 59.7607C45.9928 60.2935 46.1378 60.9923 46.6533 61.3496L46.6534 61.3497Z" fill="#F0AD4E"/>
<path d="M46.3343 42.8581C46.5403 43.1849 46.9013 43.3814 47.288 43.3757C47.5082 43.3767 47.7247 43.3152 47.9117 43.1991C48.1929 43.0147 48.4835 42.846 48.783 42.6931C49.1356 42.6116 49.4314 42.372 49.5843 42.0441C49.7378 41.7157 49.7315 41.3353 49.567 41.0126C49.403 40.69 49.0993 40.4603 48.7436 40.391C48.3883 40.3216 48.0205 40.4194 47.7467 40.6569C47.3758 40.846 47.0142 41.0547 46.6643 41.2806C46.1551 41.6369 46.0111 42.3273 46.3343 42.8581L46.3343 42.8581Z" fill="#F0AD4E"/>
<path d="M42.4505 49.5791C41.8357 49.577 41.3228 50.0489 41.2734 50.6621V51.2858V51.9096C41.3228 52.5228 41.8357 52.9947 42.4505 52.9926C43.0637 52.9432 43.5356 52.4303 43.5335 51.8155V51.3095V50.8035C43.5608 50.1703 43.0821 49.629 42.4505 49.5791Z" fill="#F0AD4E"/>
<path d="M43.1574 57.8182C43.3634 58.1456 43.7244 58.3421 44.1111 58.3364C44.3313 58.3369 44.5478 58.2759 44.7348 58.1598C45.2477 57.8067 45.3975 57.1157 45.0764 56.5823C44.8883 56.2996 44.7233 56.0053 44.5583 55.6995C44.4816 55.3416 44.2425 55.04 43.912 54.8834C43.582 54.7263 43.1968 54.7321 42.8715 54.8987C42.5457 55.0652 42.3161 55.3737 42.2499 55.7336C42.1837 56.0936 42.2888 56.4635 42.5337 56.7352C42.7186 57.1088 42.9272 57.4708 43.1574 57.8182L43.1574 57.8182Z" fill="#F0AD4E"/>
<g clip-path="url(#clip0_9779_2913)">
<path d="M53.561 45.7559C51.9212 45.7559 50.8591 46.4613 50.0252 47.7194C49.8739 47.9476 49.9206 48.2605 50.1316 48.4285L51.0178 49.1341C51.2309 49.3038 51.5341 49.2641 51.701 49.0446C52.2156 48.3677 52.5973 47.9779 53.4011 47.9779C54.0331 47.9779 54.8149 48.405 54.8149 49.0485C54.8149 49.535 54.4324 49.7849 53.8084 50.1522C53.0806 50.5806 52.1176 51.1138 52.1176 52.4475V52.6586C52.1176 52.9446 52.3384 53.1763 52.6107 53.1763H54.0995C54.3718 53.1763 54.5926 52.9446 54.5926 52.6586V52.5341C54.5926 51.6096 57.1661 51.5711 57.1661 49.0692C57.1661 47.1851 55.3048 45.7559 53.561 45.7559ZM53.3551 53.8118C52.5704 53.8118 51.932 54.4821 51.932 55.3061C51.932 56.13 52.5704 56.8003 53.3551 56.8003C54.1398 56.8003 54.7782 56.13 54.7782 55.306C54.7782 54.4821 54.1398 53.8118 53.3551 53.8118Z" fill="#F0AD4E"/>
</g>
<path d="M53.1974 66.058C52.5469 66.058 52.0204 66.585 52.0204 67.235V68.7178H2.81945V2.22562H39.6377V13.6078C39.6377 13.9199 39.7618 14.2189 39.9825 14.4402C40.2031 14.6609 40.5027 14.7849 40.8148 14.7849H52.0793V35.3356C52.2012 35.871 52.6773 36.251 53.2269 36.251C53.776 36.251 54.2521 35.871 54.3745 35.3356V13.7127V13.6066V13.6071C54.3709 13.2403 54.1964 12.8967 53.9037 12.677L41.5914 0.2827C41.5011 0.190744 41.3928 0.118747 41.2735 0.0709381H41.1674H41.1679C41.0691 0.0346808 40.9661 0.0110347 40.8616 0H1.67706C1.02705 0 0.5 0.527052 0.5 1.17706V69.8229C0.5 70.1351 0.624012 70.4346 0.844709 70.6553C1.06541 70.876 1.36493 71 1.67706 71H53.1971C53.5092 71 53.8082 70.876 54.0295 70.6553C54.2502 70.4346 54.3742 70.1351 54.3742 69.8229V67.2334C54.3742 66.9213 54.2502 66.6218 54.0295 66.4011C53.8082 66.1804 53.5092 66.0564 53.1971 66.0564L53.1974 66.058ZM41.9208 12.4663V3.86166L50.5018 12.4663H41.9208Z" fill="#F0AD4E"/>
<path d="M17.8265 18.4347C18.1386 18.4347 18.4376 18.3107 18.6588 18.09C18.8795 17.8688 19.0035 17.5698 19.0035 17.2576V9.1712C19.0035 8.85907 18.8795 8.55954 18.6588 8.33885C18.4376 8.11816 18.1386 7.99414 17.8265 7.99414H9.85772C9.20772 7.99414 8.68066 8.52119 8.68066 9.1712V17.2929C8.68066 17.605 8.80468 17.9045 9.02537 18.1252C9.24607 18.3459 9.54559 18.4699 9.85772 18.4699L17.8265 18.4347ZM10.9995 10.313H16.6846V16.1983H10.9995V10.313Z" fill="#F0AD4E"/>
<path d="M38.4479 53.4642C38.4479 53.152 38.3239 52.8525 38.1032 52.6318C37.8825 52.4111 37.583 52.2871 37.2709 52.2871H9.02153C8.49817 52.4185 8.13086 52.8888 8.13086 53.429C8.13086 53.9686 8.49817 54.4394 9.02153 54.5708H37.2709C37.8946 54.5719 38.4106 54.0863 38.4479 53.4642Z" fill="#F0AD4E"/>
<path d="M9.09335 60.5966C8.56946 60.728 8.20215 61.1988 8.20215 61.7384C8.20215 62.2786 8.56946 62.7489 9.09335 62.8803H20.4755C20.8271 62.9686 21.1996 62.8898 21.4855 62.6664C21.7714 62.4436 21.9385 62.101 21.9385 61.7385C21.9385 61.3759 21.7714 61.0338 21.4855 60.8105C21.1996 60.5877 20.8271 60.5089 20.4755 60.5966L9.09335 60.5966Z" fill="#F0AD4E"/>
<path d="M25.3245 10.3131H34.5292C35.1792 10.3131 35.7063 9.78605 35.7063 9.13604C35.7063 8.48551 35.1792 7.95898 34.5292 7.95898H25.3245C24.6745 7.95898 24.1475 8.48551 24.1475 9.13604C24.1475 9.78605 24.6745 10.3131 25.3245 10.3131Z" fill="#F0AD4E"/>
<path d="M25.3243 18.1035H34.529C35.0529 17.9726 35.4202 17.5018 35.4202 16.9622C35.4202 16.422 35.0529 15.9517 34.529 15.8203H25.3243C24.8009 15.9517 24.4336 16.422 24.4336 16.9622C24.4336 17.5018 24.8009 17.9726 25.3243 18.1035Z" fill="#F0AD4E"/>
<path d="M47.0887 36.9856C47.0887 36.6735 46.9647 36.374 46.744 36.1533C46.5233 35.9326 46.2238 35.8086 45.9116 35.8086H9.09335C8.56946 35.94 8.20215 36.4103 8.20215 36.9504C8.20215 37.4901 8.56946 37.9609 9.09335 38.0923H45.9466C46.5567 38.075 47.0522 37.5947 47.0885 36.9856H47.0887Z" fill="#F0AD4E"/>
<path d="M7.95215 29.404C7.95215 29.7161 8.07616 30.0156 8.29686 30.2363C8.51755 30.457 8.81708 30.581 9.1292 30.581H45.7942C46.318 30.4502 46.6848 29.9794 46.6848 29.4397C46.6848 28.8995 46.318 28.4292 45.7942 28.2979H9.09423C8.48415 28.3152 7.98863 28.7955 7.95238 29.404H7.95215Z" fill="#F0AD4E"/>
<path d="M39.5065 45.1058C39.5065 44.7936 39.3825 44.4941 39.1618 44.2734C38.9411 44.0527 38.6416 43.9287 38.3295 43.9287H9.09139C8.5675 44.0601 8.2002 44.5304 8.2002 45.0706C8.2002 45.6102 8.5675 46.081 9.09139 46.2124H38.3644C38.974 46.1951 39.4695 45.7148 39.5058 45.1058H39.5065Z" fill="#F0AD4E"/>
<defs>
<clipPath id="clip0_9779_2913">
<rect width="7.88889" height="11.0444" fill="white" transform="translate(49.4111 45.7559)"/>
</clipPath>
</defs>
</svg>
