<svg id="main" viewBox="0 0 36 36" fill="currentColor" xmlns="http://www.w3.org/2000/svg">
<path fill-rule="evenodd" clip-rule="evenodd" d="M20.6821 5.70598C19.9981 2.89798 16.0021 2.89798 15.3181 5.70598C15.216 6.12792 15.0157 6.5198 14.7335 6.84972C14.4514 7.17963 14.0953 7.43826 13.6943 7.60456C13.2932 7.77086 12.8586 7.84013 12.4258 7.80674C11.9929 7.77334 11.5741 7.63822 11.2033 7.41238C8.73374 5.90758 5.90774 8.73358 7.41254 11.2032C8.38454 12.798 7.52234 14.8788 5.70794 15.3198C2.89814 16.002 2.89814 19.9998 5.70794 20.6802C6.13 20.7824 6.52194 20.9829 6.85186 21.2653C7.18177 21.5477 7.44033 21.904 7.60647 22.3053C7.77261 22.7065 7.84164 23.1413 7.80794 23.5742C7.77424 24.0072 7.63876 24.4261 7.41254 24.7968C5.90774 27.2664 8.73374 30.0924 11.2033 28.5876C11.574 28.3614 11.9929 28.2259 12.4259 28.1922C12.8588 28.1585 13.2936 28.2275 13.6949 28.3936C14.0961 28.5598 14.4524 28.8183 14.7348 29.1483C15.0172 29.4782 15.2177 29.8701 15.3199 30.2922C16.0021 33.102 19.9999 33.102 20.6803 30.2922C20.7829 29.8703 20.9836 29.4787 21.2661 29.149C21.5485 28.8193 21.9048 28.5609 22.3059 28.3948C22.707 28.2287 23.1416 28.1596 23.5745 28.1931C24.0073 28.2266 24.4262 28.3618 24.7969 28.5876C27.2665 30.0924 30.0925 27.2664 28.5877 24.7968C28.3619 24.426 28.2268 24.0072 28.1933 23.5743C28.1598 23.1415 28.2289 22.7068 28.395 22.3057C28.5611 21.9046 28.8194 21.5484 29.1491 21.2659C29.4788 20.9835 29.8705 20.7828 30.2923 20.6802C33.1021 19.998 33.1021 16.0002 30.2923 15.3198C29.8703 15.2175 29.4783 15.017 29.1484 14.7346C28.8185 14.4523 28.5599 14.0959 28.3938 13.6947C28.2277 13.2935 28.1586 12.8587 28.1923 12.4257C28.226 11.9927 28.3615 11.5739 28.5877 11.2032C30.0925 8.73358 27.2665 5.90758 24.7969 7.41238C24.4262 7.6386 24.0074 7.77408 23.5744 7.80778C23.1414 7.84148 22.7066 7.77245 22.3054 7.60631C21.9042 7.44016 21.5479 7.18161 21.2655 6.8517C20.9831 6.52178 20.7826 6.12984 20.6803 5.70778L20.6821 5.70598ZM18.0001 23.4C19.4323 23.4 20.8058 22.8311 21.8185 21.8184C22.8312 20.8057 23.4001 19.4321 23.4001 18C23.4001 16.5678 22.8312 15.1943 21.8185 14.1816C20.8058 13.1689 19.4323 12.6 18.0001 12.6C16.568 12.6 15.1945 13.1689 14.1818 14.1816C13.1691 15.1943 12.6001 16.5678 12.6001 18C12.6001 19.4321 13.1691 20.8057 14.1818 21.8184C15.1945 22.8311 16.568 23.4 18.0001 23.4Z"/>
</svg>
