<svg width="87" height="71" viewBox="0 0 87 71" fill="none" xmlns="http://www.w3.org/2000/svg">
<path d="M85.452 71.0686C85.0887 71.0686 36.0756 70.985 36.0469 71.0686H20.4269C20.0548 71.0568 19.6927 70.9457 19.3781 70.7472C19.0298 70.9625 18.6271 71.0743 18.2176 71.0686H2.70931C2.125 71.0724 1.56251 70.8427 1.148 70.4306C0.73349 70.0186 0.5 69.458 0.5 68.8737V53.3517C0.5 52.1312 1.48948 51.1418 2.70928 51.1418H9.40775C9.40026 51.0119 9.40026 50.8808 9.40775 50.7504V35.8021C9.4115 35.1416 9.67682 34.5098 10.1463 34.046C10.6157 33.5816 11.2506 33.3231 11.9105 33.3269H14.8889L14.8896 20.154C14.8858 19.0727 15.1836 18.0121 15.7492 17.0907C16.3148 16.1692 17.1257 15.4238 18.0914 14.9381L45.7378 0.702781C47.5881 -0.23426 49.7744 -0.23426 51.6247 0.702781L79.2982 14.91C80.2615 15.405 81.0693 16.1567 81.6319 17.0825C82.1943 18.0077 82.4902 19.0708 82.4865 20.154V68.971H85.4512C86.0305 68.971 86.5 69.4411 86.5 70.0198C86.5 70.5991 86.0305 71.0686 85.4512 71.0686L85.452 71.0686ZM20.5113 53.2541C20.4632 53.261 20.427 53.3028 20.4276 53.3521V68.8741C20.4276 68.9022 20.4395 68.9297 20.4613 68.9484C20.4825 68.9671 20.5113 68.9759 20.5394 68.9715H36.1312C36.2292 68.9715 36.1312 53.4358 36.1312 53.3797C36.1312 53.3179 36.0813 53.2679 36.0195 53.2679H31.8243V58.3302C31.7931 58.8608 31.4641 59.3284 30.9747 59.5357C30.4853 59.7436 29.9203 59.6555 29.517 59.3091L28.3565 58.1342L27.1816 59.3228C26.7795 59.7067 26.1877 59.8153 25.6752 59.6C25.1627 59.3846 24.8262 58.8864 24.8187 58.3302V53.2542L20.5113 53.2541ZM2.7095 53.2541C2.6477 53.2541 2.59776 53.304 2.59776 53.3658V68.8878C2.59776 68.9166 2.60962 68.9434 2.63147 68.9628C2.65269 68.9815 2.68141 68.9896 2.7095 68.9859H18.2178C18.2459 68.9896 18.2746 68.9815 18.2958 68.9628C18.3176 68.9434 18.3295 68.9166 18.3295 68.8878V53.3521C18.3301 53.3028 18.2939 53.261 18.2459 53.2541H14.0507V58.302C14.0376 58.8557 13.6993 59.3495 13.1874 59.5612C12.6761 59.7728 12.088 59.6629 11.6872 59.2809L10.5267 58.106L9.29625 59.3089C8.8936 59.6929 8.30177 59.8015 7.78924 59.5861C7.27672 59.3708 6.94023 58.8719 6.93273 58.3164V53.2397L2.7095 53.2541ZM38.2571 68.9441H73.6081V43.1995H49.7238V48.6113C50.8469 48.9497 51.7378 49.8093 52.1167 50.9192C52.495 52.0298 52.3146 53.2546 51.6316 54.2085C50.9493 55.1624 49.8481 55.728 48.6751 55.728C47.502 55.728 46.4009 55.1624 45.7185 54.2085C45.0355 53.2546 44.8551 52.0298 45.2334 50.9192C45.6124 49.8093 46.5032 48.9497 47.6263 48.6113V43.1995H29.3084V50.7508C29.3227 50.8812 29.3227 51.0123 29.3084 51.1422H36.0906C36.6768 51.1422 37.2386 51.375 37.6531 51.7896C38.067 52.2041 38.2999 52.7659 38.2999 53.3521L38.2571 68.9441ZM75.7049 68.9441H80.3758V20.1542C80.3795 19.4588 80.1891 18.7765 79.8258 18.1834C79.4625 17.5904 78.9412 17.1109 78.3201 16.7981L50.6737 2.57654C49.4283 1.9323 47.9481 1.9323 46.7026 2.57654L19.0147 16.8119C18.3904 17.1196 17.8642 17.5953 17.4965 18.1859C17.1281 18.7765 16.9321 19.4582 16.9309 20.1542V33.299H21.6018V24.4329C21.6018 23.8542 22.0712 23.3841 22.6506 23.3841H74.6287H74.6281C75.1681 23.3966 75.6138 23.8111 75.6631 24.3493L75.7049 68.9441ZM26.8599 53.2542V56.5965C27.2376 56.1907 27.6989 55.6739 28.2583 55.7157C28.8176 55.7575 29.3208 56.177 29.6567 56.5828V53.2398H26.8599V53.2542ZM9.03098 53.2542V56.6103C9.40867 56.2045 9.87 55.6876 10.4294 55.7294C10.9887 55.7713 11.4919 56.1908 11.8277 56.5965V53.2542L9.03098 53.2542ZM48.6746 50.5554C47.825 50.5554 47.1364 51.244 47.1364 52.0936C47.1364 52.9426 47.825 53.6318 48.6746 53.6318C49.5243 53.6318 50.2128 52.9426 50.2128 52.0936C50.2128 51.244 49.5243 50.5554 48.6746 50.5554ZM18.329 51.1566H26.8454C27.0364 51.1228 27.1769 50.9587 27.1806 50.7651V35.8025C27.1731 35.5915 27.0002 35.4248 26.7892 35.4248H22.8875V40.4727C22.88 41.0321 22.5391 41.5333 22.0222 41.7462C21.5047 41.9591 20.9098 41.8436 20.5102 41.4516L19.3497 40.2767L18.1748 41.4653L18.1754 41.4659C17.7728 41.8492 17.181 41.9585 16.6684 41.7431C16.1559 41.5277 15.8194 41.0289 15.8119 40.4727V35.4248H11.8827C11.7785 35.4211 11.6773 35.4585 11.6012 35.5297C11.5256 35.6002 11.4807 35.6982 11.4769 35.8025V50.7507C11.4682 50.9493 11.6149 51.1203 11.8128 51.1422H18.3289L18.329 51.1566ZM48.6746 41.1301H73.6073V37.2982H29.3067V41.1301H48.6746ZM17.9101 35.383V38.7254C18.2878 38.3196 18.7491 37.8027 19.3085 37.8445C19.8678 37.8863 20.3572 38.3059 20.7068 38.7116V35.4249L17.9101 35.383ZM29.2232 35.1595L73.6069 35.1589V31.3414H23.7272V33.2854H26.818C27.3761 33.2866 27.9173 33.4764 28.3543 33.8241C28.7907 34.1719 29.0972 34.6569 29.2233 35.2007L29.2232 35.1595ZM23.7276 29.2445L73.6074 29.2438V25.482H23.7276V29.2445ZM48.6747 18.756C46.6665 18.6573 44.8516 17.5293 43.8753 15.7713C42.8983 14.014 42.8983 11.8771 43.8753 10.1198C44.8517 8.36243 46.6665 7.23366 48.6747 7.13569C50.683 7.2337 52.4978 8.3624 53.4741 10.1198C54.4511 11.8771 54.4511 14.014 53.4741 15.7713C52.4978 17.5292 50.683 18.6574 48.6747 18.756ZM48.6747 9.23326C47.4025 9.31129 46.2588 10.0354 45.6438 11.1523C45.0296 12.2691 45.0296 13.6226 45.6438 14.7394C46.2588 15.8562 47.4024 16.5804 48.6747 16.6584C50.0063 16.6584 51.2361 15.948 51.9022 14.795C52.5677 13.6419 52.5677 12.2216 51.9022 11.0687C51.2361 9.9157 50.0063 9.20529 48.6747 9.20529V9.23326Z" fill="#F0AD4E"/>
</svg>
