<svg id="main" width="70" height="45" viewBox="0 0 71 48" fill="none" xmlns="http://www.w3.org/2000/svg">
<!--<rect x="0.904297" y="0.5" width="69" height="44" rx="5.5" fill="white" stroke="#D9D9D9"/>-->
<path d="M40.0119 22.948C40.0119 29.8516 34.4797 35.448 27.6554 35.448C20.831 35.448 15.2988 29.8516 15.2988 22.948C15.2988 16.0444 20.831 10.448 27.6554 10.448C34.4797 10.448 40.0119 16.0444 40.0119 22.948Z" fill="#ED0006"/>
<path d="M56.0422 22.948C56.0422 29.8516 50.51 35.448 43.6857 35.448C36.8613 35.448 31.3291 29.8516 31.3291 22.948C31.3291 16.0444 36.8613 10.448 43.6857 10.448C50.51 10.448 56.0422 16.0444 56.0422 22.948Z" fill="#0099DF"/>
<path fill-rule="evenodd" clip-rule="evenodd" d="M35.6705 32.4618C38.3273 30.1691 40.0119 26.7575 40.0119 22.9479C40.0119 19.1384 38.3273 15.7268 35.6705 13.4341C33.0137 15.7268 31.3291 19.1384 31.3291 22.9479C31.3291 26.7575 33.0137 30.1691 35.6705 32.4618Z" fill="#6C6BBD"/>
</svg>
