<svg id="main" width="70" height="45" viewBox="0 0 71 48" fill="none" xmlns="http://www.w3.org/2000/svg">
<!--<rect x="0.904297" y="0.5" width="69" height="44" rx="5.5" fill="white" stroke="#D9D9D9"/>-->
<path fill-rule="evenodd" clip-rule="evenodd" d="M34.776 32.0139C32.6183 33.8759 29.8193 35 26.7609 35C19.9365 35 14.4043 29.4036 14.4043 22.5C14.4043 15.5964 19.9365 10 26.7609 10C29.8193 10 32.6183 11.1241 34.776 12.9861C36.9337 11.1241 39.7327 10 42.7911 10C49.6155 10 55.1477 15.5964 55.1477 22.5C55.1477 29.4036 49.6155 35 42.7911 35C39.7327 35 36.9337 33.8759 34.776 32.0139Z" fill="#ED0006"/>
<path fill-rule="evenodd" clip-rule="evenodd" d="M34.7759 32.0139C37.4327 29.7211 39.1173 26.3096 39.1173 22.5C39.1173 18.6904 37.4327 15.2789 34.7759 12.9861C36.9336 11.1241 39.7325 10 42.791 10C49.6154 10 55.1476 15.5964 55.1476 22.5C55.1476 29.4036 49.6154 35 42.791 35C39.7325 35 36.9336 33.8759 34.7759 32.0139Z" fill="#F9A000"/>
<path fill-rule="evenodd" clip-rule="evenodd" d="M34.776 32.0138C37.4328 29.7211 39.1174 26.3095 39.1174 22.4999C39.1174 18.6904 37.4328 15.2788 34.776 12.9861C32.1192 15.2788 30.4346 18.6904 30.4346 22.4999C30.4346 26.3095 32.1192 29.7211 34.776 32.0138Z" fill="#FF5E00"/>
</svg>
