<svg width="442" height="350" viewBox="0 0 442 350" fill="none" xmlns="http://www.w3.org/2000/svg">
<g clip-path="url(#clip0_6094_22902)">
<mask id="mask0_6094_22902" style="mask-type:alpha" maskUnits="userSpaceOnUse" x="-1" y="-1" width="462" height="352">
<path d="M4 -0.5C1.51472 -0.5 -0.5 1.51473 -0.5 4.00001V346C-0.5 348.485 1.51472 350.5 4 350.5H456C458.485 350.5 460.5 348.485 460.5 346V4C460.5 1.51472 458.485 -0.5 456 -0.5H4Z" fill="white" stroke="#EDEDED"/>
</mask>
<g mask="url(#mask0_6094_22902)">
<path d="M141.926 355.985L292.215 440.293L443.019 355.111L443.534 185.621L293.245 101.313L142.441 186.495L141.926 355.985Z" stroke="#ECECEC" stroke-width="2"/>
<path d="M194.531 156.943L143.176 127.516L91.8211 156.943V215.784L143.176 245.211L194.531 215.784V156.943Z" stroke="#FFCA72" stroke-opacity="0.7" stroke-width="2"/>
</g>
</g>
<defs>
<clipPath id="clip0_6094_22902">
<rect width="442" height="350" fill="white"/>
</clipPath>
</defs>
</svg>
