<svg width="88" height="104" viewBox="0 0 88 104" fill="none" xmlns="http://www.w3.org/2000/svg">
<path d="M12.5994 43.0301C13.082 43.0301 13.474 42.6382 13.474 42.1556V40.9523C13.474 40.4697 13.082 40.0778 12.5994 40.0778C12.1168 40.0778 11.7249 40.4697 11.7249 40.9523V42.1556C11.7249 42.6397 12.1168 43.0301 12.5994 43.0301Z" fill="#F0AD4E" stroke="#F0AD4E" stroke-width="0.3"/>
<path d="M86.1254 101.42H79.0922V92.3194C82.9317 91.879 85.9347 88.6462 85.9347 84.6913V79.0418C85.9347 74.7862 82.4733 71.3247 78.2177 71.3247C77.2854 71.3247 76.4022 71.5153 75.5731 71.8214V45.0291C75.5731 44.5466 75.1811 44.1546 74.6985 44.1546H65.4844V20.7966C65.4844 20.4538 65.283 20.1423 64.9699 20.0009L23.2213 1.07864C22.9535 0.956043 22.6388 0.977126 22.3874 1.13954C22.1352 1.3004 21.9868 1.57682 21.9868 1.87432V32.2347H12.5994C12.1168 32.2347 11.7249 32.6267 11.7249 33.1093V38.1481C11.7249 38.6307 12.1168 39.0226 12.5994 39.0226C13.082 39.0226 13.474 38.6307 13.474 38.1481V33.9838H21.9868V101.421H13.474V86.225C15.2652 84.8101 16.4388 82.6464 16.4388 80.1921L16.4381 74.545C16.4381 72.0908 15.2644 69.9255 13.4732 68.5105V45.5483C13.4732 45.0657 13.0812 44.6737 12.5986 44.6737C12.1161 44.6737 11.7241 45.0657 11.7241 45.5483V67.437C10.8003 67.0435 9.78446 66.8264 8.71703 66.8264C4.46142 66.8264 1 70.2878 1 74.545V80.1929C1 84.1495 4.00306 87.3798 7.84248 87.821V101.42H3.09412C2.61155 101.42 2.21957 101.812 2.21957 102.295C2.21957 102.777 2.61155 103.169 3.09412 103.169H86.1255C86.608 103.169 87 102.777 87 102.295C87 101.812 86.608 101.422 86.1255 101.422L86.1254 101.42ZM77.3431 92.3202V101.421H75.573V91.9126C76.1344 92.1187 76.7278 92.2499 77.3431 92.3202V92.3202ZM84.1856 79.041V84.6905C84.1856 87.9826 81.5096 90.6584 78.2177 90.6584C74.9258 90.6584 72.2498 87.9824 72.2498 84.6905V79.041C72.2498 75.7489 74.9258 73.073 78.2177 73.073C81.5096 73.073 84.1856 75.7491 84.1856 79.041ZM2.74948 80.1919V74.5441C2.74948 71.2519 5.42551 68.5745 8.71741 68.5745C12.0111 68.5745 14.6885 71.2521 14.6885 74.5441V80.1919C14.6885 83.4841 12.0109 86.1599 8.71741 86.1599C5.42531 86.1591 2.74948 83.4831 2.74948 80.1919ZM9.59196 87.8208C10.3369 87.7349 11.0592 87.5811 11.7245 87.2992V101.42H9.59196V87.8208ZM53.1796 91.0294V101.421H44.609V91.0294H53.1796ZM31.3408 89.2803V87.6085H56.8137V89.2803H31.3408ZM42.8607 91.0294V101.421H34.1729V91.0294H42.8607ZM54.9295 101.42V91.0286H57.6898C58.1724 91.0286 58.5644 90.6366 58.5644 90.154V86.7332C58.5644 86.2506 58.1724 85.8586 57.6898 85.8586H30.4658C29.9833 85.8586 29.5913 86.2506 29.5913 86.7332V90.154C29.5913 90.6366 29.9833 91.0286 30.4658 91.0286H32.4234V101.42H23.7357L23.7349 3.23051L63.7364 21.3602V71.0167C63.7364 71.4992 64.1283 71.8912 64.6109 71.8912C65.0935 71.8912 65.4855 71.4992 65.4855 71.0167V45.9016H73.825V72.7078C71.8206 74.104 70.5017 76.4161 70.5017 79.0381V84.6876C70.5017 87.3097 71.8221 89.6219 73.825 91.018V101.417H65.4855V76.1196C65.4855 75.6371 65.0935 75.2451 64.6109 75.2451C64.1283 75.2451 63.7364 75.6371 63.7364 76.1196V101.419L54.9295 101.42Z" fill="#F0AD4E" stroke="#F0AD4E" stroke-width="0.3"/>
<path d="M38.4417 33.9847C38.9243 33.9847 39.3163 33.5927 39.3163 33.1101V25.902C39.3163 25.4194 38.9243 25.0275 38.4417 25.0275H30.1629C29.6803 25.0275 29.2883 25.4194 29.2883 25.902V33.1101C29.2883 33.5927 29.6803 33.9847 30.1629 33.9847H38.4417ZM31.0374 26.7766H37.5672V32.2356H31.0374V26.7766Z" fill="#F0AD4E" stroke="#F0AD4E" stroke-width="0.3"/>
<path d="M57.3843 33.9847C57.8668 33.9847 58.2588 33.5927 58.2588 33.1101V25.902C58.2588 25.4194 57.8668 25.0275 57.3843 25.0275H42.0967C41.6141 25.0275 41.2222 25.4194 41.2222 25.902V33.1101C41.2222 33.5927 41.6141 33.9847 42.0967 33.9847H57.3843ZM42.9721 26.7766H56.5105V32.2356H42.9721V26.7766Z" fill="#F0AD4E" stroke="#F0AD4E" stroke-width="0.3"/>
<path d="M30.4661 40.5493C29.9835 40.5493 29.5916 40.9413 29.5916 41.4239V48.6304C29.5916 49.113 29.9835 49.5049 30.4661 49.5049H38.7417C39.2243 49.5049 39.6163 49.113 39.6163 48.6304V41.4239C39.6163 40.9413 39.2243 40.5493 38.7417 40.5493H30.4661ZM37.865 47.7558H31.3385V42.2984H37.865V47.7558Z" fill="#F0AD4E" stroke="#F0AD4E" stroke-width="0.3"/>
<path d="M42.4019 40.5493C41.9193 40.5493 41.5273 40.9413 41.5273 41.4239V48.6304C41.5273 49.113 41.9193 49.5049 42.4019 49.5049H57.6894C58.172 49.5049 58.564 49.113 58.564 48.6304V41.4239C58.564 40.9413 58.172 40.5493 57.6894 40.5493H42.4019ZM56.8141 47.7558H43.2756V42.2984H56.8141V47.7558Z" fill="#F0AD4E" stroke="#F0AD4E" stroke-width="0.3"/>
<path d="M38.7393 66.5301C39.2219 66.5301 39.6138 66.1381 39.6138 65.6555V58.449C39.6138 57.9664 39.2219 57.5745 38.7393 57.5745H30.4637C29.9811 57.5745 29.5891 57.9664 29.5891 58.449V65.6555C29.5891 66.1381 29.9811 66.5301 30.4637 66.5301H38.7393ZM31.3404 59.3236H37.8669V64.781H31.3404V59.3236Z" fill="#F0AD4E" stroke="#F0AD4E" stroke-width="0.3"/>
<path d="M57.6902 66.5301C58.1727 66.5301 58.5647 66.1381 58.5647 65.6555V58.449C58.5647 57.9664 58.1727 57.5745 57.6902 57.5745H42.4026C41.9201 57.5745 41.5281 57.9664 41.5281 58.449V65.6555C41.5281 66.1381 41.9201 66.5301 42.4026 66.5301H57.6902ZM43.278 59.3236H56.8164V64.781H43.278V59.3236Z" fill="#F0AD4E" stroke="#F0AD4E" stroke-width="0.3"/>
<path d="M39.0452 73.0967H30.7664C30.2838 73.0967 29.8918 73.4887 29.8918 73.9712V81.1777C29.8918 81.6603 30.2838 82.0523 30.7664 82.0523H39.0452C39.5278 82.0523 39.9198 81.6603 39.9198 81.1777V73.9712C39.9198 73.4863 39.5301 73.0967 39.0452 73.0967ZM38.1707 80.3032H31.6409V74.8458H38.1707V80.3032Z" fill="#F0AD4E" stroke="#F0AD4E" stroke-width="0.3"/>
<path d="M57.9897 73.0967H42.7022C42.2196 73.0967 41.8276 73.4887 41.8276 73.9712V81.1777C41.8276 81.6603 42.2196 82.0523 42.7022 82.0523H57.9897C58.4723 82.0523 58.8643 81.6603 58.8643 81.1777V73.9712C58.8643 73.4863 58.4723 73.0967 57.9897 73.0967ZM57.1152 80.3032H43.5767V74.8458H57.1152V80.3032Z" fill="#F0AD4E" stroke="#F0AD4E" stroke-width="0.3"/>
</svg>
