<svg viewBox="0 0 48 48" fill="none" xmlns="http://www.w3.org/2000/svg">
<path d="M43.5 9.37377L43.5 44.6667C43.5 45.4181 43.2015 46.1388 42.6701 46.6701C42.1388 47.2015 41.4181 47.5 40.6667 47.5H11.3333C10.5819 47.5 9.86122 47.2015 9.32986 46.6701C8.79851 46.1388 8.5 45.4181 8.5 44.6667L8.50001 3.33333C8.50001 2.58189 8.79852 1.86122 9.32987 1.32986C9.86122 0.798511 10.5819 0.5 11.3333 0.5H34.6262L43.5 9.37377Z" fill="#FAFAFA" stroke="#D4D4D4"/>
<rect x="4" y="25" width="36" height="16" rx="2" fill="#69ABCC"/>
<rect x="4" y="25" width="36" height="16" rx="2" stroke="#69ABCC"/>
<path d="M16.718 33.144C16.718 33.78 16.61 34.366 16.394 34.902C16.182 35.434 15.88 35.892 15.488 36.276C15.1 36.66 14.632 36.96 14.084 37.176C13.536 37.392 12.928 37.5 12.26 37.5H8.912V28.794H12.26C12.928 28.794 13.536 28.902 14.084 29.118C14.632 29.334 15.1 29.636 15.488 30.024C15.88 30.408 16.182 30.866 16.394 31.398C16.61 31.93 16.718 32.512 16.718 33.144ZM14.87 33.144C14.87 32.688 14.81 32.278 14.69 31.914C14.57 31.55 14.398 31.242 14.174 30.99C13.95 30.738 13.676 30.544 13.352 30.408C13.032 30.272 12.668 30.204 12.26 30.204H10.724V36.09H12.26C12.668 36.09 13.032 36.024 13.352 35.892C13.676 35.756 13.95 35.562 14.174 35.31C14.398 35.054 14.57 34.744 14.69 34.38C14.81 34.016 14.87 33.604 14.87 33.144ZM26.8129 33.144C26.8129 33.78 26.7049 34.37 26.4889 34.914C26.2769 35.458 25.9749 35.928 25.5829 36.324C25.1949 36.72 24.7269 37.032 24.1789 37.26C23.6309 37.484 23.0229 37.596 22.3549 37.596C21.6869 37.596 21.0789 37.484 20.5309 37.26C19.9829 37.032 19.5129 36.72 19.1209 36.324C18.7289 35.928 18.4249 35.458 18.2089 34.914C17.9969 34.37 17.8909 33.78 17.8909 33.144C17.8909 32.508 17.9969 31.92 18.2089 31.38C18.4249 30.836 18.7289 30.366 19.1209 29.97C19.5129 29.574 19.9829 29.264 20.5309 29.04C21.0789 28.812 21.6869 28.698 22.3549 28.698C23.0229 28.698 23.6309 28.812 24.1789 29.04C24.7269 29.264 25.1949 29.576 25.5829 29.976C25.9749 30.372 26.2769 30.842 26.4889 31.386C26.7049 31.926 26.8129 32.512 26.8129 33.144ZM24.9709 33.144C24.9709 32.688 24.9109 32.28 24.7909 31.92C24.6709 31.556 24.4969 31.248 24.2689 30.996C24.0449 30.74 23.7709 30.546 23.4469 30.414C23.1269 30.278 22.7629 30.21 22.3549 30.21C21.9469 30.21 21.5809 30.278 21.2569 30.414C20.9329 30.546 20.6569 30.74 20.4289 30.996C20.2049 31.248 20.0329 31.556 19.9129 31.92C19.7929 32.28 19.7329 32.688 19.7329 33.144C19.7329 33.604 19.7929 34.016 19.9129 34.38C20.0329 34.74 20.2049 35.046 20.4289 35.298C20.6569 35.55 20.9329 35.744 21.2569 35.88C21.5809 36.012 21.9469 36.078 22.3549 36.078C22.7629 36.078 23.1269 36.012 23.4469 35.88C23.7709 35.744 24.0449 35.55 24.2689 35.298C24.4969 35.046 24.6709 34.74 24.7909 34.38C24.9109 34.016 24.9709 33.604 24.9709 33.144ZM34.4155 35.358C34.5155 35.358 34.5995 35.394 34.6675 35.466L35.3815 36.228C35.0295 36.676 34.5915 37.016 34.0675 37.248C33.5475 37.48 32.9275 37.596 32.2075 37.596C31.5555 37.596 30.9695 37.486 30.4495 37.266C29.9295 37.042 29.4875 36.732 29.1235 36.336C28.7595 35.94 28.4795 35.47 28.2835 34.926C28.0875 34.382 27.9895 33.788 27.9895 33.144C27.9895 32.712 28.0355 32.302 28.1275 31.914C28.2235 31.522 28.3615 31.162 28.5415 30.834C28.7215 30.506 28.9375 30.21 29.1895 29.946C29.4455 29.682 29.7335 29.458 30.0535 29.274C30.3735 29.086 30.7215 28.944 31.0975 28.848C31.4775 28.748 31.8815 28.698 32.3095 28.698C32.6295 28.698 32.9315 28.726 33.2155 28.782C33.5035 28.838 33.7715 28.916 34.0195 29.016C34.2675 29.116 34.4955 29.238 34.7035 29.382C34.9155 29.522 35.1055 29.676 35.2735 29.844L34.6675 30.672C34.6315 30.724 34.5855 30.77 34.5295 30.81C34.4735 30.85 34.3975 30.87 34.3015 30.87C34.2055 30.87 34.1075 30.836 34.0075 30.768C33.9115 30.7 33.7915 30.624 33.6475 30.54C33.5075 30.456 33.3295 30.38 33.1135 30.312C32.9015 30.244 32.6315 30.21 32.3035 30.21C31.9395 30.21 31.6055 30.276 31.3015 30.408C30.9975 30.54 30.7355 30.732 30.5155 30.984C30.2995 31.232 30.1315 31.538 30.0115 31.902C29.8915 32.266 29.8315 32.68 29.8315 33.144C29.8315 33.612 29.8955 34.03 30.0235 34.398C30.1555 34.762 30.3335 35.07 30.5575 35.322C30.7855 35.574 31.0495 35.766 31.3495 35.898C31.6535 36.026 31.9775 36.09 32.3215 36.09C32.5255 36.09 32.7095 36.08 32.8735 36.06C33.0415 36.04 33.1955 36.006 33.3355 35.958C33.4795 35.91 33.6135 35.848 33.7375 35.772C33.8655 35.696 33.9935 35.6 34.1215 35.484C34.1655 35.448 34.2115 35.418 34.2595 35.394C34.3075 35.37 34.3595 35.358 34.4155 35.358Z" fill="white"/>
<path d="M44 10H34.9091C34.4091 10 34 9.59091 34 9.09091V0L44 10Z" fill="#D4D4D4"/>
</svg>
