<svg viewBox="0 0 48 48" fill="none" xmlns="http://www.w3.org/2000/svg">
<path d="M43.5 9.37377L43.5 44.6667C43.5 45.4181 43.2015 46.1388 42.6701 46.6701C42.1388 47.2015 41.4181 47.5 40.6667 47.5H11.3333C10.5819 47.5 9.86122 47.2015 9.32986 46.6701C8.79851 46.1388 8.5 45.4181 8.5 44.6667L8.50001 3.33333C8.50001 2.58189 8.79852 1.86122 9.32987 1.32986C9.86122 0.798511 10.5819 0.5 11.3333 0.5H34.6262L43.5 9.37377Z" fill="#FAFAFA" stroke="#D4D4D4"/>
<rect x="4" y="25" width="36" height="16" rx="2" fill="#ED5D5D"/>
<rect x="4" y="25" width="36" height="16" rx="2" stroke="#ED5D5D"/>
<path d="M12.212 34.506V37.5H10.412V28.794H13.352C13.948 28.794 14.462 28.864 14.894 29.004C15.33 29.144 15.688 29.34 15.968 29.592C16.248 29.84 16.454 30.136 16.586 30.48C16.722 30.824 16.79 31.198 16.79 31.602C16.79 32.03 16.72 32.422 16.58 32.778C16.44 33.134 16.228 33.44 15.944 33.696C15.66 33.952 15.302 34.152 14.87 34.296C14.438 34.436 13.932 34.506 13.352 34.506H12.212ZM12.212 33.126H13.352C13.916 33.126 14.328 32.99 14.588 32.718C14.852 32.446 14.984 32.074 14.984 31.602C14.984 31.386 14.95 31.19 14.882 31.014C14.818 30.834 14.718 30.682 14.582 30.558C14.45 30.43 14.282 30.332 14.078 30.264C13.874 30.196 13.632 30.162 13.352 30.162H12.212V33.126ZM26.1014 33.144C26.1014 33.78 25.9934 34.366 25.7774 34.902C25.5654 35.434 25.2634 35.892 24.8714 36.276C24.4834 36.66 24.0154 36.96 23.4674 37.176C22.9194 37.392 22.3114 37.5 21.6434 37.5H18.2954V28.794H21.6434C22.3114 28.794 22.9194 28.902 23.4674 29.118C24.0154 29.334 24.4834 29.636 24.8714 30.024C25.2634 30.408 25.5654 30.866 25.7774 31.398C25.9934 31.93 26.1014 32.512 26.1014 33.144ZM24.2534 33.144C24.2534 32.688 24.1934 32.278 24.0734 31.914C23.9534 31.55 23.7814 31.242 23.5574 30.99C23.3334 30.738 23.0594 30.544 22.7354 30.408C22.4154 30.272 22.0514 30.204 21.6434 30.204H20.1074V36.09H21.6434C22.0514 36.09 22.4154 36.024 22.7354 35.892C23.0594 35.756 23.3334 35.562 23.5574 35.31C23.7814 35.054 23.9534 34.744 24.0734 34.38C24.1934 34.016 24.2534 33.604 24.2534 33.144ZM33.3283 28.794V30.204H29.5963V32.61H32.7283V34.026H29.5963V37.5H27.7843V28.794H33.3283Z" fill="white"/>
<path d="M44 10H34.9091C34.4091 10 34 9.59091 34 9.09091V0L44 10Z" fill="#D4D4D4"/>
</svg>
