<svg width="15" height="15" viewBox="0 0 15 15" fill="none" xmlns="http://www.w3.org/2000/svg">
<path d="M1.18259 1.30296H1.72205C1.95416 1.30288 2.18084 1.37712 2.37218 1.51588C2.56351 1.65464 2.71052 1.8514 2.79379 2.0802L4.94588 7.99664C4.52462 8.07384 4.14563 8.3138 3.88267 8.66982C3.61972 9.02584 3.49162 9.47245 3.5233 9.92271C3.55498 10.373 3.74419 10.7947 4.05408 11.1058C4.36397 11.4168 4.77239 11.595 5.19983 11.6056H12.0865C12.2387 11.6056 12.3847 11.5417 12.4923 11.4281C12.6 11.3144 12.6604 11.1603 12.6604 10.9996C12.6604 10.8388 12.6 10.6847 12.4923 10.571C12.3847 10.4574 12.2387 10.3935 12.0865 10.3935H5.19983C5.04762 10.3935 4.90165 10.3297 4.79402 10.216C4.6864 10.1024 4.62594 9.94822 4.62594 9.78748C4.62594 9.62675 4.6864 9.47261 4.79402 9.35895C4.90165 9.2453 5.04762 9.18145 5.19983 9.18145H10.4323C11.0353 9.18224 11.6231 8.98242 12.1125 8.61036C12.6018 8.23831 12.9677 7.71292 13.1583 7.1088L14.3534 3.31197C14.382 3.22085 14.3898 3.12385 14.3759 3.02896C14.3621 2.93406 14.3272 2.844 14.2739 2.76617C14.2207 2.68835 14.1507 2.625 14.0697 2.58133C13.9887 2.53767 13.8991 2.51494 13.8082 2.51503H4.18117L3.86409 1.64537C3.69613 1.18909 3.40197 0.796791 3.01992 0.519534C2.63786 0.242277 2.18561 0.0929105 1.72205 0.0908813H1.18259C1.03038 0.0908813 0.88441 0.154732 0.776785 0.268386C0.669159 0.38204 0.608696 0.536188 0.608696 0.696919C0.608696 0.85765 0.669159 1.0118 0.776785 1.12545C0.88441 1.23911 1.03038 1.30296 1.18259 1.30296V1.30296ZM13.0119 3.72711L12.065 6.72548C11.9509 7.08752 11.7318 7.40246 11.4388 7.62571C11.1457 7.84896 10.7936 7.96919 10.4323 7.96937H6.16827L4.62594 3.72711H13.0119Z" fill="#76BB85"/>
<path d="M6.06065 14.6364C6.53608 14.6364 6.92149 14.2294 6.92149 13.7273C6.92149 13.2252 6.53608 12.8182 6.06065 12.8182C5.58522 12.8182 5.19981 13.2252 5.19981 13.7273C5.19981 14.2294 5.58522 14.6364 6.06065 14.6364Z" fill="#76BB85"/>
<path d="M10.0779 14.6364C10.5533 14.6364 10.9387 14.2294 10.9387 13.7273C10.9387 13.2252 10.5533 12.8182 10.0779 12.8182C9.60247 12.8182 9.21706 13.2252 9.21706 13.7273C9.21706 14.2294 9.60247 14.6364 10.0779 14.6364Z" fill="#76BB85"/>
</svg>
