<svg width="21" height="21" viewBox="0 0 21 21" fill="none" xmlns="http://www.w3.org/2000/svg">
<path d="M1.79164 2.58326H2.53578C2.85596 2.58315 3.16864 2.68013 3.43258 2.86138C3.69651 3.04264 3.89929 3.29965 4.01416 3.59852L6.98279 11.3268C6.4017 11.4276 5.87891 11.7411 5.51619 12.2061C5.15346 12.6712 4.97676 13.2545 5.02046 13.8427C5.06417 14.4308 5.32515 14.9817 5.75263 15.388C6.1801 15.7943 6.74348 16.0271 7.33309 16.0409H16.8327C17.0427 16.0409 17.244 15.9575 17.3925 15.8091C17.541 15.6606 17.6244 15.4593 17.6244 15.2493C17.6244 15.0393 17.541 14.838 17.3925 14.6895C17.244 14.5411 17.0427 14.4577 16.8327 14.4577H7.33309C7.12314 14.4577 6.92178 14.3743 6.77332 14.2258C6.62486 14.0774 6.54146 13.876 6.54146 13.666C6.54146 13.4561 6.62486 13.2547 6.77332 13.1063C6.92178 12.9578 7.12314 12.8744 7.33309 12.8744H14.5508C15.3826 12.8754 16.1935 12.6144 16.8685 12.1284C17.5435 11.6425 18.0483 10.9562 18.3111 10.167L19.9597 5.2075C19.9992 5.08848 20.0099 4.96177 19.9908 4.83782C19.9717 4.71387 19.9235 4.59621 19.8501 4.49456C19.7766 4.3929 19.6801 4.31015 19.5684 4.25311C19.4567 4.19608 19.3331 4.1664 19.2076 4.16651H5.92794L5.49056 3.03053C5.25887 2.43452 4.8531 1.92208 4.32608 1.55992C3.79907 1.19776 3.17523 1.00265 2.53578 1H1.79164C1.58168 1 1.38033 1.0834 1.23187 1.23186C1.0834 1.38032 1 1.58167 1 1.79163C1 2.00158 1.0834 2.20293 1.23187 2.35139C1.38033 2.49985 1.58168 2.58326 1.79164 2.58326V2.58326ZM18.1092 5.74977L16.803 9.66634C16.6456 10.1393 16.3434 10.5506 15.9392 10.8423C15.535 11.1339 15.0493 11.2909 14.5508 11.2912H8.66898L6.54146 5.74977H18.1092Z" fill="#7B76BB"/>
<path d="M8.52046 20C9.17628 20 9.70792 19.4684 9.70792 18.8126C9.70792 18.1568 9.17628 17.6251 8.52046 17.6251C7.86465 17.6251 7.33301 18.1568 7.33301 18.8126C7.33301 19.4684 7.86465 20 8.52046 20Z" fill="#7B76BB"/>
<path d="M14.0625 20C14.7183 20 15.2499 19.4684 15.2499 18.8126C15.2499 18.1568 14.7183 17.6251 14.0625 17.6251C13.4066 17.6251 12.875 18.1568 12.875 18.8126C12.875 19.4684 13.4066 20 14.0625 20Z" fill="#7B76BB"/>
</svg>
