<svg width="90" height="27" viewBox="0 0 90 27" fill="none" xmlns="http://www.w3.org/2000/svg">
<path d="M27.7906 15.8098H25.2754L24.8722 17.0002H23.1538L25.5922 10.261H27.493L29.9314 17.0002H28.1938L27.7906 15.8098ZM27.3682 14.5426L26.533 12.0754L25.7074 14.5426H27.3682Z" fill="white"/>
<path d="M33.1983 10.261C33.9087 10.261 34.5295 10.4018 35.0607 10.6834C35.5919 10.965 36.0015 11.3618 36.2895 11.8738C36.5839 12.3794 36.7311 12.965 36.7311 13.6306C36.7311 14.2898 36.5839 14.8754 36.2895 15.3874C36.0015 15.8994 35.5887 16.2962 35.0511 16.5778C34.5199 16.8594 33.9023 17.0002 33.1983 17.0002H30.6735V10.261H33.1983ZM33.0927 15.5794C33.7135 15.5794 34.1967 15.4098 34.5423 15.0706C34.8879 14.7314 35.0607 14.2514 35.0607 13.6306C35.0607 13.0098 34.8879 12.5266 34.5423 12.181C34.1967 11.8354 33.7135 11.6626 33.0927 11.6626H32.3151V15.5794H33.0927Z" fill="white"/>
<path d="M40.1733 10.261C40.8837 10.261 41.5045 10.4018 42.0357 10.6834C42.5669 10.965 42.9765 11.3618 43.2645 11.8738C43.5589 12.3794 43.7061 12.965 43.7061 13.6306C43.7061 14.2898 43.5589 14.8754 43.2645 15.3874C42.9765 15.8994 42.5637 16.2962 42.0261 16.5778C41.4949 16.8594 40.8773 17.0002 40.1733 17.0002H37.6485V10.261H40.1733ZM40.0677 15.5794C40.6885 15.5794 41.1717 15.4098 41.5173 15.0706C41.8629 14.7314 42.0357 14.2514 42.0357 13.6306C42.0357 13.0098 41.8629 12.5266 41.5173 12.181C41.1717 11.8354 40.6885 11.6626 40.0677 11.6626H39.2901V15.5794H40.0677Z" fill="white"/>
<path d="M51.5059 10.261V11.5762H49.7203V17.0002H48.0787V11.5762H46.2931V10.261H51.5059Z" fill="white"/>
<path d="M55.517 17.0674C54.8834 17.0674 54.301 16.9202 53.7698 16.6258C53.245 16.3314 52.8258 15.9218 52.5122 15.397C52.205 14.8658 52.0514 14.2706 52.0514 13.6114C52.0514 12.9522 52.205 12.3602 52.5122 11.8354C52.8258 11.3106 53.245 10.901 53.7698 10.6066C54.301 10.3122 54.8834 10.165 55.517 10.165C56.1506 10.165 56.7298 10.3122 57.2546 10.6066C57.7858 10.901 58.2018 11.3106 58.5026 11.8354C58.8098 12.3602 58.9634 12.9522 58.9634 13.6114C58.9634 14.2706 58.8098 14.8658 58.5026 15.397C58.1954 15.9218 57.7794 16.3314 57.2546 16.6258C56.7298 16.9202 56.1506 17.0674 55.517 17.0674ZM55.517 15.5698C56.0546 15.5698 56.4834 15.3906 56.8034 15.0322C57.1298 14.6738 57.293 14.2002 57.293 13.6114C57.293 13.0162 57.1298 12.5426 56.8034 12.1906C56.4834 11.8322 56.0546 11.653 55.517 11.653C54.973 11.653 54.5378 11.829 54.2114 12.181C53.8914 12.533 53.7314 13.0098 53.7314 13.6114C53.7314 14.2066 53.8914 14.6834 54.2114 15.0418C54.5378 15.3938 54.973 15.5698 55.517 15.5698Z" fill="white"/>
<path d="M61.6326 13.621C61.6326 12.9554 61.7766 12.3634 62.0646 11.845C62.3526 11.3202 62.7526 10.9138 63.2646 10.6258C63.783 10.3314 64.3686 10.1842 65.0214 10.1842C65.8214 10.1842 66.5062 10.3954 67.0758 10.8178C67.6454 11.2402 68.0262 11.8162 68.2182 12.5458H66.4134C66.279 12.2642 66.087 12.0498 65.8374 11.9026C65.5942 11.7554 65.3158 11.6818 65.0022 11.6818C64.4966 11.6818 64.087 11.8578 63.7734 12.2098C63.4598 12.5618 63.303 13.0322 63.303 13.621C63.303 14.2098 63.4598 14.6802 63.7734 15.0322C64.087 15.3842 64.4966 15.5602 65.0022 15.5602C65.3158 15.5602 65.5942 15.4866 65.8374 15.3394C66.087 15.1922 66.279 14.9778 66.4134 14.6962H68.2182C68.0262 15.4258 67.6454 16.0018 67.0758 16.4242C66.5062 16.8402 65.8214 17.0482 65.0214 17.0482C64.3686 17.0482 63.783 16.9042 63.2646 16.6162C62.7526 16.3218 62.3526 15.9154 62.0646 15.397C61.7766 14.8786 61.6326 14.2866 61.6326 13.621Z" fill="white"/>
<path d="M73.4187 15.8098H70.9035L70.5003 17.0002H68.7819L71.2203 10.261H73.1211L75.5595 17.0002H73.8219L73.4187 15.8098ZM72.9963 14.5426L72.1611 12.0754L71.3355 14.5426H72.9963Z" fill="white"/>
<path d="M79.7385 17.0002L78.3369 14.4562H77.9433V17.0002H76.3017V10.261H79.0569C79.5881 10.261 80.0393 10.3538 80.4105 10.5394C80.7881 10.725 81.0697 10.981 81.2553 11.3074C81.4409 11.6274 81.5337 11.9858 81.5337 12.3826C81.5337 12.8306 81.4057 13.2306 81.1497 13.5826C80.9001 13.9346 80.5289 14.1842 80.0361 14.3314L81.5913 17.0002H79.7385ZM77.9433 13.2946H78.9609C79.2617 13.2946 79.4857 13.221 79.6329 13.0738C79.7865 12.9266 79.8633 12.7186 79.8633 12.4498C79.8633 12.1938 79.7865 11.9922 79.6329 11.845C79.4857 11.6978 79.2617 11.6242 78.9609 11.6242H77.9433V13.2946Z" fill="white"/>
<path d="M85.089 10.261C85.7994 10.261 86.4202 10.4018 86.9514 10.6834C87.4826 10.965 87.8922 11.3618 88.1802 11.8738C88.4746 12.3794 88.6218 12.965 88.6218 13.6306C88.6218 14.2898 88.4746 14.8754 88.1802 15.3874C87.8922 15.8994 87.4794 16.2962 86.9418 16.5778C86.4106 16.8594 85.793 17.0002 85.089 17.0002H82.5642V10.261H85.089ZM84.9834 15.5794C85.6042 15.5794 86.0874 15.4098 86.433 15.0706C86.7786 14.7314 86.9514 14.2514 86.9514 13.6306C86.9514 13.0098 86.7786 12.5266 86.433 12.181C86.0874 11.8354 85.6042 11.6626 84.9834 11.6626H84.2058V15.5794H84.9834Z" fill="white"/>
<path d="M0.789096 4.80282H1.53085C1.85 4.80272 2.16168 4.9048 2.42477 5.09559C2.68786 5.28639 2.88999 5.55693 3.00448 5.87153L5.96359 14.0066C5.38436 14.1127 4.86325 14.4427 4.50169 14.9322C4.14013 15.4217 3.96399 16.0358 4.00756 16.6549C4.05112 17.274 4.31127 17.8539 4.73738 18.2816C5.16348 18.7093 5.72504 18.9543 6.31277 18.9689H15.7819C15.9912 18.9689 16.1919 18.8811 16.3399 18.7248C16.4879 18.5685 16.571 18.3566 16.571 18.1356C16.571 17.9146 16.4879 17.7026 16.3399 17.5463C16.1919 17.3901 15.9912 17.3023 15.7819 17.3023H6.31277C6.10349 17.3023 5.90278 17.2145 5.75479 17.0582C5.60681 16.9019 5.52367 16.69 5.52367 16.469C5.52367 16.248 5.60681 16.036 5.75479 15.8798C5.90278 15.7235 6.10349 15.6357 6.31277 15.6357H13.5074C14.3364 15.6368 15.1448 15.362 15.8176 14.8504C16.4904 14.3389 16.9936 13.6165 17.2556 12.7858L18.8988 7.5652C18.9382 7.43991 18.9489 7.30654 18.9299 7.17606C18.9109 7.04558 18.8628 6.92174 18.7896 6.81473C18.7164 6.70773 18.6201 6.62062 18.5088 6.56058C18.3975 6.50054 18.2742 6.4693 18.1492 6.46942H4.91212L4.47615 5.27364C4.2452 4.64626 3.84073 4.10685 3.31541 3.72562C2.79009 3.3444 2.16825 3.13902 1.53085 3.13623H0.789096C0.579815 3.13623 0.379105 3.22402 0.231121 3.3803C0.0831367 3.53657 0 3.74852 0 3.96953C0 4.19053 0.0831367 4.40248 0.231121 4.55876C0.379105 4.71503 0.579815 4.80282 0.789096 4.80282V4.80282ZM17.0543 8.13601L15.7523 12.2587C15.5954 12.7565 15.2942 13.1896 14.8913 13.4966C14.4883 13.8035 14.0042 13.9688 13.5074 13.9691H7.64437L5.52367 8.13601H17.0543Z" fill="white"/>
<path d="M7.49663 23.1366C8.15034 23.1366 8.68028 22.577 8.68028 21.8867C8.68028 21.1963 8.15034 20.6367 7.49663 20.6367C6.84292 20.6367 6.31299 21.1963 6.31299 21.8867C6.31299 22.577 6.84292 23.1366 7.49663 23.1366Z" fill="white"/>
<path d="M13.0201 23.1366C13.6738 23.1366 14.2037 22.577 14.2037 21.8867C14.2037 21.1963 13.6738 20.6367 13.0201 20.6367C12.3664 20.6367 11.8364 21.1963 11.8364 21.8867C11.8364 22.577 12.3664 23.1366 13.0201 23.1366Z" fill="white"/>
</svg>
