<svg width="18" height="18" viewBox="0 0 18 18" fill="none" xmlns="http://www.w3.org/2000/svg">
<path d="M0.749972 1.49993H1.45495C1.75827 1.49983 2.0545 1.5917 2.30455 1.76342C2.55459 1.93513 2.7467 2.17862 2.85552 2.46175L5.66791 9.78327C5.1174 9.8788 4.62213 10.1757 4.27849 10.6163C3.93486 11.0569 3.76745 11.6096 3.80886 12.1668C3.85026 12.7239 4.09751 13.2458 4.50249 13.6308C4.90747 14.0157 5.44119 14.2362 5.99977 14.2493H14.9994C15.1983 14.2493 15.3891 14.1703 15.5297 14.0296C15.6704 13.889 15.7494 13.6982 15.7494 13.4993C15.7494 13.3004 15.6704 13.1097 15.5297 12.969C15.3891 12.8284 15.1983 12.7494 14.9994 12.7494H5.99977C5.80087 12.7494 5.61011 12.6704 5.46946 12.5297C5.32882 12.3891 5.2498 12.1983 5.2498 11.9994C5.2498 11.8005 5.32882 11.6098 5.46946 11.4691C5.61011 11.3285 5.80087 11.2494 5.99977 11.2494H12.8376C13.6256 11.2504 14.3939 11.0032 15.0334 10.5427C15.6728 10.0823 16.151 9.43217 16.4 8.68457L17.9618 3.98605C17.9992 3.87329 18.0093 3.75326 17.9913 3.63583C17.9732 3.5184 17.9275 3.40694 17.858 3.31063C17.7884 3.21433 17.6969 3.13593 17.5911 3.0819C17.4853 3.02786 17.3682 2.99974 17.2493 2.99985H4.66857L4.25421 1.92366C4.03471 1.35902 3.6503 0.873553 3.15103 0.530451C2.65175 0.18735 2.06074 0.00251104 1.45495 0H0.749972C0.551067 0 0.360309 0.0790138 0.219662 0.219659C0.0790147 0.360304 0 0.551061 0 0.749963C0 0.948866 0.0790147 1.13962 0.219662 1.28027C0.360309 1.42091 0.551067 1.49993 0.749972 1.49993V1.49993ZM16.2088 4.49978L14.9713 8.21022C14.8222 8.65824 14.5359 9.04798 14.1529 9.32425C13.77 9.60051 13.3098 9.74929 12.8376 9.74952H7.26535L5.2498 4.49978H16.2088Z" fill="#76BB85"/>
<path d="M7.12447 17.9999C7.74577 17.9999 8.24943 17.4962 8.24943 16.8749C8.24943 16.2537 7.74577 15.75 7.12447 15.75C6.50317 15.75 5.99951 16.2537 5.99951 16.8749C5.99951 17.4962 6.50317 17.9999 7.12447 17.9999Z" fill="#76BB85"/>
<path d="M12.3745 17.9999C12.9958 17.9999 13.4994 17.4962 13.4994 16.8749C13.4994 16.2537 12.9958 15.75 12.3745 15.75C11.7532 15.75 11.2495 16.2537 11.2495 16.8749C11.2495 17.4962 11.7532 17.9999 12.3745 17.9999Z" fill="#76BB85"/>
</svg>
