<svg width="21" height="59" viewBox="0 0 21 59" fill="none" xmlns="http://www.w3.org/2000/svg">
<path d="M1.79164 2.58326H2.53578C2.85596 2.58315 3.16864 2.68013 3.43258 2.86138C3.69651 3.04264 3.89929 3.29965 4.01416 3.59852L6.98279 11.3268C6.4017 11.4276 5.87891 11.7411 5.51619 12.2061C5.15346 12.6712 4.97676 13.2545 5.02046 13.8427C5.06417 14.4308 5.32515 14.9817 5.75263 15.388C6.1801 15.7943 6.74348 16.0271 7.33309 16.0409H16.8327C17.0427 16.0409 17.244 15.9575 17.3925 15.8091C17.541 15.6606 17.6244 15.4593 17.6244 15.2493C17.6244 15.0393 17.541 14.838 17.3925 14.6895C17.244 14.5411 17.0427 14.4577 16.8327 14.4577H7.33309C7.12314 14.4577 6.92178 14.3743 6.77332 14.2258C6.62486 14.0774 6.54146 13.876 6.54146 13.666C6.54146 13.4561 6.62486 13.2547 6.77332 13.1063C6.92178 12.9578 7.12314 12.8744 7.33309 12.8744H14.5508C15.3826 12.8754 16.1935 12.6144 16.8685 12.1284C17.5435 11.6425 18.0483 10.9562 18.3111 10.167L19.9597 5.2075C19.9992 5.08848 20.0099 4.96177 19.9908 4.83782C19.9717 4.71387 19.9235 4.59621 19.8501 4.49456C19.7766 4.3929 19.6801 4.31015 19.5684 4.25311C19.4567 4.19608 19.3331 4.1664 19.2076 4.16651H5.92794L5.49056 3.03053C5.25887 2.43452 4.8531 1.92208 4.32608 1.55992C3.79907 1.19776 3.17523 1.00265 2.53578 1H1.79164C1.58168 1 1.38033 1.0834 1.23187 1.23186C1.0834 1.38032 1 1.58167 1 1.79163C1 2.00158 1.0834 2.20293 1.23187 2.35139C1.38033 2.49985 1.58168 2.58326 1.79164 2.58326V2.58326ZM18.1092 5.74977L16.803 9.66634C16.6456 10.1393 16.3434 10.5506 15.9392 10.8423C15.535 11.1339 15.0493 11.2909 14.5508 11.2912H8.66898L6.54146 5.74977H18.1092Z" fill="#76BB85"/>
<path d="M8.52046 20C9.17628 20 9.70792 19.4684 9.70792 18.8126C9.70792 18.1568 9.17628 17.6251 8.52046 17.6251C7.86465 17.6251 7.33301 18.1568 7.33301 18.8126C7.33301 19.4684 7.86465 20 8.52046 20Z" fill="#76BB85"/>
<path d="M14.0625 20C14.7183 20 15.2499 19.4684 15.2499 18.8126C15.2499 18.1568 14.7183 17.6251 14.0625 17.6251C13.4066 17.6251 12.875 18.1568 12.875 18.8126C12.875 19.4684 13.4066 20 14.0625 20Z" fill="#76BB85"/>
<path d="M1.79164 38.5833H2.53578C2.85596 38.5832 3.16864 38.6801 3.43258 38.8614C3.69651 39.0426 3.89929 39.2997 4.01416 39.5985L6.98279 47.3268C6.4017 47.4276 5.87891 47.7411 5.51619 48.2061C5.15346 48.6712 4.97676 49.2545 5.02046 49.8427C5.06417 50.4308 5.32515 50.9817 5.75263 51.388C6.1801 51.7943 6.74348 52.0271 7.33309 52.0409H16.8327C17.0427 52.0409 17.244 51.9575 17.3925 51.8091C17.541 51.6606 17.6244 51.4593 17.6244 51.2493C17.6244 51.0393 17.541 50.838 17.3925 50.6895C17.244 50.5411 17.0427 50.4577 16.8327 50.4577H7.33309C7.12314 50.4577 6.92178 50.3743 6.77332 50.2258C6.62486 50.0774 6.54146 49.876 6.54146 49.666C6.54146 49.4561 6.62486 49.2547 6.77332 49.1063C6.92178 48.9578 7.12314 48.8744 7.33309 48.8744H14.5508C15.3826 48.8754 16.1935 48.6144 16.8685 48.1284C17.5435 47.6425 18.0483 46.9562 18.3111 46.167L19.9597 41.2075C19.9992 41.0885 20.0099 40.9618 19.9908 40.8378C19.9717 40.7139 19.9235 40.5962 19.8501 40.4946C19.7766 40.3929 19.6801 40.3101 19.5684 40.2531C19.4567 40.1961 19.3331 40.1664 19.2076 40.1665H5.92794L5.49056 39.0305C5.25887 38.4345 4.8531 37.9221 4.32608 37.5599C3.79907 37.1978 3.17523 37.0027 2.53578 37H1.79164C1.58168 37 1.38033 37.0834 1.23187 37.2319C1.0834 37.3803 1 37.5817 1 37.7916C1 38.0016 1.0834 38.2029 1.23187 38.3514C1.38033 38.4999 1.58168 38.5833 1.79164 38.5833V38.5833ZM18.1092 41.7498L16.803 45.6663C16.6456 46.1393 16.3434 46.5506 15.9392 46.8423C15.535 47.1339 15.0493 47.2909 14.5508 47.2912H8.66898L6.54146 41.7498H18.1092Z" fill="#343233"/>
<path d="M8.52046 56C9.17628 56 9.70792 55.4684 9.70792 54.8126C9.70792 54.1568 9.17628 53.6251 8.52046 53.6251C7.86465 53.6251 7.33301 54.1568 7.33301 54.8126C7.33301 55.4684 7.86465 56 8.52046 56Z" fill="#343233"/>
<path d="M14.0625 56C14.7183 56 15.2499 55.4684 15.2499 54.8126C15.2499 54.1568 14.7183 53.6251 14.0625 53.6251C13.4066 53.6251 12.875 54.1568 12.875 54.8126C12.875 55.4684 13.4066 56 14.0625 56Z" fill="#343233"/>
</svg>
