<svg width="40" height="267" viewBox="0 0 40 267" fill="none" xmlns="http://www.w3.org/2000/svg">
<g filter="url(#filter0_d)">
<rect x="7" y="30" width="24" height="24" rx="4" transform="rotate(-90 7 30)" fill="white"/>
</g>
<path d="M19 16.4852L14.766 20.6985C14.362 21.1005 13.707 21.1005 13.303 20.6985C12.899 20.2965 12.899 19.6447 13.303 19.2427L18.2685 14.3015C18.6725 13.8995 19.3275 13.8995 19.7315 14.3015L24.697 19.2427C25.101 19.6447 25.101 20.2965 24.697 20.6985C24.293 21.1005 23.638 21.1005 23.234 20.6985L19 16.4852Z" fill="#8C7EAC"/>
<g filter="url(#filter1_d)">
<rect x="7" y="178" width="24" height="24" rx="4" transform="rotate(-90 7 178)" fill="#8C7EAC"/>
</g>
<path d="M19 164.485L14.766 168.698C14.362 169.101 13.707 169.101 13.303 168.698C12.899 168.296 12.899 167.645 13.303 167.243L18.2685 162.302C18.6725 161.899 19.3275 161.899 19.7315 162.302L24.697 167.243C25.101 167.645 25.101 168.296 24.697 168.698C24.293 169.101 23.638 169.101 23.234 168.698L19 164.485Z" fill="white"/>
<g filter="url(#filter2_d)">
<rect x="31" y="80" width="24" height="24" rx="4" transform="rotate(90 31 80)" fill="white"/>
</g>
<path d="M19 93.5148L23.234 89.3015C23.638 88.8995 24.293 88.8995 24.697 89.3015C25.101 89.7035 25.101 90.3553 24.697 90.7573L19.7315 95.6985C19.3275 96.1005 18.6725 96.1005 18.2685 95.6985L13.303 90.7573C12.899 90.3553 12.899 89.7035 13.303 89.3015C13.707 88.8995 14.362 88.8995 14.766 89.3015L19 93.5148Z" fill="#8C7EAC"/>
<g filter="url(#filter3_d)">
<rect x="31" y="228" width="24" height="24" rx="4" transform="rotate(90 31 228)" fill="#8C7EAC"/>
</g>
<path d="M19 241.515L23.234 237.302C23.638 236.899 24.293 236.899 24.697 237.302C25.101 237.704 25.101 238.355 24.697 238.757L19.7315 243.698C19.3275 244.101 18.6725 244.101 18.2685 243.698L13.303 238.757C12.899 238.355 12.899 237.704 13.303 237.302C13.707 236.899 14.362 236.899 14.766 237.302L19 241.515Z" fill="white"/>
<defs>
<filter id="filter0_d" x="3" y="3" width="34" height="34" filterUnits="userSpaceOnUse" color-interpolation-filters="sRGB">
<feFlood flood-opacity="0" result="BackgroundImageFix"/>
<feColorMatrix in="SourceAlpha" type="matrix" values="0 0 0 0 0 0 0 0 0 0 0 0 0 0 0 0 0 0 127 0"/>
<feOffset dx="1" dy="2"/>
<feGaussianBlur stdDeviation="2.5"/>
<feColorMatrix type="matrix" values="0 0 0 0 0 0 0 0 0 0 0 0 0 0 0 0 0 0 0.1 0"/>
<feBlend mode="normal" in2="BackgroundImageFix" result="effect1_dropShadow"/>
<feBlend mode="normal" in="SourceGraphic" in2="effect1_dropShadow" result="shape"/>
</filter>
<filter id="filter1_d" x="3" y="151" width="34" height="34" filterUnits="userSpaceOnUse" color-interpolation-filters="sRGB">
<feFlood flood-opacity="0" result="BackgroundImageFix"/>
<feColorMatrix in="SourceAlpha" type="matrix" values="0 0 0 0 0 0 0 0 0 0 0 0 0 0 0 0 0 0 127 0"/>
<feOffset dx="1" dy="2"/>
<feGaussianBlur stdDeviation="2.5"/>
<feColorMatrix type="matrix" values="0 0 0 0 0 0 0 0 0 0 0 0 0 0 0 0 0 0 0.1 0"/>
<feBlend mode="normal" in2="BackgroundImageFix" result="effect1_dropShadow"/>
<feBlend mode="normal" in="SourceGraphic" in2="effect1_dropShadow" result="shape"/>
</filter>
<filter id="filter2_d" x="3" y="77" width="34" height="34" filterUnits="userSpaceOnUse" color-interpolation-filters="sRGB">
<feFlood flood-opacity="0" result="BackgroundImageFix"/>
<feColorMatrix in="SourceAlpha" type="matrix" values="0 0 0 0 0 0 0 0 0 0 0 0 0 0 0 0 0 0 127 0"/>
<feOffset dx="1" dy="2"/>
<feGaussianBlur stdDeviation="2.5"/>
<feColorMatrix type="matrix" values="0 0 0 0 0 0 0 0 0 0 0 0 0 0 0 0 0 0 0.1 0"/>
<feBlend mode="normal" in2="BackgroundImageFix" result="effect1_dropShadow"/>
<feBlend mode="normal" in="SourceGraphic" in2="effect1_dropShadow" result="shape"/>
</filter>
<filter id="filter3_d" x="3" y="225" width="34" height="34" filterUnits="userSpaceOnUse" color-interpolation-filters="sRGB">
<feFlood flood-opacity="0" result="BackgroundImageFix"/>
<feColorMatrix in="SourceAlpha" type="matrix" values="0 0 0 0 0 0 0 0 0 0 0 0 0 0 0 0 0 0 127 0"/>
<feOffset dx="1" dy="2"/>
<feGaussianBlur stdDeviation="2.5"/>
<feColorMatrix type="matrix" values="0 0 0 0 0 0 0 0 0 0 0 0 0 0 0 0 0 0 0.1 0"/>
<feBlend mode="normal" in2="BackgroundImageFix" result="effect1_dropShadow"/>
<feBlend mode="normal" in="SourceGraphic" in2="effect1_dropShadow" result="shape"/>
</filter>
</defs>
</svg>
