<svg width="38" height="146" viewBox="0 0 38 146" fill="none" xmlns="http://www.w3.org/2000/svg">
<rect width="38" height="146" fill="white"/>
<g filter="url(#filter0_d)">
<rect x="7" y="30" width="24" height="24" rx="4" transform="rotate(-90 7 30)" fill="white"/>
</g>
<path d="M19 16.4852L14.766 20.6985C14.362 21.1005 13.707 21.1005 13.303 20.6985C12.899 20.2965 12.899 19.6447 13.303 19.2427L18.2685 14.3015C18.6725 13.8995 19.3275 13.8995 19.7315 14.3015L24.697 19.2427C25.101 19.6447 25.101 20.2965 24.697 20.6985C24.293 21.1005 23.638 21.1005 23.234 20.6985L19 16.4852Z" fill="#8C7EAC"/>
<g filter="url(#filter1_d)">
<rect x="7" y="102" width="24" height="24" rx="4" transform="rotate(-90 7 102)" fill="#8C7EAC"/>
</g>
<path d="M19 88.4852L14.766 92.6985C14.362 93.1005 13.707 93.1005 13.303 92.6985C12.899 92.2965 12.899 91.6447 13.303 91.2427L18.2685 86.3015C18.6725 85.8995 19.3275 85.8995 19.7315 86.3015L24.697 91.2427C25.101 91.6447 25.101 92.2965 24.697 92.6985C24.293 93.1005 23.638 93.1005 23.234 92.6985L19 88.4852Z" fill="white"/>
<g filter="url(#filter2_d)">
<rect x="31" y="42" width="24" height="24" rx="4" transform="rotate(90 31 42)" fill="white"/>
</g>
<path d="M19 55.5148L23.234 51.3015C23.638 50.8995 24.293 50.8995 24.697 51.3015C25.101 51.7035 25.101 52.3553 24.697 52.7573L19.7315 57.6985C19.3275 58.1005 18.6725 58.1005 18.2685 57.6985L13.303 52.7573C12.899 52.3553 12.899 51.7035 13.303 51.3015C13.707 50.8995 14.362 50.8995 14.766 51.3015L19 55.5148Z" fill="#8C7EAC"/>
<g filter="url(#filter3_d)">
<rect x="31" y="114" width="24" height="24" rx="4" transform="rotate(90 31 114)" fill="#8C7EAC"/>
</g>
<path d="M19 127.515L23.234 123.302C23.638 122.899 24.293 122.899 24.697 123.302C25.101 123.704 25.101 124.355 24.697 124.757L19.7315 129.698C19.3275 130.101 18.6725 130.101 18.2685 129.698L13.303 124.757C12.899 124.355 12.899 123.704 13.303 123.302C13.707 122.899 14.362 122.899 14.766 123.302L19 127.515Z" fill="white"/>
<defs>
<filter id="filter0_d" x="3" y="3" width="34" height="34" filterUnits="userSpaceOnUse" color-interpolation-filters="sRGB">
<feFlood flood-opacity="0" result="BackgroundImageFix"/>
<feColorMatrix in="SourceAlpha" type="matrix" values="0 0 0 0 0 0 0 0 0 0 0 0 0 0 0 0 0 0 127 0"/>
<feOffset dx="1" dy="2"/>
<feGaussianBlur stdDeviation="2.5"/>
<feColorMatrix type="matrix" values="0 0 0 0 0 0 0 0 0 0 0 0 0 0 0 0 0 0 0.1 0"/>
<feBlend mode="normal" in2="BackgroundImageFix" result="effect1_dropShadow"/>
<feBlend mode="normal" in="SourceGraphic" in2="effect1_dropShadow" result="shape"/>
</filter>
<filter id="filter1_d" x="3" y="75" width="34" height="34" filterUnits="userSpaceOnUse" color-interpolation-filters="sRGB">
<feFlood flood-opacity="0" result="BackgroundImageFix"/>
<feColorMatrix in="SourceAlpha" type="matrix" values="0 0 0 0 0 0 0 0 0 0 0 0 0 0 0 0 0 0 127 0"/>
<feOffset dx="1" dy="2"/>
<feGaussianBlur stdDeviation="2.5"/>
<feColorMatrix type="matrix" values="0 0 0 0 0 0 0 0 0 0 0 0 0 0 0 0 0 0 0.1 0"/>
<feBlend mode="normal" in2="BackgroundImageFix" result="effect1_dropShadow"/>
<feBlend mode="normal" in="SourceGraphic" in2="effect1_dropShadow" result="shape"/>
</filter>
<filter id="filter2_d" x="3" y="39" width="34" height="34" filterUnits="userSpaceOnUse" color-interpolation-filters="sRGB">
<feFlood flood-opacity="0" result="BackgroundImageFix"/>
<feColorMatrix in="SourceAlpha" type="matrix" values="0 0 0 0 0 0 0 0 0 0 0 0 0 0 0 0 0 0 127 0"/>
<feOffset dx="1" dy="2"/>
<feGaussianBlur stdDeviation="2.5"/>
<feColorMatrix type="matrix" values="0 0 0 0 0 0 0 0 0 0 0 0 0 0 0 0 0 0 0.1 0"/>
<feBlend mode="normal" in2="BackgroundImageFix" result="effect1_dropShadow"/>
<feBlend mode="normal" in="SourceGraphic" in2="effect1_dropShadow" result="shape"/>
</filter>
<filter id="filter3_d" x="3" y="111" width="34" height="34" filterUnits="userSpaceOnUse" color-interpolation-filters="sRGB">
<feFlood flood-opacity="0" result="BackgroundImageFix"/>
<feColorMatrix in="SourceAlpha" type="matrix" values="0 0 0 0 0 0 0 0 0 0 0 0 0 0 0 0 0 0 127 0"/>
<feOffset dx="1" dy="2"/>
<feGaussianBlur stdDeviation="2.5"/>
<feColorMatrix type="matrix" values="0 0 0 0 0 0 0 0 0 0 0 0 0 0 0 0 0 0 0.1 0"/>
<feBlend mode="normal" in2="BackgroundImageFix" result="effect1_dropShadow"/>
<feBlend mode="normal" in="SourceGraphic" in2="effect1_dropShadow" result="shape"/>
</filter>
</defs>
</svg>
