<svg width="18" height="18" viewBox="0 0 18 18" fill="none" xmlns="http://www.w3.org/2000/svg">
<g clip-path="url(#clip0)">
<path d="M3.27273 17.9998C3.70672 17.9998 4.12293 17.8274 4.42981 17.5205C4.73669 17.2137 4.90909 16.7974 4.90909 16.3635V9.818C4.90909 9.38401 4.73669 8.9678 4.42981 8.66092C4.12293 8.35404 3.70672 8.18164 3.27273 8.18164H1.63636C1.20237 8.18164 0.786157 8.35404 0.479279 8.66092C0.172402 8.9678 0 9.38401 0 9.818V16.3635C0 16.7974 0.172402 17.2137 0.479279 17.5205C0.786157 17.8274 1.20237 17.9998 1.63636 17.9998H3.27273ZM1.63636 9.818H3.27273V16.3635H1.63636V9.818Z" fill="#343233"/>
<path d="M9.81814 18C10.2521 18 10.6683 17.8276 10.9752 17.5207C11.2821 17.2138 11.4545 16.7976 11.4545 16.3636V1.63636C11.4545 1.20237 11.2821 0.786157 10.9752 0.479279C10.6683 0.172402 10.2521 0 9.81814 0H8.18177C7.74778 0 7.33157 0.172402 7.02469 0.479279C6.71781 0.786157 6.54541 1.20237 6.54541 1.63636V16.3636C6.54541 16.7976 6.71781 17.2138 7.02469 17.5207C7.33157 17.8276 7.74778 18 8.18177 18H9.81814ZM8.18177 1.63636H9.81814V16.3636H8.18177V1.63636Z" fill="#343233"/>
<path d="M16.3635 18.0001C16.7975 18.0001 17.2137 17.8277 17.5206 17.5208C17.8275 17.2139 17.9999 16.7977 17.9999 16.3637V6.54554C17.9999 6.11155 17.8275 5.69534 17.5206 5.38846C17.2137 5.08158 16.7975 4.90918 16.3635 4.90918H14.7272C14.2932 4.90918 13.877 5.08158 13.5701 5.38846C13.2632 5.69534 13.0908 6.11155 13.0908 6.54554V16.3637C13.0908 16.7977 13.2632 17.2139 13.5701 17.5208C13.877 17.8277 14.2932 18.0001 14.7272 18.0001H16.3635ZM14.7272 6.54554H16.3635V16.3637H14.7272V6.54554Z" fill="#343233"/>
</g>
<defs>
<clipPath id="clip0">
<rect width="18" height="18" fill="white"/>
</clipPath>
</defs>
</svg>
