<svg width="21" height="21" viewBox="0 0 21 21" fill="none" xmlns="http://www.w3.org/2000/svg">
<rect width="21" height="21" fill="white"/>
<path d="M4.45454 19.9999C4.91264 19.9999 5.35198 19.8179 5.67591 19.494C5.99983 19.17 6.18181 18.7307 6.18181 18.2726V11.3635C6.18181 10.9054 5.99983 10.4661 5.67591 10.1421C5.35198 9.81821 4.91264 9.63623 4.45454 9.63623H2.72727C2.26917 9.63623 1.82983 9.81821 1.50591 10.1421C1.18198 10.4661 1 10.9054 1 11.3635V18.2726C1 18.7307 1.18198 19.17 1.50591 19.494C1.82983 19.8179 2.26917 19.9999 2.72727 19.9999H4.45454ZM2.72727 11.3635H4.45454V18.2726H2.72727V11.3635Z" fill="#343233"/>
<path d="M11.3637 20C11.8218 20 12.2612 19.818 12.5851 19.4941C12.909 19.1702 13.091 18.7308 13.091 18.2727V2.72727C13.091 2.26917 12.909 1.82983 12.5851 1.50591C12.2612 1.18198 11.8218 1 11.3637 1H9.63645C9.17835 1 8.73901 1.18198 8.41509 1.50591C8.09116 1.82983 7.90918 2.26917 7.90918 2.72727V18.2727C7.90918 18.7308 8.09116 19.1702 8.41509 19.4941C8.73901 19.818 9.17835 20 9.63645 20H11.3637ZM9.63645 2.72727H11.3637V18.2727H9.63645V2.72727Z" fill="#343233"/>
<path d="M18.2724 20.0003C18.7305 20.0003 19.1699 19.8183 19.4938 19.4944C19.8177 19.1705 19.9997 18.7311 19.9997 18.273V7.9094C19.9997 7.4513 19.8177 7.01196 19.4938 6.68804C19.1699 6.36411 18.7305 6.18213 18.2724 6.18213H16.5451C16.087 6.18213 15.6477 6.36411 15.3238 6.68804C14.9999 7.01196 14.8179 7.4513 14.8179 7.9094V18.273C14.8179 18.7311 14.9999 19.1705 15.3238 19.4944C15.6477 19.8183 16.087 20.0003 16.5451 20.0003H18.2724ZM16.5451 7.9094H18.2724V18.273H16.5451V7.9094Z" fill="#343233"/>
</svg>
