<svg width="456" height="30" viewBox="0 0 456 30" fill="none" xmlns="http://www.w3.org/2000/svg">
<path d="M1.77205 29.2417V28.4457H1.56456L1.32445 28.9924L1.08564 28.4457H0.876845V29.2417H1.02431V28.6414L1.24876 29.1595H1.40144L1.6259 28.6401V29.2417H1.77205ZM0.455339 29.2417V28.5814H0.721553V28.447H0.0429688V28.5814H0.309183V29.2417H0.455339Z" fill="#F79410"/>
<path d="M135.477 22.8563H130.68L133.68 4.33569H138.477L135.477 22.8563Z" fill="white" fill-opacity="0.5"/>
<path d="M152.867 4.7885C151.921 4.41376 150.42 4 148.564 4C143.827 4 140.491 6.52182 140.47 10.1273C140.431 12.7874 142.859 14.2648 144.675 15.1518C146.53 16.0581 147.161 16.6497 147.161 17.4576C147.143 18.6983 145.662 19.2702 144.281 19.2702C142.365 19.2702 141.339 18.9754 139.78 18.2851L139.148 17.9892L138.477 22.1466C139.602 22.6583 141.675 23.1124 143.827 23.1323C148.86 23.1323 152.137 20.6495 152.176 16.8073C152.195 14.699 150.913 13.0835 148.149 11.7634C146.471 10.916 145.444 10.3446 145.444 9.47756C145.464 8.68933 146.313 7.88198 148.207 7.88198C149.767 7.84244 150.912 8.21665 151.78 8.59113L152.214 8.78779L152.867 4.7885V4.7885Z" fill="white" fill-opacity="0.5"/>
<path d="M159.242 16.2951C159.637 15.2311 161.158 11.1132 161.158 11.1132C161.138 11.1527 161.552 10.0296 161.789 9.34006L162.124 10.9359C162.124 10.9359 163.032 15.3691 163.23 16.2951C162.48 16.2951 160.19 16.2951 159.242 16.2951ZM165.164 4.33569H161.453C160.309 4.33569 159.44 4.67037 158.946 5.87235L151.82 22.856H156.854C156.854 22.856 157.683 20.5702 157.861 20.0778C158.413 20.0778 163.309 20.0778 164.02 20.0778C164.158 20.7281 164.592 22.856 164.592 22.856H169.034L165.164 4.33569V4.33569Z" fill="white" fill-opacity="0.5"/>
<path fill-rule="evenodd" clip-rule="evenodd" d="M109.895 4.33545H117.614C118.66 4.37447 119.509 4.7094 119.785 5.89227L121.46 14.3908C121.461 14.395 121.462 14.3992 121.464 14.4034L121.977 16.9647L126.675 4.33545H131.748L124.207 22.8364H119.135L114.859 6.74438C113.383 5.88305 111.699 5.19034 109.816 4.70966L109.895 4.33545Z" fill="white" fill-opacity="0.5"/>
<circle cx="58.936" cy="13.936" r="13.936" fill="white" fill-opacity="0.5"/>
<circle cx="77.9711" cy="13.936" r="13.936" fill="white" fill-opacity="0.5"/>
<path fill-rule="evenodd" clip-rule="evenodd" d="M234.78 12.2225V4H239.482H239.483H250.634V8.47847H244.206V11.337H250.634V15.6465H244.206V19.601H250.634V24.0918H239.483V24.0936H234.779V22.7928H234.727C233.868 24.0672 232.462 24.8224 230.927 24.8224C227.369 24.8224 224.775 21.9516 224.371 18.623H215.058C215.058 20.1061 216.295 21.3569 217.729 21.3569C218.965 21.3569 219.435 21.0954 220.053 20.2109H224.627C223.43 23.1515 221.165 24.7649 217.729 24.7649C213.643 24.7649 210.44 21.8233 210.44 17.6327C210.44 16.9313 210.525 16.2667 210.684 15.6465H205.364V24.0918H200.027V4H211.898V8.47847H205.364V11.337H211.351V13.9699C212.545 11.8515 214.832 10.5516 217.729 10.5516C221.295 10.5516 223.701 12.4292 224.635 15.4917C225.452 12.7124 227.782 10.6091 230.875 10.6091C232.384 10.6091 233.685 11.0255 234.728 12.2225H234.78ZM217.73 13.5961C216.494 13.5961 215.504 14.4296 215.207 15.706H220.277C220.029 14.4041 219.09 13.5961 217.73 13.5961ZM229.111 17.73C229.111 19.4169 230.19 21.0331 231.924 21.0331C233.821 21.0331 234.642 19.4396 234.642 17.73C234.642 15.9269 233.868 14.1927 231.924 14.1927C230.049 14.1927 229.111 15.9269 229.111 17.73ZM256.624 11.3371L259.435 14.4354L262.142 11.3371H267.921L262.273 17.6885L267.999 24.0918H261.986L259.201 20.969L256.441 24.0918H250.635L256.311 17.7149L250.635 11.3371H256.624Z" fill="white" fill-opacity="0.5"/>
<path d="M326.406 13.4617C326.034 13.9639 325.413 14.8368 325.035 15.3467C324.843 15.6059 324.496 16.0767 325.646 16.0767C326.862 16.0767 331.698 16.0767 331.698 16.0767C331.698 16.0767 332.674 14.7518 333.492 13.6438C334.604 12.1364 333.588 9 329.611 9C326.051 9 313.949 9 313.949 9L311.233 12.6834C311.233 12.6834 325.311 12.6834 326.034 12.6834C326.781 12.6834 326.771 12.9673 326.406 13.4617ZM321.959 16.9854C320.81 16.9854 321.156 16.5136 321.348 16.2544C321.727 15.7445 322.358 14.8807 322.73 14.3786C323.095 13.8842 323.105 13.6003 322.357 13.6003C321.635 13.6003 315.588 13.6003 315.588 13.6003L310.134 21C310.134 21 319.875 21 323.434 21C327.827 21 330.273 18.0171 331.027 16.9858C331.027 16.9854 323.175 16.9854 321.959 16.9854ZM330.612 21H338.414L341.372 16.9849L333.571 16.9858C333.568 16.9854 330.612 21 330.612 21ZM350.743 9L347.751 13.0581H344.268L347.26 9H339.459L334.241 16.0767H353.326L358.543 9H350.743ZM341.897 21H349.696L352.656 16.9858H344.856C344.853 16.9854 341.897 21 341.897 21ZM299 18.569V19.4217H309.867L310.494 18.569H299ZM311.662 16.9854H299V17.837H311.033L311.662 16.9854ZM299 21H308.702L309.327 20.1522H299V21ZM372.549 19.4212H384V18.5685H373.178L372.549 19.4212ZM371.386 21H384V20.1522H372.01L371.386 21ZM374.344 16.9854L373.717 17.838H384V16.9854H374.344V16.9854ZM364.127 16.0767L369.345 9H361.084C361.081 9 355.862 16.0767 355.862 16.0767H364.127ZM355.193 16.9854C355.193 16.9854 354.623 17.7632 354.346 18.1378C353.367 19.4588 354.233 21 357.43 21C361.123 21 369.957 21 369.957 21L372.916 16.9858H355.193V16.9854Z" fill="white" fill-opacity="0.5"/>
</svg>
