<svg width="21" height="21" viewBox="0 0 21 21" fill="none" xmlns="http://www.w3.org/2000/svg">
<rect width="21" height="21" fill="white"/>
<path d="M13.4044 11.2915H5.1346C4.67976 11.2915 4.30762 11.6478 4.30762 12.0832C4.30762 12.5186 4.67976 12.8748 5.1346 12.8748H13.4044C13.8592 12.8748 14.2314 12.5186 14.2314 12.0832C14.2314 11.6478 13.8592 11.2915 13.4044 11.2915Z" fill="#343233"/>
<path d="M9.2695 14.459H5.1346C4.67976 14.459 4.30762 14.8152 4.30762 15.2507C4.30762 15.6861 4.67976 16.0423 5.1346 16.0423H9.2695C9.72434 16.0423 10.0965 15.6861 10.0965 15.2507C10.0965 14.8152 9.72434 14.459 9.2695 14.459Z" fill="#343233"/>
<path d="M5.1346 9.70833H13.4044C13.8592 9.70833 14.2314 9.35208 14.2314 8.91667C14.2314 8.48125 13.8592 8.125 13.4044 8.125H5.1346C4.67976 8.125 4.30762 8.48125 4.30762 8.91667C4.30762 9.35208 4.67976 9.70833 5.1346 9.70833Z" fill="#343233"/>
<path d="M19.1731 14.459H17.5192V12.8757C17.5192 12.4402 17.147 12.084 16.6922 12.084C16.2374 12.084 15.8652 12.4402 15.8652 12.8757V14.459H14.2113C13.7564 14.459 13.3843 14.8152 13.3843 15.2507C13.3843 15.6861 13.7564 16.0423 14.2113 16.0423H15.8652V17.6257C15.8652 18.0611 16.2374 18.4173 16.6922 18.4173C17.147 18.4173 17.5192 18.0611 17.5192 17.6257V16.0423H19.1731C19.628 16.0423 20.0001 15.6861 20.0001 15.2507C20.0001 14.8152 19.628 14.459 19.1731 14.459Z" fill="#343233"/>
<path d="M17.5396 4.95833C17.5396 3.65208 16.4232 2.58333 15.0587 2.58333H14.2317V1.79167C14.2317 1.35625 13.8596 1 13.4047 1C12.9499 1 12.5777 1.35625 12.5777 1.79167V2.58333H10.0968V1.79167C10.0968 1.35625 9.72465 1 9.26981 1C8.81497 1 8.44283 1.35625 8.44283 1.79167V2.58333H5.96188V1.79167C5.96188 1.35625 5.58974 1 5.1349 1C4.68006 1 4.30792 1.35625 4.30792 1.79167V2.58333H3.48094C2.11642 2.58333 1 3.65208 1 4.95833V17.625C1 18.9313 2.11642 20 3.48094 20H9.5179C9.53858 20 9.55925 20 9.6006 20H14.5625C15.0173 20 15.3895 19.6438 15.3895 19.2083C15.3895 18.7729 15.0173 18.4167 14.5625 18.4167C14.5625 18.4167 13.0326 18.4167 12.9912 18.4167H3.48094C3.0261 18.4167 2.65396 18.0604 2.65396 17.625V4.95833C2.65396 4.52292 3.0261 4.16667 3.48094 4.16667H4.30792V4.95833C4.30792 5.39375 4.68006 5.75 5.1349 5.75C5.58974 5.75 5.96188 5.39375 5.96188 4.95833V4.16667H8.44283V4.95833C8.44283 5.39375 8.81497 5.75 9.26981 5.75C9.72465 5.75 10.0968 5.39375 10.0968 4.95833V4.16667H12.5777V4.95833C12.5777 5.39375 12.9499 5.75 13.4047 5.75C13.8596 5.75 14.2317 5.39375 14.2317 4.95833V4.16667H15.0587C15.5135 4.16667 15.8857 4.52292 15.8857 4.95833V5.43333C15.8857 5.47292 15.865 5.5125 15.865 5.55208V10.3021C15.865 10.7375 16.2371 11.0938 16.692 11.0938C17.1468 11.0938 17.5189 10.7375 17.5189 10.3021L17.5396 4.95833Z" fill="#343233"/>
</svg>
