<svg width="18" height="18" viewBox="0 0 18 18" fill="none" xmlns="http://www.w3.org/2000/svg">
<path d="M11.4461 9.74951H4.48205C4.09903 9.74951 3.78564 10.087 3.78564 10.4995C3.78564 10.912 4.09903 11.2495 4.48205 11.2495H11.4461C11.8292 11.2495 12.1426 10.912 12.1426 10.4995C12.1426 10.087 11.8292 9.74951 11.4461 9.74951Z" fill="white"/>
<path d="M7.9641 12.7505H4.48205C4.09903 12.7505 3.78564 13.088 3.78564 13.5005C3.78564 13.913 4.09903 14.2505 4.48205 14.2505H7.9641C8.34712 14.2505 8.66051 13.913 8.66051 13.5005C8.66051 13.088 8.34712 12.7505 7.9641 12.7505Z" fill="white"/>
<path d="M4.48205 8.25H11.4461C11.8292 8.25 12.1426 7.9125 12.1426 7.5C12.1426 7.0875 11.8292 6.75 11.4461 6.75H4.48205C4.09903 6.75 3.78564 7.0875 3.78564 7.5C3.78564 7.9125 4.09903 8.25 4.48205 8.25Z" fill="white"/>
<path d="M16.3036 12.7505H14.9108V11.2505C14.9108 10.838 14.5974 10.5005 14.2143 10.5005C13.8313 10.5005 13.5179 10.838 13.5179 11.2505V12.7505H12.1251C11.7421 12.7505 11.4287 13.088 11.4287 13.5005C11.4287 13.913 11.7421 14.2505 12.1251 14.2505H13.5179V15.7505C13.5179 16.163 13.8313 16.5005 14.2143 16.5005C14.5974 16.5005 14.9108 16.163 14.9108 15.7505V14.2505H16.3036C16.6866 14.2505 17 13.913 17 13.5005C17 13.088 16.6866 12.7505 16.3036 12.7505Z" fill="white"/>
<path d="M14.9282 3.75C14.9282 2.5125 13.988 1.5 12.839 1.5H12.1425V0.75C12.1425 0.3375 11.8292 0 11.4461 0C11.0631 0 10.7497 0.3375 10.7497 0.75V1.5H8.6605V0.75C8.6605 0.3375 8.34712 0 7.96409 0C7.58107 0 7.26768 0.3375 7.26768 0.75V1.5H5.17845V0.75C5.17845 0.3375 4.86507 0 4.48205 0C4.09902 0 3.78564 0.3375 3.78564 0.75V1.5H3.08923C1.94015 1.5 1 2.5125 1 3.75V15.75C1 16.9875 1.94015 18 3.08923 18H8.17301C8.19042 18 8.20783 18 8.24266 18H12.4211C12.8041 18 13.1175 17.6625 13.1175 17.25C13.1175 16.8375 12.8041 16.5 12.4211 16.5C12.4211 16.5 11.1328 16.5 11.0979 16.5H3.08923C2.7062 16.5 2.39282 16.1625 2.39282 15.75V3.75C2.39282 3.3375 2.7062 3 3.08923 3H3.78564V3.75C3.78564 4.1625 4.09902 4.5 4.48205 4.5C4.86507 4.5 5.17845 4.1625 5.17845 3.75V3H7.26768V3.75C7.26768 4.1625 7.58107 4.5 7.96409 4.5C8.34712 4.5 8.6605 4.1625 8.6605 3.75V3H10.7497V3.75C10.7497 4.1625 11.0631 4.5 11.4461 4.5C11.8292 4.5 12.1425 4.1625 12.1425 3.75V3H12.839C13.222 3 13.5354 3.3375 13.5354 3.75V4.2C13.5354 4.2375 13.518 4.275 13.518 4.3125V8.8125C13.518 9.225 13.8313 9.5625 14.2144 9.5625C14.5974 9.5625 14.9108 9.225 14.9108 8.8125L14.9282 3.75Z" fill="white"/>
</svg>
