<svg width="42" height="42" viewBox="0 0 42 42" fill="none" xmlns="http://www.w3.org/2000/svg">
<g filter="url(#filter0_d)">
<circle cx="20" cy="19" r="15" fill="white"/>
</g>
<path d="M22.9937 19.8242H17.0584C16.7319 19.8242 16.4648 20.0888 16.4648 20.4121C16.4648 20.7354 16.7319 21 17.0584 21H22.9937C23.3201 21 23.5872 20.7354 23.5872 20.4121C23.5872 20.0888 23.3201 19.8242 22.9937 19.8242Z" fill="black"/>
<path d="M20.026 22.1758H17.0584C16.7319 22.1758 16.4648 22.4403 16.4648 22.7637C16.4648 23.087 16.7319 23.3515 17.0584 23.3515H20.026C20.3525 23.3515 20.6196 23.087 20.6196 22.7637C20.6196 22.4403 20.3525 22.1758 20.026 22.1758Z" fill="black"/>
<path d="M17.0584 18.6484H22.9937C23.3201 18.6484 23.5872 18.3839 23.5872 18.0605C23.5872 17.7372 23.3201 17.4727 22.9937 17.4727H17.0584C16.7319 17.4727 16.4648 17.7372 16.4648 18.0605C16.4648 18.3839 16.7319 18.6484 17.0584 18.6484Z" fill="black"/>
<path d="M27.1337 22.1757H25.9467V21C25.9467 20.6767 25.6796 20.4121 25.3531 20.4121C25.0267 20.4121 24.7596 20.6767 24.7596 21V22.1757H23.5725C23.2461 22.1757 22.979 22.4403 22.979 22.7636C22.979 23.087 23.2461 23.3515 23.5725 23.3515H24.7596V24.5273C24.7596 24.8506 25.0267 25.1151 25.3531 25.1151C25.6796 25.1151 25.9467 24.8506 25.9467 24.5273V23.3515H27.1337C27.4602 23.3515 27.7272 23.087 27.7272 22.7636C27.7272 22.4403 27.4602 22.1757 27.1337 22.1757Z" fill="black"/>
<path d="M25.9614 15.121C25.9614 14.151 25.1602 13.3574 24.1808 13.3574H23.5873V12.7695C23.5873 12.4462 23.3202 12.1816 22.9938 12.1816C22.6673 12.1816 22.4003 12.4462 22.4003 12.7695V13.3574H20.6197V12.7695C20.6197 12.4462 20.3526 12.1816 20.0261 12.1816C19.6997 12.1816 19.4326 12.4462 19.4326 12.7695V13.3574H17.652V12.7695C17.652 12.4462 17.3849 12.1816 17.0585 12.1816C16.732 12.1816 16.4649 12.4462 16.4649 12.7695V13.3574H15.8714C14.8921 13.3574 14.0908 14.151 14.0908 15.121V24.5271C14.0908 25.4971 14.8921 26.2907 15.8714 26.2907H20.2042C20.219 26.2907 20.2339 26.2907 20.2635 26.2907H23.8247C24.1512 26.2907 24.4183 26.0262 24.4183 25.7028C24.4183 25.3795 24.1512 25.115 23.8247 25.115C23.8247 25.115 22.7267 25.115 22.697 25.115H15.8714C15.545 25.115 15.2779 24.8504 15.2779 24.5271V15.121C15.2779 14.7977 15.545 14.5332 15.8714 14.5332H16.4649V15.121C16.4649 15.4444 16.732 15.7089 17.0585 15.7089C17.3849 15.7089 17.652 15.4444 17.652 15.121V14.5332H19.4326V15.121C19.4326 15.4444 19.6997 15.7089 20.0261 15.7089C20.3526 15.7089 20.6197 15.4444 20.6197 15.121V14.5332H22.4003V15.121C22.4003 15.4444 22.6673 15.7089 22.9938 15.7089C23.3202 15.7089 23.5873 15.4444 23.5873 15.121V14.5332H24.1808C24.5073 14.5332 24.7744 14.7977 24.7744 15.121V15.4738C24.7744 15.5032 24.7595 15.5325 24.7595 15.5619V19.0892C24.7595 19.4125 25.0266 19.6771 25.3531 19.6771C25.6795 19.6771 25.9466 19.4125 25.9466 19.0892L25.9614 15.121Z" fill="black"/>
<defs>
<filter id="filter0_d" x="0" y="0" width="42" height="42" filterUnits="userSpaceOnUse" color-interpolation-filters="sRGB">
<feFlood flood-opacity="0" result="BackgroundImageFix"/>
<feColorMatrix in="SourceAlpha" type="matrix" values="0 0 0 0 0 0 0 0 0 0 0 0 0 0 0 0 0 0 127 0"/>
<feOffset dx="1" dy="2"/>
<feGaussianBlur stdDeviation="3"/>
<feColorMatrix type="matrix" values="0 0 0 0 0 0 0 0 0 0 0 0 0 0 0 0 0 0 0.2 0"/>
<feBlend mode="normal" in2="BackgroundImageFix" result="effect1_dropShadow"/>
<feBlend mode="normal" in="SourceGraphic" in2="effect1_dropShadow" result="shape"/>
</filter>
</defs>
</svg>
