<svg width="34" height="34" viewBox="0 0 34 34" fill="none" xmlns="http://www.w3.org/2000/svg">
<path fill-rule="evenodd" clip-rule="evenodd" d="M0 17C0 7.61116 7.61116 0 17 0C26.3888 0 34 7.61116 34 17C34 26.3888 26.3888 34 17 34C7.61116 34 0 26.3888 0 17ZM16.975 12.4818C18.3563 12.4818 19.2881 13.0793 19.8194 13.5786L21.8954 11.5487C20.6204 10.3618 18.9612 9.63333 16.975 9.63333C14.098 9.63333 11.6133 11.2867 10.4036 13.6932L10.4044 13.6938C9.90601 14.6922 9.62005 15.8134 9.62005 17C9.62005 18.1868 9.90612 19.3082 10.4047 20.3068L12.6986 18.5288L10.4125 20.3068C11.6222 22.7133 14.0987 24.3667 16.9757 24.3667C18.9618 24.3667 20.6292 23.7119 21.847 22.5823L21.847 22.5823C23.2365 21.2972 24.0374 19.4064 24.0374 17.1637C24.0374 16.558 23.9884 16.116 23.8822 15.6576H16.9757V18.3915H21.0296C20.9479 19.0708 20.5065 20.094 19.5257 20.7816L19.5258 20.7816C18.9046 21.2154 18.071 21.5183 16.9757 21.5183C15.0305 21.5183 13.3796 20.2333 12.791 18.4572L12.7913 18.457C12.636 17.9986 12.5461 17.5075 12.5461 17C12.5461 16.4925 12.636 16.0014 12.7831 15.543L12.7823 15.5424C13.3792 13.7665 15.03 12.4818 16.975 12.4818Z" fill="#DB3A35"/>
</svg>
