<svg width="16" height="16" viewBox="0 0 16 16" fill="none" xmlns="http://www.w3.org/2000/svg">
<path d="M14.8534 8.32502C14.4481 8.32502 14.1319 8.6856 14.1319 9.11432V13.4C14.1319 13.7603 13.8691 14.0393 13.5603 14.0393H2.43969C2.13087 14.0393 1.86813 13.7603 1.86813 13.4V9.11432C1.86813 8.6856 1.55193 8.32502 1.14656 8.32502C0.741193 8.32502 0.425 8.6856 0.425 9.11432V13.4C0.425 14.6177 1.32013 15.6179 2.43965 15.6179H13.5603C14.6799 15.6179 15.575 14.6177 15.575 13.4V9.11432C15.575 8.6856 15.2588 8.32502 14.8534 8.32502Z" fill="black" stroke="black" stroke-width="0.15"/>
<path d="M11.8465 6.47971L11.8465 6.47971C12.1413 6.76444 12.1495 7.23423 11.8647 7.52904L11.8638 7.52998L11.8638 7.52997L8.52828 10.8655L8.52827 10.8655L8.52705 10.8667L8.527 10.8668C8.23685 11.1562 7.76703 11.1556 7.47756 10.8655L11.8465 6.47971ZM11.8465 6.47971C11.5589 6.20199 11.103 6.20198 10.8154 6.47971L10.8154 6.4797L10.8145 6.48061L8.74439 8.54943V1.16711C8.74439 0.757247 8.41214 0.424995 8.00228 0.424995C7.59241 0.424995 7.26016 0.757247 7.26016 1.16711V8.54939L5.19139 6.48062L5.1914 6.48062L5.19046 6.47971C4.89565 6.19498 4.42586 6.20316 4.14114 6.49793L4.19508 6.55004L4.14114 6.49793C3.86337 6.78553 3.86337 7.24144 4.14114 7.52904L4.14113 7.52905L4.14205 7.52997L7.4775 10.8654L11.8465 6.47971Z" fill="black" stroke="black" stroke-width="0.15"/>
</svg>
