<svg width="16" height="16" viewBox="0 0 16 16" fill="none" xmlns="http://www.w3.org/2000/svg">
<path d="M9.375 13H10.125C10.2245 13 10.3198 12.9605 10.3902 12.8902C10.4605 12.8198 10.5 12.7245 10.5 12.625V5.875C10.5 5.77554 10.4605 5.68016 10.3902 5.60984C10.3198 5.53951 10.2245 5.5 10.125 5.5H9.375C9.27554 5.5 9.18016 5.53951 9.10983 5.60984C9.03951 5.68016 9 5.77554 9 5.875V12.625C9 12.7245 9.03951 12.8198 9.10983 12.8902C9.18016 12.9605 9.27554 13 9.375 13ZM14.5 2.5H11.9247L10.8622 0.728125C10.7288 0.505942 10.5402 0.322091 10.3147 0.194487C10.0892 0.066882 9.83444 -0.000123231 9.57531 1.70139e-07H6.42469C6.16567 -1.5274e-05 5.91106 0.0670412 5.68566 0.194641C5.46025 0.32224 5.27172 0.506033 5.13844 0.728125L4.07531 2.5H1.5C1.36739 2.5 1.24021 2.55268 1.14645 2.64645C1.05268 2.74022 1 2.86739 1 3V3.5C1 3.63261 1.05268 3.75979 1.14645 3.85355C1.24021 3.94732 1.36739 4 1.5 4H2V14.5C2 14.8978 2.15804 15.2794 2.43934 15.5607C2.72064 15.842 3.10218 16 3.5 16H12.5C12.8978 16 13.2794 15.842 13.5607 15.5607C13.842 15.2794 14 14.8978 14 14.5V4H14.5C14.6326 4 14.7598 3.94732 14.8536 3.85355C14.9473 3.75979 15 3.63261 15 3.5V3C15 2.86739 14.9473 2.74022 14.8536 2.64645C14.7598 2.55268 14.6326 2.5 14.5 2.5ZM6.37 1.59094C6.38671 1.56312 6.41035 1.54012 6.43862 1.52418C6.46688 1.50824 6.4988 1.49991 6.53125 1.5H9.46875C9.50115 1.49996 9.533 1.50832 9.5612 1.52426C9.58941 1.54019 9.613 1.56317 9.62969 1.59094L10.1753 2.5H5.82469L6.37 1.59094ZM12.5 14.5H3.5V4H12.5V14.5ZM5.875 13H6.625C6.72446 13 6.81984 12.9605 6.89016 12.8902C6.96049 12.8198 7 12.7245 7 12.625V5.875C7 5.77554 6.96049 5.68016 6.89016 5.60984C6.81984 5.53951 6.72446 5.5 6.625 5.5H5.875C5.77554 5.5 5.68016 5.53951 5.60984 5.60984C5.53951 5.68016 5.5 5.77554 5.5 5.875V12.625C5.5 12.7245 5.53951 12.8198 5.60984 12.8902C5.68016 12.9605 5.77554 13 5.875 13Z" fill="black"/>
</svg>
