<?xml version="1.0" encoding="utf-8"?>
<!-- Generator: Adobe Illustrator 24.0.3, SVG Export Plug-In . SVG Version: 6.00 Build 0)  -->
<svg version="1.1" id="Layer_1" xmlns="http://www.w3.org/2000/svg" xmlns:xlink="http://www.w3.org/1999/xlink" x="0px" y="0px"
	 width="168px" height="168px" viewBox="0 0 168 168" style="enable-background:new 0 0 168 168;" xml:space="preserve">
<style type="text/css">
	.st0{fill-rule:evenodd;clip-rule:evenodd;fill:#DDDDDD;}
</style>
<path class="st0" d="M62.5,69.3c4,0,7.2-3.2,7.2-7.2s-3.2-7.2-7.2-7.2c-4,0-7.2,3.2-7.2,7.2S58.6,69.3,62.5,69.3z M128,48.4h-8.2
	v71.4H48.4v8.2H128V48.4z M105.4,73L87.2,89.1L75.1,73.5L48.2,95.1V48.2h57.2V73z M105.4,105.4H48.5l25.3-20.3l12.4,16L105.4,84
	V105.4z M40,113.5h73.5V40H40V113.5z"/>
</svg>
