<?xml version="1.0" standalone="no"?>
<!DOCTYPE svg PUBLIC "-//W3C//DTD SVG 20010904//EN"
 "http://www.w3.org/TR/2001/REC-SVG-20010904/DTD/svg10.dtd">
<svg version="1.0" xmlns="http://www.w3.org/2000/svg"
 width="1500.000000pt" height="1500.000000pt" viewBox="0 0 1500.000000 1500.000000"
 preserveAspectRatio="xMidYMid meet">
<metadata>
Created by potrace 1.11, written by Peter Selinger 2001-2013
</metadata>
<g transform="translate(0.000000,1500.000000) scale(0.100000,-0.100000)"
fill="#000000" stroke="none">
<path d="M3885 13880 c-4 -6 3 -31 14 -55 32 -70 52 -113 156 -355 54 -124
113 -258 131 -298 19 -40 34 -76 34 -79 0 -4 9 -27 21 -52 28 -62 44 -97 69
-156 41 -95 48 -110 70 -160 12 -27 28 -62 36 -77 8 -14 14 -31 14 -37 0 -5
16 -43 35 -84 19 -41 35 -77 35 -80 0 -3 15 -39 34 -79 19 -40 46 -102 61
-138 15 -36 40 -93 56 -128 16 -34 29 -65 29 -68 0 -3 12 -31 26 -62 41 -91
51 -114 74 -167 12 -27 28 -63 35 -80 14 -32 46 -107 72 -165 9 -19 21 -48 28
-65 7 -16 23 -51 34 -76 12 -25 21 -48 21 -52 0 -3 15 -39 34 -79 18 -40 45
-102 61 -138 15 -36 37 -87 50 -115 13 -27 44 -99 70 -160 26 -60 62 -143 81
-183 19 -40 34 -78 34 -83 0 -6 6 -23 14 -37 13 -24 27 -55 71 -157 7 -16 23
-51 34 -76 12 -25 21 -48 21 -52 0 -5 24 -59 85 -192 8 -16 44 -100 80 -185
37 -85 73 -165 81 -177 l14 -23 958 0 c732 0 961 3 970 12 17 17 15 45 -3 52
-8 3 -15 12 -15 21 0 9 -9 33 -19 53 -11 20 -29 62 -41 92 -12 30 -26 62 -31
70 -5 8 -12 22 -15 30 -19 50 -88 211 -135 315 -10 22 -27 61 -38 88 -12 26
-29 66 -40 90 -10 23 -26 60 -36 82 -9 22 -26 60 -37 85 -23 52 -42 95 -64
148 -9 20 -24 54 -35 74 -10 20 -19 42 -19 47 0 6 -16 43 -35 84 -19 41 -35
77 -35 80 0 3 -15 39 -33 79 -19 40 -44 98 -57 128 -12 30 -38 88 -56 128 -19
39 -34 75 -34 78 0 4 -9 25 -19 48 -11 23 -29 64 -41 91 -23 53 -37 83 -69
156 -12 25 -21 50 -21 56 0 7 -6 18 -13 25 -14 14 -63 114 -112 228 -15 36
-37 85 -47 110 -11 25 -26 59 -33 75 -7 17 -23 53 -35 80 -12 28 -28 64 -35
80 -7 17 -23 53 -35 80 -23 53 -41 94 -64 148 -8 17 -24 53 -35 80 -12 26 -30
68 -42 95 -11 26 -26 61 -34 77 -7 17 -57 131 -111 255 -53 124 -112 258 -130
298 -19 40 -34 78 -34 83 0 6 -6 23 -14 37 -8 15 -24 50 -36 77 -12 28 -28 64
-36 80 -7 17 -18 42 -23 58 l-11 27 -964 0 c-650 0 -967 -3 -971 -10z"/>
<path d="M10995 9164 c-11 -3 -56 -12 -100 -20 -183 -35 -370 -174 -456 -340
-63 -121 -88 -277 -69 -427 11 -91 18 -113 79 -236 40 -82 161 -213 228 -247
21 -10 45 -24 53 -30 32 -23 144 -55 227 -65 69 -8 108 -7 178 4 94 16 180 42
205 62 8 7 25 16 38 19 12 4 22 12 22 17 0 5 5 9 11 9 16 0 93 70 143 131 48
58 116 183 116 212 0 10 7 32 17 50 24 48 24 281 -1 357 -65 200 -190 350
-359 433 -90 44 -276 84 -332 71z"/>
</g>
</svg>
