<?xml version="1.0" encoding="utf-8"?>
<!-- Generator: Adobe Illustrator 24.0.3, SVG Export Plug-In . SVG Version: 6.00 Build 0)  -->
<svg version="1.1" id="Layer_1" xmlns="http://www.w3.org/2000/svg" xmlns:xlink="http://www.w3.org/1999/xlink" x="0px" y="0px"
	 width="230px" height="42px" viewBox="0 0 230 42" style="enable-background:new 0 0 230 42;" xml:space="preserve">
<style type="text/css">
	.st0{fill:#76BB85;}
</style>
<path d="M65.7,29.3c-0.9,0-2-0.1-3-0.4c-1.1-0.3-1.9-0.5-2.5-0.8l0.4-3.3c2.1,1,4,1.5,5.6,1.5c0.8,0,1.5-0.2,2-0.5
	c0.5-0.3,0.7-0.8,0.7-1.5c0-0.5-0.1-0.9-0.4-1.2c-0.3-0.3-0.6-0.6-1.1-0.8c-0.5-0.2-1.3-0.5-2.4-0.9c-1-0.4-1.9-0.7-2.5-1.1
	c-0.7-0.4-1.2-0.9-1.6-1.5c-0.4-0.6-0.6-1.4-0.6-2.3c0-1.4,0.5-2.6,1.6-3.5s2.6-1.3,4.5-1.3c0.9,0,1.8,0.1,2.8,0.3
	c0.9,0.2,1.8,0.5,2.5,0.8l-0.3,3.1c-1-0.4-1.9-0.8-2.7-1c-0.8-0.2-1.6-0.3-2.4-0.3c-0.9,0-1.6,0.2-2.1,0.5s-0.7,0.7-0.7,1.3
	c0,0.4,0.1,0.8,0.4,1.1c0.3,0.3,0.6,0.5,1,0.7c0.4,0.2,1.1,0.4,2,0.7c1.9,0.6,3.3,1.3,4.2,2.1c0.9,0.8,1.3,1.9,1.3,3.2
	c0,1.3-0.5,2.5-1.4,3.4C69.9,28.8,68.2,29.3,65.7,29.3z M89.4,29l-1.4-11.3l-4.3,7.7l-4.3-7.7L77.9,29h-3.2L77,12.2h2.5l4.1,7.7
	l4.1-7.7h2.5L92.6,29H89.4z M104.9,25h-6.1l-1.4,4h-3l6-16.8h2.9l6,16.8h-3L104.9,25z M104,22.3l-2.1-6l-2.1,6H104z M111.9,12.2h6.1
	c1.8,0,3.2,0.4,4.2,1.3c1,0.8,1.6,2.1,1.6,3.8c0,1.2-0.2,2.1-0.7,2.9c-0.5,0.7-1.2,1.3-2.1,1.8l3.8,7.1h-3.4l-3.2-6.2H118h-3V29
	h-3.1V12.2z M117.2,20.2c2.3,0,3.4-0.9,3.4-2.7c0-0.9-0.3-1.5-0.8-2c-0.5-0.5-1.3-0.7-2.5-0.7H115v5.4H117.2z M130.8,15.2H126v-3
	h12.6v3h-4.8V29h-3.1V15.2z M146.4,29.3c-0.9,0-2-0.1-3-0.4c-1.1-0.3-1.9-0.5-2.5-0.8l0.4-3.3c2.1,1,4,1.5,5.6,1.5
	c0.8,0,1.5-0.2,2-0.5c0.5-0.3,0.7-0.8,0.7-1.5c0-0.5-0.1-0.9-0.4-1.2c-0.3-0.3-0.6-0.6-1.1-0.8c-0.5-0.2-1.3-0.5-2.4-0.9
	c-1-0.4-1.9-0.7-2.5-1.1c-0.7-0.4-1.2-0.9-1.6-1.5c-0.4-0.6-0.6-1.4-0.6-2.3c0-1.4,0.5-2.6,1.6-3.5s2.6-1.3,4.5-1.3
	c0.9,0,1.8,0.1,2.8,0.3c0.9,0.2,1.8,0.5,2.5,0.8l-0.3,3.1c-1-0.4-1.9-0.8-2.7-1c-0.8-0.2-1.6-0.3-2.4-0.3c-0.9,0-1.6,0.2-2.1,0.5
	c-0.5,0.3-0.7,0.7-0.7,1.3c0,0.4,0.1,0.8,0.4,1.1c0.3,0.3,0.6,0.5,1,0.7c0.4,0.2,1.1,0.4,2,0.7c1.9,0.6,3.3,1.3,4.2,2.1
	c0.9,0.8,1.3,1.9,1.3,3.2c0,1.3-0.5,2.5-1.4,3.4C150.6,28.8,148.9,29.3,146.4,29.3z M156.2,12.2h3.1v6.6h7.7v-6.6h3.1V29h-3.1v-7.3
	h-7.7V29h-3.1V12.2z M181.7,29.3c-1.6,0-3-0.4-4.3-1.1c-1.2-0.7-2.2-1.8-3-3.1c-0.7-1.3-1.1-2.9-1.1-4.6c0-1.7,0.4-3.2,1.1-4.6
	c0.7-1.3,1.7-2.4,3-3.1c1.3-0.7,2.7-1.1,4.3-1.1s3,0.4,4.2,1.1c1.3,0.7,2.2,1.7,3,3.1c0.7,1.3,1.1,2.8,1.1,4.6
	c0,1.7-0.4,3.3-1.1,4.6c-0.7,1.3-1.7,2.3-3,3.1C184.7,29,183.3,29.3,181.7,29.3z M181.7,26.4c1.6,0,2.9-0.5,3.7-1.6
	c0.9-1.1,1.3-2.4,1.3-4.2c0-1.7-0.4-3.1-1.3-4.2c-0.9-1.1-2.1-1.6-3.7-1.6c-1.6,0-2.9,0.5-3.8,1.6c-0.9,1.1-1.3,2.4-1.3,4.2
	c0,1.7,0.4,3.1,1.3,4.2C178.8,25.8,180,26.4,181.7,26.4z M193.4,12.2h6c4,0,6,1.8,6,5.4c0,1.9-0.5,3.3-1.5,4.2
	c-1,0.9-2.5,1.4-4.4,1.4h-3V29h-3.1V12.2z M199,20.6c1.1,0,1.8-0.2,2.4-0.7c0.5-0.5,0.8-1.2,0.8-2.2c0-1-0.3-1.7-0.8-2.2
	c-0.5-0.5-1.3-0.7-2.4-0.7h-2.5v5.8H199z"/>
<path class="st0" d="M42,9.5c0-2.5-1-5-2.8-6.7S35,0,32.5,0H9.5C7,0,4.6,1,2.8,2.8S0,7,0,9.5v22.9c0,2.5,1,5,2.8,6.7S7,42,9.5,42
	h3.8c0.5,0,1-0.2,1.4-0.6c0.4-0.4,0.6-0.8,0.6-1.3c0-0.5-0.2-1-0.6-1.3c-0.4-0.4-0.8-0.6-1.4-0.6H9.5c-1.5,0-3-0.6-4-1.7
	c-1.1-1.1-1.7-2.5-1.7-4V9.5c0-1.5,0.6-3,1.7-4s2.5-1.7,4-1.7h22.9c1.5,0,3,0.6,4,1.7c1.1,1.1,1.7,2.5,1.7,4v22.9c0,1.5-0.6,3-1.7,4
	c-1.1,1.1-2.5,1.7-4,1.7h-3.8c-1.5,0-3-0.6-4-1.7c-1.1-1.1-1.7-2.5-1.7-4c2.5,0,5-1,6.7-2.8c1.8-1.8,2.8-4.2,2.8-6.7v-3.8
	c0-0.5-0.2-1-0.6-1.3c-0.4-0.4-0.8-0.6-1.3-0.6h-3.8v-5.7c0-0.5-0.2-1-0.6-1.3c-0.4-0.4-0.8-0.6-1.3-0.6s-1,0.2-1.3,0.6
	c-0.4,0.4-0.6,0.8-0.6,1.3v5.7h-3.8v-5.7c0-0.5-0.2-1-0.6-1.3c-0.4-0.4-0.8-0.6-1.3-0.6s-1,0.2-1.3,0.6c-0.4,0.4-0.6,0.8-0.6,1.3
	v5.7h-3.8c-0.5,0-1,0.2-1.3,0.6c-0.4,0.4-0.6,0.8-0.6,1.3v3.8c0,2.5,1,5,2.8,6.7c1.8,1.8,4.2,2.8,6.7,2.8c0,2.5,1,5,2.8,6.7
	s4.2,2.8,6.7,2.8h3.8c2.5,0,5-1,6.7-2.8S42,35,42,32.5V9.5z M13.4,22.9V21h15.3v1.9c0,1.5-0.6,3-1.7,4s-2.5,1.7-4,1.7h-3.8
	c-1.5,0-3-0.6-4-1.7S13.4,24.4,13.4,22.9z"/>
</svg>
