<?xml version="1.0" encoding="utf-8"?>
<!-- Generator: Adobe Illustrator 24.0.3, SVG Export Plug-In . SVG Version: 6.00 Build 0)  -->
<svg version="1.1" id="Layer_1" xmlns="http://www.w3.org/2000/svg" xmlns:xlink="http://www.w3.org/1999/xlink" x="0px" y="0px"
	 width="42px" height="42px" viewBox="0 0 42 42" style="enable-background:new 0 0 42 42;" xml:space="preserve">
<style type="text/css">
	.st0{fill:#76BB85;}
</style>
<path class="st0" d="M42,9.5c0-2.5-1-5-2.8-6.7S35,0,32.5,0H9.5C7,0,4.6,1,2.8,2.8S0,7,0,9.5v22.9c0,2.5,1,5,2.8,6.7S7,42,9.5,42
	h3.8c0.5,0,1-0.2,1.4-0.6c0.4-0.4,0.6-0.8,0.6-1.3c0-0.5-0.2-1-0.6-1.3c-0.4-0.4-0.8-0.6-1.4-0.6H9.5c-1.5,0-3-0.6-4-1.7
	c-1.1-1.1-1.7-2.5-1.7-4V9.5c0-1.5,0.6-3,1.7-4s2.5-1.7,4-1.7h22.9c1.5,0,3,0.6,4,1.7c1.1,1.1,1.7,2.5,1.7,4v22.9c0,1.5-0.6,3-1.7,4
	c-1.1,1.1-2.5,1.7-4,1.7h-3.8c-1.5,0-3-0.6-4-1.7c-1.1-1.1-1.7-2.5-1.7-4c2.5,0,5-1,6.7-2.8c1.8-1.8,2.8-4.2,2.8-6.7v-3.8
	c0-0.5-0.2-1-0.6-1.3c-0.4-0.4-0.8-0.6-1.3-0.6h-3.8v-5.7c0-0.5-0.2-1-0.6-1.3c-0.4-0.4-0.8-0.6-1.3-0.6s-1,0.2-1.3,0.6
	c-0.4,0.4-0.6,0.8-0.6,1.3v5.7h-3.8v-5.7c0-0.5-0.2-1-0.6-1.3c-0.4-0.4-0.8-0.6-1.3-0.6s-1,0.2-1.3,0.6c-0.4,0.4-0.6,0.8-0.6,1.3
	v5.7h-3.8c-0.5,0-1,0.2-1.3,0.6c-0.4,0.4-0.6,0.8-0.6,1.3v3.8c0,2.5,1,5,2.8,6.7c1.8,1.8,4.2,2.8,6.7,2.8c0,2.5,1,5,2.8,6.7
	s4.2,2.8,6.7,2.8h3.8c2.5,0,5-1,6.7-2.8S42,35,42,32.5V9.5z M13.4,22.9V21h15.3v1.9c0,1.5-0.6,3-1.7,4s-2.5,1.7-4,1.7h-3.8
	c-1.5,0-3-0.6-4-1.7S13.4,24.4,13.4,22.9z"/>
</svg>
