<svg width="17" height="17" viewBox="0 0 17 17" fill="none" xmlns="http://www.w3.org/2000/svg">
<path fill-rule="evenodd" clip-rule="evenodd" d="M15.2 8.5C15.2 12.2003 12.2003 15.2 8.5 15.2C7.05107 15.2 5.70956 14.7401 4.61351 13.9582L13.9582 4.61351C14.7401 5.70956 15.2 7.05107 15.2 8.5ZM3.15154 12.536L12.536 3.15154C11.4135 2.30316 10.0155 1.8 8.5 1.8C4.79969 1.8 1.8 4.79969 1.8 8.5C1.8 10.0155 2.30316 11.4135 3.15154 12.536ZM17 8.5C17 13.1944 13.1944 17 8.5 17C3.80558 17 0 13.1944 0 8.5C0 3.80558 3.80558 0 8.5 0C13.1944 0 17 3.80558 17 8.5Z" fill="#BFBFBF"/>
</svg>
