<svg width="21" height="21" viewBox="0 0 21 21" fill="none" xmlns="http://www.w3.org/2000/svg">
<path d="M14 3.28755C12.695 2.4716 11.1526 2 9.5 2C4.80558 2 1 5.80558 1 10.5C1 15.1944 4.80558 19 9.5 19C11.1526 19 12.695 18.5284 14 17.7124" stroke="#343233" stroke-width="1.7" stroke-linecap="round" stroke-linejoin="round"/>
<path d="M20.7261 11.0336C20.7335 11.0247 20.7398 11.0153 20.7467 11.0061C20.7549 10.9952 20.7634 10.9845 20.7709 10.9731C20.7783 10.9622 20.7846 10.9508 20.7913 10.9395C20.7975 10.9293 20.8039 10.9192 20.8096 10.9086C20.8157 10.8972 20.8209 10.8853 20.8265 10.8736C20.8317 10.8626 20.8372 10.8517 20.8419 10.8404C20.8466 10.8291 20.8504 10.8174 20.8545 10.8059C20.8589 10.7938 20.8635 10.7818 20.8673 10.7694C20.8708 10.7578 20.8733 10.7461 20.8762 10.7344C20.8795 10.7218 20.883 10.7093 20.8856 10.6964C20.8882 10.6829 20.8898 10.6692 20.8918 10.6557C20.8934 10.6444 20.8955 10.6334 20.8967 10.622C20.9016 10.5715 20.9016 10.5207 20.8967 10.4702C20.8955 10.4588 20.8934 10.4478 20.8918 10.4365C20.8898 10.4229 20.8883 10.4093 20.8856 10.3958C20.883 10.3829 20.8795 10.3704 20.8762 10.3577C20.8733 10.3461 20.8708 10.3343 20.8673 10.3228C20.8635 10.3104 20.8589 10.2984 20.8545 10.2863C20.8504 10.2747 20.8466 10.2631 20.8419 10.2518C20.8372 10.2404 20.8317 10.2296 20.8265 10.2186C20.8209 10.2068 20.8157 10.195 20.8096 10.1835C20.8039 10.173 20.7975 10.1629 20.7913 10.1526C20.7846 10.1414 20.7782 10.13 20.7709 10.119C20.7633 10.1077 20.7549 10.097 20.7467 10.0861C20.7398 10.0769 20.7335 10.0675 20.7261 10.0586C20.7103 10.0393 20.6936 10.0207 20.6759 10.003L20.6752 10.0022L17.5982 6.92525C17.2978 6.62485 16.8108 6.62485 16.5104 6.92525C16.21 7.22565 16.21 7.71273 16.5104 8.01313L18.2741 9.77691H9.66962C9.24478 9.77691 8.90039 10.1213 8.90039 10.5461C8.90039 10.971 9.24478 11.3154 9.66962 11.3154H18.2741L16.5104 13.0792C16.21 13.3796 16.21 13.8666 16.5104 14.167C16.8108 14.4674 17.2978 14.4674 17.5982 14.167L20.6752 11.0901L20.6759 11.0893C20.6936 11.0715 20.7103 11.0529 20.7261 11.0336Z" fill="#343233" stroke="#343233" stroke-width="0.1"/>
</svg>
