<svg width="21" height="21" viewBox="0 0 21 21" fill="none" xmlns="http://www.w3.org/2000/svg">
<rect width="21" height="21" fill="white"/>
<path d="M10.5 0C8.4233 0 6.39323 0.615814 4.66652 1.76957C2.9398 2.92332 1.59399 4.5632 0.799269 6.48182C0.0045495 8.40045 -0.203386 10.5116 0.201759 12.5484C0.606904 14.5852 1.60693 16.4562 3.07538 17.9246C4.54383 19.3931 6.41475 20.3931 8.45156 20.7982C10.4884 21.2034 12.5996 20.9955 14.5182 20.2007C16.4368 19.406 18.0767 18.0602 19.2304 16.3335C20.3842 14.6068 21 12.5767 21 10.5C20.9971 7.71611 19.8899 5.04708 17.9214 3.07858C15.9529 1.11007 13.2839 0.00289536 10.5 0V0ZM6.125 18.0666V17.5C6.125 16.3397 6.58594 15.2269 7.40641 14.4064C8.22688 13.5859 9.33968 13.125 10.5 13.125C11.6603 13.125 12.7731 13.5859 13.5936 14.4064C14.4141 15.2269 14.875 16.3397 14.875 17.5V18.0666C13.5473 18.8417 12.0374 19.2501 10.5 19.2501C8.96257 19.2501 7.45274 18.8417 6.125 18.0666V18.0666ZM7.875 8.75C7.875 8.23082 8.02896 7.72331 8.3174 7.29163C8.60583 6.85995 9.0158 6.5235 9.49546 6.32482C9.97511 6.12614 10.5029 6.07415 11.0121 6.17544C11.5213 6.27672 11.989 6.52673 12.3562 6.89384C12.7233 7.26096 12.9733 7.72869 13.0746 8.23789C13.1759 8.74709 13.1239 9.27489 12.9252 9.75454C12.7265 10.2342 12.3901 10.6442 11.9584 10.9326C11.5267 11.221 11.0192 11.375 10.5 11.375C9.80381 11.375 9.13613 11.0984 8.64385 10.6062C8.15156 10.1139 7.875 9.44619 7.875 8.75V8.75ZM16.5791 16.7803C16.461 15.7887 16.1024 14.841 15.5343 14.0198C14.9662 13.1985 14.2059 12.5286 13.3197 12.0684C14.0055 11.4903 14.4971 10.7154 14.7278 9.84853C14.9585 8.98171 14.9172 8.06492 14.6095 7.22236C14.3017 6.3798 13.7425 5.65219 13.0074 5.1381C12.2723 4.62401 11.397 4.34829 10.5 4.34829C9.603 4.34829 8.72768 4.62401 7.99261 5.1381C7.25754 5.65219 6.69826 6.3798 6.39052 7.22236C6.08279 8.06492 6.04148 8.98171 6.27218 9.84853C6.50289 10.7154 6.99447 11.4903 7.68032 12.0684C6.79409 12.5286 6.03382 13.1985 5.46573 14.0198C4.89765 14.841 4.53897 15.7887 4.42094 16.7803C3.16693 15.569 2.30337 14.0107 1.94104 12.3053C1.57871 10.5998 1.73412 8.82504 2.38735 7.20854C3.04058 5.59204 4.16184 4.20754 5.6073 3.23263C7.05275 2.25772 8.7565 1.73686 10.5 1.73686C12.2435 1.73686 13.9473 2.25772 15.3927 3.23263C16.8382 4.20754 17.9594 5.59204 18.6127 7.20854C19.2659 8.82504 19.4213 10.5998 19.059 12.3053C18.6966 14.0107 17.8331 15.569 16.5791 16.7803Z" fill="#343233"/>
</svg>
