<svg width="21" height="21" viewBox="0 0 21 21" fill="none" xmlns="http://www.w3.org/2000/svg">
<rect width="21" height="21" fill="white"/>
<path d="M9.80789 19.7489C9.88838 19.8285 9.98396 19.8917 10.0892 19.9347C10.1944 19.9778 10.3072 20 10.4211 20C10.5349 20 10.6477 19.9778 10.7529 19.9347C10.8581 19.8917 10.9537 19.8285 11.0342 19.7489L19.131 11.7507C19.6713 11.2224 20.1006 10.5939 20.3943 9.9012C20.6879 9.20852 20.8401 8.46534 20.8421 7.71437C20.8441 6.96341 20.6958 6.21946 20.4058 5.52528C20.1158 4.8311 19.6897 4.20038 19.1522 3.66937C18.6146 3.13835 17.9761 2.71751 17.2734 2.43103C16.5707 2.14455 15.8176 1.99807 15.0574 2.00002C14.2972 2.00197 13.5448 2.1523 12.8436 2.44238C12.1424 2.73247 11.5061 3.15658 10.9714 3.69034L10.4211 4.23397L9.87073 3.69034C9.33597 3.15658 8.6997 2.73247 7.99849 2.44238C7.29728 2.1523 6.54495 2.00197 5.78474 2.00002C5.02452 1.99807 4.27142 2.14455 3.56869 2.43103C2.86597 2.71751 2.22748 3.13835 1.68993 3.66937C1.15237 4.20038 0.726348 4.8311 0.436337 5.52528C0.146326 6.21946 -0.00195324 6.96341 1.94268e-05 7.71437C0.0019921 8.46534 0.154178 9.20852 0.447832 9.9012C0.741486 10.5939 1.17082 11.2224 1.71115 11.7507L9.80789 19.7489ZM5.79094 3.73315C6.32115 3.73193 6.84635 3.83458 7.33614 4.03517C7.82593 4.23576 8.27059 4.5303 8.64441 4.90174L9.80789 6.05108C9.88838 6.13067 9.98396 6.19382 10.0892 6.2369C10.1944 6.27999 10.3072 6.30216 10.4211 6.30216C10.5349 6.30216 10.6477 6.27999 10.7529 6.2369C10.8581 6.19382 10.9537 6.13067 11.0342 6.05108L12.1977 4.90174C12.5692 4.51766 13.0147 4.21078 13.508 3.99915C14.0013 3.78752 14.5324 3.67539 15.0702 3.66935C15.6079 3.66332 16.1415 3.7635 16.6395 3.96401C17.1375 4.16452 17.5899 4.46132 17.9702 4.83697C18.3505 5.21262 18.6509 5.65955 18.8539 6.1515C19.0569 6.64346 19.1583 7.17053 19.1522 7.70174C19.1461 8.23296 19.0326 8.75761 18.8183 9.24489C18.6041 9.73217 18.2934 10.1722 17.9046 10.5393L10.4211 17.9318L2.93747 10.5393C2.37326 9.98162 1.98906 9.27127 1.83344 8.49799C1.67781 7.72472 1.75774 6.92322 2.06313 6.1948C2.36852 5.46639 2.88566 4.84375 3.54918 4.4056C4.2127 3.96744 4.99282 3.73343 5.79094 3.73315V3.73315Z" fill="#343233"/>
</svg>
