<?xml version="1.0" encoding="utf-8"?>
<!-- Generator: Adobe Illustrator 24.0.3, SVG Export Plug-In . SVG Version: 6.00 Build 0)  -->
<svg version="1.1" id="Layer_1" xmlns="http://www.w3.org/2000/svg" xmlns:xlink="http://www.w3.org/1999/xlink" x="0px" y="0px"
	 width="34px" height="34px" viewBox="0 0 34 34" style="enable-background:new 0 0 34 34;" xml:space="preserve">
<style type="text/css">
	.st0{fill-rule:evenodd;clip-rule:evenodd;fill:#00ADEF;}
	.st1{fill-rule:evenodd;clip-rule:evenodd;fill:#FFFFFF;}
</style>
<g>
	<path class="st0" d="M0,17C0,7.6,7.6,0,17,0s17,7.6,17,17s-7.6,17-17,17S0,26.4,0,17z"/>
	<path class="st1" d="M8.5,10.9l6.9-0.9l0,6.7l-6.9,0L8.5,10.9z M15.4,17.4l0,6.7l-6.9-1l0-5.8L15.4,17.4z M16.3,9.8l9.2-1.3v8.1
		l-9.2,0.1V9.8z M25.5,17.5l0,8l-9.2-1.3l0-6.8L25.5,17.5z"/>
</g>
</svg>
