<svg width="18" height="18" viewBox="0 0 18 18" fill="none" xmlns="http://www.w3.org/2000/svg">
<path d="M8.47045 16.7768C8.53997 16.8476 8.62251 16.9037 8.71338 16.942C8.80424 16.9803 8.90164 17 9 17C9.09836 17 9.19576 16.9803 9.28662 16.942C9.37749 16.9037 9.46003 16.8476 9.52955 16.7768L16.5222 9.66725C16.9888 9.1977 17.3596 8.63901 17.6132 8.02329C17.8668 7.40757 17.9983 6.74697 18 6.07944C18.0017 5.41192 17.8736 4.75063 17.6232 4.13358C17.3727 3.51654 17.0048 2.9559 16.5405 2.48388C16.0763 2.01187 15.5248 1.63779 14.9179 1.38314C14.3111 1.12849 13.6606 0.998285 13.0041 1.00002C12.3475 1.00175 11.6978 1.13538 11.0922 1.39323C10.4866 1.65108 9.93712 2.02807 9.47528 2.50252L9 2.98575L8.52472 2.50252C8.06288 2.02807 7.51338 1.65108 6.90779 1.39323C6.3022 1.13538 5.65246 1.00175 4.99591 1.00002C4.33936 0.998285 3.68895 1.12849 3.08205 1.38314C2.47515 1.63779 1.92373 2.01187 1.45948 2.48388C0.99523 2.9559 0.6273 3.51654 0.376837 4.13358C0.126373 4.75063 -0.00168689 5.41192 1.67777e-05 6.07944C0.00172045 6.74697 0.133154 7.40757 0.386764 8.02329C0.640374 8.63901 1.01116 9.1977 1.47781 9.66725L8.47045 16.7768ZM5.00127 2.54057C5.45918 2.53949 5.91275 2.63074 6.33576 2.80904C6.75876 2.98734 7.14279 3.24915 7.46562 3.57933L8.47045 4.60096C8.53997 4.67171 8.62251 4.72784 8.71338 4.76614C8.80424 4.80443 8.90164 4.82415 9 4.82415C9.09836 4.82415 9.19576 4.80443 9.28662 4.76614C9.37749 4.72784 9.46003 4.67171 9.52955 4.60096L10.5344 3.57933C10.8553 3.23792 11.24 2.96514 11.666 2.77702C12.092 2.5889 12.5507 2.48923 13.0151 2.48387C13.4796 2.47851 13.9404 2.56756 14.3705 2.74579C14.8006 2.92402 15.1913 3.18784 15.5197 3.52175C15.8481 3.85566 16.1076 4.25293 16.2829 4.69023C16.4582 5.12752 16.5458 5.59603 16.5405 6.06822C16.5353 6.54041 16.4372 7.00677 16.2522 7.4399C16.0672 7.87304 15.7989 8.26421 15.4631 8.59045L9 15.1616L2.53691 8.59045C2.04964 8.09478 1.71783 7.46336 1.58342 6.776C1.44902 6.08864 1.51805 5.37619 1.7818 4.72871C2.04554 4.08123 2.49216 3.52778 3.0652 3.13831C3.63824 2.74884 4.31198 2.54083 5.00127 2.54057V2.54057Z" fill="#343233"/>
</svg>
