<svg viewBox="0 0 20 20" xmlns="http://www.w3.org/2000/svg" id="icon">
  <path d="M1.03628 11.8599C0.742336 8.69586 2.09367 5.8299 4.33499 4.00908C5.20866 3.29871 6.51508 3.90702 6.51508 5.02972C6.51508 5.44206 6.31912 5.82174 6.00068 6.07894C4.41256 7.37311 3.45724 9.4144 3.68995 11.668C3.99206 14.6033 6.34362 16.9794 9.2749 17.306C13.1003 17.7347 16.35 14.7381 16.35 10.9984C16.35 9.01431 15.4314 7.23839 13.9984 6.07486C13.68 5.81766 13.4881 5.43798 13.4881 5.02972C13.4881 3.91926 14.7741 3.29055 15.6396 3.98458C17.6891 5.63802 19.0037 8.16513 19.0037 10.9984C19.0037 16.1792 14.6026 20.3557 9.34022 19.976C4.9882 19.6698 1.44045 16.2037 1.03628 11.8599ZM9.99751 0C9.26265 0 8.67068 0.596055 8.67068 1.32683V7.43843C8.67068 8.1733 9.26673 8.76527 9.99751 8.76527C10.7283 8.76527 11.3243 8.16921 11.3243 7.43843V1.32683C11.3243 0.596055 10.7324 0 9.99751 0Z"/>
</svg>
