<svg viewBox="0 0 20 20" xmlns="http://www.w3.org/2000/svg" id="icon">
  <path d="M3.74993 2.28571C3.74993 1.94472 3.61823 1.6177 3.38381 1.37658C3.14939 1.13546 2.83144 1 2.49992 1C2.16839 1 1.85045 1.13546 1.61602 1.37658C1.3816 1.6177 1.2499 1.94472 1.2499 2.28571V11.6303C0.869881 11.856 0.554311 12.1806 0.334908 12.5715C0.115506 12.9624 0 13.4058 0 13.8571C0 14.3085 0.115506 14.7519 0.334908 15.1428C0.554311 15.5337 0.869881 15.8583 1.2499 16.084V17.7143C1.2499 18.0553 1.3816 18.3823 1.61602 18.6234C1.85045 18.8645 2.16839 19 2.49992 19C2.83144 19 3.14939 18.8645 3.38381 18.6234C3.61823 18.3823 3.74993 18.0553 3.74993 17.7143V16.084C4.12995 15.8583 4.44552 15.5337 4.66493 15.1428C4.88433 14.7519 4.99983 14.3085 4.99983 13.8571C4.99983 13.4058 4.88433 12.9624 4.66493 12.5715C4.44552 12.1806 4.12995 11.856 3.74993 11.6303V2.28571ZM11.25 2.28571C11.25 1.94472 11.1183 1.6177 10.8839 1.37658C10.6495 1.13546 10.3315 1 10 1C9.66848 1 9.35053 1.13546 9.11611 1.37658C8.88168 1.6177 8.74999 1.94472 8.74999 2.28571V3.916C8.36996 4.1417 8.05439 4.46631 7.83499 4.8572C7.61559 5.24809 7.50008 5.6915 7.50008 6.14286C7.50008 6.59421 7.61559 7.03762 7.83499 7.42851C8.05439 7.81941 8.36996 8.14402 8.74999 8.36971V17.7143C8.74999 18.0553 8.88168 18.3823 9.11611 18.6234C9.35053 18.8645 9.66848 19 10 19C10.3315 19 10.6495 18.8645 10.8839 18.6234C11.1183 18.3823 11.25 18.0553 11.25 17.7143V8.36971C11.63 8.14402 11.9456 7.81941 12.165 7.42851C12.3844 7.03762 12.4999 6.59421 12.4999 6.14286C12.4999 5.6915 12.3844 5.24809 12.165 4.8572C11.9456 4.46631 11.63 4.1417 11.25 3.916V2.28571ZM17.5001 1C17.8316 1 18.1496 1.13546 18.384 1.37658C18.6184 1.6177 18.7501 1.94472 18.7501 2.28571V11.6303C19.1301 11.856 19.4457 12.1806 19.6651 12.5715C19.8845 12.9624 20 13.4058 20 13.8571C20 14.3085 19.8845 14.7519 19.6651 15.1428C19.4457 15.5337 19.1301 15.8583 18.7501 16.084V17.7143C18.7501 18.0553 18.6184 18.3823 18.384 18.6234C18.1496 18.8645 17.8316 19 17.5001 19C17.1686 19 16.8506 18.8645 16.6162 18.6234C16.3818 18.3823 16.2501 18.0553 16.2501 17.7143V16.084C15.87 15.8583 15.5545 15.5337 15.3351 15.1428C15.1157 14.7519 15.0002 14.3085 15.0002 13.8571C15.0002 13.4058 15.1157 12.9624 15.3351 12.5715C15.5545 12.1806 15.87 11.856 16.2501 11.6303V2.28571C16.2501 1.94472 16.3818 1.6177 16.6162 1.37658C16.8506 1.13546 17.1686 1 17.5001 1Z"/>
</svg>
