<svg viewBox="0 0 20 20" xmlns="http://www.w3.org/2000/svg" id="icon">
  <path d="M19.209 8.40308L18.1563 8.05213C17.9966 7.99889 17.875 7.8687 17.8293 7.70668C17.6986 7.24349 17.5479 6.78615 17.365 6.34059C17.3188 6.22814 17.2312 6.13792 17.1207 6.08724C16.8048 5.94233 16.4846 5.80694 16.1606 5.68125C15.9647 5.60529 15.8332 5.4183 15.8332 5.20825V2.5C15.8332 2.22386 15.6093 2 15.3332 2H14.5677C14.3334 2 14.1305 2.16274 14.0796 2.39149L13.6333 4.39884C13.5736 4.66737 13.3084 4.83646 13.0379 4.78613C11.0539 4.41687 9.00392 4.40307 6.96096 4.78266C6.69047 4.83291 6.42511 4.66382 6.36542 4.39526L5.92009 2.39152C5.86925 2.16276 5.66634 2 5.432 2H4.66655C4.39041 2 4.16655 2.22386 4.16655 2.5V5.20989C4.16655 5.41987 4.0351 5.60683 3.83932 5.68274C3.51557 5.80825 3.19554 5.94319 2.87964 6.08737C2.76879 6.13797 2.68083 6.22831 2.63454 6.34103C2.45163 6.78645 2.30121 7.24363 2.17069 7.70665C2.12502 7.86869 2.00335 7.99888 1.84364 8.05212L0.79076 8.40308C0.356004 8.54783 0 9.04284 0 9.50009V13.667C0 14.1245 0.356004 14.6192 0.79076 14.7642L1.84518 15.1159C2.00487 15.1692 2.12652 15.2994 2.1721 15.4614C2.30079 15.919 2.44971 16.3753 2.63448 16.8267C2.68051 16.9392 2.76844 17.0297 2.8788 17.0805C7.63187 19.2709 12.7137 19.1185 17.1214 17.0804C17.2314 17.0295 17.3187 16.9394 17.3646 16.8272C17.5496 16.3755 17.6983 15.9193 17.8275 15.461C17.8731 15.2992 17.9947 15.1692 18.1542 15.116L19.209 14.7642C19.6435 14.6192 20 14.1245 20 13.667V9.50009C20 9.04284 19.6435 8.54783 19.209 8.40308ZM6.66658 11.3751C6.66665 11.4846 6.64513 11.593 6.60327 11.6942C6.56141 11.7953 6.50001 11.8872 6.4226 11.9646C6.34519 12.0421 6.25328 12.1035 6.15212 12.1453C6.05097 12.1872 5.94255 12.2087 5.83307 12.2086C5.72362 12.2087 5.61523 12.1871 5.5141 12.1452C5.41297 12.1034 5.32109 12.042 5.24371 11.9646C5.16632 11.8871 5.10495 11.7952 5.0631 11.6941C5.02125 11.593 4.99975 11.4846 4.99981 11.3751V9.29184C4.99971 9.18239 5.0212 9.07399 5.06304 8.97285C5.10488 8.87171 5.16625 8.77981 5.24365 8.70242C5.32104 8.62502 5.41294 8.56365 5.51408 8.52181C5.61522 8.47997 5.72362 8.45848 5.83307 8.45858C5.94254 8.45848 6.05095 8.47997 6.1521 8.5218C6.25326 8.56364 6.34517 8.62501 6.42259 8.7024C6.5 8.77979 6.5614 8.87169 6.60327 8.97283C6.64513 9.07397 6.66665 9.18238 6.66658 9.29184V11.3751ZM12.0832 15.542C12.0832 15.8872 11.8033 16.167 11.4581 16.167H8.54161C8.19642 16.167 7.9166 15.8872 7.9166 15.542C7.9166 15.1968 8.19642 14.917 8.54161 14.917H11.4581C11.8033 14.917 12.0832 15.1968 12.0832 15.542ZM14.9999 11.3751C15 11.4846 14.9785 11.593 14.9366 11.6941C14.8948 11.7952 14.8334 11.8871 14.756 11.9646C14.6787 12.042 14.5868 12.1034 14.4856 12.1452C14.3845 12.1871 14.2761 12.2087 14.1667 12.2086C14.0572 12.2087 13.9488 12.1872 13.8476 12.1453C13.7465 12.1035 13.6546 12.0421 13.5772 11.9646C13.4997 11.8872 13.4383 11.7953 13.3965 11.6942C13.3546 11.593 13.3331 11.4846 13.3332 11.3751V9.29184C13.3331 9.18238 13.3546 9.07397 13.3965 8.97283C13.4384 8.87169 13.4998 8.77979 13.5772 8.7024C13.6546 8.62501 13.7465 8.56364 13.8476 8.5218C13.9488 8.47997 14.0572 8.45848 14.1667 8.45858C14.2761 8.45848 14.3845 8.47997 14.4857 8.52181C14.5868 8.56365 14.6787 8.62502 14.7561 8.70242C14.8335 8.77981 14.8949 8.87171 14.9367 8.97285C14.9786 9.07399 15 9.18239 14.9999 9.29184V11.3751Z"/>
</svg>
