<svg viewBox="0 0 20 20" xmlns="http://www.w3.org/2000/svg" id="icon">
  <path fill-rule="evenodd" d="M10 20C12.6522 20 15.1957 18.9464 17.0711 17.0711C18.9464 15.1957 20 12.6522 20 10C20 7.34784 18.9464 4.8043 17.0711 2.92893C15.1957 1.05357 12.6522 0 10 0C7.34784 0 4.8043 1.05357 2.92893 2.92893C1.05357 4.8043 0 7.34784 0 10C0 12.6522 1.05357 15.1957 2.92893 17.0711C4.8043 18.9464 7.34784 20 10 20ZM8.7459 13.7499C8.7459 14.0814 8.87801 14.3993 9.11315 14.6338C9.34829 14.8682 9.66721 14.9999 9.99976 14.9999C10.3323 14.9999 10.6512 14.8682 10.8864 14.6338C11.1215 14.3993 11.2536 14.0814 11.2536 13.7499L11.2536 9.26738L12.8748 10.8836C13.1113 11.1113 13.428 11.2373 13.7568 11.2345C14.0856 11.2316 14.4 11.1002 14.6325 10.8684C14.865 10.6366 14.9969 10.3231 14.9997 9.99538C15.0026 9.66763 14.8762 9.35188 14.6478 9.11613L10.8862 5.36613C10.6511 5.13179 10.3322 5.00014 9.99976 5.00014C9.66728 5.00014 9.34842 5.13179 9.11328 5.36613L5.35173 9.11613C5.12333 9.35188 4.99695 9.66763 4.9998 9.99538C5.00266 10.3231 5.13453 10.6366 5.367 10.8684C5.59948 11.1002 5.91396 11.2316 6.24271 11.2345C6.57147 11.2373 6.88819 11.1113 7.12467 10.8836L8.7459 9.26738L8.7459 13.7499Z"/>
</svg>
