<svg viewBox="0 0 20 20" xmlns="http://www.w3.org/2000/svg" id="icon">
  <path fill-rule="evenodd" d="M10 20C12.6522 20 15.1957 18.9464 17.0711 17.0711C18.9464 15.1957 20 12.6522 20 10C20 7.34784 18.9464 4.8043 17.0711 2.92893C15.1957 1.05357 12.6522 0 10 0C7.34784 0 4.8043 1.05357 2.92893 2.92893C1.05357 4.8043 0 7.34784 0 10C0 12.6522 1.05357 15.1957 2.92893 17.0711C4.8043 18.9464 7.34784 20 10 20ZM11.2536 6.25012C11.2536 5.9186 11.1215 5.60066 10.8864 5.36624C10.6512 5.13182 10.3323 5.00012 9.99976 5.00012C9.66721 5.00012 9.34829 5.13182 9.11315 5.36624C8.87801 5.60066 8.7459 5.9186 8.7459 6.25012V10.7326L7.12467 9.11637C6.88819 8.88867 6.57147 8.76268 6.24271 8.76553C5.91396 8.76838 5.59948 8.89984 5.367 9.1316C5.13453 9.36336 5.00266 9.67688 4.9998 10.0046C4.99695 10.3324 5.12333 10.6481 5.35173 10.8839L9.11328 14.6339C9.34841 14.8682 9.66728 14.9999 9.99975 14.9999C10.3322 14.9999 10.6511 14.8682 10.8862 14.6339L14.6478 10.8839C14.8762 10.6481 15.0026 10.3324 14.9997 10.0046C14.9969 9.67688 14.865 9.36336 14.6325 9.1316C14.4 8.89984 14.0856 8.76838 13.7568 8.76553C13.428 8.76268 13.1113 8.88867 12.8748 9.11637L11.2536 10.7326V6.25012Z"/>
</svg>
