<svg viewBox="0 0 20 20" xmlns="http://www.w3.org/2000/svg" id="icon">
  <path fill-rule="evenodd" d="M15.3209 12.5798C15.5316 12.7908 15.6499 13.0769 15.6499 13.3752C15.6499 13.6735 15.5316 13.9596 15.3209 14.1706L10.8263 18.6706C10.6156 18.8815 10.3299 19 10.0319 19C9.73398 19 9.44823 18.8815 9.23751 18.6706L4.74294 14.1706C4.63562 14.0668 4.55002 13.9426 4.49113 13.8054C4.43224 13.6681 4.40124 13.5205 4.39994 13.3711C4.39865 13.2217 4.42708 13.0736 4.48358 12.9353C4.54007 12.7971 4.62351 12.6715 4.72901 12.5658C4.83451 12.4602 4.95997 12.3767 5.09806 12.3201C5.23615 12.2635 5.38411 12.2351 5.53331 12.2364C5.68251 12.2377 5.82995 12.2687 5.96704 12.3277C6.10413 12.3866 6.22812 12.4723 6.33177 12.5798L8.90828 15.1594V2.12502C8.90828 1.82664 9.02667 1.54049 9.23739 1.32951C9.44811 1.11853 9.73392 1 10.0319 1C10.3299 1 10.6157 1.11853 10.8265 1.32951C11.0372 1.54049 11.1556 1.82664 11.1556 2.12502V15.1594L13.7321 12.5798C13.9428 12.3689 14.2285 12.2504 14.5265 12.2504C14.8244 12.2504 15.1102 12.3689 15.3209 12.5798Z"/>
</svg>
