<svg viewBox="0 0 20 20" xmlns="http://www.w3.org/2000/svg" id="icon">
  <path fill-rule="evenodd" d="M15.3038 4.69483C14.3024 3.69411 13.0383 2.99722 11.6576 2.68473C10.2769 2.37223 8.83592 2.45689 7.50128 2.92891C6.16665 3.40094 4.99285 4.24106 4.11561 5.35214C3.23837 6.46322 2.69349 7.7999 2.54399 9.20763C2.39448 10.6154 2.64644 12.0367 3.27075 13.3072C3.89505 14.5778 4.8662 15.6457 6.07192 16.3875C7.27764 17.1293 8.66869 17.5148 10.0843 17.4993C11.4998 17.4837 12.8821 17.0679 14.0713 16.2998C14.2089 16.2054 14.3641 16.1396 14.5276 16.1061C14.6911 16.0727 14.8597 16.0723 15.0234 16.1051C15.187 16.1378 15.3425 16.203 15.4805 16.2968C15.6186 16.3906 15.7365 16.5111 15.8272 16.6511C15.918 16.7912 15.9798 16.9481 16.0089 17.1124C16.0381 17.2768 16.034 17.4453 15.997 17.608C15.96 17.7708 15.8907 17.9245 15.7933 18.06C15.696 18.1956 15.5724 18.3103 15.43 18.3973C13.5634 19.6043 11.3478 20.155 9.13334 19.9624C6.91884 19.7697 4.83166 18.8447 3.20152 17.3335C1.57138 15.8223 0.49122 13.811 0.131686 11.6174C-0.227847 9.42384 0.153741 7.17299 1.21617 5.22046C2.27859 3.26793 3.96129 1.72505 5.99842 0.835548C8.03555 -0.0539497 10.311 -0.23935 12.4652 0.308636C14.6195 0.856622 16.5298 2.10676 17.8943 3.86154C19.2588 5.61632 19.9997 7.77571 20 9.99857C20.0002 10.6951 19.8065 11.3779 19.4404 11.9705C19.0744 12.5631 18.5506 13.042 17.9276 13.3536C17.3047 13.6652 16.6073 13.7972 15.9135 13.7347C15.2198 13.6722 14.5572 13.4177 14 12.9998C13.2877 13.9496 12.2607 14.6149 11.1027 14.8767C9.94473 15.1385 8.73138 14.9798 7.67975 14.4289C6.62812 13.8779 5.80684 12.9708 5.36284 11.8698C4.91884 10.7687 4.88111 9.5456 5.2564 8.41928C5.63168 7.29296 6.39549 6.33692 7.41116 5.72223C8.42684 5.10753 9.62809 4.87429 10.8 5.06424C11.9719 5.25419 13.038 5.85493 13.8075 6.75898C14.577 7.66302 14.9997 8.81138 15 9.99857C15 10.3301 15.1317 10.648 15.3661 10.8825C15.6005 11.1169 15.9185 11.2486 16.25 11.2486C16.5815 11.2486 16.8995 11.1169 17.1339 10.8825C17.3683 10.648 17.5 10.3301 17.5 9.99857C17.5 8.07733 16.7675 6.16108 15.3038 4.69483ZM12.5 9.99857C12.5 9.33553 12.2366 8.69965 11.7678 8.23081C11.2989 7.76197 10.663 7.49858 10 7.49858C9.33697 7.49858 8.70108 7.76197 8.23224 8.23081C7.7634 8.69965 7.50001 9.33553 7.50001 9.99857C7.50001 10.6616 7.7634 11.2975 8.23224 11.7663C8.70108 12.2352 9.33697 12.4986 10 12.4986C10.663 12.4986 11.2989 12.2352 11.7678 11.7663C12.2366 11.2975 12.5 10.6616 12.5 9.99857Z"/>
</svg>
