<svg viewBox="0 0 20 20" xmlns="http://www.w3.org/2000/svg" id="icon">
  <path fill-rule="evenodd" d="M14.3463 16.1125C12.9017 17.1393 11.1402 17.6214 9.37406 17.4732C7.60795 17.325 5.95138 16.5562 4.69809 15.3031C3.4448 14.0499 2.67579 12.3934 2.52741 10.6274C2.37903 8.86126 2.86087 7.09969 3.8875 5.655L14.3463 16.115V16.1125ZM16.1138 14.345L5.655 3.8875C7.09964 2.86001 8.86153 2.37746 10.6281 2.52546C12.3947 2.67346 14.0517 3.44244 15.3053 4.69598C16.5588 5.94951 17.3278 7.60656 17.4758 9.37314C17.6238 11.1397 17.1412 12.9016 16.1138 14.3463V14.345ZM20 10C20 12.6522 18.9464 15.1957 17.0711 17.0711C15.1957 18.9464 12.6522 20 10 20C7.34784 20 4.8043 18.9464 2.92893 17.0711C1.05357 15.1957 0 12.6522 0 10C0 7.34784 1.05357 4.8043 2.92893 2.92893C4.8043 1.05357 7.34784 0 10 0C12.6522 0 15.1957 1.05357 17.0711 2.92893C18.9464 4.8043 20 7.34784 20 10Z"/>
</svg>
