<svg xmlns="http://www.w3.org/2000/svg" viewBox="0 0 20 20"><path fill="currentColor" fill-rule="evenodd" d="M4.545 2H2.727A2.728 2.728 0 0 0 0 4.727v1.818a.91.91 0 0 0 1.818 0V4.727a.91.91 0 0 1 .91-.909h1.817a.91.91 0 0 0 0-1.818Zm0 14.727H2.727a.91.91 0 0 1-.909-.91V14A.91.91 0 0 0 0 14v1.818a2.728 2.728 0 0 0 2.727 2.727h1.818a.91.91 0 0 0 0-1.818Zm10.91-12.91h1.818a.91.91 0 0 1 .909.91v1.818a.91.91 0 0 0 1.818 0V4.727A2.728 2.728 0 0 0 17.273 2h-1.818a.91.91 0 0 0 0 1.818Zm0 14.728h1.818A2.728 2.728 0 0 0 20 15.818V14a.91.91 0 0 0-1.818 0v1.818a.91.91 0 0 1-.91.91h-1.817a.91.91 0 0 0 0 1.817Zm-8.182-12V14a.91.91 0 0 0 1.818 0V6.545a.91.91 0 0 0-1.818 0Zm-3.637 0V14a.91.91 0 0 0 1.819 0V6.545a.91.91 0 0 0-1.819 0Zm7.273 0V14a.91.91 0 0 0 1.818 0V6.545a.91.91 0 0 0-1.818 0Zm3.636 0V14a.91.91 0 0 0 1.818 0V6.545a.91.91 0 0 0-1.818 0Z" clip-rule="evenodd"/></svg>