<svg width="20" height="20" viewBox="0 0 20 20" fill="none" xmlns="http://www.w3.org/2000/svg" id="icon">
  <path fill-rule="evenodd" clip-rule="evenodd"
    d="M4.54526 1.5H2.72737C1.22189 1.5 0 2.72168 0 4.22716V6.04526C0 6.54716 0.407368 6.95453 0.909053 6.95453C1.41074 6.95453 1.81811 6.54716 1.81811 6.04526V4.22737C1.81822 3.98627 1.91406 3.75508 2.08456 3.58462C2.25506 3.41416 2.48627 3.31837 2.72737 3.31832H4.54547C5.04737 3.31832 5.45453 2.91095 5.45453 2.40926C5.45453 1.90758 5.04716 1.5 4.54526 1.5ZM4.54526 16.2274H2.72737C2.4862 16.2273 2.25492 16.1315 2.08441 15.9609C1.9139 15.7904 1.81811 15.5591 1.81811 15.3179V13.5C1.81811 12.9981 1.41095 12.5907 0.909053 12.5907C0.407158 12.5907 0 12.9981 0 13.5V15.3181C0 16.8234 1.22189 18.0453 2.72737 18.0453H4.54547C5.04737 18.0453 5.45453 17.6381 5.45453 17.1362C5.45453 16.6343 5.04716 16.2274 4.54526 16.2274ZM15.4547 3.31789H17.2726C17.5138 3.31795 17.7451 3.41379 17.9156 3.58435C18.0861 3.7549 18.1819 3.9862 18.1819 4.22737V6.04526C18.1819 6.54716 18.5891 6.95453 19.0909 6.95453C19.5928 6.95453 20 6.54716 20 6.04526V4.22737C20 2.72211 18.7781 1.50021 17.2726 1.50021H15.4547C14.9528 1.50021 14.5457 1.90737 14.5457 2.40926C14.5457 2.91116 14.9528 3.31789 15.4547 3.31789ZM15.4547 18.0453H17.2726C18.7781 18.0453 20 16.8236 20 15.3181V13.5C20 12.9981 19.5926 12.5907 19.0909 12.5907C18.5893 12.5907 18.1819 12.9981 18.1819 13.5V15.3181C18.1818 15.5592 18.0859 15.7904 17.9154 15.9609C17.7449 16.1313 17.5137 16.2271 17.2726 16.2272H15.4547C14.9528 16.2272 14.5457 16.6345 14.5457 17.1362C14.5457 17.6379 14.9528 18.0453 15.4547 18.0453ZM7.27263 6.04526V13.5C7.27982 13.7363 7.37875 13.9605 7.54845 14.1251C7.71814 14.2897 7.94527 14.3818 8.18168 14.3818C8.4181 14.3818 8.64522 14.2897 8.81492 14.1251C8.98462 13.9605 9.08354 13.7363 9.09074 13.5V6.04526C9.09074 5.54358 8.68358 5.13621 8.18189 5.13621C7.68021 5.13621 7.27263 5.54358 7.27263 6.04526ZM3.63642 6.04526V13.5C3.63642 14.0017 4.04358 14.4091 4.54547 14.4091C5.04737 14.4091 5.45453 14.0017 5.45453 13.5V6.04526C5.45453 5.54358 5.04737 5.13621 4.54547 5.13621C4.04358 5.13621 3.63642 5.54358 3.63642 6.04526ZM10.9091 6.04526V13.5C10.9091 14.0017 11.3164 14.4091 11.8181 14.4091C12.3198 14.4091 12.7274 14.0017 12.7274 13.5V6.04526C12.7202 5.80896 12.6212 5.58474 12.4516 5.42013C12.2819 5.25552 12.0547 5.16346 11.8183 5.16346C11.5819 5.16346 11.3548 5.25552 11.1851 5.42013C11.0154 5.58474 10.9162 5.80896 10.9091 6.04526ZM14.5453 6.04526V13.5C14.5504 13.7377 14.6484 13.964 14.8183 14.1303C14.9882 14.2966 15.2166 14.3897 15.4543 14.3897C15.6921 14.3897 15.9204 14.2966 16.0903 14.1303C16.2602 13.964 16.3583 13.7377 16.3634 13.5V6.04526C16.3636 5.54358 15.9564 5.13621 15.4545 5.13621C14.9526 5.13621 14.5453 5.54358 14.5453 6.04526Z"
    fill="currentColor" />
</svg>