<svg viewBox="0 0 20 20" xmlns="http://www.w3.org/2000/svg">
<path fill-rule="evenodd" clip-rule="evenodd" d="M4.68293 0C3.20119 0 2 1.20119 2 2.68293V19.2683C2 19.5253 2.13485 19.7635 2.35525 19.8957C2.57564 20.028 2.84926 20.0348 3.07604 19.9139L10.0488 16.1951L17.0216 19.9139C17.2483 20.0348 17.5219 20.028 17.7423 19.8957C17.9627 19.7635 18.0976 19.5254 18.0976 19.2683V2.68293C18.0976 1.20119 16.8964 0 15.4146 0H4.68293ZM13.6655 7.27523C14.0464 6.89422 14.0464 6.27651 13.6655 5.8955C13.2845 5.51451 12.6667 5.51451 12.2858 5.8955L9.07317 9.1081L7.81181 7.84673C7.43081 7.46573 6.81309 7.46573 6.43209 7.84673C6.05109 8.22771 6.05109 8.84546 6.43209 9.22644L8.38332 11.1777C8.76429 11.5586 9.38205 11.5586 9.76302 11.1777L13.6655 7.27523Z"/>
</svg>
