<svg viewBox="0 0 20 20" xmlns="http://www.w3.org/2000/svg" id="icon">
  <path d="M8.875 3.91806C7.64843 3.31192 6.30173 2.99793 4.9375 3.00001C3.52562 3.00001 2.18913 3.33115 1 3.91806V15.3366C2.22659 14.7305 3.57328 14.4165 4.9375 14.4185C6.81512 14.4185 8.55775 15.0009 10 16C11.4918 14.9669 13.2565 14.4156 15.0625 14.4185C16.4744 14.4185 17.8109 14.7497 19 15.3366V3.91806C17.7734 3.31192 16.4267 2.99793 15.0625 3.00001C13.6506 3.00001 12.3141 3.33115 11.125 3.91806V12.1348C11.125 12.4377 11.0065 12.7281 10.7955 12.9422C10.5845 13.1564 10.2984 13.2767 10 13.2767C9.70163 13.2767 9.41548 13.1564 9.2045 12.9422C8.99353 12.7281 8.875 12.4377 8.875 12.1348V3.91806Z"/>
</svg>
