<svg viewBox="0 0 16 16"  xmlns="http://www.w3.org/2000/svg">
<path d="M8.69356 5.16369L6.32335 2.86814C6.18095 2.73023 6.18095 2.50662 6.32335 2.36869L6.83903 1.86924C6.98143 1.73132 7.21232 1.73132 7.35472 1.86924L8.95141 3.41562L12.3713 0.103434C12.5137 -0.0344781 12.7446 -0.0344781 12.887 0.103434L13.4027 0.602882C13.5451 0.740795 13.5451 0.964404 13.4027 1.10233L9.20926 5.1637C9.06684 5.30162 8.83596 5.30162 8.69356 5.16369Z" />
<path d="M4.88867 12.7998C5.62478 12.7998 6.22266 13.3981 6.22266 14.1348C6.22247 14.8713 5.62467 15.4688 4.88867 15.4688C4.15278 15.4686 3.55585 14.8712 3.55566 14.1348C3.55566 13.3981 4.15266 12.7999 4.88867 12.7998ZM12.8887 12.7998C13.6248 12.7998 14.2227 13.3981 14.2227 14.1348C14.2225 14.8713 13.6247 15.4688 12.8887 15.4688C12.1528 15.4686 11.5559 14.8712 11.5557 14.1348C11.5557 13.3981 12.1527 12.7999 12.8887 12.7998ZM2.66699 0.866211C2.9863 0.866365 3.26118 1.09459 3.32227 1.40918L3.36426 1.75586H5.18652C4.78721 2.39143 4.8681 3.24003 5.43262 3.78711L7.80371 6.08301L7.92676 6.19238C8.56724 6.69975 9.50079 6.66344 10.0996 6.08398L10.1006 6.08301L14.293 2.02148L14.4092 1.89648C14.4473 1.85112 14.4823 1.80413 14.5146 1.75586H15.0498C15.6137 1.75586 16.0636 2.31931 15.9053 2.88672L14.4111 8.55273C14.3027 8.93611 13.9527 9.20015 13.5557 9.2002H4.74707L4.99707 10.666H13.5557C13.9251 10.6661 14.2227 10.9633 14.2227 11.333C14.2225 11.7026 13.925 11.9999 13.5557 12H4.41992C4.12552 12 3.85023 11.7721 3.78906 11.458L2.11523 2.20117H0.666992C0.299036 2.20117 0.000160505 1.9024 0 1.53418C0 1.16583 0.298937 0.866211 0.666992 0.866211H2.66699ZM9.20996 5.16406L9.15137 5.20898C9.01009 5.29898 8.8188 5.28409 8.69434 5.16406L8.55566 5.03027L12.2217 2.24512L9.20996 5.16406ZM8.20703 4.69238L6.32324 2.86816C6.18107 2.73037 6.18127 2.50707 6.32324 2.36914L6.43555 2.25879L8.20703 4.69238Z" />
</svg>
