<svg viewBox="0 0 20 20" xmlns="http://www.w3.org/2000/svg" id="icon">
  <path d="M1.67647 0C1.36445 0 1.06521 0.123949 0.84458 0.34458C0.623949 0.565211 0.5 0.864451 0.5 1.17647C0.5 1.48849 0.623949 1.78773 0.84458 2.00836C1.06521 2.22899 1.36445 2.35294 1.67647 2.35294H3.11176L3.47059 3.79059C3.47415 3.80714 3.47807 3.82362 3.48235 3.84L5.08 10.2282L4.02941 11.2776C2.54706 12.76 3.59647 15.2941 5.69294 15.2941H15.7941C16.1061 15.2941 16.4054 15.1702 16.626 14.9495C16.8466 14.7289 16.9706 14.4297 16.9706 14.1176C16.9706 13.8056 16.8466 13.5064 16.626 13.2858C16.4054 13.0651 16.1061 12.9412 15.7941 12.9412H5.69294L6.86941 11.7647H14.6176C14.8361 11.7646 15.0502 11.7037 15.2359 11.5888C15.4217 11.4739 15.5718 11.3095 15.6694 11.1141L19.1988 4.05529C19.2884 3.87598 19.3307 3.67674 19.3217 3.47648C19.3127 3.27622 19.2526 3.08159 19.1473 2.91105C19.0419 2.74051 18.8947 2.59973 18.7197 2.50205C18.5446 2.40438 18.3475 2.35305 18.1471 2.35294H5.53529L5.17059 0.890588C5.10686 0.63618 4.95994 0.410363 4.75319 0.249006C4.54643 0.0876496 4.29168 6.89463e-06 4.02941 0H1.67647ZM16.9706 18.2353C16.9706 18.7033 16.7847 19.1522 16.4537 19.4831C16.1228 19.8141 15.6739 20 15.2059 20C14.7379 20 14.289 19.8141 13.958 19.4831C13.6271 19.1522 13.4412 18.7033 13.4412 18.2353C13.4412 17.7673 13.6271 17.3184 13.958 16.9875C14.289 16.6565 14.7379 16.4706 15.2059 16.4706C15.6739 16.4706 16.1228 16.6565 16.4537 16.9875C16.7847 17.3184 16.9706 17.7673 16.9706 18.2353ZM5.79412 20C6.26215 20 6.71101 19.8141 7.04195 19.4831C7.3729 19.1522 7.55882 18.7033 7.55882 18.2353C7.55882 17.7673 7.3729 17.3184 7.04195 16.9875C6.71101 16.6565 6.26215 16.4706 5.79412 16.4706C5.32609 16.4706 4.87723 16.6565 4.54628 16.9875C4.21534 17.3184 4.02941 17.7673 4.02941 18.2353C4.02941 18.7033 4.21534 19.1522 4.54628 19.4831C4.87723 19.8141 5.32609 20 5.79412 20Z"/>
</svg>
