<svg viewBox="0 0 20 20" xmlns="http://www.w3.org/2000/svg" id="icon">
  <path d="M3.33333 1.08334C3.73264 1.08334 4.07639 1.36795 4.15278 1.76132L4.20486 2.19536H18.8125C19.5174 2.19536 20.0799 2.89905 19.8819 3.60831L18.0139 10.6903C17.8785 11.1699 17.441 11.5 16.9444 11.5H5.93403L6.24653 13.332H16.9444C17.4062 13.332 17.7778 13.7038 17.7778 14.166C17.7778 14.6282 17.4062 15 16.9444 15H5.52431C5.15625 15 4.8125 14.715 4.73611 14.3224L2.64375 2.75136H0.833333C0.373264 2.75136 0 2.3778 0 1.91735C0 1.45691 0.373264 1.08334 0.833333 1.08334H3.33333ZM4.44444 17.668C4.44444 16.7471 5.19097 16 6.11111 16C7.03125 16 7.77778 16.7471 7.77778 17.668C7.77778 18.5889 7.03125 19.336 6.11111 19.336C5.19097 19.336 4.44444 18.5889 4.44444 17.668ZM17.7778 17.668C17.7778 18.5889 17.0313 19.336 16.1111 19.336C15.191 19.336 14.4444 18.5889 14.4444 17.668C14.4444 16.7471 15.191 16 16.1111 16C17.0313 16 17.7778 16.7471 17.7778 17.668Z"/>
</svg>
