<svg viewBox="0 0 20 20" fill="none" xmlns="http://www.w3.org/2000/svg" id="icon">
  <g clip-path="url(#clip0_3483_288)">
    <path
      d="M11.8271 1C13.058 1 14.0557 1.99782 14.0557 3.22852V4.2002H17.3125C18.7954 4.20023 19.9977 5.40185 19.998 6.88477L20 16.4844C19.9998 17.9674 18.7974 19.1699 17.3145 19.1699H2.68555C1.20257 19.1697 -0.000104019 17.9675 0 16.4844V6.88574C0 5.40273 1.20268 4.20045 2.68555 4.2002H5.94238V3.22852C5.94238 1.9978 6.94019 1.00001 8.1709 1H11.8271ZM2.68555 5.91406C2.14933 5.91432 1.71484 6.34943 1.71484 6.88574V16.4844L1.71875 16.584C1.76849 17.0737 2.18286 17.4558 2.68555 17.4561H17.3145C17.8508 17.4561 18.286 17.0208 18.2861 16.4844L18.2842 6.88477C18.2839 6.34854 17.8488 5.91409 17.3125 5.91406H2.68555ZM15.4854 7.85645C15.9585 7.85666 16.3418 8.24064 16.3418 8.71387C16.3417 9.18703 15.9585 9.57108 15.4854 9.57129H4.51465C4.04134 9.57129 3.6573 9.18716 3.65723 8.71387C3.65723 8.24051 4.0413 7.85645 4.51465 7.85645H15.4854ZM8.1709 2.71387C7.8869 2.71388 7.65625 2.94451 7.65625 3.22852V4.2002H12.3418V3.22852C12.3418 2.94448 12.1112 2.71387 11.8271 2.71387H8.1709Z"
      fill="currentColor" />
  </g>
  <defs>
    <clipPath id="clip0_3483_288">
      <rect width="20" height="20" fill="white" />
    </clipPath>
  </defs>
</svg>