<svg width="20" height="20" viewBox="0 0 20 20" fill="none" xmlns="http://www.w3.org/2000/svg" id="icon">
  <path
    d="M1.66765 7.08334L1.66585 11.6642C1.66477 14.4149 1.66423 15.7903 2.51855 16.645C3.37287 17.4997 4.74826 17.4997 7.49905 17.4998L12.4999 17.4998C15.2494 17.4999 16.6241 17.5 17.4783 16.6459C18.3326 15.7918 18.3329 14.4171 18.3334 11.6677L18.3343 7.08334"
    stroke="currentColor" stroke-width="1.5" stroke-linecap="round" stroke-linejoin="round" />
  <path
    d="M7.08203 5.41667C7.08203 4.24628 7.08203 3.66109 7.36291 3.24072C7.48451 3.05873 7.64076 2.90248 7.82275 2.78088C8.24311 2.5 8.82831 2.5 9.99872 2.5C11.1691 2.5 11.7543 2.5 12.1746 2.78088C12.3566 2.90248 12.5129 3.05873 12.6345 3.24072C12.9154 3.66109 12.9154 4.24628 12.9154 5.41667"
    stroke="currentColor" stroke-width="1.5" stroke-linecap="round" stroke-linejoin="round" />
  <path
    d="M16.665 5.41679L3.33235 5.41666C2.41198 5.41671 1.66561 6.16306 1.66553 7.08343C1.66561 8.92424 3.15835 10.417 4.99915 10.4172H14.9981C16.839 10.4171 18.3316 8.92441 18.3317 7.08357C18.3316 6.16317 17.5853 5.41685 16.665 5.41679Z"
    stroke="currentColor" stroke-width="1.5" stroke-linecap="round" stroke-linejoin="round" />
  <path
    d="M8.33203 10.4167V11.25C8.33203 11.6375 8.33203 11.8312 8.37464 11.9902C8.49022 12.4216 8.82714 12.7585 9.25847 12.8741C9.41747 12.9167 9.61122 12.9167 9.99872 12.9167C10.3862 12.9167 10.5799 12.9167 10.7389 12.8741C11.1702 12.7585 11.5072 12.4216 11.6228 11.9902C11.6654 11.8312 11.6654 11.6375 11.6654 11.25V10.4167"
    stroke="currentColor" stroke-width="1.5" stroke-linecap="round" stroke-linejoin="round" />
</svg>