<svg viewBox="0 0 20 20" xmlns="http://www.w3.org/2000/svg" id="icon">
  <path fill-rule="evenodd" d="M3.57143 1C2.88944 1 2.23539 1.27092 1.75315 1.75315C1.27092 2.23539 1 2.88944 1 3.57143V16.4286C1 17.1106 1.27092 17.7646 1.75315 18.2468C2.23539 18.7291 2.88944 19 3.57143 19H16.4286C17.1106 19 17.7646 18.7291 18.2468 18.2468C18.7291 17.7646 19 17.1106 19 16.4286V3.57143C19 2.88944 18.7291 2.23539 18.2468 1.75315C17.7646 1.27092 17.1106 1 16.4286 1H3.57143ZM15.1429 6.14286C15.1429 5.80186 15.0074 5.47484 14.7663 5.23372C14.5252 4.9926 14.1981 4.85714 13.8571 4.85714C13.5162 4.85714 13.1891 4.9926 12.948 5.23372C12.7069 5.47484 12.5714 5.80186 12.5714 6.14286V13.8571C12.5714 14.1981 12.7069 14.5252 12.948 14.7663C13.1891 15.0074 13.5162 15.1429 13.8571 15.1429C14.1981 15.1429 14.5252 15.0074 14.7663 14.7663C15.0074 14.5252 15.1429 14.1981 15.1429 13.8571V6.14286ZM11.2857 8.71429C11.2857 8.37329 11.1503 8.04627 10.9091 7.80515C10.668 7.56403 10.341 7.42857 10 7.42857C9.65901 7.42857 9.33198 7.56403 9.09086 7.80515C8.84974 8.04627 8.71429 8.37329 8.71429 8.71429V13.8571C8.71429 14.1981 8.84974 14.5252 9.09086 14.7663C9.33198 15.0074 9.65901 15.1429 10 15.1429C10.341 15.1429 10.668 15.0074 10.9091 14.7663C11.1503 14.5252 11.2857 14.1981 11.2857 13.8571V8.71429ZM7.42857 12.5714C7.42857 12.2304 7.29311 11.9034 7.05199 11.6623C6.81088 11.4212 6.48385 11.2857 6.14286 11.2857C5.80186 11.2857 5.47484 11.4212 5.23372 11.6623C4.9926 11.9034 4.85714 12.2304 4.85714 12.5714V13.8571C4.85714 14.1981 4.9926 14.5252 5.23372 14.7663C5.47484 15.0074 5.80186 15.1429 6.14286 15.1429C6.48385 15.1429 6.81088 15.0074 7.05199 14.7663C7.29311 14.5252 7.42857 14.1981 7.42857 13.8571V12.5714Z"/>
</svg>
