<svg viewBox="0 0 20 20" xmlns="http://www.w3.org/2000/svg" id="icon">
  <path fill-rule="evenodd" d="M1.59724 2.66389C1.17216 3.08897 0.93335 3.66551 0.93335 4.26667V8.8C0.93335 9.40116 1.17216 9.97769 1.59724 10.4028C2.02232 10.8279 2.59886 11.0667 3.20002 11.0667H5.46668V14.4667L8.86668 11.0667H11.1333C11.7345 11.0667 12.311 10.8279 12.7361 10.4028C13.1612 9.97769 13.4 9.40116 13.4 8.8V4.26667C13.4 3.66551 13.1612 3.08897 12.7361 2.66389C12.311 2.23881 11.7345 2 11.1333 2H3.20002C2.59886 2 2.02232 2.23881 1.59724 2.66389ZM15.6667 8.8V6.53333H16.8C17.4012 6.53333 17.9777 6.77214 18.4028 7.19722C18.8279 7.62231 19.0667 8.19884 19.0667 8.8V13.3333C19.0667 13.9345 18.8279 14.511 18.4028 14.9361C17.9777 15.3612 17.4012 15.6 16.8 15.6H14.5334V19L11.1334 15.6H8.8667C8.4825 15.6 8.12096 15.5048 7.80363 15.3359L9.8051 13.3333H11.1334C12.3357 13.3333 13.4887 12.8557 14.3389 12.0056C15.1891 11.1554 15.6667 10.0023 15.6667 8.8Z"/>
</svg>
