<svg viewBox="0 0 20 20" xmlns="http://www.w3.org/2000/svg" id="icon">
  <path fill-rule="evenodd" d="M10 20C12.6522 20 15.1957 18.9464 17.0711 17.0711C18.9464 15.1957 20 12.6522 20 10C20 7.34784 18.9464 4.8043 17.0711 2.92893C15.1957 1.05357 12.6522 0 10 0C7.34784 0 4.8043 1.05357 2.92893 2.92893C1.05357 4.8043 0 7.34784 0 10C0 12.6522 1.05357 15.1957 2.92893 17.0711C4.8043 18.9464 7.34784 20 10 20ZM14.648 8.26433C14.8764 8.01234 15.0028 7.67483 15 7.32451C14.9971 6.97418 14.8652 6.63907 14.6328 6.39134C14.4003 6.14361 14.0858 6.00309 13.757 6.00005C13.4283 5.99701 13.1116 6.13168 12.8751 6.37506L8.74615 10.7749L7.12492 9.0473C6.88844 8.80391 6.57171 8.66924 6.24296 8.67229C5.9142 8.67533 5.59972 8.81585 5.36725 9.06358C5.13477 9.3113 5.0029 9.64642 5.00005 9.99674C4.99719 10.3471 5.12357 10.6846 5.35197 10.9366L7.85967 13.6088C8.09481 13.8593 8.41367 14 8.74615 14C9.07862 14 9.39749 13.8593 9.63262 13.6088L14.648 8.26433Z"/>
</svg>
