<svg viewBox="0 0 20 20" xmlns="http://www.w3.org/2000/svg" id="icon">
  <path fill-rule="evenodd" d="M1.15041 19.5495C0.86198 19.261 0.699951 18.8698 0.699951 18.4618C0.699951 18.0539 0.86198 17.6626 1.15041 17.3741L8.84297 9.68153C9.13148 9.3931 9.52274 9.23107 9.9307 9.23107C10.3387 9.23107 10.7299 9.3931 11.0184 9.68153L18.711 17.3741C18.9912 17.6643 19.1463 18.0529 19.1428 18.4563C19.1393 18.8597 18.9775 19.2456 18.6922 19.5308C18.407 19.8161 18.0211 19.9779 17.6177 19.9814C17.2143 19.9849 16.8257 19.8298 16.5355 19.5495L9.9307 12.9447L3.32586 19.5495C3.03735 19.838 2.64609 20 2.23813 20C1.83018 20 1.43892 19.838 1.15041 19.5495ZM1.15041 10.3185C0.86198 10.03 0.699951 9.6387 0.699951 9.23074C0.699951 8.82279 0.86198 8.43153 1.15041 8.14302L8.84297 0.450455C9.13148 0.162029 9.52274 0 9.9307 0C10.3387 0 10.7299 0.162029 11.0184 0.450455L18.711 8.14302C18.9912 8.43318 19.1463 8.82181 19.1428 9.22521C19.1393 9.6286 18.9775 10.0145 18.6922 10.2997C18.407 10.585 18.0211 10.7468 17.6177 10.7503C17.2143 10.7538 16.8257 10.5987 16.5355 10.3185L9.9307 3.71364L3.32586 10.3185C3.03735 10.6069 2.64609 10.7689 2.23813 10.7689C1.83018 10.7689 1.43892 10.6069 1.15041 10.3185Z"/>
</svg>
