<svg viewBox="0 0 20 20" xmlns="http://www.w3.org/2000/svg" id="icon">
  <path fill-rule="evenodd" d="M15.4279 0.586306C15.8033 0.961831 16.0142 1.47108 16.0142 2.00208C16.0142 2.53307 15.8033 3.04232 15.4279 3.41785L8.83362 10.0121L15.4279 16.6063C15.7926 16.984 15.9945 17.4898 15.9899 18.0149C15.9853 18.5399 15.7747 19.0422 15.4035 19.4135C15.0322 19.7848 14.5299 19.9954 14.0049 19.9999C13.4798 20.0045 12.974 19.8026 12.5963 19.4379L4.58631 11.4279C4.21089 11.0523 4 10.5431 4 10.0121C4 9.4811 4.21089 8.97184 4.58631 8.59632L12.5963 0.586306C12.9718 0.210895 13.4811 0 14.0121 0C14.5431 0 15.0523 0.210895 15.4279 0.586306Z"/>
</svg>
