<svg viewBox="0 0 20 20" xmlns="http://www.w3.org/2000/svg" id="icon">
  <path fill-rule="evenodd" d="M0.584867 4.60935C0.95947 4.23516 1.46747 4.02495 1.99716 4.02495C2.52685 4.02495 3.03485 4.23516 3.40946 4.60935L9.98751 11.1821L16.5656 4.60935C16.7498 4.41871 16.9703 4.26666 17.214 4.16205C17.4577 4.05744 17.7198 4.00238 17.9851 4.00008C18.2503 3.99777 18.5133 4.04827 18.7588 4.14863C19.0043 4.24899 19.2274 4.3972 19.4149 4.58461C19.6025 4.77202 19.7508 4.99487 19.8512 5.24017C19.9517 5.48547 20.0022 5.7483 19.9999 6.01333C19.9976 6.27835 19.9425 6.54027 19.8378 6.78378C19.7331 7.0273 19.5809 7.24755 19.3902 7.43167L11.3998 15.4156C11.0252 15.7898 10.5172 16 9.98751 16C9.45782 16 8.94982 15.7898 8.57522 15.4156L0.584867 7.43167C0.210377 7.05737 0 6.54977 0 6.02051C0 5.49125 0.210377 4.98365 0.584867 4.60935Z"/>
</svg>
