<svg viewBox="0 0 20 21" xmlns="http://www.w3.org/2000/svg">
<path fill-rule="evenodd" clip-rule="evenodd" d="M4.64937 1.32754C4.96225 1.01476 5.38654 0.83905 5.82894 0.83905C6.27134 0.83905 6.69563 1.01476 7.0085 1.32754L15.3505 9.66956C15.6633 9.98243 15.839 10.4067 15.839 10.8491C15.839 11.2915 15.6633 11.7158 15.3505 12.0287L7.0085 20.3707C6.69383 20.6746 6.27239 20.8428 5.83494 20.839C5.39749 20.8352 4.97903 20.6597 4.6697 20.3504C4.36036 20.041 4.1849 19.6226 4.1811 19.1851C4.1773 18.7477 4.34546 18.3262 4.64938 18.0116L11.8118 10.8491L4.64937 3.68666C4.3366 3.37379 4.16089 2.9495 4.16089 2.5071C4.16089 2.0647 4.3366 1.64041 4.64937 1.32754Z"/>
</svg>