<svg viewBox="0 0 20 20" xmlns="http://www.w3.org/2000/svg" id="icon">
  <path fill-rule="evenodd" d="M18.7302 0.450456C19.0186 0.738969 19.1807 1.13023 19.1807 1.53818C19.1807 1.94614 19.0186 2.3374 18.7302 2.62591L11.0377 10.3185C10.7491 10.6069 10.3579 10.7689 9.94993 10.7689C9.54197 10.7689 9.15071 10.6069 8.8622 10.3185L1.16964 2.62591C0.889389 2.33574 0.734315 1.94711 0.73782 1.54372C0.741325 1.14033 0.90313 0.754449 1.18838 0.469197C1.47363 0.183944 1.85951 0.0221401 2.26291 0.0186347C2.6663 0.0151293 3.05493 0.170203 3.3451 0.450456L9.94993 7.05529L16.5548 0.450456C16.8433 0.162029 17.2345 0 17.6425 0C18.0504 0 18.4417 0.162029 18.7302 0.450456ZM18.7302 9.68153C19.0186 9.97004 19.1807 10.3613 19.1807 10.7693C19.1807 11.1772 19.0186 11.5685 18.7302 11.857L11.0377 19.5495C10.7491 19.838 10.3579 20 9.94993 20C9.54197 20 9.15071 19.838 8.8622 19.5495L1.16964 11.857C1.0227 11.7151 0.90549 11.5453 0.824858 11.3576C0.744226 11.1699 0.701784 10.968 0.700009 10.7637C0.698234 10.5594 0.737161 10.3568 0.814519 10.1678C0.891876 9.97869 1.00612 9.80691 1.15057 9.66246C1.29503 9.518 1.4668 9.40376 1.65588 9.32641C1.84496 9.24905 2.04755 9.21012 2.25183 9.2119C2.45611 9.21367 2.658 9.25611 2.8457 9.33674C3.03341 9.41738 3.20317 9.53458 3.3451 9.68153L9.94993 16.2864L16.5548 9.68153C16.8433 9.3931 17.2345 9.23107 17.6425 9.23107C18.0504 9.23107 18.4417 9.3931 18.7302 9.68153Z"/>
</svg>
