<svg viewBox="0 0 20 20" xmlns="http://www.w3.org/2000/svg">
<path fill-rule="evenodd" clip-rule="evenodd" d="M0.488487 16.1896C0.175711 15.8768 1.07149e-07 15.4525 1.45825e-07 15.0101C1.84501e-07 14.5677 0.175711 14.1434 0.488487 13.8305L8.83051 5.4885C9.14338 5.17572 9.56767 5.00001 10.0101 5.00001C10.4525 5.00001 10.8768 5.17572 11.1896 5.4885L19.5317 13.8305C19.8356 14.1452 20.0037 14.5666 19.9999 15.0041C19.9961 15.4415 19.8207 15.86 19.5113 16.1693C19.202 16.4787 18.7835 16.6541 18.3461 16.6579C17.9086 16.6617 17.4872 16.4936 17.1725 16.1896L10.0101 9.02718L2.84761 16.1896C2.53474 16.5024 2.11045 16.6781 1.66805 16.6781C1.22565 16.6781 0.801359 16.5024 0.488487 16.1896Z"/>
</svg>
