<svg viewBox="0 0 20 20" xmlns="http://www.w3.org/2000/svg">
<path fill-rule="evenodd" clip-rule="evenodd" d="M19.5115 5.48849C19.8243 5.80136 20 6.22565 20 6.66805C20 7.11045 19.8243 7.53474 19.5115 7.84761L11.1695 16.1896C10.8566 16.5024 10.4323 16.6781 9.98993 16.6781C9.54753 16.6781 9.12324 16.5024 8.81037 16.1896L0.468342 7.84761C0.164428 7.53295 -0.00373826 7.1115 6.30698e-05 6.67405C0.0038644 6.2366 0.179329 5.81815 0.488665 5.50881C0.798001 5.19947 1.21646 5.02401 1.65391 5.02021C2.09136 5.01641 2.5128 5.18457 2.82747 5.48849L9.98993 12.6509L17.1524 5.48849C17.4653 5.17571 17.8896 5 18.332 5C18.7744 5 19.1986 5.17571 19.5115 5.48849Z"/>
</svg>
