<svg viewBox="0 0 20 21" xmlns="http://www.w3.org/2000/svg">
<path fill-rule="evenodd" clip-rule="evenodd" d="M15.3506 20.3506C15.0378 20.6633 14.6135 20.8391 14.1711 20.8391C13.7287 20.8391 13.3044 20.6633 12.9915 20.3506L4.64948 12.0085C4.3367 11.6957 4.16099 11.2714 4.16099 10.829C4.16099 10.3866 4.3367 9.96229 4.64948 9.64942L12.9915 1.30739C13.3062 1.00348 13.7276 0.835312 14.1651 0.839113C14.6025 0.842915 15.021 1.01838 15.3303 1.32772C15.6396 1.63705 15.8151 2.05551 15.8189 2.49296C15.8227 2.93041 15.6545 3.35185 15.3506 3.66652L8.18816 10.829L15.3506 17.9914C15.6634 18.3043 15.8391 18.7286 15.8391 19.171C15.8391 19.6134 15.6634 20.0377 15.3506 20.3506Z"/>
</svg>
