<svg viewBox="0 0 20 20" xmlns="http://www.w3.org/2000/svg" id="icon">
  <path fill-rule="evenodd" d="M7.29289 1.29289C7.10536 1.48043 7 1.73478 7 2V3H5C4.46957 3 3.96086 3.21071 3.58579 3.58579C3.21071 3.96086 3 4.46957 3 5V7H2C1.73478 7 1.48043 7.10536 1.29289 7.29289C1.10536 7.48043 1 7.73478 1 8C1 8.26522 1.10536 8.51957 1.29289 8.70711C1.48043 8.89464 1.73478 9 2 9H3V11H2C1.73478 11 1.48043 11.1054 1.29289 11.2929C1.10536 11.4804 1 11.7348 1 12C1 12.2652 1.10536 12.5196 1.29289 12.7071C1.48043 12.8946 1.73478 13 2 13H3V15C3 15.5304 3.21071 16.0391 3.58579 16.4142C3.96086 16.7893 4.46957 17 5 17H7V18C7 18.2652 7.10536 18.5196 7.29289 18.7071C7.48043 18.8946 7.73478 19 8 19C8.26522 19 8.51957 18.8946 8.70711 18.7071C8.89464 18.5196 9 18.2652 9 18V17H11V18C11 18.2652 11.1054 18.5196 11.2929 18.7071C11.4804 18.8946 11.7348 19 12 19C12.2652 19 12.5196 18.8946 12.7071 18.7071C12.8946 18.5196 13 18.2652 13 18V17H15C15.5304 17 16.0391 16.7893 16.4142 16.4142C16.7893 16.0391 17 15.5304 17 15V13H18C18.2652 13 18.5196 12.8946 18.7071 12.7071C18.8946 12.5196 19 12.2652 19 12C19 11.7348 18.8946 11.4804 18.7071 11.2929C18.5196 11.1054 18.2652 11 18 11H17V9H18C18.2652 9 18.5196 8.89464 18.7071 8.70711C18.8946 8.51957 19 8.26522 19 8C19 7.73478 18.8946 7.48043 18.7071 7.29289C18.5196 7.10536 18.2652 7 18 7H17V5C17 4.46957 16.7893 3.96086 16.4142 3.58579C16.0391 3.21071 15.5304 3 15 3H13V2C13 1.73478 12.8946 1.48043 12.7071 1.29289C12.5196 1.10536 12.2652 1 12 1C11.7348 1 11.4804 1.10536 11.2929 1.29289C11.1054 1.48043 11 1.73478 11 2V3H9V2C9 1.73478 8.89464 1.48043 8.70711 1.29289C8.51957 1.10536 8.26522 1 8 1C7.73478 1 7.48043 1.10536 7.29289 1.29289ZM15 5H5V15H15V5ZM7 7H13V13H7V7Z"/>
</svg>
