<svg viewBox="0 0 20 20" fill="none" xmlns="http://www.w3.org/2000/svg" id="icon">
  <path
    d="M14.8886 8.24473C14.8952 8.24464 14.9019 8.24464 14.9086 8.24464C17.1266 8.24464 18.9246 10.0427 18.9246 12.2607C18.9246 14.4787 17.1266 16.2767 14.9086 16.2767H5.53792C3.0735 16.2767 1.07568 14.2788 1.07568 11.8144C1.07568 9.49434 2.84628 7.58786 5.10992 7.37245M14.8886 8.24473C14.9018 8.09771 14.9086 7.94885 14.9086 7.79842C14.9086 5.08754 12.7111 2.88995 10.0002 2.88995C7.4328 2.88995 5.32582 4.86103 5.10992 7.37245M14.8886 8.24473C14.7973 9.25712 14.3987 10.1809 13.7866 10.922M5.10992 7.37245C5.25079 7.35905 5.39355 7.35219 5.53792 7.35219C6.54266 7.35219 7.46984 7.68426 8.21571 8.24464"
    stroke="currentColor" stroke-width="1.5" stroke-linecap="round" stroke-linejoin="round" />
</svg>