<svg viewBox="0 0 20 20" xmlns="http://www.w3.org/2000/svg" id="icon">
  <path fill-rule="evenodd" d="M3.09431 12.0378C3.7436 12.6545 4.60457 12.9988 5.50004 13H9.00004L9.00004 18C9.00004 18.2652 9.1054 18.5196 9.29293 18.7071C9.48047 18.8946 9.73482 19 10 19C10.2653 19 10.5196 18.8946 10.7071 18.7071C10.8947 18.5196 11 18.2652 11 18V13L9.00004 13V9.414L7.70704 10.706C7.51844 10.8882 7.26584 10.989 7.00364 10.9867C6.74144 10.9844 6.49063 10.8792 6.30522 10.6938C6.11981 10.5084 6.01464 10.2576 6.01237 9.99541C6.01009 9.73321 6.11088 9.48061 6.29304 9.292L9.29304 6.292C9.48057 6.10453 9.73488 5.99922 10 5.99922C10.2652 5.99922 10.5195 6.10453 10.707 6.292L13.707 9.292C13.8892 9.48061 13.99 9.73321 13.9877 9.99541C13.9854 10.2576 13.8803 10.5084 13.6949 10.6938C13.5095 10.8792 13.2586 10.9844 12.9964 10.9867C12.7342 10.989 12.4816 10.8882 12.293 10.706L11 9.413V13H13.5C14.1174 13.0006 14.7283 12.8742 15.2947 12.6287C15.8611 12.3831 16.3709 12.0236 16.7924 11.5726C17.2139 11.1215 17.5381 10.5886 17.7448 10.0069C17.9516 9.42517 18.0364 8.80715 17.994 8.19126C17.9517 7.57537 17.783 6.97478 17.4986 6.42685C17.2142 5.87892 16.8201 5.39538 16.3408 5.00629C15.8615 4.6172 15.3073 4.33089 14.7126 4.16517C14.1179 3.99945 13.4955 3.95787 12.884 4.043C12.6219 3.01489 11.962 2.13303 11.0497 1.59143C10.1373 1.04982 9.04715 0.892838 8.01904 1.155C6.99093 1.41717 6.10907 2.07702 5.56747 2.98938C5.02586 3.90174 4.86887 4.99189 5.13104 6.02C4.24068 6.11559 3.42082 6.54881 2.84017 7.23051C2.25952 7.91222 1.96225 8.79055 2.00952 9.68478C2.0568 10.579 2.44502 11.4211 3.09431 12.0378Z"/>
</svg>
