<svg viewBox="0 0 20 20" fill="none" xmlns="http://www.w3.org/2000/svg" id="icon">
  <path
    d="M15 4.99999V3.33332C15 2.41285 14.2538 1.66666 13.3333 1.66666H3.33329C2.41282 1.66666 1.66663 2.41285 1.66663 3.33332V16.6667C1.66663 17.5872 2.41282 18.3333 3.33329 18.3333H13.3333C14.2538 18.3333 15 17.5872 15 16.6667V15"
    stroke="currentColor" stroke-width="1.5" stroke-linecap="round" stroke-linejoin="round" />
  <path
    d="M18.0892 7.39889L17.601 6.91073C17.2755 6.5853 16.748 6.5853 16.4225 6.91073L10.7734 12.5598C10.5407 12.7925 10.3821 13.0888 10.3176 13.4115L9.99988 15L11.5885 14.6823C11.911 14.6177 12.2074 14.4592 12.44 14.2265L18.0892 8.57741C18.4146 8.25197 18.4146 7.72432 18.0892 7.39889Z"
    stroke="currentColor" stroke-width="1.5" stroke-linejoin="round" />
  <path d="M15 8.33334L16.6667 10" stroke="currentColor" stroke-width="1.5" stroke-linecap="round"
    stroke-linejoin="round" />
  <path d="M4.16663 15.8333H4.99996L6.04163 13.75L7.08329 15.8333H7.91663" stroke="currentColor" stroke-width="1.5"
    stroke-linecap="round" stroke-linejoin="round" />
  <path d="M5 5H11.6667" stroke="currentColor" stroke-width="1.5" stroke-linecap="round" stroke-linejoin="round" />
  <path d="M5 8.33334H10" stroke="currentColor" stroke-width="1.5" stroke-linecap="round" stroke-linejoin="round" />
</svg>