<svg viewBox="0 0 20 20" fill="none" xmlns="http://www.w3.org/2000/svg" id="icon">
  <path
    d="M13.333 0.867188C13.7748 0.867188 14.1328 1.22516 14.1328 1.66699V2.5332H15.833C16.4871 2.5332 17.1146 2.79336 17.5771 3.25586C18.0397 3.71838 18.2997 4.3459 18.2998 5V10.833C18.2998 11.2748 17.9418 11.6328 17.5 11.6328C17.0582 11.6328 16.7002 11.2748 16.7002 10.833V9.13281H3.2998V16.666C3.2998 16.8958 3.39127 17.1168 3.55371 17.2793C3.71624 17.4418 3.93714 17.5332 4.16699 17.5332H10.833C11.2747 17.5332 11.6336 17.8913 11.6338 18.333C11.6338 18.7748 11.2748 19.1328 10.833 19.1328H4.16699C3.51279 19.1328 2.88544 18.8727 2.42285 18.4102C1.96035 17.9476 1.7002 17.3201 1.7002 16.666V5C1.70027 4.3459 1.96033 3.71838 2.42285 3.25586C2.88543 2.79336 3.51286 2.5332 4.16699 2.5332H5.86719V1.66699C5.86719 1.22516 6.22516 0.867188 6.66699 0.867188C7.10865 0.867385 7.4668 1.22529 7.4668 1.66699V2.5332H12.5332V1.66699C12.5332 1.22529 12.8913 0.867385 13.333 0.867188ZM15.833 12.5332C16.2747 12.5332 16.6327 12.8913 16.6328 13.333V15.0332H18.333C18.7747 15.0332 19.1327 15.3913 19.1328 15.833C19.1328 16.2748 18.7748 16.6328 18.333 16.6328H16.6328V18.333C16.6328 18.7748 16.2748 19.1328 15.833 19.1328C15.3913 19.1326 15.0332 18.7747 15.0332 18.333V16.6328H13.333C12.8913 16.6326 12.5332 16.2747 12.5332 15.833C12.5334 15.3914 12.8914 15.0334 13.333 15.0332H15.0332V13.333C15.0334 12.8914 15.3914 12.5334 15.833 12.5332ZM4.16699 4.13281C3.93721 4.13281 3.71623 4.22428 3.55371 4.38672C3.39125 4.54918 3.29988 4.77025 3.2998 5V7.5332H16.7002V5C16.7001 4.77025 16.6088 4.54918 16.4463 4.38672C16.2838 4.22428 16.0628 4.13281 15.833 4.13281H14.1328V5C14.1327 5.44169 13.7747 5.80078 13.333 5.80078C12.8914 5.80058 12.5334 5.44157 12.5332 5V4.13281H7.4668V5C7.46664 5.44157 7.10855 5.80058 6.66699 5.80078C6.22526 5.80078 5.86734 5.44169 5.86719 5V4.13281H4.16699Z"
    fill="currentColor" />
</svg>