<svg viewBox="0 0 20 20" xmlns="http://www.w3.org/2000/svg" id="icon">
  <path fill-rule="evenodd" d="M10 20C15.5228 20 20 15.5228 20 10C20 4.47715 15.5228 0 10 0C4.47715 0 0 4.47715 0 10C0 15.5228 4.47715 20 10 20ZM12.7827 14.07V14.0861L14.0072 14.5035C13.9167 14.741 13.7807 14.9578 13.6072 15.1415C13.4337 15.3251 13.2261 15.4719 12.9964 15.5733C12.3119 15.8863 11.4455 15.8143 10.4347 15.3734C9.46571 14.9502 8.05343 15.538 7.58845 15.7996L6.86643 14.7224C8.28736 13.5483 8.11408 11.7467 7.51769 10.1508H6V8.84439H6.94007C6.31914 7.49685 6.48809 5.90832 7.3834 4.85174C8.24838 3.83043 9.57545 3.53506 11.0267 4.04204C12.9285 4.70773 13.1697 6.82676 13.0325 7.85541L11.7603 7.68054C11.7603 7.67593 11.7611 7.66513 11.7622 7.6488C11.7809 7.38924 11.8998 5.73136 10.6051 5.2779C9.66354 4.94873 8.86354 5.10009 8.35091 5.70405C7.77185 6.38884 7.68665 7.49391 8.14441 8.39031C8.2195 8.54314 8.29458 8.69744 8.3639 8.84439H10.8664V10.1537H8.86931C9.32852 11.6012 9.35595 12.8958 8.94873 13.9744C9.61592 13.8506 10.3039 13.9199 10.9343 14.1743C11.7473 14.5358 12.2022 14.4888 12.4419 14.3888C12.5917 14.3314 12.7138 14.2171 12.7827 14.07Z"/>
</svg>
