<svg viewBox="0 0 20 20" xmlns="http://www.w3.org/2000/svg" id="icon">
  <path fill-rule="evenodd" d="M10 20C15.5228 20 20 15.5228 20 10C20 4.47715 15.5228 0 10 0C4.47715 0 0 4.47715 0 10C0 15.5228 4.47715 20 10 20ZM14 5.45804C14 5.5685 13.9105 5.65804 13.8 5.65804H9.45704C9.34658 5.65804 9.25704 5.74758 9.25704 5.85804V9.20857C9.25704 9.31903 9.34658 9.40857 9.45704 9.40857H13.5015C13.6119 9.40857 13.7015 9.49811 13.7015 9.60857V10.8751C13.7015 10.9856 13.6119 11.0751 13.5015 11.0751H9.45704C9.34658 11.0751 9.25704 11.1646 9.25704 11.2751V11.8204C9.25704 11.9308 9.34658 12.0204 9.45704 12.0204H11.4902C11.6007 12.0204 11.6902 12.1099 11.6902 12.2204V13.3291C11.6902 13.4395 11.6007 13.5291 11.4902 13.5291H9.45704C9.34658 13.5291 9.25704 13.6186 9.25704 13.7291V15.8C9.25704 15.9105 9.16749 16 9.05704 16H7.54584C7.43538 16 7.34584 15.9105 7.34584 15.8V13.7291C7.34584 13.6186 7.2563 13.5291 7.14584 13.5291H6.2C6.08954 13.5291 6 13.4395 6 13.3291V12.2204C6 12.1099 6.08954 12.0204 6.2 12.0204H7.14584C7.2563 12.0204 7.34584 11.9308 7.34584 11.8204V4.2C7.34584 4.08954 7.43538 4 7.54584 4H13.8C13.9105 4 14 4.08954 14 4.2V5.45804Z"/>
</svg>
