<svg viewBox="0 0 20 20" xmlns="http://www.w3.org/2000/svg" id="icon">
  <path fill-rule="evenodd" d="M10 20C15.5228 20 20 15.5228 20 10C20 4.47715 15.5228 0 10 0C4.47715 0 0 4.47715 0 10C0 15.5228 4.47715 20 10 20ZM12.4037 10.2486C12.7537 10.5015 13.0377 10.8319 13.2325 11.2129C13.4174 11.6077 13.5089 12.0384 13.5 12.4728C13.5 13.426 13.149 14.1739 12.447 14.7167C12.0041 15.0442 11.4946 15.2731 10.9539 15.3885C10.8585 15.4089 10.7878 15.4917 10.7878 15.5893V16.797C10.7878 16.9074 10.6983 16.997 10.5878 16.997H9.39052C9.28007 16.997 9.19052 16.9074 9.19052 16.797V15.7178C9.19052 15.6095 9.10432 15.5211 8.99616 15.5161C8.05795 15.4724 7.26401 15.3064 6.61433 15.0181C6.54397 14.9868 6.5 14.9164 6.5 14.8394V13.6199C6.5 13.4742 6.65104 13.377 6.7857 13.4327C7.20756 13.6073 7.64369 13.7473 8.08957 13.851C8.60249 13.9771 9.12873 14.0438 9.6575 14.0496C10.3647 14.0506 10.8868 13.9182 11.2239 13.6524C11.3872 13.5269 11.518 13.3654 11.6056 13.1809C11.6932 12.9965 11.7351 12.7944 11.728 12.5911C11.7303 12.3985 11.6901 12.2077 11.61 12.0318C11.5299 11.8559 11.4119 11.6991 11.2641 11.5722C10.9559 11.2923 10.3178 10.9622 9.34979 10.5822C8.35605 10.1829 7.653 9.73063 7.24066 9.22525C6.8249 8.70256 6.60637 8.05493 6.62215 7.39225C6.62215 6.49773 6.94584 5.79373 7.59322 5.28027C8.01192 4.96033 8.49872 4.7384 9.01647 4.63037C9.11272 4.61029 9.18434 4.52715 9.18434 4.42883V3.2C9.18434 3.08954 9.27388 3 9.38434 3H10.5832C10.6936 3 10.7832 3.08954 10.7832 3.2V4.35192C10.7832 4.4559 10.8629 4.54226 10.9663 4.55333C11.719 4.63396 12.4558 4.8211 13.1537 5.1089C13.2534 5.15 13.2997 5.26409 13.2595 5.36414L12.8301 6.43544C12.7886 6.53893 12.6706 6.58831 12.5669 6.54737C11.6714 6.19386 10.8666 6.01711 10.1523 6.01711C9.574 6.01711 9.1364 6.13992 8.83642 6.38705C8.69003 6.50561 8.57344 6.65562 8.49568 6.82546C8.41792 6.99531 8.38107 7.18042 8.388 7.36647C8.38087 7.61602 8.44286 7.86281 8.56737 8.08057C8.71817 8.3092 8.92019 8.50106 9.15805 8.64154C9.63136 8.91369 10.1268 9.14696 10.6394 9.33896C11.2634 9.56989 11.856 9.87543 12.4037 10.2486Z"/>
</svg>
