<svg viewBox="0 0 20 20" xmlns="http://www.w3.org/2000/svg" id="icon">
  <path fill-rule="evenodd" d="M10 20C15.5228 20 20 15.5228 20 10C20 4.47715 15.5228 0 10 0C4.47715 0 0 4.47715 0 10C0 15.5228 4.47715 20 10 20ZM14.6627 4.40002C14.8146 4.40002 14.911 4.56271 14.8381 4.69599L11.7825 10.2831C11.7096 10.4164 11.806 10.5791 11.9579 10.5791H12.8553C12.9657 10.5791 13.0553 10.6686 13.0553 10.7791V11.8878C13.0553 11.9982 12.9657 12.0878 12.8553 12.0878H11.1809C11.0704 12.0878 10.9809 12.1773 10.9809 12.2878V12.6786C10.9809 12.7891 11.0704 12.8786 11.1809 12.8786H12.8553C12.9657 12.8786 13.0553 12.9681 13.0553 13.0786V14.1873C13.0553 14.2978 12.9657 14.3873 12.8553 14.3873H11.1809C11.0704 14.3873 10.9809 14.4768 10.9809 14.5873V16.2C10.9809 16.3105 10.8914 16.4 10.7809 16.4H9.20205C9.09159 16.4 9.00205 16.3105 9.00205 16.2V14.5873C9.00205 14.4768 8.9125 14.3873 8.80205 14.3873H7.00484C6.89439 14.3873 6.80484 14.2978 6.80484 14.1873V13.0786C6.80484 12.9681 6.89439 12.8786 7.00484 12.8786H8.80205C8.9125 12.8786 9.00205 12.7891 9.00205 12.6786V12.2878C9.00205 12.1773 8.9125 12.0878 8.80205 12.0878H7.00484C6.89439 12.0878 6.80484 11.9982 6.80484 11.8878V10.7791C6.80484 10.6686 6.89439 10.5791 7.00485 10.5791H7.99982C8.15124 10.5791 8.24774 10.4173 8.17582 10.2841L5.15922 4.69502C5.0873 4.56177 5.1838 4.40002 5.33522 4.40002H7.02307C7.09759 4.40002 7.16593 4.44146 7.20039 4.50753L9.82262 9.53472C9.8974 9.67808 10.1026 9.67805 10.1773 9.53467L12.7979 4.50757C12.8324 4.44148 12.9007 4.40002 12.9753 4.40002H14.6627Z"/>
</svg>
