<svg viewBox="0 0 20 20" xmlns="http://www.w3.org/2000/svg" id="icon">
  <path fill-rule="evenodd" d="M10 20C15.5228 20 20 15.5228 20 10C20 4.47715 15.5228 0 10 0C4.47715 0 0 4.47715 0 10C0 15.5228 4.47715 20 10 20ZM10.396 15.7422C10.5484 15.9062 10.7617 16 10.9867 16C11.1906 16 11.3875 15.9226 11.5375 15.7867C11.8632 15.4843 11.882 14.9734 11.5796 14.6476L8.33823 11.1554H8.71323C10.3773 11.1531 11.821 10.0047 12.1984 8.38279H13.5132C13.9468 8.37576 14.2984 8.02654 14.3054 7.5906C14.3148 7.14529 13.9585 6.77732 13.5132 6.77029H12.196C12.1023 6.35779 11.9335 5.96638 11.7015 5.61482H13.5109C13.9562 5.61482 14.3171 5.25388 14.3171 4.80857C14.3171 4.36326 13.9562 4.00232 13.5109 4.00232H6.48667C6.04136 4.00232 5.68042 4.36326 5.68042 4.80857C5.68042 5.25388 6.04136 5.61482 6.48667 5.61482H8.71323C9.48433 5.61482 10.1828 6.06716 10.5015 6.77029H7.23198C6.79839 6.77732 6.44683 7.12654 6.4398 7.56248C6.43042 8.00779 6.78667 8.37576 7.23198 8.38279H10.5039C10.1875 9.08591 9.48667 9.5406 8.71323 9.5406H6.48667C6.28276 9.5406 6.08823 9.61794 5.93823 9.75623C5.61245 10.0586 5.5937 10.5695 5.89605 10.8953L10.396 15.7422Z"/>
</svg>
