<svg viewBox="0 0 20 20" xmlns="http://www.w3.org/2000/svg" id="icon">
  <path fill-rule="evenodd" d="M10 7.71429C14.4183 7.71429 18 6.17943 18 4.28572C18 2.392 14.4183 0.857147 10 0.857147C5.58171 0.857147 2 2.392 2 4.28572C2 6.17943 5.58171 7.71429 10 7.71429ZM2 6.57143V10C2 11.8937 5.58171 13.4286 10 13.4286C14.4183 13.4286 18 11.8937 18 10V6.57143C18 8.46515 14.4183 10 10 10C5.58171 10 2 8.46515 2 6.57143ZM2 12.2857V15.7143C2 17.608 5.58171 19.1429 10 19.1429C14.4183 19.1429 18 17.608 18 15.7143V12.2857C18 14.1794 14.4183 15.7143 10 15.7143C5.58171 15.7143 2 14.1794 2 12.2857Z"/>
</svg>
