<svg viewBox="0 0 20 20" fill="none" xmlns="http://www.w3.org/2000/svg" id="icon">
  <path
    d="M12.9167 10.8333C15.9082 10.8333 18.3333 10.0871 18.3333 9.16667C18.3333 8.24619 15.9082 7.5 12.9167 7.5C9.92512 7.5 7.5 8.24619 7.5 9.16667C7.5 10.0871 9.92512 10.8333 12.9167 10.8333Z"
    stroke="currentColor" stroke-width="1.5" />
  <path d="M18.3333 12.9167C18.3333 13.8372 15.9082 14.5833 12.9167 14.5833C9.92508 14.5833 7.5 13.8372 7.5 12.9167"
    stroke="currentColor" stroke-width="1.5" />
  <path
    d="M18.3333 9.16666V16.5C18.3333 17.5125 15.9082 18.3333 12.9167 18.3333C9.92508 18.3333 7.5 17.5125 7.5 16.5V9.16666"
    stroke="currentColor" stroke-width="1.5" />
  <path
    d="M7.08341 4.99999C10.075 4.99999 12.5001 4.2538 12.5001 3.33332C12.5001 2.41285 10.075 1.66666 7.08341 1.66666C4.09187 1.66666 1.66675 2.41285 1.66675 3.33332C1.66675 4.2538 4.09187 4.99999 7.08341 4.99999Z"
    stroke="currentColor" stroke-width="1.5" />
  <path
    d="M5.00008 9.16667C3.42357 8.97483 1.97501 8.47875 1.66675 7.5M5.00008 13.3333C3.42357 13.1415 1.97501 12.6454 1.66675 11.6667"
    stroke="currentColor" stroke-width="1.5" stroke-linecap="round" />
  <path d="M5.00008 17.5C3.42357 17.3082 1.97501 16.8121 1.66675 15.8333V3.33334" stroke="currentColor"
    stroke-width="1.5" stroke-linecap="round" />
  <path d="M12.5 5.00001V3.33334" stroke="currentColor" stroke-width="1.5" stroke-linecap="round" />
</svg>