<svg viewBox="0 0 20 20" xmlns="http://www.w3.org/2000/svg" id="icon">
  <path fill-rule="evenodd" d="M1.43874 1.45793C1.71975 1.17673 2.10083 1.01875 2.49817 1.01875C2.89552 1.01875 3.2766 1.17673 3.55761 1.45793L9.99063 7.89743L16.4237 1.45793C16.5619 1.31467 16.7272 1.20039 16.9101 1.12178C17.0929 1.04317 17.2895 1.00179 17.4885 1.00006C17.6875 0.998326 17.8848 1.03628 18.0689 1.1117C18.2531 1.18712 18.4204 1.2985 18.5611 1.43934C18.7018 1.58018 18.8131 1.74766 18.8884 1.932C18.9638 2.11635 19.0017 2.31387 18.9999 2.51303C18.9982 2.7122 18.9569 2.90903 18.8783 3.09204C18.7998 3.27504 18.6856 3.44056 18.5425 3.57893L12.1095 10.0184L18.5425 16.4579C18.8155 16.7408 18.9665 17.1197 18.9631 17.513C18.9597 17.9063 18.8021 18.2825 18.5243 18.5607C18.2464 18.8388 17.8706 18.9965 17.4777 18.9999C17.0848 19.0034 16.7063 18.8522 16.4237 18.5789L9.99063 12.1394L3.55761 18.5789C3.27499 18.8522 2.89646 19.0034 2.50356 18.9999C2.11066 18.9965 1.73482 18.8388 1.45699 18.5607C1.17916 18.2825 1.02156 17.9063 1.01815 17.513C1.01474 17.1197 1.16578 16.7408 1.43874 16.4579L7.87177 10.0184L1.43874 3.57893C1.15781 3.29764 1 2.91618 1 2.51843C1 2.12069 1.15781 1.73922 1.43874 1.45793Z"/>
</svg>
