<svg viewBox="0 0 20 20" xmlns="http://www.w3.org/2000/svg" id="icon">
  <path fill-rule="evenodd" d="M1 3.13333C1 2.56754 1.22576 2.02492 1.62763 1.62484C2.02949 1.22476 2.57454 1 3.14286 1H16.8571C17.4255 1 17.9705 1.22476 18.3724 1.62484C18.7742 2.02492 19 2.56754 19 3.13333V12.6667C19 13.2325 18.7742 13.7751 18.3724 14.1752C17.9705 14.5752 17.4255 14.8 16.8571 14.8H12.7782L13 17C13 17 14.3094 17.1406 14.4718 17.1792C14.6342 17.2178 14.7236 17.5184 14.7649 17.7253C14.8062 17.9322 14.785 18.1466 14.7039 18.3415C14.6229 18.5364 14.4856 18.703 14.3094 18.8202C14.1333 18.9374 13.9262 19 13.7143 19H6.28571C6.07384 19 5.86673 18.9374 5.69058 18.8202C5.51443 18.703 5.37713 18.5364 5.29606 18.3415C5.21498 18.1466 5.19377 17.9322 5.23509 17.7253C5.27641 17.5184 5.23509 17.2905 5.52821 17.1792C5.82134 17.0679 7 17 7 17L7.19924 14.8H3.14286C2.57454 14.8 2.02949 14.5752 1.62763 14.1752C1.22576 13.7751 1 13.2325 1 12.6667V3.13333ZM3 12V3H17V12H3Z"/>
</svg>
