<svg viewBox="0 0 20 20" xmlns="http://www.w3.org/2000/svg" id="icon">
  <path d="M10.3721 12.8662C10.2508 12.9816 10.154 13.1195 10.0875 13.272C10.0209 13.4245 9.98591 13.5885 9.98444 13.7545C9.98298 13.9205 10.0151 14.0851 10.079 14.2387C10.1428 14.3923 10.2371 14.5319 10.3563 14.6492C10.4756 14.7666 10.6173 14.8594 10.7734 14.9223C10.9295 14.9851 11.0967 15.0168 11.2653 15.0153C11.4339 15.0139 11.6005 14.9794 11.7554 14.9139C11.9104 14.8484 12.0505 14.7531 12.1676 14.6337L15.9771 10.8837C16.2152 10.6493 16.3489 10.3315 16.3489 10C16.3489 9.66854 16.2152 9.35066 15.9771 9.11625L12.1676 5.36625C11.9281 5.13855 11.6074 5.01256 11.2744 5.01541C10.9415 5.01825 10.623 5.14972 10.3875 5.38148C10.1521 5.61324 10.0185 5.92675 10.0157 6.2545C10.0128 6.58224 10.1408 6.898 10.3721 7.13375L12.014 8.75L4.92063 8.75L4.92063 2.5C4.92063 1.83696 5.18821 1.20107 5.66449 0.732233C6.14077 0.263391 6.78675 -2.96658e-07 7.46032 -3.26101e-07L17.4603 -7.63215e-07C18.1339 -7.92657e-07 18.7799 0.263391 19.2561 0.732232C19.7324 1.20107 20 1.83696 20 2.5L20 17.5C20 18.163 19.7324 18.7989 19.2561 19.2678C18.7799 19.7366 18.1339 20 17.4603 20L7.46032 20C6.78675 20 6.14077 19.7366 5.66449 19.2678C5.18821 18.7989 4.92064 18.163 4.92064 17.5L4.92063 11.25L12.014 11.25L10.3721 12.8662ZM1.26984 11.25C0.933058 11.25 0.610069 11.1183 0.371927 10.8839C0.133786 10.6495 -4.22623e-07 10.3315 -4.37114e-07 10C-4.51605e-07 9.66848 0.133786 9.35054 0.371927 9.11612C0.610069 8.8817 0.933058 8.75 1.26984 8.75L4.92063 8.75L4.92063 11.25L1.26984 11.25Z"/>
</svg>
