<svg viewBox="0 0 20 20" xmlns="http://www.w3.org/2000/svg" id="icon">
  <path fill-rule="evenodd" d="M5 0C4.33696 0 3.70107 0.263392 3.23223 0.732233C2.76339 1.20107 2.5 1.83696 2.5 2.5V17.5C2.5 18.163 2.76339 18.7989 3.23223 19.2678C3.70107 19.7366 4.33696 20 5 20H15C15.663 20 16.2989 19.7366 16.7678 19.2678C17.2366 18.7989 17.5 18.163 17.5 17.5V6.7675C17.4999 6.10451 17.2364 5.46873 16.7675 5L12.5 0.7325C12.0313 0.263627 11.3955 0.000141594 10.7325 0H5ZM11.25 7.5C11.25 7.16848 11.1183 6.85054 10.8839 6.61612C10.6495 6.3817 10.3315 6.25 10 6.25C9.66848 6.25 9.35054 6.3817 9.11612 6.61612C8.8817 6.85054 8.75 7.16848 8.75 7.5V10H6.25C5.91848 10 5.60054 10.1317 5.36612 10.3661C5.1317 10.6005 5 10.9185 5 11.25C5 11.5815 5.1317 11.8995 5.36612 12.1339C5.60054 12.3683 5.91848 12.5 6.25 12.5H8.75V15C8.75 15.3315 8.8817 15.6495 9.11612 15.8839C9.35054 16.1183 9.66848 16.25 10 16.25C10.3315 16.25 10.6495 16.1183 10.8839 15.8839C11.1183 15.6495 11.25 15.3315 11.25 15V12.5H13.75C14.0815 12.5 14.3995 12.3683 14.6339 12.1339C14.8683 11.8995 15 11.5815 15 11.25C15 10.9185 14.8683 10.6005 14.6339 10.3661C14.3995 10.1317 14.0815 10 13.75 10H11.25V7.5Z"/>
</svg>
