<svg viewBox="0 0 20 20" xmlns="http://www.w3.org/2000/svg" id="icon">
  <path fill-rule="evenodd" d="M5 0C4.33696 0 3.70107 0.263392 3.23223 0.732233C2.76339 1.20107 2.5 1.83696 2.5 2.5V17.5C2.5 18.163 2.76339 18.7989 3.23223 19.2678C3.70107 19.7366 4.33696 20 5 20H15C15.663 20 16.2989 19.7366 16.7678 19.2678C17.2366 18.7989 17.5 18.163 17.5 17.5V6.7675C17.4999 6.10451 17.2364 5.46873 16.7675 5L12.5 0.7325C12.0313 0.263627 11.3955 0.000141594 10.7325 0H5ZM7.5 12.5C7.5 12.1685 7.3683 11.8505 7.13388 11.6161C6.89946 11.3817 6.58152 11.25 6.25 11.25C5.91848 11.25 5.60054 11.3817 5.36612 11.6161C5.1317 11.8505 5 12.1685 5 12.5V16.25C5 16.5815 5.1317 16.8995 5.36612 17.1339C5.60054 17.3683 5.91848 17.5 6.25 17.5C6.58152 17.5 6.89946 17.3683 7.13388 17.1339C7.3683 16.8995 7.5 16.5815 7.5 16.25V12.5ZM10 8.75C10.3315 8.75 10.6495 8.8817 10.8839 9.11612C11.1183 9.35054 11.25 9.66848 11.25 10V16.25C11.25 16.5815 11.1183 16.8995 10.8839 17.1339C10.6495 17.3683 10.3315 17.5 10 17.5C9.66848 17.5 9.35054 17.3683 9.11612 17.1339C8.8817 16.8995 8.75 16.5815 8.75 16.25V10C8.75 9.66848 8.8817 9.35054 9.11612 9.11612C9.35054 8.8817 9.66848 8.75 10 8.75ZM15 7.5C15 7.16848 14.8683 6.85054 14.6339 6.61612C14.3995 6.3817 14.0815 6.25 13.75 6.25C13.4185 6.25 13.1005 6.3817 12.8661 6.61612C12.6317 6.85054 12.5 7.16848 12.5 7.5V16.25C12.5 16.5815 12.6317 16.8995 12.8661 17.1339C13.1005 17.3683 13.4185 17.5 13.75 17.5C14.0815 17.5 14.3995 17.3683 14.6339 17.1339C14.8683 16.8995 15 16.5815 15 16.25V7.5Z"/>
</svg>
