<svg viewBox="0 0 20 20" xmlns="http://www.w3.org/2000/svg" id="icon">
  <path d="M5.5 10.05C5.5 10.6467 5.26295 11.219 4.84099 11.641C4.41903 12.0629 3.84674 12.3 3.25 12.3C2.65326 12.3 2.08097 12.0629 1.65901 11.641C1.23705 11.219 1 10.6467 1 10.05C1 9.45325 1.23705 8.88095 1.65901 8.459C2.08097 8.03704 2.65326 7.79999 3.25 7.79999C3.84674 7.79999 4.41903 8.03704 4.84099 8.459C5.26295 8.88095 5.5 9.45325 5.5 10.05ZM12.25 10.05C12.25 10.6467 12.0129 11.219 11.591 11.641C11.169 12.0629 10.5967 12.3 10 12.3C9.40326 12.3 8.83097 12.0629 8.40901 11.641C7.98705 11.219 7.75 10.6467 7.75 10.05C7.75 9.45325 7.98705 8.88095 8.40901 8.459C8.83097 8.03704 9.40326 7.79999 10 7.79999C10.5967 7.79999 11.169 8.03704 11.591 8.459C12.0129 8.88095 12.25 9.45325 12.25 10.05ZM16.75 12.3C17.3467 12.3 17.919 12.0629 18.341 11.641C18.7629 11.219 19 10.6467 19 10.05C19 9.45325 18.7629 8.88095 18.341 8.459C17.919 8.03704 17.3467 7.79999 16.75 7.79999C16.1533 7.79999 15.581 8.03704 15.159 8.459C14.7371 8.88095 14.5 9.45325 14.5 10.05C14.5 10.6467 14.7371 11.219 15.159 11.641C15.581 12.0629 16.1533 12.3 16.75 12.3Z"/>
</svg>
