<svg viewBox="0 0 20 20" xmlns="http://www.w3.org/2000/svg" id="icon">
  <path fill-rule="evenodd" d="M1.75315 1.75315C2.23539 1.27092 2.88944 1 3.57143 1H11.2857C11.9677 1 12.6218 1.27092 13.104 1.75315C13.5862 2.23539 13.8571 2.88944 13.8571 3.57143H3.57143V13.8571C2.88944 13.8571 2.23539 13.5862 1.75315 13.104C1.27092 12.6218 1 11.9677 1 11.2857V3.57143C1 2.88944 1.27092 2.23539 1.75315 1.75315ZM6.89601 6.89601C6.41377 7.37825 6.14286 8.0323 6.14286 8.71429V16.4286C6.14286 17.1106 6.41377 17.7646 6.89601 18.2468C7.37825 18.7291 8.0323 19 8.71429 19H16.4286C17.1106 19 17.7646 18.7291 18.2468 18.2468C18.7291 17.7646 19 17.1106 19 16.4286V8.71429C19 8.0323 18.7291 7.37825 18.2468 6.89601C17.7646 6.41377 17.1106 6.14286 16.4286 6.14286H8.71429C8.0323 6.14286 7.37825 6.41377 6.89601 6.89601Z"/>
</svg>
