<svg viewBox="0 0 20 20" fill="none" xmlns="http://www.w3.org/2000/svg" id="icon">
  <g clip-path="url(#clip0_3274_28)">
    <path
      d="M12.8711 0.767578C14.0413 -0.289686 15.8477 -0.254602 16.9756 0.873047L19.127 3.02441L19.2324 3.13574C20.2555 4.26827 20.2556 5.99651 19.2324 7.12891L19.127 7.24023L8.54785 17.8184C7.86236 18.5039 6.99244 18.9729 6.0459 19.1689L5.85547 19.2051L1.16406 19.9863C0.845632 20.0393 0.521251 19.9353 0.292969 19.707C0.0646845 19.4787 -0.0392992 19.1544 0.0136719 18.8359L0.795898 14.1445L0.831055 13.9541C1.02711 13.0076 1.49611 12.1376 2.18164 11.4521L12.7598 0.873047L12.8711 0.767578ZM3.5957 12.8662C3.21365 13.2482 2.94473 13.7265 2.81543 14.248L2.76855 14.4736L2.21582 17.7832L5.52637 17.2314L5.75293 17.1846C6.27418 17.0552 6.75195 16.7862 7.13379 16.4043L15.0615 8.47559L11.5234 4.9375L3.5957 12.8662ZM15.5615 2.28711C15.2023 1.92805 14.6334 1.90538 14.248 2.21973L14.1738 2.28711L12.9375 3.52344L16.4756 7.06152L17.7129 5.82617L17.7803 5.75098C18.0733 5.39136 18.0735 4.8722 17.7803 4.5127L17.7129 4.43848L15.5615 2.28711Z"
      fill="currentColor" />
  </g>
  <defs>
    <clipPath id="clip0_3274_28">
      <rect width="20" height="20" fill="white" />
    </clipPath>
  </defs>
</svg>