<svg viewBox="0 0 20 20" xmlns="http://www.w3.org/2000/svg" id="icon">
  <path fill-rule="evenodd" d="M10 20C12.6522 20 15.1957 18.9464 17.0711 17.0711C18.9464 15.1957 20 12.6522 20 10C20 7.34784 18.9464 4.8043 17.0711 2.92893C15.1957 1.05357 12.6522 0 10 0C7.34784 0 4.8043 1.05357 2.92893 2.92893C1.05357 4.8043 0 7.34784 0 10C0 12.6522 1.05357 15.1957 2.92893 17.0711C4.8043 18.9464 7.34784 20 10 20ZM6.25 8.75C6.58152 8.75 6.89946 8.6183 7.13388 8.38388C7.3683 8.14946 7.5 7.83152 7.5 7.5C7.5 7.16848 7.3683 6.85054 7.13388 6.61612C6.89946 6.3817 6.58152 6.25 6.25 6.25C5.91848 6.25 5.60054 6.3817 5.36612 6.61612C5.1317 6.85054 5 7.16848 5 7.5C5 7.83152 5.1317 8.14946 5.36612 8.38388C5.60054 8.6183 5.91848 8.75 6.25 8.75ZM15 7.5C15 7.83152 14.8683 8.14946 14.6339 8.38388C14.3995 8.6183 14.0815 8.75 13.75 8.75C13.4185 8.75 13.1005 8.6183 12.8661 8.38388C12.6317 8.14946 12.5 7.83152 12.5 7.5C12.5 7.16848 12.6317 6.85054 12.8661 6.61612C13.1005 6.3817 13.4185 6.25 13.75 6.25C14.0815 6.25 14.3995 6.3817 14.6339 6.61612C14.8683 6.85054 15 7.16848 15 7.5ZM14.42 14.4187C14.5361 14.3026 14.6281 14.1648 14.6909 14.013C14.7537 13.8613 14.7859 13.6987 14.7859 13.5346C14.7858 13.3704 14.7534 13.2078 14.6905 13.0561C14.6277 12.9045 14.5355 12.7667 14.4194 12.6506C14.3032 12.5346 14.1654 12.4425 14.0137 12.3797C13.862 12.317 13.6994 12.2847 13.5352 12.2847C13.371 12.2848 13.2084 12.3172 13.0568 12.3801C12.9051 12.443 12.7673 12.5351 12.6513 12.6513C11.948 13.3543 10.9944 13.7492 10 13.7492C9.00563 13.7492 8.05198 13.3543 7.34875 12.6513C7.11437 12.4167 6.7964 12.2849 6.46482 12.2847C6.13323 12.2846 5.81518 12.4162 5.58063 12.6506C5.34607 12.885 5.21424 13.203 5.21412 13.5346C5.214 13.8661 5.34562 14.1842 5.58 14.4187C6.16039 14.9993 6.84945 15.4598 7.60785 15.774C8.36624 16.0882 9.1791 16.2499 10 16.2499C10.8209 16.2499 11.6338 16.0882 12.3922 15.774C13.1505 15.4598 13.8396 14.9993 14.42 14.4187Z"/>
</svg>
