<svg viewBox="0 0 20 20" fill="none" xmlns="http://www.w3.org/2000/svg" id="icon">
  <path
    d="M1.66541 9.99999C1.66559 5.39747 5.3975 1.66666 10.0004 1.66666C10.4605 1.66683 10.8337 2.03986 10.8337 2.49999C10.8337 2.96012 10.4605 3.33315 10.0004 3.33332C6.31777 3.33332 3.33225 6.31815 3.33207 9.99999C3.33207 13.682 6.31765 16.6675 10.0004 16.6675C13.683 16.6673 16.6678 13.6819 16.6678 9.99999C16.668 9.53997 17.0411 9.16676 17.5012 9.16666C17.9613 9.16666 18.3343 9.53991 18.3345 9.99999C18.3345 14.6026 14.6033 18.334 10.0004 18.3341C5.3974 18.3341 1.66541 14.6027 1.66541 9.99999Z"
    fill="currentColor" />
  <path
    d="M13.5343 1.70474C13.8235 1.70063 14.6424 1.68503 15.4435 1.72427C15.8418 1.74379 16.26 1.77758 16.6178 1.83902C16.7958 1.8696 16.9803 1.91061 17.1492 1.96841C17.2795 2.013 17.4729 2.09099 17.6448 2.23534L17.7172 2.30207L17.7823 2.37287C17.9257 2.54294 18.0041 2.73407 18.0493 2.86441C18.1074 3.03216 18.1487 3.21486 18.1795 3.39094C18.2412 3.74464 18.2746 4.15745 18.2942 4.54979C18.3335 5.33845 18.3187 6.14468 18.3146 6.43374C18.308 6.89393 17.9292 7.26221 17.469 7.25568C17.0089 7.24902 16.6414 6.87025 16.6479 6.41014C16.6521 6.1112 16.6662 5.35899 16.63 4.6328C16.6293 4.61926 16.6274 4.60556 16.6267 4.59211L10.3076 11.0423C9.98542 11.3707 9.4578 11.3757 9.12917 11.0537C8.80073 10.7316 8.79577 10.2039 9.11777 9.87531L15.4654 3.39582C15.4313 3.39391 15.3968 3.39101 15.3621 3.38931C14.6225 3.35308 13.8563 3.36716 13.5579 3.3714C13.0977 3.37793 12.7197 3.00964 12.7132 2.54946C12.7068 2.08943 13.0742 1.71128 13.5343 1.70474Z"
    fill="currentColor" />
</svg>