<svg viewBox="0 0 20 20" xmlns="http://www.w3.org/2000/svg" id="icon">
  <path fill-rule="evenodd" d="M2.6677 2.01233C2.94249 2.00994 3.20721 2.11558 3.40487 2.30648H3.40592L5.27136 4.17297C6.737 3.43083 8.35714 3.04519 9.99995 3.04742C14.6929 3.04742 18.6648 6.13169 20 10.3834C19.3725 12.3746 18.1655 14.1333 16.5332 15.4348L18.0769 16.9785C18.2678 17.1762 18.3735 17.4409 18.3711 17.7157C18.3687 17.9905 18.2585 18.2533 18.0641 18.4476C17.8698 18.6419 17.607 18.7522 17.3322 18.7545C17.0574 18.7569 16.7927 18.6513 16.595 18.4604L1.92299 3.78835C1.73209 3.5907 1.62646 3.32597 1.62885 3.05119C1.63123 2.7764 1.74145 2.51355 1.93576 2.31924C2.13007 2.12494 2.39292 2.01472 2.6677 2.01233ZM7.87107 6.77163L7.87041 6.77097V6.77202C7.87063 6.77189 7.87085 6.77176 7.87107 6.77163ZM7.87107 6.77163L9.45709 8.3587C9.81246 8.26433 10.1864 8.26495 10.5414 8.36051C10.8965 8.45607 11.2202 8.64321 11.4802 8.9032C11.7402 9.1632 11.9273 9.48692 12.0229 9.84197C12.1184 10.197 12.1191 10.5709 12.0247 10.9263L13.6114 12.513C14.084 11.7123 14.2771 10.7773 14.1602 9.85491C14.0433 8.93254 13.623 8.07521 12.9656 7.41778C12.3082 6.76035 11.4509 6.34013 10.5285 6.22323C9.60637 6.10636 8.67158 6.29928 7.87107 6.77163ZM9.73805 14.5671L12.5718 17.4019C11.7492 17.6094 10.8877 17.7195 10 17.7195C5.30814 17.7195 1.33516 14.6352 0 10.3834C0.413279 9.0702 1.08176 7.85148 1.9671 6.79717L5.81642 10.6465C5.88053 11.6655 6.31431 12.626 7.03635 13.3479C7.7584 14.0697 8.71906 14.5032 9.73805 14.5671Z"/>
</svg>
