<svg viewBox="0 0 20 20" xmlns="http://www.w3.org/2000/svg" id="icon">
  <path fill-rule="evenodd" d="M1 2.19119C1 1.87527 1.13546 1.57228 1.37658 1.34889C1.6177 1.1255 1.94472 1 2.28571 1H17.7143C18.0553 1 18.3823 1.1255 18.6234 1.34889C18.8645 1.57228 19 1.87527 19 2.19119V4.70595C18.9999 5.02184 18.8644 5.32478 18.6233 5.54812L12.5714 11.1551V15.4267C12.5714 15.7426 12.4358 16.0455 12.1947 16.2688L9.62329 18.6512C9.44348 18.8178 9.21441 18.9312 8.96504 18.9771C8.71567 19.0231 8.4572 18.9995 8.2223 18.9093C7.9874 18.8192 7.78662 18.6666 7.64534 18.4707C7.50406 18.2749 7.42863 18.0446 7.42857 17.8091V11.1551L1.37671 5.54812C1.13558 5.32478 1.00007 5.02184 1 4.70595V2.19119Z"/>
</svg>
