<svg viewBox="0 0 20 20" xmlns="http://www.w3.org/2000/svg" id="icon">
  <path fill-rule="evenodd" d="M6.62501 2.655C7.99134 2.10229 9.4725 1.8936 10.9384 2.04727C12.4042 2.20094 13.8099 2.71226 15.0319 3.53631C16.2539 4.36036 17.2548 5.47192 17.9467 6.77331C18.6386 8.07471 19.0003 9.52611 19 11C19 11.2652 18.8947 11.5196 18.7071 11.7071C18.5196 11.8946 18.2652 12 18 12C17.7348 12 17.4804 11.8946 17.2929 11.7071C17.1054 11.5196 17 11.2652 17 11C17.0005 9.85352 16.7193 8.72448 16.1813 7.71209C15.6432 6.6997 14.8648 5.83496 13.9143 5.19387C12.9638 4.55278 11.8704 4.15495 10.7302 4.03536C9.58997 3.91577 8.43782 4.07807 7.37501 4.508C7.25247 4.5621 7.12032 4.59104 6.98639 4.59308C6.85245 4.59513 6.71948 4.57025 6.59535 4.51992C6.47121 4.46959 6.35846 4.39483 6.26377 4.30009C6.16909 4.20535 6.0944 4.09255 6.04415 3.96838C5.99389 3.84422 5.96909 3.71123 5.97122 3.5773C5.97335 3.44337 6.00237 3.31123 6.05655 3.18873C6.11072 3.06623 6.18896 2.95586 6.28661 2.86417C6.38426 2.77249 6.49934 2.70136 6.62501 2.655ZM4.66201 4.959C4.86071 5.13449 4.9816 5.3817 4.9981 5.64628C5.0146 5.91087 4.92536 6.17118 4.75001 6.37C3.61987 7.64726 2.99725 9.29454 3.00001 11C3.00001 11.2652 2.89465 11.5196 2.70711 11.7071C2.51958 11.8946 2.26522 12 2.00001 12C1.73479 12 1.48044 11.8946 1.2929 11.7071C1.10536 11.5196 1.00001 11.2652 1.00001 11C0.99722 8.80736 1.79764 6.68964 3.25001 5.047C3.33691 4.94847 3.44239 4.86802 3.5604 4.81027C3.67841 4.75252 3.80664 4.71858 3.93777 4.71041C4.0689 4.70224 4.20036 4.71999 4.32463 4.76264C4.44889 4.80529 4.56354 4.87202 4.66201 4.959Z"/>
  <path fill-rule="evenodd" d="M4.99989 11C4.99989 9.67392 5.52667 8.40215 6.46435 7.46447C7.40204 6.52678 8.67381 6 9.99989 6C11.326 6 12.5977 6.52678 13.5354 7.46447C14.4731 8.40215 14.9999 9.67392 14.9999 11C14.9999 11.2652 14.8945 11.5196 14.707 11.7071C14.5195 11.8946 14.2651 12 13.9999 12C13.7347 12 13.4803 11.8946 13.2928 11.7071C13.1052 11.5196 12.9999 11.2652 12.9999 11C12.9999 10.2044 12.6838 9.44129 12.1212 8.87868C11.5586 8.31607 10.7955 8 9.99989 8C9.20424 8 8.44118 8.31607 7.87857 8.87868C7.31596 9.44129 6.99989 10.2044 6.99989 11C6.99989 12.677 6.65489 14.276 6.03189 15.729C5.92726 15.9727 5.7301 16.1649 5.48377 16.2633C5.23744 16.3616 4.96212 16.3581 4.71839 16.2535C4.47466 16.1489 4.28247 15.9517 4.1841 15.7054C4.08574 15.459 4.08926 15.1837 4.19389 14.94C4.72756 13.6951 5.00181 12.3545 4.99989 11ZM13.9209 13.012C14.0507 13.0326 14.1751 13.0785 14.2871 13.1472C14.3991 13.2159 14.4965 13.306 14.5737 13.4123C14.6508 13.5186 14.7063 13.6391 14.7369 13.7669C14.7675 13.8947 14.7726 14.0272 14.7519 14.157C14.6215 14.9796 14.4395 15.7932 14.2069 16.593C14.1727 16.7219 14.1131 16.8426 14.0316 16.9481C13.9501 17.0536 13.8484 17.1417 13.7323 17.2073C13.6162 17.2729 13.4882 17.3146 13.3558 17.33C13.2234 17.3454 13.0892 17.3342 12.9612 17.297C12.8332 17.2598 12.7139 17.1973 12.6104 17.1134C12.5068 17.0294 12.4211 16.9256 12.3583 16.808C12.2955 16.6904 12.2568 16.5615 12.2445 16.4287C12.2323 16.296 12.2467 16.1621 12.2869 16.035C12.4939 15.322 12.6579 14.59 12.7769 13.843C12.8187 13.5813 12.9626 13.3469 13.1771 13.1913C13.3916 13.0356 13.6591 12.9715 13.9209 13.013V13.012Z"/>
  <path fill-rule="evenodd" d="M10.0001 10C10.2653 10 10.5197 10.1054 10.7072 10.2929C10.8948 10.4804 11.0001 10.7348 11.0001 11C11.0001 13.236 10.5401 15.368 9.71011 17.304C9.6583 17.4247 9.58324 17.534 9.48919 17.6257C9.39514 17.7173 9.28396 17.7896 9.16199 17.8383C9.04002 17.887 8.90965 17.9112 8.77833 17.9095C8.647 17.9078 8.5173 17.8803 8.39661 17.8285C8.27593 17.7767 8.16663 17.7016 8.07495 17.6076C7.98328 17.5135 7.91103 17.4023 7.86233 17.2804C7.81362 17.1584 7.78942 17.028 7.7911 16.8967C7.79278 16.7654 7.82031 16.6357 7.87211 16.515C8.61891 14.7724 9.00272 12.8959 9.00011 11C9.00011 10.7348 9.10547 10.4804 9.293 10.2929C9.48054 10.1054 9.73489 10 10.0001 10Z"/>
</svg>
