<svg viewBox="0 0 20 20" xmlns="http://www.w3.org/2000/svg" id="icon">
  <path fill-rule="evenodd" d="M12.008 1.03796C12.3246 1.12009 12.5897 1.3327 12.7371 1.62184C13.2891 2.70975 13.7017 3.37017 14.1166 3.90569C14.5371 4.44796 14.9806 4.8912 15.6571 5.55609C17.2183 7.09402 18 9.11122 18 11.125C18 13.1388 17.2183 15.156 15.6571 16.694C12.5326 19.7687 7.46743 19.7687 4.34286 16.694C2.78172 15.156 2 13.1388 2 11.125C2 9.11122 2.78172 7.09402 4.34286 5.55609C4.66972 5.23433 5.16114 5.1387 5.58857 5.31308C6.016 5.48634 6.29372 5.89701 6.29372 6.35153C6.29372 7.61157 6.37371 8.57121 6.74857 9.33736C6.95428 9.75812 7.27544 10.1699 7.82858 10.5378C7.96115 9.34413 8.20343 7.88944 8.53029 6.51015C8.78743 5.42336 9.10742 4.33882 9.48914 3.43429C9.67999 2.9809 9.896 2.55111 10.1406 2.17872C10.3783 1.81646 10.6846 1.44864 11.08 1.18876C11.3532 1.00988 11.6914 0.954712 12.008 1.03796ZM12.424 15.7613C11.0857 17.0798 8.91428 17.0798 7.576 15.7613C6.90628 15.1031 6.57143 14.2391 6.57143 13.3751C6.57143 13.3751 7.576 13.9376 9.42857 13.9376C9.42857 12.8126 10 9.43748 10.8571 8.87496C11.4286 9.99999 11.7554 10.3297 12.424 10.9889C13.0937 11.6471 13.4286 12.5111 13.4286 13.3751C13.4286 14.2391 13.0937 15.1031 12.424 15.7613Z"/>
</svg>
