<svg viewBox="0 0 20 20" xmlns="http://www.w3.org/2000/svg" id="icon">
  <path fill-rule="evenodd" d="M0.732233 3.23223C0.263392 3.70107 0 4.33696 0 5V14.375C0 14.8723 0.197544 15.3492 0.549175 15.7008C0.900806 16.0525 1.37772 16.25 1.875 16.25C2.37228 16.25 2.84919 16.0525 3.20083 15.7008C3.55246 15.3492 3.75 14.8723 3.75 14.375V12.5C3.75 11.5054 4.14509 10.5516 4.84835 9.84835C5.55161 9.14509 6.50544 8.75 7.5 8.75H17.5V7.5C17.5 6.83696 17.2366 6.20107 16.7678 5.73223C16.2989 5.26339 15.663 5 15 5H10L7.5 2.5H2.5C1.83696 2.5 1.20107 2.76339 0.732233 3.23223ZM5.73223 10.7322C5.26339 11.2011 5 11.837 5 12.5V15C5 15.663 4.73661 16.2989 4.26777 16.7678C3.79893 17.2366 3.16304 17.5 2.5 17.5H17.5C18.163 17.5 18.7989 17.2366 19.2678 16.7678C19.7366 16.2989 20 15.663 20 15V12.5C20 11.837 19.7366 11.2011 19.2678 10.7322C18.7989 10.2634 18.163 10 17.5 10H7.5C6.83696 10 6.20107 10.2634 5.73223 10.7322Z"/>
</svg>
