<svg viewBox="0 0 20 20" xmlns="http://www.w3.org/2000/svg" id="icon">
  <path fill-rule="evenodd" d="M2.60375 8.75H5.03625C5.1475 6.8175 5.515 5.0375 6.0825 3.6025C5.16876 4.1624 4.38552 4.91149 3.78547 5.79938C3.18542 6.68727 2.78248 7.69337 2.60375 8.75ZM10 0C7.34784 0 4.8043 1.05357 2.92893 2.92893C1.05357 4.8043 0 7.34784 0 10C0 12.6522 1.05357 15.1957 2.92893 17.0711C4.8043 18.9464 7.34784 20 10 20C12.6522 20 15.1957 18.9464 17.0711 17.0711C18.9464 15.1957 20 12.6522 20 10C20 7.34784 18.9464 4.8043 17.0711 2.92893C15.1957 1.05357 12.6522 0 10 0ZM10 2.5C9.905 2.5 9.71 2.54 9.41875 2.8275C9.12125 3.12 8.7975 3.60625 8.4975 4.305C8.01125 5.43875 7.65625 6.9825 7.54 8.75H12.46C12.3438 6.9825 11.9887 5.43875 11.5025 4.305C11.2025 3.605 10.8775 3.12 10.5813 2.8275C10.29 2.54 10.095 2.5 10 2.5ZM14.9637 8.75C14.8525 6.8175 14.485 5.0375 13.9175 3.6025C14.8312 4.1624 15.6145 4.91149 16.2145 5.79938C16.8146 6.68727 17.2175 7.69337 17.3962 8.75H14.9637ZM12.46 11.25H7.54C7.65625 13.0175 8.01125 14.5612 8.4975 15.695C8.7975 16.395 9.1225 16.88 9.41875 17.1725C9.71 17.46 9.905 17.5 10 17.5C10.095 17.5 10.29 17.46 10.5813 17.1725C10.8787 16.88 11.2037 16.3937 11.5025 15.695C11.9887 14.5612 12.3438 13.0175 12.46 11.25ZM13.9175 16.3975C14.485 14.9637 14.8525 13.1825 14.9637 11.25H17.3962C17.2175 12.3066 16.8146 13.3127 16.2145 14.2006C15.6145 15.0885 14.8312 15.8376 13.9175 16.3975ZM6.0825 16.3975C5.515 14.9625 5.1475 13.1825 5.0375 11.25H2.60375C2.78248 12.3066 3.18542 13.3127 3.78547 14.2006C4.38552 15.0885 5.16876 15.8376 6.0825 16.3975Z"/>
</svg>
