<svg viewBox="0 0 20 20" xmlns="http://www.w3.org/2000/svg" id="icon">
  <path fill-rule="evenodd" d="M9.05375 1.0474C9.37532 1.13013 9.65172 1.34065 9.82214 1.63264C9.99256 1.92464 10.0431 2.27419 9.9625 2.60441L9.4125 4.85969H13.0875L13.7875 1.98058C13.8264 1.81603 13.8967 1.66101 13.9942 1.52447C14.0917 1.38792 14.2146 1.27254 14.3557 1.18497C14.4969 1.09739 14.6535 1.03937 14.8166 1.01423C14.9797 0.989085 15.146 0.997327 15.3059 1.03848C15.4659 1.07963 15.6163 1.15287 15.7486 1.25399C15.8809 1.35511 15.9924 1.48211 16.0766 1.62766C16.1609 1.77322 16.2163 1.93446 16.2396 2.10209C16.2629 2.26973 16.2537 2.44045 16.2125 2.60441L15.6625 4.85969H18.75C19.0815 4.85969 19.3995 4.99493 19.6339 5.23565C19.8683 5.47637 20 5.80286 20 6.14329C20 6.48373 19.8683 6.81021 19.6339 7.05094C19.3995 7.29166 19.0815 7.4269 18.75 7.4269H15.0375L13.7875 12.5613H16.25C16.5815 12.5613 16.8995 12.6965 17.1339 12.9373C17.3683 13.178 17.5 13.5045 17.5 13.8449C17.5 14.1853 17.3683 14.5118 17.1339 14.7525C16.8995 14.9933 16.5815 15.1285 16.25 15.1285H13.1625L12.4625 18.0063C12.425 18.1723 12.3557 18.329 12.2586 18.4672C12.1616 18.6055 12.0387 18.7225 11.8971 18.8114C11.7555 18.9003 11.5981 18.9594 11.4341 18.9852C11.27 19.011 11.1026 19.003 10.9416 18.9617C10.7806 18.9203 10.6293 18.8465 10.4963 18.7445C10.3634 18.6424 10.2516 18.5142 10.1675 18.3674C10.0833 18.2205 10.0285 18.0579 10.0062 17.889C9.98384 17.7201 9.9945 17.5484 10.0375 17.3838L10.5875 15.1285H6.9125L6.2125 18.0063C6.17501 18.1723 6.10571 18.329 6.00864 18.4672C5.91156 18.6055 5.78865 18.7225 5.64709 18.8114C5.50552 18.9003 5.34812 18.9594 5.18408 18.9852C5.02004 19.011 4.85263 19.003 4.69163 18.9617C4.53063 18.9203 4.37926 18.8465 4.24634 18.7445C4.11343 18.6424 4.00163 18.5142 3.91747 18.3674C3.83331 18.2205 3.77847 18.0579 3.75615 17.889C3.73384 17.7201 3.7445 17.5484 3.7875 17.3838L4.3375 15.1285H1.25C0.918479 15.1285 0.600537 14.9933 0.366116 14.7525C0.131696 14.5118 0 14.1853 0 13.8449C0 13.5045 0.131696 13.178 0.366116 12.9373C0.600537 12.6965 0.918479 12.5613 1.25 12.5613H4.9625L6.2125 7.4269H3.75C3.41848 7.4269 3.10054 7.29166 2.86612 7.05094C2.6317 6.81021 2.5 6.48373 2.5 6.14329C2.5 5.80286 2.6317 5.47637 2.86612 5.23565C3.10054 4.99493 3.41848 4.85969 3.75 4.85969H6.8375L7.5375 1.98058C7.61807 1.65036 7.82307 1.36654 8.10742 1.19153C8.39177 1.01653 8.73218 0.964684 9.05375 1.0474ZM8.7875 7.4269L7.5375 12.5613H11.21L12.46 7.4269H8.78875H8.7875Z"/>
</svg>
