<svg viewBox="0 0 20 20" xmlns="http://www.w3.org/2000/svg" id="icon">
  <path fill-rule="evenodd" d="M1.45953 3.51462C2.39434 2.58452 3.66206 2.06202 4.98389 2.06202C6.30572 2.06202 7.57343 2.58452 8.50825 3.51462L9.96884 4.96703L11.4294 3.51462C11.8893 3.04077 12.4393 2.66281 13.0475 2.40279C13.6557 2.14277 14.3098 2.00591 14.9717 2.00019C15.6336 1.99446 16.29 2.11999 16.9027 2.36945C17.5153 2.61891 18.0719 2.9873 18.5399 3.45312C19.008 3.91895 19.3781 4.47289 19.6288 5.08261C19.8794 5.69233 20.0056 6.34563 19.9998 7.00439C19.9941 7.66314 19.8565 8.31416 19.5953 8.91946C19.334 9.52475 18.9543 10.0722 18.4782 10.5299L9.96884 19L1.45953 10.5299C0.524992 9.59949 0 8.33779 0 7.02224C0 5.70669 0.524992 4.445 1.45953 3.51462Z"/>
</svg>
