<svg width="20" height="20" viewBox="0 0 20 20" xmlns="http://www.w3.org/2000/svg">
<path d="M1.03443 8.57193H1.40079L6.26728 8.3301C6.68536 8.3301 7.06465 8.07121 7.22413 7.66948C7.3836 7.26775 7.2974 6.80799 7 6.5L5.51263 4.90281C8.21076 2.15766 12.5424 2.17105 15.2233 4.94744C17.9171 7.73723 17.9171 12.2589 15.2233 15.0487C12.5295 17.8385 8.16335 17.8385 5.46953 15.0487C4.93077 14.4907 4.05582 14.4907 3.51705 15.0487C2.97829 15.6066 2.97829 16.5128 3.51705 17.0707C7.2884 20.9764 13.4001 20.9764 17.1715 17.0707C20.9428 13.165 20.9428 6.83557 17.1715 2.92987C13.4174 -0.962435 7.33581 -0.975826 3.56015 2.88524L2.12925 1.23211C1.83185 0.924118 1.38791 0.834845 1 1C0.61209 1.16516 0.362104 1.55796 0.362104 1.99093L0 7.50065C0 8.09432 0.461181 8.57193 1.03443 8.57193ZM11.1339 5.36612C11.3683 5.60054 11.5 5.91848 11.5 6.25V9.7325L13.67 11.9013C13.7861 12.0174 13.8783 12.1553 13.9411 12.307C14.004 12.4587 14.0363 12.6214 14.0363 12.7856C14.0363 12.9499 14.004 13.1125 13.9411 13.2642C13.8783 13.416 13.7861 13.5539 13.67 13.67C13.5539 13.7861 13.416 13.8783 13.2642 13.9411C13.1125 14.004 12.9499 14.0363 12.7856 14.0363C12.6214 14.0363 12.4587 14.004 12.307 13.9411C12.1553 13.8783 12.0174 13.7861 11.9013 13.67L9.36625 11.1337C9.13181 10.8994 9.00007 10.5815 9 10.25V6.25C9 5.91848 9.1317 5.60054 9.36612 5.36612C9.60054 5.1317 9.91848 5 10.25 5C10.5815 5 10.8995 5.1317 11.1339 5.36612Z" />
</svg>
