<svg viewBox="0 0 20 20" xmlns="http://www.w3.org/2000/svg" id="icon">
  <path d="M10.8685 0.365988C10.6341 0.131646 10.3162 0 9.98477 0C9.65331 0 9.33542 0.131646 9.10101 0.365988L0.350894 9.11611C0.123194 9.35186 -0.00280081 9.66762 4.72539e-05 9.99537C0.00289532 10.3231 0.134358 10.6366 0.366122 10.8684C0.597885 11.1002 0.911404 11.2316 1.23915 11.2345C1.56691 11.2373 1.88266 11.1113 2.11842 10.8836L2.48467 10.5174V18.75C2.48467 19.0815 2.61637 19.3995 2.85079 19.6339C3.08522 19.8683 3.40316 20 3.73469 20H6.23472C6.56625 20 6.88419 19.8683 7.11862 19.6339C7.35304 19.3995 7.48474 19.0815 7.48474 18.75V16.25C7.48474 15.9184 7.61644 15.6005 7.85086 15.3661C8.08529 15.1316 8.40323 14.9999 8.73476 14.9999H11.2348C11.5663 14.9999 11.8843 15.1316 12.1187 15.3661C12.3531 15.6005 12.4848 15.9184 12.4848 16.25V18.75C12.4848 19.0815 12.6165 19.3995 12.8509 19.6339C13.0854 19.8683 13.4033 20 13.7348 20H16.2349C16.5664 20 16.8843 19.8683 17.1188 19.6339C17.3532 19.3995 17.4849 19.0815 17.4849 18.75V10.5174L17.8511 10.8836C18.0869 11.1113 18.4026 11.2373 18.7304 11.2345C19.0581 11.2316 19.3717 11.1002 19.6034 10.8684C19.8352 10.6366 19.9667 10.3231 19.9695 9.99537C19.9723 9.66762 19.8464 9.35186 19.6187 9.11611L10.8685 0.365988Z"/>
</svg>
