<svg viewBox="0 0 20 20" xmlns="http://www.w3.org/2000/svg" id="icon">
  <path fill-rule="evenodd" d="M11.5046 1.50003C11.5046 1.1022 11.3462 0.720642 11.064 0.439331C10.7817 0.15802 10.3992 0 10 0C9.60083 0 9.21826 0.15802 8.93604 0.439331C8.65381 0.720642 8.49536 1.1022 8.49536 1.50003V9.87927L6.5498 7.9397C6.26611 7.66647 5.88599 7.51526 5.49146 7.51868C5.09692 7.52209 4.71973 7.67987 4.44067 7.95798C4.16162 8.23611 4.00342 8.61234 4 9.00565C3.99658 9.39896 4.14819 9.77786 4.42236 10.0608L8.93628 14.5609C9.21851 14.8421 9.60107 15.0001 10 15.0001C10.3989 15.0001 10.7815 14.8421 11.0637 14.5609L15.5776 10.0608C15.8518 9.77786 16.0034 9.39896 16 9.00565C15.9966 8.61234 15.8384 8.23611 15.5593 7.95798C15.2803 7.67987 14.9031 7.52209 14.5085 7.51868C14.114 7.51526 13.7339 7.66647 13.4502 7.9397L11.5046 9.87927V1.50003ZM20 19.0625V14.6875C20 14.168 19.582 13.75 19.0625 13.75H13.332L11.418 15.6641C10.6328 16.4492 9.36719 16.4492 8.58203 15.6641L6.66797 13.75H0.9375C0.417969 13.75 0 14.168 0 14.6875V19.0625C0 19.5821 0.417969 20 0.9375 20H19.0625C19.582 20 20 19.5821 20 19.0625ZM14.375 17.3438C14.8047 17.3438 15.1562 17.6953 15.1562 18.125C15.1562 18.5547 14.8047 18.9063 14.375 18.9063C13.9453 18.9063 13.5938 18.5547 13.5938 18.125C13.5938 17.6953 13.9453 17.3438 14.375 17.3438ZM16.875 17.3438C17.3047 17.3438 17.6562 17.6953 17.6562 18.125C17.6562 18.5547 17.3047 18.9063 16.875 18.9063C16.4453 18.9063 16.0938 18.5547 16.0938 18.125C16.0938 17.6953 16.4453 17.3438 16.875 17.3438Z"/>
</svg>
