<svg viewBox="0 0 20 20" xmlns="http://www.w3.org/2000/svg" id="icon">
  <path fill-rule="evenodd" d="M3.57143 1C2.88944 1 2.23539 1.27092 1.75315 1.75315C1.27092 2.23539 1 2.88944 1 3.57143V16.4286C1 17.1106 1.27092 17.7646 1.75315 18.2468C2.23539 18.7291 2.88944 19 3.57143 19H16.4286C17.1106 19 17.7646 18.7291 18.2468 18.2468C18.7291 17.7646 19 17.1106 19 16.4286V3.57143C19 2.88944 18.7291 2.23539 18.2468 1.75315C17.7646 1.27092 17.1106 1 16.4286 1H3.57143ZM3.57143 3.57143H16.4286V12.5714H13.8571L12.5714 15.1429H7.42857L6.14286 12.5714H3.57143V3.57143Z"/>
</svg>
