<svg viewBox="0 0 20 20" xmlns="http://www.w3.org/2000/svg" id="icon">
  <path fill-rule="evenodd" d="M10.558 1.64924C10.3881 1.55144 10.1957 1.5 10 1.5C9.80428 1.5 9.61195 1.55144 9.442 1.64924L1.567 6.18267C1.35175 6.30672 1.18323 6.49894 1.08762 6.72945C0.992005 6.95995 0.974672 7.21582 1.03831 7.45728C1.10195 7.69873 1.243 7.91224 1.43952 8.0646C1.63604 8.21696 1.87702 8.29964 2.125 8.29978V16.2333C1.82663 16.2333 1.54048 16.3527 1.3295 16.5652C1.11853 16.7778 1 17.0661 1 17.3666C1 17.6672 1.11853 17.9555 1.3295 18.168C1.54048 18.3806 1.82663 18.5 2.125 18.5H17.875C18.1734 18.5 18.4595 18.3806 18.6705 18.168C18.8815 17.9555 19 17.6672 19 17.3666C19 17.0661 18.8815 16.7778 18.6705 16.5652C18.4595 16.3527 18.1734 16.2333 17.875 16.2333V8.29978C18.123 8.29964 18.364 8.21696 18.5605 8.0646C18.757 7.91224 18.8981 7.69873 18.9617 7.45728C19.0253 7.21582 19.008 6.95995 18.9124 6.72945C18.8168 6.49894 18.6482 6.30672 18.433 6.18267L10.558 1.64924ZM5.5 9.43314C5.20163 9.43314 4.91548 9.55255 4.7045 9.76509C4.49353 9.97764 4.375 10.2659 4.375 10.5665V13.9666C4.375 14.2672 4.49353 14.5554 4.7045 14.768C4.91548 14.9805 5.20163 15.0999 5.5 15.0999C5.79837 15.0999 6.08452 14.9805 6.2955 14.768C6.50647 14.5554 6.625 14.2672 6.625 13.9666V10.5665C6.625 10.2659 6.50647 9.97764 6.2955 9.76509C6.08452 9.55255 5.79837 9.43314 5.5 9.43314ZM8.875 10.5665C8.875 10.2659 8.99353 9.97764 9.2045 9.76509C9.41548 9.55255 9.70163 9.43314 10 9.43314C10.2984 9.43314 10.5845 9.55255 10.7955 9.76509C11.0065 9.97764 11.125 10.2659 11.125 10.5665V13.9666C11.125 14.2672 11.0065 14.5554 10.7955 14.768C10.5845 14.9805 10.2984 15.0999 10 15.0999C9.70163 15.0999 9.41548 14.9805 9.2045 14.768C8.99353 14.5554 8.875 14.2672 8.875 13.9666V10.5665ZM14.5 9.43314C14.2016 9.43314 13.9155 9.55255 13.7045 9.76509C13.4935 9.97764 13.375 10.2659 13.375 10.5665V13.9666C13.375 14.2672 13.4935 14.5554 13.7045 14.768C13.9155 14.9805 14.2016 15.0999 14.5 15.0999C14.7984 15.0999 15.0845 14.9805 15.2955 14.768C15.5065 14.5554 15.625 14.2672 15.625 13.9666V10.5665C15.625 10.2659 15.5065 9.97764 15.2955 9.76509C15.0845 9.55255 14.7984 9.43314 14.5 9.43314Z"/>
</svg>
