<svg viewBox="0 0 20 20" xmlns="http://www.w3.org/2000/svg" id="icon">
  <path fill-rule="evenodd" d="M11.4856 0.0503836C11.7176 0.121319 11.9203 0.262363 12.0641 0.453001C12.208 0.64364 12.2856 0.873932 12.2856 1.11038V6.66595H16.8567C17.0657 6.66585 17.2708 6.72151 17.4496 6.82686C17.6283 6.93221 17.7739 7.08321 17.8706 7.26344C17.9672 7.44366 18.0111 7.6462 17.9976 7.84902C17.9841 8.05184 17.9136 8.24716 17.7938 8.41372L9.7943 19.5248C9.65508 19.7188 9.45584 19.8645 9.22558 19.9407C8.99532 20.0169 8.74605 20.0197 8.51403 19.9487C8.28202 19.8777 8.07936 19.7365 7.93555 19.5458C7.79174 19.3551 7.71428 19.1247 7.71443 18.8882V13.3326H3.14329C2.93426 13.3327 2.7292 13.2771 2.55044 13.1717C2.37167 13.0664 2.22605 12.9153 2.12943 12.7351C2.0328 12.5549 1.98886 12.3524 2.0024 12.1495C2.01594 11.9467 2.08643 11.7514 2.20621 11.5848L10.2057 0.473717C10.3451 0.280147 10.5444 0.134842 10.7746 0.0589126C11.0048 -0.0170167 11.2538 -0.0196152 11.4856 0.0514947V0.0503836Z"/>
</svg>
