<svg viewBox="0 0 20 20" xmlns="http://www.w3.org/2000/svg" id="icon">
  <path fill-rule="evenodd" d="M4.34329 3.30509C5.84357 1.82916 7.87837 1 10.0001 1C12.1218 1 14.1566 1.82916 15.6569 3.30509C17.1572 4.78101 18 6.78279 18 8.87006C18 10.9573 17.1572 12.9591 15.6569 14.435L10.0001 20L4.34329 14.435C3.60038 13.7043 3.01107 12.8367 2.609 11.8818C2.20694 10.927 2 9.90358 2 8.87006C2 7.83653 2.20694 6.81313 2.609 5.85829C3.01107 4.90344 3.60038 4.03586 4.34329 3.30509ZM10.0001 11.1185C10.6063 11.1185 11.1876 10.8816 11.6162 10.46C12.0449 10.0383 12.2857 9.46639 12.2857 8.87006C12.2857 8.27373 12.0449 7.70182 11.6162 7.28015C11.1876 6.85848 10.6063 6.62158 10.0001 6.62158C9.39391 6.62158 8.81257 6.85848 8.38394 7.28015C7.95531 7.70182 7.71451 8.27373 7.71451 8.87006C7.71451 9.46639 7.95531 10.0383 8.38394 10.46C8.81257 10.8816 9.39391 11.1185 10.0001 11.1185Z"/>
</svg>
