<svg viewBox="0 0 20 20" xmlns="http://www.w3.org/2000/svg" id="icon">
  <path fill-rule="evenodd" d="M4.3501 8.875V6.625C4.3501 5.13316 4.94273 3.70242 5.99762 2.64752C7.05251 1.59263 8.48325 1 9.9751 1C11.4669 1 12.8977 1.59263 13.9526 2.64752C15.0075 3.70242 15.6001 5.13316 15.6001 6.625V8.875C16.1968 8.875 16.7691 9.11205 17.1911 9.53401C17.613 9.95597 17.8501 10.5283 17.8501 11.125V16.75C17.8501 17.3467 17.613 17.919 17.1911 18.341C16.7691 18.7629 16.1968 19 15.6001 19H4.3501C3.75336 19 3.18106 18.7629 2.75911 18.341C2.33715 17.919 2.1001 17.3467 2.1001 16.75V11.125C2.1001 10.5283 2.33715 9.95597 2.75911 9.53401C3.18106 9.11205 3.75336 8.875 4.3501 8.875ZM13.3501 6.625V8.875H6.6001V6.625C6.6001 5.72989 6.95568 4.87145 7.58861 4.23851C8.22155 3.60558 9.07999 3.25 9.9751 3.25C10.8702 3.25 11.7286 3.60558 12.3616 4.23851C12.9945 4.87145 13.3501 5.72989 13.3501 6.625Z"/>
</svg>
