<svg viewBox="0 0 20 20" fill="none" xmlns="http://www.w3.org/2000/svg" id="icon">
  <path
    d="M10 0.865234C12.5129 0.865234 14.5498 2.90215 14.5498 5.41504V6.7002H14.999C16.3614 6.7002 17.4658 7.8047 17.4658 9.16699V16.667C17.4656 18.0292 16.3612 19.1338 14.999 19.1338H5C3.63816 19.1334 2.53435 18.0289 2.53418 16.667L2.5332 9.16699C2.53308 7.80471 3.63777 6.70039 5 6.7002H5.4502V5.41504C5.4502 2.90214 7.48711 0.865234 10 0.865234ZM5 8.2998C4.5215 8.3 4.13277 8.68842 4.13281 9.16699L4.13379 16.667C4.13396 17.1452 4.52179 17.5328 5 17.5332H14.999C15.4776 17.5332 15.866 17.1455 15.8662 16.667V9.16699C15.8662 8.68834 15.4777 8.2998 14.999 8.2998H5ZM6.44434 12.0762C6.94113 12.0764 7.34458 12.4798 7.34473 12.9766V12.9854C7.34448 13.4821 6.94107 13.8846 6.44434 13.8848C5.94743 13.8848 5.54419 13.4822 5.54395 12.9854V12.9766C5.54409 12.4796 5.94737 12.0762 6.44434 12.0762ZM10 12.0078C10.497 12.0078 10.9003 12.4112 10.9004 12.9082V12.917C10.9001 13.4138 10.4969 13.8164 10 13.8164C9.5031 13.8164 9.09986 13.4138 9.09961 12.917V12.9082C9.09968 12.4112 9.50299 12.0078 10 12.0078ZM13.333 12.0078C13.83 12.0078 14.2333 12.4112 14.2334 12.9082V12.917C14.2332 13.4138 13.8299 13.8164 13.333 13.8164C12.8363 13.8162 12.4329 13.4137 12.4326 12.917V12.9082C12.4327 12.4113 12.8362 12.008 13.333 12.0078ZM10 2.46484C8.37076 2.46484 7.04981 3.7858 7.0498 5.41504V6.7002H12.9502V5.41504C12.9502 3.7858 11.6293 2.46484 10 2.46484Z"
    fill="currentColor" />
</svg>