<svg viewBox="0 0 20 20" xmlns="http://www.w3.org/2000/svg" id="icon">
  <path d="M9.9751 1C8.48325 1 7.05251 1.59263 5.99762 2.64752C4.94273 3.70242 4.3501 5.13316 4.3501 6.625V8.875C3.75336 8.875 3.18106 9.11205 2.75911 9.53401C2.33715 9.95597 2.1001 10.5283 2.1001 11.125V16.75C2.1001 17.3467 2.33715 17.919 2.75911 18.341C3.18106 18.7629 3.75336 19 4.3501 19H15.6001C16.1968 19 16.7691 18.7629 17.1911 18.341C17.613 17.919 17.8501 17.3467 17.8501 16.75V11.125C17.8501 10.5283 17.613 9.95597 17.1911 9.53401C16.7691 9.11205 16.1968 8.875 15.6001 8.875H6.6001V6.625C6.59982 5.80335 6.89929 5.00981 7.44235 4.39321C7.9854 3.7766 8.73475 3.37928 9.54985 3.27575C10.365 3.17222 11.1898 3.3696 11.8698 3.83087C12.5498 4.29214 13.0381 4.98562 13.2432 5.78125C13.3178 6.07022 13.5041 6.31772 13.7612 6.46931C13.8885 6.54437 14.0293 6.59362 14.1757 6.61425C14.322 6.63489 14.471 6.6265 14.614 6.58956C14.7571 6.55263 14.8915 6.48787 15.0096 6.39899C15.1276 6.31012 15.227 6.19885 15.3021 6.07156C15.3772 5.94427 15.4264 5.80344 15.447 5.65712C15.4677 5.51079 15.4593 5.36183 15.4223 5.21875C15.1102 4.01136 14.4058 2.94186 13.4199 2.17825C12.4339 1.41465 11.2222 1.00019 9.9751 1Z"/>
</svg>
