<svg viewBox="0 0 20 20" xmlns="http://www.w3.org/2000/svg" id="icon">
  <path fill-rule="evenodd" d="M2.0575 5.66514C1.73389 5.87202 1.46705 6.1597 1.28205 6.50111C1.09706 6.84252 0.999999 7.22646 1 7.6168V16.6985C1 17.3089 1.23705 17.8943 1.65901 18.3259C2.08097 18.7575 2.65326 19 3.25 19H16.75C17.3467 19 17.919 18.7575 18.341 18.3259C18.7629 17.8943 19 17.3089 19 16.6985V7.6168C19 7.22646 18.9029 6.84252 18.7179 6.50111C18.533 6.1597 18.2661 5.87202 17.9425 5.66514L11.1925 1.34983C10.8349 1.12122 10.4217 1 10 1C9.5783 1 9.1651 1.12122 8.8075 1.34983L2.0575 5.66514ZM4.99937 8.4534C4.87646 8.36953 4.73859 8.31124 4.59366 8.28187C4.44872 8.2525 4.29954 8.25262 4.15465 8.28222C4.00975 8.31182 3.87198 8.37032 3.74919 8.45438C3.6264 8.53845 3.52099 8.64643 3.439 8.77216C3.35701 8.89789 3.30002 9.0389 3.27131 9.18716C3.2426 9.33542 3.24271 9.488 3.27165 9.63622C3.33009 9.93554 3.50238 10.1989 3.75063 10.3682L9.37562 14.2037C9.5605 14.3299 9.77776 14.3972 10 14.3972C10.2222 14.3972 10.4395 14.3299 10.6244 14.2037L16.2494 10.3682C16.4976 10.1989 16.6699 9.93554 16.7284 9.63622C16.7868 9.33689 16.7266 9.02608 16.561 8.77216C16.3954 8.51823 16.138 8.342 15.8454 8.28222C15.5527 8.22244 15.2489 8.28401 15.0006 8.4534L10 11.8631L4.99937 8.4534Z"/>
</svg>
