<svg viewBox="0 0 20 20" xmlns="http://www.w3.org/2000/svg" id="icon">
  <path d="M19 2.12436C18.9999 1.95798 18.9629 1.79369 18.8917 1.64333C18.8204 1.49297 18.7167 1.36028 18.588 1.25483C18.4593 1.14937 18.3089 1.07378 18.1474 1.03349C17.986 0.993194 17.8177 0.98921 17.6545 1.02182L6.4045 3.27191C6.14956 3.32286 5.92014 3.46055 5.75525 3.66155C5.59035 3.86255 5.50016 4.11446 5.5 4.37445V14.6281C5.13119 14.5421 4.75369 14.4991 4.375 14.4998C2.51088 14.4998 1 15.5067 1 16.7499C1 17.9931 2.51088 19 4.375 19C6.23912 19 7.75 17.9931 7.75 16.7499V7.54707L16.75 5.747V12.378C16.3812 12.2921 16.0037 12.249 15.625 12.2497C13.7609 12.2497 12.25 13.2567 12.25 14.4998C12.25 15.743 13.7609 16.7499 15.625 16.7499C17.4891 16.7499 19 15.743 19 14.4998V2.12436Z"/>
</svg>
