<svg viewBox="0 0 20 20" xmlns="http://www.w3.org/2000/svg" id="icon">
  <path fill-rule="evenodd" d="M16.5602 16.4272C17.1963 16.4272 17.7524 16.0674 18.016 15.4897C18.14 15.2191 18.1874 14.917 18.1526 14.619C18.1178 14.321 18.0023 14.0397 17.8197 13.8085C17.7828 13.7619 17.7463 13.7154 17.7102 13.6693C17.677 13.627 17.6441 13.585 17.6115 13.5438L17.61 13.5419C16.6742 12.3551 16.1081 11.6371 16.1081 8.27589C16.1081 6.53482 15.7108 5.10625 14.9278 4.03482C14.3504 3.2433 13.57 2.64286 12.5413 2.19911C12.5281 2.19139 12.5163 2.18126 12.5064 2.1692C12.1364 0.870089 11.1239 0 9.98197 0C8.84004 0 7.82797 0.870089 7.45796 2.16786C7.44809 2.17948 7.43643 2.18928 7.42348 2.19688C5.02295 3.23304 3.85632 5.22098 3.85632 8.27455C3.85632 11.6388 3.29046 12.3558 2.3529 13.5424L2.32751 13.5745C2.26755 13.6503 2.20661 13.7274 2.14469 13.8071C1.96212 14.038 1.84644 14.3189 1.81136 14.6165C1.77627 14.9141 1.82324 15.2161 1.9467 15.4866C2.20941 16.067 2.76931 16.4272 3.4084 16.4272H16.5602ZM12.8304 17.8571H7.13437C7.10496 17.857 7.07603 17.8649 7.05038 17.88C7.02474 17.8951 7.00326 17.9169 6.98804 17.9433C6.97282 17.9697 6.96438 17.9998 6.96354 18.0306C6.96269 18.0614 6.96947 18.0919 6.98322 18.1192C7.02947 18.2093 7.07927 18.2971 7.13244 18.3823C7.13309 18.3834 7.13373 18.3844 7.13437 18.3854C7.14313 18.3994 7.15197 18.4134 7.16091 18.4272C7.34458 18.7122 7.56637 18.9676 7.81922 19.1858C7.94926 19.298 8.08753 19.4003 8.23304 19.4917C8.23379 19.4922 8.23452 19.4927 8.23527 19.4931C8.48578 19.6502 8.75332 19.7722 9.03105 19.8571C9.33862 19.9512 9.65869 19.9997 9.98197 20C10.3054 19.9997 10.6256 19.9512 10.9333 19.8571C11.211 19.7723 11.4785 19.6503 11.7289 19.4932C11.7297 19.4927 11.7305 19.4922 11.7313 19.4917C11.8746 19.4017 12.0108 19.3012 12.139 19.191C12.3944 18.9717 12.6183 18.7145 12.8035 18.4272C12.8125 18.4131 12.8215 18.399 12.8304 18.3848C12.8306 18.3845 12.8308 18.3842 12.831 18.3839C12.8845 18.2982 12.9346 18.2099 12.9811 18.1192C12.9949 18.092 13.0017 18.0615 13.0008 18.0307C13 17.9999 12.9916 17.9699 12.9764 17.9435C12.9613 17.9171 12.9398 17.8953 12.9143 17.8802C12.8887 17.865 12.8598 17.8571 12.8304 17.8571ZM15.763 14.4272H4.20076C4.60064 13.9075 5.03814 13.2702 5.3464 12.3787C5.71274 11.3191 5.85632 10.0381 5.85632 8.27455C5.85632 6.99448 6.10122 6.1106 6.46456 5.49153C6.81427 4.89569 7.35474 4.4049 8.21607 4.03312L8.32869 3.98451L8.43452 3.9225C8.64445 3.79951 8.82877 3.64326 8.98193 3.46305L9.26253 3.13289L9.38132 2.71622C9.46794 2.4124 9.61282 2.21824 9.73381 2.11429C9.85025 2.01425 9.93603 2 9.98197 2C10.0279 2 10.1137 2.01426 10.2302 2.11433C10.3512 2.21829 10.4962 2.41261 10.5829 2.71703L10.6961 3.11451L10.9576 3.43456C11.1162 3.62866 11.3104 3.79648 11.5337 3.92672L11.6381 3.98764L11.7491 4.03553C12.4972 4.35822 12.9741 4.75022 13.312 5.21344L13.313 5.21489C13.7776 5.85053 14.1081 6.82681 14.1081 8.27589C14.1081 10.0392 14.2519 11.3198 14.6184 12.3792C14.9266 13.2702 15.3638 13.9076 15.763 14.4272Z"/>
</svg>
