<svg viewBox="0 0 20 20" xmlns="http://www.w3.org/2000/svg" id="icon">
  <path d="M12.5 0V5H17.5L12.5 0ZM13.75 10H6.25V12.5H13.75V10ZM11.25 5V0H4.375C3.33945 0 2.5 0.839453 2.5 1.875V18.125C2.5 19.1602 3.33945 20 4.375 20H15.625C16.6605 20 17.5 19.1605 17.5 18.125V6.25H12.5352C11.8086 6.25 11.25 5.69141 11.25 5ZM5 2.8125C5 2.6418 5.1418 2.5 5.3125 2.5H8.4375C8.60938 2.5 8.75 2.6418 8.75 2.8125V3.4375C8.75 3.60859 8.60938 3.75 8.4375 3.75H5.3125C5.1418 3.75 5 3.60859 5 3.4375V2.8125ZM5 5.3125C5 5.14062 5.1418 5 5.3125 5H8.4375C8.60938 5 8.75 5.14062 8.75 5.3125V5.9375C8.75 6.10938 8.60938 6.25 8.4375 6.25H5.3125C5.1418 6.25 5 6.10938 5 5.9375V5.3125ZM15 17.1875C15 17.3584 14.8584 17.5 14.6875 17.5H11.5625C11.3906 17.5 11.25 17.3594 11.25 17.1875V16.5625C11.25 16.3916 11.3916 16.25 11.5625 16.25H14.6875C14.8584 16.25 15 16.3916 15 16.5625V17.1875ZM15 9.375V13.125C15 13.4717 14.7217 13.75 14.375 13.75H5.625C5.27852 13.75 5 13.4727 5 13.125V9.375C5 9.02734 5.27852 8.75 5.625 8.75H14.375C14.7227 8.75 15 9.02734 15 9.375Z"/>
</svg>
