<svg viewBox="0 0 20 20" fill="none" xmlns="http://www.w3.org/2000/svg" id="icon">
  <path
    d="M13.3334 5.05209C13.7648 5.05219 14.1146 5.40193 14.1146 5.83334C14.1146 6.26476 13.7648 6.6145 13.3334 6.61459H6.6665C6.23503 6.61459 5.88525 6.26482 5.88525 5.83334C5.88525 5.40187 6.23503 5.05209 6.6665 5.05209H13.3334Z"
    fill="currentColor" />
  <path
    d="M9.99963 8.38541C10.4311 8.38541 10.7809 8.73518 10.7809 9.16666C10.7809 9.59813 10.4311 9.94791 9.99963 9.94791H6.6665C6.23503 9.94791 5.88525 9.59813 5.88525 9.16666C5.88525 8.73518 6.23503 8.38541 6.6665 8.38541H9.99963Z"
    fill="currentColor" />
  <path
    d="M15.8827 3.33353C15.8827 2.84454 15.486 2.44791 14.9971 2.44791H5.02088C4.53249 2.44791 4.13615 2.84335 4.13526 3.3317L4.1145 16.6667C4.11381 17.1561 4.51061 17.5535 5.00012 17.5535H10.5067L15.8827 12.1879V3.33353ZM17.4452 12.512C17.4452 12.7195 17.3626 12.9184 17.2157 13.065L11.3814 18.8877C11.2349 19.0338 11.0364 19.116 10.8296 19.116H5.00012C3.64673 19.116 2.54996 18.0176 2.552 16.6642L2.57276 3.32925C2.575 1.97891 3.67051 0.885406 5.02088 0.885406H14.9971C16.3489 0.885406 17.4452 1.98156 17.4452 3.33353V12.512Z"
    fill="currentColor" />
  <path
    d="M10.052 14.1669C10.052 12.8149 11.1481 11.7188 12.5001 11.7188H16.6664V13.2812H12.5001C12.0111 13.2812 11.6145 13.6778 11.6145 14.1669V18.3331H10.052V14.1669Z"
    fill="currentColor" />
</svg>