<svg viewBox="0 0 20 20" fill="none" xmlns="http://www.w3.org/2000/svg" id="icon">
  <path fill-rule="evenodd" clip-rule="evenodd"
    d="M5.53567 2.70832C5.28608 2.70832 5.04482 2.80849 4.86549 2.98982C4.68584 3.17145 4.58329 3.41974 4.58329 3.68055V16.3194C4.58329 16.5802 4.68584 16.8285 4.86549 17.0102C5.04482 17.1915 5.28608 17.2917 5.53567 17.2917H14.4642C14.7138 17.2917 14.9551 17.1915 15.1344 17.0102C15.3141 16.8285 15.4166 16.5802 15.4166 16.3194V7.66558C15.4166 7.64421 15.4081 7.62555 15.3959 7.61322L10.5619 2.72549C10.55 2.71347 10.5358 2.70833 10.523 2.70832H5.53567ZM3.68048 1.81783C4.17092 1.32194 4.83807 1.04166 5.53567 1.04166H10.5232C10.9839 1.04176 11.424 1.22696 11.7469 1.55351M11.7469 1.55351L16.5808 6.44106C16.5807 6.44103 16.5808 6.44109 16.5808 6.44106C16.9034 6.76725 17.0832 7.20782 17.0833 7.66523V16.3194C17.0833 17.0164 16.8096 17.6866 16.3194 18.1821C15.829 18.678 15.1619 18.9583 14.4642 18.9583H5.53567C4.83807 18.9583 4.17092 18.678 3.68048 18.1821C3.19035 17.6866 2.91663 17.0164 2.91663 16.3194V3.68055C2.91663 2.98362 3.19035 2.31341 3.68048 1.81783M6.48805 9.99999C6.48805 9.53975 6.86115 9.16666 7.32139 9.16666H12.6785C13.1388 9.16666 13.5119 9.53975 13.5119 9.99999C13.5119 10.4602 13.1388 10.8333 12.6785 10.8333H7.32139C6.86115 10.8333 6.48805 10.4602 6.48805 9.99999ZM6.48805 13.6111C6.48805 13.1509 6.86115 12.7778 7.32139 12.7778H12.6785C13.1388 12.7778 13.5119 13.1509 13.5119 13.6111C13.5119 14.0713 13.1388 14.4444 12.6785 14.4444H7.32139C6.86115 14.4444 6.48805 14.0713 6.48805 13.6111Z"
    fill="currentColor" />
</svg>