<svg viewBox="0 0 20 20" xmlns="http://www.w3.org/2000/svg" id="icon">
  <path fill-rule="evenodd" d="M12.5 5V0L17.5 5H12.5ZM11.25 0V5C11.25 5.69141 11.8086 6.25 12.5352 6.25H17.5V18.125C17.5 19.1605 16.6605 20 15.625 20H4.375C3.33945 20 2.5 19.1602 2.5 18.125V1.875C2.5 0.839453 3.33945 0 4.375 0H11.25ZM13.7822 10.6983C13.966 10.5093 14.0676 10.2561 14.0653 9.99339C14.063 9.73065 13.9569 9.47931 13.7699 9.29351C13.5829 9.10772 13.3299 9.00233 13.0654 9.00005C12.8009 8.99776 12.546 9.09877 12.3558 9.28131L9.03387 12.5812L7.72952 11.2855C7.53926 11.1029 7.28444 11.0019 7.01994 11.0042C6.75544 11.0065 6.50243 11.1119 6.31539 11.2977C6.12835 11.4835 6.02226 11.7348 6.01996 11.9976C6.01766 12.2603 6.11934 12.5134 6.3031 12.7024L8.32066 14.7066C8.50984 14.8945 8.76638 15 9.03387 15C9.30136 15 9.5579 14.8945 9.74708 14.7066L13.7822 10.6983Z"/>
</svg>
