<svg viewBox="0 0 56 56" xmlns="http://www.w3.org/2000/svg">
<path fill-rule="evenodd" clip-rule="evenodd" d="M46.2926 8.75003V21.5095C45.7519 21.1864 45.1234 20.9999 44.4639 20.9999C42.5475 20.9999 41.0667 22.5749 41.0667 24.4999V29.6625L39.3245 37.45L39.3245 47.2499C38.3663 47.2499 37.5823 48.0374 37.5823 48.9999V55.9999H39.3245V48.9999H50.6486V55.9999H52.3908V48.9999C52.3908 48.3555 52.0393 47.7895 51.5195 47.4858V45.6748L54.9167 35.2623C55.0038 35.0873 55.0038 34.9123 54.9167 34.7373L52.2163 26.8623C52.2163 26.6873 52.0421 26.5123 51.8679 26.4248L48.0348 24.0674V7.52501L40.5435 -1.52588e-05H7.96484V24.0678L4.13232 26.4248C3.9581 26.5123 3.871 26.6873 3.78389 26.8623L1.08352 34.7373C0.996411 34.9123 0.996411 35.0873 1.08352 35.2623L4.48076 45.6748V47.2499H3.60952C3.08687 47.2499 2.73843 47.5999 2.73843 48.1249V55.9999H4.48061V48.9999H14.9338V49H16.6758V55.9999H18.418V48.1249C18.418 47.5999 18.0695 47.2499 17.5469 47.2499H16.676V37.625L14.9338 29.6625V24.4999C14.9338 22.5749 13.453 20.9999 11.5366 20.9999C10.8768 20.9999 10.248 21.1866 9.70702 21.51V1.74999H39.3241V8.75003H46.2926ZM45.0731 7.00002L41.0663 2.97515V7.00002H45.0731ZM49.7773 47.2499H41.0667V37.7125L42.8089 29.925V24.4999C42.8089 23.5374 43.5057 22.7499 44.4639 22.7499C45.4078 22.7499 46.2671 23.514 46.2926 24.4568V24.5001H46.2932V31.5L47.1643 37.7125L48.9065 37.45L48.0354 31.4125V26.0864L50.7355 27.7373L53.1745 34.9998L49.8644 45.2373C49.7773 45.3248 49.7773 45.4123 49.7773 45.4998V47.2499ZM14.9338 47.2499V37.7125L13.1917 29.75V24.4999C13.1917 23.5374 12.4948 22.7499 11.5366 22.7499C10.5784 22.7499 9.70731 23.5374 9.70731 24.4999V31.5875L8.83623 37.7125L7.09406 37.45L7.96514 31.4125V26.0862L5.26473 27.7373L2.82569 34.9998L6.22293 45.2373V45.4998V47.2499H14.9338ZM14.9339 50.75H13.1917V52.5H14.9339V50.75ZM41.0669 50.75H42.8091V52.5H41.0669V50.75ZM14.9337 5.24995H13.1915V6.99996H14.9337V5.24995ZM16.6757 5.24995H18.4179V6.99996H16.6757V5.24995ZM21.9021 5.24995H20.1599V6.99996H21.9021V5.24995ZM11.4493 10.5H44.5506V12.25H11.4493V10.5ZM44.5506 13.9998H11.4493V15.7498H44.5506V13.9998ZM11.4493 17.5H44.5506V19.25H11.4493V17.5ZM34.0975 22.7499H32.3553V40.25H34.0975V22.7499ZM35.8395 26.2499H37.5817V40.25H35.8395V26.2499ZM30.613 27.9999H28.8708V40.2499H30.613V27.9999ZM25.3867 24.4998H27.1289V40.2498H25.3867V24.4998ZM20.1601 26.2499H18.4179V40.25H20.1601V26.2499ZM18.4179 42H20.1601V43.75H18.4179V42ZM23.6448 29.7498H21.9026V40.2499H23.6448V29.7498ZM21.9026 42H23.6448V43.75H21.9026V42ZM27.1289 42H25.3867V43.75H27.1289V42ZM28.8708 42H30.613V43.75H28.8708V42ZM34.0975 42H32.3553V43.75H34.0975V42ZM35.8395 42H37.5817V43.75H35.8395V42Z"/>
</svg>
