<svg viewBox="0 0 56 56" xmlns="http://www.w3.org/2000/svg">
<path fill-rule="evenodd" clip-rule="evenodd" d="M27.0344 19.5737C27.0344 11.5879 33.5314 5.09091 41.5172 5.09091C49.5029 5.09091 55.9999 11.5879 55.9999 19.5737C55.9999 27.5594 49.5029 34.0564 41.5172 34.0564C33.5314 34.0564 27.0344 27.5594 27.0344 19.5737ZM28.9655 19.5737C28.9655 26.4948 34.596 32.1254 41.5172 32.1254C48.4383 32.1254 54.0689 26.4948 54.0689 19.5737C54.0689 12.6525 48.4383 7.02194 41.5172 7.02194C34.596 7.02194 28.9655 12.6525 28.9655 19.5737ZM48.2759 35.0219C48.2759 34.4887 48.7082 34.0564 49.2414 34.0564C49.7746 34.0564 50.2069 34.4887 50.2069 35.0219V45.6426C50.2069 47.7724 48.4746 49.5047 46.3448 49.5047H3.86207C1.7323 49.5047 0 47.7724 0 45.6426V18.6081C0 16.4784 1.7323 14.7461 3.86207 14.7461H25.1034C25.6366 14.7461 26.069 15.1784 26.069 15.7116C26.069 16.2448 25.6366 16.6771 25.1034 16.6771H3.86207C2.79742 16.6771 1.93103 17.5435 1.93103 18.6081V45.6426C1.93103 46.7073 2.79742 47.5737 3.86207 47.5737H46.3448C47.4095 47.5737 48.2759 46.7073 48.2759 45.6426V35.0219ZM5.79309 43.7116C5.79309 44.2448 6.22542 44.6771 6.75861 44.6771H39.5862C40.1194 44.6771 40.5517 44.2448 40.5517 43.7116C40.5517 43.1784 40.1194 42.7461 39.5862 42.7461H6.75861C6.22542 42.7461 5.79309 43.1784 5.79309 43.7116ZM43.4483 44.6771C43.9815 44.6771 44.4138 44.2448 44.4138 43.7116C44.4138 43.1784 43.9815 42.7461 43.4483 42.7461C42.9151 42.7461 42.4828 43.1784 42.4828 43.7116C42.4828 44.2448 42.9151 44.6771 43.4483 44.6771ZM16.4138 19.5737H6.75867C5.69402 19.5737 4.82764 20.44 4.82764 21.5047V31.1599C4.82764 32.2245 5.69402 33.0909 6.75867 33.0909H16.4138C17.4785 33.0909 18.3449 32.2245 18.3449 31.1599V21.5047C18.3449 20.44 17.4785 19.5737 16.4138 19.5737ZM16.4138 21.5047L16.4143 23.4357H10.6207V21.5047H16.4138ZM6.75867 31.1599V21.5047H8.68971V31.1599H6.75867ZM16.4138 31.1599H10.6207V29.2288H14.4828C15.016 29.2288 15.4483 28.7965 15.4483 28.2633C15.4483 27.7301 15.016 27.2978 14.4828 27.2978H10.6207V25.3668H16.4143L16.4151 31.1599H16.4138ZM6.75867 39.8495C6.75867 39.3163 7.191 38.884 7.72418 38.884H13.5173C14.0505 38.884 14.4828 39.3163 14.4828 39.8495C14.4828 40.3827 14.0505 40.815 13.5173 40.815H7.72418C7.191 40.815 6.75867 40.3827 6.75867 39.8495ZM16.4138 39.8495C16.4138 40.3827 16.8461 40.815 17.3793 40.815H23.1724C23.7056 40.815 24.138 40.3827 24.138 39.8495C24.138 39.3163 23.7056 38.884 23.1724 38.884H17.3793C16.8461 38.884 16.4138 39.3163 16.4138 39.8495ZM32.8276 40.815H27.0345C26.5013 40.815 26.069 40.3827 26.069 39.8495C26.069 39.3163 26.5013 38.884 27.0345 38.884H32.8276C33.3608 38.884 33.7931 39.3163 33.7931 39.8495C33.7931 40.3827 33.3608 40.815 32.8276 40.815ZM42.4827 38.884H36.6896C36.1565 38.884 35.7241 39.3163 35.7241 39.8495C35.7241 40.3827 36.1565 40.815 36.6896 40.815H42.4827C43.0159 40.815 43.4483 40.3827 43.4483 39.8495C43.4483 39.3163 43.0159 38.884 42.4827 38.884ZM39.7091 22.9963L47.1343 15.571C47.5321 15.1733 48.1767 15.1733 48.5744 15.571C48.9721 15.9687 48.9721 16.6133 48.5744 17.011L40.4291 25.1564C40.2305 25.355 39.9696 25.4545 39.7091 25.4545C39.4487 25.4545 39.1878 25.355 38.9891 25.1564L34.9165 21.0837C34.5187 20.686 34.5187 20.0414 34.9165 19.6437C35.3142 19.246 35.9587 19.246 36.3564 19.6437L39.7091 22.9963Z"/>
</svg>
