<svg viewBox="0 0 56 56" xmlns="http://www.w3.org/2000/svg">
<path fill-rule="evenodd" clip-rule="evenodd" d="M36.7912 8.26996C32.5365 6.37421 27.7831 5.90457 23.2397 6.93108C18.6964 7.95759 14.6066 10.4253 11.5803 13.966C8.55394 17.5068 6.75327 21.931 6.4468 26.5788C6.14033 31.2266 7.34447 35.8489 9.87965 39.7564C12.4148 43.6639 16.1452 46.6473 20.5144 48.2615C24.8837 49.8757 29.6576 50.0342 34.1243 48.7136C38.5911 47.3929 42.5112 44.6637 45.3001 40.9331C48.089 37.2025 49.5973 32.6702 49.6 28.0124V25.8972C49.6 25.124 50.2268 24.4972 51 24.4972C51.7732 24.4972 52.4 25.124 52.4 25.8972V28.0132C52.397 33.2748 50.6932 38.3954 47.5427 42.6096C44.3923 46.8238 39.964 49.9068 34.9182 51.3987C29.8725 52.8905 24.4797 52.7114 19.5441 50.8879C14.6085 49.0645 10.3945 45.6944 7.53072 41.2804C4.66691 36.8664 3.30667 31.6448 3.65287 26.3946C3.99907 21.1443 6.03316 16.1466 9.45178 12.1468C12.8704 8.14704 17.4904 5.3595 22.6227 4.19992C27.755 3.04034 33.1246 3.57087 37.9308 5.71236C38.637 6.02706 38.9545 6.8547 38.6398 7.56096C38.3251 8.26723 37.4974 8.58466 36.7912 8.26996ZM51.9894 8.60955C52.5364 9.15601 52.5369 10.0424 51.9904 10.5895L28.9904 33.6124C28.7279 33.8752 28.3717 34.0229 28.0003 34.023C27.6289 34.0231 27.2727 33.8756 27.01 33.6129L20.11 26.7129C19.5633 26.1662 19.5633 25.2798 20.11 24.733C20.6568 24.1863 21.5432 24.1863 22.0899 24.733L27.9995 30.6426L50.0095 8.61054C50.556 8.06354 51.4424 8.06309 51.9894 8.60955Z"/>
</svg>
