<svg viewBox="0 0 56 56" xmlns="http://www.w3.org/2000/svg">
<path fill-rule="evenodd" clip-rule="evenodd" d="M24.5106 8.76596H24.4681V10.4681H30.6383C31.1064 10.4681 31.5319 10.8511 31.5319 11.3617V22.7234H29.7872V12.2553H24.4681V21.0213H22.7234V12.2553H8.72341V21.0213H6.97873V12.2553H1.74468V43.7447H5.27659V45.4894H1.74468V54.2553H5.23404V56H0.893617C0.425532 56 0 55.617 0 55.1064V11.3617C0 10.8936 0.382979 10.4681 0.893617 10.4681H6.97873V8.76596H7.06383C6.97873 3.91489 10.9362 0 15.7447 0C20.5532 0 24.5106 3.91489 24.5106 8.76596ZM15.7872 1.78723C19.617 1.78723 22.766 4.89362 22.766 8.76596H22.7234V10.4681H8.72341V8.76596H8.80851C8.80851 4.93617 11.9574 1.78723 15.7872 1.78723ZM54.2553 54.2553L8.76596 54.2553V50.7234H54.2553L54.2553 54.2553ZM54.2553 48.9787H8.76596V26.2553H54.2553L54.2553 48.9787ZM55.1064 56H55.1064C55.5745 56 56 55.5745 56 55.1064L56 25.3617C56 24.8511 55.5745 24.4681 55.1064 24.4681H7.87235C7.36171 24.4681 6.97873 24.8936 6.97873 25.3617V55.1064C6.97873 55.617 7.40426 56 7.87234 56H55.1064ZM22.7234 29.7447H24.4681V36.7234C24.4681 40.5957 27.617 43.7021 31.4468 43.7021C35.3192 43.7021 38.4255 40.5532 38.4255 36.7234L38.5106 36.7234V29.7447H40.2553V36.7234L40.1702 36.7234C40.2553 41.5745 36.2979 45.4894 31.4894 45.4894C26.6809 45.4894 22.7234 41.5745 22.7234 36.7234V29.7447ZM34.9787 19.234H36.7234V20.9787H34.9787V19.234ZM40.2553 19.234H38.5106V20.9787H40.2553V19.234ZM42 19.234H43.7447V20.9787H42V19.234Z"/>
</svg>
