<svg viewBox="0 0 56 56" xmlns="http://www.w3.org/2000/svg">
<path fill-rule="evenodd" clip-rule="evenodd" d="M27.6315 38.874C27.7906 38.9786 27.9498 39.0309 28.162 39.0309C28.3742 39.0309 28.5334 38.9786 28.6926 38.874L41.4788 29.8799C41.691 29.723 41.8502 29.4616 41.8502 29.1478V3.9435C41.8502 3.62975 41.7441 3.36829 41.4788 3.21142C41.2135 3.05455 40.8952 3.00226 40.6299 3.10684L33.8919 5.61681L31.5575 3.316C31.3984 3.15913 31.1861 3.05455 30.9209 3.05455H25.4562C25.1909 3.05455 24.9787 3.15913 24.8196 3.316L22.4851 5.61681L15.7472 3.10684C15.4288 3.00226 15.1105 3.05455 14.8983 3.21142C14.6861 3.36829 14.5269 3.62975 14.5269 3.9435V29.1478C14.5269 29.4616 14.633 29.723 14.8983 29.8799L27.6315 38.874ZM28.162 37.0438L16.3308 28.6772V5.25078L21.7954 7.28233V10.2707H23.5993V7.02869L25.8276 4.83245H30.5495L32.7247 6.97638V10.2707H34.5286V7.30205L40.0463 5.25078V28.6772L28.162 37.0438ZM4.44644 44.4168H2.64258V17.4346C2.64258 15.4475 4.28728 13.8265 6.30336 13.8265H12.6699V15.6044H6.30336C5.29532 15.6044 4.4995 16.3888 4.4995 17.3823V44.4168H4.44644ZM52.8325 53.4109H3.54453C3.27926 53.4109 3.06704 53.3063 2.90787 53.1495L-0.752914 49.5414C-0.912079 49.3845 -1.01819 49.1753 -1.01819 48.9139V47.136C-1.01819 46.6654 -0.59375 46.247 -0.116256 46.247H21.7954C22.0607 46.247 22.2729 46.3516 22.4321 46.5085L23.9706 48.0249H32.3533L33.8919 46.5085C34.0511 46.3516 34.3163 46.247 34.5286 46.247H56.4402C56.9708 46.247 57.3422 46.6654 57.3422 47.136V48.9139C57.3422 49.1753 57.236 49.3845 57.0769 49.5414L53.4161 53.1495C53.31 53.3063 53.0447 53.4109 52.8325 53.4109ZM3.91591 51.633H52.4611L55.5913 48.5478V48.0249H34.953L33.4144 49.5414C33.2552 49.6982 32.99 49.8028 32.7778 49.8028H23.5993C23.334 49.8028 23.1218 49.6982 22.9626 49.5414L21.424 48.0249H0.785677V48.5478L3.91591 51.633ZM51.9306 44.4168H53.7344H53.7875V17.4869C53.7875 15.4998 52.1428 13.8788 50.1267 13.8788H43.7601V15.6567H50.1267C51.1348 15.6567 51.9306 16.4411 51.9306 17.4346V44.4168ZM25.4031 40.8087H23.5992V42.5866H25.4031V40.8087ZM19.9915 40.8087H21.7954V42.5866H19.9915V40.8087ZM29.0639 40.8087H27.2601V42.5866H29.0639V40.8087ZM30.9208 40.8087H32.7247V42.5866H30.9208V40.8087ZM36.3855 40.8087H34.5816V42.5866H36.3855V40.8087ZM38.2424 40.861V42.6389H49.1717C49.7023 42.6389 50.0737 42.2206 50.0737 41.75V18.3758C50.0737 17.9052 49.7023 17.4869 49.1717 17.4869H43.7071V19.2648H48.2698V40.861H38.2424ZM18.1346 42.6389H7.20534C6.67479 42.6389 6.30341 42.2206 6.30341 41.75V18.3236C6.30341 17.8529 6.72784 17.4346 7.20534 17.4346H12.67V19.2648H8.10727V40.861H18.1346V42.6389ZM27.2601 23.7618C27.0479 23.7618 26.7826 23.6573 26.6234 23.5004L23.8646 20.7812L25.1379 19.5263L27.207 21.5656L31.1331 17.6961L32.4064 18.9511L27.8437 23.4481C27.7376 23.6573 27.5253 23.7618 27.2601 23.7618ZM19.9385 20.1538C19.9385 24.6508 23.6523 28.2589 28.162 28.2589C32.7247 28.2589 36.3855 24.6508 36.3855 20.1538C36.3855 15.6567 32.6716 12.0486 28.162 12.0486C23.6523 12.0486 19.9385 15.6567 19.9385 20.1538ZM21.7954 20.1015C21.7954 16.6502 24.6604 13.8265 28.162 13.8265C31.7167 13.8265 34.5286 16.6502 34.5286 20.1015C34.5286 23.5527 31.6636 26.3764 28.162 26.3764C24.6604 26.3764 21.7954 23.5527 21.7954 20.1015Z"/>
</svg>