<svg viewBox="0 0 56 56" xmlns="http://www.w3.org/2000/svg">
<path d="M15.7574 40.7638C15.699 40.6218 15.6526 40.4724 15.6204 40.3169L10.9765 17.9986C10.9435 17.9319 10.9164 17.8609 10.8954 17.7868L8.69059 9.99555H3.46951C2.79057 9.99555 2.23999 9.4395 2.23999 8.75397C2.23999 8.068 2.79053 7.5124 3.46951 7.5124H10.5458L12.6823 15.0625C12.7432 15.0448 12.8055 15.0288 12.8686 15.0153C13.0348 14.9803 13.2044 14.9625 13.3745 14.9625H52.7261C54.0843 14.9625 55.1854 16.0741 55.1854 17.4457C55.1854 17.6115 55.1691 17.777 55.1365 17.9394L51.0641 38.2155C50.8438 39.312 49.9249 40.1245 48.819 40.1998L18.1931 42.2841C18.0462 42.2941 17.9011 42.2906 17.7589 42.275L16.5269 44.7639H48.9701C49.649 44.7639 50.1996 45.3195 50.1996 46.0054C50.1996 46.691 49.649 47.247 48.9701 47.247H14.5381C13.6243 47.247 13.0295 46.2757 13.4383 45.4502L15.7574 40.7638ZM13.3745 17.4455L18.0274 39.8059L48.6533 37.7215L52.7257 17.4454L13.3745 17.4455ZM19.4561 53.4545C18.0978 53.4545 16.9963 52.3429 16.9963 50.9714C16.9963 49.5999 18.0978 48.4878 19.4561 48.4878C20.8144 48.4878 21.9155 49.5999 21.9155 50.9714C21.9155 52.3429 20.8144 53.4545 19.4561 53.4545ZM46.5102 53.4545C45.152 53.4545 44.0509 52.3429 44.0509 50.9714C44.0509 49.5999 45.152 48.4878 46.5102 48.4878C47.8685 48.4878 48.9696 49.5999 48.9696 50.9714C48.9696 52.3429 47.8685 53.4545 46.5102 53.4545ZM33.0222 11.2371C33.0222 11.923 32.4708 12.4786 31.791 12.4786C31.1108 12.4786 30.5594 11.923 30.5594 11.2371V3.78704C30.5594 3.10106 31.1108 2.54546 31.791 2.54546C32.4708 2.54546 33.0222 3.10108 33.0222 3.78704V11.2371ZM26.2998 10.5381C26.5871 11.1596 26.3204 11.8984 25.7042 12.1881C25.088 12.4778 24.3553 12.2089 24.0676 11.5874L22.5066 8.21126C22.2193 7.5898 22.486 6.85094 23.1022 6.56125C23.7185 6.27153 24.4512 6.54046 24.7384 7.16192L26.2998 10.5381ZM39.5141 11.5874C39.2268 12.2089 38.4942 12.4778 37.8775 12.1881C37.2613 11.8984 36.9946 11.1596 37.2823 10.5381L38.8433 7.1619C39.1306 6.54044 39.8632 6.27151 40.4795 6.56123C41.0957 6.85095 41.3624 7.58976 41.0751 8.21123L39.5141 11.5874Z"/>
</svg>
