<svg viewBox="0 0 56 56" xmlns="http://www.w3.org/2000/svg">
<path fill-rule="evenodd" clip-rule="evenodd" d="M18.6322 52.2736C18.7874 52.4288 19.0462 52.5323 19.2532 52.5323C19.4603 52.5323 19.719 52.4288 19.8743 52.2736L22.7726 49.3752L25.7745 52.2736L27.0166 51.0314L23.4972 47.512C23.1349 47.1497 22.6174 47.1497 22.2551 47.512L19.3567 50.4104L15.8373 46.8909V9.62662C15.8373 8.63563 15.5109 7.72195 14.9596 6.98706H48.1331C49.5823 6.98706 50.7726 8.17745 50.7726 9.62662V15.7338H52.5323V9.62662C52.5323 7.19408 50.5656 5.22736 48.1331 5.22736H11.3863V5.22765C8.97771 5.25532 7.03882 7.21136 7.03882 9.62662V35.9187C7.03882 37.1905 6.1219 38.2631 4.91786 38.5065H4.39926L4.39926 38.5582C2.95009 38.5582 1.7597 37.3678 1.7597 35.9187V1.7597H36.7468V3.51941H38.5065V0.879852C38.5065 0.414048 38.0924 0 37.6266 0H0.879852C0.414048 0 0 0.414048 0 0.879852V35.8669C0 38.2994 1.86322 40.2662 4.29575 40.2662C4.33035 40.2662 4.36485 40.2658 4.39926 40.265V40.2662H12.2662V38.5065H7.81726C8.3686 37.7716 8.69501 36.8579 8.69501 35.8669V9.62662C8.69501 8.17745 9.8854 6.98706 11.3346 6.98706C12.7837 6.98706 13.9741 8.17745 13.9741 9.62662V47.2532C13.9741 47.512 14.0776 47.719 14.2329 47.8743L18.6322 52.2736ZM28 28H26.2403V40.2662H28V28ZM22.7726 31.5194H24.5324V40.2662H22.7726V31.5194ZM19.2532 24.5324V40.2662H21.0129V24.5324H19.2532ZM55.1719 56H30.6396C30.1738 56 29.7597 55.586 29.7597 55.1202V18.3734C29.7597 17.9076 30.1738 17.4935 30.6396 17.4935H55.1719C55.6377 17.4935 56.0518 17.9076 56.0518 18.3734V55.1202C56 55.6377 55.6377 56 55.1719 56ZM31.5194 54.2921H54.2921V19.2532H31.5194V54.2921ZM33.2791 26.2403H52.5323V28H33.2791V26.2403ZM52.5323 21.0129H33.2791V22.7726H52.5323V21.0129ZM34.159 38.5065H37.6266C38.1442 38.5065 38.5065 38.1442 38.5582 37.6784V34.159C38.5582 33.6932 38.1442 33.2791 37.6784 33.2791H34.159C33.6932 33.2791 33.2791 33.6932 33.2791 34.159V37.6266C33.2791 38.0924 33.6932 38.5065 34.159 38.5065ZM36.7468 36.7468H35.0388H34.9871V34.9871H36.7468V36.7468ZM44.6654 38.5065H41.146C40.6802 38.5065 40.2662 38.0924 40.2662 37.6266V34.159C40.2662 33.6932 40.6802 33.2791 41.146 33.2791H44.6654C45.1312 33.2791 45.5453 33.6932 45.5453 34.159V37.6784C45.4935 38.1442 45.1312 38.5065 44.6654 38.5065ZM42.0259 36.7468H43.7856V34.9871H42.0259V36.7468ZM48.1331 38.5065H51.6525C52.1183 38.5065 52.5323 38.1442 52.5323 37.6784V34.159C52.5323 33.6932 52.1183 33.2791 51.6525 33.2791H48.1331C47.6673 33.2791 47.2532 33.6932 47.2532 34.159V37.6266C47.2532 38.0924 47.6673 38.5065 48.1331 38.5065ZM50.7726 36.7468H49.0129V34.9871H50.7726V36.7468ZM37.6266 45.4935H34.159C33.6932 45.4935 33.2791 45.0795 33.2791 44.6137V41.0943C33.2791 40.6285 33.6932 40.2144 34.159 40.2144H37.6784C38.1442 40.2144 38.5582 40.6285 38.5582 41.0943V44.6137C38.5065 45.1312 38.1442 45.4935 37.6266 45.4935ZM35.0388 43.7856H36.7468V42.0259H34.9871V43.7856H35.0388ZM41.146 45.4935H44.6654C45.1312 45.4935 45.4935 45.1312 45.5453 44.6137V41.0943C45.5453 40.6285 45.1312 40.2144 44.6654 40.2144H41.146C40.6802 40.2144 40.2662 40.6285 40.2662 41.0943V44.6137C40.2662 45.0795 40.6802 45.4935 41.146 45.4935ZM43.7856 43.7856H42.0259V42.0259H43.7856V43.7856ZM51.6525 45.4935H48.1331C47.6673 45.4935 47.2532 45.0795 47.2532 44.6137V41.0943C47.2532 40.6285 47.6673 40.2144 48.1331 40.2144H51.6525C52.1183 40.2144 52.5323 40.6285 52.5323 41.0943V44.6137C52.5323 45.1312 52.1183 45.4935 51.6525 45.4935ZM49.0129 43.7856H50.7726V42.0259H49.0129V43.7856ZM34.159 52.5323H37.6266C38.1442 52.5323 38.5065 52.1183 38.5582 51.6525V48.1331C38.5582 47.6673 38.1442 47.2532 37.6784 47.2532H34.159C33.6932 47.2532 33.2791 47.6673 33.2791 48.1331V51.6525C33.2791 52.1183 33.6932 52.5323 34.159 52.5323ZM36.7468 50.7726H35.0388H34.9871V49.0129H36.7468V50.7726ZM44.6654 52.5323H41.146C40.6802 52.5323 40.2662 52.1183 40.2662 51.6525V48.1331C40.2662 47.6673 40.6802 47.2532 41.146 47.2532H44.6654C45.1312 47.2532 45.5453 47.6673 45.5453 48.1331V51.6525C45.4935 52.1183 45.1312 52.5323 44.6654 52.5323ZM42.0259 50.7726H43.7856V49.0129H42.0259V50.7726ZM48.1331 52.5323H51.6525C52.1183 52.5323 52.5323 52.1183 52.5323 51.6525V48.1331C52.5323 47.6673 52.1183 47.2532 51.6525 47.2532H48.1331C47.6673 47.2532 47.2532 47.6673 47.2532 48.1331V51.6525C47.2532 52.1183 47.6673 52.5323 48.1331 52.5323ZM50.7726 50.7726H49.0129V49.0129H50.7726V50.7726ZM52.4806 29.7597H47.2532V31.5194H52.4806V29.7597ZM49.0129 23.6525H50.7726V25.4122H49.0129V23.6525ZM47.2532 23.6525H45.4935V25.4122H47.2532V23.6525ZM42.0259 23.6525H43.7856V25.4122H42.0259V23.6525ZM40.2662 23.6525H38.5065V25.4122H40.2662V23.6525ZM19.2532 42.0259H28V43.7856H19.2532V42.0259ZM28 19.2532H20.1331C19.6673 19.2532 19.2532 18.8392 19.2532 18.3734V11.3863C19.2532 10.9205 19.6673 10.5065 20.1331 10.5065H46.3734C46.8392 10.5065 47.2532 10.9205 47.2532 11.3863V15.7856H45.4935V12.2662H21.0129V17.4935H28V19.2532ZM22.7726 14.0259H31.5194V15.7856H22.7726V14.0259Z"/>
</svg>
