<svg viewBox="0 0 56 56" xmlns="http://www.w3.org/2000/svg">
<path fill-rule="evenodd" clip-rule="evenodd" d="M43.727 52.102C43.2139 52.102 42.7986 52.5177 42.7986 53.0304V54.2H3.99222V1.75542H33.032V10.7329C33.032 10.9791 33.1298 11.2149 33.3039 11.3894C33.478 11.5635 33.7142 11.6613 33.9604 11.6613H42.8451V27.8703C42.9412 28.2927 43.3167 28.5923 43.7502 28.5923C44.1833 28.5923 44.5588 28.2927 44.6554 27.8703V10.8157V10.7324C44.6525 10.4431 44.5149 10.172 44.284 9.99878L34.5729 0.222975C34.5017 0.150446 34.4163 0.0936594 34.3222 0.0559512H34.2389C34.161 0.0273538 34.0797 0.00870345 33.9973 0H3.09118C2.5785 0 2.1628 0.415703 2.1628 0.928382V55.0716C2.1628 55.3178 2.26061 55.554 2.43468 55.7281C2.60875 55.9022 2.84499 56 3.09118 56H43.7267C43.9729 56 44.2087 55.9022 44.3832 55.7281C44.5573 55.554 44.6551 55.3178 44.6551 55.0716V53.0292C44.6551 52.783 44.5573 52.5467 44.3832 52.3727C44.2087 52.1986 43.9729 52.1008 43.7267 52.1008L43.727 52.102ZM34.8327 9.83255V3.04581L41.6008 9.83255H34.8327ZM43.2448 31.0367H43.7367L43.7923 31.0091C47.1588 31.0091 50.2698 32.8053 51.9529 35.7206C53.6364 38.6362 53.6364 42.2283 51.9529 45.1436C50.2698 48.0593 47.1588 49.8551 43.7923 49.8551H43.2725C42.8626 49.7341 42.5887 49.3487 42.6086 48.9218C42.6285 48.4953 42.9368 48.1368 43.3563 48.0543H43.7923C46.5157 48.0543 49.0318 46.6013 50.3933 44.243C51.7548 41.8847 51.7548 38.9794 50.3933 36.6211C49.0318 34.2628 46.5157 32.8102 43.7923 32.8102H43.319C42.8374 32.8123 42.4341 32.445 42.3906 31.9651C42.3889 31.4802 42.7611 31.0757 43.2448 31.0367ZM35.8073 35.3263C36.0891 34.9197 36.6403 34.8053 37.0606 35.0664L37.0607 35.0664C37.4623 35.3474 37.5758 35.892 37.3209 36.3106C37.1755 36.5319 37.042 36.7615 36.9214 36.9974C36.7622 37.2966 36.4526 37.4852 36.114 37.4893C35.9723 37.4901 35.8326 37.4582 35.7054 37.3965C35.2731 37.1594 35.1015 36.6252 35.3154 36.1805C35.4637 35.8924 35.6308 35.6048 35.8073 35.3263ZM38.5653 48.3886C38.8439 48.5652 39.1315 48.7322 39.4195 48.8806C39.5468 48.9423 39.6864 48.9742 39.8282 48.9734C40.1647 48.9709 40.4739 48.7861 40.6356 48.4906C40.8494 48.0463 40.6782 47.512 40.246 47.2745C40.0056 47.156 39.7731 47.023 39.5497 46.8754C39.1311 46.6201 38.5865 46.7341 38.3054 47.1353C38.0443 47.5555 38.1587 48.1068 38.5653 48.3885L38.5653 48.3886ZM39.066 34.2121C38.7609 34.2166 38.4762 34.0616 38.3137 33.8038L38.3137 33.8039C38.0588 33.3852 38.1724 32.8406 38.574 32.5596C38.85 32.3814 39.1352 32.2169 39.4278 32.0677C39.6437 31.8803 39.9338 31.8032 40.214 31.858C40.4946 31.9127 40.7341 32.0938 40.8635 32.3483C40.9932 32.6027 40.9982 32.9028 40.8771 33.1618C40.7565 33.4205 40.5232 33.6095 40.2451 33.6737C40.0089 33.7943 39.7797 33.9273 39.5579 34.0728C39.4104 34.1644 39.2396 34.2129 39.066 34.2121ZM35.2508 39.1048C34.7659 39.1031 34.3614 39.4753 34.3225 39.959V40.4509V40.9429C34.3614 41.4265 34.7659 41.7987 35.2508 41.7971C35.7345 41.7581 36.1067 41.3536 36.105 40.8687V40.4696V40.0705C36.1266 39.571 35.749 39.1441 35.2508 39.1048ZM36.5601 46.0119C36.2551 46.0165 35.9703 45.8615 35.8079 45.6032L35.8079 45.6032C35.6263 45.3292 35.4618 45.0437 35.3159 44.749C35.1228 44.5347 35.0399 44.243 35.0921 43.959C35.1443 43.6751 35.3254 43.4319 35.5824 43.3005C35.8389 43.1691 36.1427 43.1645 36.403 43.2885C36.6637 43.412 36.8523 43.6499 36.9128 43.9321C37.0429 44.1733 37.1731 44.4054 37.3214 44.6284C37.5747 45.0491 37.4566 45.5941 37.0521 45.8726C36.9045 45.9642 36.7337 46.0123 36.5601 46.0119ZM16.4854 14.2684C16.3109 14.4425 16.075 14.5403 15.8289 14.5403L9.54366 14.5681C9.29747 14.5681 9.06123 14.4703 8.88716 14.2962C8.71309 14.1222 8.61528 13.8859 8.61528 13.6397V7.2339C8.61528 6.72122 9.03098 6.30552 9.54366 6.30552H15.8289C16.075 6.30552 16.3109 6.40333 16.4854 6.5774C16.6594 6.75147 16.7572 6.98771 16.7572 7.2339V13.6119C16.7572 13.8581 16.6594 14.094 16.4854 14.2684ZM14.9283 8.13448H10.4442V12.7764H14.9283V8.13448ZM32.0939 42.1687C32.0939 41.9226 31.9961 41.6863 31.822 41.5122C31.6479 41.3382 31.4117 41.2404 31.1655 41.2404H8.88434C8.47155 41.344 8.18184 41.7149 8.18184 42.141C8.18184 42.5666 8.47155 42.938 8.88434 43.0416H31.1655C31.6575 43.0424 32.0645 42.6595 32.0939 42.1687ZM8.23781 48.6948C8.23781 48.2692 8.52751 47.8978 8.94072 47.7942L17.9182 47.7942C18.1955 47.725 18.4893 47.7872 18.7148 47.9629C18.9403 48.139 19.0721 48.4089 19.0721 48.6948C19.0721 48.9808 18.9403 49.251 18.7148 49.4268C18.4893 49.6029 18.1955 49.6651 17.9182 49.5954H8.94072C8.52751 49.4918 8.23781 49.1209 8.23781 48.6948ZM21.743 8.13408H29.0031C29.5158 8.13408 29.9315 7.71838 29.9315 7.2057C29.9315 6.6926 29.5158 6.27731 29.0031 6.27731H21.743C21.2304 6.27731 20.8146 6.6926 20.8146 7.2057C20.8146 7.71838 21.2304 8.13408 21.743 8.13408ZM29.0028 14.2792H21.7427C21.3299 14.176 21.0402 13.8046 21.0402 13.379C21.0402 12.9529 21.3299 12.582 21.7427 12.4784H29.0028C29.416 12.582 29.7057 12.9529 29.7057 13.379C29.7057 13.8046 29.416 14.176 29.0028 14.2792ZM38.9089 29.1715C38.9089 28.9253 38.8111 28.6891 38.637 28.515C38.4629 28.3409 38.2267 28.2431 37.9805 28.2431H8.94072C8.52751 28.3467 8.23781 28.7177 8.23781 29.1437C8.23781 29.5694 8.52751 29.9407 8.94072 30.0443H38.0081C38.4893 30.0307 38.8801 29.6518 38.9087 29.1715H38.9089ZM8.31209 23.8481C8.13802 23.674 8.04021 23.4377 8.04021 23.1916H8.04038C8.06898 22.7116 8.45981 22.3328 8.941 22.3191H37.8874C38.3006 22.4227 38.5899 22.7937 38.5899 23.2197C38.5899 23.6454 38.3006 24.0167 37.8874 24.1199H8.96859C8.7224 24.1199 8.48616 24.0221 8.31209 23.8481ZM32.9288 35.5768C32.9288 35.3306 32.831 35.0943 32.6569 34.9203C32.4829 34.7462 32.2466 34.6484 32.0004 34.6484H8.93944C8.52623 34.752 8.23653 35.1229 8.23653 35.549C8.23653 35.9746 8.52623 36.346 8.93944 36.4496H32.028C32.5088 36.4359 32.8996 36.0571 32.9282 35.5768H32.9288ZM41.2253 37.6375C41.883 36.6452 42.7207 36.0888 44.014 36.0888C45.3894 36.0888 46.8575 37.2161 46.8575 38.7022C46.8575 39.9294 46.0724 40.4052 45.4787 40.7649C45.1178 40.9836 44.8277 41.1594 44.8277 41.4351V41.5333C44.8277 41.7588 44.6536 41.9416 44.4388 41.9416H43.2645C43.0497 41.9416 42.8756 41.7588 42.8756 41.5333V41.3667C42.8756 40.34 43.5993 39.9148 44.1676 39.5808C44.1816 39.5726 44.1954 39.5645 44.2092 39.5564C44.7014 39.2666 45.003 39.0696 45.003 38.6859C45.003 38.1783 44.3865 37.8415 43.888 37.8415C43.254 37.8415 42.9529 38.1489 42.547 38.6828C42.4154 38.8559 42.1763 38.8872 42.0082 38.7534L41.3092 38.1968C41.1427 38.0643 41.106 37.8175 41.2253 37.6375ZM42.7292 43.6214C42.7292 42.9715 43.2327 42.4428 43.8517 42.4428C44.4706 42.4428 44.9741 42.9715 44.9741 43.6214C44.9741 44.2712 44.4706 44.7999 43.8517 44.7999C43.2327 44.7999 42.7292 44.2712 42.7292 43.6214Z"/>
</svg>
