<svg viewBox="0 0 56 56" xmlns="http://www.w3.org/2000/svg">
<path fill-rule="evenodd" clip-rule="evenodd" d="M48.1211 17.4973H11.3768C9.93327 17.4973 8.7522 16.3162 8.7522 14.8727V2.62459C8.7522 1.18107 9.93327 0 11.3768 0H48.1211C49.5646 0 50.7456 1.18107 50.7456 2.62459V5.24918H55.12C55.4699 5.24918 55.7936 5.45915 55.9248 5.79159C56.0648 6.11529 55.9861 6.49149 55.7324 6.7452L50.7369 11.7407V14.8814C50.7369 16.3249 49.5558 17.506 48.1123 17.506L48.1211 17.4973ZM11.3768 1.74973C10.8956 1.74973 10.5019 2.14341 10.5019 2.62459V14.8727C10.5019 15.3539 10.8956 15.7475 11.3768 15.7475H48.1211C48.6022 15.7475 48.9959 15.3539 48.9959 14.8727V11.3732C48.9959 11.137 49.0921 10.9183 49.2496 10.7521L53.0028 6.99891H49.862C49.3809 6.99891 48.9872 6.60522 48.9872 6.12404V2.62459C48.9872 2.14341 48.5935 1.74973 48.1123 1.74973H11.3768ZM11.3768 55.9912H48.1211L48.1123 56C49.5558 56 50.7369 54.8189 50.7369 53.3754V50.2346L55.7324 45.2392C55.9861 44.9855 56.0648 44.6093 55.9248 44.2856C55.7936 43.9531 55.4699 43.7432 55.12 43.7432H50.7456V41.1186C50.7456 39.675 49.5646 38.494 48.1211 38.494H11.3768C9.93327 38.494 8.7522 39.675 8.7522 41.1186V53.3667C8.7522 54.8102 9.93327 55.9912 11.3768 55.9912ZM10.5019 41.1186C10.5019 40.6374 10.8956 40.2437 11.3768 40.2437H48.1123C48.5935 40.2437 48.9872 40.6374 48.9872 41.1186V44.618C48.9872 45.0992 49.3809 45.4929 49.862 45.4929H53.0028L49.2496 49.246C49.0921 49.4123 48.9959 49.631 48.9959 49.8672V53.3667C48.9959 53.8478 48.6022 54.2415 48.1211 54.2415H11.3768C10.8956 54.2415 10.5019 53.8478 10.5019 53.3667V41.1186ZM28.874 46.3678H30.6238V48.1175H28.874V46.3678ZM34.1232 46.3678H32.3735V48.1175H34.1232V46.3678ZM25.3746 46.3678H27.1243V48.1175H25.3746V46.3678ZM14.0014 6.12403H22.75V7.87376H14.0014V6.12403ZM40.2473 6.12403H24.4997V7.87376H40.2473V6.12403ZM14.0014 9.6235H31.4986V11.3732H14.0014V9.6235ZM44.6128 36.7443H7.87734C6.43381 36.7443 5.25275 35.5632 5.25275 34.1197V30.9789L0.257278 25.9922C0.00356788 25.7385 -0.0664212 25.3623 0.0648083 25.0386C0.196038 24.7149 0.519737 24.4962 0.869682 24.4962H5.244V21.8716C5.244 20.4281 6.42506 19.247 7.86859 19.247H44.6128C46.0564 19.247 47.2374 20.4281 47.2374 21.8716V34.1197C47.2374 35.5632 46.0564 36.7443 44.6128 36.7443ZM2.98685 26.2459L6.74002 29.9991C6.90624 30.1653 6.99373 30.384 6.99373 30.6202V34.1197C6.99373 34.6008 7.38741 34.9945 7.86859 34.9945H44.6128C45.094 34.9945 45.4877 34.6008 45.4877 34.1197V21.8716C45.4877 21.3904 45.094 20.9967 44.6128 20.9967H7.87734C7.39616 20.9967 7.00247 21.3904 7.00247 21.8716V25.371C7.00247 25.8522 6.60879 26.2459 6.12761 26.2459H2.98685ZM10.502 25.371H28.8741V27.1208H10.502V25.371ZM20.1255 28.8705H10.502V30.6202H20.1255V28.8705ZM21.8751 28.8705H37.6227V30.6202H21.8751V28.8705Z"/>
</svg>
