<svg viewBox="0 0 56 56" xmlns="http://www.w3.org/2000/svg">
<path fill-rule="evenodd" clip-rule="evenodd" d="M16.4842 2.40444C16.4842 1.0765 17.549 0 18.8623 0H36.5062C37.8196 0 38.8843 1.0765 38.8843 2.40444V5.50693C38.8843 6.83487 37.8196 7.91137 36.5062 7.91137H18.8623C17.549 7.91137 16.4842 6.83487 16.4842 5.50693V2.40444ZM18.8623 1.70637C18.481 1.70637 18.1719 2.01891 18.1719 2.40444V5.50693C18.1719 5.89246 18.481 6.205 18.8623 6.205H36.5062C36.8875 6.205 37.1966 5.89246 37.1966 5.50693V2.40444C37.1966 2.01891 36.8875 1.70637 36.5062 1.70637H18.8623ZM15.0268 15.1896C15.0268 15.8251 14.5116 16.3403 13.8761 16.3403C13.2406 16.3403 12.7254 15.8251 12.7254 15.1896C12.7254 14.5541 13.2406 14.0389 13.8761 14.0389C14.5116 14.0389 15.0268 14.5541 15.0268 15.1896ZM18.0953 15.1896C18.0953 14.7024 18.4903 14.3075 18.9775 14.3075H40.9939C41.4812 14.3075 41.8761 14.7024 41.8761 15.1896C41.8761 15.6769 41.4812 16.0718 40.9939 16.0718H18.9775C18.4903 16.0718 18.0953 15.6769 18.0953 15.1896ZM15.0268 21.3266C15.0268 21.9621 14.5116 22.4773 13.8761 22.4773C13.2406 22.4773 12.7254 21.9621 12.7254 21.3266C12.7254 20.6911 13.2406 20.1759 13.8761 20.1759C14.5116 20.1759 15.0268 20.6911 15.0268 21.3266ZM18.0953 21.3266C18.0953 20.8394 18.4903 20.4444 18.9775 20.4444H40.9939C41.4812 20.4444 41.8761 20.8394 41.8761 21.3266C41.8761 21.8139 41.4812 22.2088 40.9939 22.2088H18.9775C18.4903 22.2088 18.0953 21.8139 18.0953 21.3266ZM13.8761 28.6142C14.5116 28.6142 15.0268 28.0991 15.0268 27.4636C15.0268 26.8281 14.5116 26.3129 13.8761 26.3129C13.2406 26.3129 12.7254 26.8281 12.7254 27.4636C12.7254 28.0991 13.2406 28.6142 13.8761 28.6142ZM18.9775 26.5814C18.4903 26.5814 18.0953 26.9764 18.0953 27.4636C18.0953 27.9509 18.4903 28.3458 18.9775 28.3458H40.9939C41.4812 28.3458 41.8761 27.9509 41.8761 27.4636C41.8761 26.9764 41.4812 26.5814 40.9939 26.5814H18.9775ZM15.0268 33.6006C15.0268 34.2361 14.5116 34.7512 13.8761 34.7512C13.2406 34.7512 12.7254 34.2361 12.7254 33.6006C12.7254 32.965 13.2406 32.4499 13.8761 32.4499C14.5116 32.4499 15.0268 32.965 15.0268 33.6006ZM18.0953 33.6006C18.0953 33.1134 18.4903 32.7184 18.9775 32.7184H40.9939C41.4812 32.7184 41.8761 33.1134 41.8761 33.6006C41.8761 34.0879 41.4812 34.4828 40.9939 34.4828H18.9775C18.4903 34.4828 18.0953 34.0879 18.0953 33.6006ZM13.8761 40.8882C14.5116 40.8882 15.0268 40.3731 15.0268 39.7376C15.0268 39.102 14.5116 38.5869 13.8761 38.5869C13.2406 38.5869 12.7254 39.102 12.7254 39.7376C12.7254 40.3731 13.2406 40.8882 13.8761 40.8882ZM18.9775 38.8554C18.4903 38.8554 18.0953 39.2504 18.0953 39.7376C18.0953 40.2248 18.4903 40.6198 18.9775 40.6198H40.9939C41.4812 40.6198 41.8761 40.2248 41.8761 39.7376C41.8761 39.2504 41.4812 38.8554 40.9939 38.8554H18.9775ZM15.0268 45.8745C15.0268 46.5101 14.5116 47.0252 13.8761 47.0252C13.2406 47.0252 12.7254 46.5101 12.7254 45.8745C12.7254 45.239 13.2406 44.7239 13.8761 44.7239C14.5116 44.7239 15.0268 45.239 15.0268 45.8745ZM18.0953 45.8746C18.0953 45.3874 18.4903 44.9924 18.9775 44.9924H40.9939C41.4812 44.9924 41.8761 45.3874 41.8761 45.8746C41.8761 46.3618 41.4812 46.7568 40.9939 46.7568H18.9775C18.4903 46.7568 18.0953 46.3618 18.0953 45.8746ZM8.88971 3.10241H15.0268V4.80878H8.88971C8.50841 4.80878 8.1993 5.12131 8.1993 5.50684V53.5956C8.1993 53.9811 8.50841 54.2936 8.88971 54.2936H46.4788C46.8601 54.2936 47.1692 53.9811 47.1692 53.5956V5.50684C47.1692 5.12131 46.8601 4.80878 46.4788 4.80878H40.3419V3.10241H46.4788C47.7922 3.10241 48.8569 4.17891 48.8569 5.50684V53.5956C48.8569 54.9235 47.7922 56 46.4788 56H8.88971C7.57633 56 6.51163 54.9235 6.51163 53.5956V5.50684C6.51163 4.17891 7.57633 3.10241 8.88971 3.10241Z"/>
</svg>
