<svg viewBox="0 0 56 56" xmlns="http://www.w3.org/2000/svg">
<path fill-rule="evenodd" clip-rule="evenodd" d="M28 6.4C16.0706 6.4 6.39998 16.0706 6.39998 28C6.39998 39.9293 16.0706 49.6 28 49.6C39.9293 49.6 49.6 39.9293 49.6 28C49.6 16.0706 39.9293 6.4 28 6.4ZM3.59998 28C3.59998 14.5243 14.5242 3.6 28 3.6C41.4757 3.6 52.4 14.5243 52.4 28C52.4 41.4757 41.4757 52.4 28 52.4C14.5242 52.4 3.59998 41.4757 3.59998 28ZM20.11 20.11C20.6568 19.5633 21.5432 19.5633 22.0899 20.11L28 26.0201L33.91 20.11C34.4568 19.5633 35.3432 19.5633 35.8899 20.11C36.4367 20.6568 36.4367 21.5432 35.8899 22.0899L29.9799 28L35.8899 33.91C36.4367 34.4568 36.4367 35.3432 35.8899 35.8899C35.3432 36.4367 34.4568 36.4367 33.91 35.8899L28 29.9799L22.0899 35.8899C21.5432 36.4367 20.6568 36.4367 20.11 35.8899C19.5633 35.3432 19.5633 34.4568 20.11 33.91L26.0201 28L20.11 22.0899C19.5633 21.5432 19.5633 20.6568 20.11 20.11Z"/>
</svg>
