<svg viewBox="0 0 56 56" xmlns="http://www.w3.org/2000/svg">
<path fill-rule="evenodd" clip-rule="evenodd" d="M17.426 0C16.1961 0 15.1991 1.00807 15.1991 2.25158V5.15685C15.1991 6.40036 16.1961 7.40843 17.426 7.40843H33.9482C35.1781 7.40843 36.1751 6.40036 36.1751 5.15685V2.25158C36.1751 1.00807 35.1781 0 33.9482 0H17.426ZM16.7795 2.25158C16.7795 1.89056 17.069 1.5979 17.426 1.5979H33.9482C34.3053 1.5979 34.5947 1.89056 34.5947 2.25158V5.15685C34.5947 5.51787 34.3053 5.81053 33.9482 5.81053H17.426C17.069 5.81053 16.7795 5.51787 16.7795 5.15685V2.25158ZM12.7568 15.3015C13.3519 15.3015 13.8343 14.819 13.8343 14.2239C13.8343 13.6288 13.3519 13.1464 12.7568 13.1464C12.1617 13.1464 11.6792 13.6288 11.6792 14.2239C11.6792 14.819 12.1617 15.3015 12.7568 15.3015ZM17.5338 13.3979C17.0776 13.3979 16.7077 13.7678 16.7077 14.224C16.7077 14.6803 17.0776 15.0501 17.5338 15.0501H38.1507C38.6069 15.0501 38.9768 14.6803 38.9768 14.224C38.9768 13.7678 38.6069 13.3979 38.1507 13.3979H17.5338ZM12.7568 21.0483C13.3519 21.0483 13.8343 20.5659 13.8343 19.9708C13.8343 19.3757 13.3519 18.8933 12.7568 18.8933C12.1617 18.8933 11.6792 19.3757 11.6792 19.9708C11.6792 20.5659 12.1617 21.0483 12.7568 21.0483ZM17.5338 19.1448C17.0776 19.1448 16.7077 19.5146 16.7077 19.9709C16.7077 20.4271 17.0776 20.797 17.5338 20.797H38.1507C38.6069 20.797 38.9768 20.4271 38.9768 19.9709C38.9768 19.5146 38.6069 19.1448 38.1507 19.1448H17.5338ZM13.8343 25.7177C13.8343 26.3128 13.3519 26.7952 12.7568 26.7952C12.1617 26.7952 11.6792 26.3128 11.6792 25.7177C11.6792 25.1225 12.1617 24.6401 12.7568 24.6401C13.3519 24.6401 13.8343 25.1225 13.8343 25.7177ZM16.7077 25.7177C16.7077 25.2615 17.0776 24.8916 17.5338 24.8916H38.1507C38.6069 24.8916 38.9768 25.2615 38.9768 25.7177C38.9768 26.174 38.6069 26.5438 38.1507 26.5438H17.5338C17.0776 26.5438 16.7077 26.174 16.7077 25.7177ZM12.7568 32.542C13.3519 32.542 13.8343 32.0596 13.8343 31.4645C13.8343 30.8694 13.3519 30.387 12.7568 30.387C12.1617 30.387 11.6792 30.8694 11.6792 31.4645C11.6792 32.0596 12.1617 32.542 12.7568 32.542ZM17.5338 30.6385C17.0776 30.6385 16.7077 31.0083 16.7077 31.4646C16.7077 31.9208 17.0776 32.2907 17.5338 32.2907H38.1507C38.6069 32.2907 38.9768 31.9208 38.9768 31.4646C38.9768 31.0083 38.6069 30.6385 38.1507 30.6385H17.5338ZM13.8343 37.2114C13.8343 37.8065 13.3519 38.2889 12.7568 38.2889C12.1617 38.2889 11.6792 37.8065 11.6792 37.2114C11.6792 36.6163 12.1617 36.1338 12.7568 36.1338C13.3519 36.1338 13.8343 36.6163 13.8343 37.2114ZM16.7077 37.2114C16.7077 36.7552 17.0776 36.3853 17.5338 36.3853H38.1507C38.6069 36.3853 38.9768 36.7552 38.9768 37.2114C38.9768 37.6677 38.6069 38.0375 38.1507 38.0375H17.5338C17.0776 38.0375 16.7077 37.6677 16.7077 37.2114ZM12.7568 44.0358C13.3519 44.0358 13.8343 43.5533 13.8343 42.9582C13.8343 42.3631 13.3519 41.8807 12.7568 41.8807C12.1617 41.8807 11.6792 42.3631 11.6792 42.9582C11.6792 43.5533 12.1617 44.0358 12.7568 44.0358ZM17.5338 42.1322C17.0776 42.1322 16.7077 42.502 16.7077 42.9583C16.7077 43.4145 17.0776 43.7844 17.5338 43.7844H38.1507C38.6069 43.7844 38.9768 43.4145 38.9768 42.9583C38.9768 42.502 38.6069 42.1322 38.1507 42.1322H17.5338ZM13.8343 2.90518H8.08738C6.85749 2.90518 5.86047 3.91325 5.86047 5.15676V50.1884C5.86047 51.4319 6.85749 52.44 8.08738 52.44H9.45226V53.7484C9.45226 54.9919 10.4493 56 11.6792 56H46.8787C48.1085 56 49.1056 54.9919 49.1056 53.7484V8.71679C49.1056 7.47328 48.1085 6.46521 46.8787 6.46521H45.5138V5.15676C45.5138 3.91325 44.5168 2.90518 43.2869 2.90518H37.5401V4.50308H43.2869C43.6439 4.50308 43.9334 4.79574 43.9334 5.15676V6.46521V8.06311V50.1884C43.9334 50.5494 43.6439 50.8421 43.2869 50.8421H8.08738C7.73032 50.8421 7.44086 50.5494 7.44086 50.1884V5.15676C7.44086 4.79574 7.73032 4.50308 8.08738 4.50308H13.8343V2.90518ZM45.5138 8.06311V50.1884C45.5138 51.4319 44.5168 52.44 43.2869 52.44H11.0326V53.7484C11.0326 54.1094 11.3221 54.4021 11.6792 54.4021H46.8787C47.2357 54.4021 47.5252 54.1094 47.5252 53.7484V8.71679C47.5252 8.35577 47.2357 8.06311 46.8787 8.06311H45.5138Z"/>
</svg>
