<svg viewBox="0 0 56 56" xmlns="http://www.w3.org/2000/svg">
<path fill-rule="evenodd" clip-rule="evenodd" d="M43.7 21V14.8C43.7 6.7 37.1 0 28.9 0H27.2C19 0 12.3 6.7 12.4 14.9V21H10.6C8.6 21 7 22.6 7 24.5V52.5C7 54.4 8.6 56 10.5 56H45.5C47.4 56 49 54.4 49 52.5V24.5C49 22.6 47.4 21 45.5 21H43.7ZM14 21H42V14.8C42 7.6 36.1 1.7 28.9 1.7H27.2C19.9 1.7 14 7.6 14 14.9V21ZM38.5 19.2H36.8V14.8C36.8 10.5 33.3 6.9 28.9 6.9H27.2C22.9 6.9 19.3 10.4 19.3 14.8V19.2H17.6V14.8C17.6 9.5 21.9 5.2 27.2 5.2H28.9C34.2 5.2 38.5 9.5 38.5 14.8V19.2ZM20.6 37.6L28 45L39.7 33.3L35.8 29.4L28 37.3L24.5 33.8L20.6 37.6ZM28 42.5L23.1 37.6L24.5 36.2L28 39.7L35.9 31.9L37.3 33.3L28 42.5ZM28 50.8C21.2 50.8 15.7 45.3 15.7 38.5C15.7 31.7 21.2 26.2 28 26.2C29.6 26.2 31.2 26.5 32.7 27.1L32 28.7C30.7 28.3 29.4 28 28 28C22.2 28 17.5 32.7 17.5 38.5C17.5 44.3 22.3 48.9 28 48.9C33.8 48.9 38.5 44.2 38.5 38.4H40.2C40.3 45.3 34.8 50.8 28 50.8ZM9 23.6C9.3 23.1 9.8 22.8 10.5 22.8H45.5C46.1 22.8 46.6 23.1 47 23.6L43.8 26.8V50.3L47 53.5C46.7 54 46.2 54.2 45.6 54.2H10.6C10 54.2 9.5 53.9 9.1 53.4L12.3 50.3V26.8L9 23.6ZM45.5 27.5L47.2 25.8V28.9H45.5V27.5ZM45.5 30.6H47.2V32.3H45.5V30.6ZM45.5 34.1H47.2V35.9H45.5V34.1ZM45.5 37.6H47.2V39.4H45.5V37.6ZM45.5 41.1H47.2V42.9H45.5V41.1ZM45.5 44.6H47.2V46.4H45.5V44.6ZM45.5 48.1H47.2V51.2L45.5 49.5V48.1ZM8.8 48.1V51.2L10.5 49.5V48.1H8.8ZM8.8 46.4H10.5V44.6H8.8V46.4ZM8.8 42.9H10.5V41.1H8.8V42.9ZM8.8 39.4H10.5V37.6H8.8V39.4ZM8.8 35.9H10.5V34.1H8.8V35.9ZM8.8 32.3H10.5V30.6H8.8V32.3ZM8.8 28.9H10.5V27.5L8.8 25.8V28.9Z"/>
</svg>
