<svg viewBox="0 0 56 56" xmlns="http://www.w3.org/2000/svg">
<path fill-rule="evenodd" clip-rule="evenodd" d="M10.352 5.59995H16.8853V9.33329C16.8853 9.8487 16.4674 10.2666 15.952 10.2666C15.4366 10.2666 15.0186 9.8487 15.0186 9.33329V7.46662H13.152V9.33329C13.152 10.3337 13.6857 11.2579 14.552 11.7583C15.4182 12.2583 16.4857 12.2583 17.352 11.7583C18.2182 11.2578 18.752 10.3337 18.752 9.33329V5.59995H36.4853V30.8H38.352V8.39995H40.2187V28.9333H42.0853V7.46662C42.0853 7.21912 41.987 6.98162 41.812 6.80662C41.637 6.63162 41.3995 6.53329 41.152 6.53329H38.352V4.66662C38.352 4.41912 38.2537 4.18161 38.0787 4.00662C37.9037 3.83162 37.6662 3.73328 37.4187 3.73328H18.752C18.752 2.39952 18.0403 1.16699 16.8853 0.5C15.7303 -0.166667 14.3069 -0.166667 13.152 0.5C11.997 1.16708 11.2853 2.39963 11.2853 3.73328H9.41862C8.90321 3.73328 8.48529 4.1512 8.48529 4.66662V28.9333H10.352V5.59995ZM15.0186 1.86662C15.5136 1.86703 15.9878 2.06412 16.3378 2.41411C16.6878 2.76411 16.8849 3.23829 16.8853 3.73326H13.1519C13.1524 3.23826 13.3494 2.7641 13.6994 2.41411C14.0494 2.06413 14.5237 1.86703 15.0186 1.86662ZM51.4187 15.8666H43.952V17.7333H48.1874C47.8583 18.3004 47.6849 18.9442 47.6853 19.6V26.532L31.8272 35.8358L25.8897 30.7883C25.541 30.4921 25.0293 30.4921 24.6805 30.7883L18.743 35.8354L2.88488 26.532V19.6C2.8853 19.105 3.08238 18.6308 3.43238 18.2808C3.78237 17.9308 4.25655 17.7337 4.75153 17.7333H6.61819V15.8666H4.75153C3.76153 15.8679 2.81275 16.2616 2.1128 16.9613C1.41322 17.6613 1.01947 18.61 1.01819 19.6V51.3334H1.02027C1.01861 51.5813 1.11569 51.8192 1.29069 51.9946C1.46569 52.17 1.70361 52.2679 1.95153 52.2667H48.6182C48.8662 52.2679 49.1041 52.17 49.2791 51.9946C49.4541 51.8192 49.5512 51.5813 49.5495 51.3334H49.5516V19.6C49.5516 18.9329 49.9074 18.3167 50.4849 17.9833C51.0624 17.65 51.7741 17.65 52.3516 17.9833C52.9291 18.3167 53.2849 18.9329 53.2849 19.6V23.3333H50.4849V25.2H54.2182C54.4657 25.2 54.7032 25.1017 54.8782 24.9267C55.0532 24.7517 55.1516 24.5142 55.1516 24.2667V19.6C55.1503 18.61 54.7566 17.6612 54.057 16.9613C53.357 16.2617 52.4082 15.8679 51.4182 15.8666L51.4187 15.8666ZM47.6853 28.6965V49.3152L33.3333 37.1168L47.6853 28.6965ZM17.2373 37.1166L2.88531 49.315V28.6963L17.2373 37.1166ZM4.49171 50.4008L25.2864 32.7262L46.0811 50.4008H4.49171ZM38.352 54.1333H11.2853V56H38.352V54.1333ZM40.2187 54.1333H42.0854V56H40.2187V54.1333ZM16.8853 14.9333H15.0186V16.8H16.8853V14.9333ZM18.752 14.9333H33.6853V16.8H18.752V14.9333ZM33.6853 18.6666H13.152V20.5333H33.6853V18.6666ZM13.152 22.4H33.6853V24.2666H13.152V22.4ZM30.8853 26.1333H13.152V28H30.8853V26.1333ZM31.8187 8.39996H33.6853V10.2666H31.8187V8.39996ZM29.952 8.39996H28.0853V10.2666H29.952V8.39996Z"/>
</svg>
