<svg viewBox="0 0 56 56" xmlns="http://www.w3.org/2000/svg">
<path fill-rule="evenodd" clip-rule="evenodd" d="M35.8568 11.0976H53.3568V19.0005V30.4159H51.6068V23.6345C50.3215 25.0982 48.4418 26.0254 46.3568 26.0254H9.60682C7.5218 26.0254 5.64208 25.0982 4.35682 23.6345V30.4159H2.60682V19.0005V11.0976H20.1068V4.95083C20.1068 4.42397 20.4568 4.07273 20.9818 4.07273H34.9818C35.5068 4.07273 35.8568 4.42397 35.8568 4.95083V11.0976ZM34.1068 7.58515V5.82894H21.8568V7.58515H34.1068ZM34.1068 9.34136H21.8568V11.0976H34.1068V9.34136ZM51.6068 12.8538V19.0005C51.6068 21.8983 49.2443 24.2692 46.3568 24.2692H9.60682C6.71932 24.2692 4.35682 21.8983 4.35682 19.0005V12.8538H51.6068ZM2.60682 49.7343H53.3568V40.9532H51.6068V47.9781H4.35682V40.9532H2.60682V49.7343ZM28.8568 19.0005H27.1068V20.7567H28.8568V19.0005ZM30.6068 19.0005H32.3568V20.7567H30.6068V19.0005ZM25.3568 19.0005H23.6068V20.7567H25.3568V19.0005ZM49.8568 39.197H50.7318H55.9818V32.1721H50.7318H49.8568H10.4848H10.4818L5.23182 32.1721C5.05682 32.1721 4.88182 32.1721 4.79432 32.2599L0.419319 34.8943C0.156819 35.0699 -0.0181808 35.3333 -0.0181808 35.6846C-0.0181808 36.0358 0.156819 36.2992 0.419319 36.4749L4.79432 39.1092C4.88182 39.197 5.05682 39.197 5.23182 39.197L10.4818 39.197H44.6068V40.9532H33.2318V42.7094H46.3568V39.197H49.8568ZM11.3568 37.4408H23.6068V33.9284H11.3568V37.4408ZM49.8568 37.4408H25.3568V33.9284H49.8568V37.4408ZM51.6068 37.4408H54.2318V33.9284H51.6068V37.4408ZM9.60682 37.4408H5.49432L2.60682 35.6846L5.49432 33.9284H9.60682V37.4408Z"/>
</svg>
