<svg viewBox="0 0 56 56" xmlns="http://www.w3.org/2000/svg">
<path fill-rule="evenodd" clip-rule="evenodd" d="M55.1938 54.1046H1.01819V3.05455H55.1938V54.1046ZM2.68673 52.375H53.4731V11.5454H2.68673V52.375ZM2.68673 9.86821H14.5751V4.73176H2.68673V9.86821ZM53.4731 9.86821H16.2436V4.73176H53.4731V9.86821ZM4.40741 6.46138H6.07595V8.13859H4.40741V6.46138ZM9.46518 6.46138H7.79663V8.13859H9.46518V6.46138ZM11.1859 6.46138H12.8544V8.13859H11.1859V6.46138ZM17.9644 6.46138H51.8045V8.13859H17.9644V6.46138ZM28.9663 38.8001H27.2978C25.4207 38.8001 23.9086 37.2801 23.9086 35.3932V28.5796C23.9086 26.6927 25.4207 25.1727 27.2978 25.1727H28.9663C30.8435 25.1727 32.3556 26.6927 32.3556 28.5796V35.3932C32.3556 37.2801 30.7913 38.8001 28.9663 38.8001ZM27.2457 26.8499C26.3071 26.8499 25.5771 27.6361 25.5771 28.5272V35.3408C25.5771 36.2842 26.3592 37.018 27.2457 37.018H28.9142C29.8528 37.018 30.5827 36.2318 30.5827 35.3408V28.5272C30.5827 27.5837 29.8006 26.8499 28.9142 26.8499H27.2457ZM20.4672 25.1727H22.1357V38.8001H20.4672V33.6636H15.8787L14.5751 32.3533V25.1727H16.2436V31.6195L16.6086 31.9864H20.4672V25.1727ZM39.9683 25.1727H41.6368V38.8001H39.9683V33.6636H35.3797L34.024 32.3533V25.1727H35.6926V31.6195L36.0576 31.9864H39.9683V25.1727ZM4.40741 50.6978H51.8045V13.275H4.40741V50.6978ZM50.0838 48.9681H6.07595V14.9522H50.0838V48.9681ZM11.1338 31.1478H9.46521V32.825H11.1338V31.1478ZM45.0261 31.1478H46.6947V32.825H45.0261V31.1478Z"/>
</svg>