<svg viewBox="0 0 56 56" xmlns="http://www.w3.org/2000/svg">
<path fill-rule="evenodd" clip-rule="evenodd" d="M55.4407 54.8632H50.9427V48.9488C53.3982 48.6626 55.3187 46.5617 55.3187 43.9914V40.3199C55.3187 37.5543 53.105 35.3047 50.3834 35.3047C49.7871 35.3047 49.2224 35.4286 48.6921 35.6275V18.2157C48.6921 17.9021 48.4414 17.6473 48.1328 17.6473H42.24V12.8655C42.24 12.6427 42.1112 12.4402 41.911 12.3484L15.2113 0.0511039C15.04 -0.0285672 14.8388 -0.0148656 14.678 0.0906862C14.5167 0.195223 14.4218 0.374864 14.4218 0.568209V20.2989H8.41823C8.10961 20.2989 7.85893 20.5537 7.85893 20.8673V21.1284C7.8586 21.1364 7.85843 21.1445 7.85843 21.1526V32.7782C7.26766 32.5224 6.61797 32.3813 5.93531 32.3813C3.2137 32.3813 1 34.6309 1 37.3976V41.068C1 43.6393 2.92056 45.7387 5.37601 46.0254V54.8633H2.33926C2.03064 54.8633 1.77996 55.118 1.77996 55.4316C1.77996 55.7453 2.03064 56 2.33926 56H55.4407C55.7493 56 56 55.7453 56 55.4316C56 55.118 55.7493 54.8643 55.4407 54.8643L55.4407 54.8632ZM8.97704 33.4758V24.1661C8.97737 24.1581 8.97754 24.15 8.97754 24.1419V21.4356H14.4218V54.8639H8.97754V44.9881C10.1231 44.0686 10.8737 42.6625 10.8737 41.0675L10.8732 37.3975C10.8732 35.8026 10.1226 34.3954 8.97704 33.4758ZM49.8241 48.9493V54.8637H48.692V48.6844C49.0511 48.8184 49.4306 48.9036 49.8241 48.9493ZM54.2001 40.3194V43.9909C54.2001 46.1304 52.4887 47.8694 50.3834 47.8694C48.2781 47.8694 46.5667 46.1303 46.5667 43.9909V40.3194C46.5667 38.1799 48.2781 36.4409 50.3834 36.4409C52.4887 36.4409 54.2001 38.18 54.2001 40.3194ZM2.11885 41.0674V37.3969C2.11885 35.2574 3.83027 33.5174 5.93556 33.5174C8.042 33.5174 9.7543 35.2576 9.7543 37.3969V41.0674C9.7543 43.2069 8.04187 44.9459 5.93556 44.9459C3.83014 44.9453 2.11885 43.2062 2.11885 41.0674ZM6.49486 46.0253C6.97127 45.9694 7.43319 45.8695 7.85867 45.6863V54.8632H6.49486V46.0253ZM34.3706 48.1105V54.8637H28.8895V48.1105H34.3706ZM20.404 46.9737V45.8873H36.6948V46.9737H20.404ZM27.7714 48.1105V54.8637H22.2153V48.1105H27.7714ZM35.4898 54.8632V48.1099H37.2551C37.5638 48.1099 37.8144 47.8552 37.8144 47.5416V45.3184C37.8144 45.0048 37.5638 44.7501 37.2551 44.7501H19.8444C19.5358 44.7501 19.2851 45.0048 19.2851 45.3184V47.5416C19.2851 47.8552 19.5358 48.1099 19.8444 48.1099H21.0964V54.8632H15.5403L15.5398 1.44957L41.1221 13.2317V35.1045C41.1221 35.4181 41.3728 35.6729 41.6814 35.6729C41.99 35.6729 42.2407 35.4181 42.2407 35.1045V18.7827H47.5741V36.2036C46.2922 37.1109 45.4487 38.6135 45.4487 40.3176V43.9891C45.4487 45.6931 46.2932 47.1958 47.5741 48.1031V54.861H42.2407V38.4209C42.2407 38.1072 41.99 37.8525 41.6814 37.8525C41.3728 37.8525 41.1221 38.1072 41.1221 38.4209V54.8623L35.4898 54.8632ZM19.8445 15.3044C19.5359 15.3044 19.2852 15.5591 19.2852 15.8727V20.5561C19.2852 20.8697 19.5359 21.1245 19.8445 21.1245H25.1371C25.4457 21.1245 25.6964 20.8697 25.6964 20.5561V15.8727C25.6964 15.5591 25.4457 15.3044 25.1371 15.3044H19.8445ZM24.5764 19.9877H20.4024V16.4411H24.5764V19.9877ZM26.9186 15.8727C26.9186 15.5591 27.1693 15.3044 27.4779 15.3044H37.2548C37.5634 15.3044 37.8141 15.5591 37.8141 15.8727V20.5561C37.8141 20.8697 37.5634 21.1245 37.2548 21.1245H27.4779C27.1693 21.1245 26.9186 20.8697 26.9186 20.5561V15.8727ZM28.0367 19.9877H36.695V16.4411H28.0367V19.9877ZM25.1356 32.1888C25.4442 32.1888 25.6949 31.934 25.6949 31.6204V26.937C25.6949 26.6234 25.4442 26.3687 25.1356 26.3687H19.843C19.5344 26.3687 19.2837 26.6234 19.2837 26.937V31.6204C19.2837 31.934 19.5344 32.1888 19.843 32.1888H25.1356ZM20.4037 27.5054H24.5777V31.0521H20.4037V27.5054ZM37.8146 31.6204C37.8146 31.934 37.5639 32.1888 37.2553 32.1888H27.4784C27.1698 32.1888 26.9191 31.934 26.9191 31.6204V26.937C26.9191 26.6234 27.1698 26.3687 27.4784 26.3687H37.2553C37.5639 26.3687 37.8146 26.6234 37.8146 26.937V31.6204ZM36.6965 27.5054H28.0382V31.0521H36.6965V27.5054ZM25.3312 36.4563H20.0366C19.728 36.4563 19.4773 36.7111 19.4773 37.0247V41.7081C19.4773 42.0217 19.728 42.2764 20.0366 42.2764H25.3312C25.6398 42.2764 25.8905 42.0217 25.8905 41.7081V37.0247C25.8905 36.7095 25.6413 36.4563 25.3312 36.4563ZM24.7719 41.1397H20.5959V37.593H24.7719V41.1397ZM27.67 36.4563H37.4469C37.7555 36.4563 38.0062 36.7095 38.0062 37.0247V41.7081C38.0062 42.0217 37.7555 42.2764 37.4469 42.2764H27.67C27.3614 42.2764 27.1107 42.0217 27.1107 41.7081V37.0247C27.1107 36.7111 27.3614 36.4563 27.67 36.4563ZM28.2293 41.1397H36.8876V37.593H28.2293V41.1397Z"/>
<path d="M50.9427 54.8632H50.7927V55.0132H50.9427V54.8632ZM55.4407 54.8632L55.5907 54.8611L55.5886 54.7132H55.4407V54.8632ZM50.9427 48.9488L50.9254 48.7998L50.7927 48.8153V48.9488H50.9427ZM48.6921 35.6275H48.5421V35.844L48.7448 35.7679L48.6921 35.6275ZM42.24 17.6473H42.09V17.7973H42.24V17.6473ZM41.911 12.3484L41.8482 12.4846L41.8484 12.4847L41.911 12.3484ZM15.2113 0.0511039L15.148 0.187112L15.1486 0.187348L15.2113 0.0511039ZM14.678 0.0906862L14.7596 0.216564L14.7603 0.216084L14.678 0.0906862ZM14.4218 20.2989V20.4489H14.5718V20.2989H14.4218ZM7.85893 21.1284L8.00893 21.1346V21.1284H7.85893ZM7.85843 32.7782L7.79883 32.9158L8.00843 33.0066V32.7782H7.85843ZM5.37601 46.0254H5.52601V45.8919L5.3934 45.8764L5.37601 46.0254ZM5.37601 54.8633V55.0133H5.52601V54.8633H5.37601ZM55.4407 54.8643L55.2907 54.8664L55.2928 55.0143H55.4407V54.8643ZM8.97704 24.1661L8.82704 24.1599V24.1661H8.97704ZM8.97704 33.4758H8.82704V33.5477L8.88314 33.5928L8.97704 33.4758ZM8.97754 21.4356V21.2856H8.82754V21.4356H8.97754ZM14.4218 21.4356H14.5718V21.2856H14.4218V21.4356ZM14.4218 54.8639V55.0139H14.5718V54.8639H14.4218ZM8.97754 54.8639H8.82754V55.0139H8.97754V54.8639ZM8.97754 44.9881L8.88364 44.8712L8.82754 44.9162V44.9881H8.97754ZM10.8737 41.0675H11.0237V41.0674L10.8737 41.0675ZM10.8732 37.3975H10.7232V37.3975L10.8732 37.3975ZM49.8241 54.8637V55.0137H49.9741V54.8637H49.8241ZM49.8241 48.9493H49.9741V48.8157L49.8414 48.8003L49.8241 48.9493ZM48.692 54.8637H48.542V55.0137H48.692V54.8637ZM48.692 48.6844L48.7444 48.5439L48.542 48.4684V48.6844H48.692ZM5.93556 44.9459L5.93552 45.0959H5.93556V44.9459ZM7.85867 45.6863H8.00867V45.4584L7.79935 45.5485L7.85867 45.6863ZM6.49486 46.0253L6.47741 45.8763L6.34486 45.8918V46.0253H6.49486ZM7.85867 54.8632V55.0132H8.00867V54.8632H7.85867ZM6.49486 54.8632H6.34486V55.0132H6.49486V54.8632ZM34.3706 54.8637V55.0137H34.5206V54.8637H34.3706ZM34.3706 48.1105H34.5206V47.9604H34.3706V48.1105ZM28.8895 54.8637H28.7395V55.0137H28.8895V54.8637ZM28.8895 48.1105V47.9604H28.7395V48.1105H28.8895ZM20.404 45.8873V45.7373H20.254V45.8873H20.404ZM20.404 46.9737H20.254V47.1237H20.404V46.9737ZM36.6948 45.8873H36.8448V45.7373H36.6948V45.8873ZM36.6948 46.9737V47.1237H36.8448V46.9737H36.6948ZM27.7714 54.8637V55.0137H27.9214V54.8637H27.7714ZM27.7714 48.1105H27.9214V47.9604H27.7714V48.1105ZM22.2153 54.8637H22.0653V55.0137H22.2153V54.8637ZM22.2153 48.1105V47.9604H22.0653V48.1105H22.2153ZM35.4898 48.1099V47.9599H35.3398V48.1099H35.4898ZM35.4898 54.8632H35.3398V55.0132L35.4898 55.0132L35.4898 54.8632ZM21.0964 48.1099H21.2464V47.9599H21.0964V48.1099ZM21.0964 54.8632V55.0132H21.2464V54.8632H21.0964ZM15.5403 54.8632H15.3903L15.3903 55.0132H15.5403V54.8632ZM15.5398 1.44957L15.6025 1.31333L15.3898 1.21534L15.3898 1.44957L15.5398 1.44957ZM41.1221 13.2317H41.2721V13.1357L41.1848 13.0955L41.1221 13.2317ZM42.2407 18.7827V18.6327H42.0907V18.7827H42.2407ZM47.5741 18.7827H47.7241V18.6327H47.5741V18.7827ZM47.5741 36.2036L47.6608 36.326L47.7241 36.2812V36.2036H47.5741ZM47.5741 48.1031H47.7241V48.0255L47.6608 47.9806L47.5741 48.1031ZM47.5741 54.861V55.011H47.7241V54.861H47.5741ZM42.2407 54.861H42.0907V55.011H42.2407V54.861ZM41.1221 54.8623L41.1221 55.0123L41.2721 55.0122V54.8623H41.1221ZM20.4024 19.9877H20.2524V20.1377H20.4024V19.9877ZM24.5764 19.9877V20.1377H24.7264V19.9877H24.5764ZM20.4024 16.4411V16.2911H20.2524V16.4411H20.4024ZM24.5764 16.4411H24.7264V16.2911H24.5764V16.4411ZM36.695 19.9877V20.1377H36.845V19.9877H36.695ZM28.0367 19.9877H27.8867V20.1377H28.0367V19.9877ZM36.695 16.4411H36.845V16.2911H36.695V16.4411ZM28.0367 16.4411V16.2911H27.8867V16.4411H28.0367ZM24.5777 27.5054H24.7277V27.3554H24.5777V27.5054ZM20.4037 27.5054V27.3554H20.2537V27.5054H20.4037ZM24.5777 31.0521V31.2021H24.7277V31.0521H24.5777ZM20.4037 31.0521H20.2537V31.2021H20.4037V31.0521ZM28.0382 27.5054V27.3554H27.8882V27.5054H28.0382ZM36.6965 27.5054H36.8465V27.3554H36.6965V27.5054ZM28.0382 31.0521H27.8882V31.2021H28.0382V31.0521ZM36.6965 31.0521V31.2021H36.8465V31.0521H36.6965ZM20.5959 41.1397H20.4459V41.2897H20.5959V41.1397ZM24.7719 41.1397V41.2897H24.9219V41.1397H24.7719ZM20.5959 37.593V37.443H20.4459V37.593H20.5959ZM24.7719 37.593H24.9219V37.443H24.7719V37.593ZM36.8876 41.1397V41.2897H37.0376V41.1397H36.8876ZM28.2293 41.1397H28.0793V41.2897H28.2293V41.1397ZM36.8876 37.593H37.0376V37.443H36.8876V37.593ZM28.2293 37.593V37.443H28.0793V37.593H28.2293ZM50.9427 55.0132H55.4407V54.7132H50.9427V55.0132ZM50.7927 48.9488V54.8632H51.0927V48.9488H50.7927ZM55.1687 43.9914C55.1687 46.4853 53.3055 48.5224 50.9254 48.7998L50.9601 49.0978C53.4909 48.8028 55.4687 46.6381 55.4687 43.9914H55.1687ZM55.1687 40.3199V43.9914H55.4687V40.3199H55.1687ZM50.3834 35.4547C53.0199 35.4547 55.1687 37.6348 55.1687 40.3199H55.4687C55.4687 37.4737 53.1901 35.1547 50.3834 35.1547V35.4547ZM48.7448 35.7679C49.2614 35.5741 49.8082 35.4547 50.3834 35.4547V35.1547C49.7661 35.1547 49.1833 35.283 48.6394 35.4871L48.7448 35.7679ZM48.5421 18.2157V35.6275H48.8421V18.2157H48.5421ZM48.1328 17.7973C48.3563 17.7973 48.5421 17.9826 48.5421 18.2157H48.8421C48.8421 17.8215 48.5265 17.4973 48.1328 17.4973V17.7973ZM42.24 17.7973H48.1328V17.4973H42.24V17.7973ZM42.09 12.8655V17.6473H42.39V12.8655H42.09ZM41.8484 12.4847C41.9946 12.5518 42.09 12.7005 42.09 12.8655H42.39C42.39 12.5849 42.2278 12.3287 41.9735 12.212L41.8484 12.4847ZM15.1486 0.187348L41.8482 12.4846L41.9737 12.2121L15.2741 -0.0851397L15.1486 0.187348ZM14.7603 0.216084C14.8776 0.139074 15.0238 0.12931 15.148 0.187111L15.2746 -0.0849027C15.0563 -0.186445 14.7999 -0.168805 14.5957 -0.0347112L14.7603 0.216084ZM14.5718 0.568209C14.5718 0.424049 14.6423 0.292558 14.7595 0.216562L14.5964 -0.0351895C14.3911 0.0978889 14.2718 0.325679 14.2718 0.568209H14.5718ZM14.5718 20.2989V0.568209H14.2718V20.2989H14.5718ZM8.41823 20.4489H14.4218V20.1489H8.41823V20.4489ZM8.00893 20.8673C8.00893 20.6342 8.19472 20.4489 8.41823 20.4489V20.1489C8.02451 20.1489 7.70893 20.4731 7.70893 20.8673H8.00893ZM8.00893 21.1284V20.8673H7.70893V21.1284H8.00893ZM8.00843 21.1526C8.00843 21.1465 8.00855 21.1405 8.0088 21.1346L7.70906 21.1222C7.70864 21.1323 7.70843 21.1424 7.70843 21.1526H8.00843ZM8.00843 32.7782V21.1526H7.70843V32.7782H8.00843ZM5.93531 32.5313C6.5971 32.5313 7.22654 32.6681 7.79883 32.9158L7.91802 32.6405C7.30878 32.3768 6.63884 32.2313 5.93531 32.2313V32.5313ZM1.15 37.3976C1.15 34.7114 3.29882 32.5313 5.93531 32.5313V32.2313C3.12858 32.2313 0.85 34.5503 0.85 37.3976H1.15ZM1.15 41.068V37.3976H0.85V41.068H1.15ZM5.3934 45.8764C3.01322 45.5985 1.15 43.5629 1.15 41.068H0.85C0.85 43.7158 2.8279 45.8789 5.35861 46.1744L5.3934 45.8764ZM5.52601 54.8633V46.0254H5.22601V54.8633H5.52601ZM2.33926 55.0133H5.37601V54.7133H2.33926V55.0133ZM1.92996 55.4316C1.92996 55.1986 2.11575 55.0133 2.33926 55.0133V54.7133C1.94554 54.7133 1.62996 55.0375 1.62996 55.4316H1.92996ZM2.33926 55.85C2.11575 55.85 1.92996 55.6647 1.92996 55.4316H1.62996C1.62996 55.8258 1.94554 56.15 2.33926 56.15V55.85ZM55.4407 55.85H2.33926V56.15H55.4407V55.85ZM55.85 55.4316C55.85 55.6647 55.6642 55.85 55.4407 55.85V56.15C55.8344 56.15 56.15 55.8258 56.15 55.4316H55.85ZM55.4407 55.0143C55.6646 55.0143 55.85 55.1989 55.85 55.4316H56.15C56.15 55.0371 55.8341 54.7143 55.4407 54.7143V55.0143ZM55.2907 54.8653L55.2907 54.8664L55.5907 54.8622L55.5907 54.8611L55.2907 54.8653ZM8.82704 24.1661V33.4758H9.12704V24.1661H8.82704ZM8.82754 24.1419C8.82754 24.148 8.82741 24.154 8.82717 24.1599L9.12691 24.1723C9.12733 24.1622 9.12754 24.1521 9.12754 24.1419H8.82754ZM8.82754 21.4356V24.1419H9.12754V21.4356H8.82754ZM14.4218 21.2856H8.97754V21.5856H14.4218V21.2856ZM14.5718 54.8639V21.4356H14.2718V54.8639H14.5718ZM8.97754 55.0139H14.4218V54.7139H8.97754V55.0139ZM8.82754 44.9881V54.8639H9.12754V44.9881H8.82754ZM10.7237 41.0675C10.7237 42.614 9.99619 43.9782 8.88364 44.8712L9.07143 45.1051C10.25 44.1591 11.0237 42.711 11.0237 41.0675H10.7237ZM10.7232 37.3975L10.7237 41.0675L11.0237 41.0674L11.0232 37.3975L10.7232 37.3975ZM8.88314 33.5928C9.99567 34.4859 10.7232 35.8511 10.7232 37.3975H11.0232C11.0232 35.7541 10.2496 34.305 9.07094 33.3588L8.88314 33.5928ZM49.9741 54.8637V48.9493H49.6741V54.8637H49.9741ZM48.692 55.0137H49.8241V54.7137H48.692V55.0137ZM48.542 48.6844V54.8637H48.842V48.6844H48.542ZM49.8414 48.8003C49.4581 48.7558 49.0906 48.673 48.7444 48.5439L48.6396 48.825C49.0115 48.9637 49.4031 49.0514 49.8068 49.0983L49.8414 48.8003ZM54.3501 43.9909V40.3194H54.0501V43.9909H54.3501ZM50.3834 48.0194C52.5738 48.0194 54.3501 46.211 54.3501 43.9909H54.0501C54.0501 46.0498 52.4036 47.7194 50.3834 47.7194V48.0194ZM46.4167 43.9909C46.4167 46.2108 48.193 48.0194 50.3834 48.0194V47.7194C48.3632 47.7194 46.7167 46.0497 46.7167 43.9909H46.4167ZM46.4167 40.3194V43.9909H46.7167V40.3194H46.4167ZM50.3834 36.2909C48.193 36.2909 46.4167 38.0993 46.4167 40.3194H46.7167C46.7167 38.2605 48.3632 36.5909 50.3834 36.5909V36.2909ZM54.3501 40.3194C54.3501 38.0995 52.5738 36.2909 50.3834 36.2909V36.5909C52.4036 36.5909 54.0501 38.2606 54.0501 40.3194H54.3501ZM1.96886 37.3969V41.0674H2.26885V37.3969H1.96886ZM5.93556 33.3674C3.74511 33.3674 1.96886 35.1769 1.96886 37.3969H2.26885C2.26885 35.3379 3.91542 33.6674 5.93556 33.6674V33.3674ZM9.9043 37.3969C9.9043 35.177 8.12708 33.3674 5.93556 33.3674V33.6674C7.95691 33.6674 9.6043 35.3381 9.6043 37.3969H9.9043ZM9.9043 41.0674V37.3969H9.6043V41.0674H9.9043ZM5.93556 45.0959C8.12689 45.0959 9.9043 43.2875 9.9043 41.0674H9.6043C9.6043 43.1262 7.95685 44.7958 5.93556 44.7958V45.0959ZM1.96886 41.0674C1.96886 43.2868 3.74504 45.0953 5.93552 45.0959L5.93559 44.7958C3.91523 44.7954 2.26885 43.1256 2.26885 41.0674H1.96886ZM7.79935 45.5485C7.39155 45.7241 6.945 45.8215 6.47741 45.8763L6.51232 46.1742C6.99755 46.1174 7.47483 46.0149 7.91799 45.8241L7.79935 45.5485ZM8.00867 54.8632V45.6863H7.70867V54.8632H8.00867ZM6.49486 55.0132H7.85867V54.7132H6.49486V55.0132ZM6.34486 46.0253V54.8632H6.64486V46.0253H6.34486ZM34.5206 54.8637V48.1105H34.2206V54.8637H34.5206ZM28.8895 55.0137H34.3706V54.7137H28.8895V55.0137ZM28.7395 48.1105V54.8637H29.0395V48.1105H28.7395ZM34.3706 47.9604H28.8895V48.2605H34.3706V47.9604ZM20.254 45.8873V46.9737H20.554V45.8873H20.254ZM36.6948 45.7373H20.404V46.0373H36.6948V45.7373ZM36.8448 46.9737V45.8873H36.5448V46.9737H36.8448ZM20.404 47.1237H36.6948V46.8237H20.404V47.1237ZM27.9214 54.8637V48.1105H27.6214V54.8637H27.9214ZM22.2153 55.0137H27.7714V54.7137H22.2153V55.0137ZM22.0653 48.1105V54.8637H22.3652V48.1105H22.0653ZM27.7714 47.9604H22.2153V48.2605H27.7714V47.9604ZM35.3398 48.1099V54.8632H35.6398V48.1099H35.3398ZM37.2551 47.9599H35.4898V48.2599H37.2551V47.9599ZM37.6644 47.5416C37.6644 47.7746 37.4786 47.9599 37.2551 47.9599V48.2599C37.6489 48.2599 37.9644 47.9358 37.9644 47.5416H37.6644ZM37.6644 45.3184V47.5416H37.9644V45.3184H37.6644ZM37.2551 44.9001C37.4787 44.9001 37.6644 45.0854 37.6644 45.3184H37.9644C37.9644 44.9243 37.6489 44.6001 37.2551 44.6001V44.9001ZM19.8444 44.9001H37.2551V44.6001H19.8444V44.9001ZM19.4351 45.3184C19.4351 45.0854 19.6209 44.9001 19.8444 44.9001V44.6001C19.4507 44.6001 19.1351 44.9242 19.1351 45.3184H19.4351ZM19.4351 47.5416V45.3184H19.1351V47.5416H19.4351ZM19.8444 47.9599C19.6209 47.9599 19.4351 47.7746 19.4351 47.5416H19.1351C19.1351 47.9358 19.4507 48.2599 19.8444 48.2599V47.9599ZM21.0964 47.9599H19.8444V48.2599H21.0964V47.9599ZM21.2464 54.8632V48.1099H20.9464V54.8632H21.2464ZM15.5403 55.0132H21.0964V54.7132H15.5403V55.0132ZM15.3898 1.44957L15.3903 54.8632H15.6903L15.6898 1.44957L15.3898 1.44957ZM41.1848 13.0955L15.6025 1.31333L15.477 1.58582L41.0593 13.368L41.1848 13.0955ZM41.2721 35.1045V13.2317H40.9721V35.1045H41.2721ZM41.6814 35.5229C41.4579 35.5229 41.2721 35.3376 41.2721 35.1045H40.9721C40.9721 35.4987 41.2877 35.8229 41.6814 35.8229V35.5229ZM42.0907 35.1045C42.0907 35.3376 41.9049 35.5229 41.6814 35.5229V35.8229C42.0751 35.8229 42.3907 35.4987 42.3907 35.1045H42.0907ZM42.0907 18.7827V35.1045H42.3907V18.7827H42.0907ZM47.5741 18.6327H42.2407V18.9327H47.5741V18.6327ZM47.7241 36.2036V18.7827H47.4241V36.2036H47.7241ZM45.5988 40.3176C45.5988 38.6642 46.417 37.2064 47.6608 36.326L47.4874 36.0811C46.1675 37.0154 45.2987 38.5629 45.2987 40.3176H45.5988ZM45.5988 43.9891V40.3176H45.2987V43.9891H45.5988ZM47.6608 47.9806C46.4179 47.1003 45.5988 45.6424 45.5988 43.9891H45.2987C45.2987 45.7438 46.1685 47.2912 47.4874 48.2255L47.6608 47.9806ZM47.7241 54.861V48.1031H47.4241V54.861H47.7241ZM42.2407 55.011H47.5741V54.711H42.2407V55.011ZM42.0907 38.4209V54.861H42.3907V38.4209H42.0907ZM41.6814 38.0025C41.9049 38.0025 42.0907 38.1878 42.0907 38.4209H42.3907C42.3907 38.0267 42.0751 37.7025 41.6814 37.7025V38.0025ZM41.2721 38.4209C41.2721 38.1878 41.4579 38.0025 41.6814 38.0025V37.7025C41.2877 37.7025 40.9721 38.0267 40.9721 38.4209H41.2721ZM41.2721 54.8623V38.4209H40.9721V54.8623H41.2721ZM35.4898 55.0132L41.1221 55.0123L41.1221 54.7123L35.4898 54.7132L35.4898 55.0132ZM19.4352 15.8727C19.4352 15.6397 19.621 15.4544 19.8445 15.4544V15.1544C19.4508 15.1544 19.1352 15.4785 19.1352 15.8727H19.4352ZM19.4352 20.5561V15.8727H19.1352V20.5561H19.4352ZM19.8445 20.9745C19.621 20.9745 19.4352 20.7892 19.4352 20.5561H19.1352C19.1352 20.9503 19.4508 21.2745 19.8445 21.2745V20.9745ZM25.1371 20.9745H19.8445V21.2745H25.1371V20.9745ZM25.5464 20.5561C25.5464 20.7892 25.3606 20.9745 25.1371 20.9745V21.2745C25.5308 21.2745 25.8464 20.9503 25.8464 20.5561H25.5464ZM25.5464 15.8727V20.5561H25.8464V15.8727H25.5464ZM25.1371 15.4544C25.3606 15.4544 25.5464 15.6397 25.5464 15.8727H25.8464C25.8464 15.4785 25.5308 15.1544 25.1371 15.1544V15.4544ZM19.8445 15.4544H25.1371V15.1544H19.8445V15.4544ZM20.4024 20.1377H24.5764V19.8377H20.4024V20.1377ZM20.2524 16.4411V19.9877H20.5524V16.4411H20.2524ZM24.5764 16.2911H20.4024V16.5911H24.5764V16.2911ZM24.7264 19.9877V16.4411H24.4264V19.9877H24.7264ZM27.4779 15.1544C27.0842 15.1544 26.7686 15.4785 26.7686 15.8727H27.0686C27.0686 15.6397 27.2544 15.4544 27.4779 15.4544V15.1544ZM37.2548 15.1544H27.4779V15.4544H37.2548V15.1544ZM37.9641 15.8727C37.9641 15.4785 37.6485 15.1544 37.2548 15.1544V15.4544C37.4783 15.4544 37.6641 15.6397 37.6641 15.8727H37.9641ZM37.9641 20.5561V15.8727H37.6641V20.5561H37.9641ZM37.2548 21.2745C37.6485 21.2745 37.9641 20.9503 37.9641 20.5561H37.6641C37.6641 20.7892 37.4783 20.9745 37.2548 20.9745V21.2745ZM27.4779 21.2745H37.2548V20.9745H27.4779V21.2745ZM26.7686 20.5561C26.7686 20.9503 27.0842 21.2745 27.4779 21.2745V20.9745C27.2544 20.9745 27.0686 20.7892 27.0686 20.5561H26.7686ZM26.7686 15.8727V20.5561H27.0686V15.8727H26.7686ZM36.695 19.8377H28.0367V20.1377H36.695V19.8377ZM36.545 16.4411V19.9877H36.845V16.4411H36.545ZM28.0367 16.5911H36.695V16.2911H28.0367V16.5911ZM28.1867 19.9877V16.4411H27.8867V19.9877H28.1867ZM25.5449 31.6204C25.5449 31.8535 25.3591 32.0388 25.1356 32.0388V32.3388C25.5293 32.3388 25.8449 32.0146 25.8449 31.6204H25.5449ZM25.5449 26.937V31.6204H25.8449V26.937H25.5449ZM25.1356 26.5187C25.3591 26.5187 25.5449 26.704 25.5449 26.937H25.8449C25.8449 26.5429 25.5293 26.2187 25.1356 26.2187V26.5187ZM19.843 26.5187H25.1356V26.2187H19.843V26.5187ZM19.4337 26.937C19.4337 26.704 19.6195 26.5187 19.843 26.5187V26.2187C19.4493 26.2187 19.1337 26.5429 19.1337 26.937H19.4337ZM19.4337 31.6204V26.937H19.1337V31.6204H19.4337ZM19.843 32.0388C19.6195 32.0388 19.4337 31.8535 19.4337 31.6204H19.1337C19.1337 32.0146 19.4493 32.3388 19.843 32.3388V32.0388ZM25.1356 32.0388H19.843V32.3388H25.1356V32.0388ZM24.5777 27.3554H20.4037V27.6554H24.5777V27.3554ZM24.7277 31.0521V27.5054H24.4277V31.0521H24.7277ZM20.4037 31.2021H24.5777V30.9021H20.4037V31.2021ZM20.2537 27.5054V31.0521H20.5537V27.5054H20.2537ZM37.2553 32.3388C37.649 32.3388 37.9646 32.0146 37.9646 31.6204H37.6646C37.6646 31.8535 37.4788 32.0388 37.2553 32.0388V32.3388ZM27.4784 32.3388H37.2553V32.0388H27.4784V32.3388ZM26.7691 31.6204C26.7691 32.0146 27.0847 32.3388 27.4784 32.3388V32.0388C27.2549 32.0388 27.0691 31.8535 27.0691 31.6204H26.7691ZM26.7691 26.937V31.6204H27.0691V26.937H26.7691ZM27.4784 26.2187C27.0847 26.2187 26.7691 26.5429 26.7691 26.937H27.0691C27.0691 26.704 27.2549 26.5187 27.4784 26.5187V26.2187ZM37.2553 26.2187H27.4784V26.5187H37.2553V26.2187ZM37.9646 26.937C37.9646 26.5429 37.649 26.2187 37.2553 26.2187V26.5187C37.4788 26.5187 37.6646 26.704 37.6646 26.937H37.9646ZM37.9646 31.6204V26.937H37.6646V31.6204H37.9646ZM28.0382 27.6554H36.6965V27.3554H28.0382V27.6554ZM28.1882 31.0521V27.5054H27.8882V31.0521H28.1882ZM36.6965 30.9021H28.0382V31.2021H36.6965V30.9021ZM36.5465 27.5054V31.0521H36.8465V27.5054H36.5465ZM20.0366 36.6063H25.3312V36.3063H20.0366V36.6063ZM19.6273 37.0247C19.6273 36.7916 19.8131 36.6063 20.0366 36.6063V36.3063C19.6429 36.3063 19.3273 36.6305 19.3273 37.0247H19.6273ZM19.6273 41.7081V37.0247H19.3273V41.7081H19.6273ZM20.0366 42.1264C19.8131 42.1264 19.6273 41.9411 19.6273 41.7081H19.3273C19.3273 42.1022 19.6429 42.4264 20.0366 42.4264V42.1264ZM25.3312 42.1264H20.0366V42.4264H25.3312V42.1264ZM25.7405 41.7081C25.7405 41.9411 25.5547 42.1264 25.3312 42.1264V42.4264C25.7249 42.4264 26.0405 42.1022 26.0405 41.7081H25.7405ZM25.7405 37.0247V41.7081H26.0405V37.0247H25.7405ZM25.3312 36.6063C25.5562 36.6063 25.7405 36.7901 25.7405 37.0247H26.0405C26.0405 36.629 25.7264 36.3063 25.3312 36.3063V36.6063ZM20.5959 41.2897H24.7719V40.9897H20.5959V41.2897ZM20.4459 37.593V41.1397H20.7459V37.593H20.4459ZM24.7719 37.443H20.5959V37.743H24.7719V37.443ZM24.9219 41.1397V37.593H24.6219V41.1397H24.9219ZM37.4469 36.3063H27.67V36.6063H37.4469V36.3063ZM38.1562 37.0247C38.1562 36.6287 37.8404 36.3063 37.4469 36.3063V36.6063C37.6707 36.6063 37.8562 36.7904 37.8562 37.0247H38.1562ZM38.1562 41.7081V37.0247H37.8562V41.7081H38.1562ZM37.4469 42.4264C37.8406 42.4264 38.1562 42.1022 38.1562 41.7081H37.8562C37.8562 41.9411 37.6704 42.1264 37.4469 42.1264V42.4264ZM27.67 42.4264H37.4469V42.1264H27.67V42.4264ZM26.9607 41.7081C26.9607 42.1022 27.2763 42.4264 27.67 42.4264V42.1264C27.4465 42.1264 27.2607 41.9411 27.2607 41.7081H26.9607ZM26.9607 37.0247V41.7081H27.2607V37.0247H26.9607ZM27.67 36.3063C27.2763 36.3063 26.9607 36.6305 26.9607 37.0247H27.2607C27.2607 36.7916 27.4465 36.6063 27.67 36.6063V36.3063ZM36.8876 40.9897H28.2293V41.2897H36.8876V40.9897ZM36.7376 37.593V41.1397H37.0376V37.593H36.7376ZM28.2293 37.743H36.8876V37.443H28.2293V37.743ZM28.3793 41.1397V37.593H28.0793V41.1397H28.3793Z"/>
</svg>
