<svg viewBox="0 0 56 56" xmlns="http://www.w3.org/2000/svg">
<path d="M55.3176 50.3906C55.081 50.3906 23.1655 50.3378 23.1468 50.3906H12.9756C12.7334 50.3831 12.4976 50.3131 12.2927 50.1879C12.0659 50.3237 11.8037 50.3941 11.537 50.3906H1.43862C1.05814 50.3929 0.691869 50.2481 0.421954 49.9885C0.15204 49.7288 0 49.3755 0 49.0072V39.2246C0 38.4554 0.64431 37.8318 1.4386 37.8318H5.8004C5.79552 37.7499 5.79552 37.6673 5.8004 37.5851V28.164C5.80284 27.7478 5.9756 27.3496 6.28129 27.0573C6.58699 26.7646 7.00041 26.6017 7.43007 26.604H9.36954L9.36995 18.3019C9.36751 17.6205 9.56141 16.952 9.9297 16.3713C10.298 15.7906 10.826 15.3207 11.4549 15.0147L29.4572 6.04292C30.662 5.45236 32.0856 5.45236 33.2905 6.04292L51.3105 14.9969C51.9377 15.3089 52.4637 15.7826 52.83 16.3661C53.1963 16.9492 53.389 17.6192 53.3866 18.3019V49.0685H55.3171C55.6943 49.0685 56 49.3648 56 49.7295C56 50.0946 55.6943 50.3905 55.3171 50.3905L55.3176 50.3906ZM13.0306 39.1631C12.9993 39.1674 12.9757 39.1937 12.9761 39.2248V49.0075C12.9761 49.0252 12.9838 49.0425 12.9981 49.0543C13.0119 49.0661 13.0306 49.0716 13.0489 49.0689H23.2017C23.2655 49.0689 23.2017 39.2775 23.2017 39.2422C23.2017 39.2032 23.1692 39.1718 23.129 39.1718H20.3972V42.3622C20.3769 42.6967 20.1627 42.9914 19.844 43.122C19.5253 43.253 19.1574 43.1975 18.8948 42.9792L18.1391 42.2387L17.3741 42.9878C17.1123 43.2298 16.7269 43.2982 16.3932 43.1625C16.0594 43.0268 15.8403 42.7128 15.8354 42.3622V39.1631L13.0306 39.1631ZM1.43875 39.1631C1.3985 39.1631 1.36598 39.1945 1.36598 39.2335V49.0161C1.36598 49.0342 1.37371 49.0511 1.38793 49.0633C1.40175 49.0751 1.42045 49.0803 1.43875 49.0779H11.5371C11.5554 49.0803 11.5741 49.0751 11.588 49.0633C11.6022 49.0511 11.6099 49.0342 11.6099 49.0161V39.2248C11.6103 39.1937 11.5867 39.1674 11.5554 39.1631H8.82372V42.3445C8.81519 42.6934 8.59486 43.0047 8.26153 43.138C7.92861 43.2714 7.54568 43.2022 7.2847 42.9614L6.52901 42.2209L5.72779 42.9791C5.4656 43.2211 5.08022 43.2895 4.74648 43.1538C4.41275 43.018 4.19364 42.7037 4.18876 42.3535V39.154L1.43875 39.1631ZM24.586 49.0516H47.6053V32.8262H32.0527V36.237C32.784 36.4502 33.3641 36.992 33.6109 37.6915C33.8572 38.3914 33.7397 39.1634 33.295 39.7646C32.8507 40.3658 32.1337 40.7222 31.3698 40.7222C30.606 40.7222 29.889 40.3658 29.4446 39.7646C28.9999 39.1634 28.8824 38.3914 29.1287 37.6915C29.3755 36.992 29.9556 36.4502 30.6869 36.237V32.8262H18.7589V37.5853C18.7683 37.6676 18.7683 37.7502 18.7589 37.832H23.1753C23.557 37.832 23.9228 37.9788 24.1927 38.24C24.4623 38.5013 24.6139 38.8554 24.6139 39.2248L24.586 49.0516ZM48.9706 49.0516H52.0121V18.3021C52.0146 17.8638 51.8906 17.4337 51.654 17.06C51.4174 16.6862 51.078 16.384 50.6735 16.1869L32.6712 7.22385C31.8603 6.81782 30.8964 6.81782 30.0854 7.22385L12.0561 16.1956C11.6496 16.3895 11.3069 16.6893 11.0675 17.0616C10.8276 17.4338 10.7 17.8634 10.6992 18.3021V26.5865H13.7407V20.9987C13.7407 20.634 14.0464 20.3377 14.4236 20.3377H48.2699H48.2695C48.6211 20.3456 48.9113 20.6068 48.9434 20.946L48.9706 49.0516ZM17.1646 39.1631V41.2696C17.4105 41.0139 17.7109 40.6881 18.0752 40.7145C18.4394 40.7408 18.767 41.0052 18.9857 41.261V39.154H17.1646V39.1631ZM5.55505 39.1631V41.2783C5.80099 41.0225 6.1014 40.6968 6.46563 40.7231C6.82985 40.7495 7.15749 41.0139 7.3762 41.2696V39.1631L5.55505 39.1631ZM31.3695 37.4622C30.8163 37.4622 30.3679 37.8962 30.3679 38.4317C30.3679 38.9667 30.8163 39.4011 31.3695 39.4011C31.9228 39.4011 32.3712 38.9667 32.3712 38.4317C32.3712 37.8962 31.9228 37.4622 31.3695 37.4622ZM11.6096 37.8411H17.1551C17.2795 37.8198 17.371 37.7164 17.3734 37.5944V28.1643C17.3685 28.0313 17.2559 27.9262 17.1185 27.9262H14.5779V31.1077C14.573 31.4602 14.3511 31.7761 14.0145 31.9103C13.6775 32.0445 13.2901 31.9717 13.0299 31.7246L12.2742 30.9841L11.5092 31.7332L11.5096 31.7336C11.2474 31.9752 10.862 32.0441 10.5283 31.9083C10.1945 31.7726 9.97543 31.4582 9.97055 31.1077V27.9263H7.412C7.34411 27.9239 7.27825 27.9475 7.22867 27.9924C7.17948 28.0368 7.15021 28.0986 7.14777 28.1643V37.5853C7.14208 37.7104 7.23761 37.8183 7.36648 37.832H11.6095L11.6096 37.8411ZM31.3695 31.522H47.6048V29.107H18.7578V31.522H31.3695ZM11.3368 27.8999V30.0064C11.5827 29.7507 11.8831 29.4249 12.2474 29.4513C12.6116 29.4776 12.9303 29.742 13.1579 29.9978V27.9263L11.3368 27.8999ZM18.7035 27.7591L47.6045 27.7587V25.3527H15.1247V26.5779H17.1373C17.5007 26.5787 17.8532 26.6983 18.1377 26.9174C18.4219 27.1366 18.6214 27.4423 18.7036 27.785L18.7035 27.7591ZM15.125 24.0311L47.6048 24.0307V21.6598H15.125V24.0311ZM31.3696 17.4208C30.0619 17.3587 28.8801 16.6477 28.2444 15.5397C27.6082 14.4322 27.6082 13.0854 28.2444 11.9779C28.8802 10.8704 30.0619 10.159 31.3696 10.0972C32.6773 10.159 33.859 10.8703 34.4948 11.9779C35.131 13.0854 35.131 14.4322 34.4948 15.5397C33.859 16.6477 32.6773 17.3587 31.3696 17.4208ZM31.3696 11.4192C30.5411 11.4684 29.7964 11.9248 29.396 12.6287C28.996 13.3326 28.996 14.1855 29.396 14.8894C29.7964 15.5933 30.5411 16.0497 31.3696 16.0989C32.2367 16.0989 33.0375 15.6511 33.4712 14.9244C33.9045 14.1977 33.9045 13.3026 33.4712 12.576C33.0375 11.8493 32.2367 11.4016 31.3696 11.4016V11.4192Z"/>
</svg>
