<svg viewBox="0 0 56 56" xmlns="http://www.w3.org/2000/svg">
<path fill-rule="evenodd" clip-rule="evenodd" d="M3.05457 54.1046H54.1046V3.05455H3.05457V54.1046ZM52.4832 52.4832H4.62685V11.0142H52.4832V52.4832ZM15.8293 9.44194H4.62685V4.62683H15.8293V9.44194ZM17.4016 9.44194H52.4832V4.62683H17.4016V9.44194ZM7.82051 6.24825H6.24823V7.82053H7.82051V6.24825ZM9.44196 6.24825H11.0142V7.82053H9.44196V6.24825ZM14.208 6.24825H12.6357V7.82053H14.208V6.24825ZM50.9109 6.24825H19.023V7.82053H50.9109V6.24825ZM15.8293 42.1159H41.3298C41.6246 42.1159 41.9194 41.9685 42.1159 41.6737C42.2633 41.3789 42.2142 41.0841 42.0668 40.8385L29.292 21.6763C28.9972 21.2341 28.2602 21.2341 27.9654 21.6763L15.1906 40.8385C14.994 41.0841 14.994 41.4281 15.1414 41.6737C15.2888 41.9685 15.5345 42.1159 15.8293 42.1159ZM39.8558 40.5436H17.3033L28.555 23.6416L39.8558 40.5436ZM29.3412 28.555H27.7689V35.7285H29.3412V28.555ZM27.7689 37.35H29.3412V38.9223H27.7689V37.35ZM10.2281 14.9941H8.65582V16.5664H10.2281V14.9941ZM14.9941 14.9941H16.5664V16.5664H14.9941V14.9941ZM19.7602 14.9941H18.1879V16.5664H19.7602V14.9941ZM21.3815 14.9941H22.9538V16.5664H21.3815V14.9941ZM26.1475 14.9941H24.5752V16.5664H26.1475V14.9941ZM27.7689 14.9941H29.3412V16.5664H27.7689V14.9941ZM32.5349 14.9941H30.9626V16.5664H32.5349V14.9941ZM34.1564 14.9941H35.7287V16.5664H34.1564V14.9941ZM38.9223 14.9941H37.35V16.5664H38.9223V14.9941ZM40.5438 14.9941H42.116V16.5664H40.5438V14.9941ZM45.3097 14.9941H43.7374V16.5664H45.3097V14.9941ZM11.8495 14.9941H13.4218V16.5664H11.8495V14.9941ZM48.5034 14.9941H46.9311V16.5664H48.5034V14.9941ZM8.65582 46.9311H10.2281V48.5033H8.65582V46.9311ZM16.5664 46.9311H14.9941V48.5033H16.5664V46.9311ZM11.8495 46.9311H13.4218V48.5033H11.8495V46.9311ZM45.3097 46.9311H43.7374V48.5033H45.3097V46.9311ZM18.1879 46.9311H19.7602V48.5033H18.1879V46.9311ZM22.9538 46.9311H21.3815V48.5033H22.9538V46.9311ZM24.5752 46.9311H26.1475V48.5033H24.5752V46.9311ZM29.3412 46.9311H27.7689V48.5033H29.3412V46.9311ZM30.9626 46.9311H32.5349V48.5033H30.9626V46.9311ZM35.7287 46.9311H34.1564V48.5033H35.7287V46.9311ZM37.35 46.9311H38.9223V48.5033H37.35V46.9311ZM42.116 46.9311H40.5438V48.5033H42.116V46.9311ZM46.9311 46.9311H48.5034V48.5033H46.9311V46.9311ZM48.5034 21.3815H46.9311V22.9538H48.5034V21.3815ZM46.9311 24.5752H48.5034V26.1475H46.9311V24.5752ZM48.5034 27.7689H46.9311V29.3411H48.5034V27.7689ZM46.9311 30.9626H48.5034V32.5348H46.9311V30.9626ZM48.5034 34.1563H46.9311V35.7286H48.5034V34.1563ZM46.9311 37.35H48.5034V38.9223H46.9311V37.35ZM48.5034 40.5437H46.9311V42.1159H48.5034V40.5437ZM46.9311 43.7374H48.5034V45.3097H46.9311V43.7374ZM48.5034 18.1878H46.9311V19.7601H48.5034V18.1878ZM8.65582 21.3815H10.2281V22.9538H8.65582V21.3815ZM10.2281 18.1878H8.65582V19.7601H10.2281V18.1878ZM8.65582 24.5752H10.2281V26.1475H8.65582V24.5752ZM10.2281 27.7689H8.65582V29.3411H10.2281V27.7689ZM8.65582 30.9626H10.2281V32.5348H8.65582V30.9626ZM10.2281 34.1563H8.65582V35.7286H10.2281V34.1563ZM8.65582 37.35H10.2281V38.9223H8.65582V37.35ZM10.2281 40.5437H8.65582V42.1159H10.2281V40.5437ZM8.65582 43.7374H10.2281V45.3097H8.65582V43.7374Z"/>
</svg>
