<svg viewBox="0 0 56 56" xmlns="http://www.w3.org/2000/svg">
<path fill-rule="evenodd" clip-rule="evenodd" d="M44.2234 10.8529V27.8243L27.9213 37.7485L11.6175 27.8202V4.4625H37.8325V10.8529H44.2234ZM9.70035 26.6528V23.4199L7.27246 25.1743L9.70035 26.6528ZM6.49899 26.9477V50.7888L26.0789 38.871L6.49899 26.9477ZM46.8808 51.5368H8.95765L27.9199 39.9941L46.8808 51.5368ZM49.3415 26.953V50.7901L29.7624 38.8722L49.3415 26.953ZM46.1408 23.4204L48.5718 25.1771L46.1407 26.6571L46.1408 23.4204ZM39.7491 5.81717V8.93582H42.8678L39.7491 5.81717ZM9.70035 2.54546V21.0545L4.58185 24.7526V53.4545H51.2584L51.2586 24.7526L46.1409 21.0551L46.1415 9.49724L39.1897 2.54546H9.70035ZM25.044 47.538H23.1269V49.4551H25.044V47.538ZM26.9611 47.538H28.8782V49.4551H26.9611V47.538ZM32.7122 47.538H30.7951V49.4551H32.7122V47.538ZM18.4409 21.1193C18.4409 26.3464 22.6923 30.5984 27.9195 30.5984L27.9195 30.5983C29.591 30.5983 31.2308 30.1598 32.663 29.3307C33.1213 29.0651 33.2773 28.4789 33.012 28.0207C32.7464 27.5629 32.1598 27.4069 31.7021 27.6721C30.5622 28.3327 29.2544 28.6813 27.9199 28.6813C23.7508 28.6813 20.3583 25.2892 20.3583 21.1193C20.3583 16.9489 23.7505 13.5564 27.9199 13.5564C32.0803 13.5564 35.4673 16.9347 35.4814 21.0931C35.4812 21.1023 35.4811 21.1114 35.4811 21.1206V23.2522C35.4811 23.5682 35.3607 23.8633 35.1481 24.0777C34.6988 24.5208 33.9344 24.5292 33.4815 24.0763C33.2613 23.8602 33.1405 23.5669 33.1405 23.2517V21.1202L33.1405 21.1123C33.1359 18.2381 30.7957 15.9011 27.9195 15.9011C25.0424 15.9011 22.7013 18.2425 22.7013 21.1202C22.7013 23.9983 25.0423 26.3398 27.9195 26.3398C29.3696 26.3398 30.6834 25.746 31.6303 24.7888C31.7662 25.0247 31.9343 25.2429 32.1323 25.4376C32.7154 26.0193 33.4891 26.3398 34.312 26.3398L34.3118 26.3398C35.1339 26.3398 35.9094 26.0207 36.5014 25.435C37.079 24.8532 37.3977 24.0777 37.3977 23.2522V21.1483C37.398 21.1386 37.3982 21.129 37.3982 21.1193C37.3982 15.8917 33.1463 11.6393 27.9195 11.6393C22.6924 11.6393 18.4409 15.8917 18.4409 21.1193ZM24.6183 21.1206C24.6183 19.2997 26.0991 17.8181 27.9195 17.8181C29.7413 17.8181 31.2238 19.2997 31.2238 21.1206C31.2238 22.9414 29.7413 24.423 27.9195 24.423C26.0991 24.423 24.6183 22.9414 24.6183 21.1206Z"/>
</svg>
