<svg viewBox="0 0 56 56" xmlns="http://www.w3.org/2000/svg">
<path fill-rule="evenodd" clip-rule="evenodd" d="M12.7888 31.435C12.8954 31.4786 13.0098 31.5007 13.125 31.5C13.2398 31.5029 13.3535 31.479 13.4574 31.43C13.6172 31.3644 13.7539 31.2529 13.8505 31.1096C13.947 30.9663 13.9991 30.7977 14 30.625V24.5H20.125V22.75H13.125C12.8929 22.75 12.67 22.8421 12.5059 23.0062C12.3418 23.1703 12.25 23.3929 12.25 23.625V28.5162L6.74621 23.0038C6.57853 22.8439 6.35667 22.7532 6.125 22.75H1.75V1.75H33.25V22.75H31.5V24.5H34.125C34.3571 24.5 34.5795 24.4078 34.7436 24.2438C34.9077 24.0797 35 23.8571 35 23.625V0.875C35 0.642935 34.9077 0.420335 34.7436 0.256241C34.5795 0.0921465 34.3571 0 34.125 0H0.875C0.642935 0 0.420015 0.0921465 0.25592 0.256241C0.0918261 0.420335 0 0.642935 0 0.875V23.625C0 23.8571 0.0918261 24.0797 0.25592 24.2438C0.420015 24.4078 0.642935 24.5 0.875 24.5H5.75714L12.5034 31.2462C12.5851 31.3273 12.6821 31.3915 12.7888 31.435ZM0 56H14.875V35H15.75C15.8764 35 16.0009 34.9727 16.1157 34.9198C16.2305 34.8669 16.3326 34.7898 16.4148 34.6938L21.6648 28.5688C21.7106 28.516 21.7488 28.457 21.7784 28.3937L24.4034 23.1437C24.4659 23.0218 24.4991 22.887 24.5 22.75C24.5 22.2859 24.684 21.8408 25.0122 21.5126C25.3404 21.1844 25.7858 21 26.25 21C26.7141 21 27.1591 21.1844 27.4873 21.5126C27.8155 21.8408 28 22.2859 28 22.75V25.2087L24.5611 33.8013C24.5082 33.9338 24.4886 34.0772 24.5038 34.219C24.5191 34.3608 24.5688 34.4967 24.6486 34.6149C24.7289 34.7337 24.8369 34.831 24.9635 34.8981C25.0902 34.9652 25.2316 35.0002 25.375 35H36.75C37.2141 35 37.6591 35.1844 37.9873 35.5126C38.3155 35.8408 38.5 36.2859 38.5 36.75C38.5 37.2141 38.3155 37.6592 37.9873 37.9874C37.6591 38.3156 37.2141 38.5 36.75 38.5C36.5179 38.5 36.295 38.5921 36.1309 38.7562C35.9668 38.9203 35.875 39.1429 35.875 39.375C35.875 39.6071 35.9668 39.8297 36.1309 39.9938C36.295 40.1579 36.5179 40.25 36.75 40.25H37.625C38.0891 40.25 38.5341 40.4344 38.8623 40.7626C39.1904 41.0908 39.375 41.5359 39.375 42C39.375 42.4641 39.1904 42.9092 38.8623 43.2374C38.5341 43.5656 38.0891 43.75 37.625 43.75H35.875C35.6429 43.75 35.42 43.8421 35.2559 44.0062C35.0918 44.1703 35 44.3929 35 44.625C35 44.8571 35.0918 45.0797 35.2559 45.2438C35.42 45.4079 35.6429 45.5 35.875 45.5C36.3391 45.5 36.7841 45.6844 37.1123 46.0126C37.4405 46.3408 37.625 46.7859 37.625 47.25C37.625 47.7141 37.4405 48.1592 37.1123 48.4874C36.7841 48.8156 36.3391 49 35.875 49H35C34.7679 49 34.545 49.0921 34.3809 49.2562C34.2168 49.4203 34.125 49.6429 34.125 49.875C34.125 50.1071 34.2168 50.3297 34.3809 50.4938C34.545 50.6579 34.7679 50.75 35 50.75C35.4641 50.75 35.9091 50.9344 36.2373 51.2626C36.5655 51.5908 36.75 52.0359 36.75 52.5C36.75 52.9641 36.5655 53.4092 36.2373 53.7374C35.9091 54.0656 35.4641 54.25 35 54.25H20.3262L17.0185 52.5962L16.231 54.1625L19.731 55.9125C19.855 55.9682 19.9891 55.9979 20.125 56H35C35.4603 56.0011 35.9163 55.9114 36.3419 55.7361C36.7676 55.5607 37.1542 55.303 37.4801 54.9779C37.8061 54.6528 38.065 54.2667 38.2415 53.8414C38.4179 53.4162 38.5085 52.9604 38.5085 52.5C38.5072 51.677 38.2161 50.8808 37.6861 50.2512C38.204 49.94 38.6327 49.5001 38.9302 48.9741C39.2277 48.4482 39.3837 47.8542 39.3835 47.25C39.3848 46.5574 39.1773 45.8806 38.7883 45.3075C39.4742 45.0678 40.0686 44.6206 40.4888 44.0279C40.909 43.4353 41.1342 42.7265 41.1335 42C41.1337 41.3958 40.9777 40.8018 40.6802 40.2758C40.3827 39.7499 39.954 39.3099 39.4361 38.9987C39.9661 38.3691 40.2572 37.573 40.2585 36.75C40.2585 35.8217 39.8899 34.9314 39.2335 34.2751C38.5772 33.6187 37.6868 33.25 36.7585 33.25H26.6699L29.6974 25.6988C29.7353 25.5949 29.7559 25.4855 29.7585 25.375V22.75C29.7585 21.8217 29.3899 20.9315 28.7335 20.2751C28.0772 19.6187 27.1868 19.25 26.2585 19.25C25.3669 19.2483 24.5082 19.5868 23.8578 20.1966C23.2074 20.8064 22.8142 21.6414 22.7585 22.5313L20.2647 27.51L15.3471 33.25L14.875 33.25H0V56ZM13.125 54.25H1.75V35H13.125V54.25ZM9.62483 50.75H11.3748V52.5H9.62483V50.75ZM42.875 36.75C42.7602 36.7529 42.646 36.729 42.5422 36.68C42.3824 36.6144 42.2456 36.5028 42.1491 36.3596C42.0525 36.2163 42.0008 36.0477 42 35.875V29.75H31.5V28H42.875C43.107 28 43.3295 28.0921 43.4936 28.2562C43.6577 28.4203 43.75 28.6429 43.75 28.875V33.7662L49.2533 28.2538C49.3351 28.1727 49.4321 28.1085 49.5387 28.0649C49.6453 28.0214 49.7598 27.9993 49.875 28H54.25V8.75H36.75V7H55.125C55.357 7 55.5795 7.09215 55.7436 7.25624C55.9077 7.42034 56 7.64294 56 7.875V28.875C56 29.1071 55.9077 29.3297 55.7436 29.4938C55.5795 29.6578 55.357 29.75 55.125 29.75H50.2334L43.4962 36.4962C43.4144 36.5773 43.3174 36.6415 43.2108 36.6851C43.1042 36.7286 42.9901 36.7507 42.875 36.75ZM13.1248 11.375H14.8748V13.125H13.1248V11.375ZM18.3748 11.375H16.6248V13.125H18.3748V11.375ZM20.1248 11.375H21.8748V13.125H20.1248V11.375ZM50.7498 12.25H36.7498V14H50.7498V12.25ZM36.7498 17.5H50.7498V19.25H36.7498V17.5ZM50.7498 22.75H36.7498V24.5H50.7498V22.75ZM6.125 17.5H28.875C29.1071 17.5 29.3295 17.4079 29.4936 17.2438C29.6577 17.0797 29.75 16.8571 29.75 16.625V7.875C29.75 7.64294 29.6577 7.42034 29.4936 7.25624C29.3295 7.09215 29.1071 7 28.875 7H6.125C5.89293 7 5.67001 7.09215 5.50592 7.25624C5.34182 7.42034 5.25 7.64294 5.25 7.875V16.625C5.25 16.8571 5.34182 17.0797 5.50592 17.2438C5.67001 17.4079 5.89293 17.5 6.125 17.5ZM28 15.75H7V8.75H28V15.75Z"/>
</svg>
