<svg viewBox="0 0 56 56" xmlns="http://www.w3.org/2000/svg">
<path fill-rule="evenodd" clip-rule="evenodd" d="M14.539 27.7507C15.3896 27.9126 16.2672 27.9973 17.1644 27.9973V28.0027C18.0614 28.0027 18.939 27.9179 19.7896 27.756V44.6239C19.7896 46.0718 18.6122 47.2492 17.1643 47.2492C15.7164 47.2492 14.539 46.0718 14.539 44.6239V27.7507ZM12.7888 27.2978C7.20382 25.457 3.16284 20.1916 3.16284 14.0013C3.16284 6.28469 9.44231 0 17.1644 0C24.8864 0 31.1659 6.27938 31.1659 14.0013C31.1659 20.1959 27.1248 25.4621 21.5398 27.3031V44.6239C21.5398 47.037 19.5774 48.9993 17.1643 48.9993C14.7512 48.9993 12.7888 47.037 12.7888 44.6239V27.2978ZM4.91303 14.0013C4.91303 7.24463 10.4076 1.75017 17.1644 1.75017C23.9158 1.75017 29.4157 7.24463 29.4157 14.0013C29.4157 20.758 23.9211 26.2525 17.1644 26.2525C10.4076 26.2525 4.91303 20.758 4.91303 14.0013ZM18.0395 34.998H16.2893V36.7482H18.0395V34.998ZM16.2893 38.4983H18.0395V40.2485H16.2893V38.4983ZM18.0395 41.9987H16.2893V43.7488H18.0395V41.9987ZM16.2893 56H43.7726L52.1629 47.6098V5.2505H31.1606V7.00067H50.4127V46.3741H42.5368V54.2498H18.0395V50.7495H16.2893V56ZM44.287 48.1243H49.177L44.287 53.0142V48.1243ZM10.1636 21.002H24.1651V14.0013H22.4149V19.2518H11.9138V8.75083H20.6647V7.00067H10.1636V21.002ZM17.1643 16.9872L13.9185 13.7414L15.1543 12.5057L17.1643 14.5105L22.6695 9.00539L23.9052 10.2411L17.1643 16.9872ZM23.2847 34.1229H28.5353V28.8724H23.2847V34.1229ZM26.7851 32.3728H25.0349V30.6226H26.7851V32.3728ZM28.5353 41.1236H23.2847V35.8731H28.5353V41.1236ZM25.0349 39.3734H26.7851V37.6233H25.0349V39.3734ZM23.2847 48.1243H28.5353V42.8738H23.2847V48.1243ZM26.7851 46.3741H25.0349V44.6239H26.7851V46.3741ZM46.9122 28.8724H30.2854V30.6226H46.9122V28.8724ZM30.2854 32.3728H46.9122V34.1229H30.2854V32.3728ZM46.9122 35.8731H30.2854V37.6233H46.9122V35.8731ZM30.2854 39.3734H46.9122V41.1236H30.2854V39.3734ZM39.0364 46.3741H30.2854V48.1243H39.0364V46.3741ZM30.2854 42.8738H46.9122V44.6239H30.2854V42.8738ZM46.9122 25.3721H30.2854V23.6272H45.162V16.6266H32.9107V14.8764H46.9122V25.3721ZM45.162 11.3761H46.9122V13.1262H45.162V11.3761ZM43.4118 11.3761H41.6617V13.1262H43.4118V11.3761ZM38.1613 11.3761H39.9115V13.1262H38.1613V11.3761Z"/>
</svg>
