<svg viewBox="0 0 56 56" xmlns="http://www.w3.org/2000/svg">
<path fill-rule="evenodd" clip-rule="evenodd" d="M54.7123 37.4355C55.5636 38.7579 56 40.2601 56 41.9277L55.9993 41.9277L55.9985 50.9558H49.3022C48.9437 53.1445 47.0443 54.8209 44.7552 54.8209C42.4674 54.8209 40.5675 53.1444 40.2082 50.9558H37.4662V50.9272H12.979C12.5181 52.9872 10.6766 54.5333 8.47928 54.5333C6.28109 54.5333 4.44044 52.9876 3.97914 50.9272H0V36.087H1.78424V42.6294L4.16785 42.6298V28.3567H12.5421V12.5598L16.5046 10.1264C16.3511 9.46845 16.2644 8.88019 16.2644 8.4052C16.2644 4.32198 19.5864 1 23.6696 1C27.453 1 30.5775 3.85323 31.0172 7.51919L41.2591 12.9316L52.9281 3.81096V3.78233H54.7123V37.4355ZM51.6542 20.2243C52.0711 19.9518 52.4975 19.6606 52.9281 19.3606L52.9278 6.18019L42.2411 14.4263L42.2407 30.7351H44.5779C47.1382 30.7351 49.0121 31.4224 50.4769 32.8968L52.9277 35.3638V21.5166C52.8806 21.5477 52.8324 21.5808 52.7844 21.6139C52.7332 21.6492 52.682 21.6844 52.6323 21.7169L51.6542 20.2243ZM36.272 42.6297H37.4667L37.4663 30.7349H40.4573V26.8517C39.9794 26.9151 39.5044 26.9649 39.0423 26.9865L38.9585 25.2048C39.4467 25.1824 39.9499 25.128 40.4573 25.0525V14.5261L30.9629 9.5078C30.3108 13.2061 26.9154 20.0273 24.3832 21.2108V33.1146H26.1675V37.8715H36.272V42.6297ZM24.3831 37.8715V34.8984H16.062V37.8715H24.3831ZM24.3831 39.6557H16.062V42.6297H24.3831V39.6557ZM34.4878 39.6557H26.1674V42.6297H34.4878V39.6557ZM29.2915 8.40482C29.2915 5.30511 26.7696 2.78375 23.6696 2.78375C20.5699 2.78375 18.0481 5.30553 18.0485 8.40482C18.0485 11.7047 22.2911 19.146 23.6696 19.6024C25.049 19.1468 29.2915 11.7048 29.2915 8.40482ZM17.0219 11.9019L14.3258 13.5576V28.3578H16.057V33.1155H22.599V21.0143C20.6111 19.7258 18.2179 15.3911 17.0219 11.9019ZM14.2731 30.1415H5.95191V33.115H14.2731V30.1415ZM14.2731 34.8992H5.95191V37.8724H14.2731V34.8992ZM14.2731 39.6566H5.95191V42.6306H14.2731V39.6566ZM5.64956 49.9204C5.64956 51.481 6.91937 52.7508 8.47995 52.7508L8.47997 52.7509C10.0385 52.7509 11.3071 51.4837 11.3108 49.9251V49.921C11.3108 48.3611 10.041 47.0913 8.48039 47.0913C8.4727 47.0913 8.46525 47.0925 8.45784 47.0936L8.45779 47.0936C8.45123 47.0947 8.4447 47.0957 8.43808 47.0959C8.25887 47.0984 8.08132 47.1141 7.90957 47.1494C7.77484 47.1771 7.64869 47.2232 7.52204 47.2695L7.51009 47.2738C7.49149 47.2804 7.47261 47.2857 7.45382 47.291L7.4537 47.291C7.42728 47.2985 7.40105 47.3059 7.3761 47.3166C7.28695 47.3535 7.20528 47.4018 7.12317 47.4504L7.12311 47.4504L7.099 47.4647L7.06788 47.4829C7.04472 47.4964 7.02108 47.5089 6.99747 47.5214C6.95848 47.542 6.91954 47.5627 6.88286 47.5875C6.82691 47.6257 6.77661 47.6701 6.72616 47.7145C6.70554 47.7327 6.68489 47.7509 6.66383 47.7687C6.64691 47.783 6.62984 47.7972 6.61276 47.8113L6.61271 47.8113C6.55649 47.8578 6.50016 47.9045 6.44895 47.9579C5.95654 48.4676 5.64956 49.158 5.64956 49.9204ZM13.0188 49.1008L13.0234 49.1199C13.0252 49.1278 13.0268 49.1357 13.0282 49.1438L13.0284 49.143H37.4667V47.9822H13.6783V46.198H37.4667V44.4138H1.78411V46.198H3.64427V47.9822H1.78411V49.143L3.82969 49.1426C4.00598 48.2416 4.44902 47.4144 5.12064 46.7544C5.13116 46.743 5.14247 46.7324 5.1538 46.7217C5.16436 46.7118 5.17494 46.7019 5.18494 46.6913C5.2055 46.6713 5.22625 46.6515 5.24706 46.6316L5.27911 46.6009C5.36373 46.5196 5.44919 46.4399 5.53962 46.3648C5.54543 46.3599 5.55207 46.3553 5.5587 46.3499C5.6674 46.2599 5.77981 46.1757 5.89638 46.0964C5.90053 46.0931 5.90551 46.091 5.91007 46.0873C6.02663 46.0093 6.14569 45.9363 6.26932 45.8695C6.28902 45.8588 6.30915 45.8491 6.32929 45.8394C6.3435 45.8326 6.35771 45.8257 6.37178 45.8185C6.46802 45.7691 6.56385 45.7206 6.66383 45.6783C6.74424 45.6434 6.82724 45.6144 6.90997 45.5854L6.94218 45.5742C6.96012 45.5677 6.97788 45.5608 6.99563 45.5538L6.99572 45.5538L6.99576 45.5538L6.99579 45.5538C7.0248 45.5425 7.05382 45.5311 7.08364 45.5219C7.52084 45.3833 7.98462 45.307 8.46708 45.3066L8.4731 45.3063L8.47662 45.3062H8.47704H8.47953C8.63012 45.3062 8.77821 45.3145 8.92506 45.3286C8.95694 45.332 8.98798 45.3366 9.01904 45.3412L9.04209 45.3446L9.07274 45.3489C9.16939 45.3614 9.26605 45.3746 9.36105 45.3929C9.40362 45.4008 9.44506 45.4111 9.48688 45.4214L9.53155 45.4323C9.61618 45.4518 9.69997 45.4721 9.78253 45.4966C9.82984 45.5108 9.87582 45.5264 9.92197 45.542L9.9223 45.5421L9.95717 45.5538C10.0356 45.5804 10.1136 45.6082 10.1903 45.6393C10.248 45.6625 10.304 45.687 10.3604 45.7119C10.4351 45.7459 10.5077 45.7812 10.5794 45.8185C10.6342 45.8463 10.6881 45.8749 10.7416 45.9052C10.8138 45.9459 10.8827 45.9886 10.9511 46.0326L10.9956 46.0611L10.9958 46.0611C11.0315 46.0839 11.0671 46.1066 11.1017 46.1309C11.1714 46.179 11.2386 46.2309 11.3058 46.2831L11.339 46.3084L11.3391 46.3084L11.3392 46.3085C11.3729 46.3341 11.4064 46.3595 11.4386 46.3872C11.5091 46.4455 11.5762 46.509 11.6428 46.5721L11.6522 46.581L11.6779 46.6042C11.7019 46.6257 11.7261 46.6474 11.7493 46.6706C11.8476 46.7693 11.9413 46.8722 12.0301 46.9792L12.0362 46.9867C12.0417 46.9937 12.0472 47.0008 12.0526 47.0079L12.0707 47.0323L12.0709 47.0326C12.0804 47.0454 12.0899 47.0583 12.0998 47.0709C12.1633 47.1514 12.2255 47.2314 12.2836 47.3161C12.3035 47.3453 12.3221 47.3753 12.3407 47.4055L12.3408 47.4057C12.3512 47.4226 12.3617 47.4395 12.3724 47.4563C12.4188 47.528 12.4644 47.6006 12.5068 47.6757C12.5292 47.7162 12.55 47.7571 12.5707 47.798L12.5901 47.8363C12.6279 47.9093 12.6636 47.9827 12.6968 48.0569C12.7221 48.1146 12.7453 48.1723 12.7685 48.2312C12.7984 48.3058 12.8262 48.3818 12.8519 48.4585C12.8722 48.5187 12.8917 48.5792 12.9091 48.6406C12.9324 48.7186 12.9523 48.7974 12.9705 48.8779C12.9846 48.9401 12.9988 49.0023 13.0108 49.0654C13.013 49.0773 13.0159 49.089 13.0188 49.1007L13.0188 49.1008ZM41.9274 50.2071C41.9274 51.7676 43.1972 53.0375 44.757 53.0375L44.7569 53.0374C46.3175 53.0374 47.5873 51.7676 47.5873 50.207C47.5873 48.6464 46.3175 47.3766 44.7569 47.3766C43.6116 47.3766 42.6272 48.0648 42.1829 49.0459C42.161 49.0938 42.1427 49.1424 42.1243 49.1914L42.1243 49.1914L42.1211 49.1998C42.0771 49.3143 42.0402 49.4313 42.0112 49.552C42.0071 49.5693 42.0025 49.5865 41.998 49.6036L41.9979 49.6036L41.9979 49.6036L41.9978 49.604C41.9917 49.6269 41.9856 49.6496 41.9809 49.6723C41.9477 49.8462 41.9274 50.0233 41.9274 50.2071ZM44.8541 45.4252C47.0947 45.4252 48.9676 47.0397 49.3821 49.1724L54.2165 49.172V47.9827H50.5506V46.1985H54.2165V41.9286C54.2165 41.5565 54.1825 41.1977 54.1286 40.8463H42.2248V33.7156H44.0091V39.0621L53.5773 39.0625C53.2633 38.4112 52.8406 37.8068 52.2946 37.258L49.2128 34.1554C48.0894 33.0249 46.6611 32.5205 44.5795 32.5205H39.2513V49.1723H40.2606C40.2722 49.1221 40.2867 49.0729 40.3012 49.0237L40.3012 49.0237L40.3012 49.0236C40.3068 49.0046 40.3124 48.9856 40.3178 48.9666C40.3229 48.9484 40.3277 48.93 40.3325 48.9116C40.3415 48.877 40.3506 48.8423 40.3614 48.8085C40.3983 48.6924 40.441 48.5791 40.4862 48.4671C40.49 48.4581 40.4932 48.4491 40.4963 48.4402L40.4963 48.4402L40.4963 48.4401L40.4963 48.44C40.5001 48.4294 40.5037 48.419 40.5082 48.409C40.5651 48.2734 40.6298 48.1415 40.6999 48.0116C40.7016 48.008 40.7037 48.0046 40.7059 48.0009C40.7081 47.9974 40.7103 47.9937 40.7123 47.9896C40.7708 47.8851 40.8314 47.781 40.8974 47.6798C41.6984 46.3042 43.2246 45.4252 44.8541 45.4252ZM45.1973 42.034H42.2801V43.8183H45.1973V42.034ZM27.3533 8.4044C27.3533 6.37336 25.701 4.72145 23.6704 4.72145C21.6393 4.72145 19.9866 6.37379 19.9866 8.4044C19.9866 10.4359 21.6392 12.0882 23.6704 12.0882C25.7015 12.0882 27.3533 10.4359 27.3533 8.4044ZM21.7705 8.4044C21.7705 7.35694 22.6226 6.50569 23.6701 6.50569C24.7175 6.50569 25.5688 7.35776 25.5688 8.4044C25.5688 9.45228 24.7167 10.304 23.6701 10.304C22.6226 10.304 21.7705 9.45231 21.7705 8.4044ZM37.1491 26.9549C36.5128 26.903 35.8793 26.808 35.2674 26.6724L35.654 24.9305C36.1863 25.0491 36.7376 25.1317 37.2931 25.1769L37.1491 26.9549ZM31.7122 25.362C32.2826 25.6594 32.8642 25.9191 33.4408 26.1331L34.0622 24.4601C33.5545 24.2722 33.0413 24.0428 32.5369 23.7793L31.7122 25.362ZM25.8263 21.0198L26.9745 19.6537L26.9745 19.6537C27.2043 19.8474 27.4383 20.0461 27.676 20.2494L28.336 20.8107L27.1857 22.1742L26.5174 21.6063C26.2834 21.4064 26.0536 21.2102 25.8263 21.0198ZM28.5964 23.325C29.1228 23.7327 29.614 24.0862 30.0982 24.4069L31.0817 22.9189C30.6345 22.6235 30.179 22.2945 29.6896 21.915L28.5964 23.325ZM50.1716 21.1598L51.0971 22.6847L51.0972 22.6848C50.5608 23.0108 50.0356 23.3141 49.5216 23.5982L48.66 22.036C49.1528 21.7642 49.6568 21.4714 50.1716 21.1598ZM42.7426 26.4068C43.3213 26.2562 43.9182 26.075 44.5164 25.868L43.9332 24.1825C43.379 24.3741 42.8281 24.5417 42.2954 24.6795L42.7426 26.4068ZM47.1173 22.8406L47.9034 24.4423L47.9033 24.4423C47.3438 24.7165 46.7833 24.9733 46.237 25.2052L45.5413 23.5624C46.0573 23.3438 46.5879 23.1011 47.1173 22.8406Z"/>
</svg>
