<svg viewBox="0 0 56 56" xmlns="http://www.w3.org/2000/svg">
<path fill-rule="evenodd" clip-rule="evenodd" d="M50.2448 24.7306C47.8637 27.1121 44.6341 28.4502 41.2662 28.4502C37.8997 28.4464 34.672 27.1076 32.2916 24.7269C29.9109 22.3466 28.5717 19.1192 28.568 15.7523C28.568 12.3848 29.9057 9.15519 32.2872 6.77371C34.6683 4.39222 37.8982 3.05455 41.2658 3.05455C44.6334 3.05455 47.863 4.39222 50.2444 6.77332C52.6259 9.1548 53.9636 12.3844 53.9636 15.752C53.964 19.1195 52.6263 22.3495 50.2448 24.7306ZM48.7364 8.28222C46.7553 6.30099 44.0684 5.18767 41.2662 5.18767C38.4651 5.19062 35.7798 6.3047 33.7993 8.28556C31.8184 10.266 30.7044 12.9514 30.7014 15.7524C30.7014 18.5546 31.8143 21.2414 33.7956 23.2227C35.7767 25.2039 38.464 26.3172 41.2658 26.3172C44.0676 26.3172 46.7548 25.2043 48.736 23.223C50.7175 21.2419 51.8306 18.5546 51.8306 15.7528C51.8306 12.9506 50.7175 10.2635 48.7364 8.28222ZM25.6449 53.8381C27.5822 53.8358 29.44 53.0651 30.8099 51.6951C32.1799 50.325 32.9507 48.4673 32.953 46.5297V33.3748C32.9507 31.437 32.18 29.5794 30.8099 28.2094C29.4399 26.8393 27.5822 26.0686 25.6449 26.0663H10.3626C8.42489 26.0686 6.56727 26.8393 5.19721 28.2094C3.82716 29.5794 3.05676 31.4371 3.05457 33.3748V46.5297C3.0568 48.4674 3.82718 50.325 5.19721 51.6951C6.56724 53.0651 8.42499 53.8358 10.3626 53.8381H25.6449ZM10.3626 28.1997H25.6449C27.0168 28.2011 28.3322 28.7472 29.3023 29.7174C30.2724 30.6876 30.8181 32.0029 30.8196 33.3751V46.53C30.8182 47.9023 30.2724 49.2177 29.3023 50.1878C28.3321 51.1579 27.0168 51.7036 25.6449 51.7055H10.3626C9.17596 51.7037 8.02541 51.2949 7.10398 50.5472C6.18219 49.7991 5.54537 48.7579 5.29949 47.5966H23.4244C24.0136 47.5966 24.4912 47.1193 24.4912 46.5301C24.4912 45.9413 24.0136 45.4637 23.4244 45.4637H5.18807V33.3753C5.18956 32.0031 5.73526 30.6877 6.70544 29.7176C7.67563 28.7475 8.99131 28.2014 10.3632 28.1998L10.3626 28.1997ZM18.0038 42.0821C19.5133 42.0803 20.9607 41.4799 22.0283 40.4127C23.0955 39.3451 23.6963 37.8977 23.6978 36.3881V35.5125C23.6978 34.9232 23.2205 34.446 22.6313 34.446C22.0424 34.446 21.5648 34.9233 21.5648 35.5125V36.3881C21.5633 37.6592 20.8841 38.8332 19.783 39.4686C18.682 40.1036 17.3256 40.1036 16.2246 39.4686C15.1232 38.8332 14.4443 37.6592 14.4428 36.3881V35.5125C14.4428 34.9232 13.9651 34.446 13.3759 34.446C12.7871 34.446 12.3094 34.9233 12.3094 35.5125V36.3881C12.3113 37.8977 12.9117 39.3451 13.9793 40.4127C15.0469 41.4799 16.4939 42.0803 18.0038 42.0821ZM38.8312 19.0265C39.0314 19.2266 39.3025 19.3389 39.5856 19.3389C39.8683 19.3389 40.1395 19.2266 40.3396 19.0265L45.3809 13.9852C45.5814 13.7855 45.6944 13.5139 45.6944 13.2308C45.6948 12.9477 45.5825 12.6762 45.3824 12.4757C45.1818 12.2756 44.9103 12.1632 44.6272 12.1636C44.3438 12.1636 44.0726 12.2767 43.8725 12.4772L39.5853 16.7636L38.6594 15.8378C38.4596 15.6376 38.1884 15.5253 37.9054 15.5253C37.6226 15.5253 37.3511 15.6376 37.151 15.8378C36.9512 16.0375 36.8389 16.3091 36.8389 16.5918C36.8389 16.8749 36.9512 17.146 37.1513 17.3462L38.8312 19.0265ZM7.1886 22.0052C7.1886 22.594 6.71099 23.0716 6.12213 23.0716C5.53292 23.0716 5.05566 22.594 5.05566 22.0052V14.2511C5.05785 12.0448 5.93539 9.93008 7.49514 8.36995C9.05527 6.81023 11.17 5.93271 13.3759 5.93047H26.008C26.5968 5.93047 27.0745 6.40771 27.0745 6.99694C27.0745 7.58578 26.5968 8.06341 26.008 8.06341H13.3759C11.7358 8.06531 10.1631 8.71772 9.0028 9.87799C7.84292 11.0379 7.19046 12.6106 7.1886 14.2511V22.0052ZM48.4541 30.5098V45.2674C48.4526 46.576 47.9318 47.8312 47.0063 48.7567C46.0808 49.6822 44.826 50.2026 43.517 50.2041H36.5136C35.9244 50.2041 35.4471 50.6817 35.4471 51.2705C35.4471 51.8598 35.9244 52.337 36.5136 52.337H43.517C45.3915 52.3351 47.1886 51.5897 48.5139 50.2643C49.8397 48.9389 50.5852 47.1418 50.5874 45.2673V30.5097C50.5874 29.9205 50.1097 29.4429 49.5205 29.4429C48.9317 29.4429 48.4541 29.9205 48.4541 30.5097V30.5098ZM26.456 47.1223C26.4188 47.0646 26.3868 47.0036 26.36 46.9407C26.3325 46.8756 26.3128 46.8076 26.3013 46.738C26.2864 46.6695 26.2793 46.6 26.2801 46.5301C26.2797 46.2485 26.3909 45.978 26.5892 45.7783C26.6383 45.7266 26.6941 45.6819 26.7547 45.6451C26.8117 45.6049 26.8723 45.5707 26.9363 45.5436C27.0017 45.5186 27.0698 45.4989 27.1386 45.4848C27.2763 45.4584 27.4172 45.4584 27.5549 45.4848C27.6222 45.4989 27.6881 45.5186 27.752 45.5436C27.8171 45.5722 27.8796 45.6061 27.9388 45.6451C27.9979 45.6816 28.0519 45.7266 28.0984 45.7783C28.2985 45.9777 28.4116 46.2477 28.4131 46.5301C28.4112 46.5996 28.4045 46.6692 28.3922 46.738C28.3766 46.8072 28.355 46.8749 28.3282 46.9407C28.3011 47.0036 28.2691 47.0646 28.2319 47.1223C28.1921 47.1807 28.1475 47.2361 28.0984 47.2874C27.6798 47.6996 27.0077 47.6996 26.5892 47.2874C26.5419 47.2346 26.4973 47.1795 26.456 47.1223Z"/>
</svg>
