<svg viewBox="0 0 56 56" xmlns="http://www.w3.org/2000/svg">
<path fill-rule="evenodd" clip-rule="evenodd" d="M28 6.4C16.0706 6.4 6.39998 16.0706 6.39998 28C6.39998 39.9293 16.0706 49.6 28 49.6C39.9293 49.6 49.6 39.9293 49.6 28C49.6 16.0706 39.9293 6.4 28 6.4ZM3.59998 28C3.59998 14.5243 14.5242 3.6 28 3.6C41.4757 3.6 52.4 14.5243 52.4 28C52.4 41.4757 41.4757 52.4 28 52.4C14.5242 52.4 3.59998 41.4757 3.59998 28ZM26.6 18.8C26.6 18.0268 27.2268 17.4 28 17.4H28.023C28.7962 17.4 29.423 18.0268 29.423 18.8C29.423 19.5732 28.7962 20.2 28.023 20.2H28C27.2268 20.2 26.6 19.5732 26.6 18.8ZM28 24.944C28.7732 24.944 29.4 25.5708 29.4 26.344L29.4 39.592C29.4 40.3652 28.7732 40.992 28 40.992C27.2268 40.992 26.6 40.3652 26.6 39.592L26.6 26.344C26.6 25.5708 27.2268 24.944 28 24.944Z"/>
</svg>
