<svg viewBox="0 0 56 56" xmlns="http://www.w3.org/2000/svg">
<path fill-rule="evenodd" clip-rule="evenodd" d="M42.821 14.852V21.0064H44.6006C46.5328 21.0064 48.1091 22.5831 48.1091 24.5159V52.4905C48.1091 54.4233 46.5328 56 44.6006 56H9.61754C7.68534 56 6.10907 54.4233 6.10907 52.4905V24.5159C6.10907 22.5831 7.68534 21.0064 9.61754 21.0064H11.3973V14.852C11.3464 6.66303 18.0074 0 26.2447 0H27.9735C36.16 0 42.821 6.66303 42.821 14.852ZM41.0922 21.0064H13.1261V14.852C13.1261 7.62943 18.9735 1.72934 26.2447 1.72934H27.9735C35.1939 1.72934 41.0922 7.62943 41.0922 14.852V21.0064ZM35.8549 19.2262H37.5837V14.852C37.5837 9.56222 33.2616 5.23888 27.9735 5.23888H26.2447C20.9566 5.23888 16.6345 9.56222 16.6345 14.852V19.2262H18.3633V14.852C18.3633 10.4778 21.9227 6.96822 26.2447 6.96822H27.9735C32.3464 6.96822 35.8549 10.5286 35.8549 14.852V19.2262ZM8.14411 23.5506L11.3464 26.7539V50.2525L8.16684 53.39C8.47316 53.8616 9.00439 54.1689 9.61754 54.1689H44.6006C45.2006 54.1689 45.7221 53.8747 46.0312 53.4202L42.821 50.2525V26.7539L46.0544 23.5195C45.7486 23.0451 45.2159 22.7357 44.6006 22.7357H9.61754C8.98893 22.7357 8.44643 23.0587 8.14411 23.5506ZM46.3294 30.6195V32.3488H44.6007V30.6195H46.3294ZM44.6007 34.0781H46.3294V35.8583H44.6007V34.0781ZM44.6007 37.5876V39.3678H46.3294V37.5876H44.6007ZM44.6007 42.8774V41.0972H46.3294V42.8774H44.6007ZM44.6007 44.6067V46.3869H46.3294V44.6067H44.6007ZM44.6007 49.4895V48.1162H46.3294V51.2188L44.6007 49.4895ZM46.3294 28.8901V25.7637L44.6007 27.4659V28.8901H46.3294ZM7.88873 51.2189L9.61758 49.4895V48.1162H7.88873V51.2189ZM9.61758 44.6067V46.3869H7.88873V44.6067H9.61758ZM7.88873 42.8774V41.0972H9.61758V42.8774H7.88873ZM9.61758 37.5876V39.3678H7.88873V37.5876H9.61758ZM7.88873 35.8583H9.61758V34.0781H7.88873V35.8583ZM9.61758 30.6195V32.3488H7.88873V30.6195H9.61758ZM7.88873 28.8901H9.61758V27.4659L7.88873 25.7636V28.8901ZM19.9951 33.5101L21.5038 31.9891L26.3762 36.9008L26.9441 37.4734L27.5121 36.9008L32.3844 31.9891L33.8932 33.5101L29.0118 38.431L28.4529 38.9944L29.0118 39.5578L34.0182 44.6047L32.5094 46.1257L27.5121 41.088L26.9441 40.5154L26.3762 41.088L21.2463 46.2594L19.7375 44.7384L24.8764 39.5578L25.4353 38.9944L24.8764 38.431L19.9951 33.5101ZM22.3535 30.5737C21.885 30.1014 21.1227 30.1014 20.6542 30.5737L18.582 32.6627C18.117 33.1314 18.117 33.8887 18.582 34.3574L23.1817 38.9944L18.3244 43.891C17.8594 44.3597 17.8594 45.117 18.3244 45.5857L20.3966 47.6748C20.8651 48.1471 21.6274 48.1471 22.0959 47.6748L26.9441 42.7873L31.6597 47.5411C32.1282 48.0134 32.8905 48.0134 33.3591 47.5411L35.4313 45.4521C35.8963 44.9834 35.8963 44.2261 35.4313 43.7574L30.7066 38.9944L35.3062 34.3575C35.7712 33.8887 35.7712 33.1314 35.3062 32.6627L33.234 30.5737C32.7655 30.1014 32.0032 30.1014 31.5347 30.5737L26.9441 35.2015L22.3535 30.5737Z"/>
</svg>
