<svg viewBox="0 0 20 20" xmlns="http://www.w3.org/2000/svg" id="icon">
  <path fill-rule="evenodd" d="M3.5 2C2.67157 2 2 2.67157 2 3.5V16.5C2 17.3284 2.67157 18 3.5 18C4.32843 18 5 17.3284 5 16.5V3.5C5 2.67157 4.32843 2 3.5 2ZM17.5112 3.60166C17.5112 3.17687 17.3425 2.76946 17.0422 2.46904C16.7418 2.16872 16.3344 2 15.9096 2C15.4848 2 15.0774 2.16872 14.777 2.46904L8.36895 8.87706C8.06862 9.17748 7.8999 9.58488 7.8999 10.0097C7.8999 10.4345 8.06862 10.8419 8.36895 11.1423L14.777 17.5503C15.0791 17.8421 15.4838 18.0036 15.9038 17.9999C16.3238 17.9963 16.7257 17.8278 17.0227 17.5308C17.3197 17.2338 17.4882 16.832 17.4918 16.4119C17.4955 15.9919 17.334 15.5872 17.0422 15.2851L11.7668 10.0097L17.0422 4.73428C17.3425 4.43386 17.5112 4.02645 17.5112 3.60166Z"/>
</svg>
