<svg viewBox="0 0 20 20" xmlns="http://www.w3.org/2000/svg" id="icon">
  <path fill-rule="evenodd" d="M19 7.74593C19.0003 8.80063 18.7536 9.84074 18.2798 10.7829C17.8059 11.7251 17.118 12.5431 16.2712 13.1714C15.4243 13.7997 14.4422 14.2208 13.4034 14.401C12.3645 14.5813 11.298 14.5155 10.2891 14.2091L10 14.4984L8.875 15.6238L7.75 16.7492H5.5V19H1V14.4984L5.78912 9.70752C5.50838 8.77907 5.43089 7.80101 5.56192 6.83992C5.69296 5.87882 6.02945 4.95725 6.54849 4.13793C7.06753 3.31861 7.75694 2.62077 8.56978 2.09191C9.38263 1.56305 10.2998 1.21559 11.259 1.07318C12.2181 0.930761 13.1966 0.996736 14.128 1.26661C15.0594 1.53648 15.9217 2.00392 16.6562 2.63711C17.3908 3.27029 17.9803 4.05436 18.3848 4.93595C18.7892 5.81753 18.9991 6.77594 19 7.74593ZM12.25 3.2443C11.9516 3.2443 11.6655 3.36287 11.4545 3.57393C11.2435 3.78498 11.125 4.07123 11.125 4.36971C11.125 4.66819 11.2435 4.95444 11.4545 5.16549C11.6655 5.37655 11.9516 5.49512 12.25 5.49512C12.8467 5.49512 13.419 5.73226 13.841 6.15437C14.2629 6.57648 14.5 7.14898 14.5 7.74593C14.5 8.04441 14.6185 8.33066 14.8295 8.54172C15.0405 8.75277 15.3266 8.87134 15.625 8.87134C15.9234 8.87134 16.2095 8.75277 16.4205 8.54172C16.6315 8.33066 16.75 8.04441 16.75 7.74593C16.75 6.55203 16.2759 5.40702 15.432 4.5628C14.5881 3.71858 13.4435 3.2443 12.25 3.2443Z"/>
</svg>
