<svg viewBox="0 0 20 20" xmlns="http://www.w3.org/2000/svg" id="icon">
  <path fill-rule="evenodd" d="M20 10C20 12.6522 18.9464 15.1957 17.0711 17.0711C15.1957 18.9464 12.6522 20 10 20C7.34784 20 4.8043 18.9464 2.92893 17.0711C1.05357 15.1957 0 12.6522 0 10C0 7.34784 1.05357 4.8043 2.92893 2.92893C4.8043 1.05357 7.34784 0 10 0C12.6522 0 15.1957 1.05357 17.0711 2.92893C18.9464 4.8043 20 7.34784 20 10ZM6.25 7.5C6.25 7.16848 6.3817 6.85054 6.61612 6.61612C6.85054 6.3817 7.16848 6.25 7.5 6.25C7.83152 6.25 8.14946 6.3817 8.38388 6.61612C8.6183 6.85054 8.75 7.16848 8.75 7.5V12.5C8.75 12.8315 8.6183 13.1495 8.38388 13.3839C8.14946 13.6183 7.83152 13.75 7.5 13.75C7.16848 13.75 6.85054 13.6183 6.61612 13.3839C6.3817 13.1495 6.25 12.8315 6.25 12.5V7.5ZM12.5 6.25C12.1685 6.25 11.8505 6.3817 11.6161 6.61612C11.3817 6.85054 11.25 7.16848 11.25 7.5V12.5C11.25 12.8315 11.3817 13.1495 11.6161 13.3839C11.8505 13.6183 12.1685 13.75 12.5 13.75C12.8315 13.75 13.1495 13.6183 13.3839 13.3839C13.6183 13.1495 13.75 12.8315 13.75 12.5V7.5C13.75 7.16848 13.6183 6.85054 13.3839 6.61612C13.1495 6.3817 12.8315 6.25 12.5 6.25Z"/>
</svg>
