<svg viewBox="0 0 12 12" xmlns="http://www.w3.org/2000/svg">
<path fill-rule="evenodd" clip-rule="evenodd" d="M10.8206 0.167725C11.1163 0.167725 11.4 0.285183 11.6091 0.49427C11.8182 0.70342 11.9357 0.987051 11.9357 1.28279C11.9357 1.57853 11.8182 1.86216 11.6091 2.07131L6.82369 6.71814H5.24666V5.14111L10.0321 0.49427C10.2412 0.285183 10.5249 0.167725 10.8206 0.167725ZM1.05514 0.942566C0.763723 1.23398 0.600006 1.62923 0.600006 2.04136V9.81098C0.600006 10.2231 0.763723 10.6184 1.05514 10.9098C1.34656 11.2012 1.7418 11.3649 2.15393 11.3649H9.92355C10.3357 11.3649 10.7309 11.2012 11.0223 10.9098C11.3138 10.6184 11.4775 10.2231 11.4775 9.81098V6.70313C11.4775 6.49707 11.3956 6.29944 11.2499 6.15373C11.1042 6.00803 10.9066 5.92617 10.7005 5.92617C10.4944 5.92617 10.2968 6.00803 10.1511 6.15373C10.0054 6.29944 9.92355 6.49707 9.92355 6.70313V9.81098H2.15393V2.04136H5.26178C5.46784 2.04136 5.66547 1.9595 5.81117 1.81379C5.95688 1.66808 6.03874 1.47046 6.03874 1.26439C6.03874 1.05833 5.95688 0.860708 5.81117 0.714999C5.66547 0.56929 5.46784 0.487432 5.26178 0.487432H2.15393C1.7418 0.487432 1.34656 0.651148 1.05514 0.942566Z"/>
</svg>
