<svg viewBox="0 0 20 20" xmlns="http://www.w3.org/2000/svg" id="icon">
  <path fill-rule="evenodd" d="M16.7503 1C17.347 1 17.9192 1.23697 18.3411 1.6588C18.763 2.08076 18.9999 2.65298 18.9999 3.24963C18.9999 3.84628 18.763 4.4185 18.3411 4.84046L9.80646 13.3751H6.6248V10.1935L15.1595 1.6588C15.5814 1.23697 16.1537 1 16.7503 1ZM1.65855 3.90868C1.23658 4.33065 0.999512 4.90298 0.999512 5.49975V16.7503C0.999512 17.3471 1.23658 17.9194 1.65855 18.3414C2.08053 18.7634 2.65286 19.0004 3.24963 19.0004H14.5002C15.097 19.0004 15.6693 18.7634 16.0913 18.3414C16.5132 17.9194 16.7503 17.3471 16.7503 16.7503V12.2501C16.7503 11.9517 16.6318 11.6655 16.4208 11.4546C16.2098 11.2436 15.9236 11.125 15.6252 11.125C15.3269 11.125 15.0407 11.2436 14.8297 11.4546C14.6187 11.6655 14.5002 11.9517 14.5002 12.2501V16.7503H3.24963V5.49975H7.74985C8.04824 5.49975 8.3344 5.38121 8.54539 5.17022C8.75638 4.95924 8.87491 4.67307 8.87491 4.37469C8.87491 4.07631 8.75638 3.79014 8.54539 3.57915C8.3344 3.36817 8.04824 3.24963 7.74985 3.24963H3.24963C2.65286 3.24963 2.08053 3.4867 1.65855 3.90868Z"/>
</svg>
