<svg viewBox="0 0 20 20" xmlns="http://www.w3.org/2000/svg" id="icon">
  <path fill-rule="evenodd" d="M1.3295 1.3295C1.11853 1.54048 1 1.82663 1 2.125V4.375C1 12.4525 7.5475 19 15.625 19H17.875C18.1734 19 18.4595 18.8815 18.6705 18.6705C18.8815 18.4595 19 18.1734 19 17.875V15.4529C18.9999 15.1866 18.9053 14.929 18.7331 14.7258C18.5609 14.5227 18.3222 14.3873 18.0595 14.3436L13.0701 13.5111C12.8327 13.4716 12.5888 13.5093 12.3744 13.6186C12.1599 13.728 11.9862 13.9032 11.8787 14.1186L11.008 15.8601C9.46039 15.2356 8.05456 14.3056 6.8745 13.1255C5.69444 11.9454 4.76437 10.5396 4.13987 8.992L5.88138 8.12238C6.09698 8.01486 6.27237 7.84096 6.38173 7.62628C6.4911 7.41161 6.52865 7.1675 6.48888 6.92987L5.65637 1.9405C5.6127 1.67781 5.47726 1.43913 5.27415 1.26692C5.07104 1.0947 4.81342 1.00012 4.54712 1H2.125C1.82663 1 1.54048 1.11853 1.3295 1.3295ZM17.7089 2.295C17.8009 2.38725 17.874 2.49665 17.9239 2.617C17.9742 2.73841 18.0001 2.86857 17.9999 3V7C17.9999 7.26522 17.8946 7.51957 17.707 7.70711C17.5195 7.89464 17.2651 8 16.9999 8C16.7347 8 16.4803 7.89464 16.2928 7.70711C16.1053 7.51957 15.9999 7.26522 15.9999 7V5.414L12.7069 8.707C12.5183 8.88916 12.2657 8.98995 12.0035 8.98767C11.7413 8.9854 11.4905 8.88023 11.3051 8.69482C11.1197 8.50941 11.0145 8.2586 11.0122 7.9964C11.01 7.73421 11.1108 7.4816 11.2929 7.293L14.5859 4H12.9999C12.7347 4 12.4803 3.89464 12.2928 3.70711C12.1053 3.51957 11.9999 3.26522 11.9999 3C11.9999 2.73478 12.1053 2.48043 12.2928 2.29289C12.4803 2.10536 12.7347 2 12.9999 2H16.9999C17.2642 1.99973 17.5178 2.1044 17.7049 2.291L17.7089 2.295Z"/>
</svg>
