<svg viewBox="0 0 20 20" xmlns="http://www.w3.org/2000/svg" id="icon">
  <path fill-rule="evenodd" d="M10 20C12.6522 20 15.1957 18.9464 17.0711 17.0711C18.9464 15.1957 20 12.6522 20 10C20 7.34784 18.9464 4.8043 17.0711 2.92893C15.1957 1.05357 12.6522 0 10 0C7.34784 0 4.8043 1.05357 2.92893 2.92893C1.05357 4.8043 0 7.34784 0 10C0 12.6522 1.05357 15.1957 2.92893 17.0711C4.8043 18.9464 7.34784 20 10 20ZM9.44375 6.46C9.2555 6.3344 9.03668 6.26226 8.81065 6.25129C8.58461 6.24031 8.35983 6.2909 8.16029 6.39766C7.96076 6.50442 7.79394 6.66335 7.67766 6.85749C7.56137 7.05163 7.49997 7.2737 7.5 7.5V12.5C7.49997 12.7263 7.56137 12.9484 7.67766 13.1425C7.79394 13.3367 7.96076 13.4956 8.16029 13.6023C8.35983 13.7091 8.58461 13.7597 8.81065 13.7487C9.03668 13.7377 9.2555 13.6656 9.44375 13.54L13.1938 11.04C13.3649 10.9258 13.5053 10.7712 13.6024 10.5898C13.6995 10.4083 13.7503 10.2058 13.7503 10C13.7503 9.79423 13.6995 9.59165 13.6024 9.41023C13.5053 9.2288 13.3649 9.07415 13.1938 8.96L9.44375 6.46Z"/>
</svg>
