<svg viewBox="0 0 20 20" xmlns="http://www.w3.org/2000/svg" id="icon">
  <path d="M11.9217 8.1342V1.43681C11.9217 0.750002 11.3649 0.193228 10.6778 0.192948L9.43397 0.192949C8.74716 0.192949 8.19039 0.749723 8.19011 1.43681L8.19011 8.1342L1.49272 8.1342C0.80591 8.1342 0.249136 8.69098 0.248856 9.37807L0.248856 10.6219C0.248856 11.3087 0.80563 11.8655 1.49272 11.8658L8.19011 11.8658L8.19011 18.5632C8.19011 19.25 8.74688 19.8068 9.43397 19.8071L10.6778 19.8071C11.3646 19.8071 11.9217 19.25 11.9217 18.5632L11.9217 11.8658L18.6191 11.8658C19.3059 11.8658 19.863 11.3087 19.863 10.6219V9.37807C19.863 8.69126 19.3062 8.13448 18.6191 8.1342L11.9217 8.1342Z"/>
</svg>
