<svg viewBox="0 0 20 20" xmlns="http://www.w3.org/2000/svg" id="icon">
  <path fill-rule="evenodd" d="M15.6569 15.6569C14.1566 17.1571 12.1217 18 10 18C7.87827 18 5.84344 17.1571 4.34315 15.6569C2.84285 14.1566 2 12.1217 2 10C2 7.87827 2.84285 5.84344 4.34315 4.34315C5.84344 2.84285 7.87827 2 10 2C12.1217 2 14.1566 2.84285 15.6569 4.34315C17.1571 5.84344 18 7.87827 18 10C18 12.1217 17.1571 14.1566 15.6569 15.6569ZM10 20C12.6522 20 15.1957 18.9464 17.0711 17.0711C18.9464 15.1957 20 12.6522 20 10C20 7.34784 18.9464 4.8043 17.0711 2.92893C15.1957 1.05357 12.6522 0 10 0C7.34784 0 4.8043 1.05357 2.92893 2.92893C1.05357 4.8043 0 7.34784 0 10C0 12.6522 1.05357 15.1957 2.92893 17.0711C4.8043 18.9464 7.34784 20 10 20ZM11.25 6.25C11.25 5.91848 11.1183 5.60054 10.8839 5.36612C10.6495 5.1317 10.3315 5 10 5C9.66848 5 9.35054 5.1317 9.11612 5.36612C8.8817 5.60054 8.75 5.91848 8.75 6.25V8.75H6.25C5.91848 8.75 5.60054 8.8817 5.36612 9.11612C5.1317 9.35054 5 9.66848 5 10C5 10.3315 5.1317 10.6495 5.36612 10.8839C5.60054 11.1183 5.91848 11.25 6.25 11.25H8.75V13.75C8.75 14.0815 8.8817 14.3995 9.11612 14.6339C9.35054 14.8683 9.66848 15 10 15C10.3315 15 10.6495 14.8683 10.8839 14.6339C11.1183 14.3995 11.25 14.0815 11.25 13.75V11.25H13.75C14.0815 11.25 14.3995 11.1183 14.6339 10.8839C14.8683 10.6495 15 10.3315 15 10C15 9.66848 14.8683 9.35054 14.6339 9.11612C14.3995 8.8817 14.0815 8.75 13.75 8.75H11.25V6.25Z"/>
</svg>
