<svg viewBox="0 0 20 20" fill="none" xmlns="http://www.w3.org/2000/svg" id="icon">
  <path
    d="M2.11987 0.422485C3.20193 0.422485 4.15426 1.1128 4.49976 2.1217L4.5603 2.32776L4.56421 2.34143L4.56714 2.35608L4.99487 4.39514H5.70581L5.78198 4.39905C6.16013 4.4375 6.45581 4.75685 6.45581 5.14514C6.45566 5.53332 6.16006 5.85282 5.78198 5.89124L5.70581 5.89514H5.3103L6.75562 12.7809H12.5583C13.4724 12.7808 14.1386 12.6368 14.6384 12.4049C15.1295 12.177 15.4988 11.8472 15.7986 11.4098C16.4323 10.4849 16.7443 9.12148 17.1179 7.26526L17.2488 6.59045C17.2811 6.408 17.3019 6.26267 17.3103 6.14026C17.317 6.04232 17.3118 5.98431 17.3074 5.95276C17.2877 5.947 17.2576 5.93652 17.2126 5.92932C17.0107 5.89725 16.7161 5.89514 16.2048 5.89514H15.8572C15.4431 5.89505 15.1073 5.55916 15.1072 5.14514C15.1072 4.73099 15.443 4.39524 15.8572 4.39514H16.2048C16.6647 4.39514 17.101 4.39279 17.448 4.44788C17.7788 4.50052 18.1323 4.62036 18.4089 4.91565L18.5232 5.05334L18.616 5.19788C18.8077 5.54095 18.8302 5.91141 18.8074 6.2428C18.7948 6.42572 18.7652 6.63021 18.7263 6.8512L18.5886 7.56116C18.2317 9.33418 17.8763 11.0308 17.0359 12.2574C16.5987 12.8954 16.0285 13.4143 15.2703 13.7662C14.5204 14.1142 13.6245 14.2808 12.5583 14.2809H6.5603C5.91301 14.2811 5.33403 14.7535 5.17554 15.4293H14.5339C15.6792 15.4296 16.6082 16.3582 16.6082 17.5035C16.6081 18.6488 15.6791 19.5774 14.5339 19.5778C13.3885 19.5778 12.4598 18.649 12.4597 17.5035C12.4597 17.3042 12.4892 17.1118 12.5417 16.9293H10.3455C10.398 17.1118 10.4285 17.3042 10.4285 17.5035C10.4284 18.6488 9.49944 19.5774 8.35425 19.5778C7.20879 19.5778 6.28011 18.649 6.28003 17.5035C6.28003 17.3042 6.30954 17.1118 6.36206 16.9293H4.74487C4.10145 16.9293 3.63159 16.3944 3.63159 15.8004C3.63179 14.6201 4.2982 13.5757 5.28589 13.0826L3.66284 5.35022C3.65002 5.30527 3.63777 5.25951 3.63354 5.21155L3.10522 2.69202L3.04956 2.52893C2.88974 2.16536 2.52762 1.92249 2.11987 1.92249H1.29175C0.877534 1.92249 0.541748 1.5867 0.541748 1.17249C0.541748 0.758272 0.877534 0.422485 1.29175 0.422485H2.11987ZM8.35425 16.9293C8.03717 16.9293 7.78003 17.1865 7.78003 17.5035C7.78011 17.8206 8.03722 18.0778 8.35425 18.0778C8.67101 18.0774 8.92838 17.8204 8.92847 17.5035C8.92847 17.1867 8.67106 16.9296 8.35425 16.9293ZM14.5339 16.9293C14.2169 16.9293 13.9597 17.1865 13.9597 17.5035C13.9598 17.8206 14.2169 18.0778 14.5339 18.0778C14.8507 18.0774 15.1081 17.8204 15.1082 17.5035C15.1082 17.1867 14.8507 16.9296 14.5339 16.9293ZM14.9119 1.20374C15.2703 1.07747 15.6731 1.24144 15.8386 1.59241C16.0149 1.96725 15.8541 2.4142 15.4792 2.59045L15.281 2.69202C14.283 3.23897 13.2012 4.39017 12.3093 5.52698C11.8471 6.11618 11.4578 6.6721 11.1843 7.08069C11.0479 7.28449 10.9414 7.45144 10.8689 7.56604C10.8328 7.62313 10.8051 7.66742 10.7869 7.6969C10.7778 7.71153 10.7707 7.723 10.7664 7.7301C10.7643 7.73343 10.7624 7.73636 10.7615 7.73792L10.7605 7.73889C10.628 7.95834 10.3928 8.09514 10.1365 8.1012C9.91223 8.10637 9.69877 8.01099 9.55347 7.84436L9.49585 7.76917C8.98079 7.00039 8.60929 6.62224 8.39819 6.44592C8.29397 6.35894 8.23146 6.32341 8.21362 6.31409C7.85587 6.19331 7.63848 5.82026 7.72144 5.44299C7.81054 5.03876 8.21069 4.78298 8.61499 4.8717L8.4646 5.55432C8.60983 4.89432 8.61598 4.87226 8.61694 4.8717L8.61792 4.87268C8.61891 4.8729 8.62073 4.87257 8.62183 4.87268L8.64233 4.87854C8.6518 4.88098 8.66225 4.88332 8.67261 4.88635C8.69347 4.8925 8.71666 4.89984 8.74097 4.90881C8.79008 4.92699 8.84666 4.95246 8.90894 4.98499C9.03351 5.05012 9.18445 5.14789 9.36011 5.29456C9.56314 5.46414 9.80329 5.70351 10.0808 6.03967C10.3562 5.63623 10.7133 5.13186 11.1296 4.6012C12.0857 3.38254 13.4401 1.89203 14.8416 1.23303L14.9119 1.20374ZM8.26831 6.33069C8.27182 6.33159 8.2762 6.3327 8.28003 6.33362C8.2818 6.33404 8.28405 6.33508 8.28589 6.33557H8.28882L8.24878 6.32483C8.25458 6.32654 8.26127 6.32885 8.26831 6.33069Z"
    fill="currentColor" />
</svg>