<svg viewBox="0 0 20 20" fill="none" xmlns="http://www.w3.org/2000/svg" id="icon">
  <path
    d="M4.13281 0.203918C4.58347 0.244833 4.95603 0.586564 5.0293 1.04083L6.7998 12.0203L16.0195 10.4158L17.2666 3.76544L17.291 3.66583C17.4344 3.18005 17.925 2.87251 18.4336 2.96759C18.9764 3.06937 19.3342 3.59176 19.2324 4.13458L17.8574 11.4676C17.7805 11.8777 17.457 12.1969 17.0459 12.2684L7.1709 13.9861C7.31537 14.2404 7.58745 14.408 7.89453 14.408H15.5L15.6025 14.4139H15.6055C15.6466 14.4119 15.6879 14.408 15.7295 14.408C17.1675 14.4082 18.3328 15.5745 18.333 17.0125C18.3328 18.4505 17.1675 19.6159 15.7295 19.616C14.2914 19.616 13.1252 18.4506 13.125 17.0125C13.125 16.8042 13.152 16.6022 13.1982 16.408H10.0098C10.056 16.6022 10.083 16.8042 10.083 17.0125C10.0828 18.4505 8.91748 19.6159 7.47949 19.616C6.04136 19.616 4.87518 18.4506 4.875 17.0125C4.87508 16.318 5.14857 15.6884 5.5918 15.2215C5.39185 14.9421 5.2389 14.6251 5.15039 14.2791L5.09766 14.0262L3.19043 2.20001H1.75C1.19772 2.20001 0.75 1.7523 0.75 1.20001C0.75 0.647727 1.19772 0.200012 1.75 0.200012H4.04199L4.13281 0.203918ZM7.47949 16.408C7.14592 16.408 6.87516 16.679 6.875 17.0125C6.87518 17.346 7.14593 17.616 7.47949 17.616C7.81291 17.6159 8.08283 17.3459 8.08301 17.0125C8.08284 16.6791 7.81291 16.4082 7.47949 16.408ZM15.7295 16.408C15.3959 16.408 15.1252 16.679 15.125 17.0125C15.1252 17.346 15.3959 17.616 15.7295 17.616C16.0629 17.6159 16.3328 17.3459 16.333 17.0125C16.3328 16.6791 16.0629 16.4082 15.7295 16.408ZM13.8848 1.40118C14.2468 1.04681 14.8259 1.01728 15.2236 1.34845C15.6476 1.70206 15.705 2.33345 15.3516 2.75763L10.7686 8.25763C10.5888 8.47314 10.3262 8.60318 10.0459 8.61603C9.76536 8.62875 9.49161 8.52252 9.29297 8.32404L7.45996 6.49103L7.3916 6.41486C7.07115 6.02216 7.09401 5.44315 7.45996 5.07697C7.82598 4.71095 8.40508 4.68755 8.79785 5.00763L8.87402 5.07697L9.93262 6.13556L13.8154 1.47638L13.8848 1.40118Z"
    fill="currentColor" />
</svg>