<svg viewBox="0 0 20 20" xmlns="http://www.w3.org/2000/svg" id="icon">
  <path fill-rule="evenodd" d="M12.5 5V0L17.5 5H12.5ZM11.25 0V5C11.25 5.69141 11.8086 6.25 12.5352 6.25H17.5V18.125C17.5 19.1605 16.6605 20 15.625 20H4.375C3.33945 20 2.5 19.1602 2.5 18.125V1.875C2.5 0.839453 3.33945 0 4.375 0H11.25ZM9.71297 7.72974L9.71284 7.7298C9.83115 7.98247 9.88992 8.25827 9.88461 8.53662C9.88402 9.13522 9.6588 9.62399 9.20451 9.97534L9.20053 9.97842L9.2005 9.97838C8.95124 10.1628 8.66819 10.2966 8.36781 10.3733V10.9086C8.36781 11.1248 8.19252 11.3001 7.9763 11.3001H7.39621C7.17998 11.3001 7.00469 11.1248 7.00469 10.9086V10.4649C6.5205 10.4327 6.09448 10.3414 5.73175 10.1852C5.58528 10.1221 5.5 9.9786 5.5 9.82999V9.24566C5.5 8.95619 5.79455 8.77939 6.04594 8.87909C6.25083 8.96034 6.46182 9.02633 6.67713 9.07642L6.68001 9.0771L6.68 9.07711C6.94894 9.14327 7.22488 9.17829 7.50219 9.18142C7.87564 9.18182 8.10379 9.11025 8.23128 9.00968L8.23361 9.00784L8.23363 9.00785C8.29577 8.96009 8.34513 8.89893 8.37804 8.82961C8.41094 8.76032 8.42659 8.68464 8.42392 8.60865L8.42372 8.60308L8.42379 8.59751C8.42469 8.52442 8.40943 8.45188 8.37891 8.38482C8.34838 8.31774 8.30322 8.25758 8.24624 8.20867L8.24122 8.20436L8.24128 8.20429C8.10455 8.08004 7.78579 7.90848 7.2428 7.69523L7.24108 7.69454C6.6695 7.46483 6.23402 7.1932 5.9671 6.86595L5.96525 6.86369L5.96527 6.86368C5.69937 6.52929 5.55886 6.11446 5.56832 5.68927C5.569 5.12522 5.77765 4.66185 6.2003 4.32652L6.20362 4.32388L6.20365 4.32391C6.44067 4.14275 6.71227 4.01191 7.00123 3.93854V3.39151C7.00123 3.17529 7.17652 3 7.39275 3H7.9737C8.18993 3 8.36522 3.17529 8.36522 3.39151V3.88308C8.75588 3.93406 9.13842 4.03395 9.50347 4.18038C9.707 4.26202 9.7949 4.49109 9.71722 4.68493L9.50998 5.20206C9.42816 5.40623 9.19855 5.49829 9.00098 5.42204C8.53556 5.2424 8.12882 5.15766 7.77749 5.15766C7.48279 5.15766 7.30032 5.22087 7.19096 5.31099L7.18944 5.31224L7.18944 5.31223C7.13548 5.35595 7.09288 5.41094 7.0646 5.47273C7.03633 5.5345 7.02303 5.60159 7.02553 5.66888L7.02582 5.6766L7.0256 5.68433C7.02292 5.77816 7.04555 5.87123 7.09146 5.95417C7.15526 6.04884 7.23999 6.12882 7.33981 6.18802C7.59287 6.33348 7.85779 6.45822 8.13188 6.56095C8.49855 6.69672 8.84686 6.87637 9.16889 7.09588L9.17422 7.09951L9.17417 7.09958C9.39975 7.26259 9.58323 7.47594 9.70926 7.72249L9.71297 7.72974ZM8.04989 6.78108C7.76324 6.67367 7.48614 6.54317 7.22144 6.39093C7.08842 6.31234 6.97543 6.20501 6.8911 6.07711C6.82147 5.95528 6.7868 5.81723 6.79079 5.67762C6.78971 5.64858 6.79053 5.61958 6.79322 5.59079C6.79052 5.61959 6.7897 5.6486 6.79078 5.67766C6.78679 5.81726 6.82146 5.95532 6.89109 6.07715C6.97542 6.20504 7.08841 6.31237 7.22143 6.39096C7.48613 6.54321 7.76323 6.67371 8.04988 6.78112C8.39886 6.91031 8.73027 7.08123 9.03658 7.29002C9.2323 7.43145 9.39113 7.6163 9.50009 7.82945C9.60351 8.05032 9.65466 8.29128 9.64969 8.53428C9.64969 8.59084 9.64749 8.64611 9.64307 8.7001C9.64749 8.6461 9.6497 8.59082 9.6497 8.53424C9.65467 8.29124 9.60352 8.05028 9.5001 7.82941C9.39114 7.61626 9.23231 7.43141 9.03659 7.28998C8.73028 7.08119 8.39887 6.91027 8.04989 6.78108ZM8.13289 10.9086V10.3155C8.13289 10.3018 8.13468 10.2884 8.13805 10.2757C8.13469 10.2884 8.1329 10.3018 8.1329 10.3155V10.9086C8.1329 10.9214 8.13136 10.9339 8.12844 10.9458C8.13135 10.9339 8.13289 10.9214 8.13289 10.9086ZM5.95934 9.09749C5.86611 9.06052 5.7634 9.11486 5.73988 9.20604C5.76338 9.11484 5.8661 9.06047 5.95935 9.09745C6.17509 9.18301 6.39723 9.25248 6.62389 9.30522C6.91074 9.37579 7.20504 9.41308 7.50076 9.41633C7.89625 9.41689 8.18825 9.34282 8.37677 9.19411C8.46811 9.12391 8.54125 9.03355 8.59024 8.93037C8.60249 8.90458 8.61314 8.87817 8.62217 8.85128C8.61314 8.87818 8.60249 8.90461 8.59023 8.93041C8.54124 9.03358 8.4681 9.12395 8.37676 9.19415C8.18824 9.34286 7.89624 9.41693 7.50075 9.41637C7.20503 9.41312 6.91073 9.37583 6.62388 9.30526C6.39722 9.25252 6.17508 9.18305 5.95934 9.09749ZM6.34629 4.51059C6.15397 4.66317 6.01273 4.84583 5.92257 5.05856C6.01273 4.84581 6.15397 4.66314 6.3463 4.51055C6.57037 4.33927 6.82933 4.21821 7.10495 4.15514C7.16768 4.14079 7.2172 4.09308 7.23177 4.03285C7.21721 4.0931 7.16768 4.14082 7.10494 4.15518C6.82932 4.21824 6.57036 4.33931 6.34629 4.51059ZM7.39275 3.23491C7.31909 3.23491 7.25731 3.28576 7.2406 3.35427C7.25732 3.28578 7.31909 3.23495 7.39274 3.23495H7.97369C8.06019 3.23495 8.1303 3.30506 8.1303 3.39155V3.95012C8.1303 4.03154 8.19273 4.09907 8.27359 4.10849C8.66599 4.1542 9.05028 4.25173 9.416 4.39844C9.47537 4.42225 9.51056 4.47938 9.51044 4.53975C9.51057 4.47937 9.47539 4.42222 9.41601 4.3984C9.05029 4.25169 8.666 4.15416 8.2736 4.10845C8.19273 4.09903 8.13031 4.0315 8.13031 3.95008V3.39151C8.13031 3.30502 8.06019 3.23491 7.9737 3.23491H7.39275ZM6.3 13C5.85817 13 5.5 13.3582 5.5 13.8C5.5 14.2418 5.85817 14.6 6.3 14.6H13.7C14.1418 14.6 14.5 14.2418 14.5 13.8C14.5 13.3582 14.1418 13 13.7 13H6.3ZM5.5 16.8C5.5 16.3582 5.85817 16 6.3 16H13.7C14.1418 16 14.5 16.3582 14.5 16.8C14.5 17.2418 14.1418 17.6 13.7 17.6H6.3C5.85817 17.6 5.5 17.2418 5.5 16.8Z"/>
</svg>
