<svg viewBox="0 0 20 20" xmlns="http://www.w3.org/2000/svg" id="icon">
  <path fill-rule="evenodd" d="M20 10C20 12.6522 18.9464 15.1957 17.0711 17.0711C15.1957 18.9464 12.6522 20 10 20C7.34784 20 4.8043 18.9464 2.92893 17.0711C1.05357 15.1957 0 12.6522 0 10C0 7.34784 1.05357 4.8043 2.92893 2.92893C4.8043 1.05357 7.34784 0 10 0C12.6522 0 15.1957 1.05357 17.0711 2.92893C18.9464 4.8043 20 7.34784 20 10ZM10 6.25C9.78037 6.24979 9.56457 6.30744 9.37431 6.41716C9.18405 6.52689 9.02606 6.6848 8.91625 6.875C8.83696 7.02235 8.72889 7.15227 8.59845 7.25708C8.46801 7.36188 8.31786 7.43943 8.1569 7.48513C7.99593 7.53082 7.82743 7.54374 7.66138 7.52311C7.49533 7.50248 7.33512 7.44872 7.19023 7.36501C7.04534 7.28131 6.91874 7.16937 6.81791 7.03584C6.71709 6.9023 6.64411 6.74987 6.60329 6.5876C6.56246 6.42533 6.55464 6.25652 6.58027 6.09117C6.6059 5.92582 6.66447 5.7673 6.7525 5.625C7.16527 4.91014 7.80238 4.35145 8.56503 4.03558C9.32768 3.7197 10.1732 3.6643 10.9706 3.87795C11.7679 4.0916 12.4725 4.56237 12.975 5.21725C13.4776 5.87213 13.75 6.67453 13.75 7.5C13.7502 8.27577 13.5099 9.03253 13.0622 9.66607C12.6145 10.2996 11.9813 10.7787 11.25 11.0375V11.25C11.25 11.5815 11.1183 11.8995 10.8839 12.1339C10.6495 12.3683 10.3315 12.5 10 12.5C9.66848 12.5 9.35054 12.3683 9.11612 12.1339C8.8817 11.8995 8.75 11.5815 8.75 11.25V10C8.75 9.66848 8.8817 9.35054 9.11612 9.11612C9.35054 8.8817 9.66848 8.75 10 8.75C10.3315 8.75 10.6495 8.6183 10.8839 8.38388C11.1183 8.14946 11.25 7.83152 11.25 7.5C11.25 7.16848 11.1183 6.85054 10.8839 6.61612C10.6495 6.3817 10.3315 6.25 10 6.25ZM10 16.25C10.3315 16.25 10.6495 16.1183 10.8839 15.8839C11.1183 15.6495 11.25 15.3315 11.25 15C11.25 14.6685 11.1183 14.3505 10.8839 14.1161C10.6495 13.8817 10.3315 13.75 10 13.75C9.66848 13.75 9.35054 13.8817 9.11612 14.1161C8.8817 14.3505 8.75 14.6685 8.75 15C8.75 15.3315 8.8817 15.6495 9.11612 15.8839C9.35054 16.1183 9.66848 16.25 10 16.25Z"/>
</svg>
