<svg viewBox="0 0 20 20" xmlns="http://www.w3.org/2000/svg" id="icon">
  <path fill-rule="evenodd" d="M11.2824 11.5H7.98347C7.46885 11.5 7.04981 11.0793 7.04981 10.5625C7.05026 10.3597 7.1157 10.1625 7.23645 10L13.0086 1.39825C13.1997 1.14105 13.479 1 13.7718 1C14.2864 1 14.7055 1.42075 14.7047 1.93755C14.7047 1.95924 14.7032 2.026 14.701 2.04766L14.0288 7.75H18.0665C18.5811 7.75 19 8.17075 19 8.68755C18.9995 8.89031 18.9341 9.08753 18.8133 9.25005L12.2885 18.6093C12.1032 18.859 11.8239 19 11.5311 19C11.0165 19 10.5975 18.5793 10.5975 18.0625C10.5975 18.0429 10.5983 17.9853 10.6013 17.9658L11.2824 11.5ZM1.7875 6.175C1.35258 6.175 1 6.52758 1 6.9625C1 7.39742 1.35258 7.75 1.7875 7.75H6.03824C6.47317 7.75 6.82574 7.39742 6.82574 6.9625C6.82574 6.52758 6.47317 6.175 6.03824 6.175H1.7875ZM1 10.3375C1 9.90258 1.35258 9.55 1.7875 9.55H4.46977C4.9047 9.55 5.25727 9.90258 5.25727 10.3375C5.25727 10.7724 4.9047 11.125 4.46977 11.125H1.7875C1.35258 11.125 1 10.7724 1 10.3375ZM1.7875 12.925C1.35258 12.925 1 13.2776 1 13.7125C1 14.1474 1.35258 14.5 1.7875 14.5H6.03824C6.47317 14.5 6.82574 14.1474 6.82574 13.7125C6.82574 13.2776 6.47317 12.925 6.03824 12.925H1.7875Z"/>
</svg>
