<svg viewBox="0 0 20 20" xmlns="http://www.w3.org/2000/svg" id="icon">
  <path fill-rule="evenodd" d="M7.42022 2.33462C7.63113 2.54894 7.74961 2.83958 7.74961 3.14263C7.74961 3.44568 7.63113 3.73632 7.42022 3.95064L4.84056 6.57125H11.1249C13.2135 6.57125 15.2166 7.41412 16.6934 8.91444C18.1703 10.4148 19 12.4496 19 14.5714V16.8571C19 17.1602 18.8815 17.4509 18.6705 17.6653C18.4595 17.8796 18.1734 18 17.875 18C17.5766 18 17.2905 17.8796 17.0795 17.6653C16.8685 17.4509 16.75 17.1602 16.75 16.8571V14.5714C16.75 13.0558 16.1573 11.6024 15.1024 10.5307C14.0475 9.45905 12.6168 8.857 11.1249 8.857H4.84056L7.42022 11.4776C7.52767 11.583 7.61338 11.7092 7.67234 11.8486C7.7313 11.988 7.76233 12.138 7.76363 12.2897C7.76493 12.4415 7.73646 12.592 7.6799 12.7324C7.62333 12.8729 7.5398 13.0005 7.43417 13.1078C7.32853 13.2151 7.20292 13.3 7.06466 13.3574C6.9264 13.4149 6.77826 13.4438 6.62888 13.4425C6.4795 13.4412 6.33188 13.4097 6.19462 13.3498C6.05737 13.2899 5.93323 13.2028 5.82945 13.0936L1.32939 8.52214C1.11848 8.30782 1 8.01718 1 7.71413C1 7.41108 1.11848 7.12044 1.32939 6.90612L5.82945 2.33462C6.04042 2.12036 6.32652 2 6.62483 2C6.92315 2 7.20925 2.12036 7.42022 2.33462Z"/>
</svg>
