<svg viewBox="0 0 20 20" xmlns="http://www.w3.org/2000/svg" id="icon">
  <path d="M1.40079 8.57193H1.03443C0.461182 8.57193 0 8.09432 0 7.50065V1.78718C0 1.3542 0.249985 0.9614 0.637896 0.796245C1.02581 0.63109 1.46975 0.720363 1.76715 1.02836L3.56015 2.88524C7.33581 -0.975826 13.4174 -0.962435 17.1715 2.92987C20.9428 6.83557 20.9428 13.165 17.1715 17.0707C13.4001 20.9764 7.2884 20.9764 3.51705 17.0707C2.97829 16.5128 2.97829 15.6066 3.51705 15.0487C4.05582 14.4907 4.93077 14.4907 5.46953 15.0487C8.16335 17.8385 12.5295 17.8385 15.2233 15.0487C17.9171 12.2589 17.9171 7.73723 15.2233 4.94744C12.5424 2.17105 8.21076 2.15766 5.51263 4.90281L7.28409 6.74183C7.58149 7.04982 7.66769 7.50958 7.50822 7.91131C7.34874 8.31304 6.96945 8.57193 6.55137 8.57193H1.40079Z"/>
</svg>
