<svg viewBox="0 0 20 20" xmlns="http://www.w3.org/2000/svg" id="icon">
  <path fill-rule="evenodd" d="M17.15 6C16.9755 5.69772 16.7249 5.44638 16.4232 5.27095C16.1214 5.09552 15.779 5.00211 15.43 5H13V2C13 1.73478 12.8946 1.48043 12.7071 1.29289C12.5196 1.10536 12.2652 1 12 1H2C1.46957 1 0.960859 1.21071 0.585786 1.58579C0.210714 1.96086 0 2.46957 0 3V14C0.000359742 14.3507 0.0929428 14.6952 0.268461 14.9988C0.44398 15.3025 0.696262 15.5546 1 15.73C0.964196 16.6583 1.29861 17.5627 1.92967 18.2444C2.56073 18.9261 3.43674 19.3292 4.365 19.365C5.29326 19.4008 6.19772 19.0664 6.87941 18.4353C7.56111 17.8043 7.9642 16.9283 8 16H11.1C11.2106 16.8367 11.6215 17.6047 12.2561 18.161C12.8908 18.7173 13.706 19.024 14.55 19.024C15.394 19.024 16.2092 18.7173 16.8439 18.161C17.4785 17.6047 17.8894 16.8367 18 16C18.5304 16 19.0391 15.7893 19.4142 15.4142C19.7893 15.0391 20 14.5304 20 14V11C19.9984 10.8176 19.9502 10.6386 19.86 10.48L17.15 6ZM13 7H15.43L17.23 10H13V7ZM4.5 17.9393C4.20333 17.9393 3.91332 17.8514 3.66664 17.6865C3.41997 17.5217 3.22771 17.2875 3.11418 17.0134C3.00065 16.7393 2.97094 16.4377 3.02882 16.1467C3.0867 15.8557 3.22956 15.5885 3.43934 15.3787C3.64912 15.1689 3.91639 15.026 4.20736 14.9682C4.49834 14.9103 4.79994 14.94 5.07403 15.0535C5.34811 15.1671 5.58238 15.3593 5.7472 15.606C5.91203 15.8527 6 16.1427 6 16.4393C6 16.8372 5.84196 17.2187 5.56066 17.5C5.27936 17.7813 4.89782 17.9393 4.5 17.9393ZM14.5 18C14.2033 18 13.9133 17.912 13.6666 17.7472C13.42 17.5824 13.2277 17.3481 13.1142 17.074C13.0006 16.7999 12.9709 16.4983 13.0288 16.2074C13.0867 15.9164 13.2296 15.6491 13.4393 15.4393C13.6491 15.2296 13.9164 15.0867 14.2074 15.0288C14.4983 14.9709 14.7999 15.0007 15.074 15.1142C15.3481 15.2277 15.5824 15.42 15.7472 15.6666C15.912 15.9133 16 16.2033 16 16.5C16 16.8978 15.842 17.2794 15.5607 17.5607C15.2794 17.842 14.8978 18 14.5 18ZM5 3H7V9H5V3ZM7 11H5V13H7V11Z"/>
</svg>
