<svg viewBox="0 0 10 10" xmlns="http://www.w3.org/2000/svg">
<path d="M5 0C6.30767 0 7.4977 0.502423 8.38867 1.32422C7.94357 1.5608 7.52363 1.87732 7.14648 2.20996C6.61503 2.6787 6.11912 3.22139 5.69922 3.72754C5.4101 4.07608 5.15154 4.41316 4.9375 4.70508C4.75505 4.51141 4.42524 4.20787 4.25977 4.09668C4.00079 3.92262 3.73438 3.73915 3.41992 3.72754C2.97466 3.7277 2.5762 4.06767 2.57617 4.49512C2.57617 5.03355 2.99115 5.1342 3.33496 5.36523C3.46362 5.45177 3.89762 5.84869 4.25977 6.45703C4.40146 6.6951 4.66365 6.84404 4.94922 6.84766C5.2348 6.85121 5.50127 6.70899 5.64941 6.47461C5.65132 6.47171 5.85992 6.1539 6.00977 5.94043C6.24273 5.60853 6.57304 5.16001 6.96094 4.69238C7.35034 4.22292 7.7883 3.7456 8.2373 3.34961C8.64934 2.98622 9.03994 2.75749 9.36133 2.55664C9.76707 3.27933 10 4.11221 10 5C10 7.76142 7.76142 10 5 10C2.23858 10 0 7.76142 0 5C0 2.23858 2.23858 0 5 0Z" />
</svg>
