<svg  viewBox="0 0 17 16" xmlns="http://www.w3.org/2000/svg">
<path d="M8.98373 0C11.0756 0 12.9792 0.803738 14.4046 2.11816C13.6926 2.49668 13.0206 3.00304 12.4173 3.53516C11.5667 4.28536 10.7739 5.15479 10.1019 5.96484C9.63933 6.52247 9.22658 7.06127 8.88412 7.52832C8.59226 7.21846 8.06401 6.73265 7.79916 6.55469C7.38492 6.27627 6.95935 5.98353 6.45639 5.96484C5.74374 5.96484 5.1058 6.50828 5.1058 7.19238C5.10587 8.05377 5.7696 8.21532 6.31967 8.58496C6.52589 8.7238 7.21996 9.35896 7.79916 10.332C8.02594 10.7129 8.44577 10.9503 8.90268 10.9561C9.35961 10.9617 9.78576 10.7344 10.0228 10.3594C10.0258 10.3548 10.3602 9.84645 10.5999 9.50488C10.9727 8.97385 11.4998 8.25602 12.1205 7.50781C12.7435 6.75665 13.445 5.99398 14.1634 5.36035C14.8228 4.77877 15.4479 4.41224 15.9622 4.09082C16.6113 5.24705 16.9837 6.57967 16.9837 8C16.9837 12.4183 13.402 16 8.98373 16C4.56546 16 0.983734 12.4183 0.983734 8C0.983734 3.58172 4.56546 0 8.98373 0Z"/>
</svg>
