<svg viewBox="0 0 20 20" xmlns="http://www.w3.org/2000/svg" id="icon">
  <path d="M7.42037 10.3349C7.3166 10.2257 7.19246 10.1386 7.0552 10.0787C6.91795 10.0188 6.77033 9.98732 6.62095 9.986C6.47157 9.98468 6.32344 10.0136 6.18518 10.0711C6.04692 10.1285 5.92131 10.2134 5.81568 10.3207C5.71005 10.428 5.62652 10.5556 5.56995 10.6961C5.51338 10.8365 5.48492 10.987 5.48622 11.1387C5.48752 11.2905 5.51855 11.4405 5.57751 11.5799C5.63647 11.7193 5.72218 11.8454 5.82963 11.9509L9.20463 15.3794C9.41559 15.5937 9.70169 15.714 10 15.714C10.2983 15.714 10.5844 15.5937 10.7954 15.3794L14.1704 11.9509C14.3753 11.7353 14.4887 11.4466 14.4861 11.147C14.4836 10.8473 14.3653 10.5607 14.1567 10.3488C13.9481 10.1369 13.6659 10.0167 13.371 10.0141C13.076 10.0115 12.7918 10.1267 12.5796 10.3349L11.125 11.8126V5.42857H16.75C17.3467 5.42857 17.919 5.66939 18.341 6.09804C18.7629 6.5267 19 7.10808 19 7.71429V15.7143C19 16.3205 18.7629 16.9019 18.341 17.3305C17.919 17.7592 17.3467 18 16.75 18H3.25C2.65326 18 2.08097 17.7592 1.65901 17.3305C1.23705 16.9019 1 16.3205 1 15.7143V7.71429C1 7.10808 1.23705 6.5267 1.65901 6.09804C2.08097 5.66939 2.65326 5.42857 3.25 5.42857H8.875V11.8126L7.42037 10.3349ZM8.875 3.14286C8.875 2.83975 8.99353 2.54906 9.2045 2.33474C9.41548 2.12041 9.70163 2 10 2C10.2984 2 10.5845 2.12041 10.7955 2.33474C11.0065 2.54906 11.125 2.83975 11.125 3.14286V5.42857H8.875V3.14286Z"/>
</svg>
