<svg viewBox="0 0 20 20" fill="none" xmlns="http://www.w3.org/2000/svg" id="icon">
  <path
    d="M12.7554 1.45752C13.4224 1.46702 14.0586 1.7395 14.5269 2.21436L14.5278 2.21338L17.7866 5.47217H17.7856C18.2605 5.94035 18.5329 6.57665 18.5425 7.24365V16.0034C18.5424 16.6766 18.2744 17.3223 17.7983 17.7983C17.3223 18.2744 16.6766 18.5424 16.0034 18.5425H3.99658C3.32339 18.5425 2.67774 18.2743 2.20166 17.7983C1.72562 17.3223 1.45759 16.6766 1.45752 16.0034V3.99658C1.45752 3.32327 1.72556 2.67776 2.20166 2.20166C2.67776 1.72556 3.32327 1.45752 3.99658 1.45752H12.7554ZM3.99658 3.104C3.76001 3.104 3.53202 3.19747 3.36475 3.36475C3.19747 3.53202 3.104 3.76001 3.104 3.99658V16.0034C3.10408 16.2398 3.19768 16.4671 3.36475 16.6343C3.53203 16.8016 3.76001 16.896 3.99658 16.896H4.88818V11.7144C4.88837 11.2689 5.06544 10.8419 5.38037 10.5269C5.69555 10.2117 6.12313 10.0348 6.56885 10.0347H13.4302C13.876 10.0347 14.3044 10.2116 14.6196 10.5269C14.9344 10.8419 15.1116 11.269 15.1118 11.7144V16.896H16.0034C16.2399 16.8959 16.4671 16.8015 16.6343 16.6343C16.8015 16.4671 16.8959 16.2399 16.896 16.0034V7.26709L16.8892 7.1792C16.8662 6.97668 16.7751 6.78706 16.6284 6.64307L13.3569 3.37158C13.2128 3.22467 13.0226 3.13277 12.8198 3.10986L12.7329 3.104H6.53467V5.71143C6.53477 5.72011 6.53845 5.72858 6.54443 5.73486C6.55079 5.74122 6.55987 5.74552 6.56885 5.74561H12.5728C13.0273 5.74579 13.396 6.1152 13.396 6.56982C13.3956 7.02409 13.0271 7.39191 12.5728 7.39209H6.56885C6.12321 7.392 5.69553 7.21497 5.38037 6.8999C5.06537 6.58476 4.88828 6.157 4.88818 5.71143V3.104H3.99658ZM6.54443 11.6909C6.53833 11.6972 6.53485 11.7056 6.53467 11.7144V16.896H13.4644V11.7144C13.4642 11.7056 13.4608 11.6972 13.4546 11.6909C13.4482 11.6846 13.4392 11.6802 13.4302 11.6802H6.56885C6.55987 11.6803 6.55079 11.6846 6.54443 11.6909Z"
    fill="currentColor" />
</svg>