<svg viewBox="0 0 20 20" xmlns="http://www.w3.org/2000/svg" id="icon">
  <path d="M8.75 8.75C8.75 8.08696 9.01339 7.45107 9.48223 6.98223C9.95107 6.51339 10.587 6.25 11.25 6.25C11.913 6.25 12.5489 6.51339 13.0178 6.98223C13.4866 7.45107 13.75 8.08696 13.75 8.75C13.75 9.41304 13.4866 10.0489 13.0178 10.5178C12.5489 10.9866 11.913 11.25 11.25 11.25C10.587 11.25 9.95107 10.9866 9.48223 10.5178C9.01339 10.0489 8.75 9.41304 8.75 8.75Z"/>
  <path fill-rule="evenodd" d="M10 20C12.6522 20 15.1957 18.9464 17.0711 17.0711C18.9464 15.1957 20 12.6522 20 10C20 7.34784 18.9464 4.8043 17.0711 2.92893C15.1957 1.05357 12.6522 0 10 0C7.34784 0 4.8043 1.05357 2.92893 2.92893C1.05357 4.8043 0 7.34784 0 10C0 12.6522 1.05357 15.1957 2.92893 17.0711C4.8043 18.9464 7.34784 20 10 20ZM11.25 3.75C10.3683 3.74987 9.5023 3.98288 8.73973 4.4254C7.97716 4.86793 7.34515 5.50422 6.9078 6.26977C6.47046 7.03532 6.24331 7.90291 6.2494 8.78456C6.2555 9.6662 6.49461 10.5306 6.9425 11.29L4.11625 14.115C3.8817 14.3494 3.74986 14.6673 3.74975 14.9989C3.74969 15.1631 3.78197 15.3257 3.84475 15.4774C3.90753 15.6291 3.99957 15.767 4.11562 15.8831C4.23168 15.9993 4.36947 16.0914 4.52114 16.1543C4.67281 16.2172 4.83537 16.2496 4.99956 16.2496C5.33115 16.2497 5.6492 16.1181 5.88375 15.8837L8.71 13.0575C9.37231 13.4479 10.1157 13.6802 10.8824 13.7366C11.6491 13.7929 12.4185 13.6717 13.1308 13.3823C13.843 13.0929 14.4789 12.6432 14.9891 12.0681C15.4993 11.493 15.87 10.808 16.0724 10.0664C16.2748 9.32469 16.3034 8.54635 16.1561 7.79181C16.0088 7.03728 15.6895 6.32688 15.2229 5.71583C14.7564 5.10478 14.1553 4.60954 13.4662 4.26859C12.7772 3.92765 12.0188 3.75019 11.25 3.75Z"/>
</svg>
