<svg viewBox="0 0 20 20" fill="none" xmlns="http://www.w3.org/2000/svg" id="icon">
  <g clip-path="url(#clip0_3574_15)">
    <path
      d="M0.186401 11.3693C0.462051 11.0542 0.941527 11.0216 1.25671 11.297L4.50183 14.1359L4.97156 13.6447C5.26073 13.3419 5.74094 13.3312 6.04382 13.6202C6.34658 13.9094 6.35735 14.3896 6.06824 14.6925L5.09851 15.7091C4.81837 16.0026 4.35624 16.0237 4.05066 15.757L0.258667 12.4386C-0.0558463 12.163 -0.0884306 11.6843 0.186401 11.3693ZM18.6747 4.25598C18.9524 3.94283 19.4307 3.91401 19.744 4.19153C20.0572 4.46916 20.0867 4.94744 19.8094 5.26086L10.5673 15.6876C10.4317 15.8406 10.2402 15.9328 10.036 15.9425C9.83184 15.9522 9.63177 15.8798 9.4823 15.7404L5.92761 12.422C5.62181 12.1363 5.60519 11.6568 5.8905 11.3507C6.17625 11.0446 6.6566 11.0279 6.96277 11.3136L9.94812 14.0997L18.6747 4.25598ZM13.953 4.2345C14.2422 3.93156 14.7233 3.92093 15.0262 4.21008C15.3289 4.49916 15.3404 4.97943 15.0516 5.28235L9.30359 11.3029C9.01455 11.6055 8.53522 11.6169 8.2323 11.3282C7.92942 11.0391 7.91793 10.5589 8.20691 10.256L13.953 4.2345Z"
      fill="currentColor" />
  </g>
  <defs>
    <clipPath id="clip0_3574_15">
      <rect width="20" height="20" fill="white" />
    </clipPath>
  </defs>
</svg>