<svg viewBox="0 0 20 20" fill="none" xmlns="http://www.w3.org/2000/svg" id="icon">
  <path
    d="M10 0.0478516C12.134 0.0478513 13.8153 0.0463748 15.127 0.222656C16.4616 0.402088 17.5334 0.778808 18.377 1.62207C19.2204 2.46554 19.5979 3.53745 19.7773 4.87207C19.9537 6.18376 19.9512 7.86577 19.9512 10C19.9512 12.1339 19.9536 13.8153 19.7773 15.127C19.5979 16.4617 19.2204 17.5334 18.377 18.377C17.5334 19.2205 16.4618 19.5979 15.127 19.7773C13.8153 19.9536 12.134 19.9512 10 19.9512C7.86572 19.9512 6.18378 19.9537 4.87207 19.7773C3.5374 19.5979 2.46556 19.2204 1.62207 18.377C0.778808 17.5334 0.402088 16.4616 0.222656 15.127C0.0463888 13.8153 0.0478513 12.134 0.0478516 10C0.0478514 7.86572 0.0463148 6.18378 0.222656 4.87207C0.402134 3.53741 0.778592 2.46555 1.62207 1.62207C2.46557 0.778607 3.53738 0.402122 4.87207 0.222656C6.1838 0.0463114 7.86566 0.0478514 10 0.0478516ZM10 1.64746C7.82038 1.64746 6.26532 1.64892 5.08496 1.80762C3.92779 1.96323 3.25058 2.25726 2.75391 2.75391C2.25725 3.25057 1.96324 3.92783 1.80762 5.08496C1.64893 6.2653 1.64746 7.82045 1.64746 10C1.64746 12.1792 1.64899 13.7338 1.80762 14.9141C1.96319 16.0712 2.25736 16.7494 2.75391 17.2461C3.25054 17.7425 3.92812 18.0358 5.08496 18.1914C6.26532 18.3501 7.82038 18.3516 10 18.3516C12.1794 18.3516 13.7338 18.3501 14.9141 18.1914C16.0715 18.0358 16.7493 17.7418 17.2461 17.2451C17.7425 16.7484 18.0359 16.071 18.1914 14.9141C18.35 13.7338 18.3516 12.1793 18.3516 10C18.3516 7.82045 18.3501 6.2653 18.1914 5.08496C18.0358 3.92818 17.7425 3.25052 17.2461 2.75391C16.7494 2.25736 16.0712 1.96319 14.9141 1.80762C13.7338 1.64897 12.1793 1.64746 10 1.64746ZM13.3721 11.1768C14.5842 11.1769 15.5664 12.1599 15.5664 13.3721C15.5662 14.5841 14.5841 15.5663 13.3721 15.5664C12.4238 15.5663 11.6184 14.9642 11.3115 14.1221H5.18262C4.7686 14.1219 4.43275 13.7861 4.43262 13.3721C4.43262 12.9579 4.76852 12.6222 5.18262 12.6221H11.3115C11.6183 11.7796 12.4237 11.1769 13.3721 11.1768ZM13.3721 12.6768C12.9883 12.6769 12.6768 12.9883 12.6768 13.3721C12.6769 13.7557 12.9885 14.0663 13.3721 14.0664C13.7557 14.0663 14.0662 13.7557 14.0664 13.3721C14.0664 12.9883 13.7558 12.6769 13.3721 12.6768ZM6.62793 4.43359C7.5762 4.43371 8.38182 5.03565 8.68848 5.87793H14.8164C15.2304 5.87806 15.5663 6.21391 15.5664 6.62793C15.5664 7.04206 15.2305 7.3778 14.8164 7.37793H8.68848C8.382 8.22037 7.57645 8.82313 6.62793 8.82324C5.41598 8.82311 4.43299 7.8408 4.43262 6.62891C4.43262 5.4167 5.41575 4.43373 6.62793 4.43359ZM6.62793 5.93359C6.24418 5.93373 5.93262 6.24512 5.93262 6.62891C5.93299 7.01237 6.24441 7.32311 6.62793 7.32324C7.01144 7.3231 7.32189 7.01236 7.32227 6.62891C7.32227 6.24513 7.01167 5.93374 6.62793 5.93359Z"
    fill="currentColor" />
</svg>