<svg viewBox="0 0 20 20" xmlns="http://www.w3.org/2000/svg" id="icon">
  <path fill-rule="evenodd" d="M10.1362 0.123328C10.0587 0.0541395 9.94127 0.0541466 9.86384 0.123345C7.50093 2.23482 4.49056 3.43473 1.3542 3.51489C1.25736 3.51736 1.17507 3.58765 1.16042 3.68342C1.05407 4.37882 1 5.09424 1 5.82053C1 11.8096 4.72509 18.0498 9.9321 19.9752C9.97594 19.9914 10.0241 19.9914 10.0679 19.9752C15.2749 18.0498 19 11.8096 19 5.82053C19 5.09315 18.945 4.37962 18.8394 3.68266C18.8248 3.58672 18.7424 3.51622 18.6454 3.51375C15.5094 3.43381 12.4991 2.23432 10.1362 0.123328ZM11.125 15.0302C11.125 15.3355 11.0065 15.6284 10.7955 15.8442C10.5845 16.0601 10.2984 16.1814 10 16.1814C9.70163 16.1814 9.41548 16.0601 9.2045 15.8442C8.99353 15.6284 8.875 15.3355 8.875 15.0302C8.875 14.7249 8.99353 14.4321 9.2045 14.2162C9.41548 14.0003 9.70163 13.879 10 13.879C10.2984 13.879 10.5845 14.0003 10.7955 14.2162C11.0065 14.4321 11.125 14.7249 11.125 15.0302ZM11.125 5.82053C11.125 5.51521 11.0065 5.22239 10.7955 5.0065C10.5845 4.7906 10.2984 4.66931 10 4.66931C9.70163 4.66931 9.41548 4.7906 9.2045 5.0065C8.99353 5.22239 8.875 5.51521 8.875 5.82053V10.4254C8.875 10.7307 8.99353 11.0235 9.2045 11.2394C9.41548 11.4553 9.70163 11.5766 10 11.5766C10.2984 11.5766 10.5845 11.4553 10.7955 11.2394C11.0065 11.0235 11.125 10.7307 11.125 10.4254V5.82053Z"/>
</svg>
