<svg viewBox="0 0 20 20" xmlns="http://www.w3.org/2000/svg" id="icon">
  <path d="M7.25107 14.8842C7.25107 14.8182 7.18499 14.7521 7.08588 14.7521C6.98677 14.7521 6.9207 14.8182 6.9207 14.8842C6.9207 14.9503 6.98677 15.0164 7.08588 14.9833C7.18499 14.9833 7.25107 14.9503 7.25107 14.8842ZM6.22694 14.719C6.22694 14.7851 6.29301 14.8842 6.39212 14.8842C6.45819 14.9173 6.5573 14.8842 6.59034 14.8182C6.59034 14.7521 6.5573 14.686 6.45819 14.653C6.35908 14.6199 6.25997 14.653 6.22694 14.719ZM7.71358 14.686C7.61447 14.686 7.54839 14.7521 7.54839 14.8512C7.54839 14.9173 7.6475 14.9503 7.74661 14.9173C7.84572 14.8842 7.9118 14.8512 7.87876 14.7851C7.87876 14.719 7.77965 14.653 7.71358 14.686ZM9.86095 2C5.30191 2 1.80005 5.50187 1.80005 10.0609C1.80005 13.7279 4.07957 16.8664 7.38321 17.9897C7.81269 18.0557 7.94483 17.7914 7.94483 17.5932C7.94483 17.362 7.94483 16.2387 7.94483 15.545C7.94483 15.545 5.63228 16.0405 5.13673 14.5539C5.13673 14.5539 4.77333 13.5958 4.24475 13.3645C4.24475 13.3645 3.48491 12.836 4.27778 12.836C4.27778 12.836 5.1037 12.902 5.56621 13.6949C6.29301 14.9833 7.48232 14.6199 7.97787 14.3887C8.04394 13.8601 8.24216 13.4967 8.50645 13.2654C6.65641 13.0672 4.77333 12.8029 4.77333 9.63143C4.77333 8.7064 5.03762 8.27693 5.56621 7.68227C5.4671 7.45102 5.20281 6.59207 5.66532 5.43579C6.32605 5.23757 7.94483 6.32778 7.94483 6.32778C8.60556 6.12956 9.29933 6.06349 9.99309 6.06349C10.7199 6.06349 11.4137 6.12956 12.0744 6.32778C12.0744 6.32778 13.6601 5.20454 14.3539 5.43579C14.8164 6.59207 14.5191 7.45102 14.453 7.68227C14.9816 8.27693 15.312 8.7064 15.312 9.63143C15.312 12.8029 13.3628 13.0672 11.5128 13.2654C11.8101 13.5297 12.0744 14.0253 12.0744 14.8182C12.0744 15.9084 12.0414 17.2959 12.0414 17.5602C12.0414 17.7914 12.2065 18.0557 12.636 17.9566C15.9397 16.8664 18.1861 13.7279 18.1861 10.0609C18.1861 5.50187 14.453 2 9.86095 2ZM5.00459 13.3976C4.93851 13.4306 4.97155 13.5297 5.00459 13.5958C5.07066 13.6288 5.13673 13.6619 5.20281 13.6288C5.23584 13.5958 5.23584 13.4967 5.16977 13.4306C5.1037 13.3976 5.03762 13.3645 5.00459 13.3976ZM4.64119 13.1333C4.60815 13.1994 4.64119 13.2324 4.70726 13.2654C4.77333 13.2985 4.8394 13.2985 4.87244 13.2324C4.87244 13.1994 4.8394 13.1663 4.77333 13.1333C4.70726 13.1003 4.67422 13.1003 4.64119 13.1333ZM5.69835 14.3226C5.66532 14.3556 5.66532 14.4548 5.76443 14.5208C5.8305 14.5869 5.92961 14.6199 5.96264 14.5539C5.99568 14.5208 5.99568 14.4217 5.92961 14.3556C5.86353 14.2896 5.76443 14.2565 5.69835 14.3226ZM5.33495 13.8271C5.26888 13.8601 5.26888 13.9592 5.33495 14.0253C5.40102 14.0913 5.4671 14.1244 5.53317 14.0913C5.56621 14.0583 5.56621 13.9592 5.53317 13.8931C5.4671 13.8271 5.40102 13.794 5.33495 13.8271Z"/>
</svg>
