<svg viewBox="0 0 20 20" xmlns="http://www.w3.org/2000/svg" id="icon">
  <path d="M17.9648 5.97108C18.7476 5.39277 19.4521 4.6988 20 3.88916C19.2955 4.19759 18.4736 4.42892 17.6517 4.50602C18.5127 4.00482 19.1389 3.23373 19.4521 2.26988C18.6693 2.73253 17.7691 3.07952 16.8689 3.27229C16.0861 2.46265 15.0294 2 13.8552 2C11.5851 2 9.7456 3.81205 9.7456 6.04819C9.7456 6.35663 9.78474 6.66506 9.86301 6.97349C6.45793 6.78072 3.40509 5.16145 1.36986 2.73253C1.01761 3.31084 0.821918 4.00482 0.821918 4.7759C0.821918 6.16386 1.52642 7.39759 2.66145 8.13012C1.99609 8.09157 1.33072 7.93735 0.782779 7.62892V7.66747C0.782779 9.63373 2.19178 11.253 4.07045 11.6386C3.75734 11.7157 3.36595 11.7928 3.0137 11.7928C2.73973 11.7928 2.50489 11.7542 2.23092 11.7157C2.73973 13.3349 4.26614 14.4916 6.06654 14.5301C4.65753 15.6096 2.89628 16.2651 0.978474 16.2651C0.626223 16.2651 0.313112 16.2265 0 16.188C1.80039 17.3446 3.95303 18 6.30137 18C13.8552 18 17.9648 11.8699 17.9648 6.51084C17.9648 6.31807 17.9648 6.16386 17.9648 5.97108Z"/>
</svg>
