<svg xmlns="http://www.w3.org/2000/svg" viewBox="0 0 20 20">
  <mask id="mask0_3227_19" style="mask-type:alpha" maskUnits="userSpaceOnUse" x="0" y="0" width="20" height="20">
    <rect width="20" height="20"/>
  </mask>
  <g mask="url(#mask0_3227_19)">
    <path d="M0 18.75V4C0 3.83333 0.0333333 3.68333 0.1 3.55C0.166667 3.41667 0.266667 3.3 0.4 3.2L4.4 0.2C4.58333 0.0666667 4.78333 0 5 0C5.21667 0 5.41667 0.0666667 5.6 0.2L9.6 3.2C9.73333 3.3 9.83333 3.41667 9.9 3.55C9.96667 3.68333 10 3.83333 10 4V5.75H19C19.2833 5.75 19.5208 5.84583 19.7125 6.0375C19.9042 6.22917 20 6.46667 20 6.75V18.75C20 19.0333 19.9042 19.2708 19.7125 19.4625C19.5208 19.6542 19.2833 19.75 19 19.75H1C0.716667 19.75 0.479167 19.6542 0.2875 19.4625C0.0958333 19.2708 0 19.0333 0 18.75ZM2 17.75H4V15.75H2V17.75ZM2 13.75H4V11.75H2V13.75ZM2 9.75H4V7.75H2V9.75ZM2 5.75H4V3.75H2V5.75ZM6 5.75H8V3.75H6V5.75ZM6 17.75H18V7.75H6V17.75ZM13 9.75H15C15.2833 9.75 15.5208 9.84583 15.7125 10.0375C15.9042 10.2292 16 10.4667 16 10.75C16 11.0333 15.9042 11.2708 15.7125 11.4625C15.5208 11.6542 15.2833 11.75 15 11.75H13C12.7167 11.75 12.4792 11.6542 12.2875 11.4625C12.0958 11.2708 12 11.0333 12 10.75C12 10.4667 12.0958 10.2292 12.2875 10.0375C12.4792 9.84583 12.7167 9.75 13 9.75ZM13 13.75H15C15.2833 13.75 15.5208 13.8458 15.7125 14.0375C15.9042 14.2292 16 14.4667 16 14.75C16 15.0333 15.9042 15.2708 15.7125 15.4625C15.5208 15.6542 15.2833 15.75 15 15.75H13C12.7167 15.75 12.4792 15.6542 12.2875 15.4625C12.0958 15.2708 12 15.0333 12 14.75C12 14.4667 12.0958 14.2292 12.2875 14.0375C12.4792 13.8458 12.7167 13.75 13 13.75ZM10 10.75C10 11.0333 9.90417 11.2708 9.7125 11.4625C9.52083 11.6542 9.28333 11.75 9 11.75C8.71667 11.75 8.47917 11.6542 8.2875 11.4625C8.09583 11.2708 8 11.0333 8 10.75C8 10.4667 8.09583 10.2292 8.2875 10.0375C8.47917 9.84583 8.71667 9.75 9 9.75C9.28333 9.75 9.52083 9.84583 9.7125 10.0375C9.90417 10.2292 10 10.4667 10 10.75ZM9 15.75C8.71667 15.75 8.47917 15.6542 8.2875 15.4625C8.09583 15.2708 8 15.0333 8 14.75C8 14.4667 8.09583 14.2292 8.2875 14.0375C8.47917 13.8458 8.71667 13.75 9 13.75C9.28333 13.75 9.52083 13.8458 9.7125 14.0375C9.90417 14.2292 10 14.4667 10 14.75C10 15.0333 9.90417 15.2708 9.7125 15.4625C9.52083 15.6542 9.28333 15.75 9 15.75Z" />
  </g>
</svg>