<svg viewBox="0 0 20 20" xmlns="http://www.w3.org/2000/svg" id="icon">
  <path d="M8.84794 1.8246C9.21113 0.725132 10.7886 0.725132 11.1505 1.8246L12.4459 5.75453C12.525 5.99387 12.6789 6.20241 12.8854 6.35035C13.092 6.49829 13.3407 6.57805 13.596 6.57824H17.7872C18.9603 6.57824 19.4469 8.05852 18.499 8.73898L15.1093 11.1671C14.9023 11.3152 14.7482 11.5241 14.669 11.7638C14.5898 12.0036 14.5897 12.2619 14.6686 12.5018L15.964 16.4317C16.3272 17.5312 15.05 18.4468 14.0996 17.7663L10.7099 15.3382C10.5031 15.1902 10.2541 15.1104 9.99864 15.1104C9.74312 15.1104 9.49416 15.1902 9.28739 15.3382L5.89765 17.7663C4.94853 18.4468 3.67253 17.5312 4.03451 16.4317L5.32987 12.5018C5.40877 12.2619 5.40863 12.0036 5.32947 11.7638C5.2503 11.5241 5.09618 11.3152 4.8892 11.1671L1.50067 8.74017C0.552757 8.05972 1.04064 6.57943 2.21252 6.57943H6.40248C6.65798 6.5795 6.90695 6.49985 7.11375 6.35189C7.32055 6.20394 7.47458 5.99525 7.55378 5.75572L8.84915 1.8258L8.84794 1.8246Z"/>
</svg>
