<svg viewBox="0 0 20 20" xmlns="http://www.w3.org/2000/svg" id="icon">
  <path fill-rule="evenodd" d="M10 20C12.6522 20 15.1957 18.9464 17.0711 17.0711C18.9464 15.1957 20 12.6522 20 10C20 7.34784 18.9464 4.8043 17.0711 2.92893C15.1957 1.05357 12.6522 0 10 0C7.34784 0 4.8043 1.05357 2.92893 2.92893C1.05357 4.8043 0 7.34784 0 10C0 12.6522 1.05357 15.1957 2.92893 17.0711C4.8043 18.9464 7.34784 20 10 20ZM7.5 6.25C7.16848 6.25 6.85054 6.3817 6.61612 6.61612C6.3817 6.85054 6.25 7.16848 6.25 7.5V12.5C6.25 12.8315 6.3817 13.1495 6.61612 13.3839C6.85054 13.6183 7.16848 13.75 7.5 13.75H12.5C12.8315 13.75 13.1495 13.6183 13.3839 13.3839C13.6183 13.1495 13.75 12.8315 13.75 12.5V7.5C13.75 7.16848 13.6183 6.85054 13.3839 6.61612C13.1495 6.3817 12.8315 6.25 12.5 6.25H7.5Z"/>
</svg>
