<svg viewBox="0 0 20 20" fill="none" xmlns="http://www.w3.org/2000/svg" id="icon">
  <g clip-path="url(#clip0_3230_160)">
    <path
      d="M3.57429 18.0896C3.07248 18.0896 2.6429 17.9109 2.28555 17.5535C1.9282 17.1962 1.74952 16.7666 1.74952 16.2648V9.01135C1.39977 8.69201 1.12986 8.28144 0.939781 7.77963C0.749701 7.27782 0.745899 6.73039 0.928376 6.13734L1.88638 3.03523C2.00803 2.63987 2.22472 2.31293 2.53645 2.05442C2.84818 1.79591 3.20934 1.66666 3.61991 1.66666H16.302C16.7126 1.66666 17.07 1.79211 17.3741 2.04301C17.6782 2.29392 17.8987 2.62466 18.0356 3.03523L18.9936 6.13734C19.1761 6.73039 19.1723 7.27022 18.9822 7.75682C18.7921 8.24342 18.5222 8.6616 18.1724 9.01135V16.2648C18.1724 16.7666 17.9938 17.1962 17.6364 17.5535C17.2791 17.9109 16.8495 18.0896 16.3477 18.0896H3.57429ZM11.9682 8.05334C12.3788 8.05334 12.6905 7.91269 12.9034 7.63137C13.1163 7.35005 13.1999 7.03452 13.1543 6.68477L12.6525 3.49142H10.8734V6.86725C10.8734 7.18658 10.9798 7.4641 11.1927 7.6998C11.4056 7.9355 11.6641 8.05334 11.9682 8.05334ZM7.8625 8.05334C8.21224 8.05334 8.49736 7.9355 8.71786 7.6998C8.93835 7.4641 9.04859 7.18658 9.04859 6.86725V3.49142H7.26945L6.76763 6.68477C6.70681 7.04972 6.78664 7.36906 7.00714 7.64277C7.22763 7.91649 7.51275 8.05334 7.8625 8.05334ZM3.80239 8.05334C4.0761 8.05334 4.3156 7.9545 4.52089 7.75682C4.72617 7.55914 4.85163 7.30823 4.89725 7.0041L5.39906 3.49142H3.61991L2.70753 6.54791C2.61629 6.85204 2.66571 7.17898 2.85579 7.52872C3.04587 7.87847 3.3614 8.05334 3.80239 8.05334ZM16.1196 8.05334C16.5606 8.05334 16.8799 7.87847 17.0776 7.52872C17.2753 7.17898 17.3209 6.85204 17.2144 6.54791L16.2564 3.49142H14.5229L15.0247 7.0041C15.0703 7.30823 15.1958 7.55914 15.4011 7.75682C15.6064 7.9545 15.8459 8.05334 16.1196 8.05334ZM3.57429 16.2648H16.3477V9.83249C16.2716 9.86291 16.2222 9.87811 16.1994 9.87811H16.1196C15.709 9.87811 15.3478 9.80968 15.0361 9.67283C14.7244 9.53597 14.4165 9.31548 14.1123 9.01135C13.8386 9.28506 13.5269 9.49795 13.1771 9.65002C12.8274 9.80208 12.4548 9.87811 12.0595 9.87811C11.6489 9.87811 11.2649 9.80208 10.9076 9.65002C10.5502 9.49795 10.2347 9.28506 9.96098 9.01135C9.70247 9.28506 9.40214 9.49795 9.06 9.65002C8.71786 9.80208 8.3491 9.87811 7.95373 9.87811C7.51275 9.87811 7.11358 9.80208 6.75623 9.65002C6.39888 9.49795 6.08335 9.28506 5.80963 9.01135C5.4903 9.33068 5.17476 9.55498 4.86303 9.68423C4.5513 9.81349 4.19775 9.87811 3.80239 9.87811H3.69974C3.66173 9.87811 3.61991 9.86291 3.57429 9.83249V16.2648Z"
      fill="currentColor" />
  </g>
  <defs>
    <clipPath id="clip0_3230_160">
      <rect width="20" height="20" fill="white" />
    </clipPath>
  </defs>
</svg>