<svg xmlns="http://www.w3.org/2000/svg" viewBox="0 0 20 20">
  <mask id="mask0_3230_162" style="mask-type:alpha" maskUnits="userSpaceOnUse" x="0" y="0" width="20" height="20">
    <rect width="20" height="20" />
  </mask>
  <g mask="url(#mask0_3230_162)">
    <path d="M2.37057 1.25H17.6294C17.9382 1.25 18.1971 1.35445 18.406 1.56335C18.6149 1.77225 18.7193 2.03111 18.7193 2.33992C18.7193 2.64873 18.6149 2.90758 18.406 3.11648C18.1971 3.32539 17.9382 3.42984 17.6294 3.42984H2.37057C2.06176 3.42984 1.80291 3.32539 1.59401 3.11648C1.3851 2.90758 1.28065 2.64873 1.28065 2.33992C1.28065 2.03111 1.3851 1.77225 1.59401 1.56335C1.80291 1.35445 2.06176 1.25 2.37057 1.25ZM2.37057 18.6887C2.06176 18.6887 1.80291 18.5842 1.59401 18.3753C1.3851 18.1664 1.28065 17.9076 1.28065 17.5988V12.1492H1.08992C0.744777 12.1492 0.463215 12.0175 0.245232 11.7541C0.027248 11.4907 -0.0454133 11.1864 0.027248 10.8413L1.11717 5.39169C1.17166 5.13738 1.29882 4.92847 1.49864 4.76499C1.69846 4.6015 1.92552 4.51975 2.17984 4.51975H17.8202C18.0745 4.51975 18.3015 4.6015 18.5014 4.76499C18.7012 4.92847 18.8283 5.13738 18.8828 5.39169L19.9728 10.8413C20.0454 11.1864 19.9727 11.4907 19.7548 11.7541C19.5368 12.0175 19.2552 12.1492 18.9101 12.1492H18.7193V17.5988C18.7193 17.9076 18.6149 18.1664 18.406 18.3753C18.1971 18.5842 17.9382 18.6887 17.6294 18.6887C17.3206 18.6887 17.0618 18.5842 16.8529 18.3753C16.644 18.1664 16.5395 17.9076 16.5395 17.5988V12.1492H12.1798V17.5988C12.1798 17.9076 12.0754 18.1664 11.8665 18.3753C11.6576 18.5842 11.3987 18.6887 11.0899 18.6887H2.37057ZM3.46049 16.5089H10V12.1492H3.46049V16.5089Z" />
  </g>
</svg>