<svg viewBox="0 0 20 20" xmlns="http://www.w3.org/2000/svg" id="icon">
  <path fill-rule="evenodd" d="M20 10C20 12.6522 18.9464 15.1957 17.0711 17.0711C15.1957 18.9464 12.6522 20 10 20C7.34784 20 4.8043 18.9464 2.92893 17.0711C1.05357 15.1957 0 12.6522 0 10C0 7.34784 1.05357 4.8043 2.92893 2.92893C4.8043 1.05357 7.34784 0 10 0C12.6522 0 15.1957 1.05357 17.0711 2.92893C18.9464 4.8043 20 7.34784 20 10ZM17.5 10C17.5 11.2413 17.1987 12.4113 16.665 13.4425L14.76 11.5363C15.0452 10.6534 15.079 9.70849 14.8575 8.8075L16.81 6.855C17.2525 7.81125 17.5 8.875 17.5 10ZM11.0437 14.8913L13.0188 16.8662C12.0675 17.2851 11.0394 17.5009 10 17.5C8.91397 17.5014 7.84071 17.2659 6.855 16.81L8.8075 14.8575C9.54084 15.0372 10.3053 15.0487 11.0437 14.8913ZM5.1975 11.3962C4.95151 10.5493 4.93383 9.65228 5.14625 8.79625L5.04625 8.89625L3.13375 6.98C2.71476 7.93163 2.49891 8.96021 2.5 10C2.5 11.1925 2.77875 12.32 3.27375 13.3212L5.19875 11.3962H5.1975ZM6.5575 3.33375C7.62153 2.78377 8.80224 2.49781 10 2.5C11.1925 2.5 12.32 2.77875 13.3212 3.27375L11.3962 5.19875C10.4366 4.91922 9.41518 4.93359 8.46375 5.24L6.5575 3.335V3.33375ZM12.5 10C12.5 10.663 12.2366 11.2989 11.7678 11.7678C11.2989 12.2366 10.663 12.5 10 12.5C9.33696 12.5 8.70107 12.2366 8.23223 11.7678C7.76339 11.2989 7.5 10.663 7.5 10C7.5 9.33696 7.76339 8.70107 8.23223 8.23223C8.70107 7.76339 9.33696 7.5 10 7.5C10.663 7.5 11.2989 7.76339 11.7678 8.23223C12.2366 8.70107 12.5 9.33696 12.5 10Z"/>
</svg>
