<svg viewBox="0 0 20 20" xmlns="http://www.w3.org/2000/svg" id="icon">
  <path fill-rule="evenodd" d="M2.84131 11.7995C2.84131 13.3225 4.08024 14.5614 5.60328 14.5614H16.7718C17.2136 14.5614 17.5718 14.2033 17.5718 13.7614V4.31356C17.5718 3.87173 17.2136 3.51356 16.7718 3.51356H13.7685C13.3267 3.51356 12.9685 3.87173 12.9685 4.31356V4.55487C12.9685 4.9967 12.6104 5.35487 12.1685 5.35487H11.9272C11.4854 5.35487 11.1272 4.9967 11.1272 4.55487V4.31356C11.1272 3.87173 10.769 3.51356 10.3272 3.51356H7.32394C6.88211 3.51356 6.52394 3.87173 6.52394 4.31355V11.9201C6.52394 12.3619 6.16576 12.7201 5.72394 12.7201H5.60328C5.09575 12.7201 4.68262 12.307 4.68262 11.7995V3.51356C4.68262 1.99052 3.44369 0.751587 1.92066 0.751587H1.8C1.35817 0.751587 1 1.10976 1 1.55159V1.7929C1 2.23473 1.35817 2.5929 1.8 2.5929H1.92066C2.42819 2.5929 2.84131 3.00603 2.84131 3.51356V11.7995ZM13.0892 9.95815C13.531 9.95815 13.8892 10.3163 13.8892 10.7581V10.9995C13.8892 11.4413 13.531 11.7995 13.0892 11.7995H11.0066C10.5647 11.7995 10.2066 11.4413 10.2066 10.9995V10.7581C10.2066 10.3163 10.5647 9.95815 11.0066 9.95815H13.0892ZM6.57972 17.5745C6.57972 18.499 5.83028 19.2484 4.9058 19.2484C3.98131 19.2484 3.23188 18.499 3.23188 17.5745C3.23188 16.65 3.98131 15.9006 4.9058 15.9006C5.83028 15.9006 6.57972 16.65 6.57972 17.5745ZM16.6232 15.9006C15.6988 15.9006 14.9493 16.65 14.9493 17.5745C14.9493 18.499 15.6988 19.2484 16.6232 19.2484C17.5477 19.2484 18.2972 18.499 18.2972 17.5745C18.2972 16.65 17.5477 15.9006 16.6232 15.9006Z"/>
</svg>
