<svg viewBox="0 0 20 20" xmlns="http://www.w3.org/2000/svg" id="icon">
  <path d="M3.74038 12.5715C3.74038 12.9125 3.87228 13.2395 4.10706 13.4807C4.34185 13.7218 4.66028 13.8573 4.99231 13.8573C5.32434 13.8573 5.64277 13.7218 5.87755 13.4807C6.11233 13.2395 6.24423 12.9125 6.24423 12.5715V5.38929L7.86297 7.05177C8.09908 7.28598 8.41532 7.41557 8.74357 7.41264C9.07182 7.40972 9.38582 7.27449 9.61794 7.0361C9.85005 6.79772 9.98172 6.47523 9.98457 6.13811C9.98742 5.80099 9.86123 5.47621 9.63319 5.23371L5.87742 1.37645C5.64265 1.13541 5.32427 1 4.99231 1C4.66034 1 4.34197 1.13541 4.1072 1.37645L0.351429 5.23371C0.123382 5.47621 -0.00280508 5.80099 4.7326e-05 6.13811C0.00289973 6.47523 0.134563 6.79772 0.36668 7.0361C0.598796 7.27449 0.912794 7.40972 1.24104 7.41264C1.56929 7.41557 1.88553 7.28598 2.12165 7.05177L3.74038 5.38929V12.5715ZM16.2596 7.42849C16.2596 7.08749 16.1277 6.76045 15.8929 6.51933C15.6582 6.2782 15.3397 6.14274 15.0077 6.14274C14.6757 6.14274 14.3572 6.2782 14.1224 6.51933C13.8877 6.76045 13.7558 7.08749 13.7558 7.42849V14.6107L12.137 12.9482C11.9009 12.714 11.5847 12.5844 11.2564 12.5874C10.9282 12.5903 10.6142 12.7255 10.3821 12.9639C10.1499 13.2023 10.0183 13.5248 10.0154 13.8619C10.0126 14.199 10.1388 14.5238 10.3668 14.7663L14.1226 18.6235C14.3574 18.8646 14.6757 19 15.0077 19C15.3397 19 15.658 18.8646 15.8928 18.6235L19.6486 14.7663C19.8766 14.5238 20.0028 14.199 20 13.8619C19.9971 13.5248 19.8654 13.2023 19.6333 12.9639C19.4012 12.7255 19.0872 12.5903 18.759 12.5874C18.4307 12.5844 18.1145 12.714 17.8783 12.9482L16.2596 14.6107V7.42849Z"/>
</svg>
