<svg viewBox="0 0 20 20" fill="none" xmlns="http://www.w3.org/2000/svg" id="icon">
  <path
    d="M9.99414 0.966797C11.7246 0.966908 12.9642 1.51477 13.5371 1.86035C13.6842 1.9492 13.7952 2.06602 13.875 2.18555L14.957 3.80664C16.1285 4.13435 17.1354 4.85835 17.6992 6.00586L18.1074 6.76758C18.4895 7.50484 18.7867 8.17217 18.9316 8.76465C19.1352 9.59756 19.0637 10.4117 18.4131 11.0645C17.9809 11.498 17.3418 11.7529 16.8262 11.9248C16.5549 12.0152 16.2815 12.0939 16.0449 12.1621C15.9125 12.2003 15.7936 12.2342 15.6885 12.2666V14.7363C15.6885 15.4702 15.6903 16.0943 15.6211 16.5898C15.5486 17.1085 15.3866 17.5897 14.9863 17.9746C14.7271 18.2239 14.3831 18.3968 14.0391 18.5234C13.686 18.6533 13.2795 18.7531 12.8506 18.8281C11.992 18.9782 10.9802 19.0408 9.98633 19.0322C8.96566 19.0234 7.9364 18.9387 7.0791 18.7832C6.6512 18.7056 6.25095 18.6075 5.91016 18.4863C5.58512 18.3707 5.24587 18.2107 5 17.9746C4.59963 17.5897 4.43778 17.1085 4.36523 16.5898C4.29596 16.0942 4.29688 15.4702 4.29688 14.7363V12.2666C4.19165 12.2345 4.07274 12.2008 3.93945 12.1631C3.70574 12.097 3.43456 12.0214 3.16602 11.9336C2.65419 11.7662 2.01749 11.5147 1.58398 11.0801C1.28445 10.7794 1.08805 10.4272 1.00781 10.0215C0.930375 9.62903 0.970532 9.23071 1.06445 8.84277C1.24581 8.09414 1.68169 7.19257 2.18359 6.14648C2.73485 4.99767 3.77661 4.1613 4.98242 3.82227L6.02734 2.19629L6.03418 2.18555C6.1138 2.06622 6.22512 1.94958 6.37305 1.86035L6.625 1.7207C7.29052 1.38201 8.48795 0.966797 9.99414 0.966797ZM5.12793 5.24609C4.39231 5.51681 3.77901 6.05651 3.44531 6.75195C2.91532 7.85658 2.56305 8.60198 2.4248 9.17285C2.35914 9.44423 2.35695 9.62499 2.38184 9.75098C2.40418 9.86327 2.45564 9.97085 2.57617 10.0918C2.75426 10.2702 3.10207 10.4394 3.60059 10.6025C3.82909 10.6773 4.06298 10.7424 4.29688 10.8086V10C4.29688 9.6134 4.61047 9.2998 4.99707 9.2998C5.3835 9.3 5.69727 9.61352 5.69727 10V14.7363C5.69727 15.5115 5.69836 16.0203 5.75098 16.3965C5.80033 16.7493 5.88245 16.8809 5.96973 16.9648C6.00118 16.995 6.11716 17.0739 6.37891 17.167C6.62563 17.2547 6.94732 17.336 7.3291 17.4053C8.0917 17.5436 9.03941 17.6245 9.99902 17.6328C10.9346 17.6409 11.8579 17.5798 12.6104 17.4482C12.9862 17.3825 13.3054 17.302 13.5557 17.21C13.8151 17.1145 13.9548 17.0233 14.0156 16.9648C14.1029 16.8809 14.185 16.7493 14.2344 16.3965C14.287 16.0203 14.2891 15.5115 14.2891 14.7363V10C14.2891 9.61351 14.6018 9.29998 14.9883 9.2998C15.3747 9.3 15.6885 9.61352 15.6885 10V10.8066C15.9211 10.7396 16.1553 10.6728 16.3838 10.5967C16.8882 10.4285 17.2427 10.2559 17.4219 10.0762C17.6126 9.88478 17.7047 9.63841 17.5723 9.09668C17.4291 8.51177 17.0565 7.74229 16.4727 6.68066C16.4666 6.66958 16.4606 6.65788 16.4551 6.64648C16.1371 5.98375 15.5854 5.51382 14.8672 5.24805L11.4844 7.87988C11.479 7.88404 11.4731 7.88745 11.4678 7.8916C11.3685 8.05234 11.2148 8.167 11.0361 8.21777C10.9582 8.27316 10.8829 8.32506 10.8096 8.36914C10.5848 8.50417 10.3205 8.61621 9.99902 8.61621C9.67791 8.61602 9.41404 8.50405 9.18945 8.36914C9.11622 8.32511 9.04073 8.27407 8.96289 8.21875C8.78449 8.16803 8.63045 8.05312 8.53125 7.89258C8.52591 7.88843 8.52 7.88404 8.51465 7.87988L5.12793 5.24609ZM9.99414 2.36719C9.51327 2.36719 9.07378 2.41942 8.6875 2.49609L9.84473 7.12402C9.86837 7.13982 9.88901 7.15623 9.91016 7.16895C9.95654 7.19682 9.98493 7.20873 9.99902 7.21387C10.0127 7.20898 10.0413 7.19751 10.0889 7.16895C10.1098 7.15638 10.13 7.13959 10.1533 7.12402L11.3096 2.50098C10.9276 2.42085 10.4871 2.36723 9.99414 2.36719ZM7.1582 3.02344L6.29004 4.37598L7.93066 5.65137L7.25977 2.96973C7.22291 2.98852 7.18891 3.00625 7.1582 3.02344ZM12.0674 5.65137L13.6719 4.40332L12.751 3.02246C12.7436 3.01825 12.7353 3.01408 12.7275 3.00977L12.0674 5.65137Z"
    fill="currentColor" />
</svg>