<svg viewBox="0 0 20 20" xmlns="http://www.w3.org/2000/svg" id="icon">
  <path d="M1 10.5625C1 10.3409 1.04488 10.1215 1.13209 9.91672C1.21929 9.71198 1.34711 9.52596 1.50824 9.36926C1.66937 9.21256 1.86066 9.08826 2.07119 9.00345C2.28172 8.91865 2.50737 8.875 2.73524 8.875C2.96312 8.875 3.18876 8.91865 3.39929 9.00345C3.60982 9.08826 3.80111 9.21256 3.96224 9.36926C4.12338 9.52596 4.25119 9.71198 4.3384 9.91672C4.4256 10.1215 4.47048 10.3409 4.47048 10.5625V17.3125C4.47048 17.7601 4.28766 18.1893 3.96224 18.5057C3.63682 18.8222 3.19546 19 2.73524 19C2.27503 19 1.83366 18.8222 1.50824 18.5057C1.18282 18.1893 1 17.7601 1 17.3125V10.5625ZM5.62731 10.3746V16.4834C5.62711 16.9015 5.74672 17.3114 5.97272 17.6671C6.19871 18.0228 6.52216 18.3102 6.90676 18.4971L6.9646 18.5252C7.60651 18.8372 8.31424 18.9998 9.03186 19H15.2972C15.8323 19.0002 16.3509 18.8201 16.7647 18.4902C17.1786 18.1604 17.4621 17.7013 17.5669 17.191L18.9551 10.441C19.0222 10.1146 19.014 9.7778 18.9311 9.45487C18.8481 9.13194 18.6926 8.83092 18.4756 8.57351C18.2586 8.31611 17.9856 8.10873 17.6762 7.96632C17.3668 7.82392 17.0289 7.75003 16.6866 7.75H12.5683V3.25C12.5683 2.65326 12.3245 2.08097 11.8906 1.65901C11.4567 1.23705 10.8682 1 10.2546 1C9.94781 1 9.65357 1.11853 9.43662 1.3295C9.21968 1.54048 9.09779 1.82663 9.09779 2.125V2.87538C9.09779 3.84904 8.77306 4.79644 8.17233 5.57538L6.55277 7.67462C5.95205 8.45356 5.62731 9.40096 5.62731 10.3746Z"/>
</svg>
