<svg viewBox="0 0 20 20" fill="none" xmlns="http://www.w3.org/2000/svg" id="icon">
  <g clip-path="url(#clip0_2847_25)">
    <path fill-rule="evenodd" clip-rule="evenodd"
      d="M5.45423 3.61011H1.87475C1.33643 3.61011 0.900024 4.04651 0.900024 4.58484C0.900024 5.12317 1.33643 5.55957 1.87475 5.55957H2.70507V15.8664C2.70507 16.9465 2.89203 18.0028 3.52154 18.7984C4.18958 19.6426 5.19522 20 6.38738 20H13.1563C14.3426 20 15.3863 19.6423 16.1299 18.8606C16.865 18.0877 17.1826 17.0306 17.1929 15.8751L17.2816 5.55957H18.1202C18.6586 5.55957 19.095 5.12317 19.095 4.58484C19.095 4.04651 18.6586 3.61011 18.1202 3.61011H14.5408C14.2301 1.49348 12.2224 0 9.99749 0C7.77256 0 5.76488 1.49348 5.45423 3.61011ZM7.45361 3.61011H12.5414C12.2515 2.70787 11.2953 1.94946 9.99749 1.94946C8.69969 1.94946 7.74351 2.70787 7.45361 3.61011ZM15.332 5.55957H4.65453V15.8664C4.65453 16.7802 4.82446 17.3033 5.0503 17.5887C5.23759 17.8254 5.58574 18.0505 6.38738 18.0505H13.1563C13.9513 18.0505 14.4297 17.8194 14.7173 17.517C15.0134 17.2058 15.2361 16.6835 15.2435 15.858C15.2435 15.8579 15.2435 15.8582 15.2435 15.858L15.332 5.55957ZM8.19244 7.22022C8.73077 7.22022 9.16717 7.65662 9.16717 8.19495V15.4152C9.16717 15.9535 8.73077 16.3899 8.19244 16.3899C7.65411 16.3899 7.21771 15.9535 7.21771 15.4152V8.19495C7.21771 7.65662 7.65411 7.22022 8.19244 7.22022ZM11.8025 7.22022C12.3409 7.22022 12.7773 7.65662 12.7773 8.19495V15.4152C12.7773 15.9535 12.3409 16.3899 11.8025 16.3899C11.2642 16.3899 10.8278 15.9535 10.8278 15.4152V8.19495C10.8278 7.65662 11.2642 7.22022 11.8025 7.22022Z"
      fill="currentColor" />
  </g>
  <defs>
    <clipPath id="clip0_2847_25">
      <rect width="20" height="20" fill="white" />
    </clipPath>
  </defs>
</svg>