<svg viewBox="0 0 20 20" xmlns="http://www.w3.org/2000/svg" id="icon">
  <path fill-rule="evenodd" d="M8.85714 1C8.64496 1.00011 8.43699 1.05837 8.25654 1.16825C8.07609 1.27812 7.93028 1.43528 7.83543 1.62212L7.008 3.25H3.14286C2.83975 3.25 2.54906 3.36853 2.33474 3.5795C2.12041 3.79048 2 4.07663 2 4.375C2 4.67337 2.12041 4.95952 2.33474 5.1705C2.54906 5.38147 2.83975 5.5 3.14286 5.5V16.75C3.14286 17.3467 3.38367 17.919 3.81233 18.341C4.24098 18.7629 4.82236 19 5.42857 19H14.5714C15.1776 19 15.759 18.7629 16.1877 18.341C16.6163 17.919 16.8571 17.3467 16.8571 16.75V5.5C17.1602 5.5 17.4509 5.38147 17.6653 5.1705C17.8796 4.95952 18 4.67337 18 4.375C18 4.07663 17.8796 3.79048 17.6653 3.5795C17.4509 3.36853 17.1602 3.25 16.8571 3.25H12.992L12.1646 1.62212C12.0697 1.43528 11.9239 1.27812 11.7435 1.16825C11.563 1.05837 11.355 1.00011 11.1429 1H8.85714ZM6.57143 7.75C6.57143 7.45163 6.69184 7.16548 6.90616 6.9545C7.12049 6.74353 7.41118 6.625 7.71429 6.625C8.01739 6.625 8.30808 6.74353 8.52241 6.9545C8.73674 7.16548 8.85714 7.45163 8.85714 7.75V14.5C8.85714 14.7984 8.73674 15.0845 8.52241 15.2955C8.30808 15.5065 8.01739 15.625 7.71429 15.625C7.41118 15.625 7.12049 15.5065 6.90616 15.2955C6.69184 15.0845 6.57143 14.7984 6.57143 14.5V7.75ZM12.2857 6.625C11.9826 6.625 11.6919 6.74353 11.4776 6.9545C11.2633 7.16548 11.1429 7.45163 11.1429 7.75V14.5C11.1429 14.7984 11.2633 15.0845 11.4776 15.2955C11.6919 15.5065 11.9826 15.625 12.2857 15.625C12.5888 15.625 12.8795 15.5065 13.0938 15.2955C13.3082 15.0845 13.4286 14.7984 13.4286 14.5V7.75C13.4286 7.45163 13.3082 7.16548 13.0938 6.9545C12.8795 6.74353 12.5888 6.625 12.2857 6.625Z"/>
</svg>
