<svg viewBox="0 0 20 20" xmlns="http://www.w3.org/2000/svg" id="icon">
  <path fill-rule="evenodd" d="M12.2448 12.9972C11.9462 12.9972 11.6598 13.1159 11.4487 13.3271C11.2376 13.5384 11.1189 13.8249 11.1189 14.1236C11.1189 14.4224 11.2376 14.7089 11.4487 14.9201C11.6598 15.1313 11.9462 15.25 12.2448 15.25H17.8741C18.1727 15.25 18.4591 15.1313 18.6702 14.9201C18.8814 14.7089 19 14.4224 19 14.1236V8.4917C19 8.19296 18.8814 7.90646 18.6702 7.69522C18.4591 7.48398 18.1727 7.36531 17.8741 7.36531C17.5755 7.36531 17.2892 7.48398 17.078 7.69522C16.8669 7.90646 16.7483 8.19296 16.7483 8.4917V11.4045L11.9149 6.56896C11.7038 6.35779 11.4175 6.23917 11.1189 6.23917C10.8204 6.23917 10.5341 6.35779 10.323 6.56896L7.74135 9.15176L2.90802 4.31619C2.69568 4.11101 2.41128 3.99748 2.11608 4.00004C1.82088 4.00261 1.5385 4.12107 1.32976 4.32991C1.12101 4.53875 1.00261 4.82126 1.00004 5.1166C0.997477 5.41193 1.11096 5.69646 1.31604 5.9089L6.94537 11.5408C7.1565 11.752 7.44281 11.8706 7.74135 11.8706C8.03989 11.8706 8.32621 11.752 8.53734 11.5408L11.1189 8.95802L15.1563 12.9972H12.2448Z"/>
</svg>
