<svg viewBox="0 0 20 20" xmlns="http://www.w3.org/2000/svg" id="icon">
  <path fill-rule="evenodd" d="M12.2448 6.40295C11.9462 6.40295 11.6598 6.27637 11.4487 6.05105C11.2376 5.82573 11.1189 5.52013 11.1189 5.20148C11.1189 4.88283 11.2376 4.57723 11.4487 4.3519C11.6598 4.12658 11.9462 4 12.2448 4H17.8741C18.1727 4 18.4591 4.12658 18.6702 4.3519C18.8814 4.57723 19 4.88283 19 5.20148V11.2089C19 11.5275 18.8814 11.8331 18.6702 12.0584C18.4591 12.2838 18.1727 12.4103 17.8741 12.4103C17.5755 12.4103 17.2892 12.2838 17.078 12.0584C16.8669 11.8331 16.7483 11.5275 16.7483 11.2089V8.10184L11.9149 13.2598C11.7038 13.485 11.4175 13.6116 11.1189 13.6116C10.8204 13.6116 10.5341 13.485 10.323 13.2598L7.74135 10.5048L2.90802 15.6627C2.69568 15.8816 2.41128 16.0027 2.11608 16C1.82088 15.9972 1.5385 15.8709 1.32976 15.6481C1.12101 15.4253 1.00261 15.124 1.00004 14.809C0.997477 14.4939 1.11096 14.1904 1.31604 13.9638L6.94537 7.95646C7.1565 7.73122 7.44281 7.60469 7.74135 7.60469C8.03989 7.60469 8.32621 7.73122 8.53734 7.95646L11.1189 10.7114L15.1563 6.40295H12.2448Z"/>
</svg>
