<svg viewBox="0 0 20 20" xmlns="http://www.w3.org/2000/svg" id="icon">
  <path fill-rule="evenodd" d="M10 7.6C11.023 7.6 12.0041 7.19964 12.7274 6.48701C13.4508 5.77437 13.8571 4.80782 13.8571 3.8C13.8571 2.79218 13.4508 1.82563 12.7274 1.11299C12.0041 0.400356 11.023 0 10 0C8.97702 0 7.99594 0.400356 7.27259 1.11299C6.54923 1.82563 6.14286 2.79218 6.14286 3.8C6.14286 4.80782 6.54923 5.77437 7.27259 6.48701C7.99594 7.19964 8.97702 7.6 10 7.6ZM1 19C1 17.8356 1.23279 16.6826 1.68508 15.6069C2.13738 14.5311 2.80031 13.5537 3.63604 12.7303C4.47177 11.907 5.46392 11.2539 6.55585 10.8083C7.64778 10.3627 8.8181 10.1333 10 10.1333C11.1819 10.1333 12.3522 10.3627 13.4442 10.8083C14.5361 11.2539 15.5282 11.907 16.364 12.7303C17.1997 13.5537 17.8626 14.5311 18.3149 15.6069C18.7672 16.6826 19 17.8356 19 19H1Z"/>
</svg>
