<svg viewBox="0 0 20 20" xmlns="http://www.w3.org/2000/svg" id="icon">
  <path d="M13.3333 4.9C13.3333 5.80174 12.9821 6.66654 12.357 7.30416C11.7319 7.94179 10.8841 8.3 10 8.3C9.11595 8.3 8.2681 7.94179 7.64298 7.30416C7.01786 6.66654 6.66667 5.80174 6.66667 4.9C6.66667 3.99826 7.01786 3.13346 7.64298 2.49584C8.2681 1.85821 9.11595 1.5 10 1.5C10.8841 1.5 11.7319 1.85821 12.357 2.49584C12.9821 3.13346 13.3333 3.99826 13.3333 4.9ZM18.8889 7.16667C18.8889 7.76782 18.6548 8.34436 18.238 8.76944C17.8213 9.19452 17.256 9.43333 16.6667 9.43333C16.0773 9.43333 15.5121 9.19452 15.0953 8.76944C14.6786 8.34436 14.4444 7.76782 14.4444 7.16667C14.4444 6.56551 14.6786 5.98897 15.0953 5.56389C15.5121 5.13881 16.0773 4.9 16.6667 4.9C17.256 4.9 17.8213 5.13881 18.238 5.56389C18.6548 5.98897 18.8889 6.56551 18.8889 7.16667ZM14.4444 15.1C14.4444 13.8977 13.9762 12.7446 13.1427 11.8944C12.3092 11.0443 11.1787 10.5667 10 10.5667C8.82126 10.5667 7.6908 11.0443 6.8573 11.8944C6.02381 12.7446 5.55556 13.8977 5.55556 15.1V18.5H14.4444V15.1ZM5.55556 7.16667C5.55556 7.76782 5.32143 8.34436 4.90468 8.76944C4.48794 9.19452 3.9227 9.43333 3.33333 9.43333C2.74396 9.43333 2.17873 9.19452 1.76199 8.76944C1.34524 8.34436 1.11111 7.76782 1.11111 7.16667C1.11111 6.56551 1.34524 5.98897 1.76199 5.56389C2.17873 5.13881 2.74396 4.9 3.33333 4.9C3.9227 4.9 4.48794 5.13881 4.90468 5.56389C5.32143 5.98897 5.55556 6.56551 5.55556 7.16667ZM16.6667 18.5V15.1C16.6683 13.9477 16.3814 12.8141 15.8333 11.8065C16.3259 11.6779 16.8408 11.6658 17.3387 11.7711C17.8366 11.8763 18.3044 12.0962 18.7063 12.4139C19.1082 12.7316 19.4337 13.1387 19.6579 13.6042C19.8821 14.0698 19.9991 14.5813 20 15.1V18.5H16.6667ZM4.16667 11.8065C3.61861 12.8141 3.33178 13.9477 3.33333 15.1V18.5H2.95245e-07V15.1C-0.000213853 14.581 0.11607 14.0688 0.339941 13.6027C0.563812 13.1366 0.889327 12.729 1.29154 12.4111C1.69375 12.0932 2.16198 11.8734 2.66034 11.7686C3.15871 11.6638 3.67398 11.6768 4.16667 11.8065Z"/>
</svg>
