<svg viewBox="0 0 20 20" xmlns="http://www.w3.org/2000/svg" id="icon">
  <path d="M8.88889 5.9C8.88889 6.77521 8.5377 7.61458 7.91258 8.23345C7.28746 8.85232 6.43961 9.2 5.55556 9.2C4.6715 9.2 3.82365 8.85232 3.19853 8.23345C2.57341 7.61458 2.22222 6.77521 2.22222 5.9C2.22222 5.02478 2.57341 4.18542 3.19853 3.56655C3.82365 2.94768 4.6715 2.6 5.55556 2.6C6.43961 2.6 7.28746 2.94768 7.91258 3.56655C8.5377 4.18542 8.88889 5.02478 8.88889 5.9ZM17.7778 5.9C17.7778 6.33336 17.6916 6.76248 17.524 7.16285C17.3565 7.56323 17.111 7.92702 16.8015 8.23345C16.4919 8.53988 16.1245 8.78296 15.7201 8.9488C15.3156 9.11464 14.8822 9.2 14.4444 9.2C14.0067 9.2 13.5733 9.11464 13.1688 8.9488C12.7644 8.78296 12.397 8.53988 12.0874 8.23345C11.7779 7.92702 11.5324 7.56323 11.3648 7.16285C11.1973 6.76248 11.1111 6.33336 11.1111 5.9C11.1111 5.02478 11.4623 4.18542 12.0874 3.56655C12.7125 2.94768 13.5604 2.6 14.4444 2.6C15.3285 2.6 16.1763 2.94768 16.8015 3.56655C17.4266 4.18542 17.7778 5.02478 17.7778 5.9ZM13.2556 18C13.3067 17.6403 13.3333 17.274 13.3333 16.9C13.3359 15.1717 12.7486 13.4933 11.6667 12.137C12.5112 11.6543 13.4692 11.4001 14.4444 11.4001C15.4196 11.4001 16.3776 11.6543 17.2222 12.137C18.0667 12.6197 18.768 13.314 19.2556 14.15C19.7433 14.9861 20 15.9346 20 16.9V18H13.2556ZM5.55556 11.4C7.02898 11.4 8.44206 11.9795 9.48393 13.0109C10.5258 14.0424 11.1111 15.4413 11.1111 16.9V18H0V16.9C0 15.4413 0.585316 14.0424 1.62718 13.0109C2.66905 11.9795 4.08213 11.4 5.55556 11.4Z"/>
</svg>
