<svg viewBox="0 0 20 20" xmlns="http://www.w3.org/2000/svg" id="icon">
  <path d="M11.25 4.85714C11.25 5.88012 10.8549 6.8612 10.1517 7.58456C9.44839 8.30791 8.49456 8.71429 7.5 8.71429C6.50544 8.71429 5.55161 8.30791 4.84835 7.58456C4.14509 6.8612 3.75 5.88012 3.75 4.85714C3.75 3.83416 4.14509 2.85309 4.84835 2.12973C5.55161 1.40638 6.50544 1 7.5 1C8.49456 1 9.44839 1.40638 10.1517 2.12973C10.8549 2.85309 11.25 3.83416 11.25 4.85714ZM15 19C15 16.954 14.2098 14.9919 12.8033 13.5452C11.3968 12.0985 9.48912 11.2857 7.5 11.2857C5.51088 11.2857 3.60322 12.0985 2.1967 13.5452C0.790176 14.9919 2.96403e-08 16.954 0 19H15ZM13.75 7.42857C13.4185 7.42857 13.1005 7.56403 12.8661 7.80515C12.6317 8.04627 12.5 8.37329 12.5 8.71429C12.5 9.05528 12.6317 9.3823 12.8661 9.62342C13.1005 9.86454 13.4185 10 13.75 10H18.75C19.0815 10 19.3995 9.86454 19.6339 9.62342C19.8683 9.3823 20 9.05528 20 8.71429C20 8.37329 19.8683 8.04627 19.6339 7.80515C19.3995 7.56403 19.0815 7.42857 18.75 7.42857H13.75Z"/>
</svg>
