<svg viewBox="0 0 20 20" fill="none" xmlns="http://www.w3.org/2000/svg" id="icon">
  <g clip-path="url(#clip0_3739_22)">
    <path
      d="M9.98792 0C13.4786 0.000100265 16.6515 1.12091 18.7711 2.94922C18.9639 3.11554 19.0747 3.35773 19.0748 3.6123V9.08691C19.0748 13.1081 16.8024 15.8457 14.6315 17.5342C13.5435 18.3804 12.4594 18.9814 11.65 19.3711C11.2444 19.5664 10.904 19.7109 10.6627 19.8066C10.5425 19.8543 10.4462 19.8895 10.3785 19.9141C10.3447 19.9263 10.3176 19.9367 10.2985 19.9434C10.2893 19.9465 10.2816 19.9483 10.276 19.9502C10.2732 19.9512 10.2701 19.9535 10.2682 19.9541H10.2662L10.2653 19.9551L9.98792 19.124L10.2643 19.9551C10.0846 20.0149 9.89021 20.0149 9.71057 19.9551L9.98792 19.124L9.70959 19.9551L9.70862 19.9541H9.70667C9.70479 19.9535 9.70171 19.9512 9.69885 19.9502C9.69325 19.9483 9.68556 19.9465 9.67639 19.9434C9.65724 19.9367 9.63015 19.9263 9.59631 19.9141C9.52869 19.8895 9.43233 19.8543 9.31213 19.8066C9.07085 19.7109 8.73049 19.5664 8.32483 19.3711C7.51542 18.9814 6.43133 18.3804 5.34338 17.5342C3.1725 15.8457 0.900024 13.1081 0.900024 9.08691V3.6123C0.900113 3.35773 1.01099 3.11554 1.20374 2.94922C3.32344 1.12081 6.49703 0 9.98792 0ZM9.98792 1.75098C7.0214 1.75098 4.40772 2.65507 2.651 4.02734V9.08691C2.651 12.3649 4.48464 14.6464 6.41956 16.1514C7.38426 16.9017 8.35344 17.4414 9.08362 17.793C9.44759 17.9682 9.74992 18.0953 9.95764 18.1777C9.96764 18.1817 9.97836 18.1847 9.98792 18.1885C9.99735 18.1848 10.0074 18.1816 10.0172 18.1777C10.2249 18.0953 10.5273 17.9682 10.8912 17.793C11.6214 17.4414 12.5906 16.9017 13.5553 16.1514C15.4902 14.6464 17.3239 12.3649 17.3239 9.08691V4.02734C15.5672 2.65513 12.9543 1.75107 9.98792 1.75098ZM9.98792 4.56152C11.4793 4.56182 12.6891 5.77131 12.6891 7.2627C12.689 7.85486 12.4948 8.40061 12.1715 8.8457C13.3047 9.5681 14.0572 10.8358 14.0573 12.2793C14.057 12.7629 13.6639 13.1553 13.1803 13.1553C12.6969 13.155 12.3045 12.7627 12.3043 12.2793C12.3043 11.0064 11.2786 9.97224 10.0084 9.96094C10.0017 9.96099 9.99463 9.96383 9.98792 9.96387C9.98093 9.96387 9.97341 9.96101 9.96643 9.96094C8.69621 9.97223 7.66962 11.0064 7.66956 12.2793C7.66934 12.7629 7.2772 13.1553 6.79358 13.1553C6.31011 13.1551 5.91879 12.7628 5.91858 12.2793C5.91862 10.8359 6.67023 9.56812 7.80334 8.8457C7.48007 8.40059 7.28685 7.85488 7.28674 7.2627C7.28674 5.77112 8.4963 4.56152 9.98792 4.56152ZM9.98792 6.31348C9.46383 6.31348 9.0387 6.73862 9.0387 7.2627C9.03895 7.78121 9.45479 8.20139 9.97131 8.20996H10.0026C10.5194 8.20177 10.9359 7.78145 10.9362 7.2627C10.9362 6.7388 10.5117 6.31378 9.98792 6.31348Z"
      fill="currentColor" />
  </g>
  <defs>
    <clipPath id="clip0_3739_22">
      <rect width="20" height="20" fill="white" />
    </clipPath>
  </defs>
</svg>