<svg viewBox="0 0 20 20" xmlns="http://www.w3.org/2000/svg" id="icon">
  <path fill-rule="evenodd" d="M20 10C20 12.6522 18.9464 15.1957 17.0711 17.0711C15.1957 18.9464 12.6522 20 10 20C7.34784 20 4.8043 18.9464 2.92893 17.0711C1.05357 15.1957 0 12.6522 0 10C0 7.34784 1.05357 4.8043 2.92893 2.92893C4.8043 1.05357 7.34784 0 10 0C12.6522 0 15.1957 1.05357 17.0711 2.92893C18.9464 4.8043 20 7.34784 20 10ZM12.5 6.25C12.5 6.91304 12.2366 7.54893 11.7678 8.01777C11.2989 8.48661 10.663 8.75 10 8.75C9.33696 8.75 8.70107 8.48661 8.23223 8.01777C7.76339 7.54893 7.5 6.91304 7.5 6.25C7.5 5.58696 7.76339 4.95107 8.23223 4.48223C8.70107 4.01339 9.33696 3.75 10 3.75C10.663 3.75 11.2989 4.01339 11.7678 4.48223C12.2366 4.95107 12.5 5.58696 12.5 6.25ZM10 11.25C8.80325 11.2498 7.6316 11.5931 6.62427 12.2393C5.61694 12.8854 4.8163 13.8072 4.3175 14.895C5.02085 15.7133 5.89284 16.3697 6.87368 16.8193C7.85452 17.269 8.92101 17.5012 10 17.5C11.079 17.5012 12.1455 17.269 13.1263 16.8193C14.1072 16.3697 14.9792 15.7133 15.6825 14.895C15.1837 13.8072 14.3831 12.8854 13.3757 12.2393C12.3684 11.5931 11.1967 11.2498 10 11.25Z"/>
</svg>
