<svg viewBox="0 0 20 20" fill="none" xmlns="http://www.w3.org/2000/svg" id="icon">
  <path
    d="M9.16699 10.8672C11.9098 10.8674 14.1338 13.0911 14.1338 15.834C14.1334 17.1959 13.0289 18.3006 11.667 18.3008H3.33398C1.9719 18.3008 0.867536 17.196 0.867188 15.834C0.867188 13.091 3.09097 10.8672 5.83398 10.8672H9.16699ZM14.167 10.8672C16.9098 10.8674 19.1338 13.0911 19.1338 15.834C19.1334 17.1959 18.0289 18.3006 16.667 18.3008H15.417C14.9753 18.3008 14.6174 17.9417 14.6172 17.5C14.6174 17.0583 14.9753 16.7002 15.417 16.7002H16.667C17.1453 16.7 17.5329 16.3122 17.5332 15.834C17.5332 13.9748 16.0262 12.467 14.167 12.4668C13.7253 12.4668 13.3674 12.1087 13.3672 11.667C13.3672 11.2252 13.7252 10.8672 14.167 10.8672ZM5.83398 12.4668C3.97463 12.4668 2.4668 13.9746 2.4668 15.834C2.46715 16.3124 2.85554 16.7002 3.33398 16.7002H11.667C12.1453 16.7 12.5329 16.3122 12.5332 15.834C12.5332 13.9748 11.0262 12.467 9.16699 12.4668H5.83398ZM7.5 1.7002C9.78246 1.70039 11.6336 3.5505 11.6338 5.83301C11.6338 8.11567 9.78257 9.9666 7.5 9.9668C5.21737 9.96662 3.36719 8.11568 3.36719 5.83301C3.36736 3.55049 5.21748 1.70037 7.5 1.7002ZM12.5 1.7002C14.7826 1.7002 16.6336 3.55037 16.6338 5.83301C16.6338 8.11579 14.7827 9.9668 12.5 9.9668C12.0583 9.9668 11.7004 9.60867 11.7002 9.16699C11.7002 8.72516 12.0582 8.36621 12.5 8.36621C13.8991 8.36621 15.0332 7.23212 15.0332 5.83301C15.033 4.43404 13.899 3.2998 12.5 3.2998C12.0582 3.2998 11.7002 2.94183 11.7002 2.5C11.7002 2.05817 12.0582 1.7002 12.5 1.7002ZM7.5 3.2998C6.10114 3.29998 4.96697 4.43414 4.9668 5.83301C4.9668 7.23202 6.10103 8.36603 7.5 8.36621C8.89893 8.36601 10.0332 7.232 10.0332 5.83301C10.033 4.43416 8.89882 3.3 7.5 3.2998Z"
    fill="currentColor" />
</svg>