<svg viewBox="0 0 20 20" xmlns="http://www.w3.org/2000/svg" id="icon">
  <path fill-rule="evenodd" d="M0.99994 2.27499C0.99994 1.79174 1.39169 1.39999 1.87494 1.39999H7.12494C7.60819 1.39999 7.99994 1.79174 7.99994 2.27499V7.52499C7.99994 8.00824 7.60819 8.39999 7.12494 8.39999H1.87494C1.39169 8.39999 0.99994 8.00824 0.99994 7.52499V2.27499ZM3.42362 11.2764C3.79719 10.9029 4.40288 10.9029 4.77646 11.2764L7.87839 14.3784C8.25197 14.7519 8.25197 15.3576 7.87839 15.7312L4.77646 18.8331C4.40288 19.2067 3.79719 19.2067 3.42361 18.8331L0.321687 15.7312C-0.0518905 15.3576 -0.0518905 14.7519 0.321687 14.3784L3.42362 11.2764ZM14.9999 11C12.7908 11 10.9999 12.7909 10.9999 15C10.9999 17.2091 12.7908 19 14.9999 19C17.2091 19 18.9999 17.2091 18.9999 15C18.9999 12.7909 17.2091 11 14.9999 11ZM14.2242 1.84786C14.569 1.2507 15.4309 1.2507 15.7757 1.84786L18.8786 7.22229C19.2234 7.81945 18.7924 8.5659 18.1029 8.5659H11.897C11.2075 8.5659 10.7765 7.81945 11.1213 7.22229L14.2242 1.84786Z"/>
</svg>
