<svg viewBox="0 0 20 20" xmlns="http://www.w3.org/2000/svg" id="icon">
  <path fill-rule="evenodd" d="M9.86092 2.08699C10.0671 2.17356 10.2433 2.32008 10.3672 2.50805C10.4912 2.69602 10.5573 2.91698 10.5573 3.143V16.8574C10.5572 17.0834 10.491 17.3043 10.367 17.4922C10.243 17.6801 10.0667 17.8265 9.86053 17.913C9.65434 17.9995 9.42745 18.0221 9.20856 17.9781C8.98966 17.934 8.78859 17.8252 8.63075 17.6654L4.44705 13.4288H1.5285C1.22918 13.4288 0.942113 13.3084 0.73046 13.094C0.518808 12.8797 0.399902 12.589 0.399902 12.2859V7.71446C0.399902 7.41135 0.518808 7.12066 0.73046 6.90633C0.942113 6.692 1.22918 6.57159 1.5285 6.57159H4.44705L8.63075 2.33499C8.78858 2.17507 8.98971 2.06614 9.20868 2.022C9.42766 1.97785 9.65464 2.00047 9.86092 2.08699ZM13.1451 6.90645C13.3568 6.6922 13.6438 6.57184 13.9431 6.57184C14.2423 6.57184 14.5293 6.6922 14.741 6.90645L16.2002 8.38418L17.6595 6.90645C17.7636 6.7973 17.8882 6.71023 18.0259 6.65033C18.1636 6.59044 18.3116 6.55891 18.4615 6.55759C18.6114 6.55627 18.76 6.58519 18.8987 6.64265C19.0374 6.70012 19.1634 6.78498 19.2693 6.89229C19.3753 6.99959 19.4591 7.1272 19.5159 7.26765C19.5726 7.4081 19.6012 7.5586 19.5999 7.71034C19.5986 7.86209 19.5674 8.01206 19.5083 8.15149C19.4491 8.29093 19.3631 8.41704 19.2554 8.52246L17.7961 10.0002L19.2554 11.4779C19.4609 11.6935 19.5747 11.9822 19.5721 12.2818C19.5696 12.5815 19.4509 12.8681 19.2416 13.08C19.0324 13.2919 18.7493 13.4121 18.4534 13.4147C18.1575 13.4173 17.8724 13.3021 17.6595 13.0939L16.2002 11.6162L14.741 13.0939C14.5281 13.3021 14.243 13.4173 13.9471 13.4147C13.6512 13.4121 13.3681 13.2919 13.1589 13.08C12.9496 12.8681 12.8309 12.5815 12.8284 12.2818C12.8258 11.9822 12.9396 11.6935 13.1451 11.4779L14.6044 10.0002L13.1451 8.52246C12.9336 8.30814 12.8147 8.0175 12.8147 7.71446C12.8147 7.41141 12.9336 7.12077 13.1451 6.90645Z"/>
</svg>
