<svg viewBox="0 0 20 20" xmlns="http://www.w3.org/2000/svg" id="icon">
  <path fill-rule="evenodd" d="M9.31444 2.47817C9.51743 2.56053 9.6909 2.69993 9.81292 2.87876C9.93495 3.05758 10.0001 3.2678 10 3.48283V16.5303C9.99995 16.7453 9.93476 16.9555 9.81267 17.1342C9.69057 17.313 9.51706 17.4523 9.31406 17.5346C9.11106 17.6169 8.88769 17.6384 8.67218 17.5965C8.45668 17.5545 8.25872 17.451 8.10333 17.299L3.98444 13.2684H1.11111C0.816426 13.2684 0.53381 13.1539 0.325437 12.95C0.117063 12.7461 0 12.4695 0 12.1811V7.83199C0 7.54362 0.117063 7.26706 0.325437 7.06316C0.53381 6.85925 0.816426 6.7447 1.11111 6.7447H3.98444L8.10333 2.71412C8.25871 2.56197 8.45672 2.45834 8.67231 2.41634C8.88789 2.37434 9.11136 2.39586 9.31444 2.47817ZM15.1744 2.31834C15.3828 2.11451 15.6654 2 15.96 2C16.2546 2 16.5372 2.11451 16.7456 2.31834C17.7787 3.32697 18.598 4.52538 19.1565 5.84476C19.715 7.16413 20.0017 8.57848 20 10.0066C20.0017 11.4347 19.715 12.849 19.1565 14.1684C18.598 15.4877 17.7787 16.6862 16.7456 17.6948C16.536 17.8928 16.2553 18.0024 15.964 18C15.6727 17.9975 15.394 17.8831 15.188 17.6815C14.982 17.4799 14.8651 17.2072 14.8626 16.9222C14.86 16.6371 14.972 16.3624 15.1744 16.1574C16.0013 15.3507 16.6569 14.3919 17.1037 13.3363C17.5505 12.2807 17.7796 11.1491 17.7778 10.0066C17.7778 7.60366 16.7844 5.43125 15.1744 3.85577C14.9661 3.65187 14.8491 3.37537 14.8491 3.08706C14.8491 2.79875 14.9661 2.52224 15.1744 2.31834ZM12.0311 5.3932C12.1343 5.2921 12.2568 5.21191 12.3917 5.15719C12.5266 5.10247 12.6712 5.07431 12.8172 5.07431C12.9632 5.07431 13.1078 5.10247 13.2427 5.15719C13.3776 5.21191 13.5001 5.2921 13.6033 5.3932C14.2232 5.99845 14.7148 6.71759 15.0498 7.50929C15.3848 8.30099 15.5567 9.14967 15.5556 10.0066C15.5566 10.8635 15.3847 11.7121 15.0497 12.5038C14.7147 13.2955 14.2232 14.0146 13.6033 14.6199C13.3948 14.824 13.1121 14.9386 12.8172 14.9386C12.5224 14.9386 12.2396 14.824 12.0311 14.6199C11.8226 14.4159 11.7055 14.1392 11.7055 13.8507C11.7055 13.5621 11.8226 13.2854 12.0311 13.0814C12.4446 12.6782 12.7726 12.199 12.9961 11.6713C13.2196 11.1436 13.3342 10.5778 13.3333 10.0066C13.3342 9.43532 13.2196 8.86955 12.9962 8.34183C12.7727 7.8141 12.4447 7.33487 12.0311 6.93171C11.9278 6.83073 11.8458 6.71082 11.7899 6.57882C11.734 6.44683 11.7052 6.30534 11.7052 6.16245C11.7052 6.01957 11.734 5.87808 11.7899 5.74609C11.8458 5.61409 11.9278 5.49418 12.0311 5.3932Z"/>
</svg>
