<svg viewBox="0 0 20 20" xmlns="http://www.w3.org/2000/svg" id="icon">
  <path fill-rule="evenodd" d="M12 18C12 18.5304 11.7893 19.0391 11.4142 19.4142C11.0391 19.7893 10.5304 20 10 20C9.46957 20 8.96086 19.7893 8.58579 19.4142C8.21071 19.0391 8 18.5304 8 18C8 17.4696 8.21071 16.9609 8.58579 16.5858C8.96086 16.2107 9.46957 16 10 16C10.5304 16 11.0391 16.2107 11.4142 16.5858C11.7893 16.9609 12 17.4696 12 18ZM10 0C9.46957 0 8.96086 0.210714 8.58579 0.585786C8.21071 0.960859 8 1.46957 8 2V10C8 10.5304 8.21071 11.0391 8.58579 11.4142C8.96086 11.7893 9.46957 12 10 12C10.5304 12 11.0391 11.7893 11.4142 11.4142C11.7893 11.0391 12 10.5304 12 10V2C12 1.46957 11.7893 0.960859 11.4142 0.585786C11.0391 0.210714 10.5304 0 10 0Z"/>
</svg>
