<svg viewBox="0 0 20 20" fill="none" xmlns="http://www.w3.org/2000/svg" id="icon">
  <path
    d="M9.99846 0.343933C10.4642 0.343997 10.8882 0.603417 11.089 1.01206L13.5238 5.92255L18.9666 6.70868C19.4171 6.77186 19.796 7.08367 19.9399 7.51027C20.0837 7.94067 19.9661 8.40864 19.6404 8.72772L15.6943 12.5192L16.6261 17.9587C16.7018 18.4039 16.5157 18.8565 16.137 19.12C15.8088 19.3505 15.388 19.4056 15.0164 19.2738L14.8609 19.2054L9.99846 16.6639L5.13924 19.2054L4.98218 19.2738C4.66174 19.3865 4.30693 19.3627 4.00562 19.2087L3.85913 19.12C3.48443 18.8565 3.29542 18.4038 3.37492 17.9587L4.30591 12.5192L0.358971 8.72772C0.0736475 8.4485 -0.0504783 8.05524 0.0188021 7.67304L0.060306 7.51027C0.203081 7.08357 0.581165 6.77176 1.03524 6.70868L6.47225 5.92255L8.91122 1.01206C9.11194 0.603324 9.53643 0.343933 9.99846 0.343933ZM7.9078 7.90415L3.31958 8.5674L6.63583 11.7526L5.84074 16.3929L9.99764 14.2193L14.1594 16.3946L13.3643 11.7534L16.679 8.5674L12.0883 7.90415L9.99927 3.69192L7.9078 7.90415Z"
    fill="currentColor" />
</svg>