<svg viewBox="0 0 20 20" xmlns="http://www.w3.org/2000/svg" id="icon">
  <path fill-rule="evenodd" d="M5.37239 4.36011C6.17003 3.56247 7.25186 3.11436 8.3799 3.11436C9.50794 3.11436 10.5898 3.56247 11.3874 4.36011C12.1851 5.15775 12.6332 6.23959 12.6332 7.36762C12.6332 8.49566 12.1851 9.57749 11.3874 10.3751C10.5898 11.1728 9.50794 11.6209 8.3799 11.6209C7.25186 11.6209 6.17003 11.1728 5.37239 10.3751C4.57474 9.57749 4.12663 8.49566 4.12663 7.36762C4.12663 6.23959 4.57474 5.15775 5.37239 4.36011ZM2.69134 4.47832C2.23674 5.3736 1.99987 6.36354 2 7.36762C1.99977 8.5388 2.32193 9.68743 2.93117 10.6877C3.54041 11.6879 4.41323 12.5011 5.45397 13.0383C6.49472 13.5754 7.66323 13.8157 8.83146 13.7328C9.9997 13.6499 11.1226 13.247 12.0771 12.5683L17.198 17.6892C17.3985 17.8829 17.6671 17.9901 17.9459 17.9877C18.2247 17.9853 18.4914 17.8734 18.6886 17.6763C18.8857 17.4791 18.9975 17.2124 19 16.9336C19.0024 16.6548 18.8952 16.3863 18.7015 16.1857L13.5795 11.0637C14.1613 10.2454 14.5418 9.30128 14.69 8.30818C14.8381 7.31509 14.7498 6.30104 14.4321 5.34853C14.1145 4.39601 13.5765 3.53191 12.862 2.82651C12.1474 2.12111 11.2764 1.59433 10.3199 1.28901C9.36334 0.983694 8.34824 0.908457 7.35714 1.06942C6.36604 1.23038 5.42693 1.623 4.61618 2.21535C3.80543 2.80769 3.14594 3.58304 2.69134 4.47832ZM5.50139 6.61574C5.30198 6.81515 5.18995 7.08561 5.18995 7.36762C5.18995 7.64963 5.30198 7.92009 5.50139 8.1195C5.7008 8.31891 5.97126 8.43094 6.25327 8.43094H10.5065C10.7885 8.43094 11.059 8.31891 11.2584 8.1195C11.4578 7.92009 11.5698 7.64963 11.5698 7.36762C11.5698 7.08561 11.4578 6.81515 11.2584 6.61574C11.059 6.41633 10.7885 6.3043 10.5065 6.3043H6.25327C5.97126 6.3043 5.7008 6.41633 5.50139 6.61574Z"/>
</svg>
