<svg viewBox="0 0 20 20" xmlns="http://www.w3.org/2000/svg" id="icon">
  <path fill-rule="evenodd" d="M1.7203 4.68622C1.23863 5.63481 0.987657 6.68369 0.987793 7.74757C0.987552 8.98848 1.32889 10.2055 1.97441 11.2653C2.61993 12.3251 3.54472 13.1868 4.64744 13.7559C5.75015 14.325 6.98825 14.5796 8.22605 14.4917C9.46385 14.4039 10.6536 13.977 11.6649 13.2579L17.0908 18.6838C17.3032 18.889 17.5878 19.0026 17.8832 19C18.1786 18.9974 18.4612 18.879 18.6701 18.6701C18.879 18.4612 18.9975 18.1786 19 17.8832C19.0026 17.5878 18.889 17.3032 18.6838 17.0907L13.2568 11.6637C13.8733 10.7967 14.2764 9.79637 14.4334 8.74414C14.5904 7.69191 14.4968 6.61748 14.1602 5.60824C13.8237 4.59901 13.2537 3.68346 12.4965 2.93605C11.7394 2.18865 10.8166 1.6305 9.80309 1.307C8.7896 0.983503 7.71405 0.903785 6.66394 1.07433C5.61382 1.24488 4.61878 1.66088 3.75976 2.2885C2.90073 2.91611 2.20197 3.73762 1.7203 4.68622ZM4.56099 4.56097C5.40613 3.71583 6.55239 3.24104 7.74759 3.24104C8.9428 3.24104 10.0891 3.71583 10.9342 4.56097C11.7793 5.40611 12.2541 6.55236 12.2541 7.74757C12.2541 8.94278 11.7793 10.089 10.9342 10.9342C10.0891 11.7793 8.9428 12.2541 7.74759 12.2541C6.55239 12.2541 5.40613 11.7793 4.56099 10.9342C3.71585 10.089 3.24106 8.94278 3.24106 7.74757C3.24106 6.55236 3.71585 5.40611 4.56099 4.56097ZM4.69768 6.95092C4.48639 7.1622 4.36769 7.44876 4.36769 7.74757C4.36769 8.04637 4.48639 8.33293 4.69768 8.54422C4.90896 8.7555 5.19552 8.8742 5.49433 8.8742H6.62096V10.0008C6.62096 10.2996 6.73966 10.5862 6.95094 10.7975C7.16223 11.0088 7.44879 11.1275 7.74759 11.1275C8.04639 11.1275 8.33296 11.0088 8.54424 10.7975C8.75553 10.5862 8.87423 10.2996 8.87423 10.0008V8.8742H10.0009C10.2997 8.8742 10.5862 8.7555 10.7975 8.54422C11.0088 8.33293 11.1275 8.04637 11.1275 7.74757C11.1275 7.44876 11.0088 7.1622 10.7975 6.95092C10.5862 6.73963 10.2997 6.62093 10.0009 6.62093H8.87423V5.4943C8.87423 5.1955 8.75553 4.90894 8.54424 4.69765C8.33296 4.48637 8.04639 4.36767 7.74759 4.36767C7.44879 4.36767 7.16223 4.48637 6.95094 4.69765C6.73966 4.90894 6.62096 5.1955 6.62096 5.4943V6.62093H5.49433C5.19552 6.62093 4.90896 6.73963 4.69768 6.95092Z"/>
</svg>
