<svg width="20" height="20" viewBox="0 0 20 20" fill="none" xmlns="http://www.w3.org/2000/svg">
<path fill-rule="evenodd" clip-rule="evenodd" d="M18 8.00001C18.0003 8.93719 17.781 9.86139 17.3598 10.6986C16.9386 11.5357 16.3271 12.2626 15.5744 12.8209C14.8216 13.3792 13.9486 13.7534 13.0252 13.9135C12.1018 14.0737 11.1538 14.0153 10.257 13.743L10 14L9 15L8 16H6V18H2V14L6.257 9.74301C6.00745 8.91803 5.93857 8.04896 6.05504 7.19496C6.17152 6.34096 6.47062 5.52208 6.93199 4.79406C7.39336 4.06604 8.00616 3.44596 8.72869 2.97603C9.45122 2.50611 10.2665 2.19736 11.1191 2.07082C11.9716 1.94427 12.8415 2.0029 13.6693 2.2427C14.4972 2.4825 15.2637 2.89785 15.9166 3.46048C16.5696 4.02311 17.0936 4.71981 17.4531 5.50315C17.8127 6.2865 17.9992 7.13811 18 8.00001ZM12 4.00001C11.7348 4.00001 11.4804 4.10537 11.2929 4.29291C11.1054 4.48044 11 4.7348 11 5.00001C11 5.26523 11.1054 5.51958 11.2929 5.70712C11.4804 5.89466 11.7348 6.00001 12 6.00001C12.5304 6.00001 13.0391 6.21073 13.4142 6.5858C13.7893 6.96087 14 7.46958 14 8.00001C14 8.26523 14.1054 8.51959 14.2929 8.70712C14.4804 8.89466 14.7348 9.00001 15 9.00001C15.2652 9.00001 15.5196 8.89466 15.7071 8.70712C15.8946 8.51959 16 8.26523 16 8.00001C16 6.93915 15.5786 5.92173 14.8284 5.17159C14.0783 4.42144 13.0609 4.00001 12 4.00001Z" fill="#808080"/>
</svg>
