<svg width="60" height="60" viewBox="0 0 60 60" fill="none" xmlns="http://www.w3.org/2000/svg">
<path d="M27.5 1.44338C29.047 0.550211 30.953 0.550212 32.5 1.44338L53.4808 13.5566C55.0278 14.4498 55.9808 16.1004 55.9808 17.8868V42.1133C55.9808 43.8996 55.0278 45.5502 53.4808 46.4434L32.5 58.5566C30.953 59.4498 29.047 59.4498 27.5 58.5566L6.51924 46.4434C4.97223 45.5502 4.01924 43.8996 4.01924 42.1133V17.8868C4.01924 16.1004 4.97223 14.4498 6.51924 13.5566L27.5 1.44338Z" fill="#F0AD4E"/>
<path d="M43.1753 20.8865C41.4783 20.1747 39.7799 19.9039 38.0825 19.9039C32.6939 19.9034 27.3057 22.6312 21.9171 22.6312C20.5657 22.6312 19.2151 22.4597 17.8637 22.031C17.7119 21.9828 17.5597 21.9601 17.4109 21.9601C16.658 21.9601 16 22.5428 16 23.3518V37.2317C16 37.7842 16.3163 38.3079 16.8242 38.5205C18.5213 39.2328 20.2196 39.5036 21.9171 39.5036C27.3057 39.5036 32.6943 36.7758 38.0829 36.7758C39.4343 36.7758 40.7849 36.9473 42.1363 37.376C42.2881 37.4242 42.4403 37.4469 42.5891 37.4469C43.342 37.4469 44 36.8642 44 36.0552V22.1758C43.9996 21.6228 43.6833 21.0995 43.1753 20.8865ZM18.1 24.2884C18.9802 24.5089 19.8989 24.6196 20.8439 24.6791C20.5867 25.9649 19.4562 26.9339 18.1 26.9339V24.2884ZM18.1 36.757V34.6666C19.6036 34.6666 20.8203 35.8597 20.8872 37.3528C19.9016 37.2737 18.9802 37.0768 18.1 36.757ZM29.9998 33.9037C28.0665 33.9037 26.4998 32.0229 26.4998 29.7037C26.4998 27.3841 28.0669 25.5038 29.9998 25.5038C31.9326 25.5038 33.4997 27.3841 33.4997 29.7037C33.4997 32.0237 31.9322 33.9037 29.9998 33.9037ZM41.8996 35.119C41.1331 34.9269 40.3373 34.8193 39.5231 34.7498C39.7799 33.6088 40.7262 32.7425 41.8996 32.5938V35.119ZM41.8996 24.7894C40.5482 24.6183 39.4995 23.49 39.4579 22.0966C40.3128 22.1915 41.1244 22.3691 41.8996 22.6505V24.7894Z" fill="white"/>
</svg>
